<svg xmlns="http://www.w3.org/2000/svg" xmlns:xlink="http://www.w3.org/1999/xlink" width="48" zoomAndPan="magnify" viewBox="0 0 36 36.000001" height="48" preserveAspectRatio="xMidYMid meet" version="1.0"><defs><clipPath id="8e68a104ae"><path d="M 0.488281 0 L 35.511719 0 L 35.511719 35.027344 L 0.488281 35.027344 Z M 0.488281 0 " clip-rule="nonzero"/></clipPath><clipPath id="2bff633c59"><path d="M 0.488281 0 L 31 0 L 31 29 L 0.488281 29 Z M 0.488281 0 " clip-rule="nonzero"/></clipPath><clipPath id="d227067ba2"><path d="M 0.488281 0 L 29 0 L 29 33 L 0.488281 33 Z M 0.488281 0 " clip-rule="nonzero"/></clipPath><clipPath id="fe8a8a0860"><path d="M 0.488281 0 L 28 0 L 28 32 L 0.488281 32 Z M 0.488281 0 " clip-rule="nonzero"/></clipPath><clipPath id="0eaa59a8a3"><path d="M 0.488281 0 L 31 0 L 31 16 L 0.488281 16 Z M 0.488281 0 " clip-rule="nonzero"/></clipPath><clipPath id="3375fe70fe"><path d="M 0.488281 0 L 13 0 L 13 32 L 0.488281 32 Z M 0.488281 0 " clip-rule="nonzero"/></clipPath><clipPath id="969c84a2b3"><path d="M 0.488281 0 L 28 0 L 28 19 L 0.488281 19 Z M 0.488281 0 " clip-rule="nonzero"/></clipPath><clipPath id="212b81cb87"><path d="M 0.488281 0 L 22 0 L 22 31 L 0.488281 31 Z M 0.488281 0 " clip-rule="nonzero"/></clipPath><clipPath id="1c73866fa1"><path d="M 0.488281 0 L 29 0 L 29 31 L 0.488281 31 Z M 0.488281 0 " clip-rule="nonzero"/></clipPath><clipPath id="d054a5cb18"><path d="M 0.488281 0 L 17 0 L 17 21 L 0.488281 21 Z M 0.488281 0 " clip-rule="nonzero"/></clipPath></defs><g clip-path="url(#8e68a104ae)"><rect x="-3.6" width="43.2" fill="#fefefe" y="-3.6" height="43.200001" fill-opacity="1"/></g><g clip-path="url(#2bff633c59)"><path fill="#193049" d="M 15.71875 -27.59375 C 16.113281 -27.679688 16.113281 -27.679688 16.585938 -27.679688 L 17.105469 -27.683594 L 17.648438 -27.675781 L 18.1875 -27.683594 L 18.707031 -27.679688 L 19.179688 -27.679688 C 19.601562 -27.59375 19.601562 -27.59375 19.980469 -27.3125 L 20.25 -26.949219 C 20.277344 -26.222656 20.277344 -26.222656 20.25 -25.441406 C 20.3125 -25.078125 20.378906 -24.71875 20.46875 -24.363281 L 21.0625 -24.269531 C 21.761719 -24.144531 21.761719 -24.144531 22.191406 -23.992188 L 22.625 -23.929688 C 23.039062 -24.234375 23.359375 -24.582031 23.710938 -24.953125 L 24.136719 -25.222656 C 24.761719 -25.222656 24.761719 -25.222656 25.433594 -25.007812 C 26.03125 -24.554688 26.03125 -24.554688 26.59375 -23.984375 L 27.164062 -23.421875 C 27.589844 -22.851562 27.589844 -22.851562 27.695312 -22.300781 C 27.507812 -21.359375 26.894531 -20.785156 26.296875 -20.050781 L 27.160156 -18.113281 L 27.664062 -18.070312 L 28.320312 -18.015625 L 28.972656 -17.964844 C 29.535156 -17.894531 29.535156 -17.894531 29.964844 -17.679688 C 30.203125 -16.964844 30.21875 -16.410156 30.222656 -15.660156 L 30.230469 -14.925781 C 30.179688 -14.230469 30.082031 -13.765625 29.75 -13.152344 C 29.097656 -12.9375 28.660156 -12.917969 27.980469 -12.925781 L 27.394531 -12.929688 L 26.941406 -12.9375 C 26.660156 -12.230469 26.414062 -11.539062 26.296875 -10.78125 C 26.648438 -10.128906 26.648438 -10.128906 27.160156 -9.707031 L 27.160156 -9.273438 L 27.589844 -9.273438 C 27.648438 -8.691406 27.648438 -8.691406 27.589844 -7.980469 C 27.203125 -7.445312 27.203125 -7.445312 26.6875 -6.957031 L 26.179688 -6.460938 C 25.644531 -6.039062 25.222656 -5.792969 24.570312 -5.609375 C 23.988281 -5.878906 23.542969 -6.214844 23.042969 -6.605469 C 22.644531 -6.910156 22.644531 -6.910156 22.222656 -7.078125 C 21.566406 -7.136719 21.070312 -6.921875 20.46875 -6.6875 L 20.441406 -6.144531 L 20.398438 -5.433594 L 20.363281 -4.730469 C 20.25 -4.101562 20.25 -4.101562 19.976562 -3.742188 C 19.601562 -3.453125 19.601562 -3.453125 19.179688 -3.371094 L 18.707031 -3.367188 L 18.1875 -3.367188 L 17.648438 -3.375 L 17.105469 -3.367188 L 16.585938 -3.367188 L 16.113281 -3.371094 L 15.71875 -3.453125 C 15.226562 -4.1875 15.207031 -4.566406 15.152344 -5.433594 L 15.101562 -6.144531 L 15.070312 -6.6875 C 14.339844 -6.851562 13.660156 -6.953125 12.910156 -6.902344 C 12.398438 -6.609375 12.015625 -6.289062 11.59375 -5.878906 L 11.183594 -5.609375 C 10.664062 -5.613281 10.664062 -5.613281 10.105469 -5.824219 C 9.535156 -6.289062 9.535156 -6.289062 8.972656 -6.863281 L 8.402344 -7.433594 C 7.945312 -7.980469 7.945312 -7.980469 7.726562 -8.429688 L 7.730469 -8.84375 C 8.046875 -9.257812 8.046875 -9.257812 8.484375 -9.679688 C 8.910156 -10.117188 8.910156 -10.117188 9.242188 -10.566406 C 9.28125 -11.261719 9.28125 -11.261719 9.027344 -11.859375 C 8.949219 -12.148438 8.878906 -12.433594 8.808594 -12.722656 L 8.15625 -12.761719 L 6.46875 -12.871094 L 5.789062 -12.9375 L 5.570312 -13.152344 C 5.359375 -14.617188 5.296875 -16.011719 5.570312 -17.464844 L 5.789062 -17.679688 C 6.257812 -17.730469 6.730469 -17.769531 7.203125 -17.800781 L 7.988281 -17.855469 L 8.59375 -17.894531 L 8.796875 -18.507812 C 9.027344 -19.1875 9.027344 -19.1875 9.253906 -19.714844 L 9.242188 -20.265625 C 8.867188 -20.675781 8.476562 -21.027344 8.046875 -21.378906 L 7.730469 -21.777344 C 7.722656 -22.28125 7.722656 -22.28125 7.945312 -22.851562 C 8.308594 -23.316406 8.652344 -23.710938 9.066406 -24.121094 L 9.375 -24.453125 C 9.683594 -24.765625 9.683594 -24.765625 10.320312 -25.222656 C 11.011719 -25.222656 11.011719 -25.222656 11.617188 -25.007812 L 12.210938 -24.429688 L 12.910156 -23.929688 C 13.664062 -23.964844 14.351562 -24.140625 15.070312 -24.363281 L 15.101562 -24.90625 L 15.152344 -25.613281 C 15.167969 -25.847656 15.179688 -26.078125 15.195312 -26.320312 C 15.285156 -26.949219 15.285156 -26.949219 15.71875 -27.59375 M -23.449219 5.125 L -22.707031 5.117188 C -22.058594 5.167969 -22.058594 5.167969 -21.414062 5.597656 C -21.347656 6.113281 -21.347656 6.113281 -21.371094 6.703125 L -21.390625 7.296875 L -21.414062 7.753906 L -21.011719 7.839844 L -20.480469 7.957031 L -19.957031 8.070312 C -19.46875 8.183594 -19.46875 8.183594 -18.820312 8.398438 L -18.203125 7.96875 L -17.527344 7.539062 C -16.832031 7.578125 -16.425781 7.765625 -15.824219 8.113281 L -15.191406 8.5625 L -14.554688 9.003906 L -14.074219 9.476562 C -13.96875 10.023438 -13.96875 10.023438 -14.074219 10.554688 C -14.308594 10.992188 -14.308594 10.992188 -14.613281 11.378906 L -14.914062 11.773438 L -15.152344 12.0625 C -14.882812 12.796875 -14.59375 13.417969 -14.074219 14.003906 C -13.4375 14.179688 -12.898438 14.207031 -12.242188 14.199219 L -11.699219 14.21875 L -11.050781 14.652344 C -10.992188 15.28125 -10.96875 15.855469 -10.984375 16.484375 L -10.980469 16.996094 C -10.984375 17.4375 -11.015625 17.875 -11.050781 18.316406 L -11.480469 18.746094 C -11.902344 18.796875 -12.328125 18.835938 -12.75 18.867188 C -13.449219 18.949219 -13.449219 18.949219 -14.074219 19.175781 C -14.476562 19.644531 -14.652344 20.046875 -14.859375 20.625 C -14.941406 21.148438 -14.886719 21.480469 -14.71875 21.980469 L -14.289062 21.980469 L -13.855469 22.625 C -13.875 23.132812 -13.875 23.132812 -14.074219 23.703125 C -14.511719 24.289062 -14.511719 24.289062 -15.070312 24.863281 C -15.253906 25.054688 -15.433594 25.246094 -15.621094 25.445312 C -15.820312 25.582031 -16.023438 25.71875 -16.230469 25.859375 C -17.003906 25.855469 -17.003906 25.855469 -17.742188 25.644531 L -18.191406 25.300781 L -18.605469 24.996094 C -19.21875 24.964844 -19.21875 24.964844 -19.847656 25.0625 L -20.492188 25.140625 L -20.980469 25.210938 L -20.972656 25.597656 C -20.960938 26.507812 -20.96875 27.34375 -21.195312 28.230469 C -22.660156 28.488281 -24.300781 28.703125 -25.730469 28.230469 L -25.761719 27.695312 C -25.839844 26.972656 -25.9375 26.332031 -26.160156 25.644531 C -26.574219 25.226562 -26.898438 25.054688 -27.449219 24.855469 C -27.914062 24.75 -27.914062 24.75 -28.480469 24.902344 C -28.972656 25.203125 -28.972656 25.203125 -29.398438 25.5625 C -29.832031 25.859375 -29.832031 25.859375 -30.320312 25.941406 C -30.910156 25.859375 -30.910156 25.859375 -31.542969 25.433594 L -32.179688 24.863281 L -32.824219 24.300781 L -33.285156 23.703125 C -33.273438 23.011719 -33.273438 23.011719 -33.070312 22.410156 L -32.609375 21.964844 L -32.207031 21.546875 C -32.210938 21.019531 -32.210938 21.019531 -32.421875 20.46875 L -32.652344 19.757812 L -32.855469 19.175781 L -33.414062 19.136719 L -34.136719 19.082031 L -34.855469 19.03125 L -35.445312 18.960938 L -35.660156 18.746094 C -35.675781 18.457031 -35.683594 18.167969 -35.679688 17.875 L -35.679688 17.347656 L -35.671875 16.792969 L -35.671875 16.234375 C -35.667969 15.777344 -35.664062 15.324219 -35.660156 14.867188 L -35.117188 14.769531 C -34.410156 14.625 -33.746094 14.464844 -33.070312 14.21875 C -32.53125 13.527344 -32.445312 13.046875 -32.273438 12.199219 L -32.207031 11.632812 L -32.636719 11.632812 C -33.015625 11.148438 -33.015625 11.148438 -33.285156 10.554688 C -32.953125 9.636719 -32.28125 9.007812 -31.59375 8.339844 C -31.125 7.96875 -31.125 7.96875 -30.316406 7.714844 L -29.617188 7.753906 C -29.320312 7.960938 -29.035156 8.175781 -28.753906 8.398438 C -28.230469 8.375 -28.230469 8.375 -27.671875 8.183594 L -26.847656 7.957031 C -26.621094 7.890625 -26.394531 7.820312 -26.160156 7.753906 L -26.175781 7.34375 L -26.1875 6.808594 L -26.203125 6.28125 L -26.160156 5.8125 C -25.730469 5.382812 -25.730469 5.382812 -25.359375 5.25 C -24.71875 5.140625 -24.101562 5.128906 -23.449219 5.125 M 19.039062 -64.394531 C 20.464844 -63.738281 21.550781 -62.855469 22.53125 -61.636719 C 23.054688 -60.78125 23.160156 -60.0625 23.191406 -59.0625 C 23.128906 -57.738281 22.902344 -56.738281 22.195312 -55.617188 L 21.890625 -55.132812 C 20.65625 -53.386719 18.867188 -52.128906 17.011719 -51.089844 C 16.6875 -50.945312 16.359375 -50.8125 16.027344 -50.683594 C 14.949219 -50.265625 13.882812 -49.824219 12.816406 -49.375 C 12.421875 -49.214844 12.023438 -49.066406 11.617188 -48.933594 C 11.363281 -48.300781 11.363281 -48.300781 11.183594 -47.640625 L 10.96875 -47.210938 L 11.398438 -47.210938 L 11.507812 -46.722656 C 11.800781 -46.070312 11.800781 -46.070312 12.539062 -45.691406 C 13.769531 -45.109375 15.078125 -44.976562 16.417969 -44.796875 C 16.917969 -44.726562 17.421875 -44.65625 17.921875 -44.585938 L 18.585938 -44.496094 C 19.082031 -44.421875 19.550781 -44.3125 20.035156 -44.191406 C 20.53125 -44.160156 21.023438 -44.144531 21.519531 -44.136719 L 22.300781 -44.121094 C 23.136719 -44.199219 23.640625 -44.394531 24.351562 -44.839844 C 24.914062 -45.628906 25.238281 -46.242188 25.378906 -47.195312 L 25.433594 -47.855469 C 23.957031 -47.765625 22.976562 -47.445312 21.679688 -46.765625 C 19.921875 -45.917969 18.394531 -45.679688 16.449219 -45.796875 C 15.203125 -45.925781 14.054688 -46.269531 12.910156 -46.777344 L 12.695312 -47.855469 L 13.320312 -48.164062 C 13.613281 -48.308594 13.902344 -48.453125 14.191406 -48.597656 L 14.664062 -48.828125 C 15.480469 -49.238281 16.289062 -49.652344 17.089844 -50.097656 C 19.847656 -51.625 22.324219 -52.480469 25.5 -52.476562 C 26.589844 -52.347656 27.402344 -51.992188 28.332031 -51.398438 L 28.671875 -51.089844 L 28.671875 -50.65625 L 29.316406 -50.441406 C 29.867188 -49.691406 30.15625 -48.910156 30.277344 -47.992188 C 30.121094 -46.71875 29.90625 -45.609375 29.183594 -44.53125 C 27.742188 -42.804688 25.992188 -41.914062 23.933594 -41.121094 L 23.519531 -40.960938 C 20.246094 -39.761719 16.414062 -39.75 12.988281 -40.164062 C 11.101562 -40.5 9.398438 -41.21875 7.90625 -42.414062 C 6.957031 -43.277344 6.355469 -44.128906 5.9375 -45.347656 C 5.570312 -46.742188 5.441406 -48.011719 5.800781 -49.417969 C 6.105469 -50.261719 6.457031 -50.9375 7.078125 -51.585938 C 8.859375 -53.085938 10.957031 -53.984375 13.070312 -54.90625 C 15.425781 -55.933594 15.425781 -55.933594 17.398438 -57.542969 L 17.660156 -57.984375 L 17.660156 -58.847656 C 15.910156 -58.890625 14.328125 -58.875 12.617188 -58.492188 C 11.964844 -58.40625 11.425781 -58.480469 10.78125 -58.578125 C 10.203125 -58.664062 10.203125 -58.664062 9.671875 -58.632812 C 8.828125 -57.910156 8.402344 -57.050781 7.945312 -56.046875 L 7.296875 -56.261719 L 7.230469 -56.679688 L 7.082031 -57.125 C 6.4375 -57.40625 6.4375 -57.40625 5.789062 -57.554688 L 6.003906 -58.417969 L 6.828125 -58.472656 C 7.296875 -58.519531 7.296875 -58.519531 7.730469 -58.632812 C 8.179688 -59.019531 8.179688 -59.019531 8.378906 -59.496094 L 8.378906 -59.925781 L 7.824219 -60.425781 L 7.296875 -61.003906 C 7.320312 -61.511719 7.320312 -61.511719 7.515625 -62.082031 C 8.324219 -63.257812 9.292969 -64.230469 10.5625 -64.898438 C 13.246094 -66.164062 16.425781 -65.503906 19.039062 -64.394531 M -17.78125 -64.855469 C -16.777344 -64.460938 -15.929688 -63.90625 -15.152344 -63.160156 C -14.894531 -62.816406 -14.640625 -62.472656 -14.394531 -62.121094 C -14.046875 -61.617188 -14.046875 -61.617188 -13.640625 -61.21875 C -13.015625 -60.996094 -12.589844 -60.992188 -11.914062 -61.003906 L -11.699219 -61.433594 L -10.402344 -61.433594 C -10.457031 -61.03125 -10.457031 -61.03125 -10.617188 -60.574219 C -11.0625 -60.304688 -11.0625 -60.304688 -11.480469 -60.140625 L -11.144531 -59.75 L -10.835938 -59.28125 L -11.050781 -58.632812 C -11.777344 -58.75 -12.148438 -58.859375 -12.777344 -59.28125 C -13.894531 -59.4375 -14.914062 -59.320312 -15.976562 -58.957031 C -17.925781 -58.308594 -20.054688 -58.59375 -22.058594 -58.847656 L -22.058594 -57.984375 L -21.671875 -57.800781 C -21.195312 -57.554688 -21.195312 -57.554688 -20.496094 -57.082031 C -19.644531 -56.542969 -18.75 -56.152344 -17.824219 -55.761719 C -15.679688 -54.855469 -13.523438 -53.890625 -11.914062 -52.167969 L -11.546875 -51.785156 C -10.835938 -50.988281 -10.199219 -50.214844 -9.972656 -49.148438 C -9.835938 -47.761719 -9.78125 -46.390625 -10.308594 -45.082031 C -10.957031 -43.851562 -11.832031 -42.84375 -12.949219 -42.023438 C -13.664062 -41.589844 -14.347656 -41.300781 -15.136719 -41.027344 L -15.898438 -40.753906 C -18.953125 -39.847656 -22.878906 -39.984375 -26 -40.554688 C -28.171875 -41.089844 -30.589844 -41.765625 -32.320312 -43.238281 C -32.914062 -43.8125 -33.371094 -44.273438 -33.664062 -45.058594 C -33.886719 -45.871094 -33.988281 -46.605469 -33.839844 -47.4375 C -33.5625 -48.316406 -33.074219 -48.957031 -32.445312 -49.617188 C -31.429688 -50.492188 -30.226562 -51.015625 -28.941406 -51.371094 C -26.121094 -51.886719 -23.175781 -51.527344 -20.480469 -50.636719 C -19.160156 -50.125 -17.890625 -49.515625 -16.878906 -48.503906 C -16.617188 -48.03125 -16.617188 -48.03125 -16.445312 -47.640625 C -16.785156 -47.234375 -16.785156 -47.234375 -17.3125 -46.777344 C -18.867188 -46.242188 -20.429688 -46.140625 -22.058594 -46.347656 C -22.976562 -46.554688 -23.859375 -46.851562 -24.746094 -47.167969 C -26.03125 -47.597656 -26.984375 -47.664062 -28.320312 -47.425781 L -28.535156 -46.5625 C -27.179688 -46.140625 -25.828125 -45.757812 -24.433594 -45.484375 L -23.855469 -45.367188 C -21.6875 -45.066406 -19.207031 -45.007812 -17.121094 -45.707031 C -16.605469 -45.925781 -16.605469 -45.925781 -15.976562 -46.386719 C -15.597656 -46.972656 -15.503906 -47.1875 -15.460938 -47.855469 C -15.503906 -48.527344 -15.605469 -48.753906 -15.976562 -49.351562 C -16.425781 -49.839844 -16.425781 -49.839844 -17.09375 -50.011719 L -17.09375 -50.441406 L -17.742188 -50.441406 L -17.742188 -50.875 L -18.5 -51.039062 C -19.460938 -51.28125 -20.304688 -51.652344 -21.183594 -52.097656 L -21.636719 -52.332031 C -23.34375 -53.21875 -24.796875 -54.226562 -25.898438 -55.828125 C -26.632812 -57.035156 -26.859375 -58.046875 -26.917969 -59.46875 C -26.882812 -60.695312 -26.710938 -61.640625 -26.089844 -62.703125 C -25.328125 -63.667969 -24.394531 -64.1875 -23.28125 -64.671875 C -21.53125 -65.289062 -19.570312 -65.375 -17.78125 -64.855469 M -60.242188 -95.679688 C -58.078125 -94.269531 -58.078125 -94.269531 -57.464844 -93.765625 L -57.464844 -93.335938 L -56.382812 -92.902344 L -56.382812 -92.472656 L -55.953125 -92.335938 C -55.367188 -92.070312 -55.039062 -91.828125 -54.558594 -91.417969 C -53.480469 -90.601562 -52.371094 -90.355469 -51.066406 -90.074219 C -50.605469 -89.96875 -50.144531 -89.859375 -49.6875 -89.753906 L -49.015625 -89.597656 C -48.214844 -89.414062 -47.421875 -89.203125 -46.628906 -88.984375 L -45.957031 -88.800781 C -45.335938 -88.578125 -44.835938 -88.324219 -44.292969 -87.945312 C -43.773438 -87.066406 -43.601562 -86.378906 -43.566406 -85.359375 C -43.605469 -84.332031 -43.75 -83.652344 -44.292969 -82.773438 C -44.851562 -82.339844 -45.15625 -82.113281 -45.804688 -81.910156 C -46.460938 -81.847656 -47.09375 -81.859375 -47.75 -81.910156 L -47.90625 -82.34375 C -48.484375 -83.867188 -48.484375 -83.867188 -49.476562 -85.144531 C -50.359375 -85.761719 -51.039062 -85.960938 -52.09375 -86.085938 C -53.054688 -85.992188 -53.738281 -85.757812 -54.589844 -85.308594 C -55.324219 -84.75 -55.628906 -84.105469 -55.988281 -83.269531 C -56.125 -82.890625 -56.257812 -82.507812 -56.382812 -82.125 C -57.535156 -81.890625 -58.652344 -81.875 -59.820312 -81.875 L -60.4375 -81.871094 C -60.863281 -81.871094 -61.292969 -81.871094 -61.71875 -81.871094 C -62.375 -81.871094 -63.03125 -81.867188 -63.6875 -81.863281 C -64.101562 -81.863281 -64.519531 -81.863281 -64.933594 -81.863281 L -65.53125 -81.855469 L -66.082031 -81.859375 L -66.566406 -81.859375 L -66.960938 -81.910156 C -67.449219 -82.398438 -67.53125 -82.714844 -67.742188 -83.367188 C -67.988281 -84 -68.191406 -84.429688 -68.667969 -84.917969 C -69.371094 -85.457031 -69.964844 -85.839844 -70.847656 -86.007812 C -71.570312 -86.074219 -72.144531 -86.09375 -72.824219 -85.8125 C -73.125 -85.660156 -73.421875 -85.5 -73.71875 -85.332031 C -74.085938 -85.144531 -74.085938 -85.144531 -74.515625 -85.144531 C -74.871094 -84.453125 -75.195312 -83.75 -75.515625 -83.042969 L -75.808594 -82.398438 L -76.027344 -81.910156 C -76.40625 -81.929688 -76.785156 -81.953125 -77.160156 -81.976562 L -77.800781 -82.015625 C -78.402344 -82.125 -78.402344 -82.125 -78.910156 -82.335938 L -79.265625 -82.773438 C -79.371094 -83.4375 -79.347656 -84.085938 -79.320312 -84.753906 L -79.308594 -85.304688 C -79.296875 -85.753906 -79.28125 -86.203125 -79.265625 -86.652344 C -78.128906 -87.328125 -78.128906 -87.328125 -77.753906 -87.515625 L -77.324219 -87.515625 C -77.289062 -88.136719 -77.289062 -88.136719 -77.324219 -88.808594 L -77.753906 -89.453125 L -77.039062 -89.886719 C -75.933594 -90.699219 -75.265625 -91.777344 -74.542969 -92.921875 C -73.878906 -93.949219 -73.167969 -94.804688 -72.140625 -95.488281 C -71.242188 -95.945312 -70.386719 -95.996094 -69.394531 -96.019531 L -68.910156 -96.03125 C -68.574219 -96.042969 -68.234375 -96.050781 -67.894531 -96.058594 C -67.386719 -96.070312 -66.878906 -96.085938 -66.367188 -96.101562 C -61.769531 -96.226562 -61.769531 -96.226562 -60.242188 -95.679688 " fill-opacity="1" fill-rule="nonzero"/></g><path fill="#d01c16" d="M 26.296875 8.398438 C 26.78125 8.304688 26.78125 8.304688 27.375 8.398438 C 27.878906 8.71875 28.238281 9.058594 28.671875 9.476562 L 28.671875 9.910156 L 29.316406 10.125 C 29.496094 10.777344 29.496094 10.777344 29.535156 11.632812 C 29.246094 12.253906 28.832031 12.75 28.398438 13.277344 L 28.042969 13.730469 C 27.191406 14.800781 26.308594 15.847656 25.417969 16.882812 C 24.796875 17.605469 24.203125 18.355469 23.636719 19.125 C 22.835938 20.210938 21.992188 21.25 21.128906 22.289062 C 20.019531 23.617188 18.941406 24.972656 17.894531 26.347656 C 16.421875 28.277344 16.421875 28.277344 15.5 28.660156 C 14.777344 28.625 14.777344 28.625 13.992188 28.445312 C 13.4375 28.066406 13.4375 28.066406 12.882812 27.527344 L 12.570312 27.226562 C 12.324219 26.988281 12.082031 26.75 11.839844 26.511719 C 11.316406 25.992188 10.789062 25.480469 10.261719 24.96875 C 9.855469 24.570312 9.445312 24.171875 9.039062 23.769531 L 8.441406 23.1875 C 6.371094 21.128906 6.371094 21.128906 5.789062 19.824219 C 5.71875 19.070312 5.71875 19.070312 6.003906 18.316406 C 6.703125 17.464844 7.464844 16.769531 8.378906 16.160156 C 9.066406 16.132812 9.066406 16.132812 9.671875 16.160156 L 9.671875 16.589844 L 10.121094 16.738281 C 10.914062 17.09375 11.542969 17.566406 12.222656 18.097656 L 12.613281 18.394531 C 12.9375 18.644531 13.25 18.910156 13.558594 19.175781 L 13.558594 19.609375 L 15.070312 20.039062 L 15.238281 19.660156 C 15.53125 19.125 15.855469 18.773438 16.285156 18.34375 L 16.773438 17.859375 L 17.300781 17.339844 L 17.84375 16.800781 C 18.414062 16.230469 18.988281 15.664062 19.5625 15.09375 L 20.714844 13.949219 C 21.421875 13.25 22.128906 12.546875 22.835938 11.847656 C 23.488281 11.203125 24.136719 10.554688 24.785156 9.910156 Z M 26.296875 8.398438 " fill-opacity="1" fill-rule="nonzero"/><g clip-path="url(#d227067ba2)"><path fill="#193049" d="M 9.671875 -81.910156 C 10.261719 -81.933594 10.847656 -81.941406 11.4375 -81.9375 L 12 -81.941406 C 12.613281 -81.941406 13.226562 -81.941406 13.84375 -81.941406 C 14.265625 -81.941406 14.691406 -81.941406 15.117188 -81.941406 C 16.011719 -81.941406 16.902344 -81.941406 17.792969 -81.9375 C 18.941406 -81.9375 20.085938 -81.9375 21.234375 -81.941406 C 22.109375 -81.941406 22.988281 -81.941406 23.867188 -81.941406 C 24.289062 -81.941406 24.714844 -81.941406 25.136719 -81.941406 C 25.726562 -81.941406 26.316406 -81.941406 26.90625 -81.9375 L 27.441406 -81.941406 C 27.851562 -81.9375 28.261719 -81.925781 28.671875 -81.910156 L 28.886719 -81.695312 C 28.90625 -81.15625 28.917969 -80.621094 28.914062 -80.078125 L 28.914062 -79.621094 C 28.914062 -79.234375 28.902344 -78.847656 28.886719 -78.460938 L 28.671875 -78.246094 C 28.078125 -78.226562 27.496094 -78.21875 26.90625 -78.21875 L 26.34375 -78.21875 C 25.730469 -78.21875 25.117188 -78.21875 24.5 -78.21875 C 24.074219 -78.21875 23.652344 -78.21875 23.226562 -78.21875 C 22.332031 -78.21875 21.441406 -78.21875 20.550781 -78.21875 C 19.402344 -78.21875 18.257812 -78.21875 17.109375 -78.21875 C 16.234375 -78.21875 15.355469 -78.21875 14.476562 -78.21875 C 14.054688 -78.21875 13.628906 -78.21875 13.207031 -78.21875 C 12.617188 -78.21875 12.027344 -78.21875 11.4375 -78.21875 L 10.902344 -78.21875 C 10.492188 -78.21875 10.082031 -78.230469 9.671875 -78.246094 L 9.457031 -78.460938 C 9.4375 -79.003906 9.425781 -79.539062 9.429688 -80.078125 L 9.429688 -80.539062 C 9.429688 -80.921875 9.441406 -81.308594 9.457031 -81.695312 Z M -71.066406 25.691406 C -70.53125 25.894531 -70.304688 26.140625 -69.933594 26.570312 L -69.558594 27.003906 L -69.175781 27.460938 L -68.78125 27.914062 C -68.078125 28.734375 -68.078125 28.734375 -67.824219 29.09375 L -67.824219 29.523438 L -67.394531 29.523438 L -67.054688 29.941406 C -66.582031 30.402344 -66.582031 30.402344 -66.085938 30.519531 C -65.546875 30.605469 -65.132812 30.671875 -64.585938 30.601562 C -63.632812 30.066406 -62.945312 29.421875 -62.226562 28.605469 L -61.667969 27.980469 L -61.132812 27.367188 L -60.65625 26.828125 C -60.3125 26.433594 -59.964844 26.039062 -59.621094 25.644531 C -58.277344 25.828125 -57.222656 26.125 -56.082031 26.867188 C -55.734375 27.152344 -55.734375 27.152344 -55.304688 27.796875 C -55.332031 28.417969 -55.332031 28.417969 -55.519531 29.09375 C -55.945312 29.722656 -56.316406 30.125 -56.960938 30.535156 C -60.117188 31.945312 -63.816406 32.394531 -67.25 32.058594 C -69.824219 31.789062 -72.300781 31.496094 -74.460938 29.964844 L -74.949219 29.523438 C -75.179688 28.78125 -75.179688 28.78125 -75.164062 28.015625 C -74.882812 27.449219 -74.882812 27.449219 -74.300781 26.9375 C -71.96875 25.589844 -71.96875 25.589844 -71.066406 25.691406 M -9.539062 17.882812 C -9.222656 17.871094 -8.910156 17.863281 -8.59375 17.855469 L -8.0625 17.839844 L -7.597656 17.882812 L -7.164062 18.316406 C -7.050781 18.941406 -7.050781 18.941406 -6.988281 19.6875 L -6.917969 20.433594 C -6.949219 21.117188 -6.949219 21.117188 -7.207031 21.621094 C -7.597656 21.980469 -7.597656 21.980469 -8.085938 22.15625 L -8.609375 22.25 C -8.78125 22.28125 -8.957031 22.3125 -9.136719 22.347656 L -9.539062 22.410156 C -9.777344 23.058594 -9.957031 23.65625 -9.972656 24.351562 C -9.683594 24.769531 -9.386719 25.023438 -8.972656 25.324219 L -8.675781 25.644531 C -8.578125 26.148438 -8.578125 26.148438 -8.675781 26.722656 C -9.054688 27.304688 -9.054688 27.304688 -9.566406 27.878906 L -10.066406 28.464844 L -10.617188 28.875 C -11.292969 28.859375 -11.292969 28.859375 -11.914062 28.660156 L -12.5625 28.230469 C -13.386719 28.300781 -13.996094 28.496094 -14.71875 28.875 L -14.707031 29.332031 L -14.691406 29.925781 L -14.679688 30.519531 L -14.71875 31.03125 C -15.152344 31.460938 -15.152344 31.460938 -15.621094 31.597656 C -17.660156 31.988281 -17.660156 31.988281 -18.605469 31.894531 C -19.179688 31.320312 -19.277344 30.742188 -19.496094 29.972656 L -19.683594 29.523438 L -20.332031 29.09375 L -19.683594 26.722656 L -18.605469 26.503906 L -17.878906 26.84375 C -17.125 27.207031 -17.125 27.207031 -16.378906 27.097656 C -15.203125 26.675781 -14.265625 25.675781 -13.425781 24.78125 C -12.917969 24.117188 -12.78125 23.726562 -12.667969 22.890625 C -12.652344 22.601562 -12.640625 22.308594 -12.628906 22.019531 L -12.605469 21.566406 C -12.589844 21.203125 -12.574219 20.835938 -12.5625 20.46875 L -12.121094 20.34375 C -11.507812 20.136719 -10.964844 19.929688 -10.402344 19.609375 C -9.972656 19.042969 -9.789062 18.5625 -9.539062 17.882812 " fill-opacity="1" fill-rule="nonzero"/></g><g clip-path="url(#fe8a8a0860)"><path fill="#0c2240" d="M -9.972656 24.78125 C -9.4375 25.03125 -9.097656 25.222656 -8.675781 25.644531 C -8.59375 26.136719 -8.59375 26.136719 -8.675781 26.722656 C -9.054688 27.304688 -9.054688 27.304688 -9.566406 27.878906 C -9.730469 28.074219 -9.898438 28.265625 -10.066406 28.464844 L -10.617188 28.875 C -11.292969 28.859375 -11.292969 28.859375 -11.914062 28.660156 L -12.5625 28.230469 C -13.472656 28.308594 -14.292969 28.570312 -15.152344 28.875 L -15.152344 28.230469 C -14.515625 27.957031 -13.890625 27.726562 -13.210938 27.582031 C -12.726562 27.652344 -12.726562 27.652344 -12.277344 27.785156 L -11.480469 28.015625 C -10.988281 27.847656 -10.988281 27.847656 -10.617188 27.582031 L -9.972656 27.582031 L -9.875 27.179688 C -9.753906 26.722656 -9.753906 26.722656 -9.539062 26.289062 C -9.671875 25.78125 -9.8125 25.28125 -9.972656 24.78125 M -19.902344 27.796875 C -19.515625 28.378906 -19.277344 28.878906 -19.023438 29.523438 L -18.800781 30.089844 C -18.65625 30.472656 -18.519531 30.859375 -18.390625 31.246094 C -18.039062 31.214844 -17.6875 31.183594 -17.335938 31.152344 L -16.746094 31.101562 C -16.230469 31.058594 -16.230469 31.058594 -15.800781 30.816406 C -15.652344 30.410156 -15.652344 30.410156 -15.558594 29.941406 L -15.445312 29.460938 L -15.367188 29.09375 L -14.9375 29.09375 C -14.886719 29.40625 -14.84375 29.71875 -14.800781 30.035156 L -14.726562 30.566406 L -14.71875 31.03125 C -15.152344 31.460938 -15.152344 31.460938 -15.621094 31.597656 C -17.660156 31.988281 -17.660156 31.988281 -18.605469 31.894531 C -19.179688 31.320312 -19.277344 30.742188 -19.496094 29.972656 L -19.683594 29.523438 L -20.332031 29.09375 Z M -69.121094 -79.972656 L -54.871094 -79.972656 L -54.871094 -79.753906 L -60.269531 -79.539062 L -60.269531 -79.109375 L -61.132812 -79.324219 L -61.132812 -79.753906 L -61.359375 -79.433594 L -61.78125 -79.109375 C -62.503906 -79.046875 -62.503906 -79.046875 -63.332031 -79.070312 L -64.164062 -79.085938 L -64.800781 -79.109375 L -64.800781 -79.539062 L -69.121094 -79.753906 Z M -15.152344 12.925781 L -14.71875 12.925781 L -14.519531 13.453125 L -14.074219 14.003906 C -13.460938 14.121094 -12.878906 14.152344 -12.257812 14.167969 C -11.699219 14.21875 -11.699219 14.21875 -11.050781 14.652344 C -10.992188 15.28125 -10.96875 15.855469 -10.984375 16.484375 L -10.980469 16.996094 C -10.984375 17.4375 -11.015625 17.875 -11.050781 18.316406 L -11.480469 18.746094 C -11.996094 18.835938 -11.996094 18.835938 -12.589844 18.878906 L -13.183594 18.929688 L -13.640625 18.960938 L -13.855469 18.53125 L -11.914062 18.316406 C -11.867188 17.824219 -11.820312 17.335938 -11.777344 16.847656 L -11.703125 16.019531 L -11.699219 15.296875 L -12.128906 14.652344 C -12.683594 14.566406 -12.683594 14.566406 -13.304688 14.570312 C -13.949219 14.53125 -13.949219 14.53125 -14.503906 14.433594 C -14.976562 13.910156 -14.976562 13.910156 -15.152344 13.359375 Z M 25.863281 -10.78125 L 26.296875 -10.78125 C 26.753906 -10.269531 26.753906 -10.269531 27.160156 -9.707031 L 27.160156 -9.273438 L 27.589844 -9.273438 C 27.648438 -8.691406 27.648438 -8.691406 27.589844 -7.980469 C 27.203125 -7.445312 27.203125 -7.445312 26.6875 -6.957031 L 26.179688 -6.460938 C 25.644531 -6.039062 25.222656 -5.792969 24.570312 -5.609375 C 24.015625 -5.867188 24.015625 -5.867188 23.488281 -6.257812 L 23.03125 -6.59375 C 22.898438 -6.695312 22.761719 -6.796875 22.625 -6.902344 L 21.976562 -7.335938 L 23.273438 -7.335938 L 23.273438 -6.902344 C 23.910156 -6.742188 24.355469 -6.644531 25 -6.6875 C 25.699219 -7.007812 26.226562 -7.402344 26.726562 -7.980469 C 26.941406 -8.636719 26.941406 -8.636719 26.726562 -9.273438 C 26.3125 -9.863281 26.3125 -9.863281 25.863281 -10.351562 Z M -17.3125 -48.503906 L -16.445312 -48.070312 C -16.542969 -47.574219 -16.542969 -47.574219 -16.878906 -46.992188 C -17.921875 -46.347656 -19.148438 -46.285156 -20.347656 -46.238281 C -22.167969 -46.273438 -23.839844 -46.722656 -25.515625 -47.425781 L -25.730469 -47.855469 C -24.757812 -47.765625 -23.914062 -47.621094 -22.992188 -47.304688 C -21.6875 -46.894531 -20.390625 -46.863281 -19.039062 -46.992188 C -18.335938 -47.15625 -18.335938 -47.15625 -17.742188 -47.425781 C -17.429688 -47.964844 -17.429688 -47.964844 -17.3125 -48.503906 M -61.566406 -52.382812 L -61.132812 -52.382812 C -61.121094 -52.035156 -61.113281 -51.691406 -61.105469 -51.34375 L -61.089844 -50.761719 C -61.132812 -50.226562 -61.132812 -50.226562 -61.566406 -49.582031 C -62.207031 -49.507812 -62.207031 -49.507812 -63.023438 -49.515625 L -63.457031 -49.519531 C -63.914062 -49.523438 -64.371094 -49.53125 -64.828125 -49.539062 C -65.140625 -49.542969 -65.449219 -49.546875 -65.761719 -49.546875 C -66.519531 -49.554688 -67.28125 -49.566406 -68.039062 -49.582031 L -68.257812 -50.011719 C -66.59375 -50.179688 -64.972656 -50.234375 -63.296875 -50.171875 C -62.644531 -50.183594 -62.644531 -50.183594 -62.132812 -50.503906 L -61.78125 -50.875 C -61.605469 -51.652344 -61.605469 -51.652344 -61.566406 -52.382812 " fill-opacity="1" fill-rule="nonzero"/></g><g clip-path="url(#0eaa59a8a3)"><path fill="#0c2240" d="M -132.585938 13.359375 C -132.222656 13.34375 -131.859375 13.339844 -131.492188 13.34375 L -130.894531 13.351562 L -130.429688 13.359375 C -130.347656 13.859375 -130.273438 14.363281 -130.210938 14.867188 L -130.429688 15.082031 C -130.78125 15.109375 -131.136719 15.121094 -131.492188 15.121094 L -132.078125 15.132812 L -132.585938 15.082031 L -133.019531 14.652344 C -132.949219 14.097656 -132.949219 14.097656 -132.800781 13.574219 Z M 27.375 -17.894531 C 27.726562 -17.902344 28.078125 -17.90625 28.425781 -17.910156 L 29.019531 -17.917969 C 29.535156 -17.894531 29.535156 -17.894531 29.964844 -17.679688 C 30.203125 -16.964844 30.21875 -16.410156 30.222656 -15.660156 L 30.230469 -14.925781 C 30.179688 -14.230469 30.082031 -13.765625 29.75 -13.152344 C 29.15625 -12.957031 28.808594 -12.914062 28.199219 -12.925781 L 27.375 -12.9375 L 27.589844 -13.371094 L 29.101562 -13.800781 C 29.425781 -14.449219 29.335938 -15.046875 29.332031 -15.765625 L 29.324219 -16.605469 L 29.316406 -17.25 L 27.375 -17.679688 Z M 27.375 -17.894531 " fill-opacity="1" fill-rule="nonzero"/></g><g clip-path="url(#3375fe70fe)"><path fill="#0c2240" d="M -74.300781 26.9375 L -73.871094 27.152344 L -74.207031 27.503906 C -74.570312 28.007812 -74.570312 28.007812 -74.53125 28.660156 C -74.347656 29.34375 -74.347656 29.34375 -73.773438 29.777344 C -72.964844 30.191406 -72.195312 30.425781 -71.316406 30.640625 L -70.847656 30.816406 L -70.414062 31.460938 C -71.960938 31.332031 -73.195312 30.792969 -74.515625 29.996094 C -74.949219 29.523438 -74.949219 29.523438 -75.179688 28.78125 L -75.164062 28.015625 C -74.746094 27.382812 -74.746094 27.382812 -74.300781 26.9375 M -71.710938 -93.335938 L -71.0625 -93.335938 C -71.28125 -92.746094 -71.511719 -92.226562 -71.84375 -91.691406 L -72.140625 -91.179688 L -72.140625 -90.53125 C -71.574219 -90.25 -71.121094 -90.269531 -70.488281 -90.25 L -69.753906 -90.222656 L -68.984375 -90.195312 L -68.210938 -90.167969 C -67.578125 -90.144531 -66.945312 -90.121094 -66.3125 -90.101562 L -66.3125 -89.886719 C -67.230469 -89.875 -68.148438 -89.867188 -69.066406 -89.859375 L -69.855469 -89.847656 L -70.613281 -89.84375 L -71.3125 -89.835938 C -71.921875 -89.886719 -72.273438 -90.003906 -72.789062 -90.316406 C -72.722656 -91.3125 -72.644531 -91.910156 -72.167969 -92.796875 Z M -14.503906 22.625 L -13.855469 22.625 C -13.902344 23.09375 -13.902344 23.09375 -14.074219 23.703125 C -14.511719 24.289062 -14.511719 24.289062 -15.070312 24.863281 L -15.621094 25.445312 C -15.820312 25.582031 -16.023438 25.71875 -16.230469 25.859375 C -17.011719 25.847656 -17.011719 25.847656 -17.742188 25.644531 C -18.257812 25.335938 -18.597656 24.984375 -19.039062 24.566406 C -18.390625 24.566406 -18.390625 24.566406 -17.757812 24.914062 L -17.09375 25.210938 C -16.636719 25.128906 -16.636719 25.128906 -16.230469 24.78125 L -15.558594 24.28125 C -14.917969 23.753906 -14.917969 23.753906 -14.640625 23.097656 Z M -22.492188 10.554688 C -21.179688 10.945312 -20.121094 11.550781 -19.117188 12.480469 C -18.582031 13.058594 -18.398438 13.335938 -18.175781 14.113281 L -18.175781 14.652344 L -18.539062 14.191406 L -19.039062 13.574219 L -19.535156 12.914062 C -20.265625 12.121094 -20.984375 11.628906 -22.023438 11.289062 C -22.632812 11.175781 -23.21875 11.183594 -23.839844 11.1875 L -24.546875 11.195312 L -25.082031 11.203125 L -25.296875 10.769531 C -24.34375 10.453125 -23.488281 10.4375 -22.492188 10.554688 M -25.730469 27.152344 L -25.515625 27.582031 C -24.929688 27.648438 -24.359375 27.695312 -23.773438 27.71875 L -23.277344 27.742188 C -22.871094 27.761719 -22.464844 27.78125 -22.058594 27.796875 L -21.84375 27.152344 L -21.195312 27.367188 L -21.195312 28.230469 C -22.660156 28.488281 -24.300781 28.703125 -25.730469 28.230469 Z M -10.402344 -46.777344 L -9.972656 -46.777344 C -10.085938 -45.632812 -10.433594 -44.722656 -11.050781 -43.761719 C -11.855469 -42.78125 -12.671875 -42.097656 -13.855469 -41.605469 L -13.855469 -42.25 C -13.515625 -42.542969 -13.515625 -42.542969 -13.0625 -42.84375 C -12.179688 -43.476562 -11.574219 -44.105469 -11.050781 -45.054688 C -10.800781 -45.625 -10.601562 -46.1875 -10.402344 -46.777344 M -25.515625 -55.617188 L -24.867188 -55.398438 L -24.867188 -54.96875 L -24.5 -54.800781 C -23.738281 -54.398438 -23.066406 -53.875 -22.371094 -53.363281 C -21.886719 -53.054688 -21.539062 -52.90625 -20.980469 -52.8125 L -20.980469 -52.382812 L -20.570312 -52.261719 L -20.035156 -52.097656 L -19.503906 -51.941406 L -19.039062 -51.734375 L -18.605469 -51.089844 C -21.109375 -51.867188 -23.304688 -53.121094 -25.242188 -54.878906 L -25.515625 -55.183594 Z M -151.367188 21.546875 L -150.9375 21.761719 C -151.234375 22.195312 -151.234375 22.195312 -151.582031 22.625 L -152.015625 22.625 L -152.015625 23.273438 L -150.71875 23.058594 L -150.71875 23.488281 C -151.300781 23.824219 -151.300781 23.824219 -152.015625 24.132812 C -152.636719 24.066406 -152.636719 24.066406 -153.09375 23.917969 L -153.308594 23.058594 Z M -17.527344 7.539062 C -16.839844 7.589844 -16.421875 7.769531 -15.824219 8.113281 L -15.191406 8.5625 L -14.554688 9.003906 L -14.074219 9.476562 C -13.96875 10.035156 -13.96875 10.035156 -14.074219 10.554688 C -14.613281 11.160156 -14.613281 11.160156 -15.152344 11.632812 L -15.367188 11.203125 L -15.152344 10.8125 C -14.898438 10.34375 -14.898438 10.34375 -14.9375 9.800781 C -15.125 9.210938 -15.125 9.210938 -15.703125 8.777344 C -16.582031 8.332031 -17.199219 8.25 -18.175781 8.183594 C -17.917969 7.847656 -17.917969 7.847656 -17.527344 7.539062 M 7.945312 -9.058594 L 8.222656 -8.683594 C 8.582031 -8.210938 8.953125 -7.75 9.335938 -7.292969 L 9.714844 -6.839844 C 10.078125 -6.449219 10.078125 -6.449219 10.546875 -6.296875 L 10.96875 -6.257812 C 11.554688 -6.519531 11.554688 -6.519531 12.046875 -6.902344 L 12.265625 -7.335938 L 12.910156 -7.335938 C 12.777344 -6.957031 12.777344 -6.957031 12.480469 -6.472656 C 11.871094 -5.972656 11.871094 -5.972656 11.183594 -5.609375 C 10.671875 -5.628906 10.671875 -5.628906 10.105469 -5.824219 C 9.535156 -6.289062 9.535156 -6.289062 8.972656 -6.863281 L 8.402344 -7.433594 C 7.945312 -7.980469 7.945312 -7.980469 7.761719 -8.46875 L 7.730469 -8.84375 Z M 7.945312 -9.058594 " fill-opacity="1" fill-rule="nonzero"/></g><g clip-path="url(#969c84a2b3)"><path fill="#0c2240" d="M -23.449219 5.125 L -22.707031 5.117188 C -22.058594 5.167969 -22.058594 5.167969 -21.414062 5.597656 C -21.371094 6.164062 -21.371094 6.164062 -21.414062 6.675781 L -22.058594 6.460938 L -22.058594 5.8125 L -25.515625 5.8125 L -25.730469 5.382812 C -24.964844 5.148438 -24.246094 5.132812 -23.449219 5.125 M 26.726562 -23.285156 L 27.589844 -22.851562 C 27.671875 -22.410156 27.671875 -22.410156 27.589844 -21.777344 C 27.203125 -21.230469 26.761719 -20.746094 26.296875 -20.265625 L 25.648438 -20.480469 C 25.726562 -20.578125 25.804688 -20.671875 25.882812 -20.765625 C 26.195312 -21.164062 26.476562 -21.550781 26.726562 -21.992188 C 26.816406 -22.703125 26.816406 -22.703125 26.726562 -23.285156 M -158.058594 16.589844 C -157.304688 16.644531 -157.304688 16.644531 -156.546875 16.804688 L -156.117188 17.238281 L -157.410156 17.023438 L -157.410156 17.882812 L -156.980469 18.53125 L -158.277344 18.097656 C -158.410156 17.585938 -158.410156 17.585938 -158.492188 17.023438 Z M -52.066406 -62.082031 C -51.292969 -61.753906 -50.785156 -61.296875 -50.191406 -60.707031 L -49.675781 -60.203125 C -49.261719 -59.710938 -49.261719 -59.710938 -49.09375 -59.21875 L -49.042969 -58.847656 C -49.421875 -58.621094 -49.421875 -58.621094 -49.90625 -58.417969 C -50.394531 -58.5 -50.394531 -58.5 -50.769531 -58.632812 L -50.769531 -58.847656 L -49.691406 -59.0625 C -50.191406 -60.058594 -50.917969 -60.746094 -51.710938 -61.503906 L -52.066406 -61.867188 Z M -2.847656 -93.980469 L -3.0625 -92.902344 C -3.65625 -92.660156 -3.65625 -92.660156 -4.359375 -92.472656 C -4.871094 -92.660156 -4.871094 -92.660156 -5.222656 -92.902344 C -4.988281 -93.085938 -4.753906 -93.265625 -4.519531 -93.441406 L -4.125 -93.746094 C -3.710938 -93.980469 -3.710938 -93.980469 -2.847656 -93.980469 M -59.621094 -55.617188 L -58.757812 -55.617188 L -58.757812 -53.675781 L -60.054688 -53.675781 L -60.054688 -54.105469 L -59.621094 -54.105469 L -59.742188 -54.738281 L -59.835938 -55.398438 Z M -59.621094 -55.617188 " fill-opacity="1" fill-rule="nonzero"/></g><g clip-path="url(#212b81cb87)"><path fill="#0c2240" d="M -25.082031 29.523438 L -22.277344 29.738281 L -22.277344 30.167969 L -22.921875 30.601562 C -23.734375 30.53125 -24.375 30.359375 -25.082031 29.953125 Z M -35.011719 -93.121094 L -34.796875 -92.6875 L -35.011719 -92.042969 L -34.796875 -91.394531 C -34.039062 -91.128906 -34.039062 -91.128906 -33.285156 -90.964844 L -33.285156 -90.53125 L -35.226562 -90.75 C -35.484375 -91.328125 -35.484375 -91.328125 -35.660156 -92.042969 C -35.363281 -92.660156 -35.363281 -92.660156 -35.011719 -93.121094 M 5.570312 -14.015625 L 6.21875 -13.585938 C 6.835938 -13.453125 7.453125 -13.367188 8.078125 -13.273438 L 8.59375 -13.152344 L 8.808594 -12.722656 L 5.789062 -12.9375 Z M -19.46875 26.503906 C -18.484375 26.621094 -17.75 26.890625 -16.878906 27.367188 L -17.527344 27.582031 L -18.039062 27.476562 C -18.660156 27.355469 -19.078125 27.425781 -19.683594 27.582031 Z M -142.515625 16.589844 L -141.4375 16.804688 L -141.222656 17.667969 C -141.828125 18.113281 -141.828125 18.113281 -142.515625 18.53125 L -143.164062 18.316406 L -142.746094 17.925781 C -142.257812 17.472656 -142.257812 17.472656 -142.085938 16.804688 Z M -50.769531 -10.78125 L -47.75 -10.136719 L -47.75 -10.566406 L -47.316406 -10.566406 L -47.53125 -9.707031 C -48.824219 -9.636719 -49.613281 -9.773438 -50.769531 -10.351562 Z M -25.515625 -45.484375 L -19.253906 -45.054688 L -19.253906 -44.839844 C -19.910156 -44.789062 -20.566406 -44.746094 -21.222656 -44.703125 L -21.785156 -44.660156 C -22.847656 -44.597656 -23.652344 -44.621094 -24.652344 -45.054688 Z M -99.773438 -9.488281 L -99.34375 -9.488281 C -99.570312 -8.722656 -99.890625 -8.253906 -100.449219 -7.699219 L -101.070312 -7.117188 L -101.71875 -7.335938 L -101.230469 -7.804688 C -100.636719 -8.390625 -100.636719 -8.390625 -100.164062 -9.019531 Z M -52.496094 -12.078125 C -51.972656 -11.644531 -51.972656 -11.644531 -51.632812 -11.214844 L -51.972656 -11.320312 C -52.945312 -11.519531 -53.921875 -11.519531 -54.871094 -11.214844 L -55.089844 -11.644531 C -54.199219 -12.074219 -53.484375 -12.183594 -52.496094 -12.078125 M 18.308594 -20.914062 C 19.964844 -20.667969 19.964844 -20.667969 20.667969 -20.214844 C 20.972656 -19.957031 21.261719 -19.683594 21.546875 -19.40625 L 21.332031 -18.972656 L 21.003906 -19.195312 C 20.046875 -19.824219 19.214844 -20.226562 18.09375 -20.480469 Z M 18.308594 -20.914062 " fill-opacity="1" fill-rule="nonzero"/></g><g clip-path="url(#1c73866fa1)"><path fill="#0c2240" d="M -98.695312 -14.230469 L -98.046875 -14.230469 C -98.027344 -13.730469 -98.03125 -13.226562 -98.046875 -12.722656 L -98.480469 -12.078125 C -98.648438 -12.808594 -98.714844 -13.480469 -98.695312 -14.230469 M -114.238281 -15.308594 L -114.023438 -15.308594 L -114.027344 -14.757812 C -114.03125 -14.523438 -114.03125 -14.285156 -114.035156 -14.042969 L -114.042969 -13.332031 C -114.0625 -12.734375 -114.0625 -12.734375 -113.804688 -12.292969 C -114.007812 -11.832031 -114.007812 -11.832031 -114.238281 -11.429688 C -114.46875 -12.125 -114.480469 -12.640625 -114.480469 -13.371094 L -114.480469 -14.054688 C -114.453125 -14.664062 -114.453125 -14.664062 -114.238281 -15.308594 M 25.648438 -48.503906 L 25.433594 -47.855469 L 23.273438 -47.640625 L 23.058594 -48.070312 C 23.898438 -48.632812 24.671875 -48.535156 25.648438 -48.503906 M -68.90625 28.445312 C -68.484375 28.621094 -68.484375 28.621094 -68.039062 28.875 L -67.824219 29.523438 L -67.394531 29.523438 C -67.042969 29.953125 -67.042969 29.953125 -66.746094 30.386719 L -67.609375 30.386719 C -67.976562 30.015625 -67.976562 30.015625 -68.3125 29.535156 L -68.652344 29.058594 L -68.90625 28.660156 Z M 7.945312 -22.851562 C 8.507812 -22.015625 9.011719 -21.171875 9.457031 -20.265625 C 9.207031 -20.460938 8.960938 -20.660156 8.714844 -20.859375 C 8.578125 -20.96875 8.441406 -21.078125 8.296875 -21.191406 C 7.945312 -21.558594 7.945312 -21.558594 7.777344 -22.007812 L 7.730469 -22.421875 Z M 28.453125 -79.539062 L 28.886719 -79.539062 C 28.894531 -79.179688 28.894531 -78.820312 28.886719 -78.460938 L 28.671875 -78.246094 C 28.238281 -78.238281 27.808594 -78.238281 27.375 -78.246094 C 27.722656 -78.6875 28.082031 -79.117188 28.453125 -79.539062 M -70.199219 -51.519531 L -69.769531 -51.304688 L -69.984375 -48.71875 L -70.199219 -48.71875 C -70.242188 -49.144531 -70.28125 -49.570312 -70.320312 -49.996094 L -70.390625 -50.71875 L -70.414062 -51.304688 Z M -98.910156 -11.429688 L -98.480469 -11.429688 C -98.597656 -10.707031 -98.769531 -10.128906 -99.125 -9.488281 L -99.558594 -9.921875 Z M 10.320312 -25.222656 C 10.914062 -25.183594 10.914062 -25.183594 11.617188 -25.007812 C 12.128906 -24.457031 12.128906 -24.457031 12.480469 -23.929688 L 12.140625 -24.121094 C 11.480469 -24.425781 10.808594 -24.605469 10.105469 -24.792969 Z M 16.582031 -27.59375 C 17.074219 -27.605469 17.570312 -27.617188 18.066406 -27.621094 L 18.898438 -27.636719 L 19.601562 -27.59375 L 20.035156 -27.164062 L 19.386719 -26.949219 L 18.957031 -27.164062 C 18.550781 -27.214844 18.148438 -27.253906 17.742188 -27.285156 L 17.085938 -27.339844 L 16.582031 -27.378906 Z M 16.582031 -27.59375 " fill-opacity="1" fill-rule="nonzero"/></g><g clip-path="url(#d054a5cb18)"><path fill="#0c2240" d="M -97.617188 -83.417969 L -96.96875 -83.417969 L -96.96875 -82.988281 C -97.296875 -82.710938 -97.296875 -82.710938 -97.722656 -82.421875 L -98.148438 -82.132812 L -98.480469 -81.910156 L -98.480469 -82.558594 C -98.085938 -83.027344 -98.085938 -83.027344 -97.617188 -83.417969 M -14.71875 18.960938 L -14.289062 18.960938 L -14.9375 20.902344 L -15.367188 20.6875 C -14.964844 19.445312 -14.964844 19.445312 -14.71875 18.960938 M 13.128906 -65.53125 L 16.367188 -65.316406 L 16.367188 -65.097656 C 14.417969 -64.820312 14.417969 -64.820312 13.53125 -65.085938 L 13.128906 -65.316406 Z M 13.128906 -65.53125 " fill-opacity="1" fill-rule="nonzero"/></g></svg>