<svg xmlns="http://www.w3.org/2000/svg" xmlns:xlink="http://www.w3.org/1999/xlink" width="48" zoomAndPan="magnify" viewBox="0 0 36 36.000001" height="48" preserveAspectRatio="xMidYMid meet" version="1.0"><defs><clipPath id="fdf2466264"><path d="M 0.488281 0 L 35.511719 0 L 35.511719 35.027344 L 0.488281 35.027344 Z M 0.488281 0 " clip-rule="nonzero"/></clipPath><clipPath id="225f9d37f3"><path d="M 6 0 L 35.511719 0 L 35.511719 35.027344 L 6 35.027344 Z M 6 0 " clip-rule="nonzero"/></clipPath><clipPath id="fb86657fb2"><path d="M 2 0 L 35.511719 0 L 35.511719 31 L 2 31 Z M 2 0 " clip-rule="nonzero"/></clipPath><clipPath id="d9bbcee6f3"><path d="M 0.488281 0 L 35.511719 0 L 35.511719 26 L 0.488281 26 Z M 0.488281 0 " clip-rule="nonzero"/></clipPath><clipPath id="ae57ad7bd0"><path d="M 0.488281 0 L 35.511719 0 L 35.511719 35.027344 L 0.488281 35.027344 Z M 0.488281 0 " clip-rule="nonzero"/></clipPath><clipPath id="40387beef5"><path d="M 6 0 L 33 0 L 33 35.027344 L 6 35.027344 Z M 6 0 " clip-rule="nonzero"/></clipPath><clipPath id="c80659550d"><path d="M 0.488281 0 L 35.511719 0 L 35.511719 35.027344 L 0.488281 35.027344 Z M 0.488281 0 " clip-rule="nonzero"/></clipPath><clipPath id="935e95a29f"><path d="M 0.488281 16 L 35.511719 16 L 35.511719 35.027344 L 0.488281 35.027344 Z M 0.488281 16 " clip-rule="nonzero"/></clipPath><clipPath id="b1b570a2d7"><path d="M 0.488281 0 L 35.511719 0 L 35.511719 35.027344 L 0.488281 35.027344 Z M 0.488281 0 " clip-rule="nonzero"/></clipPath><clipPath id="0fcb31292e"><path d="M 8 0 L 35.511719 0 L 35.511719 35.027344 L 8 35.027344 Z M 8 0 " clip-rule="nonzero"/></clipPath><clipPath id="2f6f5377cd"><path d="M 25 0 L 35.511719 0 L 35.511719 35.027344 L 25 35.027344 Z M 25 0 " clip-rule="nonzero"/></clipPath></defs><g clip-path="url(#fdf2466264)"><rect x="-3.6" width="43.2" fill="#fefefe" y="-3.6" height="43.200001" fill-opacity="1"/><path fill="#cf1b15" d="M 64.675781 42.421875 C 66.21875 43.183594 67.769531 44.28125 68.828125 45.648438 C 69.832031 47.242188 70.570312 48.855469 70.675781 50.742188 C 70.703125 52.96875 70.066406 54.882812 69.074219 56.859375 C 68.363281 58.113281 67.503906 59.273438 66.664062 60.441406 L 66.324219 60.914062 C 66.046875 61.292969 65.75 61.660156 65.453125 62.023438 L 64.992188 62.023438 L 64.832031 62.515625 C 64.464844 63.320312 63.980469 63.859375 63.378906 64.511719 L 62.757812 65.191406 L 62.226562 65.707031 L 61.765625 65.707031 L 61.304688 66.625 C 60.871094 66.570312 60.871094 66.570312 60.382812 66.398438 C 60.226562 66.09375 60.070312 65.785156 59.921875 65.476562 L 59.507812 65.289062 C 58.835938 64.929688 58.488281 64.460938 58.019531 63.863281 L 57.527344 63.246094 L 57.15625 62.714844 L 57.15625 62.253906 L 56.695312 62.253906 C 56.410156 61.929688 56.410156 61.929688 56.09375 61.480469 L 55.742188 60.980469 L 55.371094 60.441406 L 54.992188 59.898438 C 51.832031 55.328125 51.832031 55.328125 51.394531 52.585938 C 51.25 50.582031 51.5 49.046875 52.324219 47.230469 C 53.175781 45.542969 54.410156 44.25 55.976562 43.195312 C 58.515625 41.746094 61.898438 41.429688 64.675781 42.421875 M 104.171875 2.644531 C 106.089844 3.09375 107.640625 3.839844 109.152344 5.113281 C 110.0625 5.980469 110.824219 6.914062 111.546875 7.9375 L 111.882812 8.398438 C 113.339844 10.65625 113.679688 13.828125 113.851562 16.453125 C 114.421875 16.132812 114.421875 16.132812 115.003906 15.53125 C 115.71875 14.203125 116.042969 12.886719 116.15625 11.390625 C 116.574219 11.449219 116.574219 11.449219 117.078125 11.621094 C 117.632812 12.246094 118.035156 12.972656 118.460938 13.691406 L 118.78125 14.234375 C 119.828125 16.160156 120.324219 18.210938 120.390625 20.394531 C 120.328125 22.40625 119.78125 24.136719 118.777344 25.875 C 117.644531 27.574219 116.222656 28.480469 114.425781 29.410156 C 113.472656 29.855469 112.601562 30.15625 111.546875 30.261719 L 111.546875 29.800781 L 112.007812 29.800781 L 112.007812 29.34375 L 112.539062 28.851562 C 113.121094 28.230469 113.46875 27.71875 113.734375 26.910156 C 114.023438 25.527344 114.085938 24.074219 113.644531 22.722656 C 113.484375 22.367188 113.3125 22.019531 113.128906 21.679688 C 112.929688 21.285156 112.929688 21.285156 112.929688 20.828125 L 112.46875 20.828125 L 112.390625 21.238281 C 112.179688 22.300781 111.957031 23.148438 111.316406 24.046875 C 110.898438 23.992188 110.898438 23.992188 110.394531 23.820312 C 109.523438 22.871094 109.292969 21.71875 108.964844 20.503906 C 108.546875 18.628906 108.773438 17.140625 109.320312 15.316406 L 109.472656 14.84375 C 107.992188 15.550781 106.957031 16.488281 106.015625 17.835938 C 105.128906 19.6875 104.726562 21.542969 104.863281 23.589844 C 104.988281 24.4375 105.148438 25.277344 105.324219 26.121094 C 104.785156 26.0625 104.785156 26.0625 104.171875 25.890625 C 103.824219 25.472656 103.824219 25.472656 103.550781 24.96875 C 103.382812 24.65625 103.203125 24.351562 103.019531 24.046875 L 102.558594 23.820312 C 102.289062 25.164062 102.191406 26.414062 102.484375 27.761719 C 102.863281 28.582031 103.332031 29.132812 103.941406 29.800781 L 103.710938 30.261719 C 101.484375 29.328125 99.78125 28.132812 98.179688 26.351562 C 97.613281 25.539062 97.1875 24.722656 96.796875 23.820312 L 96.5625 23.34375 C 95.808594 21.582031 95.929688 19.476562 96.105469 17.605469 C 96.550781 14.964844 97.722656 12.9375 99.402344 10.886719 C 99.609375 10.671875 99.8125 10.460938 100.023438 10.238281 L 100.484375 10.238281 L 100.441406 10.902344 C 100.441406 12.019531 100.683594 13.148438 101.175781 14.152344 C 101.636719 14.457031 101.636719 14.457031 102.097656 14.613281 L 102.328125 13.691406 L 102.789062 13.691406 L 102.960938 13.246094 C 103.121094 12.851562 103.289062 12.460938 103.46875 12.074219 C 104.429688 10.027344 104.800781 8.132812 104.632812 5.867188 C 104.53125 5.320312 104.414062 4.78125 104.273438 4.242188 C 104.148438 3.703125 104.136719 3.195312 104.171875 2.644531 M -27.875 -71.335938 L -27.214844 -71.335938 C -26.757812 -71.339844 -26.300781 -71.339844 -25.847656 -71.335938 C -25.152344 -71.335938 -24.460938 -71.339844 -23.765625 -71.347656 C -23.320312 -71.347656 -22.875 -71.347656 -22.429688 -71.347656 L -21.808594 -71.355469 C -20.332031 -71.339844 -19.035156 -71.054688 -17.746094 -70.3125 C -17.09375 -69.652344 -16.523438 -68.976562 -16.238281 -68.078125 C -16.097656 -67.386719 -16.074219 -66.714844 -16.042969 -66.011719 L -16.023438 -65.546875 C -16 -65.042969 -15.980469 -64.539062 -15.957031 -64.035156 L -15.914062 -62.984375 C -15.882812 -62.246094 -15.851562 -61.507812 -15.820312 -60.773438 C -15.78125 -59.832031 -15.738281 -58.890625 -15.699219 -57.949219 C -15.632812 -56.390625 -15.566406 -54.832031 -15.5 -53.273438 L -15.464844 -52.433594 L -15.441406 -51.671875 L -15.410156 -50.910156 L -15.441406 -50.289062 L -15.902344 -49.832031 L -16.824219 -49.832031 C -17.109375 -51.363281 -17.074219 -52.878906 -17.054688 -54.433594 L -17.527344 -54.410156 L -18.148438 -54.390625 L -18.765625 -54.367188 C -19.359375 -54.433594 -19.359375 -54.433594 -19.894531 -54.753906 L -20.28125 -55.125 L -20.28125 -55.585938 L -29.960938 -55.355469 L -30.421875 -53.28125 L -31.804688 -53.28125 L -31.804688 -54.433594 L -33.1875 -54.433594 L -33.1875 -49.832031 L -34.570312 -50.058594 L -34.570312 -50.519531 L -35.03125 -50.519531 C -35.054688 -51.9375 -35.054688 -51.9375 -35.03125 -52.363281 L -34.800781 -52.59375 C -34.742188 -53.21875 -34.699219 -53.835938 -34.671875 -54.460938 L -34.640625 -55.042969 C -34.558594 -56.835938 -34.554688 -58.625 -34.578125 -60.414062 C -34.589844 -61.574219 -34.542969 -62.691406 -34.394531 -63.839844 C -34.339844 -64.324219 -34.308594 -64.800781 -34.289062 -65.289062 L -34.269531 -65.753906 C -34.257812 -66.0625 -34.25 -66.375 -34.238281 -66.683594 C -34.191406 -67.746094 -33.96875 -68.488281 -33.417969 -69.394531 C -31.804688 -71.003906 -30.082031 -71.339844 -27.875 -71.335938 " fill-opacity="1" fill-rule="nonzero"/></g><g clip-path="url(#225f9d37f3)"><path fill="#193049" d="M 72.828125 -33.027344 C 73.246094 -33 73.246094 -33 73.75 -32.800781 C 74.382812 -32.238281 74.382812 -32.238281 74.902344 -31.648438 L 74.902344 -31.1875 L 75.289062 -31.027344 C 75.972656 -30.644531 76.460938 -30.160156 77.019531 -29.605469 L 77.632812 -29.003906 C 78.128906 -28.425781 78.128906 -28.425781 78.3125 -27.890625 L 78.359375 -27.503906 C 77.75 -27.167969 77.460938 -27.046875 76.746094 -27.046875 L 76.746094 -10.472656 L 79.742188 -10.472656 L 80.203125 -10.242188 C 80.230469 -8.921875 80.230469 -8.921875 79.972656 -8.402344 C 75.410156 -8.398438 70.84375 -8.394531 66.28125 -8.390625 C 64.164062 -8.390625 62.042969 -8.386719 59.925781 -8.386719 C 58.078125 -8.382812 56.234375 -8.382812 54.386719 -8.382812 C 53.410156 -8.382812 52.429688 -8.378906 51.453125 -8.378906 C 50.535156 -8.378906 49.613281 -8.375 48.695312 -8.375 C 48.355469 -8.375 48.019531 -8.375 47.679688 -8.375 C 47.21875 -8.375 46.757812 -8.375 46.296875 -8.375 L 45.515625 -8.375 L 44.941406 -8.402344 L 44.710938 -8.632812 C 44.703125 -9.171875 44.703125 -9.707031 44.710938 -10.242188 C 45.417969 -10.597656 46.15625 -10.496094 46.929688 -10.488281 L 47.421875 -10.484375 C 47.824219 -10.480469 48.226562 -10.480469 48.628906 -10.472656 L 48.621094 -11.011719 C 48.597656 -13.789062 48.597656 -13.789062 48.859375 -15.078125 C 49.550781 -15.539062 49.550781 -15.539062 50.179688 -15.589844 C 50.425781 -15.585938 50.675781 -15.585938 50.929688 -15.582031 L 51.742188 -15.578125 L 52.589844 -15.566406 L 53.445312 -15.558594 C 54.144531 -15.554688 54.84375 -15.546875 55.542969 -15.539062 L 55.527344 -16.378906 C 55.523438 -16.738281 55.519531 -17.101562 55.515625 -17.464844 L 55.503906 -18.019531 C 55.5 -18.496094 55.519531 -18.972656 55.542969 -19.449219 L 56.003906 -19.910156 C 56.667969 -19.984375 56.667969 -19.984375 57.511719 -20.003906 L 58.417969 -20.03125 L 59.375 -20.054688 L 60.332031 -20.082031 C 61.117188 -20.101562 61.902344 -20.121094 62.6875 -20.140625 L 62.773438 -20.929688 L 62.890625 -21.953125 L 62.945312 -22.472656 C 62.996094 -22.925781 63.070312 -23.375 63.148438 -23.824219 L 63.609375 -24.285156 C 65.082031 -24.601562 66.511719 -24.496094 67.988281 -24.285156 L 67.988281 -21.980469 L 65.453125 -21.980469 L 65.46875 -21.199219 C 65.472656 -20.863281 65.476562 -20.523438 65.480469 -20.183594 C 65.484375 -20.015625 65.488281 -19.84375 65.492188 -19.667969 C 65.496094 -19.210938 65.476562 -18.753906 65.453125 -18.300781 L 64.992188 -17.609375 C 64.304688 -17.53125 64.304688 -17.53125 63.433594 -17.542969 L 62.972656 -17.542969 C 62.484375 -17.546875 61.996094 -17.558594 61.507812 -17.566406 C 61.175781 -17.570312 60.84375 -17.574219 60.511719 -17.574219 C 59.703125 -17.582031 58.890625 -17.59375 58.078125 -17.609375 L 58.09375 -16.828125 C 58.097656 -16.488281 58.101562 -16.148438 58.105469 -15.8125 C 58.109375 -15.640625 58.113281 -15.472656 58.117188 -15.296875 C 58.121094 -14.839844 58.101562 -14.382812 58.078125 -13.925781 L 57.617188 -13.234375 C 56.972656 -13.15625 56.972656 -13.15625 56.160156 -13.167969 L 55.28125 -13.175781 L 54.363281 -13.191406 C 54.054688 -13.195312 53.742188 -13.199219 53.433594 -13.203125 C 52.679688 -13.210938 51.921875 -13.222656 51.164062 -13.234375 C 51.15625 -12.863281 51.152344 -12.488281 51.148438 -12.113281 L 51.140625 -11.484375 C 51.125 -10.929688 51.125 -10.929688 51.394531 -10.472656 L 69.371094 -10.472656 L 69.601562 -27.046875 L 67.988281 -27.503906 C 68.082031 -28.023438 68.171875 -28.367188 68.5 -28.785156 L 68.855469 -29.121094 L 69.246094 -29.503906 L 69.660156 -29.894531 C 70.429688 -30.632812 71.183594 -31.359375 71.859375 -32.191406 C 72.367188 -32.800781 72.367188 -32.800781 72.828125 -33.027344 M 17.054688 6.328125 C 17.644531 6.535156 17.957031 6.765625 18.378906 7.234375 L 18.667969 7.707031 L 18.667969 8.398438 L 19.085938 8.566406 C 19.6875 8.914062 19.925781 9.25 20.304688 9.832031 L 20.703125 10.429688 L 21.117188 11.074219 L 21.546875 11.730469 C 21.972656 12.382812 22.394531 13.035156 22.816406 13.691406 L 23.179688 14.253906 C 23.496094 14.746094 23.8125 15.238281 24.128906 15.734375 L 24.40625 16.167969 C 25.347656 17.675781 25.984375 19.097656 26.085938 20.882812 C 26 22.621094 25.605469 24.1875 24.660156 25.660156 C 23.757812 26.933594 22.824219 27.800781 21.433594 28.523438 C 19.867188 29.230469 18.414062 29.675781 16.675781 29.628906 C 14.699219 29.417969 12.894531 28.578125 11.265625 27.472656 C 10.09375 26.433594 9.34375 24.941406 8.785156 23.503906 C 8.355469 22.039062 8.351562 20.566406 8.644531 19.074219 C 9.3125 16.921875 10.726562 15.074219 11.984375 13.230469 L 12.367188 12.664062 C 13.125 11.550781 13.886719 10.441406 14.652344 9.332031 C 14.941406 8.914062 15.226562 8.496094 15.511719 8.078125 L 15.945312 7.449219 L 16.300781 6.929688 C 16.59375 6.558594 16.59375 6.558594 17.054688 6.328125 M 12.242188 42.980469 C 12.796875 42.992188 12.796875 42.992188 13.367188 43.152344 C 15.039062 44.441406 16.09375 46.375 17.054688 48.214844 L 17.375 48.816406 C 17.875 49.828125 17.875 49.828125 17.976562 50.285156 C 17.847656 50.742188 17.847656 50.742188 17.515625 51.207031 C 16.917969 51.699219 16.917969 51.699219 16.21875 52.183594 L 15.519531 52.675781 L 14.980469 53.046875 C 15.070312 53.675781 15.175781 54.140625 15.503906 54.691406 C 16.988281 56.574219 18.953125 58.761719 21.203125 59.722656 C 21.78125 59.753906 21.78125 59.753906 22.355469 59.492188 C 22.804688 59.074219 23.1875 58.675781 23.578125 58.210938 L 23.898438 57.847656 C 24.152344 57.554688 24.40625 57.257812 24.660156 56.960938 C 26.140625 57.199219 27.160156 57.617188 28.417969 58.421875 C 29.308594 58.964844 30.246094 59.398438 31.191406 59.839844 C 31.828125 60.195312 32.257812 60.542969 32.726562 61.101562 C 32.871094 61.835938 32.871094 61.835938 32.726562 62.714844 C 32.335938 63.460938 31.855469 64.117188 31.34375 64.785156 L 30.824219 65.535156 C 29.921875 66.433594 29.117188 66.960938 27.886719 67.316406 C 25.539062 67.664062 23.320312 67.375 21.113281 66.539062 C 17.878906 65.089844 15.257812 63.046875 12.675781 60.644531 L 12.140625 60.15625 C 9.667969 57.8125 8.089844 55.058594 6.914062 51.898438 C 6.574219 50.574219 6.460938 49.074219 6.804688 47.742188 C 6.972656 47.335938 6.972656 47.335938 7.375 46.605469 L 7.734375 45.914062 C 8.539062 44.925781 9.539062 44.300781 10.601562 43.613281 C 11.253906 43.175781 11.496094 43.046875 12.242188 42.980469 " fill-opacity="1" fill-rule="nonzero"/></g><g clip-path="url(#fb86657fb2)"><path fill="#193049" d="M 76.285156 -26.355469 L 76.746094 -26.355469 L 76.746094 -10.472656 L 79.742188 -10.472656 L 80.203125 -10.242188 C 80.230469 -8.921875 80.230469 -8.921875 79.972656 -8.402344 C 75.410156 -8.398438 70.84375 -8.394531 66.28125 -8.390625 C 64.164062 -8.390625 62.042969 -8.386719 59.925781 -8.386719 C 58.078125 -8.382812 56.234375 -8.382812 54.386719 -8.382812 C 53.410156 -8.382812 52.429688 -8.378906 51.453125 -8.378906 C 50.535156 -8.378906 49.613281 -8.375 48.695312 -8.375 C 48.355469 -8.375 48.019531 -8.375 47.679688 -8.375 C 47.21875 -8.375 46.757812 -8.375 46.296875 -8.375 L 45.515625 -8.375 L 44.941406 -8.402344 L 44.710938 -8.632812 C 44.703125 -9.171875 44.703125 -9.707031 44.710938 -10.242188 C 45.417969 -10.597656 46.15625 -10.496094 46.929688 -10.488281 L 47.421875 -10.484375 C 47.824219 -10.480469 48.226562 -10.480469 48.628906 -10.472656 L 48.621094 -11.011719 C 48.597656 -13.789062 48.597656 -13.789062 48.859375 -15.078125 C 49.550781 -15.539062 49.550781 -15.539062 50.179688 -15.589844 C 50.425781 -15.585938 50.675781 -15.585938 50.929688 -15.582031 L 51.742188 -15.578125 L 52.589844 -15.566406 L 53.445312 -15.558594 C 54.144531 -15.554688 54.84375 -15.546875 55.542969 -15.539062 L 55.527344 -16.378906 C 55.523438 -16.738281 55.519531 -17.101562 55.515625 -17.464844 L 55.503906 -18.019531 C 55.5 -18.496094 55.519531 -18.972656 55.542969 -19.449219 L 56.003906 -19.910156 C 56.667969 -19.984375 56.667969 -19.984375 57.511719 -20.003906 L 58.417969 -20.03125 L 59.375 -20.054688 L 60.332031 -20.082031 C 61.117188 -20.101562 61.902344 -20.121094 62.6875 -20.140625 L 62.773438 -20.929688 L 62.890625 -21.953125 L 62.945312 -22.472656 C 62.996094 -22.925781 63.070312 -23.375 63.148438 -23.824219 L 63.609375 -24.285156 C 65.082031 -24.601562 66.511719 -24.496094 67.988281 -24.285156 L 67.988281 -21.980469 L 65.453125 -21.980469 L 65.46875 -21.199219 C 65.472656 -20.863281 65.476562 -20.523438 65.480469 -20.183594 C 65.484375 -20.015625 65.488281 -19.84375 65.492188 -19.667969 C 65.496094 -19.210938 65.476562 -18.753906 65.453125 -18.300781 L 64.992188 -17.609375 C 64.304688 -17.53125 64.304688 -17.53125 63.433594 -17.542969 L 62.972656 -17.542969 C 62.484375 -17.546875 61.996094 -17.558594 61.507812 -17.566406 C 61.175781 -17.570312 60.84375 -17.574219 60.511719 -17.574219 C 59.703125 -17.582031 58.890625 -17.59375 58.078125 -17.609375 L 58.09375 -16.828125 C 58.097656 -16.488281 58.101562 -16.148438 58.105469 -15.8125 C 58.109375 -15.640625 58.113281 -15.472656 58.117188 -15.296875 C 58.121094 -14.839844 58.101562 -14.382812 58.078125 -13.925781 L 57.617188 -13.234375 C 56.972656 -13.15625 56.972656 -13.15625 56.160156 -13.167969 L 55.28125 -13.175781 L 54.363281 -13.191406 C 54.054688 -13.195312 53.742188 -13.199219 53.433594 -13.203125 C 52.679688 -13.210938 51.921875 -13.222656 51.164062 -13.234375 C 51.15625 -12.863281 51.152344 -12.488281 51.148438 -12.113281 L 51.140625 -11.484375 C 51.125 -10.929688 51.125 -10.929688 51.394531 -10.472656 L 68.679688 -10.472656 L 68.679688 -10.015625 C 69.355469 -9.542969 69.949219 -9.25 70.753906 -9.09375 C 71.636719 -9.035156 72.519531 -9.039062 73.402344 -9.035156 L 74.132812 -9.019531 L 74.835938 -9.019531 L 75.476562 -9.011719 C 76.074219 -9.050781 76.074219 -9.050781 76.546875 -9.441406 L 76.976562 -9.785156 L 77.667969 -9.785156 L 77.667969 -10.242188 L 76.285156 -10.242188 C 76.078125 -11.125 76.023438 -11.945312 76.023438 -12.847656 L 76.023438 -15.628906 C 76.023438 -16.304688 76.023438 -16.976562 76.023438 -17.652344 C 76.023438 -18.515625 76.023438 -19.378906 76.023438 -20.246094 C 76.023438 -20.910156 76.023438 -21.574219 76.023438 -22.238281 C 76.023438 -22.558594 76.023438 -22.875 76.023438 -23.195312 C 76.023438 -23.640625 76.023438 -24.085938 76.023438 -24.53125 L 76.023438 -25.296875 C 76.054688 -25.894531 76.054688 -25.894531 76.285156 -26.355469 M 24.5 -73.117188 C 25.90625 -72.503906 27.246094 -71.753906 28.578125 -71.003906 C 28.792969 -70.886719 29.007812 -70.769531 29.230469 -70.648438 L 29.730469 -70.3125 C 30.089844 -69.214844 29.90625 -68.210938 29.730469 -67.089844 C 28.144531 -67.523438 28.144531 -67.523438 27.886719 -67.78125 C 27.878906 -68.242188 27.875 -68.703125 27.886719 -69.164062 C 27.730469 -69.222656 27.574219 -69.28125 27.410156 -69.34375 C 26.78125 -69.605469 26.167969 -69.890625 25.554688 -70.191406 C 23.179688 -71.335938 20.855469 -72.171875 18.207031 -72.386719 L 17.515625 -72.617188 C 17.085938 -72.636719 16.652344 -72.644531 16.21875 -72.644531 L 15.535156 -72.644531 L 14.980469 -72.617188 L 14.75 -72.386719 L 14.121094 -72.394531 C 12.898438 -72.378906 11.824219 -71.941406 10.671875 -71.550781 L 9.957031 -71.320312 C 7.480469 -70.527344 7.480469 -70.527344 5.300781 -69.164062 C 4.957031 -68.402344 5.035156 -67.683594 5.070312 -66.863281 C 5.0625 -66.546875 5.050781 -66.234375 5.039062 -65.921875 C 5.003906 -65.015625 4.984375 -64.109375 4.976562 -63.203125 C 4.972656 -62.824219 4.964844 -62.445312 4.953125 -62.066406 C 4.898438 -60.152344 4.867188 -58.5 5.726562 -56.742188 C 6.058594 -56.152344 6.363281 -55.671875 6.84375 -55.195312 L 7.144531 -54.894531 L 7.144531 -54.433594 L 7.578125 -54.21875 L 8.527344 -53.742188 L 8.527344 -53.28125 L 9.105469 -53.109375 C 10.03125 -52.78125 10.878906 -52.363281 11.753906 -51.914062 L 12.234375 -51.671875 L 12.703125 -51.433594 L 13.167969 -51.203125 C 13.546875 -51.007812 13.917969 -50.800781 14.289062 -50.59375 C 15.128906 -50.226562 15.910156 -50.050781 16.824219 -50.0625 C 17.449219 -50.210938 17.964844 -50.367188 18.554688 -50.605469 L 19.027344 -50.792969 C 21.507812 -51.804688 23.832031 -53.085938 25.8125 -54.894531 C 26.101562 -55.039062 26.394531 -55.175781 26.691406 -55.3125 L 27.425781 -55.8125 C 27.796875 -56.71875 27.886719 -57.605469 27.886719 -58.574219 C 28.347656 -58.585938 28.808594 -58.585938 29.269531 -58.574219 L 29.5 -58.347656 C 29.585938 -57.785156 29.585938 -57.785156 29.5 -56.964844 C 28.894531 -55.417969 28.082031 -54.035156 26.800781 -52.949219 C 26.328125 -52.582031 25.84375 -52.242188 25.351562 -51.902344 L 24.839844 -51.53125 C 22.582031 -49.980469 19.332031 -48.183594 16.578125 -47.921875 C 15.402344 -48.007812 14.472656 -48.386719 13.394531 -48.835938 L 12.804688 -49.074219 C 11.476562 -49.617188 10.226562 -50.257812 8.988281 -50.980469 L 8.289062 -51.390625 C 6.496094 -52.496094 5.011719 -53.679688 3.953125 -55.527344 C 3.046875 -57.308594 2.878906 -59.121094 2.855469 -61.089844 L 2.84375 -61.859375 C 2.835938 -62.390625 2.832031 -62.925781 2.832031 -63.457031 C 2.824219 -64.273438 2.800781 -65.085938 2.78125 -65.902344 C 2.777344 -66.421875 2.773438 -66.941406 2.769531 -67.460938 L 2.742188 -68.195312 C 2.75 -68.886719 2.777344 -69.429688 2.996094 -70.082031 C 3.617188 -70.707031 4.285156 -71.085938 5.070312 -71.464844 L 5.695312 -71.820312 C 11.707031 -74.75 18.144531 -75.46875 24.5 -73.117188 M 54.90625 -55.417969 C 55.542969 -55.355469 55.542969 -55.355469 56.347656 -54.964844 C 56.960938 -54.398438 57.320312 -54.0625 57.617188 -53.28125 C 57.628906 -52.082031 57.375 -51.183594 56.925781 -50.058594 L 72.367188 -50.058594 L 71.90625 -51.210938 C 71.8125 -51.910156 71.824219 -52.582031 71.90625 -53.28125 C 72.210938 -53.980469 72.488281 -54.339844 73.058594 -54.835938 C 73.75 -55.269531 74.386719 -55.410156 75.191406 -55.453125 C 75.84375 -55.449219 76.203125 -55.402344 76.769531 -55.070312 C 77.1875 -54.722656 77.554688 -54.390625 77.898438 -53.972656 C 78.109375 -53.339844 78.167969 -52.933594 78.171875 -52.277344 L 78.179688 -51.753906 C 78.121094 -51.125 77.925781 -50.632812 77.667969 -50.058594 C 77.8125 -50.0625 77.957031 -50.066406 78.105469 -50.066406 C 78.753906 -50.078125 79.40625 -50.082031 80.058594 -50.089844 L 80.746094 -50.101562 L 81.402344 -50.105469 L 82.011719 -50.113281 L 82.507812 -50.058594 L 82.96875 -49.601562 C 82.894531 -49.011719 82.894531 -49.011719 82.738281 -48.449219 L 82.507812 -48.21875 C 82.050781 -48.195312 81.589844 -48.191406 81.132812 -48.191406 L 80.230469 -48.1875 L 79.226562 -48.191406 L 78.179688 -48.1875 C 77.226562 -48.1875 76.277344 -48.1875 75.324219 -48.1875 C 74.332031 -48.1875 73.339844 -48.1875 72.34375 -48.1875 C 70.675781 -48.1875 69.007812 -48.1875 67.339844 -48.1875 C 65.40625 -48.191406 63.476562 -48.191406 61.542969 -48.1875 C 59.886719 -48.1875 58.230469 -48.1875 56.578125 -48.1875 C 55.585938 -48.1875 54.597656 -48.1875 53.605469 -48.1875 C 52.675781 -48.1875 51.746094 -48.1875 50.8125 -48.1875 C 50.472656 -48.1875 50.128906 -48.1875 49.785156 -48.1875 C 49.320312 -48.1875 48.855469 -48.1875 48.390625 -48.191406 L 47.597656 -48.191406 L 47.015625 -48.21875 L 46.785156 -48.449219 C 46.777344 -48.910156 46.773438 -49.371094 46.785156 -49.832031 C 47.328125 -50.101562 47.648438 -50.085938 48.25 -50.082031 L 48.84375 -50.082031 L 49.464844 -50.074219 L 50.089844 -50.070312 C 50.601562 -50.070312 51.113281 -50.066406 51.625 -50.058594 L 51.28125 -50.808594 C 51.078125 -51.285156 50.933594 -51.660156 50.867188 -52.175781 C 50.953125 -52.882812 51.074219 -53.378906 51.472656 -53.980469 C 52.550781 -55.269531 53.226562 -55.4375 54.90625 -55.417969 M 51.394531 25.890625 C 52.191406 26.257812 52.925781 26.691406 53.683594 27.136719 C 54.378906 27.496094 54.851562 27.652344 55.628906 27.703125 C 56.75 27.632812 57.636719 27.195312 58.625 26.695312 C 59.976562 26.011719 61.078125 25.644531 62.625 25.726562 C 63.667969 25.953125 64.539062 26.414062 65.460938 26.921875 C 66.238281 27.347656 66.851562 27.621094 67.742188 27.628906 C 69.0625 27.503906 70.121094 27.15625 71.230469 26.4375 C 72.148438 25.910156 72.910156 25.777344 73.964844 25.730469 C 74.820312 25.761719 75.449219 25.824219 76.230469 26.175781 C 76.609375 26.414062 76.980469 26.660156 77.34375 26.917969 C 78.226562 27.480469 79.191406 27.714844 80.203125 27.960938 C 80.207031 28.300781 80.214844 28.640625 80.21875 28.984375 L 80.226562 29.558594 L 80.203125 30.03125 L 79.972656 30.261719 C 79.503906 30.285156 79.035156 30.292969 78.5625 30.292969 L 78.113281 30.292969 C 77.609375 30.292969 77.109375 30.292969 76.605469 30.292969 L 75.53125 30.292969 C 74.554688 30.292969 73.578125 30.292969 72.605469 30.292969 C 71.585938 30.292969 70.566406 30.292969 69.546875 30.292969 C 67.832031 30.292969 66.121094 30.292969 64.410156 30.292969 C 62.425781 30.292969 60.445312 30.292969 58.464844 30.292969 C 56.765625 30.292969 55.066406 30.292969 53.367188 30.292969 C 52.351562 30.292969 51.335938 30.292969 50.320312 30.292969 C 49.363281 30.292969 48.410156 30.292969 47.453125 30.292969 C 47.101562 30.292969 46.75 30.292969 46.402344 30.292969 C 45.921875 30.292969 45.445312 30.292969 44.96875 30.292969 L 44.15625 30.292969 L 43.558594 30.261719 L 43.328125 30.03125 C 43.265625 28.710938 43.265625 28.710938 43.328125 28.191406 C 43.863281 27.65625 44.253906 27.539062 44.96875 27.300781 C 45.773438 27.023438 46.480469 26.734375 47.203125 26.292969 C 48.523438 25.621094 49.957031 25.652344 51.394531 25.890625 " fill-opacity="1" fill-rule="nonzero"/></g><g clip-path="url(#d9bbcee6f3)"><path fill="#193049" d="M -29.960938 -55.585938 C -29.257812 -55.617188 -28.558594 -55.632812 -27.851562 -55.640625 L -27.210938 -55.644531 C -26.757812 -55.648438 -26.308594 -55.648438 -25.859375 -55.652344 C -25.167969 -55.65625 -24.480469 -55.664062 -23.792969 -55.675781 C -23.355469 -55.679688 -22.917969 -55.679688 -22.480469 -55.683594 L -21.855469 -55.695312 C -21.3125 -55.691406 -20.8125 -55.683594 -20.28125 -55.585938 C -19.757812 -55.128906 -19.757812 -55.128906 -19.359375 -54.664062 C -18.765625 -54.503906 -18.765625 -54.503906 -18.148438 -54.492188 L -17.527344 -54.453125 L -17.054688 -54.433594 C -16.949219 -53.644531 -16.855469 -52.851562 -16.765625 -52.058594 L -16.675781 -51.378906 L -16.605469 -50.726562 L -16.53125 -50.121094 L -16.59375 -49.601562 C -17.011719 -49.183594 -17.355469 -48.960938 -17.921875 -48.777344 C -18.570312 -48.652344 -19.183594 -48.644531 -19.84375 -48.640625 L -20.707031 -48.628906 C -21.019531 -48.628906 -21.328125 -48.625 -21.636719 -48.625 L -22.113281 -48.621094 C -22.945312 -48.617188 -23.777344 -48.613281 -24.609375 -48.613281 C -25.464844 -48.609375 -26.320312 -48.601562 -27.171875 -48.59375 C -27.835938 -48.585938 -28.496094 -48.582031 -29.15625 -48.582031 C -29.46875 -48.582031 -29.785156 -48.578125 -30.101562 -48.574219 C -32.863281 -48.539062 -32.863281 -48.539062 -34.085938 -49.144531 C -34.320312 -49.296875 -34.558594 -49.445312 -34.800781 -49.601562 L -34.800781 -49.832031 L -33.1875 -49.832031 L -33.1875 -54.433594 L -31.804688 -54.433594 L -31.804688 -53.28125 L -30.421875 -53.28125 C -30.402344 -53.503906 -30.402344 -53.503906 -30.378906 -53.726562 L -30.320312 -54.304688 C -30.300781 -54.492188 -30.28125 -54.683594 -30.261719 -54.878906 L -30.191406 -55.355469 Z M 50.703125 20.136719 C 51.695312 20.496094 52.527344 21.027344 53.351562 21.675781 C 53.9375 22.09375 54.292969 22.246094 55.011719 22.464844 C 56.144531 22.546875 57.089844 22.066406 58.105469 21.613281 C 58.65625 21.34375 59.1875 21.054688 59.71875 20.753906 C 60.597656 20.304688 61.375 20.246094 62.355469 20.292969 C 63.804688 20.484375 64.921875 21.097656 66.085938 21.957031 C 66.859375 22.332031 67.597656 22.476562 68.449219 22.4375 C 69.125 22.226562 69.71875 21.910156 70.335938 21.558594 C 70.652344 21.390625 70.964844 21.222656 71.28125 21.050781 L 71.730469 20.808594 C 72.402344 20.457031 73.015625 20.164062 73.773438 20.085938 C 74.609375 20.148438 75.203125 20.265625 75.921875 20.71875 C 76.300781 21.003906 76.679688 21.292969 77.058594 21.582031 C 78.03125 22.214844 79.078125 22.445312 80.203125 22.667969 C 80.207031 23.007812 80.214844 23.347656 80.21875 23.6875 L 80.226562 24.261719 L 80.203125 24.738281 L 79.972656 24.96875 C 79.019531 25.074219 78.390625 25.074219 77.492188 24.710938 C 76.929688 24.429688 76.371094 24.132812 75.824219 23.820312 L 75.824219 23.359375 C 74.875 23.128906 74.035156 23.03125 73.058594 23.128906 C 72.457031 23.378906 71.886719 23.667969 71.3125 23.980469 C 70.386719 24.472656 69.488281 24.824219 68.449219 24.96875 L 67.65625 25.085938 C 66.128906 25.085938 64.683594 24.078125 63.378906 23.359375 L 63.378906 22.898438 C 62.21875 22.8125 61.332031 22.773438 60.265625 23.285156 C 59.996094 23.460938 59.726562 23.636719 59.460938 23.820312 C 58.714844 24.3125 58.011719 24.703125 57.15625 24.96875 C 55.667969 25.046875 54.273438 24.996094 52.902344 24.378906 L 52.316406 24.046875 L 52.316406 23.589844 L 51.164062 23.359375 L 51.164062 22.898438 C 50.398438 22.808594 49.84375 22.769531 49.089844 22.898438 C 48.40625 23.253906 47.796875 23.660156 47.171875 24.113281 C 46.511719 24.535156 45.929688 24.773438 45.171875 24.96875 C 44.292969 24.898438 44.292969 24.898438 43.558594 24.738281 L 43.328125 24.507812 C 43.296875 23.894531 43.320312 23.285156 43.328125 22.667969 L 43.910156 22.515625 C 45.445312 22.082031 46.699219 21.613281 47.980469 20.660156 C 48.855469 20.046875 49.667969 20.050781 50.703125 20.136719 " fill-opacity="1" fill-rule="nonzero"/></g><path fill="#fefefe" d="M 18.898438 13.460938 L 19.359375 13.460938 C 19.671875 13.859375 19.671875 13.859375 20.027344 14.410156 L 20.421875 15.019531 L 20.828125 15.664062 L 21.230469 16.285156 C 21.609375 16.875 21.984375 17.46875 22.355469 18.066406 L 22.65625 18.535156 C 23.007812 19.109375 23.265625 19.582031 23.359375 20.253906 C 23.289062 20.773438 23.210938 21.25 23.046875 21.746094 C 22.570312 22.335938 22.570312 22.335938 21.894531 22.667969 C 21.210938 22.796875 20.769531 22.757812 20.050781 22.667969 C 19.488281 22.28125 19.488281 22.28125 19.128906 21.746094 C 18.875 20.804688 18.871094 19.898438 18.875 18.921875 L 18.878906 18.449219 C 18.878906 17.953125 18.882812 17.453125 18.882812 16.957031 C 18.886719 16.617188 18.886719 16.28125 18.886719 15.941406 C 18.890625 15.113281 18.894531 14.289062 18.898438 13.460938 " fill-opacity="1" fill-rule="nonzero"/><g clip-path="url(#ae57ad7bd0)"><path fill="#0c2240" d="M 125.144531 -50.519531 C 125.679688 -50.53125 126.21875 -50.53125 126.757812 -50.519531 L 126.988281 -50.289062 C 126.996094 -49.753906 126.996094 -49.214844 126.988281 -48.679688 C 126.378906 -48.375 125.921875 -48.417969 125.242188 -48.417969 L 124.410156 -48.414062 L 122.539062 -48.414062 C 121.671875 -48.410156 120.800781 -48.410156 119.933594 -48.410156 C 119.207031 -48.410156 118.484375 -48.410156 117.757812 -48.410156 C 116.050781 -48.40625 114.34375 -48.40625 112.632812 -48.40625 C 110.867188 -48.40625 109.101562 -48.40625 107.339844 -48.402344 C 105.824219 -48.398438 104.3125 -48.394531 102.796875 -48.398438 C 101.894531 -48.398438 100.988281 -48.394531 100.082031 -48.394531 C 99.234375 -48.390625 98.382812 -48.390625 97.53125 -48.394531 C 97.070312 -48.394531 96.609375 -48.390625 96.144531 -48.390625 L 94.59375 -48.390625 L 94.03125 -48.449219 L 93.570312 -48.910156 C 93.539062 -49.628906 93.539062 -49.628906 93.570312 -50.289062 L 94.03125 -49.832031 L 94.03125 -49.140625 L 126.066406 -49.371094 L 126.296875 -50.289062 L 125.144531 -50.289062 Z M -35.492188 45.222656 C -35.105469 45.214844 -34.722656 45.214844 -34.339844 45.222656 L -34.339844 45.914062 L -33.878906 45.914062 L -33.835938 46.382812 L -33.777344 47.007812 C -33.757812 47.210938 -33.738281 47.414062 -33.71875 47.621094 C -33.65625 48.132812 -33.558594 48.636719 -33.417969 49.136719 L -32.941406 49.191406 C -32.0625 49.417969 -31.425781 49.816406 -30.652344 50.285156 C -30.96875 50.632812 -30.96875 50.632812 -31.34375 50.976562 L -31.804688 50.976562 L -31.34375 51.898438 C -32.160156 51.660156 -32.800781 51.390625 -33.488281 50.90625 C -33.886719 50.644531 -33.886719 50.644531 -34.339844 50.515625 C -35.390625 50.667969 -36.226562 51.082031 -37.105469 51.667969 C -37.578125 51.609375 -37.578125 51.609375 -38.027344 51.4375 L -38.488281 50.976562 C -38.445312 50.515625 -38.445312 50.515625 -38.257812 50.054688 L -37.566406 49.59375 L -36.875 49.59375 L -36.875 48.90625 L -37.535156 48.746094 L -38.257812 48.445312 C -38.574219 47.839844 -38.574219 47.839844 -38.71875 47.292969 L -38.257812 46.832031 C -37.296875 46.90625 -36.566406 47.070312 -35.722656 47.523438 L -35.730469 47.078125 L -35.746094 45.929688 L -35.722656 45.453125 Z M -24.199219 45.222656 C -23.621094 45.195312 -23.621094 45.195312 -23.046875 45.222656 L -22.816406 45.453125 C -22.800781 45.800781 -22.796875 46.152344 -22.800781 46.503906 L -22.808594 47.078125 L -22.816406 47.523438 L -22.445312 47.316406 L -21.953125 47.050781 L -21.464844 46.78125 C -20.972656 46.605469 -20.972656 46.605469 -20.449219 46.691406 L -20.050781 46.832031 L -19.820312 47.984375 C -21.035156 48.703125 -21.035156 48.703125 -21.433594 48.90625 L -21.894531 48.90625 L -21.894531 49.367188 L -21.359375 49.566406 C -20.742188 49.824219 -20.742188 49.824219 -20.050781 50.285156 C -20.109375 50.71875 -20.109375 50.71875 -20.28125 51.207031 C -20.679688 51.503906 -20.679688 51.503906 -21.203125 51.667969 C -21.765625 51.453125 -21.765625 51.453125 -22.355469 51.105469 C -22.929688 50.753906 -22.929688 50.753906 -23.507812 50.515625 C -24.363281 50.582031 -25.113281 51.066406 -25.871094 51.453125 L -26.621094 51.832031 L -27.195312 52.128906 L -27.65625 51.667969 L -26.964844 50.976562 L -27.425781 50.054688 L -26.945312 49.867188 C -26.230469 49.527344 -25.699219 49.214844 -25.121094 48.675781 C -24.726562 47.617188 -24.582031 46.566406 -24.429688 45.453125 Z M 80.664062 -50.058594 C 81.097656 -50.121094 81.097656 -50.121094 81.585938 -50.117188 L 82.074219 -50.121094 L 82.507812 -50.058594 L 82.96875 -49.601562 C 82.894531 -49.011719 82.894531 -49.011719 82.738281 -48.449219 L 82.507812 -48.21875 C 82.050781 -48.195312 81.589844 -48.191406 81.132812 -48.191406 L 80.230469 -48.1875 L 79.226562 -48.191406 L 78.179688 -48.1875 C 77.226562 -48.1875 76.277344 -48.1875 75.324219 -48.1875 C 74.332031 -48.1875 73.339844 -48.1875 72.34375 -48.1875 C 70.675781 -48.1875 69.007812 -48.1875 67.339844 -48.1875 C 65.40625 -48.191406 63.476562 -48.191406 61.542969 -48.1875 C 59.886719 -48.1875 58.230469 -48.1875 56.578125 -48.1875 C 55.585938 -48.1875 54.597656 -48.1875 53.605469 -48.1875 C 52.675781 -48.1875 51.746094 -48.1875 50.8125 -48.1875 C 50.472656 -48.1875 50.128906 -48.1875 49.785156 -48.1875 C 49.320312 -48.1875 48.855469 -48.1875 48.390625 -48.191406 L 47.597656 -48.191406 L 47.015625 -48.21875 L 46.785156 -48.449219 C 46.777344 -48.910156 46.773438 -49.371094 46.785156 -49.832031 C 47.457031 -49.582031 47.886719 -49.421875 48.398438 -48.910156 C 48.9375 -48.839844 48.9375 -48.839844 49.574219 -48.851562 L 50.324219 -48.851562 L 51.15625 -48.855469 L 52.027344 -48.851562 C 52.820312 -48.851562 53.613281 -48.851562 54.402344 -48.855469 C 55.234375 -48.859375 56.0625 -48.855469 56.894531 -48.855469 C 58.289062 -48.855469 59.6875 -48.859375 61.082031 -48.863281 C 62.691406 -48.867188 64.296875 -48.867188 65.90625 -48.867188 C 67.625 -48.867188 69.339844 -48.867188 71.058594 -48.871094 C 71.546875 -48.871094 72.039062 -48.871094 72.53125 -48.871094 C 73.457031 -48.871094 74.378906 -48.875 75.300781 -48.875 L 76.117188 -48.875 C 77.796875 -48.882812 79.453125 -48.976562 81.125 -49.140625 L 80.203125 -49.601562 Z M 80.664062 -50.058594 " fill-opacity="1" fill-rule="nonzero"/></g><g clip-path="url(#40387beef5)"><path fill="#0c2240" d="M 9.21875 56.269531 C 10.171875 57 10.171875 57 10.601562 57.421875 C 10.804688 57.953125 10.804688 57.953125 10.832031 58.339844 L 11.292969 58.339844 L 11.292969 58.800781 L 11.984375 59.03125 C 12.300781 59.410156 12.605469 59.792969 12.90625 60.183594 C 15.449219 62.941406 18.902344 65.089844 22.414062 66.355469 C 23.535156 66.660156 24.683594 66.679688 25.839844 66.699219 L 26.308594 66.710938 C 27.476562 66.710938 28.242188 66.4375 29.269531 65.9375 L 29.800781 65.722656 L 30.191406 65.476562 C 30.347656 65.171875 30.503906 64.863281 30.652344 64.554688 C 30.847656 64.257812 31.042969 63.960938 31.242188 63.664062 C 31.734375 62.890625 31.964844 62.261719 32.035156 61.332031 L 32.265625 61.792969 L 32.726562 61.792969 C 32.609375 62.886719 32.332031 63.554688 31.691406 64.441406 C 30.808594 65.605469 29.875 66.417969 28.578125 67.085938 C 26.984375 67.617188 24.910156 67.523438 23.257812 67.234375 C 18.832031 66.164062 15.339844 63.160156 12.117188 60.113281 C 11.050781 59.074219 10 58.007812 9.21875 56.730469 Z M 14.113281 -61.46875 L 14.519531 -61.335938 L 14.519531 -60.878906 L 15.210938 -60.648438 C 15.636719 -60.214844 15.988281 -59.742188 16.363281 -59.265625 C 16.207031 -58.839844 16.207031 -58.839844 15.902344 -58.347656 C 15.390625 -58.054688 15.390625 -58.054688 14.734375 -57.800781 L 13.992188 -57.511719 L 13.136719 -57.195312 L 12.640625 -57.007812 C 12.121094 -56.816406 11.601562 -56.621094 11.078125 -56.433594 L 10.574219 -56.246094 C 9.910156 -56.011719 9.265625 -55.824219 8.574219 -55.707031 L 8.066406 -55.8125 C 7.652344 -56.285156 7.652344 -56.285156 7.304688 -56.90625 L 6.945312 -57.523438 C 6.683594 -58.117188 6.683594 -58.117188 6.683594 -59.035156 C 7.679688 -59.425781 8.679688 -59.808594 9.679688 -60.1875 L 10.191406 -60.382812 C 10.714844 -60.578125 11.242188 -60.773438 11.769531 -60.964844 L 12.273438 -61.15625 C 13.480469 -61.589844 13.480469 -61.589844 14.113281 -61.46875 M 9.925781 -59.84375 L 9.3125 -59.609375 C 8.820312 -59.421875 8.328125 -59.230469 7.835938 -59.035156 C 7.679688 -58.257812 7.679688 -58.257812 7.605469 -57.425781 C 8.050781 -56.808594 8.050781 -56.808594 8.757812 -56.503906 C 9.882812 -56.613281 10.941406 -56.953125 12.011719 -57.296875 L 12.503906 -57.449219 C 13.675781 -57.792969 13.675781 -57.792969 14.75 -58.347656 C 14.9375 -59.050781 14.9375 -59.050781 14.980469 -59.726562 C 14.5 -60.21875 14.5 -60.21875 13.828125 -60.648438 C 12.375 -60.808594 11.25 -60.363281 9.925781 -59.84375 " fill-opacity="1" fill-rule="nonzero"/></g><g clip-path="url(#c80659550d)"><path fill="#0c2240" d="M 71.214844 -62.949219 C 71.867188 -62.726562 72.316406 -62.535156 72.820312 -62.054688 C 73.847656 -61.339844 74.945312 -61.152344 76.15625 -60.878906 C 76.652344 -60.757812 77.152344 -60.640625 77.648438 -60.519531 L 78.378906 -60.347656 C 79.238281 -60.140625 80.085938 -59.917969 80.9375 -59.683594 L 81.652344 -59.488281 C 82.316406 -59.253906 82.855469 -58.984375 83.429688 -58.574219 C 83.617188 -57.957031 83.617188 -57.957031 83.660156 -57.425781 L 83.097656 -57.539062 C 82.570312 -57.664062 82.570312 -57.664062 82.277344 -57.65625 L 82.046875 -57.195312 L 81.816406 -57.425781 C 81.042969 -57.492188 80.265625 -57.527344 79.488281 -57.566406 L 78.820312 -57.65625 L 78.589844 -58.117188 L 79.511719 -58.347656 L 79.511719 -58.804688 L 79.050781 -59.035156 L 78.820312 -59.496094 C 78.34375 -59.671875 77.867188 -59.832031 77.378906 -59.972656 L 76.582031 -60.210938 C 75.945312 -60.382812 75.320312 -60.519531 74.671875 -60.648438 C 73.394531 -60.996094 72.488281 -61.535156 71.503906 -62.417969 L 71.214844 -62.71875 Z M 43.097656 -64.558594 C 43.558594 -64.582031 44.019531 -64.585938 44.480469 -64.582031 L 45.328125 -64.582031 L 46.222656 -64.574219 L 47.121094 -64.570312 C 47.851562 -64.570312 48.585938 -64.566406 49.320312 -64.558594 L 49.320312 -62.949219 L 43.097656 -62.949219 L 42.867188 -64.328125 Z M -9.679688 14.152344 C -9.1875 14.140625 -8.699219 14.128906 -8.210938 14.125 L -7.382812 14.105469 L -6.683594 14.152344 L -6.222656 14.613281 C -6.179688 15.179688 -6.164062 15.742188 -6.167969 16.3125 L -6.167969 16.816406 C -6.171875 17.171875 -6.171875 17.527344 -6.175781 17.878906 C -6.179688 18.421875 -6.179688 18.964844 -6.179688 19.511719 C -6.179688 19.851562 -6.183594 20.195312 -6.183594 20.539062 L -6.183594 21.035156 C -6.191406 21.425781 -6.203125 21.816406 -6.222656 22.207031 L -6.453125 22.4375 C -7.035156 22.492188 -7.613281 22.535156 -8.195312 22.566406 L -8.691406 22.597656 C -9.097656 22.621094 -9.503906 22.644531 -9.910156 22.667969 L -10.140625 21.976562 C -9.28125 21.84375 -8.476562 21.746094 -7.605469 21.746094 C -6.949219 18.28125 -6.949219 18.28125 -7.375 14.84375 L -9.679688 14.382812 Z M -26.042969 49.367188 C -25.496094 49.550781 -25.496094 49.550781 -25.121094 49.824219 L -25.121094 50.054688 L -24.496094 49.898438 L -23.679688 49.695312 L -22.871094 49.492188 C -22.125 49.367188 -22.125 49.367188 -21.605469 49.4375 C -21.046875 49.65625 -20.554688 49.964844 -20.050781 50.285156 C -20.109375 50.71875 -20.109375 50.71875 -20.28125 51.207031 C -20.679688 51.503906 -20.679688 51.503906 -21.203125 51.667969 C -21.765625 51.453125 -21.765625 51.453125 -22.355469 51.105469 C -22.929688 50.757812 -22.929688 50.757812 -23.507812 50.515625 C -24.363281 50.582031 -25.113281 51.066406 -25.871094 51.453125 L -26.621094 51.832031 L -27.195312 52.128906 L -27.65625 51.667969 L -26.964844 50.976562 L -27.425781 50.054688 C -26.792969 49.683594 -26.792969 49.683594 -26.042969 49.367188 " fill-opacity="1" fill-rule="nonzero"/></g><path fill="#fefefe" d="M 11.523438 20.136719 L 11.984375 20.136719 L 12.171875 20.65625 L 12.417969 21.34375 L 12.660156 22.023438 C 12.867188 22.570312 13.078125 23.082031 13.367188 23.589844 C 13.898438 23.910156 14.449219 24.113281 15.023438 24.351562 L 15.671875 24.738281 C 15.886719 25.34375 15.886719 25.34375 15.902344 25.890625 L 15.671875 26.121094 C 15.082031 26.234375 15.082031 26.234375 14.289062 26.121094 C 13.320312 25.488281 12.601562 24.761719 12 23.777344 C 11.652344 22.855469 11.496094 22.101562 11.507812 21.113281 L 11.515625 20.558594 Z M 11.523438 20.136719 " fill-opacity="1" fill-rule="nonzero"/><g clip-path="url(#935e95a29f)"><path fill="#0c2240" d="M -10.832031 49.59375 C -10.441406 49.582031 -10.054688 49.574219 -9.664062 49.582031 L -9.023438 49.585938 L -8.527344 49.59375 C -8.4375 50.132812 -8.363281 50.667969 -8.296875 51.207031 L -8.527344 51.4375 C -8.90625 51.464844 -9.285156 51.476562 -9.664062 51.480469 L -10.289062 51.488281 L -10.832031 51.4375 L -11.292969 50.976562 C -11.21875 50.386719 -11.21875 50.386719 -11.0625 49.824219 Z M 159.945312 16.222656 C 160.320312 16.21875 160.691406 16.210938 161.066406 16.210938 L 161.699219 16.199219 C 162.25 16.222656 162.25 16.222656 162.710938 16.453125 C 162.964844 17.21875 162.980469 17.808594 162.984375 18.613281 L 162.992188 19.394531 C 162.941406 20.136719 162.835938 20.636719 162.480469 21.285156 C 161.84375 21.496094 161.472656 21.542969 160.824219 21.53125 L 159.945312 21.515625 L 160.175781 21.058594 L 161.789062 20.597656 C 162.132812 19.90625 162.039062 19.265625 162.03125 18.496094 L 162.027344 17.601562 L 162.019531 16.914062 L 159.945312 16.453125 Z M 159.945312 16.222656 " fill-opacity="1" fill-rule="nonzero"/></g><g clip-path="url(#b1b570a2d7)"><path fill="#0c2240" d="M 78.359375 27.5 L 80.203125 27.960938 C 80.207031 28.300781 80.214844 28.640625 80.21875 28.984375 L 80.226562 29.558594 L 80.203125 30.03125 L 79.972656 30.261719 C 79.628906 30.28125 79.285156 30.289062 78.941406 30.285156 L 78.3125 30.28125 L 77.652344 30.277344 L 76.988281 30.273438 C 76.449219 30.269531 75.90625 30.269531 75.363281 30.261719 L 75.132812 29.800781 L 79.050781 29.574219 L 79.28125 28.191406 L 78.359375 27.730469 Z M -10.832031 52.816406 C -10.28125 52.75 -10.28125 52.75 -9.652344 52.773438 L -9.015625 52.792969 L -8.527344 52.816406 L -8.296875 54.429688 C -9.277344 54.695312 -10.066406 54.605469 -11.0625 54.429688 C -11.207031 54.011719 -11.207031 54.011719 -11.292969 53.507812 Z M -10.832031 46.375 C -10.230469 46.304688 -10.230469 46.304688 -9.535156 46.332031 L -8.835938 46.347656 L -8.296875 46.375 L -8.296875 47.984375 L -11.0625 47.984375 L -11.292969 47.0625 Z M 10.601562 26.351562 L 12.675781 27.5 L 12.675781 27.960938 C 15.179688 28.859375 17.65625 29.035156 20.28125 28.652344 L 20.050781 29.113281 C 18.539062 29.597656 17.117188 29.78125 15.554688 29.449219 C 13.664062 28.917969 12.03125 28.167969 10.601562 26.808594 Z M 41.714844 -56.273438 C 42.09375 -56.296875 42.472656 -56.304688 42.851562 -56.304688 L 43.476562 -56.304688 C 44.019531 -56.273438 44.019531 -56.273438 44.480469 -56.042969 C 44.492188 -55.660156 44.488281 -55.277344 44.480469 -54.894531 L 44.25 -54.664062 C 43.871094 -54.640625 43.492188 -54.632812 43.113281 -54.632812 L 42.488281 -54.632812 C 41.945312 -54.664062 41.945312 -54.664062 41.484375 -54.894531 C 41.476562 -55.277344 41.476562 -55.660156 41.484375 -56.042969 Z M 41.714844 -56.273438 " fill-opacity="1" fill-rule="nonzero"/><path fill="#0c2240" d="M 51.394531 64.09375 L 51.855469 64.324219 L 51.496094 64.699219 C 51.105469 65.238281 51.105469 65.238281 51.148438 65.9375 C 51.34375 66.664062 51.34375 66.664062 51.957031 67.128906 C 52.820312 67.570312 53.640625 67.824219 54.582031 68.050781 L 55.082031 68.238281 L 55.542969 68.929688 C 53.894531 68.789062 52.574219 68.210938 51.164062 67.359375 C 50.703125 66.855469 50.703125 66.855469 50.457031 66.066406 L 50.472656 65.246094 C 50.917969 64.570312 50.917969 64.570312 51.394531 64.09375 M 54.160156 -64.328125 L 54.851562 -64.328125 C 54.617188 -63.699219 54.371094 -63.148438 54.015625 -62.574219 L 53.699219 -62.027344 L 53.699219 -61.335938 C 54.304688 -61.035156 54.789062 -61.058594 55.464844 -61.035156 L 56.25 -61.003906 L 57.070312 -60.976562 L 57.894531 -60.949219 C 58.570312 -60.921875 59.246094 -60.898438 59.921875 -60.878906 L 59.921875 -60.648438 C 58.941406 -60.632812 57.960938 -60.625 56.984375 -60.617188 L 56.140625 -60.605469 L 55.332031 -60.601562 L 54.585938 -60.59375 C 53.933594 -60.648438 53.558594 -60.773438 53.007812 -61.109375 C 53.082031 -62.167969 53.160156 -62.808594 53.671875 -63.753906 Z M 115.234375 59.492188 L 115.925781 59.492188 C 115.875 59.992188 115.875 59.992188 115.695312 60.644531 C 115.222656 61.265625 115.222656 61.265625 114.628906 61.878906 L 114.042969 62.503906 C 113.828125 62.648438 113.613281 62.792969 113.390625 62.945312 C 112.554688 62.933594 112.554688 62.933594 111.777344 62.714844 C 111.226562 62.386719 110.863281 62.007812 110.394531 61.5625 C 111.085938 61.5625 111.085938 61.5625 111.761719 61.9375 L 112.46875 62.253906 C 112.957031 62.164062 112.957031 62.164062 113.390625 61.792969 L 114.109375 61.261719 C 114.792969 60.695312 114.792969 60.695312 115.089844 59.996094 Z M 106.707031 46.605469 C 108.105469 47.019531 109.238281 47.667969 110.308594 48.660156 C 110.882812 49.277344 111.078125 49.570312 111.316406 50.402344 L 111.316406 50.976562 L 110.394531 49.824219 L 109.859375 49.121094 C 109.085938 48.273438 108.316406 47.75 107.207031 47.386719 C 106.554688 47.265625 105.929688 47.273438 105.265625 47.28125 L 104.511719 47.285156 L 103.941406 47.292969 L 103.710938 46.832031 C 104.726562 46.496094 105.640625 46.476562 106.707031 46.605469 M 103.25 64.324219 L 103.480469 64.785156 C 104.105469 64.859375 104.710938 64.902344 105.339844 64.929688 L 105.867188 64.957031 C 106.300781 64.976562 106.734375 64.996094 107.167969 65.015625 L 107.398438 64.324219 L 108.089844 64.554688 L 108.089844 65.476562 C 106.527344 65.753906 104.773438 65.984375 103.25 65.476562 Z M 119.613281 -14.617188 L 120.074219 -14.617188 C 119.949219 -13.394531 119.582031 -12.421875 118.921875 -11.394531 C 118.058594 -10.347656 117.191406 -9.617188 115.925781 -9.09375 L 115.925781 -9.785156 C 116.289062 -10.097656 116.289062 -10.097656 116.773438 -10.417969 C 117.714844 -11.089844 118.363281 -11.761719 118.921875 -12.777344 C 119.1875 -13.382812 119.402344 -13.984375 119.613281 -14.617188 M 103.480469 -24.054688 L 104.171875 -23.824219 L 104.171875 -23.363281 L 104.558594 -23.183594 C 105.375 -22.753906 106.09375 -22.195312 106.835938 -21.648438 C 107.351562 -21.320312 107.722656 -21.164062 108.320312 -21.0625 L 108.320312 -20.601562 L 108.757812 -20.472656 L 109.328125 -20.300781 L 109.894531 -20.128906 L 110.394531 -19.910156 L 110.855469 -19.21875 C 108.179688 -20.050781 105.839844 -21.390625 103.769531 -23.265625 L 103.480469 -23.59375 Z M -30.882812 58.339844 L -30.421875 58.570312 C -30.738281 59.03125 -30.738281 59.03125 -31.113281 59.492188 L -31.574219 59.492188 L -31.574219 60.183594 L -30.191406 59.953125 L -30.191406 60.414062 C -30.808594 60.773438 -30.808594 60.773438 -31.574219 61.101562 C -32.234375 61.03125 -32.234375 61.03125 -32.726562 60.875 L -32.957031 59.953125 Z M 112.007812 43.382812 C 112.738281 43.4375 113.1875 43.628906 113.828125 43.996094 L 114.5 44.476562 L 115.179688 44.945312 L 115.695312 45.453125 C 115.804688 46.050781 115.804688 46.050781 115.695312 46.605469 C 115.117188 47.25 115.117188 47.25 114.542969 47.753906 L 114.3125 47.292969 L 114.542969 46.878906 C 114.8125 46.378906 114.8125 46.378906 114.773438 45.796875 C 114.570312 45.167969 114.570312 45.167969 113.953125 44.703125 C 113.015625 44.230469 112.355469 44.144531 111.316406 44.070312 C 111.589844 43.710938 111.589844 43.710938 112.007812 43.382812 M 139.203125 25.660156 L 139.5 26.058594 C 139.882812 26.566406 140.277344 27.058594 140.6875 27.542969 L 141.089844 28.027344 C 141.480469 28.445312 141.480469 28.445312 141.980469 28.609375 L 142.429688 28.652344 C 143.054688 28.367188 143.054688 28.367188 143.582031 27.960938 L 143.8125 27.5 L 144.503906 27.5 C 144.359375 27.902344 144.359375 27.902344 144.042969 28.421875 C 143.394531 28.953125 143.394531 28.953125 142.660156 29.34375 C 142.113281 29.320312 142.113281 29.320312 141.507812 29.113281 C 140.898438 28.617188 140.898438 28.617188 140.296875 28.003906 L 139.6875 27.394531 C 139.203125 26.808594 139.203125 26.808594 139.003906 26.289062 L 138.972656 25.890625 Z M 139.203125 25.660156 " fill-opacity="1" fill-rule="nonzero"/><path fill="#0c2240" d="M 12.445312 43.152344 C 12.964844 43.210938 12.964844 43.210938 13.597656 43.382812 C 15.078125 44.605469 15.988281 46.289062 16.824219 47.984375 C 16.40625 47.824219 16.40625 47.824219 15.902344 47.523438 C 15.558594 47.023438 15.558594 47.023438 15.238281 46.429688 C 14.640625 45.386719 14.046875 44.628906 13.136719 43.84375 L 12.445312 43.613281 Z M 107.628906 -28.195312 C 108.191406 -28.136719 108.742188 -28.066406 109.300781 -27.980469 C 110.367188 -27.820312 111.386719 -27.707031 112.46875 -27.734375 L 112.46875 -27.273438 C 110.683594 -27.25 108.9375 -27.28125 107.167969 -27.503906 L 107.167969 -27.046875 L 106.476562 -27.273438 C 106.851562 -27.667969 107.136719 -27.949219 107.628906 -28.195312 M 13.367188 -53.050781 L 14.175781 -52.9375 C 15.820312 -52.75 17.476562 -52.804688 19.128906 -52.820312 C 18.902344 -52.480469 18.902344 -52.480469 18.4375 -52.132812 C 17.796875 -52.070312 17.152344 -52.046875 16.507812 -52.058594 L 15.980469 -52.058594 C 15.007812 -52.066406 14.253906 -52.148438 13.367188 -52.59375 Z M -34.339844 57.191406 L -33.878906 57.191406 C -33.859375 57.726562 -33.859375 58.265625 -33.878906 58.800781 L -34.339844 59.492188 C -34.726562 59.421875 -35.109375 59.347656 -35.492188 59.261719 L -35.722656 59.03125 C -35.730469 58.648438 -35.730469 58.265625 -35.722656 57.882812 L -34.570312 57.652344 L -34.800781 58.339844 L -34.339844 58.339844 Z M 43.328125 28.191406 L 43.789062 28.421875 L 44.25 29.800781 L 47.246094 29.800781 L 47.476562 30.261719 C 46.828125 30.269531 46.179688 30.273438 45.53125 30.277344 L 44.972656 30.28125 C 44.5 30.285156 44.03125 30.273438 43.558594 30.261719 L 43.328125 30.03125 C 43.296875 29.417969 43.320312 28.808594 43.328125 28.191406 M 59.921875 -65.480469 L 59.921875 -65.019531 L 59.53125 -65.007812 C 58.945312 -64.984375 58.359375 -64.960938 57.777344 -64.933594 L 57.160156 -64.914062 L 56.566406 -64.886719 L 56.023438 -64.863281 C 55.472656 -64.8125 55.472656 -64.8125 54.851562 -64.328125 L 54.621094 -64.789062 L 54.851562 -65.25 C 56.585938 -65.800781 58.128906 -65.683594 59.921875 -65.480469 M -21.433594 55.808594 C -20.886719 55.996094 -20.886719 55.996094 -20.28125 56.269531 L -19.820312 56.960938 L -20.28125 57.882812 L -21.894531 57.652344 L -21.894531 56.960938 L -21.433594 57.191406 L -21.664062 56.5 L -21.203125 56.5 Z M 120.535156 54.429688 C 120.871094 54.417969 121.207031 54.40625 121.542969 54.398438 L 122.109375 54.382812 L 122.609375 54.429688 L 123.070312 54.890625 L 123.070312 55.808594 L 122.652344 55.59375 C 122.125 55.324219 122.125 55.324219 121.457031 55.121094 L 120.765625 55.578125 L 120.074219 55.347656 Z M 7.144531 46.832031 C 7.484375 47.851562 7.382812 48.875 7.367188 49.9375 C 7.355469 51.003906 7.429688 51.996094 7.605469 53.046875 C 7.144531 52.585938 7.144531 52.585938 6.886719 51.796875 C 6.546875 50.320312 6.515625 48.828125 6.914062 47.367188 Z M 7.144531 46.832031 " fill-opacity="1" fill-rule="nonzero"/><path fill="#0c2240" d="M 105.683594 40.808594 L 106.476562 40.796875 C 107.167969 40.851562 107.167969 40.851562 107.859375 41.308594 C 107.902344 41.914062 107.902344 41.914062 107.859375 42.460938 L 107.167969 42.230469 L 107.167969 41.539062 L 103.480469 41.539062 L 103.25 41.078125 C 104.066406 40.828125 104.832031 40.8125 105.683594 40.808594 M 159.253906 10.46875 L 160.175781 10.929688 C 160.261719 11.40625 160.261719 11.40625 160.175781 12.082031 C 159.761719 12.664062 159.289062 13.179688 158.792969 13.691406 L 158.101562 13.460938 C 158.183594 13.363281 158.265625 13.261719 158.351562 13.15625 C 158.683594 12.730469 158.984375 12.320312 159.253906 11.851562 C 159.351562 11.09375 159.351562 11.09375 159.253906 10.46875 M -38.027344 53.046875 C -37.21875 53.105469 -37.21875 53.105469 -36.414062 53.277344 L -35.953125 53.738281 L -37.335938 53.507812 L -37.335938 54.429688 L -36.875 55.121094 L -38.257812 54.660156 C -38.402344 54.113281 -38.402344 54.113281 -38.488281 53.507812 Z M 75.132812 -30.957031 C 75.957031 -30.605469 76.503906 -30.117188 77.132812 -29.492188 L 77.683594 -28.953125 C 78.128906 -28.425781 78.128906 -28.425781 78.304688 -27.898438 L 78.359375 -27.503906 C 77.957031 -27.261719 77.957031 -27.261719 77.4375 -27.046875 C 76.917969 -27.132812 76.917969 -27.132812 76.515625 -27.273438 L 76.515625 -27.503906 L 77.667969 -27.734375 C 77.136719 -28.800781 76.359375 -29.53125 75.511719 -30.34375 L 75.132812 -30.726562 Z M 127.679688 -65.019531 L 127.449219 -63.871094 C 126.816406 -63.609375 126.816406 -63.609375 126.066406 -63.410156 C 125.519531 -63.609375 125.519531 -63.609375 125.144531 -63.871094 C 125.390625 -64.0625 125.640625 -64.253906 125.894531 -64.445312 L 126.3125 -64.769531 C 126.757812 -65.019531 126.757812 -65.019531 127.679688 -65.019531 M 67.066406 -24.054688 L 67.988281 -24.054688 L 67.988281 -21.980469 L 66.605469 -21.980469 L 66.605469 -22.441406 L 67.066406 -22.441406 L 66.9375 -23.117188 L 66.835938 -23.824219 Z M 67.066406 -24.054688 " fill-opacity="1" fill-rule="nonzero"/><path fill="#0c2240" d="M 103.941406 66.855469 L 106.9375 67.085938 L 106.9375 67.546875 L 106.246094 68.007812 C 105.378906 67.933594 104.695312 67.75 103.941406 67.316406 Z M 93.339844 -64.101562 L 93.570312 -63.640625 L 93.339844 -62.949219 L 93.570312 -62.257812 C 94.378906 -61.976562 94.378906 -61.976562 95.183594 -61.796875 L 95.183594 -61.335938 L 93.109375 -61.566406 C 92.835938 -62.1875 92.835938 -62.1875 92.648438 -62.949219 C 92.964844 -63.609375 92.964844 -63.609375 93.339844 -64.101562 M 136.667969 20.367188 L 137.359375 20.828125 C 138.015625 20.964844 138.675781 21.058594 139.339844 21.15625 L 139.894531 21.285156 L 140.125 21.746094 L 136.898438 21.515625 Z M 109.933594 63.636719 C 110.984375 63.761719 111.769531 64.046875 112.699219 64.554688 L 112.007812 64.785156 L 111.460938 64.671875 C 110.796875 64.542969 110.351562 64.621094 109.703125 64.785156 Z M -21.433594 53.046875 L -20.28125 53.277344 L -20.050781 54.199219 C -20.699219 54.671875 -20.699219 54.671875 -21.433594 55.121094 L -22.125 54.890625 L -21.679688 54.472656 C -21.15625 53.988281 -21.15625 53.988281 -20.972656 53.277344 Z M 76.515625 23.820312 L 79.742188 24.507812 L 79.742188 24.046875 L 80.203125 24.046875 L 79.972656 24.96875 C 78.589844 25.042969 77.75 24.894531 76.515625 24.277344 Z M 103.480469 -13.234375 L 110.164062 -12.777344 L 110.164062 -12.546875 C 109.460938 -12.496094 108.761719 -12.445312 108.058594 -12.402344 L 107.460938 -12.355469 C 106.328125 -12.285156 105.464844 -12.3125 104.402344 -12.777344 Z M 24.199219 25.199219 L 24.660156 25.199219 C 24.417969 26.019531 24.078125 26.519531 23.480469 27.113281 L 22.816406 27.730469 L 22.125 27.5 L 22.644531 26.996094 C 23.28125 26.371094 23.28125 26.371094 23.78125 25.703125 Z M 74.671875 22.4375 C 75.234375 22.898438 75.234375 22.898438 75.59375 23.359375 L 75.234375 23.242188 C 74.191406 23.03125 73.152344 23.035156 72.136719 23.359375 L 71.90625 22.898438 C 72.855469 22.4375 73.621094 22.324219 74.671875 22.4375 M 150.265625 13 C 152.03125 13.265625 152.03125 13.265625 152.785156 13.75 C 153.109375 14.023438 153.417969 14.316406 153.722656 14.613281 L 153.492188 15.074219 L 153.144531 14.835938 C 152.117188 14.164062 151.230469 13.734375 150.035156 13.460938 Z M 150.265625 13 " fill-opacity="1" fill-rule="nonzero"/></g><path fill="#0c2240" d="M 17.054688 6.328125 C 17.5 6.472656 17.5 6.472656 17.976562 6.789062 C 18.378906 7.390625 18.378906 7.390625 18.667969 7.9375 L 17.976562 7.9375 L 17.746094 7.476562 C 17.046875 7.328125 17.046875 7.328125 16.363281 7.246094 L 16.59375 6.558594 Z M 17.054688 6.328125 " fill-opacity="1" fill-rule="nonzero"/><g clip-path="url(#0fcb31292e)"><path fill="#0c2240" d="M 25.351562 20.136719 L 26.042969 20.136719 C 26.0625 20.671875 26.0625 21.210938 26.042969 21.746094 L 25.582031 22.4375 C 25.402344 21.652344 25.328125 20.941406 25.351562 20.136719 M 8.757812 18.984375 L 8.988281 18.984375 L 8.980469 19.574219 C 8.976562 19.824219 8.976562 20.078125 8.972656 20.335938 L 8.964844 21.097656 C 8.941406 21.734375 8.941406 21.734375 9.21875 22.207031 C 9.003906 22.695312 9.003906 22.695312 8.757812 23.128906 C 8.511719 22.386719 8.496094 21.835938 8.5 21.058594 L 8.496094 20.324219 C 8.527344 19.675781 8.527344 19.675781 8.757812 18.984375 M 158.101562 -16.457031 L 157.871094 -15.769531 L 155.566406 -15.539062 L 155.335938 -15.996094 C 156.234375 -16.597656 157.058594 -16.492188 158.101562 -16.457031 M 57.15625 65.707031 C 57.601562 65.894531 57.601562 65.894531 58.078125 66.167969 L 58.308594 66.855469 L 58.769531 66.855469 C 59.144531 67.316406 59.144531 67.316406 59.460938 67.777344 L 58.539062 67.777344 C 58.144531 67.382812 58.144531 67.382812 57.789062 66.871094 L 57.425781 66.363281 L 57.15625 65.9375 Z M 139.203125 10.929688 C 139.800781 11.824219 140.339844 12.726562 140.816406 13.691406 C 140.550781 13.484375 140.285156 13.273438 140.023438 13.058594 C 139.875 12.941406 139.730469 12.824219 139.578125 12.703125 C 139.203125 12.3125 139.203125 12.3125 139.019531 11.832031 L 138.972656 11.390625 Z M 161.097656 -49.601562 L 161.558594 -49.601562 C 161.566406 -49.214844 161.566406 -48.832031 161.558594 -48.449219 L 161.328125 -48.21875 C 160.867188 -48.210938 160.40625 -48.210938 159.945312 -48.21875 C 160.316406 -48.6875 160.699219 -49.148438 161.097656 -49.601562 M 55.773438 -19.679688 L 56.234375 -19.449219 L 56.003906 -16.6875 L 55.773438 -16.6875 C 55.730469 -17.144531 55.683594 -17.597656 55.644531 -18.054688 L 55.570312 -18.824219 L 55.542969 -19.449219 Z M 25.121094 23.128906 L 25.582031 23.128906 C 25.453125 23.898438 25.269531 24.515625 24.890625 25.199219 L 24.429688 24.738281 Z M 141.738281 8.398438 C 142.371094 8.441406 142.371094 8.441406 143.121094 8.628906 C 143.667969 9.21875 143.667969 9.21875 144.042969 9.777344 L 143.683594 9.578125 C 142.976562 9.253906 142.257812 9.058594 141.507812 8.859375 Z M 148.421875 5.867188 C 148.949219 5.855469 149.476562 5.84375 150.003906 5.839844 L 150.894531 5.820312 L 151.648438 5.867188 L 152.109375 6.328125 L 151.417969 6.558594 L 150.957031 6.328125 C 150.523438 6.273438 150.09375 6.234375 149.660156 6.199219 L 148.957031 6.140625 L 148.421875 6.097656 Z M 148.421875 5.867188 " fill-opacity="1" fill-rule="nonzero"/></g><g clip-path="url(#2f6f5377cd)"><path fill="#0c2240" d="M 26.503906 -53.742188 L 27.195312 -53.742188 L 27.195312 -53.28125 C 26.84375 -52.984375 26.84375 -52.984375 26.390625 -52.679688 L 25.933594 -52.367188 L 25.582031 -52.132812 L 25.582031 -52.820312 C 26 -53.324219 26 -53.324219 26.503906 -53.742188 M 115.003906 55.578125 L 115.464844 55.578125 L 114.773438 57.652344 L 114.3125 57.421875 C 114.742188 56.097656 114.742188 56.097656 115.003906 55.578125 M 144.734375 -34.640625 L 148.191406 -34.410156 L 148.191406 -34.179688 C 146.113281 -33.882812 146.113281 -33.882812 145.164062 -34.164062 L 144.734375 -34.410156 Z M 144.734375 -34.640625 " fill-opacity="1" fill-rule="nonzero"/></g></svg>