<svg xmlns="http://www.w3.org/2000/svg" xmlns:xlink="http://www.w3.org/1999/xlink" width="48" zoomAndPan="magnify" viewBox="0 0 36 36.000001" height="48" preserveAspectRatio="xMidYMid meet" version="1.0"><defs><clipPath id="e5de557f18"><path d="M 0.488281 0 L 35.511719 0 L 35.511719 35.027344 L 0.488281 35.027344 Z M 0.488281 0 " clip-rule="nonzero"/></clipPath><clipPath id="5d0c775b64"><path d="M 1 0 L 35.511719 0 L 35.511719 35.027344 L 1 35.027344 Z M 1 0 " clip-rule="nonzero"/></clipPath><clipPath id="3121267100"><path d="M 0.488281 0 L 35.511719 0 L 35.511719 35.027344 L 0.488281 35.027344 Z M 0.488281 0 " clip-rule="nonzero"/></clipPath><clipPath id="3d39de5ea0"><path d="M 0.488281 7 L 35.511719 7 L 35.511719 35.027344 L 0.488281 35.027344 Z M 0.488281 7 " clip-rule="nonzero"/></clipPath><clipPath id="fe1bf81f76"><path d="M 0.488281 0 L 35.511719 0 L 35.511719 35.027344 L 0.488281 35.027344 Z M 0.488281 0 " clip-rule="nonzero"/></clipPath><clipPath id="78652f2f8a"><path d="M 6 0 L 35.511719 0 L 35.511719 35.027344 L 6 35.027344 Z M 6 0 " clip-rule="nonzero"/></clipPath><clipPath id="d4062df428"><path d="M 0.488281 14 L 35.511719 14 L 35.511719 33 L 0.488281 33 Z M 0.488281 14 " clip-rule="nonzero"/></clipPath><clipPath id="75a8d5cd27"><path d="M 0.488281 0 L 35.511719 0 L 35.511719 35.027344 L 0.488281 35.027344 Z M 0.488281 0 " clip-rule="nonzero"/></clipPath><clipPath id="1ac89b8caa"><path d="M 0.488281 21 L 35.511719 21 L 35.511719 35.027344 L 0.488281 35.027344 Z M 0.488281 21 " clip-rule="nonzero"/></clipPath><clipPath id="8db4039829"><path d="M 0.488281 0 L 35.511719 0 L 35.511719 35.027344 L 0.488281 35.027344 Z M 0.488281 0 " clip-rule="nonzero"/></clipPath><clipPath id="91503cb378"><path d="M 6 0 L 35.511719 0 L 35.511719 28 L 6 28 Z M 6 0 " clip-rule="nonzero"/></clipPath><clipPath id="34fed958af"><path d="M 12 0 L 35.511719 0 L 35.511719 35.027344 L 12 35.027344 Z M 12 0 " clip-rule="nonzero"/></clipPath><clipPath id="dcf8777630"><path d="M 0.488281 0 L 35.511719 0 L 35.511719 35.027344 L 0.488281 35.027344 Z M 0.488281 0 " clip-rule="nonzero"/></clipPath></defs><g clip-path="url(#e5de557f18)"><rect x="-3.6" width="43.2" fill="#fefefe" y="-3.6" height="43.200001" fill-opacity="1"/></g><g clip-path="url(#5d0c775b64)"><path fill="#193049" d="M 103.070312 46.445312 C 103.492188 46.355469 103.492188 46.355469 104 46.355469 L 104.550781 46.351562 L 105.132812 46.359375 L 105.707031 46.351562 L 106.261719 46.355469 L 106.769531 46.355469 C 107.21875 46.445312 107.21875 46.445312 107.625 46.75 L 107.910156 47.136719 C 107.941406 47.914062 107.941406 47.914062 107.910156 48.746094 C 107.976562 49.132812 108.050781 49.519531 108.140625 49.898438 L 108.777344 50 C 109.523438 50.128906 109.523438 50.128906 109.984375 50.292969 L 110.445312 50.359375 C 110.890625 50.035156 111.230469 49.664062 111.605469 49.265625 L 112.058594 48.976562 C 112.726562 48.980469 112.726562 48.980469 113.441406 49.207031 C 114.082031 49.691406 114.082031 49.691406 114.679688 50.300781 L 115.292969 50.902344 C 115.746094 51.507812 115.746094 51.507812 115.855469 52.097656 C 115.660156 53.105469 115.003906 53.71875 114.363281 54.5 L 115.285156 56.574219 L 115.824219 56.613281 L 117.222656 56.730469 C 117.820312 56.800781 117.820312 56.800781 118.28125 57.03125 C 118.535156 57.796875 118.550781 58.386719 118.554688 59.191406 L 118.566406 59.972656 C 118.511719 60.714844 118.410156 61.214844 118.050781 61.867188 C 117.355469 62.097656 116.890625 62.121094 116.164062 62.109375 L 115.535156 62.105469 L 115.054688 62.097656 C 114.753906 62.855469 114.492188 63.589844 114.363281 64.398438 C 114.742188 65.09375 114.742188 65.09375 115.285156 65.546875 L 115.285156 66.007812 L 115.746094 66.007812 C 115.808594 66.632812 115.808594 66.632812 115.746094 67.390625 C 115.332031 67.960938 115.332031 67.960938 114.78125 68.484375 L 114.238281 69.011719 C 113.671875 69.464844 113.21875 69.726562 112.519531 69.921875 C 111.902344 69.632812 111.425781 69.277344 110.894531 68.855469 C 110.464844 68.53125 110.464844 68.53125 110.015625 68.355469 C 109.316406 68.292969 108.785156 68.523438 108.140625 68.769531 L 108.117188 69.351562 L 108.070312 70.109375 L 108.027344 70.859375 C 107.910156 71.53125 107.910156 71.53125 107.617188 71.914062 C 107.21875 72.222656 107.21875 72.222656 106.769531 72.3125 L 106.261719 72.316406 L 105.707031 72.316406 L 105.132812 72.308594 L 104.550781 72.316406 L 104 72.316406 L 103.492188 72.3125 L 103.070312 72.222656 C 102.546875 71.441406 102.527344 71.035156 102.464844 70.109375 L 102.414062 69.351562 L 102.378906 68.769531 C 101.601562 68.59375 100.875 68.488281 100.074219 68.539062 C 99.527344 68.855469 99.117188 69.195312 98.667969 69.632812 L 98.230469 69.921875 C 97.679688 69.917969 97.679688 69.917969 97.078125 69.691406 C 96.472656 69.199219 96.472656 69.199219 95.871094 68.582031 L 95.261719 67.976562 C 94.773438 67.390625 94.773438 67.390625 94.539062 66.910156 L 94.542969 66.46875 C 94.882812 66.023438 94.882812 66.023438 95.351562 65.578125 C 95.804688 65.109375 95.804688 65.109375 96.15625 64.628906 C 96.199219 63.882812 96.199219 63.882812 95.925781 63.246094 C 95.847656 62.941406 95.769531 62.632812 95.695312 62.328125 L 95 62.285156 L 94.097656 62.226562 L 93.199219 62.167969 L 92.46875 62.097656 L 92.238281 61.867188 C 92.015625 60.304688 91.945312 58.8125 92.238281 57.261719 L 92.46875 57.03125 C 92.972656 56.980469 93.476562 56.9375 93.984375 56.902344 L 94.820312 56.84375 L 95.464844 56.800781 L 95.679688 56.148438 C 95.925781 55.421875 95.925781 55.421875 96.171875 54.859375 L 96.15625 54.269531 C 95.757812 53.832031 95.339844 53.457031 94.882812 53.085938 L 94.542969 52.660156 C 94.535156 52.117188 94.535156 52.117188 94.773438 51.507812 C 95.160156 51.015625 95.53125 50.59375 95.96875 50.15625 L 96.296875 49.800781 C 96.628906 49.46875 96.628906 49.46875 97.308594 48.976562 C 98.046875 48.980469 98.046875 48.980469 98.691406 49.207031 L 99.328125 49.828125 L 100.074219 50.359375 C 100.878906 50.324219 101.613281 50.136719 102.378906 49.898438 L 102.414062 49.316406 L 102.464844 48.558594 C 102.484375 48.3125 102.5 48.0625 102.515625 47.808594 C 102.609375 47.136719 102.609375 47.136719 103.070312 46.445312 M 61.257812 81.386719 L 62.050781 81.375 C 62.738281 81.429688 62.738281 81.429688 63.429688 81.890625 C 63.5 82.4375 63.5 82.4375 63.472656 83.070312 L 63.457031 83.703125 L 63.429688 84.191406 L 63.859375 84.285156 L 64.425781 84.40625 L 64.984375 84.527344 C 65.503906 84.652344 65.503906 84.652344 66.195312 84.882812 L 66.859375 84.421875 L 67.578125 83.960938 C 68.320312 84.003906 68.753906 84.203125 69.398438 84.574219 L 70.070312 85.054688 L 70.753906 85.523438 L 71.265625 86.03125 C 71.378906 86.613281 71.378906 86.613281 71.265625 87.183594 C 71.015625 87.648438 71.015625 87.648438 70.691406 88.058594 L 70.367188 88.480469 L 70.113281 88.792969 C 70.402344 89.578125 70.710938 90.238281 71.265625 90.867188 C 71.945312 91.054688 72.519531 91.082031 73.222656 91.074219 L 73.800781 91.09375 L 74.492188 91.554688 C 74.558594 92.226562 74.578125 92.84375 74.566406 93.511719 L 74.566406 94.058594 C 74.5625 94.53125 74.53125 95 74.492188 95.46875 L 74.03125 95.929688 C 73.582031 95.980469 73.128906 96.023438 72.679688 96.058594 C 71.933594 96.144531 71.933594 96.144531 71.265625 96.390625 C 70.835938 96.886719 70.648438 97.316406 70.425781 97.933594 C 70.339844 98.496094 70.394531 98.847656 70.574219 99.382812 L 71.035156 99.382812 L 71.496094 100.070312 C 71.476562 100.613281 71.476562 100.613281 71.265625 101.222656 C 70.796875 101.847656 70.796875 101.847656 70.203125 102.460938 C 70.007812 102.664062 69.816406 102.871094 69.617188 103.082031 C 69.398438 103.230469 69.183594 103.375 68.960938 103.523438 C 68.136719 103.519531 68.136719 103.519531 67.347656 103.292969 L 66.871094 102.929688 L 66.425781 102.601562 C 65.773438 102.570312 65.773438 102.570312 65.101562 102.675781 L 64.414062 102.757812 L 63.890625 102.832031 L 63.898438 103.246094 C 63.910156 104.214844 63.90625 105.109375 63.660156 106.054688 C 62.101562 106.332031 60.34375 106.5625 58.820312 106.054688 L 58.785156 105.484375 C 58.703125 104.714844 58.601562 104.027344 58.359375 103.292969 C 57.917969 102.847656 57.574219 102.664062 56.984375 102.453125 C 56.488281 102.339844 56.488281 102.339844 55.882812 102.503906 C 55.359375 102.820312 55.359375 102.820312 54.902344 103.207031 C 54.441406 103.523438 54.441406 103.523438 53.921875 103.609375 C 53.289062 103.523438 53.289062 103.523438 52.617188 103.070312 L 51.9375 102.460938 L 51.246094 101.859375 L 50.753906 101.222656 C 50.765625 100.484375 50.765625 100.484375 50.984375 99.839844 L 51.476562 99.367188 L 51.90625 98.921875 C 51.902344 98.355469 51.902344 98.355469 51.675781 97.769531 L 51.433594 97.007812 L 51.214844 96.390625 L 50.621094 96.347656 L 49.847656 96.289062 L 49.078125 96.230469 L 48.449219 96.160156 L 48.21875 95.929688 C 48.203125 95.621094 48.195312 95.308594 48.199219 95 L 48.199219 94.4375 L 48.207031 93.84375 L 48.210938 93.246094 C 48.210938 92.761719 48.214844 92.273438 48.21875 91.785156 L 48.800781 91.683594 C 49.554688 91.527344 50.261719 91.359375 50.984375 91.09375 C 51.558594 90.359375 51.652344 89.84375 51.835938 88.9375 L 51.90625 88.332031 L 51.445312 88.332031 C 51.042969 87.816406 51.042969 87.816406 50.753906 87.183594 C 51.109375 86.203125 51.828125 85.53125 52.5625 84.816406 C 53.058594 84.421875 53.058594 84.421875 53.925781 84.148438 L 54.671875 84.191406 C 54.988281 84.410156 55.296875 84.640625 55.59375 84.882812 C 56.152344 84.855469 56.152344 84.855469 56.746094 84.652344 L 57.625 84.40625 C 57.867188 84.335938 58.109375 84.265625 58.359375 84.191406 L 58.34375 83.753906 L 58.332031 83.183594 L 58.316406 82.617188 L 58.359375 82.121094 C 58.820312 81.660156 58.820312 81.660156 59.21875 81.519531 C 59.902344 81.402344 60.5625 81.390625 61.257812 81.386719 M 106.617188 7.152344 C 108.136719 7.851562 109.300781 8.792969 110.347656 10.097656 C 110.90625 11.007812 111.015625 11.777344 111.050781 12.84375 C 110.984375 14.257812 110.742188 15.328125 109.984375 16.527344 L 109.664062 17.039062 C 108.347656 18.90625 106.433594 20.25 104.453125 21.359375 C 104.105469 21.511719 103.757812 21.65625 103.402344 21.789062 C 102.25 22.238281 101.113281 22.710938 99.976562 23.1875 C 99.554688 23.359375 99.125 23.519531 98.691406 23.660156 C 98.421875 24.335938 98.421875 24.335938 98.230469 25.042969 L 98 25.5 L 98.460938 25.5 L 98.578125 26.019531 C 98.890625 26.71875 98.890625 26.71875 99.675781 27.121094 C 100.992188 27.746094 102.390625 27.886719 103.820312 28.078125 C 104.355469 28.152344 104.890625 28.226562 105.421875 28.300781 L 106.132812 28.398438 C 106.664062 28.480469 107.164062 28.59375 107.679688 28.722656 C 108.207031 28.757812 108.738281 28.773438 109.265625 28.78125 L 110.097656 28.800781 C 110.992188 28.714844 111.53125 28.507812 112.289062 28.035156 C 112.890625 27.191406 113.234375 26.535156 113.386719 25.515625 L 113.441406 24.8125 C 111.867188 24.910156 110.820312 25.25 109.4375 25.976562 C 107.558594 26.882812 105.929688 27.132812 103.855469 27.007812 C 102.523438 26.875 101.296875 26.507812 100.074219 25.960938 L 99.84375 24.8125 L 100.515625 24.480469 C 100.824219 24.328125 101.132812 24.175781 101.445312 24.019531 L 101.945312 23.773438 C 102.820312 23.335938 103.683594 22.890625 104.535156 22.417969 C 107.480469 20.789062 110.121094 19.875 113.515625 19.878906 C 114.679688 20.015625 115.546875 20.394531 116.539062 21.027344 L 116.898438 21.359375 L 116.898438 21.820312 L 117.589844 22.050781 C 118.175781 22.851562 118.484375 23.6875 118.613281 24.667969 C 118.449219 26.023438 118.21875 27.210938 117.445312 28.363281 C 115.910156 30.203125 114.042969 31.15625 111.84375 32.003906 L 111.402344 32.175781 C 107.90625 33.457031 103.816406 33.464844 100.15625 33.023438 C 98.140625 32.664062 96.324219 31.898438 94.734375 30.625 C 93.71875 29.699219 93.074219 28.789062 92.628906 27.488281 C 92.238281 26 92.101562 24.644531 92.484375 23.144531 C 92.808594 22.242188 93.183594 21.523438 93.847656 20.832031 C 95.75 19.226562 97.988281 18.269531 100.246094 17.285156 C 102.761719 16.1875 102.761719 16.1875 104.863281 14.464844 L 105.144531 13.996094 L 105.144531 13.074219 C 103.277344 13.027344 101.589844 13.046875 99.761719 13.453125 C 99.066406 13.546875 98.492188 13.46875 97.800781 13.363281 C 97.183594 13.269531 97.183594 13.269531 96.617188 13.304688 C 95.714844 14.074219 95.261719 14.992188 94.773438 16.066406 L 94.082031 15.835938 L 94.011719 15.390625 L 93.851562 14.914062 C 93.164062 14.613281 93.164062 14.613281 92.46875 14.453125 L 92.699219 13.535156 L 93.578125 13.476562 C 94.082031 13.425781 94.082031 13.425781 94.542969 13.304688 C 95.023438 12.894531 95.023438 12.894531 95.234375 12.382812 L 95.234375 11.921875 L 94.644531 11.390625 L 94.082031 10.773438 C 94.105469 10.230469 94.105469 10.230469 94.3125 9.621094 C 95.175781 8.363281 96.214844 7.328125 97.570312 6.613281 C 100.433594 5.261719 103.828125 5.964844 106.617188 7.152344 M 67.304688 6.65625 C 68.378906 7.082031 69.28125 7.671875 70.113281 8.46875 C 70.390625 8.835938 70.660156 9.203125 70.921875 9.578125 C 71.292969 10.117188 71.292969 10.117188 71.726562 10.542969 C 72.394531 10.78125 72.851562 10.785156 73.570312 10.773438 L 73.800781 10.3125 L 75.183594 10.3125 C 75.128906 10.742188 75.128906 10.742188 74.953125 11.234375 C 74.480469 11.519531 74.480469 11.519531 74.03125 11.691406 L 74.394531 12.109375 L 74.722656 12.613281 L 74.492188 13.304688 C 73.714844 13.179688 73.324219 13.0625 72.648438 12.613281 C 71.457031 12.445312 70.367188 12.570312 69.234375 12.957031 C 67.15625 13.648438 64.882812 13.34375 62.738281 13.074219 L 62.738281 13.996094 L 63.152344 14.191406 C 63.660156 14.453125 63.660156 14.453125 64.410156 14.957031 C 65.316406 15.535156 66.273438 15.953125 67.261719 16.367188 C 69.550781 17.339844 71.855469 18.367188 73.570312 20.207031 L 73.960938 20.617188 C 74.722656 21.46875 75.402344 22.292969 75.644531 23.429688 C 75.789062 24.910156 75.851562 26.375 75.285156 27.773438 C 74.59375 29.085938 73.65625 30.160156 72.46875 31.039062 C 71.703125 31.503906 70.972656 31.808594 70.128906 32.105469 L 69.316406 32.394531 C 66.054688 33.363281 61.867188 33.214844 58.535156 32.609375 C 56.214844 32.035156 53.632812 31.316406 51.789062 29.742188 C 51.152344 29.128906 50.664062 28.636719 50.351562 27.796875 C 50.113281 26.929688 50.003906 26.148438 50.164062 25.257812 C 50.460938 24.320312 50.980469 23.636719 51.652344 22.929688 C 52.734375 21.996094 54.019531 21.4375 55.394531 21.058594 C 58.402344 20.507812 61.546875 20.890625 64.429688 21.84375 C 65.835938 22.390625 67.191406 23.039062 68.269531 24.121094 C 68.550781 24.625 68.550781 24.625 68.730469 25.042969 C 68.371094 25.472656 68.371094 25.472656 67.808594 25.960938 C 66.148438 26.53125 64.480469 26.644531 62.738281 26.421875 C 61.757812 26.203125 60.816406 25.882812 59.871094 25.546875 C 58.5 25.085938 57.484375 25.015625 56.054688 25.273438 L 55.824219 26.191406 C 57.273438 26.644531 58.714844 27.054688 60.203125 27.34375 L 60.824219 27.46875 C 63.136719 27.789062 65.785156 27.851562 68.015625 27.105469 C 68.5625 26.871094 68.5625 26.871094 69.234375 26.378906 C 69.640625 25.753906 69.738281 25.523438 69.785156 24.8125 C 69.738281 24.09375 69.632812 23.855469 69.234375 23.214844 C 68.753906 22.695312 68.753906 22.695312 68.039062 22.511719 L 68.039062 22.050781 L 67.347656 22.050781 L 67.347656 21.589844 L 66.542969 21.414062 C 65.515625 21.15625 64.613281 20.757812 63.675781 20.28125 L 63.191406 20.03125 C 61.367188 19.085938 59.816406 18.011719 58.640625 16.296875 C 57.859375 15.007812 57.617188 13.929688 57.554688 12.410156 C 57.589844 11.101562 57.773438 10.09375 58.4375 8.957031 C 59.25 7.925781 60.246094 7.371094 61.4375 6.851562 C 63.304688 6.195312 65.398438 6.105469 67.304688 6.65625 M 21.976562 -26.253906 C 24.289062 -24.75 24.289062 -24.75 24.945312 -24.210938 L 24.945312 -23.75 L 26.09375 -23.289062 L 26.09375 -22.832031 L 26.554688 -22.6875 C 27.183594 -22.398438 27.53125 -22.140625 28.046875 -21.703125 C 29.195312 -20.832031 30.378906 -20.570312 31.769531 -20.269531 C 32.261719 -20.15625 32.753906 -20.039062 33.246094 -19.925781 L 33.960938 -19.761719 C 34.816406 -19.5625 35.664062 -19.339844 36.511719 -19.105469 L 37.226562 -18.90625 C 37.890625 -18.671875 38.425781 -18.402344 39 -17.996094 C 39.558594 -17.058594 39.742188 -16.320312 39.78125 -15.234375 C 39.738281 -14.136719 39.585938 -13.410156 39 -12.472656 C 38.40625 -12.007812 38.082031 -11.769531 37.386719 -11.550781 C 36.6875 -11.484375 36.015625 -11.496094 35.3125 -11.550781 L 35.144531 -12.015625 C 34.527344 -13.640625 34.527344 -13.640625 33.46875 -15.003906 C 32.527344 -15.664062 31.800781 -15.878906 30.675781 -16.011719 C 29.648438 -15.914062 28.917969 -15.660156 28.011719 -15.179688 C 27.230469 -14.582031 26.902344 -13.894531 26.519531 -13.003906 C 26.371094 -12.597656 26.230469 -12.191406 26.09375 -11.78125 C 24.867188 -11.53125 23.675781 -11.515625 22.425781 -11.515625 L 21.769531 -11.511719 C 21.3125 -11.511719 20.855469 -11.511719 20.398438 -11.511719 C 19.699219 -11.507812 19 -11.503906 18.296875 -11.5 C 17.855469 -11.5 17.410156 -11.5 16.96875 -11.5 L 16.332031 -11.496094 L 15.226562 -11.496094 L 14.804688 -11.550781 C 14.28125 -12.074219 14.191406 -12.414062 13.96875 -13.105469 C 13.707031 -13.78125 13.488281 -14.242188 12.984375 -14.765625 C 12.230469 -15.339844 11.59375 -15.75 10.65625 -15.925781 C 9.882812 -16 9.269531 -16.019531 8.542969 -15.71875 C 8.222656 -15.554688 7.902344 -15.382812 7.589844 -15.207031 C 7.199219 -15.003906 7.199219 -15.003906 6.738281 -15.003906 C 6.359375 -14.265625 6.011719 -13.515625 5.671875 -12.761719 L 5.359375 -12.074219 L 5.125 -11.550781 C 4.71875 -11.574219 4.316406 -11.597656 3.914062 -11.625 L 3.234375 -11.664062 C 2.589844 -11.78125 2.589844 -11.78125 2.046875 -12.003906 L 1.667969 -12.472656 C 1.554688 -13.179688 1.578125 -13.875 1.609375 -14.585938 L 1.621094 -15.175781 C 1.632812 -15.65625 1.648438 -16.136719 1.667969 -16.617188 C 2.882812 -17.335938 2.882812 -17.335938 3.28125 -17.535156 L 3.742188 -17.535156 C 3.777344 -18.199219 3.777344 -18.199219 3.742188 -18.917969 L 3.28125 -19.609375 L 4.042969 -20.066406 C 5.222656 -20.9375 5.9375 -22.089844 6.707031 -23.308594 C 7.414062 -24.40625 8.179688 -25.320312 9.273438 -26.050781 C 10.230469 -26.539062 11.144531 -26.59375 12.203125 -26.617188 L 12.722656 -26.632812 C 13.082031 -26.640625 13.445312 -26.648438 13.804688 -26.660156 C 14.347656 -26.671875 14.890625 -26.6875 15.4375 -26.703125 C 20.34375 -26.839844 20.34375 -26.839844 21.976562 -26.253906 " fill-opacity="1" fill-rule="nonzero"/></g><g clip-path="url(#3121267100)"><path fill="#cf1b15" d="M 20.25 83 C 21.792969 83.761719 23.339844 84.859375 24.402344 86.230469 C 25.402344 87.820312 26.140625 89.433594 26.25 91.320312 C 26.273438 93.546875 25.636719 95.460938 24.648438 97.441406 C 23.9375 98.691406 23.078125 99.851562 22.234375 101.019531 L 21.898438 101.492188 C 21.617188 101.871094 21.324219 102.238281 21.027344 102.601562 L 20.566406 102.601562 L 20.40625 103.09375 C 20.035156 103.902344 19.550781 104.441406 18.953125 105.089844 L 18.332031 105.773438 L 17.800781 106.285156 L 17.339844 106.285156 L 16.878906 107.207031 C 16.445312 107.148438 16.445312 107.148438 15.957031 106.976562 C 15.796875 106.671875 15.644531 106.363281 15.496094 106.054688 L 15.082031 105.867188 C 14.410156 105.507812 14.0625 105.042969 13.59375 104.445312 L 13.101562 103.824219 L 12.730469 103.292969 L 12.730469 102.832031 L 12.269531 102.832031 C 11.984375 102.511719 11.984375 102.511719 11.667969 102.058594 L 11.3125 101.558594 L 10.941406 101.019531 L 10.5625 100.476562 C 7.40625 95.90625 7.40625 95.90625 6.96875 93.167969 C 6.820312 91.160156 7.070312 89.625 7.894531 87.808594 C 8.75 86.125 9.984375 84.832031 11.546875 83.773438 C 14.085938 82.324219 17.472656 82.007812 20.25 83 M 59.742188 43.222656 C 61.664062 43.675781 63.214844 44.417969 64.726562 45.691406 C 65.636719 46.558594 66.394531 47.492188 67.117188 48.515625 L 67.457031 48.976562 C 68.914062 51.238281 69.253906 54.40625 69.421875 57.03125 C 69.992188 56.710938 69.992188 56.710938 70.574219 56.113281 C 71.289062 54.78125 71.617188 53.464844 71.726562 51.96875 C 72.148438 52.027344 72.148438 52.027344 72.648438 52.199219 C 73.207031 52.824219 73.609375 53.550781 74.03125 54.269531 L 74.351562 54.816406 C 75.398438 56.738281 75.898438 58.789062 75.960938 60.972656 C 75.902344 62.984375 75.351562 64.714844 74.351562 66.453125 C 73.214844 68.152344 71.796875 69.058594 69.996094 69.992188 C 69.046875 70.433594 68.175781 70.734375 67.117188 70.84375 L 67.117188 70.382812 L 67.578125 70.382812 L 67.578125 69.921875 L 68.113281 69.433594 C 68.695312 68.808594 69.039062 68.300781 69.304688 67.488281 C 69.59375 66.105469 69.65625 64.652344 69.214844 63.300781 C 69.054688 62.949219 68.886719 62.601562 68.703125 62.257812 C 68.5 61.867188 68.5 61.867188 68.5 61.40625 L 68.039062 61.40625 L 67.964844 61.820312 C 67.75 62.882812 67.527344 63.726562 66.886719 64.628906 C 66.46875 64.570312 66.46875 64.570312 65.964844 64.398438 C 65.09375 63.449219 64.863281 62.296875 64.535156 61.082031 C 64.121094 59.210938 64.347656 57.722656 64.894531 55.894531 L 65.042969 55.421875 C 63.566406 56.128906 62.527344 57.066406 61.585938 58.414062 C 60.703125 60.269531 60.300781 62.121094 60.433594 64.167969 C 60.5625 65.015625 60.71875 65.859375 60.894531 66.699219 C 60.359375 66.640625 60.359375 66.640625 59.742188 66.46875 C 59.394531 66.050781 59.394531 66.050781 59.125 65.546875 C 58.953125 65.238281 58.777344 64.929688 58.589844 64.628906 L 58.128906 64.398438 C 57.859375 65.746094 57.761719 66.992188 58.058594 68.339844 C 58.433594 69.164062 58.90625 69.710938 59.511719 70.382812 L 59.28125 70.84375 C 57.054688 69.90625 55.355469 68.710938 53.75 66.929688 C 53.1875 66.121094 52.757812 65.304688 52.367188 64.398438 L 52.132812 63.925781 C 51.378906 62.160156 51.503906 60.058594 51.675781 58.183594 C 52.125 55.542969 53.296875 53.515625 54.976562 51.464844 C 55.179688 51.253906 55.382812 51.039062 55.59375 50.820312 L 56.054688 50.820312 L 56.011719 51.480469 C 56.015625 52.597656 56.253906 53.726562 56.746094 54.730469 C 57.210938 55.035156 57.210938 55.035156 57.667969 55.191406 L 57.898438 54.269531 L 58.359375 54.269531 L 58.535156 53.824219 C 58.695312 53.433594 58.859375 53.039062 59.042969 52.65625 C 60.003906 50.609375 60.375 48.710938 60.203125 46.445312 C 60.105469 45.902344 59.984375 45.359375 59.847656 44.824219 C 59.722656 44.28125 59.707031 43.777344 59.742188 43.222656 M -72.300781 -30.753906 L -71.644531 -30.757812 C -71.1875 -30.761719 -70.730469 -30.761719 -70.273438 -30.757812 C -69.582031 -30.757812 -68.886719 -30.761719 -68.195312 -30.769531 C -67.75 -30.769531 -67.300781 -30.769531 -66.855469 -30.769531 L -66.238281 -30.777344 C -64.761719 -30.761719 -63.464844 -30.476562 -62.171875 -29.734375 C -61.519531 -29.074219 -60.949219 -28.398438 -60.664062 -27.5 C -60.527344 -26.808594 -60.5 -26.136719 -60.46875 -25.433594 L -60.449219 -24.96875 C -60.425781 -24.464844 -60.40625 -23.960938 -60.386719 -23.457031 L -60.339844 -22.402344 C -60.308594 -21.667969 -60.277344 -20.929688 -60.246094 -20.195312 C -60.207031 -19.253906 -60.167969 -18.3125 -60.125 -17.371094 C -60.058594 -15.8125 -59.992188 -14.25 -59.929688 -12.691406 L -59.894531 -11.855469 L -59.867188 -11.09375 L -59.835938 -10.332031 L -59.867188 -9.710938 L -60.328125 -9.25 L -61.25 -9.25 C -61.535156 -10.78125 -61.503906 -12.300781 -61.480469 -13.855469 L -61.953125 -13.828125 L -62.578125 -13.8125 L -63.191406 -13.785156 C -63.785156 -13.855469 -63.785156 -13.855469 -64.324219 -14.171875 L -64.707031 -14.542969 L -64.707031 -15.003906 L -74.386719 -14.773438 L -74.847656 -12.703125 L -76.230469 -12.703125 L -76.230469 -13.855469 L -77.613281 -13.855469 L -77.613281 -9.25 L -78.996094 -9.480469 L -78.996094 -9.941406 L -79.457031 -9.941406 C -79.480469 -11.359375 -79.480469 -11.359375 -79.457031 -11.78125 L -79.226562 -12.011719 C -79.167969 -12.636719 -79.128906 -13.257812 -79.097656 -13.882812 L -79.066406 -14.464844 C -78.984375 -16.253906 -78.984375 -18.042969 -79.003906 -19.835938 C -79.015625 -20.996094 -78.96875 -22.109375 -78.824219 -23.257812 C -78.765625 -23.742188 -78.738281 -24.222656 -78.71875 -24.710938 L -78.699219 -25.175781 C -78.6875 -25.484375 -78.675781 -25.792969 -78.667969 -26.105469 C -78.617188 -27.164062 -78.398438 -27.90625 -77.84375 -28.8125 C -76.234375 -30.421875 -74.507812 -30.761719 -72.300781 -30.753906 " fill-opacity="1" fill-rule="nonzero"/></g><g clip-path="url(#3d39de5ea0)"><path fill="#193049" d="M 28.398438 7.550781 C 28.816406 7.578125 28.816406 7.578125 29.320312 7.78125 C 29.957031 8.339844 29.957031 8.339844 30.472656 8.929688 L 30.472656 9.390625 L 30.859375 9.550781 C 31.546875 9.9375 32.035156 10.417969 32.59375 10.972656 L 33.207031 11.574219 C 33.699219 12.152344 33.699219 12.152344 33.886719 12.6875 L 33.929688 13.074219 C 33.320312 13.410156 33.035156 13.535156 32.316406 13.535156 L 32.316406 30.105469 L 35.3125 30.105469 L 35.773438 30.335938 C 35.804688 31.660156 35.804688 31.660156 35.542969 32.175781 C 30.980469 32.183594 26.417969 32.1875 21.855469 32.1875 C 19.734375 32.1875 17.617188 32.191406 15.5 32.195312 C 13.652344 32.195312 11.804688 32.199219 9.960938 32.199219 C 8.980469 32.199219 8.003906 32.199219 7.027344 32.199219 C 6.105469 32.203125 5.1875 32.203125 4.265625 32.203125 C 3.929688 32.203125 3.589844 32.203125 3.25 32.203125 C 2.792969 32.203125 2.332031 32.203125 1.871094 32.203125 L 1.089844 32.203125 L 0.515625 32.175781 L 0.285156 31.945312 C 0.273438 31.410156 0.273438 30.871094 0.285156 30.335938 C 0.988281 29.980469 1.726562 30.082031 2.5 30.089844 L 2.996094 30.09375 C 3.398438 30.097656 3.800781 30.101562 4.203125 30.105469 L 4.191406 29.566406 C 4.167969 26.789062 4.167969 26.789062 4.433594 25.5 C 5.125 25.042969 5.125 25.042969 5.75 24.988281 C 6 24.992188 6.246094 24.992188 6.5 24.996094 L 7.3125 25 L 8.164062 25.011719 L 9.019531 25.019531 C 9.71875 25.023438 10.417969 25.03125 11.117188 25.042969 L 11.097656 24.203125 C 11.09375 23.839844 11.089844 23.476562 11.085938 23.113281 L 11.074219 22.558594 C 11.070312 22.082031 11.089844 21.605469 11.117188 21.128906 L 11.578125 20.667969 C 12.242188 20.59375 12.242188 20.59375 13.082031 20.574219 L 13.992188 20.546875 L 14.945312 20.523438 L 15.90625 20.496094 C 16.691406 20.476562 17.476562 20.457031 18.261719 20.4375 L 18.34375 19.648438 L 18.460938 18.625 L 18.515625 18.105469 C 18.570312 17.652344 18.644531 17.203125 18.722656 16.757812 L 19.183594 16.296875 C 20.65625 15.976562 22.082031 16.082031 23.5625 16.296875 L 23.5625 18.597656 L 21.027344 18.597656 L 21.042969 19.378906 C 21.046875 19.71875 21.050781 20.054688 21.054688 20.394531 C 21.058594 20.566406 21.0625 20.734375 21.066406 20.910156 C 21.070312 21.367188 21.050781 21.824219 21.027344 22.28125 L 20.566406 22.96875 C 19.878906 23.046875 19.878906 23.046875 19.007812 23.039062 L 18.542969 23.035156 C 18.054688 23.03125 17.566406 23.023438 17.078125 23.011719 C 16.746094 23.011719 16.417969 23.007812 16.085938 23.003906 C 15.273438 22.996094 14.460938 22.984375 13.652344 22.96875 L 13.667969 23.75 C 13.671875 24.089844 13.675781 24.429688 13.679688 24.769531 C 13.683594 24.9375 13.6875 25.109375 13.691406 25.28125 C 13.695312 25.738281 13.675781 26.195312 13.652344 26.652344 L 13.191406 27.34375 C 12.546875 27.421875 12.546875 27.421875 11.734375 27.410156 L 10.855469 27.402344 L 9.933594 27.386719 C 9.625 27.382812 9.316406 27.378906 9.007812 27.375 C 8.25 27.367188 7.492188 27.355469 6.738281 27.34375 C 6.730469 27.71875 6.726562 28.089844 6.722656 28.464844 L 6.714844 29.097656 C 6.699219 29.648438 6.699219 29.648438 6.96875 30.105469 L 24.945312 30.105469 L 25.175781 13.535156 L 23.5625 13.074219 C 23.65625 12.554688 23.742188 12.210938 24.074219 11.796875 L 24.429688 11.457031 L 24.820312 11.074219 L 25.230469 10.6875 C 26 9.945312 26.757812 9.21875 27.433594 8.390625 C 27.9375 7.78125 27.9375 7.78125 28.398438 7.550781 M -27.371094 46.90625 C -26.78125 47.117188 -26.46875 47.347656 -26.046875 47.8125 L -25.757812 48.285156 L -25.757812 48.976562 L -25.34375 49.148438 C -24.738281 49.496094 -24.503906 49.832031 -24.121094 50.410156 L -23.726562 51.011719 L -23.3125 51.652344 L -22.878906 52.308594 C -22.453125 52.960938 -22.03125 53.617188 -21.609375 54.269531 L -21.246094 54.832031 C -20.929688 55.324219 -20.613281 55.820312 -20.300781 56.3125 L -20.023438 56.746094 C -19.082031 58.253906 -18.445312 59.679688 -18.339844 61.464844 C -18.429688 63.199219 -18.824219 64.765625 -19.765625 66.238281 C -20.667969 67.511719 -21.601562 68.378906 -22.992188 69.101562 C -24.5625 69.808594 -26.015625 70.253906 -27.75 70.210938 C -29.730469 69.996094 -31.535156 69.15625 -33.164062 68.050781 C -34.332031 67.015625 -35.082031 65.519531 -35.640625 64.082031 C -36.070312 62.617188 -36.074219 61.148438 -35.78125 59.652344 C -35.113281 57.5 -33.703125 55.65625 -32.441406 53.8125 L -32.058594 53.246094 C -31.300781 52.128906 -30.542969 51.019531 -29.773438 49.910156 C -29.488281 49.496094 -29.199219 49.078125 -28.914062 48.660156 L -28.480469 48.027344 L -28.125 47.507812 C -27.832031 47.136719 -27.832031 47.136719 -27.371094 46.90625 M -32.183594 83.558594 C -31.628906 83.574219 -31.628906 83.574219 -31.058594 83.730469 C -29.390625 85.019531 -28.335938 86.953125 -27.371094 88.792969 L -27.050781 89.398438 C -26.554688 90.410156 -26.554688 90.410156 -26.449219 90.867188 C -26.578125 91.320312 -26.578125 91.320312 -26.910156 91.785156 C -27.511719 92.277344 -27.511719 92.277344 -28.207031 92.765625 L -28.910156 93.257812 L -29.445312 93.628906 C -29.359375 94.257812 -29.25 94.722656 -28.921875 95.269531 C -27.4375 97.152344 -25.472656 99.34375 -23.222656 100.300781 C -22.644531 100.335938 -22.644531 100.335938 -22.070312 100.070312 C -21.625 99.652344 -21.238281 99.257812 -20.847656 98.792969 L -20.53125 98.429688 C -20.273438 98.132812 -20.019531 97.835938 -19.765625 97.539062 C -18.285156 97.777344 -17.265625 98.195312 -16.007812 99 C -15.117188 99.546875 -14.179688 99.976562 -13.238281 100.417969 C -12.597656 100.777344 -12.167969 101.121094 -11.699219 101.683594 C -11.558594 102.417969 -11.558594 102.417969 -11.699219 103.292969 C -12.09375 104.039062 -12.574219 104.695312 -13.082031 105.363281 L -13.601562 106.113281 C -14.503906 107.015625 -15.308594 107.539062 -16.539062 107.898438 C -18.886719 108.242188 -21.105469 107.953125 -23.316406 107.117188 C -26.546875 105.667969 -29.167969 103.625 -31.75 101.222656 L -32.285156 100.734375 C -34.757812 98.390625 -36.335938 95.636719 -37.511719 92.476562 C -37.851562 91.152344 -37.964844 89.652344 -37.621094 88.320312 C -37.457031 87.917969 -37.457031 87.917969 -37.050781 87.183594 L -36.691406 86.492188 C -35.886719 85.503906 -34.890625 84.878906 -33.824219 84.191406 C -33.171875 83.757812 -32.929688 83.628906 -32.183594 83.558594 " fill-opacity="1" fill-rule="nonzero"/></g><g clip-path="url(#fe1bf81f76)"><path fill="#193049" d="M 31.855469 14.222656 L 32.316406 14.222656 L 32.316406 30.105469 L 35.3125 30.105469 L 35.773438 30.335938 C 35.804688 31.660156 35.804688 31.660156 35.542969 32.175781 C 30.980469 32.183594 26.417969 32.1875 21.855469 32.1875 C 19.734375 32.1875 17.617188 32.191406 15.5 32.195312 C 13.652344 32.195312 11.804688 32.199219 9.960938 32.199219 C 8.980469 32.199219 8.003906 32.199219 7.027344 32.199219 C 6.105469 32.203125 5.1875 32.203125 4.265625 32.203125 C 3.929688 32.203125 3.589844 32.203125 3.25 32.203125 C 2.792969 32.203125 2.332031 32.203125 1.871094 32.203125 L 1.089844 32.203125 L 0.515625 32.175781 L 0.285156 31.945312 C 0.273438 31.410156 0.273438 30.871094 0.285156 30.335938 C 0.988281 29.980469 1.726562 30.082031 2.5 30.089844 L 2.996094 30.09375 C 3.398438 30.097656 3.800781 30.101562 4.203125 30.105469 L 4.191406 29.566406 C 4.167969 26.789062 4.167969 26.789062 4.433594 25.5 C 5.125 25.042969 5.125 25.042969 5.75 24.988281 C 6 24.992188 6.246094 24.992188 6.5 24.996094 L 7.3125 25 L 8.164062 25.011719 L 9.019531 25.019531 C 9.71875 25.023438 10.417969 25.03125 11.117188 25.042969 L 11.097656 24.203125 C 11.09375 23.839844 11.089844 23.476562 11.085938 23.113281 L 11.074219 22.558594 C 11.070312 22.082031 11.089844 21.605469 11.117188 21.128906 L 11.578125 20.667969 C 12.242188 20.59375 12.242188 20.59375 13.082031 20.574219 L 13.992188 20.546875 L 14.945312 20.523438 L 15.90625 20.496094 C 16.691406 20.476562 17.476562 20.457031 18.261719 20.4375 L 18.34375 19.648438 L 18.460938 18.625 L 18.515625 18.105469 C 18.570312 17.652344 18.644531 17.203125 18.722656 16.757812 L 19.183594 16.296875 C 20.65625 15.976562 22.082031 16.082031 23.5625 16.296875 L 23.5625 18.597656 L 21.027344 18.597656 L 21.042969 19.378906 C 21.046875 19.71875 21.050781 20.054688 21.054688 20.394531 C 21.058594 20.566406 21.0625 20.734375 21.066406 20.910156 C 21.070312 21.367188 21.050781 21.824219 21.027344 22.28125 L 20.566406 22.96875 C 19.878906 23.046875 19.878906 23.046875 19.007812 23.039062 L 18.542969 23.035156 C 18.054688 23.03125 17.566406 23.023438 17.078125 23.011719 C 16.746094 23.011719 16.417969 23.007812 16.085938 23.003906 C 15.273438 22.996094 14.460938 22.984375 13.652344 22.96875 L 13.667969 23.75 C 13.671875 24.089844 13.675781 24.429688 13.679688 24.769531 C 13.683594 24.9375 13.6875 25.109375 13.691406 25.28125 C 13.695312 25.738281 13.675781 26.195312 13.652344 26.652344 L 13.191406 27.34375 C 12.546875 27.421875 12.546875 27.421875 11.734375 27.410156 L 10.855469 27.402344 L 9.933594 27.386719 C 9.625 27.382812 9.316406 27.378906 9.007812 27.375 C 8.25 27.367188 7.492188 27.355469 6.738281 27.34375 C 6.730469 27.71875 6.726562 28.089844 6.722656 28.464844 L 6.714844 29.097656 C 6.699219 29.648438 6.699219 29.648438 6.96875 30.105469 L 24.253906 30.105469 L 24.253906 30.566406 C 24.929688 31.035156 25.519531 31.328125 26.324219 31.484375 C 27.207031 31.542969 28.09375 31.539062 28.976562 31.542969 L 29.707031 31.558594 L 30.410156 31.5625 L 31.050781 31.566406 C 31.648438 31.527344 31.648438 31.527344 32.121094 31.136719 L 32.546875 30.796875 L 33.238281 30.796875 L 33.238281 30.335938 L 31.855469 30.335938 C 31.652344 29.453125 31.597656 28.636719 31.597656 27.730469 L 31.59375 26.855469 L 31.597656 25.917969 L 31.59375 24.949219 C 31.59375 24.277344 31.597656 23.601562 31.597656 22.929688 C 31.597656 22.0625 31.597656 21.199219 31.597656 20.335938 C 31.59375 19.667969 31.59375 19.003906 31.597656 18.339844 C 31.597656 18.019531 31.597656 17.703125 31.59375 17.382812 C 31.59375 16.9375 31.59375 16.496094 31.597656 16.050781 L 31.597656 15.28125 C 31.625 14.683594 31.625 14.683594 31.855469 14.222656 M -19.925781 -32.539062 C -18.523438 -31.925781 -17.179688 -31.175781 -15.847656 -30.425781 C -15.632812 -30.308594 -15.417969 -30.191406 -15.195312 -30.070312 L -14.695312 -29.734375 C -14.339844 -28.636719 -14.523438 -27.628906 -14.695312 -26.511719 C -16.28125 -26.945312 -16.28125 -26.945312 -16.539062 -27.203125 C -16.550781 -27.664062 -16.550781 -28.125 -16.539062 -28.582031 C -16.699219 -28.644531 -16.855469 -28.703125 -17.015625 -28.765625 C -17.648438 -29.023438 -18.257812 -29.3125 -18.871094 -29.609375 C -21.246094 -30.757812 -23.574219 -31.59375 -26.21875 -31.804688 L -26.910156 -32.035156 C -27.34375 -32.058594 -27.777344 -32.066406 -28.207031 -32.066406 L -28.894531 -32.066406 L -29.445312 -32.035156 L -29.675781 -31.804688 L -30.304688 -31.8125 C -31.53125 -31.800781 -32.601562 -31.363281 -33.753906 -30.972656 L -34.46875 -30.742188 C -36.949219 -29.949219 -36.949219 -29.949219 -39.125 -28.582031 C -39.472656 -27.824219 -39.390625 -27.105469 -39.355469 -26.28125 C -39.363281 -25.96875 -39.375 -25.65625 -39.386719 -25.34375 C -39.425781 -24.4375 -39.441406 -23.53125 -39.449219 -22.621094 C -39.457031 -22.242188 -39.464844 -21.867188 -39.472656 -21.488281 C -39.527344 -19.570312 -39.558594 -17.921875 -38.703125 -16.160156 C -38.367188 -15.574219 -38.0625 -15.09375 -37.582031 -14.617188 L -37.28125 -14.316406 L -37.28125 -13.855469 L -36.851562 -13.636719 L -35.898438 -13.164062 L -35.898438 -12.703125 L -35.324219 -12.53125 C -34.398438 -12.199219 -33.546875 -11.785156 -32.671875 -11.335938 L -32.195312 -11.09375 L -31.722656 -10.855469 L -31.261719 -10.621094 C -30.882812 -10.425781 -30.507812 -10.222656 -30.136719 -10.011719 C -29.296875 -9.648438 -28.515625 -9.46875 -27.601562 -9.480469 C -26.976562 -9.632812 -26.460938 -9.789062 -25.875 -10.027344 L -25.398438 -10.214844 C -22.921875 -11.226562 -20.59375 -12.503906 -18.613281 -14.316406 C -18.324219 -14.457031 -18.03125 -14.597656 -17.734375 -14.730469 L -17 -15.234375 C -16.628906 -16.136719 -16.539062 -17.027344 -16.539062 -17.996094 C -16.078125 -18.007812 -15.617188 -18.007812 -15.15625 -17.996094 L -14.925781 -17.765625 C -14.839844 -17.207031 -14.839844 -17.207031 -14.925781 -16.386719 C -15.53125 -14.839844 -16.34375 -13.453125 -17.625 -12.371094 C -18.097656 -12.003906 -18.582031 -11.660156 -19.074219 -11.324219 L -19.589844 -10.949219 C -21.84375 -9.398438 -25.097656 -7.605469 -27.847656 -7.34375 C -29.023438 -7.429688 -29.953125 -7.804688 -31.03125 -8.257812 L -31.621094 -8.496094 C -32.953125 -9.039062 -34.199219 -9.675781 -35.4375 -10.402344 L -36.140625 -10.808594 C -37.929688 -11.917969 -39.417969 -13.097656 -40.476562 -14.945312 C -41.378906 -16.730469 -41.546875 -18.539062 -41.570312 -20.511719 L -41.582031 -21.28125 C -41.589844 -21.8125 -41.59375 -22.347656 -41.597656 -22.878906 C -41.605469 -23.695312 -41.625 -24.507812 -41.648438 -25.324219 C -41.652344 -25.84375 -41.65625 -26.363281 -41.65625 -26.882812 L -41.683594 -27.617188 C -41.675781 -28.304688 -41.648438 -28.851562 -41.429688 -29.503906 C -40.8125 -30.125 -40.144531 -30.507812 -39.355469 -30.886719 L -38.730469 -31.238281 C -32.722656 -34.171875 -26.285156 -34.890625 -19.925781 -32.539062 M 10.476562 -14.839844 C 11.117188 -14.773438 11.117188 -14.773438 11.921875 -14.386719 C 12.535156 -13.820312 12.894531 -13.484375 13.191406 -12.703125 C 13.203125 -11.503906 12.949219 -10.601562 12.5 -9.480469 L 27.9375 -9.480469 L 27.476562 -10.632812 C 27.386719 -11.332031 27.394531 -12.003906 27.476562 -12.703125 C 27.78125 -13.398438 28.0625 -13.761719 28.628906 -14.257812 C 29.324219 -14.6875 29.960938 -14.828125 30.761719 -14.875 C 31.414062 -14.871094 31.777344 -14.820312 32.34375 -14.492188 C 32.757812 -14.144531 33.128906 -13.8125 33.46875 -13.394531 C 33.683594 -12.761719 33.738281 -12.351562 33.746094 -11.695312 L 33.753906 -11.171875 C 33.691406 -10.546875 33.496094 -10.054688 33.238281 -9.480469 C 33.382812 -9.484375 33.527344 -9.484375 33.675781 -9.488281 C 34.328125 -9.496094 34.980469 -9.503906 35.632812 -9.511719 L 36.320312 -9.523438 L 36.976562 -9.527344 L 37.582031 -9.535156 L 38.078125 -9.480469 L 38.539062 -9.019531 C 38.46875 -8.429688 38.46875 -8.429688 38.308594 -7.871094 L 38.078125 -7.640625 C 37.621094 -7.617188 37.164062 -7.609375 36.707031 -7.609375 L 33.75 -7.609375 C 32.800781 -7.609375 31.847656 -7.609375 30.898438 -7.609375 C 29.902344 -7.609375 28.910156 -7.609375 27.917969 -7.609375 C 26.25 -7.609375 24.582031 -7.609375 22.910156 -7.609375 C 20.980469 -7.609375 19.046875 -7.609375 17.117188 -7.609375 C 15.460938 -7.609375 13.804688 -7.609375 12.148438 -7.609375 C 11.160156 -7.609375 10.167969 -7.609375 9.179688 -7.609375 C 8.246094 -7.609375 7.316406 -7.609375 6.386719 -7.609375 C 6.042969 -7.609375 5.703125 -7.609375 5.359375 -7.609375 C 4.894531 -7.609375 4.425781 -7.609375 3.960938 -7.609375 L 3.171875 -7.609375 L 2.589844 -7.640625 L 2.359375 -7.871094 C 2.347656 -8.332031 2.347656 -8.789062 2.359375 -9.25 C 2.898438 -9.519531 3.21875 -9.507812 3.820312 -9.503906 L 4.414062 -9.5 L 5.035156 -9.496094 L 5.664062 -9.492188 C 6.175781 -9.488281 6.6875 -9.484375 7.199219 -9.480469 L 6.851562 -10.230469 C 6.648438 -10.707031 6.507812 -11.078125 6.441406 -11.59375 C 6.527344 -12.304688 6.648438 -12.800781 7.046875 -13.398438 C 8.125 -14.691406 8.800781 -14.855469 10.476562 -14.839844 M 6.96875 66.46875 C 7.765625 66.835938 8.5 67.269531 9.253906 67.714844 C 9.953125 68.074219 10.421875 68.234375 11.203125 68.28125 C 12.324219 68.214844 13.210938 67.773438 14.199219 67.273438 C 15.550781 66.59375 16.652344 66.226562 18.199219 66.304688 C 19.238281 66.53125 20.113281 66.992188 21.035156 67.503906 C 21.8125 67.925781 22.425781 68.199219 23.316406 68.210938 C 24.632812 68.082031 25.695312 67.734375 26.800781 67.015625 C 27.71875 66.492188 28.480469 66.355469 29.539062 66.3125 C 30.394531 66.339844 31.023438 66.402344 31.804688 66.757812 C 32.183594 66.992188 32.554688 67.242188 32.917969 67.496094 C 33.800781 68.0625 34.765625 68.296875 35.773438 68.539062 C 35.78125 68.882812 35.785156 69.222656 35.789062 69.5625 L 35.796875 70.136719 L 35.773438 70.613281 L 35.542969 70.84375 C 35.074219 70.863281 34.605469 70.871094 34.136719 70.871094 L 33.6875 70.871094 C 33.183594 70.875 32.683594 70.871094 32.179688 70.871094 L 31.105469 70.875 C 30.128906 70.875 29.152344 70.875 28.175781 70.875 C 27.15625 70.871094 26.136719 70.875 25.117188 70.875 C 23.40625 70.875 21.695312 70.875 19.984375 70.871094 C 18 70.871094 16.019531 70.871094 14.035156 70.871094 C 12.335938 70.875 10.636719 70.875 8.941406 70.875 C 7.925781 70.871094 6.90625 70.871094 5.890625 70.875 C 4.9375 70.875 3.984375 70.875 3.027344 70.871094 C 2.675781 70.871094 2.324219 70.871094 1.972656 70.871094 C 1.496094 70.871094 1.015625 70.871094 0.539062 70.871094 L -0.273438 70.871094 L -0.867188 70.84375 L -1.097656 70.613281 C -1.164062 69.292969 -1.164062 69.292969 -1.097656 68.769531 C -0.5625 68.234375 -0.171875 68.121094 0.542969 67.878906 C 1.347656 67.601562 2.050781 67.3125 2.777344 66.871094 C 4.097656 66.203125 5.53125 66.230469 6.96875 66.46875 " fill-opacity="1" fill-rule="nonzero"/><path fill="#193049" d="M -74.386719 -15.003906 C -73.683594 -15.035156 -72.984375 -15.054688 -72.28125 -15.058594 L -71.636719 -15.066406 C -71.1875 -15.070312 -70.734375 -15.070312 -70.285156 -15.074219 C -69.597656 -15.078125 -68.90625 -15.085938 -68.21875 -15.097656 C -67.78125 -15.097656 -67.34375 -15.101562 -66.90625 -15.101562 L -66.28125 -15.113281 C -65.742188 -15.113281 -65.238281 -15.101562 -64.707031 -15.003906 C -64.183594 -14.550781 -64.183594 -14.550781 -63.785156 -14.085938 C -63.195312 -13.925781 -63.195312 -13.925781 -62.578125 -13.910156 L -61.953125 -13.871094 L -61.480469 -13.855469 C -61.378906 -13.0625 -61.285156 -12.273438 -61.195312 -11.480469 L -61.105469 -10.800781 L -61.03125 -10.144531 L -60.957031 -9.542969 L -61.019531 -9.019531 C -61.441406 -8.601562 -61.785156 -8.382812 -62.347656 -8.199219 C -62.996094 -8.074219 -63.613281 -8.066406 -64.273438 -8.058594 L -65.136719 -8.050781 C -65.445312 -8.046875 -65.753906 -8.046875 -66.066406 -8.046875 L -66.542969 -8.042969 C -67.371094 -8.039062 -68.203125 -8.035156 -69.035156 -8.03125 C -69.890625 -8.03125 -70.746094 -8.023438 -71.601562 -8.011719 C -72.261719 -8.007812 -72.921875 -8.003906 -73.582031 -8.003906 C -73.898438 -8.003906 -74.214844 -8 -74.527344 -7.996094 C -77.289062 -7.960938 -77.289062 -7.960938 -78.511719 -8.566406 C -78.75 -8.714844 -78.984375 -8.867188 -79.226562 -9.019531 L -79.226562 -9.25 L -77.613281 -9.25 L -77.613281 -13.855469 L -76.230469 -13.855469 L -76.230469 -12.703125 L -74.847656 -12.703125 C -74.828125 -12.921875 -74.828125 -12.921875 -74.804688 -13.148438 L -74.746094 -13.726562 C -74.730469 -13.914062 -74.710938 -14.105469 -74.691406 -14.300781 L -74.617188 -14.773438 Z M 6.277344 60.714844 C 7.269531 61.074219 8.097656 61.609375 8.925781 62.253906 C 9.507812 62.675781 9.867188 62.828125 10.582031 63.046875 C 11.714844 63.128906 12.660156 62.648438 13.675781 62.191406 C 14.226562 61.921875 14.757812 61.632812 15.292969 61.332031 C 16.171875 60.886719 16.949219 60.828125 17.925781 60.871094 C 19.378906 61.0625 20.492188 61.679688 21.660156 62.535156 C 22.433594 62.910156 23.171875 63.054688 24.023438 63.015625 C 24.699219 62.804688 25.292969 62.488281 25.910156 62.140625 C 26.222656 61.96875 26.539062 61.800781 26.855469 61.632812 L 27.300781 61.390625 C 27.972656 61.035156 28.585938 60.746094 29.347656 60.664062 C 30.183594 60.726562 30.773438 60.84375 31.492188 61.296875 C 31.875 61.582031 32.253906 61.871094 32.632812 62.160156 C 33.601562 62.792969 34.648438 63.023438 35.773438 63.246094 C 35.78125 63.585938 35.785156 63.929688 35.789062 64.269531 L 35.796875 64.84375 L 35.773438 65.316406 L 35.542969 65.546875 C 34.589844 65.652344 33.960938 65.652344 33.066406 65.292969 C 32.5 65.007812 31.945312 64.710938 31.394531 64.398438 L 31.394531 63.9375 C 30.445312 63.707031 29.605469 63.609375 28.628906 63.707031 C 28.027344 63.960938 27.460938 64.25 26.886719 64.5625 C 25.960938 65.050781 25.0625 65.402344 24.023438 65.546875 L 23.230469 65.664062 C 21.703125 65.664062 20.257812 64.65625 18.953125 63.9375 L 18.953125 63.476562 C 17.792969 63.394531 16.902344 63.351562 15.839844 63.867188 C 15.570312 64.039062 15.300781 64.21875 15.035156 64.398438 C 14.289062 64.894531 13.585938 65.28125 12.730469 65.546875 C 11.242188 65.628906 9.84375 65.578125 8.476562 64.957031 L 7.890625 64.628906 L 7.890625 64.167969 L 6.738281 63.9375 L 6.738281 63.476562 C 5.96875 63.390625 5.414062 63.351562 4.664062 63.476562 C 3.980469 63.835938 3.371094 64.242188 2.742188 64.691406 C 2.082031 65.117188 1.503906 65.351562 0.746094 65.546875 C -0.132812 65.476562 -0.132812 65.476562 -0.867188 65.316406 L -1.097656 65.089844 C -1.132812 64.472656 -1.109375 63.863281 -1.097656 63.246094 L -0.515625 63.09375 C 1.019531 62.664062 2.273438 62.191406 3.554688 61.238281 C 4.429688 60.625 5.242188 60.628906 6.277344 60.714844 " fill-opacity="1" fill-rule="nonzero"/></g><g clip-path="url(#78652f2f8a)"><path fill="#193049" d="M 96.617188 -11.550781 C 97.25 -11.574219 97.871094 -11.582031 98.503906 -11.582031 L 99.101562 -11.582031 C 99.757812 -11.585938 100.414062 -11.585938 101.070312 -11.582031 C 101.523438 -11.582031 101.976562 -11.582031 102.429688 -11.582031 C 103.382812 -11.585938 104.335938 -11.582031 105.289062 -11.582031 C 106.511719 -11.582031 107.734375 -11.582031 108.960938 -11.582031 C 109.898438 -11.585938 110.835938 -11.585938 111.773438 -11.582031 C 112.222656 -11.582031 112.675781 -11.582031 113.125 -11.582031 C 113.757812 -11.585938 114.386719 -11.582031 115.015625 -11.582031 L 115.585938 -11.582031 C 116.023438 -11.582031 116.460938 -11.570312 116.898438 -11.550781 L 117.128906 -11.324219 C 117.152344 -10.746094 117.160156 -10.175781 117.160156 -9.597656 L 117.160156 -9.105469 C 117.160156 -8.695312 117.144531 -8.28125 117.128906 -7.871094 L 116.898438 -7.640625 C 116.269531 -7.617188 115.644531 -7.609375 115.015625 -7.609375 L 114.417969 -7.609375 C 113.761719 -7.609375 113.105469 -7.609375 112.449219 -7.609375 C 111.996094 -7.609375 111.539062 -7.609375 111.085938 -7.609375 C 110.132812 -7.609375 109.183594 -7.609375 108.230469 -7.609375 C 107.007812 -7.609375 105.78125 -7.609375 104.558594 -7.609375 C 103.621094 -7.609375 102.683594 -7.609375 101.746094 -7.609375 C 101.292969 -7.609375 100.84375 -7.609375 100.390625 -7.609375 C 99.761719 -7.609375 99.132812 -7.609375 98.503906 -7.609375 L 97.929688 -7.609375 C 97.492188 -7.609375 97.054688 -7.625 96.617188 -7.640625 L 96.386719 -7.871094 C 96.363281 -8.449219 96.355469 -9.019531 96.359375 -9.597656 L 96.355469 -10.085938 C 96.355469 -10.5 96.371094 -10.910156 96.386719 -11.324219 Z M 10.421875 103.347656 C 10.988281 103.5625 11.234375 103.824219 11.628906 104.285156 L 12.03125 104.75 L 12.441406 105.234375 L 12.859375 105.71875 C 13.609375 106.597656 13.609375 106.597656 13.882812 106.976562 L 13.882812 107.4375 L 14.34375 107.4375 L 14.703125 107.882812 C 15.210938 108.375 15.210938 108.375 15.738281 108.5 C 16.316406 108.59375 16.753906 108.664062 17.339844 108.585938 C 18.355469 108.015625 19.089844 107.328125 19.859375 106.457031 L 20.453125 105.789062 L 21.027344 105.132812 L 21.53125 104.558594 C 21.902344 104.140625 22.273438 103.71875 22.640625 103.292969 C 24.074219 103.492188 25.203125 103.808594 26.417969 104.601562 C 26.785156 104.90625 26.785156 104.90625 27.246094 105.59375 C 27.21875 106.257812 27.21875 106.257812 27.015625 106.976562 C 26.5625 107.648438 26.167969 108.082031 25.476562 108.515625 C 22.109375 110.023438 18.160156 110.5 14.492188 110.144531 C 11.746094 109.855469 9.105469 109.542969 6.796875 107.910156 L 6.277344 107.4375 C 6.03125 106.644531 6.03125 106.644531 6.046875 105.824219 C 6.347656 105.222656 6.347656 105.222656 6.96875 104.675781 C 9.457031 103.234375 9.457031 103.234375 10.421875 103.347656 M 76.105469 95.007812 C 76.441406 94.996094 76.777344 94.984375 77.113281 94.980469 L 77.683594 94.964844 L 78.179688 95.007812 L 78.640625 95.46875 C 78.761719 96.136719 78.761719 96.136719 78.828125 96.933594 L 78.90625 97.730469 C 78.871094 98.460938 78.871094 98.460938 78.597656 98.996094 C 78.179688 99.382812 78.179688 99.382812 77.660156 99.570312 L 77.101562 99.667969 C 76.914062 99.703125 76.726562 99.738281 76.535156 99.773438 L 76.105469 99.839844 C 75.851562 100.53125 75.660156 101.171875 75.644531 101.914062 C 75.953125 102.363281 76.269531 102.632812 76.710938 102.953125 L 77.027344 103.292969 C 77.132812 103.832031 77.132812 103.832031 77.027344 104.445312 C 76.625 105.066406 76.625 105.066406 76.078125 105.679688 L 75.542969 106.304688 L 74.953125 106.746094 C 74.234375 106.726562 74.234375 106.726562 73.570312 106.515625 L 72.878906 106.054688 C 72 106.128906 71.347656 106.339844 70.574219 106.746094 L 70.59375 107.234375 L 70.605469 107.867188 L 70.621094 108.5 L 70.574219 109.046875 C 70.113281 109.507812 70.113281 109.507812 69.613281 109.652344 C 67.4375 110.070312 67.4375 110.070312 66.425781 109.96875 C 65.8125 109.355469 65.710938 108.738281 65.476562 107.917969 L 65.273438 107.4375 L 64.582031 106.976562 L 65.273438 104.445312 L 66.425781 104.214844 L 67.207031 104.574219 C 68.011719 104.960938 68.011719 104.960938 68.804688 104.847656 C 70.0625 104.394531 71.0625 103.328125 71.957031 102.371094 C 72.496094 101.664062 72.648438 101.246094 72.769531 100.355469 C 72.785156 100.042969 72.796875 99.734375 72.808594 99.425781 L 72.832031 98.941406 C 72.851562 98.550781 72.867188 98.160156 72.878906 97.769531 L 73.351562 97.632812 C 74.003906 97.414062 74.585938 97.191406 75.183594 96.847656 C 75.644531 96.246094 75.839844 95.730469 76.105469 95.007812 " fill-opacity="1" fill-rule="nonzero"/></g><g clip-path="url(#d4062df428)"><path fill="#0c2240" d="M 31.855469 14.222656 L 32.316406 14.222656 L 32.316406 30.105469 L 35.3125 30.105469 L 35.773438 30.335938 C 35.804688 31.660156 35.804688 31.660156 35.542969 32.175781 C 30.980469 32.183594 26.417969 32.1875 21.855469 32.1875 C 19.734375 32.1875 17.617188 32.191406 15.5 32.195312 C 13.652344 32.195312 11.804688 32.199219 9.960938 32.199219 C 8.980469 32.199219 8.003906 32.199219 7.027344 32.199219 C 6.105469 32.203125 5.1875 32.203125 4.265625 32.203125 C 3.929688 32.203125 3.589844 32.203125 3.25 32.203125 C 2.792969 32.203125 2.332031 32.203125 1.871094 32.203125 L 1.089844 32.203125 L 0.515625 32.175781 L 0.285156 31.945312 C 0.273438 31.410156 0.273438 30.871094 0.285156 30.335938 C 0.867188 30.042969 1.277344 30.082031 1.925781 30.089844 L 2.5625 30.097656 L 3.050781 30.105469 L 3.28125 30.566406 C 3.976562 30.714844 3.976562 30.714844 4.664062 30.796875 L 4.664062 31.253906 C 5.003906 31.191406 5.34375 31.125 5.683594 31.054688 L 6.261719 30.941406 L 6.738281 30.796875 L 6.96875 30.335938 C 7.773438 30.066406 8.40625 30.078125 9.261719 30.078125 L 9.75 30.078125 C 10.285156 30.078125 10.820312 30.082031 11.355469 30.082031 L 12.46875 30.082031 C 13.445312 30.085938 14.421875 30.085938 15.398438 30.089844 C 16.394531 30.089844 17.390625 30.09375 18.386719 30.09375 C 20.34375 30.097656 22.296875 30.101562 24.253906 30.105469 L 24.253906 30.566406 C 24.929688 31.035156 25.519531 31.328125 26.328125 31.484375 C 27.207031 31.542969 28.09375 31.539062 28.976562 31.542969 L 29.707031 31.558594 L 30.410156 31.5625 L 31.050781 31.566406 C 31.648438 31.527344 31.648438 31.527344 32.121094 31.136719 L 32.546875 30.796875 L 33.238281 30.796875 L 33.238281 30.335938 L 31.855469 30.335938 C 31.652344 29.453125 31.597656 28.636719 31.597656 27.730469 L 31.59375 26.855469 L 31.597656 25.917969 L 31.59375 24.949219 C 31.59375 24.277344 31.597656 23.601562 31.597656 22.929688 C 31.597656 22.0625 31.597656 21.199219 31.597656 20.335938 C 31.59375 19.667969 31.59375 19.003906 31.597656 18.339844 C 31.597656 18.019531 31.597656 17.703125 31.59375 17.382812 C 31.59375 16.9375 31.59375 16.496094 31.597656 16.050781 L 31.597656 15.28125 C 31.625 14.683594 31.625 14.683594 31.855469 14.222656 " fill-opacity="1" fill-rule="nonzero"/></g><path fill="#cf1b15" d="M 15.265625 7.320312 C 15.949219 7.574219 16.242188 7.84375 16.730469 8.40625 C 16.914062 8.652344 17.097656 8.898438 17.28125 9.148438 L 17.566406 9.523438 C 17.8125 9.851562 18.039062 10.195312 18.261719 10.542969 L 18.261719 11.234375 L 18.722656 11.234375 C 19.09375 11.664062 19.09375 11.664062 19.414062 12.152344 L 19.414062 12.613281 L 19.875 12.613281 L 19.875 13.535156 L 17.570312 13.535156 L 17.570312 18.136719 L 13.421875 18.136719 L 13.191406 13.535156 L 11.117188 13.535156 L 11.117188 12.613281 C 11.410156 12.136719 11.410156 12.136719 11.792969 11.664062 C 12.3125 11.019531 12.3125 11.019531 12.730469 10.3125 L 13.191406 10.3125 L 13.367188 9.917969 C 13.6875 9.324219 14.066406 8.828125 14.484375 8.296875 L 14.925781 7.742188 Z M 15.265625 7.320312 " fill-opacity="1" fill-rule="nonzero"/><g clip-path="url(#75a8d5cd27)"><path fill="#0c2240" d="M 80.714844 -9.941406 C 81.253906 -9.949219 81.792969 -9.949219 82.328125 -9.941406 L 82.558594 -9.710938 C 82.570312 -9.175781 82.570312 -8.636719 82.558594 -8.101562 C 81.949219 -7.796875 81.496094 -7.839844 80.8125 -7.839844 L 79.984375 -7.835938 L 78.113281 -7.835938 C 77.242188 -7.832031 76.375 -7.832031 75.503906 -7.832031 C 74.78125 -7.832031 74.054688 -7.832031 73.332031 -7.828125 C 71.625 -7.828125 69.914062 -7.828125 68.207031 -7.828125 C 66.441406 -7.828125 64.675781 -7.824219 62.910156 -7.820312 C 61.398438 -7.820312 59.882812 -7.816406 58.371094 -7.816406 C 57.464844 -7.816406 56.5625 -7.816406 55.65625 -7.816406 C 54.804688 -7.8125 53.957031 -7.8125 53.105469 -7.8125 C 52.640625 -7.8125 52.179688 -7.8125 51.71875 -7.808594 L 50.890625 -7.8125 L 50.167969 -7.8125 L 49.601562 -7.871094 L 49.140625 -8.332031 C 49.113281 -9.050781 49.113281 -9.050781 49.140625 -9.710938 L 49.601562 -9.25 L 49.601562 -8.5625 L 81.636719 -8.789062 L 81.867188 -9.710938 L 80.714844 -9.710938 Z M -79.917969 85.800781 C -79.535156 85.792969 -79.152344 85.792969 -78.765625 85.800781 L -78.765625 86.492188 L -78.304688 86.492188 L -78.261719 86.964844 L -78.203125 87.585938 C -78.1875 87.789062 -78.167969 87.992188 -78.148438 88.199219 C -78.085938 88.714844 -77.984375 89.21875 -77.84375 89.714844 L -77.371094 89.773438 C -76.492188 89.996094 -75.851562 90.394531 -75.078125 90.867188 C -75.394531 91.210938 -75.394531 91.210938 -75.769531 91.554688 L -76.230469 91.554688 L -75.769531 92.476562 C -76.585938 92.238281 -77.226562 91.972656 -77.917969 91.484375 C -78.3125 91.222656 -78.3125 91.222656 -78.765625 91.09375 C -79.816406 91.246094 -80.65625 91.664062 -81.53125 92.246094 C -82.007812 92.1875 -82.007812 92.1875 -82.453125 92.015625 L -82.914062 91.554688 C -82.871094 91.09375 -82.871094 91.09375 -82.683594 90.636719 L -81.992188 90.175781 L -81.300781 90.175781 L -81.300781 89.484375 L -81.964844 89.328125 L -82.683594 89.023438 C -83 88.417969 -83 88.417969 -83.144531 87.875 L -82.683594 87.414062 C -81.722656 87.484375 -80.992188 87.652344 -80.148438 88.101562 L -80.15625 87.660156 L -80.164062 87.082031 L -80.171875 86.507812 L -80.148438 86.03125 Z M -68.625 85.800781 C -68.050781 85.773438 -68.050781 85.773438 -67.472656 85.800781 L -67.242188 86.03125 C -67.226562 86.382812 -67.222656 86.730469 -67.230469 87.082031 L -67.234375 87.660156 L -67.242188 88.101562 L -66.871094 87.894531 L -66.378906 87.628906 L -65.894531 87.363281 C -65.398438 87.183594 -65.398438 87.183594 -64.878906 87.269531 L -64.476562 87.414062 L -64.246094 88.5625 C -65.460938 89.28125 -65.460938 89.28125 -65.859375 89.484375 L -66.320312 89.484375 L -66.320312 89.945312 L -65.789062 90.144531 C -65.167969 90.40625 -65.167969 90.40625 -64.476562 90.867188 C -64.535156 91.296875 -64.535156 91.296875 -64.707031 91.785156 C -65.109375 92.082031 -65.109375 92.082031 -65.628906 92.246094 C -66.191406 92.03125 -66.191406 92.03125 -66.78125 91.683594 C -67.355469 91.335938 -67.355469 91.335938 -67.933594 91.09375 C -68.792969 91.160156 -69.542969 91.644531 -70.296875 92.03125 L -71.050781 92.414062 L -71.621094 92.707031 L -72.082031 92.246094 L -71.390625 91.554688 L -71.851562 90.636719 L -71.371094 90.445312 C -70.660156 90.105469 -70.128906 89.796875 -69.546875 89.253906 C -69.152344 88.195312 -69.007812 87.148438 -68.855469 86.03125 Z M 36.234375 -9.480469 C 36.667969 -9.542969 36.667969 -9.542969 37.15625 -9.539062 L 37.648438 -9.542969 L 38.078125 -9.480469 L 38.539062 -9.019531 C 38.46875 -8.429688 38.46875 -8.429688 38.308594 -7.871094 L 38.078125 -7.640625 C 37.621094 -7.617188 37.164062 -7.609375 36.707031 -7.609375 L 33.75 -7.609375 C 32.800781 -7.609375 31.847656 -7.609375 30.898438 -7.609375 C 29.902344 -7.609375 28.910156 -7.609375 27.917969 -7.609375 C 26.25 -7.609375 24.582031 -7.609375 22.910156 -7.609375 C 20.980469 -7.609375 19.046875 -7.609375 17.117188 -7.609375 C 15.460938 -7.609375 13.804688 -7.609375 12.148438 -7.609375 C 11.160156 -7.609375 10.167969 -7.609375 9.179688 -7.609375 C 8.246094 -7.609375 7.316406 -7.609375 6.386719 -7.609375 C 6.042969 -7.609375 5.703125 -7.609375 5.359375 -7.609375 C 4.894531 -7.609375 4.425781 -7.609375 3.960938 -7.609375 L 3.171875 -7.609375 L 2.589844 -7.640625 L 2.359375 -7.871094 C 2.347656 -8.332031 2.347656 -8.789062 2.359375 -9.25 C 3.03125 -9.003906 3.457031 -8.84375 3.972656 -8.332031 C 4.511719 -8.261719 4.511719 -8.261719 5.144531 -8.273438 L 5.898438 -8.269531 L 6.730469 -8.273438 L 7.601562 -8.273438 C 8.394531 -8.273438 9.183594 -8.273438 9.976562 -8.277344 C 10.804688 -8.277344 11.636719 -8.277344 12.464844 -8.277344 C 13.863281 -8.277344 15.257812 -8.28125 16.65625 -8.28125 C 18.261719 -8.285156 19.871094 -8.289062 21.480469 -8.289062 C 23.195312 -8.289062 24.914062 -8.289062 26.628906 -8.292969 C 27.121094 -8.292969 27.613281 -8.292969 28.105469 -8.292969 C 29.027344 -8.292969 29.953125 -8.292969 30.875 -8.296875 L 31.691406 -8.296875 C 33.371094 -8.304688 35.027344 -8.394531 36.695312 -8.5625 L 35.773438 -9.019531 Z M 36.234375 -9.480469 " fill-opacity="1" fill-rule="nonzero"/></g><g clip-path="url(#1ac89b8caa)"><path fill="#0c2240" d="M 93.160156 21.820312 L 93.390625 22.28125 L 93.160156 23.042969 C 92.796875 24.398438 92.945312 25.738281 93.160156 27.113281 C 93.382812 27.90625 93.671875 28.53125 94.242188 29.140625 L 94.542969 29.414062 L 94.542969 29.875 L 96.386719 30.796875 L 96.386719 31.253906 L 96.902344 31.347656 C 97.476562 31.472656 97.996094 31.636719 98.546875 31.832031 C 100.109375 32.304688 101.679688 32.351562 103.300781 32.40625 L 104.078125 32.433594 C 107.820312 32.507812 111.136719 31.703125 114.460938 29.996094 C 115.179688 29.570312 115.660156 29.113281 116.207031 28.492188 L 116.667969 28.492188 L 116.871094 27.992188 C 117.023438 27.601562 117.191406 27.21875 117.375 26.839844 C 117.699219 25.871094 117.839844 24.914062 117.820312 23.890625 C 117.539062 23.113281 117.539062 23.113281 117.128906 22.511719 L 116.898438 21.820312 L 117.589844 22.050781 C 118.175781 22.851562 118.484375 23.6875 118.613281 24.667969 C 118.449219 26.023438 118.21875 27.210938 117.445312 28.363281 C 115.910156 30.203125 114.042969 31.15625 111.84375 32.003906 L 111.402344 32.175781 C 107.90625 33.457031 103.816406 33.464844 100.15625 33.023438 C 98.140625 32.664062 96.324219 31.898438 94.734375 30.625 C 93.71875 29.699219 93.074219 28.789062 92.628906 27.488281 C 92.292969 26.203125 92.109375 25.003906 92.375 23.6875 C 92.8125 22.167969 92.8125 22.167969 93.160156 21.820312 M 4.78125 54.578125 C 5.660156 54.546875 6.199219 54.695312 6.996094 55.078125 L 7.429688 55.652344 C 7.453125 56.3125 7.339844 56.835938 7.199219 57.492188 L 6.664062 57.386719 C 5.894531 57.269531 5.210938 57.207031 4.433594 57.261719 C 3.789062 57.609375 3.3125 57.996094 2.78125 58.492188 C 2.359375 58.875 2.359375 58.875 1.667969 59.105469 C 1.230469 59.121094 0.792969 59.125 0.355469 59.117188 L -0.339844 59.113281 L -0.867188 59.105469 C -1.070312 57.6875 -1.070312 57.6875 -1.097656 57.261719 L -0.867188 57.03125 C -0.496094 56.988281 -0.121094 56.945312 0.253906 56.902344 C 1.402344 56.714844 2.058594 56.347656 2.960938 55.625 C 4.046875 54.773438 4.046875 54.773438 4.78125 54.578125 M 29.539062 54.617188 C 30.480469 54.769531 31.308594 55.097656 32.085938 55.652344 L 32.316406 56.34375 C 32.726562 56.496094 32.726562 56.496094 33.238281 56.574219 C 33.675781 56.6875 34.113281 56.800781 34.550781 56.917969 L 35.230469 57.097656 C 35.773438 57.261719 35.773438 57.261719 36.003906 57.492188 C 36.035156 58.070312 36.035156 58.070312 36.003906 58.644531 L 35.773438 58.875 C 34.886719 59.082031 34.042969 59.191406 33.152344 58.964844 C 32.714844 58.796875 32.285156 58.609375 31.855469 58.414062 L 31.855469 57.953125 L 31.441406 57.867188 C 30.933594 57.722656 30.933594 57.722656 30.242188 57.261719 C 29.46875 57.195312 28.933594 57.238281 28.199219 57.492188 L 27.707031 57.722656 L 27.246094 55.652344 C 28.625 54.769531 28.625 54.769531 29.539062 54.617188 " fill-opacity="1" fill-rule="nonzero"/></g><g clip-path="url(#8db4039829)"><path fill="#0c2240" d="M 26.785156 -22.371094 C 27.441406 -22.144531 27.890625 -21.957031 28.390625 -21.472656 C 29.421875 -20.761719 30.515625 -20.574219 31.726562 -20.296875 C 32.226562 -20.179688 32.722656 -20.0625 33.222656 -19.941406 L 33.949219 -19.769531 C 34.808594 -19.5625 35.660156 -19.339844 36.511719 -19.105469 L 37.226562 -18.90625 C 37.890625 -18.671875 38.429688 -18.402344 39 -17.996094 C 39.1875 -17.378906 39.1875 -17.378906 39.230469 -16.847656 L 38.671875 -16.960938 C 38.144531 -17.082031 38.144531 -17.082031 37.847656 -17.078125 L 37.617188 -16.617188 L 37.386719 -16.847656 C 36.613281 -16.910156 35.839844 -16.949219 35.0625 -16.988281 L 34.390625 -17.078125 L 34.160156 -17.535156 L 35.082031 -17.765625 L 35.082031 -18.226562 L 34.621094 -18.457031 L 34.390625 -18.917969 C 33.917969 -19.09375 33.4375 -19.25 32.953125 -19.390625 L 32.15625 -19.628906 C 31.519531 -19.804688 30.890625 -19.941406 30.242188 -20.066406 C 28.964844 -20.417969 28.058594 -20.957031 27.074219 -21.839844 L 26.785156 -22.140625 Z M -1.328125 -23.980469 C -0.867188 -24 -0.40625 -24.003906 0.0546875 -24.003906 L 0.902344 -24 L 2.691406 -23.992188 C 3.425781 -23.988281 4.160156 -23.984375 4.894531 -23.980469 L 4.894531 -22.371094 L -1.328125 -22.371094 L -1.558594 -23.75 Z M -54.105469 54.730469 C -53.617188 54.71875 -53.128906 54.710938 -52.636719 54.703125 L -51.8125 54.6875 L -51.109375 54.730469 L -50.648438 55.191406 C -50.609375 55.757812 -50.589844 56.324219 -50.597656 56.890625 L -50.597656 57.398438 C -50.597656 57.75 -50.597656 58.105469 -50.601562 58.457031 C -50.605469 59.003906 -50.605469 59.546875 -50.605469 60.089844 C -50.609375 60.433594 -50.609375 60.777344 -50.609375 61.117188 L -50.613281 61.613281 C -50.617188 62.003906 -50.628906 62.394531 -50.648438 62.785156 L -50.878906 63.015625 C -51.460938 63.070312 -52.039062 63.113281 -52.621094 63.144531 L -53.121094 63.175781 C -53.523438 63.199219 -53.929688 63.222656 -54.335938 63.246094 L -54.566406 62.554688 C -53.707031 62.425781 -52.90625 62.328125 -52.03125 62.328125 C -51.375 58.859375 -51.375 58.859375 -51.800781 55.421875 L -54.105469 54.960938 Z M -70.46875 89.945312 C -69.921875 90.132812 -69.921875 90.132812 -69.546875 90.40625 L -69.546875 90.636719 L -68.925781 90.476562 L -68.109375 90.277344 L -67.296875 90.074219 C -66.550781 89.945312 -66.550781 89.945312 -66.035156 90.015625 C -65.472656 90.238281 -64.984375 90.542969 -64.476562 90.867188 C -64.535156 91.296875 -64.535156 91.296875 -64.707031 91.785156 C -65.109375 92.082031 -65.109375 92.082031 -65.628906 92.246094 C -66.191406 92.03125 -66.191406 92.03125 -66.78125 91.683594 C -67.355469 91.335938 -67.355469 91.335938 -67.933594 91.09375 C -68.792969 91.160156 -69.542969 91.644531 -70.296875 92.03125 L -71.050781 92.414062 L -71.621094 92.707031 L -72.082031 92.246094 L -71.390625 91.554688 L -71.851562 90.636719 C -71.21875 90.261719 -71.21875 90.261719 -70.46875 89.945312 " fill-opacity="1" fill-rule="nonzero"/></g><g clip-path="url(#91503cb378)"><path fill="#0c2240" d="M 68.5 -32.726562 L 68.960938 -32.265625 C 67.25 -30.816406 65.472656 -29.476562 63.660156 -28.15625 L 63.121094 -27.761719 L 62.585938 -27.375 C 61.84375 -26.820312 61.128906 -26.230469 60.417969 -25.636719 L 59.972656 -25.363281 L 59.28125 -25.59375 C 60.214844 -26.402344 61.164062 -27.199219 62.121094 -27.980469 L 62.707031 -28.460938 L 63.199219 -28.8125 L 63.660156 -28.8125 L 63.660156 -29.273438 C 64.007812 -29.570312 64.007812 -29.570312 64.488281 -29.898438 L 65.007812 -30.261719 L 65.5625 -30.640625 L 66.632812 -31.378906 L 67.117188 -31.710938 C 67.582031 -32.042969 68.046875 -32.378906 68.5 -32.726562 M 13.191406 23.429688 L 13.652344 23.429688 C 13.664062 23.953125 13.671875 24.476562 13.679688 25 L 13.695312 25.878906 L 13.652344 26.652344 L 13.191406 27.34375 C 12.585938 27.421875 12.585938 27.421875 11.832031 27.410156 L 11.019531 27.402344 L 10.164062 27.386719 L 9.304688 27.375 C 8.601562 27.367188 7.898438 27.359375 7.199219 27.34375 L 6.96875 26.882812 C 7.632812 26.660156 8.042969 26.625 8.734375 26.628906 L 9.359375 26.632812 L 10.007812 26.636719 L 10.664062 26.640625 C 11.199219 26.644531 11.734375 26.648438 12.269531 26.652344 L 12.269531 26.191406 L 12.730469 25.960938 C 12.886719 25.367188 12.886719 25.367188 12.988281 24.683594 L 13.105469 23.976562 Z M 13.191406 23.429688 " fill-opacity="1" fill-rule="nonzero"/></g><g clip-path="url(#34fed958af)"><path fill="#0c2240" d="M 75.644531 102.371094 C 76.214844 102.636719 76.578125 102.84375 77.027344 103.292969 C 77.117188 103.820312 77.117188 103.820312 77.027344 104.445312 C 76.625 105.066406 76.625 105.066406 76.078125 105.679688 C 75.902344 105.886719 75.726562 106.09375 75.542969 106.304688 L 74.953125 106.746094 C 74.234375 106.726562 74.234375 106.726562 73.570312 106.515625 L 72.878906 106.054688 C 71.90625 106.140625 71.03125 106.417969 70.113281 106.746094 L 70.113281 106.054688 C 70.796875 105.761719 71.460938 105.515625 72.1875 105.363281 C 72.703125 105.4375 72.703125 105.4375 73.183594 105.582031 L 74.03125 105.824219 C 74.558594 105.648438 74.558594 105.648438 74.953125 105.363281 L 75.644531 105.363281 L 75.746094 104.933594 C 75.875 104.445312 75.875 104.445312 76.105469 103.984375 C 75.96875 103.441406 75.8125 102.90625 75.644531 102.371094 M 65.042969 105.59375 C 65.457031 106.214844 65.710938 106.75 65.980469 107.4375 L 66.21875 108.039062 C 66.375 108.449219 66.519531 108.863281 66.65625 109.277344 C 67.03125 109.246094 67.40625 109.210938 67.78125 109.175781 L 68.414062 109.121094 C 68.964844 109.078125 68.964844 109.078125 69.421875 108.816406 C 69.582031 108.382812 69.582031 108.382812 69.683594 107.882812 L 69.800781 107.371094 L 69.882812 106.976562 L 70.34375 106.976562 C 70.394531 107.3125 70.445312 107.648438 70.488281 107.984375 L 70.570312 108.550781 L 70.574219 109.046875 C 70.113281 109.507812 70.113281 109.507812 69.613281 109.652344 C 67.4375 110.070312 67.4375 110.070312 66.425781 109.96875 C 65.8125 109.355469 65.710938 108.738281 65.476562 107.917969 L 65.273438 107.4375 L 64.582031 106.976562 Z M 12.5 -9.480469 L 27.707031 -9.480469 L 27.707031 -9.25 L 21.949219 -9.019531 L 21.949219 -8.5625 L 21.027344 -8.789062 L 21.027344 -9.25 L 20.785156 -8.910156 L 20.335938 -8.5625 C 19.5625 -8.492188 19.5625 -8.492188 18.675781 -8.515625 L 17.789062 -8.535156 L 17.109375 -8.5625 L 17.109375 -9.019531 L 12.5 -9.25 Z M 70.113281 89.714844 L 70.574219 89.714844 L 70.792969 90.277344 L 71.265625 90.867188 C 71.917969 90.988281 72.542969 91.023438 73.203125 91.039062 C 73.800781 91.09375 73.800781 91.09375 74.492188 91.554688 C 74.558594 92.226562 74.578125 92.84375 74.566406 93.511719 L 74.566406 94.058594 C 74.5625 94.53125 74.53125 95 74.492188 95.46875 L 74.03125 95.929688 C 73.484375 96.023438 73.484375 96.023438 72.851562 96.074219 L 72.214844 96.125 L 71.726562 96.160156 L 71.496094 95.699219 L 73.570312 95.46875 C 73.621094 94.945312 73.671875 94.421875 73.714844 93.902344 L 73.796875 93.019531 L 73.800781 92.246094 L 73.339844 91.554688 C 72.75 91.464844 72.75 91.464844 72.089844 91.46875 C 71.398438 91.425781 71.398438 91.425781 70.804688 91.324219 C 70.300781 90.765625 70.300781 90.765625 70.113281 90.175781 Z M 113.902344 64.398438 L 114.363281 64.398438 C 114.855469 64.945312 114.855469 64.945312 115.285156 65.546875 L 115.285156 66.007812 L 115.746094 66.007812 C 115.808594 66.632812 115.808594 66.632812 115.746094 67.390625 C 115.332031 67.960938 115.332031 67.960938 114.78125 68.484375 L 114.238281 69.011719 C 113.671875 69.464844 113.21875 69.726562 112.519531 69.921875 C 111.929688 69.648438 111.929688 69.648438 111.367188 69.230469 L 110.878906 68.871094 C 110.734375 68.761719 110.59375 68.652344 110.445312 68.539062 L 109.753906 68.082031 L 111.136719 68.082031 L 111.136719 68.539062 C 111.820312 68.710938 112.292969 68.816406 112.980469 68.769531 C 113.726562 68.429688 114.289062 68.007812 114.824219 67.390625 C 115.054688 66.6875 115.054688 66.6875 114.824219 66.007812 C 114.382812 65.378906 114.382812 65.378906 113.902344 64.859375 Z M 67.808594 24.121094 L 68.730469 24.582031 C 68.632812 25.113281 68.632812 25.113281 68.269531 25.730469 C 67.15625 26.421875 65.847656 26.488281 64.570312 26.539062 C 62.625 26.503906 60.839844 26.019531 59.050781 25.273438 L 58.820312 24.8125 C 59.859375 24.90625 60.761719 25.058594 61.746094 25.402344 C 63.136719 25.839844 64.519531 25.875 65.964844 25.730469 C 66.714844 25.558594 66.714844 25.558594 67.347656 25.273438 C 67.679688 24.695312 67.679688 24.695312 67.808594 24.121094 M 20.566406 19.976562 L 21.027344 19.976562 C 21.039062 20.347656 21.046875 20.714844 21.054688 21.085938 L 21.070312 21.710938 C 21.027344 22.28125 21.027344 22.28125 20.566406 22.96875 C 19.878906 23.046875 19.878906 23.046875 19.007812 23.039062 L 18.542969 23.035156 C 18.054688 23.03125 17.566406 23.023438 17.078125 23.011719 C 16.746094 23.011719 16.417969 23.007812 16.085938 23.003906 C 15.273438 22.996094 14.460938 22.984375 13.652344 22.96875 L 13.421875 22.511719 C 15.195312 22.328125 16.929688 22.269531 18.714844 22.339844 C 19.410156 22.328125 19.410156 22.328125 19.957031 21.984375 L 20.335938 21.589844 C 20.519531 20.757812 20.519531 20.757812 20.566406 19.976562 " fill-opacity="1" fill-rule="nonzero"/></g><path fill="#fefefe" d="M 27.9375 9.390625 C 28.457031 9.449219 28.457031 9.449219 28.859375 9.621094 L 28.859375 10.082031 L 29.550781 10.3125 C 29.828125 10.902344 29.828125 10.902344 30.011719 11.460938 C 28.996094 11.71875 28.0625 11.726562 27.015625 11.691406 L 26.554688 11.460938 C 26.777344 10.796875 27.011719 10.316406 27.449219 9.765625 Z M 27.9375 9.390625 " fill-opacity="1" fill-rule="nonzero"/><g clip-path="url(#dcf8777630)"><path fill="#0c2240" d="M 33.929688 68.082031 L 35.773438 68.539062 C 35.78125 68.882812 35.785156 69.222656 35.789062 69.5625 L 35.796875 70.136719 L 35.773438 70.613281 L 35.542969 70.84375 C 35.203125 70.859375 34.859375 70.867188 34.515625 70.863281 L 33.886719 70.863281 L 33.226562 70.855469 L 32.5625 70.851562 C 32.019531 70.851562 31.476562 70.847656 30.933594 70.84375 L 30.703125 70.382812 L 34.621094 70.152344 L 34.851562 68.769531 L 33.929688 68.308594 Z M -55.257812 93.398438 C -54.710938 93.328125 -54.710938 93.328125 -54.078125 93.355469 L -53.441406 93.371094 L -52.953125 93.398438 L -52.722656 95.007812 C -53.703125 95.273438 -54.496094 95.183594 -55.488281 95.007812 C -55.632812 94.589844 -55.632812 94.589844 -55.71875 94.085938 Z M -55.257812 86.953125 C -54.660156 86.886719 -54.660156 86.886719 -53.960938 86.910156 L -53.261719 86.929688 L -52.722656 86.953125 L -52.722656 88.5625 L -55.488281 88.5625 L -55.71875 87.644531 Z M -33.824219 66.929688 L -31.75 68.082031 L -31.75 68.539062 C -29.246094 69.4375 -26.773438 69.617188 -24.144531 69.230469 L -24.375 69.691406 C -25.886719 70.175781 -27.308594 70.359375 -28.875 70.027344 C -30.765625 69.5 -32.394531 68.746094 -33.824219 67.390625 Z M -2.710938 -15.695312 C -2.332031 -15.71875 -1.953125 -15.726562 -1.574219 -15.722656 L -0.949219 -15.726562 C -0.40625 -15.695312 -0.40625 -15.695312 0.0546875 -15.464844 C 0.0625 -15.082031 0.0625 -14.699219 0.0546875 -14.316406 L -0.175781 -14.085938 C -0.554688 -14.0625 -0.9375 -14.054688 -1.316406 -14.054688 L -1.941406 -14.054688 C -2.480469 -14.085938 -2.480469 -14.085938 -2.941406 -14.316406 C -2.953125 -14.699219 -2.953125 -15.082031 -2.941406 -15.464844 Z M -2.710938 -15.695312 " fill-opacity="1" fill-rule="nonzero"/><path fill="#0c2240" d="M 6.96875 104.675781 L 7.429688 104.90625 L 7.066406 105.277344 C 6.679688 105.816406 6.679688 105.816406 6.722656 106.515625 C 6.917969 107.242188 6.917969 107.242188 7.527344 107.710938 C 8.394531 108.148438 9.214844 108.402344 10.152344 108.632812 L 10.65625 108.816406 L 11.117188 109.507812 C 9.464844 109.367188 8.148438 108.792969 6.738281 107.941406 C 6.277344 107.4375 6.277344 107.4375 6.03125 106.644531 L 6.046875 105.824219 C 6.492188 105.148438 6.492188 105.148438 6.96875 104.675781 M 9.734375 -23.75 L 10.425781 -23.75 C 10.191406 -23.121094 9.945312 -22.570312 9.589844 -21.996094 L 9.273438 -21.449219 L 9.273438 -20.757812 C 9.878906 -20.457031 10.359375 -20.480469 11.039062 -20.457031 L 11.820312 -20.425781 L 12.640625 -20.398438 L 13.46875 -20.367188 C 14.144531 -20.34375 14.820312 -20.320312 15.496094 -20.296875 L 15.496094 -20.066406 C 14.515625 -20.054688 13.535156 -20.046875 12.554688 -20.039062 L 11.714844 -20.027344 L 10.902344 -20.023438 L 10.15625 -20.015625 C 9.507812 -20.066406 9.132812 -20.191406 8.582031 -20.527344 C 8.652344 -21.589844 8.734375 -22.226562 9.242188 -23.175781 Z M 70.804688 100.070312 L 71.496094 100.070312 C 71.449219 100.570312 71.449219 100.570312 71.265625 101.222656 C 70.796875 101.847656 70.796875 101.847656 70.203125 102.460938 L 69.617188 103.082031 C 69.398438 103.230469 69.183594 103.375 68.960938 103.523438 C 68.128906 103.511719 68.128906 103.511719 67.347656 103.292969 C 66.800781 102.964844 66.433594 102.589844 65.964844 102.144531 C 66.65625 102.144531 66.65625 102.144531 67.335938 102.515625 L 68.039062 102.832031 C 68.53125 102.742188 68.53125 102.742188 68.960938 102.371094 L 69.683594 101.839844 C 70.367188 101.277344 70.367188 101.277344 70.664062 100.574219 Z M 62.277344 87.183594 C 63.679688 87.597656 64.8125 88.246094 65.878906 89.238281 C 66.453125 89.855469 66.652344 90.152344 66.886719 90.980469 L 66.886719 91.554688 L 66.5 91.066406 L 65.964844 90.40625 L 65.433594 89.699219 C 64.65625 88.851562 63.886719 88.328125 62.78125 87.964844 C 62.125 87.84375 61.503906 87.851562 60.839844 87.859375 L 60.085938 87.863281 L 59.511719 87.875 L 59.28125 87.414062 C 60.300781 87.074219 61.214844 87.054688 62.277344 87.183594 M 58.820312 104.90625 L 59.050781 105.363281 C 59.679688 105.4375 60.28125 105.484375 60.910156 105.507812 L 61.441406 105.535156 C 61.875 105.558594 62.308594 105.578125 62.738281 105.59375 L 62.96875 104.90625 L 63.660156 105.132812 L 63.660156 106.054688 C 62.101562 106.332031 60.34375 106.5625 58.820312 106.054688 Z M 75.183594 25.960938 L 75.644531 25.960938 C 75.523438 27.1875 75.152344 28.15625 74.492188 29.183594 C 73.632812 30.230469 72.765625 30.960938 71.496094 31.484375 L 71.496094 30.796875 C 71.859375 30.484375 71.859375 30.484375 72.347656 30.164062 C 73.289062 29.488281 73.9375 28.816406 74.492188 27.804688 C 74.757812 27.195312 74.976562 26.59375 75.183594 25.960938 M 59.050781 16.527344 L 59.742188 16.757812 L 59.742188 17.214844 L 60.132812 17.394531 C 60.949219 17.824219 61.664062 18.386719 62.410156 18.929688 C 62.925781 19.257812 63.292969 19.417969 63.890625 19.519531 L 63.890625 19.976562 L 64.328125 20.105469 L 64.902344 20.28125 L 65.46875 20.449219 L 65.964844 20.667969 L 66.425781 21.359375 C 63.753906 20.527344 61.410156 19.1875 59.34375 17.3125 L 59.050781 16.984375 Z M -75.308594 98.921875 L -74.847656 99.152344 C -75.164062 99.609375 -75.164062 99.609375 -75.539062 100.070312 L -76 100.070312 L -76 100.761719 L -74.617188 100.53125 L -74.617188 100.992188 C -75.238281 101.351562 -75.238281 101.351562 -76 101.683594 C -76.664062 101.609375 -76.664062 101.609375 -77.152344 101.453125 L -77.382812 100.53125 Z M 67.578125 83.960938 C 68.3125 84.019531 68.757812 84.207031 69.398438 84.574219 L 70.070312 85.054688 L 70.753906 85.523438 L 71.265625 86.03125 C 71.378906 86.628906 71.378906 86.628906 71.265625 87.183594 C 70.691406 87.832031 70.691406 87.832031 70.113281 88.332031 L 69.882812 87.875 L 70.113281 87.457031 C 70.386719 86.957031 70.386719 86.957031 70.34375 86.378906 C 70.144531 85.75 70.144531 85.75 69.523438 85.285156 C 68.589844 84.808594 67.925781 84.722656 66.886719 84.652344 C 67.160156 84.292969 67.160156 84.292969 67.578125 83.960938 M 94.773438 66.238281 L 95.070312 66.640625 C 95.457031 67.144531 95.847656 67.636719 96.257812 68.125 L 96.660156 68.609375 C 97.050781 69.023438 97.050781 69.023438 97.554688 69.191406 L 98 69.230469 C 98.625 68.949219 98.625 68.949219 99.152344 68.539062 L 99.382812 68.082031 L 100.074219 68.082031 C 99.929688 68.484375 99.929688 68.484375 99.613281 69 C 98.964844 69.53125 98.964844 69.53125 98.230469 69.921875 C 97.683594 69.898438 97.683594 69.898438 97.078125 69.691406 C 96.472656 69.199219 96.472656 69.199219 95.871094 68.582031 L 95.261719 67.976562 C 94.773438 67.390625 94.773438 67.390625 94.578125 66.867188 L 94.542969 66.46875 Z M 94.773438 66.238281 " fill-opacity="1" fill-rule="nonzero"/><path fill="#0c2240" d="M -31.980469 83.730469 C -31.460938 83.789062 -31.460938 83.789062 -30.828125 83.960938 C -29.351562 85.183594 -28.441406 86.867188 -27.601562 88.5625 C -28.023438 88.402344 -28.023438 88.402344 -28.523438 88.101562 C -28.867188 87.605469 -28.867188 87.605469 -29.1875 87.011719 C -29.785156 85.964844 -30.378906 85.210938 -31.289062 84.421875 L -31.980469 84.191406 Z M 63.199219 12.382812 C 63.761719 12.441406 64.3125 12.511719 64.871094 12.597656 C 65.941406 12.757812 66.957031 12.871094 68.039062 12.84375 L 68.039062 13.304688 C 66.257812 13.328125 64.511719 13.296875 62.738281 13.074219 L 62.738281 13.535156 L 62.046875 13.304688 C 62.425781 12.910156 62.710938 12.628906 63.199219 12.382812 M -31.058594 -12.472656 L -30.253906 -12.359375 C -28.609375 -12.171875 -26.953125 -12.226562 -25.296875 -12.242188 C -25.523438 -11.902344 -25.523438 -11.902344 -25.988281 -11.550781 C -26.632812 -11.488281 -27.273438 -11.464844 -27.917969 -11.480469 L -28.449219 -11.476562 C -29.417969 -11.488281 -30.171875 -11.570312 -31.058594 -12.011719 Z M -78.765625 97.769531 L -78.304688 97.769531 C -78.285156 98.304688 -78.289062 98.84375 -78.304688 99.382812 L -78.765625 100.070312 C -79.152344 100.003906 -79.535156 99.925781 -79.917969 99.839844 L -80.148438 99.609375 C -80.160156 99.226562 -80.160156 98.84375 -80.148438 98.460938 L -78.996094 98.230469 L -79.226562 98.921875 L -78.765625 98.921875 Z M -1.097656 68.769531 L -0.636719 69 L -0.175781 70.382812 L 2.820312 70.382812 L 3.050781 70.84375 C 2.402344 70.847656 1.753906 70.851562 1.105469 70.855469 L 0.542969 70.863281 C 0.0742188 70.863281 -0.398438 70.855469 -0.867188 70.84375 L -1.097656 70.613281 C -1.132812 69.996094 -1.109375 69.386719 -1.097656 68.769531 M 15.496094 -24.902344 L 15.496094 -24.441406 L 15.101562 -24.425781 C 14.519531 -24.40625 13.933594 -24.378906 13.347656 -24.355469 L 12.734375 -24.332031 L 12.140625 -24.304688 L 11.597656 -24.285156 C 11.046875 -24.234375 11.046875 -24.234375 10.425781 -23.75 L 10.195312 -24.210938 L 10.425781 -24.671875 C 12.160156 -25.21875 13.703125 -25.105469 15.496094 -24.902344 M -65.859375 96.390625 C -65.3125 96.574219 -65.3125 96.574219 -64.707031 96.847656 L -64.246094 97.539062 L -64.707031 98.460938 L -66.320312 98.230469 L -66.320312 97.539062 L -65.859375 97.769531 L -66.089844 97.078125 L -65.628906 97.078125 Z M 76.105469 95.007812 C 76.441406 94.996094 76.777344 94.984375 77.113281 94.980469 L 77.683594 94.964844 L 78.179688 95.007812 L 78.640625 95.46875 L 78.640625 96.390625 L 78.222656 96.171875 C 77.699219 95.90625 77.699219 95.90625 77.027344 95.699219 L 76.335938 96.160156 L 75.644531 95.929688 Z M -37.28125 87.414062 C -36.941406 88.429688 -37.042969 89.457031 -37.0625 90.515625 C -37.074219 91.582031 -37 92.578125 -36.820312 93.628906 C -37.28125 93.167969 -37.28125 93.167969 -37.542969 92.375 C -37.882812 90.898438 -37.910156 89.40625 -37.511719 87.945312 Z M -37.28125 87.414062 " fill-opacity="1" fill-rule="nonzero"/><path fill="#0c2240" d="M 61.257812 81.386719 L 62.050781 81.375 C 62.738281 81.429688 62.738281 81.429688 63.429688 81.890625 C 63.472656 82.492188 63.472656 82.492188 63.429688 83.039062 L 62.738281 82.808594 L 62.738281 82.121094 L 59.050781 82.121094 L 58.820312 81.660156 C 59.636719 81.410156 60.40625 81.390625 61.257812 81.386719 M 114.824219 51.050781 L 115.746094 51.507812 C 115.832031 51.984375 115.832031 51.984375 115.746094 52.660156 C 115.335938 53.242188 114.863281 53.757812 114.363281 54.269531 L 113.671875 54.039062 C 113.757812 53.941406 113.839844 53.839844 113.925781 53.738281 C 114.257812 53.3125 114.558594 52.898438 114.824219 52.429688 C 114.921875 51.671875 114.921875 51.671875 114.824219 51.050781 M -82.453125 93.628906 C -81.648438 93.683594 -81.648438 93.683594 -80.839844 93.855469 L -80.378906 94.316406 L -81.761719 94.085938 L -81.761719 95.007812 L -81.300781 95.699219 L -82.683594 95.238281 C -82.828125 94.691406 -82.828125 94.691406 -82.914062 94.085938 Z M 30.703125 9.621094 C 31.53125 9.972656 32.074219 10.460938 32.707031 11.089844 L 33.257812 11.625 C 33.699219 12.152344 33.699219 12.152344 33.878906 12.679688 L 33.929688 13.074219 C 33.527344 13.316406 33.527344 13.316406 33.007812 13.535156 C 32.492188 13.449219 32.492188 13.449219 32.085938 13.304688 L 32.085938 13.074219 L 33.238281 12.84375 C 32.707031 11.78125 31.933594 11.046875 31.085938 10.238281 L 30.703125 9.851562 Z M 83.25 -24.441406 L 83.019531 -23.289062 C 82.386719 -23.03125 82.386719 -23.03125 81.636719 -22.832031 C 81.089844 -23.03125 81.089844 -23.03125 80.714844 -23.289062 C 80.964844 -23.484375 81.214844 -23.675781 81.464844 -23.867188 L 81.886719 -24.1875 C 82.328125 -24.441406 82.328125 -24.441406 83.25 -24.441406 M 22.640625 16.527344 L 23.5625 16.527344 L 23.5625 18.597656 L 22.179688 18.597656 L 22.179688 18.136719 L 22.640625 18.136719 L 22.507812 17.460938 L 22.410156 16.757812 Z M 22.640625 16.527344 " fill-opacity="1" fill-rule="nonzero"/><path fill="#0c2240" d="M 59.511719 107.4375 L 62.507812 107.667969 L 62.507812 108.125 L 61.816406 108.585938 C 60.949219 108.511719 60.265625 108.332031 59.511719 107.898438 Z M 48.910156 -23.519531 L 49.140625 -23.058594 L 48.910156 -22.371094 L 49.140625 -21.679688 C 49.953125 -21.394531 49.953125 -21.394531 50.753906 -21.21875 L 50.753906 -20.757812 L 48.679688 -20.988281 C 48.40625 -21.605469 48.40625 -21.605469 48.21875 -22.371094 C 48.539062 -23.03125 48.539062 -23.03125 48.910156 -23.519531 M 92.238281 60.945312 L 92.929688 61.40625 C 93.589844 61.542969 94.246094 61.640625 94.914062 61.738281 L 95.464844 61.867188 L 95.695312 62.328125 L 92.46875 62.097656 Z M 65.503906 104.214844 C 66.558594 104.339844 67.34375 104.628906 68.269531 105.132812 L 67.578125 105.363281 L 67.03125 105.25 C 66.371094 105.125 65.921875 105.199219 65.273438 105.363281 Z M -65.859375 93.628906 L -64.707031 93.855469 L -64.476562 94.777344 C -65.125 95.253906 -65.125 95.253906 -65.859375 95.699219 L -66.550781 95.46875 L -66.105469 95.050781 C -65.582031 94.570312 -65.582031 94.570312 -65.398438 93.855469 Z M 32.085938 64.398438 L 35.3125 65.089844 L 35.3125 64.628906 L 35.773438 64.628906 L 35.542969 65.546875 C 34.164062 65.621094 33.324219 65.476562 32.085938 64.859375 Z M 59.050781 27.34375 L 65.734375 27.804688 L 65.734375 28.035156 C 65.035156 28.085938 64.335938 28.132812 63.632812 28.175781 L 63.035156 28.222656 C 61.898438 28.292969 61.039062 28.265625 59.972656 27.804688 Z M -20.226562 65.777344 L -19.765625 65.777344 C -20.007812 66.597656 -20.351562 67.097656 -20.949219 67.691406 L -21.609375 68.308594 L -22.300781 68.082031 L -21.785156 67.578125 C -21.148438 66.949219 -21.148438 66.949219 -20.644531 66.28125 Z M 30.242188 63.015625 C 30.804688 63.476562 30.804688 63.476562 31.164062 63.9375 L 30.804688 63.824219 C 29.765625 63.609375 28.722656 63.613281 27.707031 63.9375 L 27.476562 63.476562 C 28.429688 63.015625 29.191406 62.902344 30.242188 63.015625 M 105.835938 53.582031 C 107.605469 53.84375 107.605469 53.84375 108.355469 54.328125 C 108.679688 54.601562 108.988281 54.894531 109.292969 55.191406 L 109.0625 55.652344 L 108.71875 55.417969 C 107.691406 54.742188 106.804688 54.316406 105.605469 54.039062 Z M 105.835938 53.582031 " fill-opacity="1" fill-rule="nonzero"/><path fill="#0c2240" d="M -19.074219 60.714844 L -18.382812 60.714844 C -18.363281 61.253906 -18.367188 61.789062 -18.382812 62.328125 L -18.84375 63.015625 C -19.023438 62.234375 -19.097656 61.519531 -19.074219 60.714844 M -35.667969 59.566406 L -35.4375 59.566406 L -35.445312 60.152344 C -35.449219 60.40625 -35.449219 60.65625 -35.453125 60.917969 L -35.460938 61.675781 C -35.484375 62.316406 -35.484375 62.316406 -35.207031 62.785156 C -35.425781 63.277344 -35.425781 63.277344 -35.667969 63.707031 C -35.917969 62.964844 -35.929688 62.414062 -35.929688 61.636719 L -35.929688 60.902344 C -35.898438 60.253906 -35.898438 60.253906 -35.667969 59.566406 M 113.671875 24.121094 L 113.441406 24.8125 L 111.136719 25.042969 L 110.90625 24.582031 C 111.804688 23.984375 112.628906 24.085938 113.671875 24.121094 M 12.730469 106.285156 C 13.175781 106.472656 13.175781 106.472656 13.652344 106.746094 L 13.882812 107.4375 L 14.34375 107.4375 C 14.714844 107.898438 14.714844 107.898438 15.035156 108.355469 L 14.113281 108.355469 C 13.71875 107.960938 13.71875 107.960938 13.363281 107.449219 L 13 106.941406 L 12.730469 106.515625 Z M 94.773438 51.507812 C 95.371094 52.402344 95.910156 53.304688 96.386719 54.269531 C 96.121094 54.0625 95.859375 53.851562 95.597656 53.636719 C 95.449219 53.519531 95.300781 53.402344 95.148438 53.28125 C 94.773438 52.890625 94.773438 52.890625 94.59375 52.410156 L 94.542969 51.96875 Z M 116.667969 -9.019531 L 117.128906 -9.019531 C 117.140625 -8.636719 117.140625 -8.253906 117.128906 -7.871094 L 116.898438 -7.640625 C 116.4375 -7.628906 115.976562 -7.628906 115.515625 -7.640625 C 115.890625 -8.109375 116.273438 -8.570312 116.667969 -9.019531 M 11.347656 20.898438 L 11.808594 21.128906 L 11.578125 23.890625 L 11.347656 23.890625 C 11.300781 23.433594 11.257812 22.980469 11.214844 22.523438 L 11.144531 21.753906 L 11.117188 21.128906 Z M -19.304688 63.707031 L -18.84375 63.707031 C -18.972656 64.476562 -19.15625 65.097656 -19.535156 65.777344 L -19.996094 65.316406 Z M 97.308594 48.976562 C 97.945312 49.019531 97.945312 49.019531 98.691406 49.207031 C 99.238281 49.796875 99.238281 49.796875 99.613281 50.359375 L 99.253906 50.15625 C 98.546875 49.832031 97.828125 49.640625 97.078125 49.4375 Z M 103.992188 46.445312 C 104.519531 46.433594 105.050781 46.425781 105.578125 46.417969 L 106.46875 46.402344 L 107.21875 46.445312 L 107.679688 46.90625 L 106.988281 47.136719 L 106.527344 46.90625 C 106.097656 46.855469 105.664062 46.8125 105.230469 46.777344 L 104.53125 46.71875 L 103.992188 46.675781 Z M 103.992188 46.445312 " fill-opacity="1" fill-rule="nonzero"/><path fill="#0c2240" d="M -17.921875 -13.164062 L -17.230469 -13.164062 L -17.230469 -12.703125 C -17.585938 -12.40625 -17.585938 -12.40625 -18.039062 -12.097656 L -18.492188 -11.789062 L -18.84375 -11.550781 L -18.84375 -12.242188 C -18.425781 -12.746094 -18.425781 -12.746094 -17.921875 -13.164062 M 70.574219 96.160156 L 71.035156 96.160156 L 70.34375 98.230469 L 69.882812 98 C 70.316406 96.675781 70.316406 96.675781 70.574219 96.160156 M 100.304688 5.9375 L 103.761719 6.167969 L 103.761719 6.398438 C 101.683594 6.699219 101.683594 6.699219 100.738281 6.414062 L 100.304688 6.167969 Z M 100.304688 5.9375 " fill-opacity="1" fill-rule="nonzero"/></g></svg>