<svg xmlns="http://www.w3.org/2000/svg" xmlns:xlink="http://www.w3.org/1999/xlink" width="48" zoomAndPan="magnify" viewBox="0 0 36 36.000001" height="48" preserveAspectRatio="xMidYMid meet" version="1.0"><defs><clipPath id="24d484d949"><path d="M 0.488281 0 L 35.511719 0 L 35.511719 35.027344 L 0.488281 35.027344 Z M 0.488281 0 " clip-rule="nonzero"/></clipPath><clipPath id="594e5f3847"><path d="M 0.488281 13 L 35.511719 13 L 35.511719 35.027344 L 0.488281 35.027344 Z M 0.488281 13 " clip-rule="nonzero"/></clipPath><clipPath id="a706ed6017"><path d="M 0.488281 10 L 28 10 L 28 35.027344 L 0.488281 35.027344 Z M 0.488281 10 " clip-rule="nonzero"/></clipPath><clipPath id="70afb5b3fb"><path d="M 0.488281 27 L 35.511719 27 L 35.511719 35.027344 L 0.488281 35.027344 Z M 0.488281 27 " clip-rule="nonzero"/></clipPath><clipPath id="696cc92329"><path d="M 0.488281 29 L 34 29 L 34 35.027344 L 0.488281 35.027344 Z M 0.488281 29 " clip-rule="nonzero"/></clipPath><clipPath id="d5dba7e8da"><path d="M 0.488281 6 L 35.511719 6 L 35.511719 21 L 0.488281 21 Z M 0.488281 6 " clip-rule="nonzero"/></clipPath><clipPath id="a4de18aef4"><path d="M 21 8 L 35.511719 8 L 35.511719 35.027344 L 21 35.027344 Z M 21 8 " clip-rule="nonzero"/></clipPath><clipPath id="cd055ab27d"><path d="M 4 17 L 35.511719 17 L 35.511719 35.027344 L 4 35.027344 Z M 4 17 " clip-rule="nonzero"/></clipPath><clipPath id="80f811cf9c"><path d="M 0.488281 8 L 21 8 L 21 35.027344 L 0.488281 35.027344 Z M 0.488281 8 " clip-rule="nonzero"/></clipPath><clipPath id="e07b51651b"><path d="M 0.488281 29 L 35.511719 29 L 35.511719 35.027344 L 0.488281 35.027344 Z M 0.488281 29 " clip-rule="nonzero"/></clipPath><clipPath id="8f550a74bf"><path d="M 0.488281 16 L 35.511719 16 L 35.511719 35.027344 L 0.488281 35.027344 Z M 0.488281 16 " clip-rule="nonzero"/></clipPath><clipPath id="68c25b46b0"><path d="M 0.488281 15 L 30 15 L 30 35.027344 L 0.488281 35.027344 Z M 0.488281 15 " clip-rule="nonzero"/></clipPath><clipPath id="c75e60c886"><path d="M 0.488281 15 L 35.511719 15 L 35.511719 35.027344 L 0.488281 35.027344 Z M 0.488281 15 " clip-rule="nonzero"/></clipPath><clipPath id="ccbd3eb556"><path d="M 0.488281 16 L 35.511719 16 L 35.511719 35.027344 L 0.488281 35.027344 Z M 0.488281 16 " clip-rule="nonzero"/></clipPath><clipPath id="6a73c437c3"><path d="M 0.488281 30 L 35.511719 30 L 35.511719 35.027344 L 0.488281 35.027344 Z M 0.488281 30 " clip-rule="nonzero"/></clipPath><clipPath id="12930976d7"><path d="M 0.488281 26 L 35.511719 26 L 35.511719 35.027344 L 0.488281 35.027344 Z M 0.488281 26 " clip-rule="nonzero"/></clipPath></defs><g clip-path="url(#24d484d949)"><rect x="-3.6" width="43.2" fill="#fefefe" y="-3.6" height="43.200001" fill-opacity="1"/></g><path fill="#193049" d="M 20.886719 5.972656 C 21.710938 6.234375 22.199219 6.566406 22.867188 7.117188 C 23.105469 7.308594 23.34375 7.5 23.582031 7.691406 L 23.964844 8 C 24.667969 8.566406 25.398438 9.105469 26.121094 9.644531 C 26.527344 9.949219 26.929688 10.253906 27.335938 10.554688 C 27.628906 10.777344 27.929688 10.992188 28.226562 11.207031 L 28.695312 11.550781 L 29.128906 11.859375 L 29.441406 12.136719 L 29.441406 12.558594 L 30.289062 12.769531 L 30.289062 13.195312 L 30.636719 13.242188 C 31.328125 13.46875 31.769531 13.878906 32.324219 14.347656 L 32.941406 14.863281 C 33.265625 15.140625 33.582031 15.433594 33.886719 15.738281 C 33.804688 16.398438 33.804688 16.398438 33.675781 17.007812 C 33.09375 17.234375 33.09375 17.234375 32.402344 17.433594 L 31.558594 17.21875 L 31.558594 29.296875 L 33.039062 29.296875 L 33.25 29.507812 C 33.257812 30.003906 33.257812 30.5 33.25 30.992188 C 32.691406 31.273438 32.273438 31.230469 31.648438 31.234375 L 30.046875 31.234375 L 29.167969 31.238281 C 28.371094 31.238281 27.570312 31.238281 26.773438 31.238281 C 26.109375 31.238281 25.441406 31.242188 24.777344 31.242188 C 23.207031 31.242188 21.640625 31.242188 20.070312 31.242188 C 18.449219 31.242188 16.828125 31.246094 15.207031 31.25 C 13.820312 31.25 12.429688 31.253906 11.039062 31.253906 C 10.207031 31.253906 9.378906 31.253906 8.546875 31.253906 C 7.765625 31.257812 6.984375 31.257812 6.203125 31.257812 C 5.777344 31.257812 5.355469 31.257812 4.929688 31.257812 L 3.503906 31.257812 L 2.988281 31.203125 L 2.566406 30.78125 C 2.527344 30.132812 2.527344 30.132812 2.566406 29.507812 L 2.777344 29.296875 L 4.046875 29.296875 L 4.046875 19.339844 L 2.140625 19.128906 C 1.878906 18.570312 1.878906 18.570312 1.71875 17.855469 C 2.300781 16.828125 3.070312 15.96875 3.847656 15.089844 L 4.585938 14.242188 L 4.957031 13.820312 C 5.492188 13.203125 6.019531 12.585938 6.546875 11.960938 L 6.835938 11.625 C 7.570312 10.757812 8.257812 9.859375 8.925781 8.941406 C 9.335938 8.53125 9.335938 8.53125 9.960938 8.230469 L 10.605469 8.109375 C 11.101562 8.308594 11.101562 8.308594 11.558594 8.652344 L 12.046875 9.011719 C 12.636719 9.480469 13.214844 9.945312 13.78125 10.441406 C 14.53125 10.167969 15.101562 9.859375 15.722656 9.363281 L 16.214844 8.976562 L 16.71875 8.574219 C 17.207031 8.183594 17.699219 7.792969 18.191406 7.410156 C 18.480469 7.183594 18.765625 6.949219 19.046875 6.710938 C 19.6875 6.191406 20.050781 5.992188 20.886719 5.972656 " fill-opacity="1" fill-rule="nonzero"/><g clip-path="url(#594e5f3847)"><path fill="#193049" d="M 52.085938 81.207031 C 52.472656 81.125 52.472656 81.125 52.9375 81.125 L 53.445312 81.121094 L 53.976562 81.128906 L 54.503906 81.121094 L 55.015625 81.125 L 55.480469 81.125 C 55.894531 81.207031 55.894531 81.207031 56.265625 81.488281 L 56.527344 81.84375 C 56.554688 82.558594 56.554688 82.558594 56.527344 83.328125 C 56.589844 83.683594 56.65625 84.039062 56.742188 84.386719 L 57.324219 84.480469 C 58.011719 84.597656 58.011719 84.597656 58.433594 84.753906 L 58.855469 84.8125 C 59.261719 84.511719 59.574219 84.171875 59.917969 83.804688 L 60.339844 83.539062 C 60.949219 83.542969 60.949219 83.542969 61.609375 83.75 C 62.195312 84.199219 62.195312 84.199219 62.746094 84.757812 L 63.304688 85.3125 C 63.722656 85.871094 63.722656 85.871094 63.824219 86.414062 C 63.644531 87.339844 63.039062 87.902344 62.453125 88.625 L 63.300781 90.53125 L 63.796875 90.570312 L 64.4375 90.625 L 65.078125 90.675781 C 65.628906 90.742188 65.628906 90.742188 66.050781 90.957031 C 66.285156 91.65625 66.300781 92.203125 66.304688 92.941406 L 66.3125 93.660156 C 66.261719 94.34375 66.167969 94.804688 65.839844 95.40625 C 65.203125 95.617188 64.773438 95.640625 64.109375 95.628906 L 63.53125 95.625 L 63.089844 95.617188 C 62.8125 96.316406 62.570312 96.992188 62.453125 97.734375 C 62.800781 98.378906 62.800781 98.378906 63.300781 98.796875 L 63.300781 99.21875 L 63.722656 99.21875 C 63.78125 99.792969 63.78125 99.792969 63.722656 100.492188 C 63.34375 101.015625 63.34375 101.015625 62.839844 101.496094 L 62.339844 101.984375 C 61.816406 102.398438 61.402344 102.640625 60.761719 102.820312 C 60.191406 102.558594 59.757812 102.226562 59.265625 101.839844 C 58.875 101.542969 58.875 101.542969 58.460938 101.378906 C 57.820312 101.320312 57.332031 101.53125 56.742188 101.761719 L 56.714844 102.296875 L 56.636719 103.6875 C 56.527344 104.304688 56.527344 104.304688 56.261719 104.65625 C 55.894531 104.941406 55.894531 104.941406 55.480469 105.023438 L 55.015625 105.023438 L 54.503906 105.027344 L 53.976562 105.019531 L 53.445312 105.027344 L 52.9375 105.023438 L 52.472656 105.023438 L 52.085938 104.941406 C 51.605469 104.21875 51.585938 103.84375 51.53125 102.992188 L 51.480469 102.296875 L 51.449219 101.761719 C 50.734375 101.601562 50.066406 101.5 49.332031 101.550781 C 48.832031 101.839844 48.453125 102.152344 48.039062 102.554688 L 47.640625 102.820312 C 47.132812 102.820312 47.132812 102.820312 46.582031 102.609375 C 46.023438 102.15625 46.023438 102.15625 45.472656 101.589844 L 44.914062 101.027344 C 44.464844 100.492188 44.464844 100.492188 44.25 100.050781 L 44.253906 99.644531 C 44.566406 99.234375 44.566406 99.234375 44.996094 98.820312 C 45.414062 98.390625 45.414062 98.390625 45.738281 97.949219 C 45.777344 97.261719 45.777344 97.261719 45.523438 96.675781 C 45.453125 96.394531 45.382812 96.113281 45.3125 95.828125 L 44.671875 95.789062 L 43.84375 95.734375 L 43.019531 95.683594 L 42.351562 95.617188 L 42.140625 95.40625 C 41.933594 93.96875 41.871094 92.59375 42.140625 91.167969 L 42.351562 90.957031 C 42.8125 90.90625 43.277344 90.867188 43.738281 90.835938 L 44.507812 90.78125 L 45.101562 90.742188 L 45.300781 90.140625 C 45.523438 89.472656 45.523438 89.472656 45.75 88.957031 L 45.738281 88.414062 C 45.371094 88.011719 44.988281 87.664062 44.566406 87.320312 L 44.253906 86.929688 C 44.246094 86.429688 44.246094 86.429688 44.464844 85.871094 C 44.820312 85.414062 45.160156 85.027344 45.566406 84.625 L 45.867188 84.296875 C 46.167969 83.992188 46.167969 83.992188 46.792969 83.539062 C 47.46875 83.542969 47.46875 83.542969 48.0625 83.75 L 48.644531 84.320312 L 49.332031 84.8125 C 50.074219 84.777344 50.746094 84.605469 51.449219 84.386719 L 51.480469 83.851562 L 51.53125 83.15625 C 51.542969 82.925781 51.558594 82.699219 51.574219 82.460938 C 51.660156 81.84375 51.660156 81.84375 52.085938 81.207031 M 13.6875 113.375 L 14.417969 113.367188 C 15.050781 113.414062 15.050781 113.414062 15.6875 113.839844 C 15.75 114.34375 15.75 114.34375 15.726562 114.925781 L 15.707031 115.507812 L 15.6875 115.957031 L 16.082031 116.042969 L 17.113281 116.269531 C 17.589844 116.382812 17.589844 116.382812 18.226562 116.59375 L 18.832031 116.167969 L 19.496094 115.746094 C 20.175781 115.785156 20.574219 115.96875 21.167969 116.3125 L 21.785156 116.753906 L 22.410156 117.1875 L 22.882812 117.652344 C 22.984375 118.1875 22.984375 118.1875 22.882812 118.710938 C 22.648438 119.140625 22.648438 119.140625 22.351562 119.519531 L 22.054688 119.910156 L 21.824219 120.195312 C 22.085938 120.917969 22.371094 121.527344 22.882812 122.101562 C 23.503906 122.277344 24.03125 122.300781 24.675781 122.292969 L 25.210938 122.3125 L 25.84375 122.738281 C 25.902344 123.355469 25.921875 123.921875 25.910156 124.539062 L 25.914062 125.042969 C 25.90625 125.476562 25.878906 125.910156 25.84375 126.339844 L 25.421875 126.765625 C 25.007812 126.8125 24.59375 126.851562 24.175781 126.882812 C 23.492188 126.964844 23.492188 126.964844 22.882812 127.1875 C 22.484375 127.644531 22.3125 128.042969 22.109375 128.609375 C 22.03125 129.125 22.082031 129.449219 22.246094 129.941406 L 22.667969 129.941406 L 23.09375 130.578125 C 23.074219 131.074219 23.074219 131.074219 22.882812 131.636719 C 22.449219 132.210938 22.449219 132.210938 21.902344 132.777344 C 21.726562 132.964844 21.546875 133.15625 21.363281 133.351562 C 21.167969 133.484375 20.96875 133.617188 20.765625 133.757812 C 20.007812 133.75 20.007812 133.75 19.285156 133.542969 L 18.84375 133.207031 L 18.4375 132.910156 C 17.839844 132.878906 17.839844 132.878906 17.21875 132.976562 L 16.589844 133.050781 L 16.109375 133.121094 L 16.117188 133.5 C 16.125 134.390625 16.121094 135.214844 15.898438 136.085938 C 14.464844 136.34375 12.851562 136.554688 11.453125 136.085938 L 11.421875 135.558594 C 11.347656 134.851562 11.25 134.222656 11.03125 133.542969 C 10.625 133.132812 10.308594 132.964844 9.765625 132.769531 C 9.3125 132.664062 9.3125 132.664062 8.753906 132.816406 C 8.277344 133.109375 8.277344 133.109375 7.855469 133.464844 C 7.433594 133.757812 7.433594 133.757812 6.953125 133.835938 C 6.375 133.757812 6.375 133.757812 5.753906 133.335938 L 5.132812 132.777344 L 4.5 132.226562 L 4.046875 131.636719 C 4.058594 130.957031 4.058594 130.957031 4.257812 130.367188 L 4.707031 129.929688 L 5.105469 129.519531 C 5.101562 128.996094 5.101562 128.996094 4.894531 128.457031 L 4.667969 127.757812 L 4.46875 127.1875 L 3.921875 127.148438 L 3.214844 127.09375 L 2.507812 127.042969 L 1.929688 126.976562 L 1.71875 126.765625 C 1.703125 126.480469 1.695312 126.195312 1.699219 125.910156 L 1.699219 125.390625 L 1.707031 124.84375 L 1.707031 124.296875 C 1.710938 123.847656 1.714844 123.398438 1.71875 122.949219 L 2.253906 122.855469 C 2.941406 122.710938 3.59375 122.554688 4.257812 122.3125 C 4.785156 121.636719 4.871094 121.160156 5.039062 120.328125 L 5.105469 119.773438 L 4.683594 119.773438 C 4.3125 119.292969 4.3125 119.292969 4.046875 118.710938 C 4.371094 117.8125 5.03125 117.191406 5.707031 116.535156 C 6.164062 116.167969 6.164062 116.167969 6.957031 115.917969 L 7.644531 115.957031 C 7.933594 116.160156 8.214844 116.371094 8.492188 116.59375 C 9 116.570312 9 116.570312 9.550781 116.382812 L 10.355469 116.15625 C 10.578125 116.089844 10.800781 116.023438 11.03125 115.957031 L 11.015625 115.554688 L 11.003906 115.03125 L 10.988281 114.507812 L 11.03125 114.050781 C 11.453125 113.628906 11.453125 113.628906 11.816406 113.496094 C 12.445312 113.390625 13.050781 113.378906 13.6875 113.375 M 55.34375 45.035156 C 56.738281 45.675781 57.804688 46.546875 58.765625 47.746094 C 59.28125 48.585938 59.378906 49.292969 59.414062 50.273438 C 59.347656 51.578125 59.128906 52.5625 58.433594 53.664062 L 58.136719 54.136719 C 56.929688 55.855469 55.171875 57.089844 53.355469 58.113281 C 53.035156 58.253906 52.714844 58.386719 52.390625 58.511719 C 51.332031 58.921875 50.285156 59.355469 49.242188 59.796875 C 48.855469 59.957031 48.460938 60.101562 48.0625 60.234375 C 47.816406 60.851562 47.816406 60.851562 47.640625 61.503906 L 47.429688 61.925781 L 47.851562 61.925781 L 47.957031 62.402344 C 48.246094 63.046875 48.246094 63.046875 48.96875 63.417969 C 50.175781 63.992188 51.457031 64.125 52.773438 64.296875 C 53.261719 64.367188 53.753906 64.4375 54.246094 64.503906 L 54.898438 64.59375 C 55.382812 64.667969 55.839844 64.773438 56.316406 64.894531 C 56.800781 64.925781 57.285156 64.941406 57.773438 64.945312 L 58.539062 64.964844 C 59.359375 64.886719 59.851562 64.695312 60.550781 64.257812 C 61.101562 63.484375 61.417969 62.878906 61.554688 61.941406 L 61.609375 61.292969 C 60.160156 61.382812 59.199219 61.695312 57.929688 62.363281 C 56.207031 63.195312 54.707031 63.429688 52.804688 63.316406 C 51.582031 63.191406 50.453125 62.851562 49.332031 62.351562 L 49.121094 61.292969 L 49.738281 60.988281 C 50.019531 60.847656 50.304688 60.707031 50.589844 60.5625 L 51.050781 60.335938 C 51.851562 59.933594 52.644531 59.523438 53.429688 59.089844 C 56.132812 57.589844 58.558594 56.746094 61.671875 56.75 C 62.742188 56.875 63.539062 57.222656 64.453125 57.808594 L 64.78125 58.113281 L 64.78125 58.539062 L 65.417969 58.75 C 65.957031 59.488281 66.238281 60.257812 66.355469 61.160156 C 66.207031 62.410156 65.996094 63.5 65.285156 64.5625 C 63.875 66.257812 62.160156 67.132812 60.140625 67.914062 L 59.734375 68.070312 C 56.523438 69.25 52.769531 69.257812 49.40625 68.851562 C 47.558594 68.523438 45.890625 67.816406 44.429688 66.644531 C 43.496094 65.792969 42.90625 64.953125 42.496094 63.757812 C 42.140625 62.386719 42.011719 61.140625 42.363281 59.753906 C 42.660156 58.925781 43.003906 58.261719 43.617188 57.625 C 45.363281 56.152344 47.417969 55.269531 49.488281 54.363281 C 51.800781 53.351562 51.800781 53.351562 53.730469 51.769531 L 53.988281 51.332031 L 53.988281 50.484375 C 52.273438 50.445312 50.722656 50.460938 49.042969 50.835938 C 48.40625 50.921875 47.878906 50.847656 47.246094 50.75 C 46.675781 50.667969 46.675781 50.667969 46.160156 50.699219 C 45.328125 51.40625 44.914062 52.253906 44.464844 53.242188 L 43.832031 53.027344 L 43.765625 52.617188 L 43.621094 52.179688 C 42.984375 51.90625 42.984375 51.90625 42.351562 51.757812 L 42.5625 50.910156 L 43.367188 50.855469 C 43.832031 50.808594 43.832031 50.808594 44.253906 50.699219 C 44.695312 50.320312 44.695312 50.320312 44.890625 49.851562 L 44.890625 49.425781 L 44.347656 48.9375 L 43.832031 48.367188 C 43.851562 47.867188 43.851562 47.867188 44.042969 47.308594 C 44.835938 46.148438 45.789062 45.195312 47.03125 44.539062 C 49.664062 43.292969 52.777344 43.941406 55.34375 45.035156 M 19.242188 44.578125 C 20.230469 44.96875 21.058594 45.511719 21.824219 46.25 C 22.074219 46.585938 22.324219 46.925781 22.5625 47.269531 C 22.90625 47.761719 22.90625 47.761719 23.304688 48.15625 C 23.917969 48.375 24.335938 48.378906 24.996094 48.367188 L 25.210938 47.941406 L 26.480469 47.941406 C 26.425781 48.339844 26.425781 48.339844 26.265625 48.789062 C 25.832031 49.054688 25.832031 49.054688 25.421875 49.214844 L 25.75 49.597656 L 26.054688 50.0625 L 25.84375 50.699219 C 25.128906 50.582031 24.769531 50.472656 24.152344 50.0625 C 23.058594 49.90625 22.054688 50.019531 21.015625 50.378906 C 19.105469 51.015625 17.019531 50.734375 15.050781 50.484375 L 15.050781 51.332031 L 15.429688 51.515625 C 15.898438 51.757812 15.898438 51.757812 16.585938 52.222656 C 17.417969 52.75 18.296875 53.136719 19.203125 53.519531 C 21.304688 54.410156 23.421875 55.359375 24.996094 57.054688 L 25.355469 57.429688 C 26.054688 58.214844 26.679688 58.972656 26.902344 60.019531 C 27.035156 61.382812 27.089844 62.734375 26.570312 64.019531 C 25.9375 65.226562 25.078125 66.21875 23.984375 67.027344 C 23.28125 67.453125 22.609375 67.734375 21.835938 68.007812 L 21.089844 68.273438 C 18.097656 69.164062 14.25 69.027344 11.1875 68.46875 C 9.058594 67.941406 6.6875 67.28125 4.996094 65.832031 C 4.410156 65.265625 3.960938 64.816406 3.675781 64.039062 C 3.457031 63.242188 3.359375 62.519531 3.503906 61.703125 C 3.777344 60.839844 4.253906 60.210938 4.867188 59.558594 C 5.863281 58.699219 7.046875 58.183594 8.304688 57.835938 C 11.070312 57.328125 13.957031 57.679688 16.601562 58.558594 C 17.894531 59.0625 19.140625 59.660156 20.128906 60.65625 C 20.386719 61.117188 20.386719 61.117188 20.554688 61.503906 C 20.222656 61.902344 20.222656 61.902344 19.707031 62.351562 C 18.179688 62.875 16.652344 62.976562 15.050781 62.773438 C 14.152344 62.574219 13.285156 62.277344 12.417969 61.96875 C 11.15625 61.546875 10.226562 61.480469 8.914062 61.714844 L 8.703125 62.5625 C 10.03125 62.980469 11.355469 63.355469 12.722656 63.621094 L 13.292969 63.738281 C 15.417969 64.035156 17.847656 64.09375 19.894531 63.402344 C 20.398438 63.1875 20.398438 63.1875 21.015625 62.734375 C 21.386719 62.160156 21.476562 61.945312 21.519531 61.292969 C 21.476562 60.632812 21.378906 60.410156 21.015625 59.820312 C 20.574219 59.34375 20.574219 59.34375 19.917969 59.171875 L 19.917969 58.75 L 19.285156 58.75 L 19.285156 58.324219 L 18.542969 58.164062 C 17.601562 57.925781 16.773438 57.5625 15.910156 57.121094 L 15.464844 56.894531 C 13.792969 56.019531 12.367188 55.03125 11.289062 53.453125 C 10.570312 52.265625 10.347656 51.273438 10.289062 49.875 C 10.320312 48.671875 10.488281 47.742188 11.101562 46.699219 C 11.847656 45.746094 12.761719 45.238281 13.855469 44.757812 C 15.570312 44.152344 17.492188 44.070312 19.242188 44.578125 M -22.378906 14.28125 C -20.257812 15.664062 -20.257812 15.664062 -19.65625 16.160156 L -19.65625 16.585938 L -18.597656 17.007812 L -18.597656 17.433594 L -18.171875 17.566406 C -17.597656 17.828125 -17.277344 18.066406 -16.804688 18.46875 C -15.75 19.269531 -14.664062 19.511719 -13.386719 19.789062 C -12.933594 19.894531 -12.480469 20 -12.03125 20.105469 L -11.375 20.257812 C -10.585938 20.441406 -9.8125 20.644531 -9.035156 20.863281 L -8.375 21.042969 C -7.765625 21.257812 -7.277344 21.507812 -6.746094 21.882812 C -6.234375 22.746094 -6.066406 23.421875 -6.03125 24.425781 C -6.070312 25.433594 -6.210938 26.101562 -6.746094 26.96875 C -7.292969 27.394531 -7.59375 27.613281 -8.226562 27.8125 C -8.871094 27.875 -9.488281 27.867188 -10.132812 27.8125 L -10.285156 27.386719 C -10.855469 25.890625 -10.855469 25.890625 -11.824219 24.636719 C -12.691406 24.03125 -13.359375 23.832031 -14.390625 23.710938 C -15.335938 23.800781 -16.003906 24.03125 -16.839844 24.472656 C -17.554688 25.023438 -17.855469 25.660156 -18.207031 26.476562 C -18.34375 26.851562 -18.472656 27.226562 -18.597656 27.601562 C -19.726562 27.835938 -20.820312 27.847656 -21.964844 27.851562 L -22.570312 27.851562 C -22.988281 27.851562 -23.40625 27.855469 -23.828125 27.855469 C -24.46875 27.855469 -25.113281 27.859375 -25.757812 27.863281 C -26.164062 27.863281 -26.570312 27.863281 -26.980469 27.863281 L -27.5625 27.867188 L -28.578125 27.867188 L -28.964844 27.8125 C -29.445312 27.335938 -29.527344 27.023438 -29.734375 26.382812 C -29.972656 25.761719 -30.171875 25.335938 -30.636719 24.855469 C -31.328125 24.328125 -31.910156 23.949219 -32.773438 23.789062 C -33.484375 23.71875 -34.046875 23.703125 -34.714844 23.976562 C -35.007812 24.128906 -35.300781 24.289062 -35.589844 24.449219 C -35.949219 24.636719 -35.949219 24.636719 -36.371094 24.636719 C -36.71875 25.316406 -37.039062 26.007812 -37.351562 26.703125 L -37.636719 27.335938 L -37.855469 27.8125 C -38.226562 27.796875 -38.59375 27.773438 -38.964844 27.75 L -39.589844 27.710938 C -40.183594 27.601562 -40.183594 27.601562 -40.679688 27.398438 L -41.027344 26.96875 C -41.132812 26.316406 -41.109375 25.679688 -41.082031 25.019531 L -41.070312 24.476562 C -41.058594 24.035156 -41.042969 23.59375 -41.027344 23.152344 C -39.914062 22.492188 -39.914062 22.492188 -39.546875 22.304688 L -39.125 22.304688 C -39.089844 21.695312 -39.089844 21.695312 -39.125 21.035156 L -39.546875 20.398438 L -38.847656 19.976562 C -37.761719 19.175781 -37.105469 18.113281 -36.398438 16.988281 C -35.75 15.980469 -35.050781 15.140625 -34.046875 14.464844 C -33.164062 14.015625 -32.324219 13.96875 -31.351562 13.945312 L -30.878906 13.933594 C -30.546875 13.921875 -30.214844 13.914062 -29.882812 13.90625 C -29.382812 13.894531 -28.882812 13.882812 -28.382812 13.867188 C -23.875 13.742188 -23.875 13.742188 -22.378906 14.28125 " fill-opacity="1" fill-rule="nonzero"/></g><path fill="#fefefe" d="M 20.554688 8.746094 C 21.53125 9.285156 22.410156 9.851562 23.292969 10.546875 C 23.53125 10.734375 23.769531 10.917969 24.007812 11.105469 L 24.386719 11.402344 C 25.238281 12.0625 26.109375 12.703125 26.976562 13.34375 L 27.382812 13.648438 L 27.738281 13.910156 L 28.171875 14.253906 L 28.546875 14.464844 C 29.03125 14.78125 29.324219 15.046875 29.652344 15.523438 C 29.863281 16.566406 29.824219 17.605469 29.796875 18.660156 L 29.792969 19.476562 C 29.785156 20.484375 29.765625 21.488281 29.746094 22.492188 L 29.652344 29.296875 L 12.300781 29.296875 C 12.125 28.414062 12.0625 27.710938 12.058594 26.820312 L 12.058594 26.40625 C 12.058594 25.003906 12.070312 23.601562 12.082031 22.199219 C 12.089844 21.433594 12.085938 20.664062 12.085938 19.894531 C 12.085938 19.203125 12.09375 18.507812 12.101562 17.816406 L 12.09375 17.042969 C 12.109375 16.367188 12.144531 15.761719 12.300781 15.101562 C 12.703125 14.519531 13.1875 14.203125 13.78125 13.828125 C 14.09375 13.597656 14.402344 13.367188 14.710938 13.132812 C 15.042969 12.886719 15.378906 12.644531 15.710938 12.398438 C 17.34375 11.207031 18.957031 9.988281 20.554688 8.746094 " fill-opacity="1" fill-rule="nonzero"/><g clip-path="url(#a706ed6017)"><path fill="#cf1b15" d="M -23.964844 114.863281 C -22.546875 115.5625 -21.125 116.574219 -20.152344 117.832031 C -19.230469 119.300781 -18.554688 120.785156 -18.457031 122.523438 C -18.433594 124.570312 -19.019531 126.335938 -19.925781 128.15625 C -20.578125 129.308594 -21.367188 130.378906 -22.140625 131.453125 L -22.453125 131.886719 C -22.707031 132.234375 -22.980469 132.574219 -23.253906 132.910156 L -23.675781 132.910156 L -23.820312 133.359375 C -24.160156 134.101562 -24.605469 134.601562 -25.15625 135.199219 L -25.726562 135.824219 L -26.214844 136.296875 L -26.636719 136.296875 L -27.0625 137.144531 C -27.457031 137.09375 -27.457031 137.09375 -27.90625 136.933594 C -28.050781 136.652344 -28.195312 136.371094 -28.332031 136.085938 L -28.710938 135.914062 C -29.328125 135.582031 -29.644531 135.152344 -30.078125 134.601562 L -30.53125 134.035156 L -30.871094 133.542969 L -30.871094 133.121094 L -31.292969 133.121094 C -31.554688 132.824219 -31.554688 132.824219 -31.847656 132.40625 L -32.167969 131.945312 L -32.511719 131.453125 L -32.859375 130.949219 C -35.757812 126.746094 -35.757812 126.746094 -36.160156 124.222656 C -36.296875 122.375 -36.066406 120.960938 -35.308594 119.289062 C -34.523438 117.738281 -33.390625 116.546875 -31.957031 115.574219 C -29.625 114.238281 -26.515625 113.949219 -23.964844 114.863281 M 12.300781 78.242188 C 14.0625 78.65625 15.488281 79.339844 16.875 80.515625 C 17.710938 81.3125 18.40625 82.171875 19.070312 83.117188 L 19.382812 83.539062 C 20.71875 85.621094 21.03125 88.535156 21.1875 90.957031 C 21.710938 90.660156 21.710938 90.660156 22.246094 90.109375 C 22.902344 88.882812 23.203125 87.671875 23.304688 86.292969 C 23.6875 86.347656 23.6875 86.347656 24.152344 86.507812 C 24.664062 87.082031 25.03125 87.75 25.421875 88.414062 L 25.714844 88.914062 C 26.675781 90.683594 27.132812 92.570312 27.191406 94.585938 C 27.136719 96.4375 26.632812 98.027344 25.710938 99.628906 C 24.671875 101.195312 23.367188 102.027344 21.714844 102.882812 C 20.839844 103.292969 20.042969 103.570312 19.070312 103.667969 L 19.070312 103.246094 L 19.496094 103.246094 L 19.496094 102.820312 L 19.984375 102.371094 C 20.519531 101.796875 20.835938 101.328125 21.082031 100.582031 C 21.347656 99.308594 21.402344 97.972656 20.996094 96.726562 C 20.851562 96.402344 20.695312 96.082031 20.527344 95.765625 C 20.339844 95.40625 20.339844 95.40625 20.339844 94.980469 L 19.917969 94.980469 L 19.847656 95.359375 C 19.652344 96.339844 19.449219 97.117188 18.859375 97.949219 C 18.476562 97.894531 18.476562 97.894531 18.015625 97.734375 C 17.214844 96.863281 17 95.804688 16.703125 94.683594 C 16.320312 92.960938 16.527344 91.589844 17.027344 89.90625 L 17.167969 89.472656 C 15.808594 90.125 14.855469 90.988281 13.992188 92.226562 C 13.179688 93.933594 12.8125 95.640625 12.933594 97.523438 C 13.050781 98.304688 13.195312 99.082031 13.359375 99.855469 C 12.863281 99.800781 12.863281 99.800781 12.300781 99.644531 C 11.980469 99.257812 11.980469 99.257812 11.730469 98.796875 C 11.574219 98.507812 11.414062 98.226562 11.242188 97.949219 L 10.820312 97.734375 C 10.570312 98.976562 10.480469 100.125 10.753906 101.363281 C 11.097656 102.121094 11.53125 102.628906 12.089844 103.246094 L 11.875 103.667969 C 9.832031 102.808594 8.269531 101.707031 6.796875 100.066406 C 6.277344 99.320312 5.886719 98.570312 5.527344 97.734375 L 5.3125 97.300781 C 4.621094 95.675781 4.734375 93.738281 4.894531 92.015625 C 5.304688 89.582031 6.378906 87.71875 7.921875 85.832031 C 8.109375 85.632812 8.296875 85.4375 8.492188 85.234375 L 8.914062 85.234375 L 8.875 85.84375 C 8.875 86.871094 9.097656 87.910156 9.550781 88.835938 C 9.972656 89.117188 9.972656 89.117188 10.394531 89.261719 L 10.605469 88.414062 L 11.03125 88.414062 L 11.1875 88.003906 C 11.335938 87.640625 11.488281 87.28125 11.65625 86.925781 C 12.539062 85.042969 12.878906 83.296875 12.722656 81.207031 C 12.632812 80.707031 12.523438 80.210938 12.394531 79.714844 C 12.28125 79.21875 12.265625 78.75 12.300781 78.242188 M -108.949219 10.136719 L -108.34375 10.132812 C -107.925781 10.132812 -107.503906 10.132812 -107.085938 10.132812 C -106.449219 10.136719 -105.8125 10.128906 -105.175781 10.121094 C -104.765625 10.121094 -104.359375 10.121094 -103.949219 10.121094 L -103.378906 10.117188 C -102.023438 10.128906 -100.832031 10.394531 -99.648438 11.074219 C -99.050781 11.683594 -98.523438 12.308594 -98.261719 13.132812 C -98.136719 13.769531 -98.113281 14.386719 -98.085938 15.035156 L -98.066406 15.460938 C -98.046875 15.925781 -98.027344 16.390625 -98.007812 16.855469 L -97.964844 17.824219 C -97.9375 18.503906 -97.90625 19.179688 -97.878906 19.859375 C -97.84375 20.726562 -97.804688 21.59375 -97.769531 22.460938 C -97.707031 23.894531 -97.644531 25.328125 -97.585938 26.765625 L -97.554688 27.535156 L -97.53125 28.238281 L -97.5 28.9375 L -97.53125 29.507812 L -97.953125 29.933594 L -98.800781 29.933594 C -99.0625 28.523438 -99.03125 27.125 -99.011719 25.695312 L -99.445312 25.71875 L -100.019531 25.734375 L -100.582031 25.757812 C -101.128906 25.695312 -101.128906 25.695312 -101.621094 25.402344 L -101.976562 25.058594 L -101.976562 24.636719 L -110.863281 24.847656 L -111.285156 26.753906 L -112.554688 26.753906 L -112.554688 25.695312 L -113.828125 25.695312 L -113.828125 29.933594 L -115.097656 29.722656 L -115.097656 29.296875 L -115.519531 29.296875 C -115.539062 27.992188 -115.539062 27.992188 -115.519531 27.601562 L -115.308594 27.390625 C -115.253906 26.816406 -115.214844 26.246094 -115.1875 25.667969 L -115.160156 25.132812 C -115.085938 23.484375 -115.082031 21.839844 -115.105469 20.1875 C -115.113281 19.121094 -115.070312 18.09375 -114.9375 17.035156 C -114.886719 16.589844 -114.859375 16.148438 -114.839844 15.703125 L -114.820312 15.273438 C -114.8125 14.988281 -114.800781 14.703125 -114.792969 14.417969 C -114.746094 13.441406 -114.542969 12.757812 -114.039062 11.921875 C -112.558594 10.441406 -110.972656 10.128906 -108.949219 10.136719 " fill-opacity="1" fill-rule="nonzero"/></g><path fill="#cf1b15" d="M 21.113281 14.285156 C 21.769531 14.453125 22.304688 14.652344 22.90625 14.957031 C 24.199219 15.574219 25.527344 15.980469 26.902344 16.371094 C 26.921875 17.210938 26.933594 18.050781 26.941406 18.890625 L 26.957031 19.601562 C 26.972656 21.089844 26.851562 22.40625 26.265625 23.789062 C 25.441406 25.234375 24.296875 26.117188 22.882812 26.96875 C 22.207031 27.339844 21.570312 27.570312 20.804688 27.707031 C 19.773438 27.546875 18.921875 27.046875 18.015625 26.542969 L 18.015625 26.121094 C 17.835938 26.101562 17.835938 26.101562 17.652344 26.082031 C 17.167969 25.90625 17.167969 25.90625 16.683594 25.4375 L 16.1875 24.835938 L 15.691406 24.246094 C 14.835938 22.910156 14.773438 21.503906 14.695312 19.957031 L 14.667969 19.273438 L 14.625 18.578125 L 14.597656 17.910156 L 14.570312 17.308594 C 14.628906 16.796875 14.628906 16.796875 14.898438 16.417969 C 15.410156 16.054688 15.953125 16.019531 16.5625 15.90625 C 17.492188 15.644531 18.332031 15.199219 19.179688 14.742188 C 19.875 14.386719 20.328125 14.253906 21.113281 14.285156 " fill-opacity="1" fill-rule="nonzero"/><g clip-path="url(#70afb5b3fb)"><path fill="#193049" d="M 46.160156 27.8125 C 46.738281 27.792969 47.3125 27.785156 47.890625 27.785156 L 48.4375 27.785156 C 49.042969 27.785156 49.644531 27.785156 50.246094 27.785156 C 50.664062 27.785156 51.082031 27.785156 51.496094 27.785156 C 52.371094 27.785156 53.246094 27.785156 54.121094 27.785156 C 55.242188 27.789062 56.367188 27.789062 57.492188 27.785156 C 58.351562 27.785156 59.214844 27.785156 60.074219 27.785156 C 60.488281 27.785156 60.902344 27.785156 61.316406 27.785156 C 61.894531 27.785156 62.472656 27.785156 63.050781 27.785156 L 63.578125 27.785156 C 63.980469 27.789062 64.378906 27.800781 64.78125 27.8125 L 64.992188 28.027344 C 65.015625 28.558594 65.023438 29.082031 65.019531 29.617188 L 65.023438 30.066406 C 65.023438 30.445312 65.007812 30.824219 64.992188 31.203125 L 64.78125 31.417969 C 64.203125 31.4375 63.628906 31.445312 63.050781 31.445312 L 62.503906 31.445312 C 61.898438 31.445312 61.296875 31.445312 60.695312 31.445312 C 60.277344 31.445312 59.863281 31.445312 59.445312 31.445312 C 58.570312 31.445312 57.695312 31.445312 56.820312 31.445312 C 55.699219 31.441406 54.574219 31.441406 53.449219 31.445312 C 52.589844 31.445312 51.730469 31.445312 50.867188 31.445312 C 50.453125 31.445312 50.039062 31.445312 49.625 31.445312 C 49.046875 31.445312 48.46875 31.445312 47.890625 31.445312 L 47.367188 31.445312 C 46.964844 31.445312 46.5625 31.429688 46.160156 31.417969 L 45.949219 31.203125 C 45.925781 30.671875 45.917969 30.148438 45.921875 29.617188 L 45.917969 29.164062 C 45.917969 28.785156 45.933594 28.40625 45.949219 28.027344 Z M -32.988281 133.59375 C -32.46875 133.792969 -32.242188 134.03125 -31.878906 134.457031 L -31.511719 134.882812 L -31.136719 135.332031 L -30.75 135.777344 C -30.0625 136.585938 -30.0625 136.585938 -29.8125 136.933594 L -29.8125 137.359375 L -29.390625 137.359375 L -29.058594 137.769531 C -28.59375 138.222656 -28.59375 138.222656 -28.109375 138.339844 C -27.578125 138.421875 -27.175781 138.488281 -26.636719 138.417969 C -25.703125 137.890625 -25.03125 137.257812 -24.324219 136.457031 L -23.777344 135.839844 L -23.253906 135.238281 L -22.785156 134.710938 C -22.445312 134.324219 -22.109375 133.933594 -21.769531 133.542969 C -20.453125 133.726562 -19.417969 134.015625 -18.300781 134.75 C -17.960938 135.027344 -17.960938 135.027344 -17.539062 135.664062 C -17.566406 136.273438 -17.566406 136.273438 -17.75 136.933594 C -18.167969 137.554688 -18.53125 137.949219 -19.164062 138.351562 C -22.257812 139.738281 -25.882812 140.179688 -29.25 139.851562 C -31.773438 139.585938 -34.199219 139.296875 -36.320312 137.792969 L -36.796875 137.359375 C -37.019531 136.628906 -37.019531 136.628906 -37.007812 135.875 C -36.730469 135.320312 -36.730469 135.320312 -36.160156 134.816406 C -33.875 133.492188 -33.875 133.492188 -32.988281 133.59375 M 27.324219 125.917969 C 27.632812 125.90625 27.941406 125.894531 28.25 125.890625 L 28.773438 125.875 L 29.230469 125.917969 L 29.652344 126.339844 C 29.761719 126.953125 29.761719 126.953125 29.824219 127.691406 L 29.894531 128.425781 C 29.863281 129.09375 29.863281 129.09375 29.613281 129.589844 C 29.230469 129.941406 29.230469 129.941406 28.75 130.117188 L 28.238281 130.207031 C 28.066406 130.238281 27.894531 130.269531 27.71875 130.304688 L 27.324219 130.367188 C 27.089844 131.003906 26.914062 131.589844 26.902344 132.273438 C 27.183594 132.6875 27.476562 132.933594 27.878906 133.230469 L 28.171875 133.542969 C 28.269531 134.039062 28.269531 134.039062 28.171875 134.601562 C 27.800781 135.175781 27.800781 135.175781 27.300781 135.742188 L 26.808594 136.316406 L 26.265625 136.722656 C 25.609375 136.703125 25.609375 136.703125 24.996094 136.511719 L 24.363281 136.085938 C 23.554688 136.15625 22.957031 136.347656 22.246094 136.722656 L 22.261719 137.171875 L 22.273438 137.753906 L 22.289062 138.335938 L 22.246094 138.839844 C 21.824219 139.265625 21.824219 139.265625 21.363281 139.398438 C 19.363281 139.78125 19.363281 139.78125 18.4375 139.6875 C 17.875 139.125 17.78125 138.558594 17.566406 137.800781 L 17.378906 137.359375 L 16.746094 136.933594 L 17.378906 134.601562 L 18.4375 134.390625 L 19.152344 134.722656 C 19.890625 135.082031 19.890625 135.082031 20.621094 134.972656 C 21.773438 134.558594 22.695312 133.574219 23.515625 132.695312 C 24.011719 132.046875 24.148438 131.660156 24.257812 130.839844 C 24.273438 130.554688 24.285156 130.265625 24.296875 129.980469 L 24.320312 129.535156 C 24.335938 129.175781 24.347656 128.820312 24.363281 128.457031 L 24.796875 128.332031 C 25.394531 128.132812 25.929688 127.925781 26.480469 127.613281 C 26.902344 127.054688 27.082031 126.582031 27.324219 125.917969 " fill-opacity="1" fill-rule="nonzero"/></g><path fill="#fefefe" d="M 10.394531 19.339844 C 10.402344 20.722656 10.40625 22.109375 10.40625 23.492188 C 10.410156 23.960938 10.410156 24.433594 10.410156 24.90625 C 10.414062 25.582031 10.414062 26.257812 10.417969 26.933594 L 10.417969 28.167969 L 10.421875 28.691406 L 10.394531 29.085938 L 10.183594 29.296875 L 5.953125 29.296875 L 5.953125 19.339844 C 9.761719 19.128906 9.761719 19.128906 10.394531 19.339844 " fill-opacity="1" fill-rule="nonzero"/><g clip-path="url(#696cc92329)"><path fill="#0c2240" d="M 31.558594 29.296875 C 32.050781 29.289062 32.546875 29.289062 33.039062 29.296875 L 33.25 29.507812 C 33.257812 30.003906 33.257812 30.5 33.25 30.992188 C 32.691406 31.273438 32.273438 31.230469 31.648438 31.234375 L 30.046875 31.234375 L 29.167969 31.238281 C 28.371094 31.238281 27.570312 31.238281 26.773438 31.238281 C 26.109375 31.238281 25.441406 31.242188 24.777344 31.242188 C 23.207031 31.242188 21.640625 31.242188 20.070312 31.242188 C 18.449219 31.242188 16.828125 31.246094 15.207031 31.25 C 13.820312 31.25 12.429688 31.253906 11.039062 31.253906 C 10.207031 31.253906 9.378906 31.253906 8.546875 31.253906 C 7.765625 31.257812 6.984375 31.257812 6.203125 31.257812 C 5.777344 31.257812 5.355469 31.257812 4.929688 31.257812 L 3.503906 31.257812 L 2.988281 31.203125 L 2.566406 30.78125 C 2.539062 30.117188 2.539062 30.117188 2.566406 29.507812 L 2.988281 29.933594 L 2.988281 30.570312 L 32.402344 30.355469 L 32.617188 29.507812 L 31.558594 29.507812 Z M -115.941406 117.441406 C -115.589844 117.433594 -115.238281 117.433594 -114.882812 117.441406 L -114.882812 118.078125 L -114.460938 118.078125 L -114.421875 118.511719 L -114.367188 119.082031 C -114.351562 119.269531 -114.335938 119.457031 -114.316406 119.648438 C -114.257812 120.121094 -114.167969 120.585938 -114.039062 121.042969 L -113.601562 121.097656 C -112.792969 121.300781 -112.210938 121.667969 -111.5 122.101562 C -111.789062 122.421875 -111.789062 122.421875 -112.132812 122.738281 L -112.554688 122.738281 L -112.132812 123.585938 C -112.882812 123.367188 -113.472656 123.121094 -114.105469 122.671875 C -114.46875 122.433594 -114.46875 122.433594 -114.882812 122.3125 C -115.851562 122.453125 -116.617188 122.835938 -117.425781 123.375 C -117.859375 123.320312 -117.859375 123.320312 -118.269531 123.160156 L -118.695312 122.738281 C -118.652344 122.3125 -118.652344 122.3125 -118.480469 121.890625 L -117.847656 121.464844 L -117.210938 121.464844 L -117.210938 120.832031 L -117.820312 120.683594 L -118.480469 120.40625 C -118.773438 119.851562 -118.773438 119.851562 -118.90625 119.347656 L -118.480469 118.925781 C -117.597656 118.988281 -116.929688 119.144531 -116.152344 119.558594 L -116.160156 119.148438 L -116.167969 118.621094 L -116.175781 118.089844 L -116.152344 117.652344 Z M -105.574219 117.441406 C -105.042969 117.414062 -105.042969 117.414062 -104.515625 117.441406 L -104.304688 117.652344 C -104.289062 117.976562 -104.285156 118.296875 -104.289062 118.621094 L -104.296875 119.148438 L -104.304688 119.558594 L -103.960938 119.367188 L -103.0625 118.875 C -102.609375 118.710938 -102.609375 118.710938 -102.128906 118.792969 L -101.765625 118.925781 L -101.550781 119.984375 C -102.667969 120.644531 -102.667969 120.644531 -103.035156 120.832031 L -103.457031 120.832031 L -103.457031 121.253906 L -102.96875 121.441406 C -102.398438 121.679688 -102.398438 121.679688 -101.765625 122.101562 C -101.816406 122.5 -101.816406 122.5 -101.976562 122.949219 C -102.34375 123.222656 -102.34375 123.222656 -102.820312 123.375 C -103.335938 123.175781 -103.335938 123.175781 -103.878906 122.855469 C -104.40625 122.535156 -104.40625 122.535156 -104.9375 122.3125 C -105.726562 122.375 -106.414062 122.820312 -107.105469 123.175781 L -107.796875 123.527344 L -108.324219 123.796875 L -108.746094 123.375 L -108.113281 122.738281 L -108.535156 121.890625 L -108.09375 121.714844 C -107.441406 121.402344 -106.953125 121.117188 -106.417969 120.621094 C -106.058594 119.644531 -105.925781 118.679688 -105.785156 117.652344 Z M -9.285156 29.722656 C -8.886719 29.664062 -8.886719 29.664062 -8.4375 29.667969 L -7.988281 29.664062 L -7.59375 29.722656 L -7.167969 30.144531 C -7.234375 30.6875 -7.234375 30.6875 -7.378906 31.203125 L -7.59375 31.417969 C -8.011719 31.4375 -8.433594 31.441406 -8.855469 31.441406 L -9.683594 31.445312 L -11.566406 31.445312 C -12.441406 31.445312 -13.3125 31.445312 -14.1875 31.445312 C -15.101562 31.445312 -16.011719 31.445312 -16.925781 31.445312 C -18.457031 31.445312 -19.988281 31.445312 -21.519531 31.445312 C -23.292969 31.441406 -25.066406 31.441406 -26.84375 31.445312 C -28.363281 31.445312 -29.882812 31.445312 -31.402344 31.445312 C -32.3125 31.445312 -33.222656 31.445312 -34.128906 31.445312 C -34.984375 31.445312 -35.839844 31.445312 -36.695312 31.445312 C -37.007812 31.445312 -37.324219 31.445312 -37.636719 31.445312 C -38.066406 31.445312 -38.492188 31.445312 -38.921875 31.441406 L -39.648438 31.441406 L -40.183594 31.417969 L -40.394531 31.203125 C -40.402344 30.78125 -40.402344 30.355469 -40.394531 29.933594 C -39.777344 30.160156 -39.382812 30.308594 -38.914062 30.78125 C -38.417969 30.84375 -38.417969 30.84375 -37.835938 30.832031 L -37.140625 30.835938 L -36.378906 30.832031 L -35.578125 30.832031 C -34.851562 30.832031 -34.125 30.832031 -33.398438 30.832031 C -32.636719 30.828125 -31.875 30.828125 -31.113281 30.828125 C -29.828125 30.828125 -28.546875 30.828125 -27.265625 30.824219 C -25.789062 30.820312 -24.3125 30.820312 -22.835938 30.820312 C -21.257812 30.820312 -19.683594 30.820312 -18.105469 30.816406 C -17.65625 30.816406 -17.203125 30.816406 -16.753906 30.816406 C -15.902344 30.816406 -15.054688 30.8125 -14.207031 30.8125 L -13.457031 30.8125 C -11.917969 30.804688 -10.398438 30.722656 -8.863281 30.570312 L -9.707031 30.144531 Z M -9.285156 29.722656 " fill-opacity="1" fill-rule="nonzero"/></g><g clip-path="url(#d5dba7e8da)"><path fill="#fefefe" d="M 55.472656 14.890625 L 55.894531 15.949219 C 55.5625 16.320312 55.308594 16.5625 54.847656 16.761719 L 53.976562 17.042969 C 53.496094 17.25 53.253906 17.445312 52.929688 17.855469 C 52.753906 18.339844 52.625 18.828125 52.496094 19.328125 C 52.429688 19.46875 52.363281 19.613281 52.296875 19.761719 C 51.851562 20.035156 51.851562 20.035156 51.449219 20.1875 L 50.605469 19.550781 C 50.699219 18.421875 50.804688 17.542969 51.449219 16.585938 C 52.683594 15.464844 53.773438 14.808594 55.472656 14.890625 M -106.632812 6.492188 C -105.828125 6.535156 -105.199219 6.628906 -104.488281 7.011719 C -103.878906 7.472656 -103.878906 7.472656 -103.457031 8.109375 L -103.457031 8.957031 L -109.804688 8.957031 C -109.402344 7.949219 -109.183594 7.527344 -108.378906 6.875 C -107.773438 6.558594 -107.308594 6.515625 -106.632812 6.492188 " fill-opacity="1" fill-rule="nonzero"/></g><path fill="#fefefe" d="M 24.574219 18.28125 L 25.421875 18.492188 C 25.375 21.335938 25.375 21.335938 24.785156 22.492188 C 24.132812 23.503906 23.269531 24.417969 22.246094 25.058594 C 21.65625 25.105469 21.65625 25.105469 21.1875 25.058594 L 21.1875 24.425781 C 21.519531 24.144531 21.519531 24.144531 21.96875 23.855469 C 22.742188 23.296875 23.261719 22.769531 23.734375 21.941406 C 24.046875 21.199219 24.171875 20.453125 24.285156 19.660156 C 24.355469 19.1875 24.449219 18.738281 24.574219 18.28125 " fill-opacity="1" fill-rule="nonzero"/><g clip-path="url(#a4de18aef4)"><path fill="#0c2240" d="M 52.929688 59.386719 L 53.355469 59.597656 L 52.808594 59.824219 C 52.105469 60.136719 51.457031 60.445312 50.816406 60.867188 C 50.578125 61.265625 50.578125 61.265625 50.550781 61.6875 L 50.605469 62.351562 C 51.449219 62.433594 52.296875 62.5 53.144531 62.5625 L 53.71875 62.621094 C 55.175781 62.710938 56.273438 62.320312 57.578125 61.726562 C 57.929688 61.566406 58.285156 61.429688 58.644531 61.292969 L 59.28125 61.503906 C 58.484375 62.300781 57.414062 62.71875 56.359375 63.078125 C 54.65625 63.523438 52.75 63.40625 51.050781 63.003906 C 50.464844 62.8125 49.898438 62.605469 49.332031 62.351562 L 49.121094 61.292969 Z M 21.1875 8.746094 C 21.949219 9.027344 22.636719 9.34375 23.304688 9.804688 L 23.304688 10.226562 L 23.820312 10.414062 L 24.363281 10.652344 L 24.574219 11.074219 L 25.0625 11.367188 C 25.632812 11.710938 26.011719 12.089844 26.480469 12.558594 L 26.890625 12.757812 C 27.503906 13.074219 27.894531 13.554688 28.382812 14.042969 L 28.804688 14.265625 C 29.347656 14.5625 29.6875 14.824219 30.078125 15.3125 C 30.304688 16.375 30.246094 17.417969 30.195312 18.496094 C 30.1875 18.808594 30.179688 19.121094 30.175781 19.429688 C 30.15625 20.25 30.125 21.066406 30.09375 21.882812 C 30.0625 22.71875 30.042969 23.554688 30.023438 24.386719 C 29.980469 26.027344 29.925781 27.660156 29.863281 29.296875 C 29.441406 28.660156 29.441406 28.660156 29.402344 28.09375 L 29.417969 27.402344 L 29.429688 26.621094 L 29.441406 26.199219 C 29.453125 25.765625 29.460938 25.332031 29.464844 24.898438 C 29.480469 23.664062 29.5 22.433594 29.53125 21.199219 C 29.546875 20.445312 29.558594 19.6875 29.566406 18.933594 C 29.570312 18.507812 29.585938 18.082031 29.597656 17.65625 C 29.601562 16.917969 29.589844 16.25 29.441406 15.523438 C 29.027344 14.933594 28.574219 14.613281 27.960938 14.253906 C 27.703125 14.058594 27.445312 13.863281 27.195312 13.664062 C 26.925781 13.460938 26.65625 13.261719 26.386719 13.0625 L 25.949219 12.734375 C 25.171875 12.152344 24.386719 11.574219 23.601562 10.996094 L 23.128906 10.648438 C 22.828125 10.421875 22.523438 10.203125 22.21875 9.980469 C 21.867188 9.71875 21.527344 9.445312 21.1875 9.167969 Z M 21.1875 8.746094 " fill-opacity="1" fill-rule="nonzero"/></g><g clip-path="url(#cd055ab27d)"><path fill="#0c2240" d="M 66.476562 64.894531 C 67.070312 64.859375 67.574219 64.992188 68.167969 65.105469 L 68.378906 65.316406 C 68.367188 66.03125 68.367188 66.03125 68.167969 66.800781 C 67.476562 67.25 66.941406 67.429688 66.125 67.546875 L 65.335938 67.582031 L 64.539062 67.625 L 63.9375 67.648438 C 64.148438 67.011719 64.148438 67.011719 64.515625 66.648438 L 64.96875 66.269531 C 65.59375 65.746094 65.59375 65.746094 66.15625 65.164062 Z M 6.585938 18.714844 C 6.835938 18.730469 7.085938 18.75 7.339844 18.769531 C 7.589844 18.785156 7.839844 18.804688 8.09375 18.820312 L 8.703125 18.914062 L 8.914062 19.339844 L 5.953125 19.339844 L 5.953125 29.296875 L 5.527344 29.296875 C 5.410156 28.277344 5.300781 27.269531 5.316406 26.238281 C 5.355469 25.492188 5.355469 25.492188 5.105469 24.847656 C 4.960938 24.210938 4.960938 24.210938 4.894531 23.578125 L 5.316406 22.941406 C 5.394531 22.492188 5.394531 22.492188 5.402344 22 L 5.429688 21.453125 L 5.449219 20.886719 L 5.472656 20.316406 C 5.492188 19.847656 5.511719 19.382812 5.527344 18.914062 C 5.953125 18.703125 5.953125 18.703125 6.585938 18.714844 M 31.132812 17.433594 L 31.558594 17.433594 L 31.558594 28.449219 L 30.921875 28.449219 C 30.917969 26.949219 30.914062 25.449219 30.910156 23.945312 C 30.910156 23.4375 30.910156 22.925781 30.90625 22.414062 C 30.902344 21.679688 30.902344 20.949219 30.902344 20.214844 L 30.898438 19.519531 L 30.898438 18.308594 C 30.921875 17.855469 30.921875 17.855469 31.132812 17.433594 M 7.433594 66.589844 L 7.855469 66.589844 L 7.855469 67.011719 C 8.449219 67.152344 9.046875 67.289062 9.640625 67.421875 L 10.144531 67.539062 C 12.066406 67.976562 13.941406 68.117188 15.910156 68.125 L 16.550781 68.128906 C 18.15625 68.113281 19.632812 67.917969 21.191406 67.554688 C 21.824219 67.4375 21.824219 67.4375 22.457031 67.648438 C 22.136719 67.789062 21.816406 67.925781 21.492188 68.058594 L 20.949219 68.289062 C 18.054688 69.273438 14.097656 69.011719 11.136719 68.441406 C 9.804688 68.117188 8.503906 67.695312 7.222656 67.226562 Z M 7.433594 66.589844 " fill-opacity="1" fill-rule="nonzero"/></g><g clip-path="url(#80f811cf9c)"><path fill="#0c2240" d="M 20.339844 8.320312 L 20.765625 8.746094 C 19.195312 10.082031 17.5625 11.316406 15.894531 12.53125 L 15.398438 12.890625 L 14.910156 13.246094 C 14.230469 13.757812 13.574219 14.300781 12.921875 14.847656 L 12.511719 15.101562 L 11.875 14.890625 C 12.734375 14.144531 13.601562 13.410156 14.484375 12.691406 L 15.023438 12.25 L 15.472656 11.921875 L 15.898438 11.921875 L 15.898438 11.5 C 16.214844 11.226562 16.214844 11.226562 16.65625 10.925781 L 17.136719 10.589844 L 17.644531 10.242188 L 18.625 9.558594 L 19.070312 9.253906 C 19.5 8.953125 19.921875 8.640625 20.339844 8.320312 M -30.449219 60.019531 L -30.023438 60.019531 C -30.011719 60.5 -30.003906 60.984375 -29.996094 61.464844 L -29.984375 62.277344 L -30.023438 62.988281 L -30.449219 63.621094 C -31 63.695312 -31 63.695312 -31.691406 63.683594 L -32.441406 63.679688 L -33.226562 63.664062 L -34.015625 63.652344 C -34.660156 63.644531 -35.304688 63.636719 -35.949219 63.621094 L -36.160156 63.199219 C -35.550781 62.996094 -35.171875 62.960938 -34.539062 62.964844 L -33.964844 62.96875 L -33.371094 62.972656 L -32.765625 62.976562 C -32.277344 62.980469 -31.785156 62.984375 -31.292969 62.988281 L -31.292969 62.5625 L -30.871094 62.351562 C -30.726562 61.804688 -30.726562 61.804688 -30.632812 61.171875 L -30.523438 60.523438 Z M -30.449219 60.019531 " fill-opacity="1" fill-rule="nonzero"/></g><g clip-path="url(#e07b51651b)"><path fill="#0c2240" d="M 26.902344 132.695312 C 27.425781 132.941406 27.757812 133.128906 28.171875 133.542969 C 28.253906 134.027344 28.253906 134.027344 28.171875 134.601562 C 27.800781 135.175781 27.800781 135.175781 27.300781 135.742188 C 27.136719 135.933594 26.976562 136.121094 26.808594 136.316406 L 26.265625 136.722656 C 25.609375 136.703125 25.609375 136.703125 24.996094 136.511719 L 24.363281 136.085938 C 23.46875 136.167969 22.664062 136.421875 21.824219 136.722656 L 21.824219 136.085938 C 22.449219 135.816406 23.058594 135.589844 23.726562 135.449219 C 24.203125 135.519531 24.203125 135.519531 24.640625 135.648438 L 25.421875 135.875 C 25.90625 135.710938 25.90625 135.710938 26.265625 135.449219 L 26.902344 135.449219 L 26.996094 135.054688 C 27.113281 134.601562 27.113281 134.601562 27.324219 134.179688 C 27.195312 133.683594 27.054688 133.1875 26.902344 132.695312 M 17.167969 135.664062 C 17.546875 136.234375 17.78125 136.726562 18.027344 137.359375 L 18.246094 137.914062 C 18.386719 138.289062 18.523438 138.671875 18.648438 139.054688 C 18.992188 139.023438 19.335938 138.992188 19.679688 138.960938 L 20.261719 138.90625 C 20.765625 138.867188 20.765625 138.867188 21.1875 138.628906 C 21.332031 138.230469 21.332031 138.230469 21.425781 137.769531 L 21.535156 137.296875 L 21.613281 136.933594 L 22.035156 136.933594 C 22.082031 137.242188 22.125 137.550781 22.167969 137.859375 L 22.242188 138.382812 L 22.246094 138.839844 C 21.824219 139.265625 21.824219 139.265625 21.363281 139.398438 C 19.363281 139.78125 19.363281 139.78125 18.4375 139.6875 C 17.875 139.125 17.78125 138.558594 17.566406 137.800781 L 17.378906 137.359375 L 16.746094 136.933594 Z M -31.082031 29.722656 L -17.117188 29.722656 L -17.117188 29.933594 L -22.40625 30.144531 L -22.40625 30.570312 L -23.253906 30.355469 L -23.253906 29.933594 L -23.472656 30.25 L -23.886719 30.570312 C -24.597656 30.632812 -24.597656 30.632812 -25.40625 30.609375 L -26.222656 30.589844 L -26.851562 30.570312 L -26.851562 30.144531 L -31.082031 29.933594 Z M 21.824219 121.042969 L 22.246094 121.042969 L 22.445312 121.558594 L 22.882812 122.101562 C 23.480469 122.214844 24.050781 122.25 24.660156 122.265625 C 25.210938 122.3125 25.210938 122.3125 25.84375 122.738281 C 25.902344 123.355469 25.921875 123.921875 25.910156 124.539062 L 25.914062 125.042969 C 25.90625 125.476562 25.878906 125.910156 25.84375 126.339844 L 25.421875 126.765625 C 24.917969 126.851562 24.917969 126.851562 24.335938 126.894531 L 23.753906 126.945312 L 23.304688 126.976562 L 23.09375 126.550781 L 24.996094 126.339844 C 25.042969 125.859375 25.085938 125.378906 25.128906 124.898438 L 25.203125 124.085938 L 25.210938 123.375 L 24.785156 122.738281 C 24.242188 122.652344 24.242188 122.652344 23.636719 122.660156 C 23.003906 122.621094 23.003906 122.621094 22.457031 122.527344 C 21.996094 122.011719 21.996094 122.011719 21.824219 121.464844 Z M 62.03125 97.734375 L 62.453125 97.734375 C 62.902344 98.238281 62.902344 98.238281 63.300781 98.796875 L 63.300781 99.21875 L 63.722656 99.21875 C 63.78125 99.792969 63.78125 99.792969 63.722656 100.492188 C 63.34375 101.015625 63.34375 101.015625 62.839844 101.496094 L 62.339844 101.984375 C 61.816406 102.398438 61.402344 102.640625 60.761719 102.820312 C 60.21875 102.570312 60.21875 102.570312 59.703125 102.183594 L 59.253906 101.855469 C 59.121094 101.753906 58.992188 101.652344 58.855469 101.550781 L 58.222656 101.125 L 59.492188 101.125 L 59.492188 101.550781 C 60.117188 101.707031 60.550781 101.804688 61.183594 101.761719 C 61.867188 101.449219 62.386719 101.058594 62.878906 100.492188 C 63.089844 99.84375 63.089844 99.84375 62.878906 99.21875 C 62.472656 98.640625 62.472656 98.640625 62.03125 98.160156 Z M 19.707031 60.65625 L 20.554688 61.078125 C 20.460938 61.570312 20.460938 61.570312 20.128906 62.140625 C 19.109375 62.777344 17.90625 62.835938 16.730469 62.882812 C 14.945312 62.847656 13.308594 62.40625 11.664062 61.714844 L 11.453125 61.292969 C 12.40625 61.378906 13.234375 61.519531 14.140625 61.835938 C 15.414062 62.238281 16.6875 62.269531 18.015625 62.140625 C 18.703125 61.980469 18.703125 61.980469 19.285156 61.714844 C 19.589844 61.183594 19.589844 61.183594 19.707031 60.65625 M -23.675781 56.84375 L -23.253906 56.84375 C -23.242188 57.183594 -23.230469 57.523438 -23.226562 57.863281 L -23.210938 58.4375 C -23.253906 58.960938 -23.253906 58.960938 -23.675781 59.597656 C -24.304688 59.667969 -24.304688 59.667969 -25.105469 59.660156 L -25.53125 59.65625 C -25.980469 59.652344 -26.429688 59.644531 -26.875 59.636719 C -27.179688 59.632812 -27.484375 59.628906 -27.789062 59.628906 C -28.535156 59.621094 -29.277344 59.609375 -30.023438 59.597656 L -30.234375 59.171875 C -28.605469 59.003906 -27.015625 58.953125 -25.375 59.015625 C -24.734375 59.003906 -24.734375 59.003906 -24.234375 58.691406 L -23.886719 58.324219 C -23.714844 57.5625 -23.714844 57.5625 -23.675781 56.84375 " fill-opacity="1" fill-rule="nonzero"/></g><g clip-path="url(#8f550a74bf)"><path fill="#0c2240" d="M -36.160156 134.816406 L -35.738281 135.027344 L -36.070312 135.371094 C -36.425781 135.867188 -36.425781 135.867188 -36.386719 136.511719 C -36.207031 137.179688 -36.207031 137.179688 -35.644531 137.609375 C -34.851562 138.015625 -34.097656 138.246094 -33.234375 138.457031 L -32.773438 138.628906 L -32.351562 139.265625 C -33.867188 139.136719 -35.078125 138.605469 -36.371094 137.820312 C -36.796875 137.359375 -36.796875 137.359375 -37.019531 136.628906 L -37.007812 135.875 C -36.597656 135.253906 -36.597656 135.253906 -36.160156 134.816406 M -33.621094 16.585938 L -32.988281 16.585938 C -33.203125 17.164062 -33.429688 17.671875 -33.753906 18.199219 L -34.046875 18.703125 L -34.046875 19.339844 C -33.488281 19.617188 -33.042969 19.597656 -32.421875 19.617188 L -31.703125 19.644531 L -30.949219 19.671875 L -30.191406 19.699219 C -29.570312 19.71875 -28.949219 19.742188 -28.332031 19.761719 L -28.332031 19.976562 C -29.230469 19.988281 -30.128906 19.996094 -31.03125 20 L -31.804688 20.011719 L -32.546875 20.015625 L -33.230469 20.023438 C -33.828125 19.976562 -34.171875 19.859375 -34.679688 19.550781 C -34.613281 18.574219 -34.539062 17.984375 -34.070312 17.113281 Z M 22.457031 130.578125 L 23.09375 130.578125 C 23.046875 131.035156 23.046875 131.035156 22.882812 131.636719 C 22.449219 132.210938 22.449219 132.210938 21.902344 132.777344 L 21.363281 133.351562 C 21.167969 133.484375 20.96875 133.617188 20.765625 133.757812 C 20 133.746094 20 133.746094 19.285156 133.542969 C 18.777344 133.242188 18.445312 132.894531 18.015625 132.484375 C 18.648438 132.484375 18.648438 132.484375 19.269531 132.828125 L 19.917969 133.121094 C 20.371094 133.035156 20.371094 133.035156 20.765625 132.695312 L 21.425781 132.207031 C 22.054688 131.6875 22.054688 131.6875 22.324219 131.042969 Z M 14.628906 118.710938 C 15.914062 119.09375 16.953125 119.691406 17.933594 120.605469 C 18.460938 121.175781 18.640625 121.445312 18.859375 122.207031 L 18.859375 122.738281 L 18.503906 122.289062 L 18.015625 121.679688 L 17.523438 121.03125 C 16.8125 120.25 16.105469 119.769531 15.089844 119.433594 C 14.488281 119.320312 13.914062 119.328125 13.304688 119.335938 L 12.613281 119.339844 L 12.089844 119.347656 L 11.875 118.925781 C 12.8125 118.613281 13.652344 118.597656 14.628906 118.710938 M 11.453125 135.027344 L 11.664062 135.449219 C 12.238281 135.515625 12.796875 135.558594 13.371094 135.582031 L 13.859375 135.609375 C 14.253906 135.628906 14.652344 135.644531 15.050781 135.664062 L 15.261719 135.027344 L 15.898438 135.238281 L 15.898438 136.085938 C 14.464844 136.34375 12.851562 136.554688 11.453125 136.085938 Z M 26.480469 62.351562 L 26.902344 62.351562 C 26.789062 63.476562 26.449219 64.371094 25.84375 65.316406 C 25.054688 66.28125 24.257812 66.953125 23.09375 67.4375 L 23.09375 66.800781 C 23.425781 66.511719 23.425781 66.511719 23.875 66.21875 C 24.738281 65.597656 25.332031 64.980469 25.84375 64.046875 C 26.085938 63.488281 26.285156 62.933594 26.480469 62.351562 M 11.664062 53.664062 L 12.300781 53.875 L 12.300781 54.300781 L 12.65625 54.464844 C 13.40625 54.859375 14.066406 55.375 14.746094 55.875 C 15.222656 56.179688 15.5625 56.324219 16.109375 56.417969 L 16.109375 56.84375 L 16.511719 56.957031 L 17.035156 57.121094 L 17.554688 57.277344 L 18.015625 57.476562 L 18.4375 58.113281 C 15.980469 57.347656 13.832031 56.113281 11.933594 54.390625 L 11.664062 54.085938 Z M -111.710938 129.519531 L -111.285156 129.730469 C -111.578125 130.152344 -111.578125 130.152344 -111.921875 130.578125 L -112.34375 130.578125 L -112.34375 131.214844 L -111.074219 131 L -111.074219 131.425781 C -111.644531 131.757812 -111.644531 131.757812 -112.34375 132.0625 C -112.953125 131.996094 -112.953125 131.996094 -113.402344 131.847656 L -113.613281 131 Z M 19.496094 115.746094 C 20.167969 115.796875 20.578125 115.972656 21.167969 116.3125 L 21.785156 116.753906 L 22.410156 117.1875 L 22.882812 117.652344 C 22.984375 118.203125 22.984375 118.203125 22.882812 118.710938 C 22.351562 119.308594 22.351562 119.308594 21.824219 119.773438 L 21.613281 119.347656 L 21.824219 118.964844 C 22.070312 118.503906 22.070312 118.503906 22.035156 117.96875 C 21.851562 117.390625 21.851562 117.390625 21.28125 116.964844 C 20.421875 116.527344 19.8125 116.445312 18.859375 116.382812 C 19.113281 116.050781 19.113281 116.050781 19.496094 115.746094 M 44.464844 99.429688 L 44.738281 99.800781 C 45.089844 100.265625 45.453125 100.71875 45.828125 101.164062 L 46.199219 101.613281 C 46.558594 101.996094 46.558594 101.996094 47.015625 102.148438 L 47.429688 102.183594 C 48.003906 101.925781 48.003906 101.925781 48.488281 101.550781 L 48.699219 101.125 L 49.332031 101.125 C 49.203125 101.496094 49.203125 101.496094 48.910156 101.972656 C 48.316406 102.464844 48.316406 102.464844 47.640625 102.820312 C 47.140625 102.800781 47.140625 102.800781 46.582031 102.609375 C 46.023438 102.15625 46.023438 102.15625 45.472656 101.589844 L 44.914062 101.027344 C 44.464844 100.492188 44.464844 100.492188 44.285156 100.011719 L 44.253906 99.644531 Z M 44.464844 99.429688 " fill-opacity="1" fill-rule="nonzero"/></g><g clip-path="url(#68c25b46b0)"><path fill="#0c2240" d="M -71.925781 115.535156 C -71.449219 115.589844 -71.449219 115.589844 -70.867188 115.746094 C -69.507812 116.875 -68.675781 118.421875 -67.90625 119.984375 C -68.289062 119.835938 -68.289062 119.835938 -68.75 119.558594 C -69.066406 119.097656 -69.066406 119.097656 -69.359375 118.554688 C -69.910156 117.589844 -70.453125 116.894531 -71.289062 116.167969 L -71.925781 115.957031 Z M 15.472656 49.851562 C 15.992188 49.902344 16.496094 49.96875 17.007812 50.050781 C 17.992188 50.195312 18.925781 50.300781 19.917969 50.273438 L 19.917969 50.699219 C 18.28125 50.722656 16.679688 50.691406 15.050781 50.484375 L 15.050781 50.910156 L 14.417969 50.699219 C 14.761719 50.335938 15.023438 50.074219 15.472656 49.851562 M -71.078125 26.96875 L -70.339844 27.074219 C -68.828125 27.246094 -67.304688 27.195312 -65.789062 27.179688 C -65.996094 27.492188 -65.996094 27.492188 -66.421875 27.8125 C -67.011719 27.871094 -67.601562 27.894531 -68.195312 27.878906 L -68.679688 27.882812 C -69.570312 27.875 -70.265625 27.796875 -71.078125 27.390625 Z M -114.882812 128.457031 L -114.460938 128.457031 C -114.441406 128.953125 -114.445312 129.449219 -114.460938 129.941406 L -114.882812 130.578125 C -115.238281 130.515625 -115.589844 130.441406 -115.941406 130.367188 L -116.152344 130.152344 C -116.164062 129.800781 -116.164062 129.449219 -116.152344 129.09375 L -115.097656 128.882812 L -115.308594 129.519531 L -114.882812 129.519531 Z M -43.566406 101.761719 L -43.144531 101.972656 L -42.722656 103.246094 L -39.96875 103.246094 L -39.757812 103.667969 C -40.355469 103.675781 -40.949219 103.679688 -41.542969 103.683594 L -42.058594 103.6875 C -42.492188 103.6875 -42.925781 103.679688 -43.355469 103.667969 L -43.566406 103.457031 C -43.597656 102.890625 -43.578125 102.328125 -43.566406 101.761719 M -28.332031 15.523438 L -28.332031 15.949219 L -28.691406 15.960938 C -29.226562 15.980469 -29.765625 16.003906 -30.300781 16.027344 L -30.867188 16.046875 L -31.410156 16.074219 L -31.910156 16.09375 C -32.414062 16.140625 -32.414062 16.140625 -32.988281 16.585938 L -33.199219 16.160156 L -32.988281 15.738281 C -31.394531 15.230469 -29.976562 15.335938 -28.332031 15.523438 M -103.035156 127.1875 C -102.53125 127.359375 -102.53125 127.359375 -101.976562 127.613281 L -101.550781 128.246094 L -101.976562 129.09375 L -103.457031 128.882812 L -103.457031 128.246094 L -103.035156 128.457031 L -103.246094 127.824219 L -102.820312 127.824219 Z M 27.324219 125.917969 C 27.632812 125.90625 27.941406 125.894531 28.25 125.890625 L 28.773438 125.875 L 29.230469 125.917969 L 29.652344 126.339844 L 29.652344 127.1875 L 29.269531 126.988281 C 28.789062 126.742188 28.789062 126.742188 28.171875 126.550781 L 27.535156 126.976562 L 26.902344 126.765625 Z M -76.792969 118.925781 C -76.480469 119.859375 -76.570312 120.804688 -76.589844 121.78125 C -76.597656 122.761719 -76.53125 123.679688 -76.371094 124.644531 C -76.792969 124.222656 -76.792969 124.222656 -77.03125 123.492188 C -77.34375 122.132812 -77.367188 120.761719 -77.003906 119.414062 Z M -76.792969 118.925781 " fill-opacity="1" fill-rule="nonzero"/></g><g clip-path="url(#c75e60c886)"><path fill="#0c2240" d="M 13.6875 113.375 L 14.417969 113.367188 C 15.050781 113.414062 15.050781 113.414062 15.6875 113.839844 C 15.726562 114.394531 15.726562 114.394531 15.6875 114.898438 L 15.050781 114.6875 L 15.050781 114.050781 L 11.664062 114.050781 L 11.453125 113.628906 C 12.203125 113.398438 12.90625 113.378906 13.6875 113.375 M 62.878906 85.445312 L 63.722656 85.871094 C 63.804688 86.308594 63.804688 86.308594 63.722656 86.929688 C 63.34375 87.46875 62.910156 87.941406 62.453125 88.414062 L 61.820312 88.199219 C 61.894531 88.109375 61.972656 88.015625 62.050781 87.921875 C 62.355469 87.53125 62.632812 87.148438 62.878906 86.71875 C 62.96875 86.019531 62.96875 86.019531 62.878906 85.445312 M -118.269531 124.644531 C -117.53125 124.699219 -117.53125 124.699219 -116.789062 124.855469 L -116.367188 125.28125 L -117.636719 125.070312 L -117.636719 125.917969 L -117.210938 126.550781 L -118.480469 126.128906 C -118.613281 125.625 -118.613281 125.625 -118.695312 125.070312 Z M -14.363281 47.308594 C -13.605469 47.628906 -13.105469 48.078125 -12.527344 48.660156 L -12.019531 49.152344 C -11.613281 49.636719 -11.613281 49.636719 -11.449219 50.125 L -11.402344 50.484375 C -11.773438 50.710938 -11.773438 50.710938 -12.246094 50.910156 C -12.722656 50.832031 -12.722656 50.832031 -13.09375 50.699219 L -13.09375 50.484375 L -12.035156 50.273438 C -12.523438 49.292969 -13.238281 48.621094 -14.015625 47.875 L -14.363281 47.519531 Z M 33.886719 15.949219 L 33.675781 17.007812 C 33.09375 17.246094 33.09375 17.246094 32.402344 17.433594 C 31.902344 17.246094 31.902344 17.246094 31.558594 17.007812 C 31.785156 16.828125 32.015625 16.652344 32.246094 16.480469 L 32.632812 16.179688 C 33.039062 15.949219 33.039062 15.949219 33.886719 15.949219 M -21.769531 53.664062 L -20.925781 53.664062 L -20.925781 55.570312 L -22.195312 55.570312 L -22.195312 55.148438 L -21.769531 55.148438 L -21.890625 54.523438 L -21.984375 53.875 Z M -21.769531 53.664062 " fill-opacity="1" fill-rule="nonzero"/></g><g clip-path="url(#ccbd3eb556)"><path fill="#0c2240" d="M 12.089844 137.359375 L 14.839844 137.570312 L 14.839844 137.992188 L 14.203125 138.417969 C 13.410156 138.347656 12.78125 138.179688 12.089844 137.78125 Z M 2.355469 16.796875 L 2.566406 17.21875 L 2.355469 17.855469 L 2.566406 18.492188 C 3.308594 18.753906 3.308594 18.753906 4.046875 18.914062 L 4.046875 19.339844 L 2.140625 19.128906 C 1.890625 18.558594 1.890625 18.558594 1.71875 17.855469 C 2.011719 17.246094 2.011719 17.246094 2.355469 16.796875 M 42.140625 94.558594 L 42.773438 94.980469 C 43.378906 95.109375 43.984375 95.195312 44.59375 95.285156 L 45.101562 95.40625 L 45.3125 95.828125 L 42.351562 95.617188 Z M 17.589844 134.390625 C 18.558594 134.507812 19.277344 134.773438 20.128906 135.238281 L 19.496094 135.449219 L 18.992188 135.34375 C 18.382812 135.230469 17.972656 135.296875 17.378906 135.449219 Z M -103.035156 124.644531 L -101.976562 124.855469 L -101.765625 125.703125 C -102.359375 126.140625 -102.359375 126.140625 -103.035156 126.550781 L -103.667969 126.339844 L -103.257812 125.957031 C -102.777344 125.511719 -102.777344 125.511719 -102.609375 124.855469 Z M -13.09375 97.734375 L -10.132812 98.371094 L -10.132812 97.949219 L -9.707031 97.949219 L -9.921875 98.796875 C -11.1875 98.863281 -11.960938 98.726562 -13.09375 98.160156 Z M 11.664062 63.621094 L 17.800781 64.046875 L 17.800781 64.257812 C 17.160156 64.304688 16.515625 64.347656 15.871094 64.390625 L 15.324219 64.433594 C 14.28125 64.496094 13.488281 64.472656 12.511719 64.046875 Z M -61.132812 99.007812 L -60.710938 99.007812 C -60.929688 99.761719 -61.246094 100.222656 -61.792969 100.769531 L -62.402344 101.335938 L -63.039062 101.125 L -62.5625 100.664062 C -61.976562 100.085938 -61.976562 100.085938 -61.515625 99.46875 Z M -14.789062 96.464844 C -14.273438 96.886719 -14.273438 96.886719 -13.941406 97.3125 L -14.273438 97.207031 C -15.226562 97.011719 -16.183594 97.011719 -17.117188 97.3125 L -17.328125 96.886719 C -16.453125 96.464844 -15.753906 96.359375 -14.789062 96.464844 M 54.625 87.777344 C 56.246094 88.019531 56.246094 88.019531 56.9375 88.464844 C 57.234375 88.71875 57.519531 88.988281 57.796875 89.261719 L 57.585938 89.683594 L 57.269531 89.46875 C 56.328125 88.847656 55.511719 88.453125 54.414062 88.199219 Z M 54.625 87.777344 " fill-opacity="1" fill-rule="nonzero"/></g><g clip-path="url(#6a73c437c3)"><path fill="#0c2240" d="M -60.074219 94.34375 L -59.441406 94.34375 C -59.421875 94.839844 -59.421875 95.335938 -59.441406 95.828125 L -59.863281 96.464844 C -60.027344 95.742188 -60.09375 95.085938 -60.074219 94.34375 M -75.3125 93.285156 L -75.097656 93.285156 L -75.105469 93.828125 C -75.109375 94.058594 -75.109375 94.292969 -75.113281 94.53125 L -75.121094 95.230469 C -75.140625 95.820312 -75.140625 95.820312 -74.886719 96.253906 C -75.085938 96.703125 -75.085938 96.703125 -75.3125 97.101562 C -75.539062 96.417969 -75.550781 95.910156 -75.550781 95.191406 L -75.550781 94.519531 C -75.523438 93.921875 -75.523438 93.921875 -75.3125 93.285156 M 61.820312 60.65625 L 61.609375 61.292969 L 59.492188 61.503906 L 59.28125 61.078125 C 60.105469 60.527344 60.863281 60.625 61.820312 60.65625 M -30.871094 136.296875 C -30.460938 136.472656 -30.460938 136.472656 -30.023438 136.722656 L -29.8125 137.359375 L -29.390625 137.359375 C -29.046875 137.78125 -29.046875 137.78125 -28.753906 138.207031 L -29.601562 138.207031 C -29.960938 137.84375 -29.960938 137.84375 -30.289062 137.371094 L -30.621094 136.902344 L -30.871094 136.511719 Z M 44.464844 85.871094 C 45.015625 86.695312 45.511719 87.523438 45.949219 88.414062 C 45.703125 88.222656 45.460938 88.027344 45.21875 87.832031 C 45.085938 87.722656 44.949219 87.613281 44.8125 87.503906 C 44.464844 87.140625 44.464844 87.140625 44.300781 86.703125 L 44.253906 86.292969 Z M 64.570312 30.144531 L 64.992188 30.144531 C 65.003906 30.5 65.003906 30.851562 64.992188 31.203125 L 64.78125 31.417969 C 64.359375 31.425781 63.9375 31.425781 63.511719 31.417969 C 63.855469 30.984375 64.207031 30.558594 64.570312 30.144531 M -32.140625 57.691406 L -31.71875 57.902344 L -31.929688 60.445312 L -32.140625 60.445312 C -32.179688 60.023438 -32.222656 59.605469 -32.257812 59.1875 L -32.328125 58.480469 L -32.351562 57.902344 Z M -60.285156 97.101562 L -59.863281 97.101562 C -59.980469 97.808594 -60.148438 98.378906 -60.496094 99.007812 L -60.921875 98.582031 Z M 46.792969 83.539062 C 47.375 83.578125 47.375 83.578125 48.0625 83.75 C 48.566406 84.292969 48.566406 84.292969 48.910156 84.8125 L 48.582031 84.625 C 47.933594 84.324219 47.269531 84.148438 46.582031 83.964844 Z M 52.929688 81.207031 C 53.417969 81.199219 53.902344 81.1875 54.386719 81.183594 L 55.203125 81.167969 L 55.894531 81.207031 L 56.316406 81.632812 L 55.683594 81.84375 L 55.257812 81.632812 C 54.863281 81.585938 54.464844 81.546875 54.070312 81.511719 L 53.425781 81.460938 L 52.929688 81.421875 Z M 52.929688 81.207031 " fill-opacity="1" fill-rule="nonzero"/></g><g clip-path="url(#12930976d7)"><path fill="#0c2240" d="M -59.015625 26.332031 L -58.382812 26.332031 L -58.382812 26.753906 C -58.707031 27.027344 -58.707031 27.027344 -59.121094 27.3125 L -59.539062 27.597656 L -59.863281 27.8125 L -59.863281 27.179688 C -59.480469 26.714844 -59.480469 26.714844 -59.015625 26.332031 M 22.246094 126.976562 L 22.667969 126.976562 L 22.035156 128.882812 L 21.613281 128.671875 C 22.007812 127.453125 22.007812 127.453125 22.246094 126.976562 M 49.546875 43.917969 L 52.71875 44.128906 L 52.71875 44.339844 C 50.8125 44.617188 50.8125 44.617188 49.941406 44.355469 L 49.546875 44.128906 Z M 49.546875 43.917969 " fill-opacity="1" fill-rule="nonzero"/></g></svg>