<svg xmlns="http://www.w3.org/2000/svg" xmlns:xlink="http://www.w3.org/1999/xlink" width="48" zoomAndPan="magnify" viewBox="0 0 36 36.000001" height="48" preserveAspectRatio="xMidYMid meet" version="1.0"><defs><clipPath id="0e1dca0268"><path d="M 0.488281 0 L 35.511719 0 L 35.511719 35.027344 L 0.488281 35.027344 Z M 0.488281 0 " clip-rule="nonzero"/></clipPath><clipPath id="49ad8385e5"><path d="M 6 5 L 35.511719 5 L 35.511719 35.027344 L 6 35.027344 Z M 6 5 " clip-rule="nonzero"/></clipPath><clipPath id="c0548e88fd"><path d="M 2 0 L 35.511719 0 L 35.511719 35.027344 L 2 35.027344 Z M 2 0 " clip-rule="nonzero"/></clipPath><clipPath id="2254d78949"><path d="M 0.488281 0 L 35.511719 0 L 35.511719 35.027344 L 0.488281 35.027344 Z M 0.488281 0 " clip-rule="nonzero"/></clipPath><clipPath id="7c39a5a468"><path d="M 6 0 L 33 0 L 33 35.027344 L 6 35.027344 Z M 6 0 " clip-rule="nonzero"/></clipPath><clipPath id="664bfe7eab"><path d="M 0.488281 0 L 35.511719 0 L 35.511719 35.027344 L 0.488281 35.027344 Z M 0.488281 0 " clip-rule="nonzero"/></clipPath><clipPath id="502c675da6"><path d="M 8 0 L 35.511719 0 L 35.511719 35.027344 L 8 35.027344 Z M 8 0 " clip-rule="nonzero"/></clipPath><clipPath id="23bf0da72e"><path d="M 25 0 L 35.511719 0 L 35.511719 35.027344 L 25 35.027344 Z M 25 0 " clip-rule="nonzero"/></clipPath></defs><g clip-path="url(#0e1dca0268)"><rect x="-3.6" width="43.2" fill="#fefefe" y="-3.6" height="43.200001" fill-opacity="1"/><path fill="#cf1b15" d="M 64.3125 81.261719 C 65.855469 82.023438 67.40625 83.121094 68.46875 84.492188 C 69.46875 86.082031 70.207031 87.695312 70.3125 89.582031 C 70.339844 91.808594 69.703125 93.722656 68.714844 95.703125 C 68.003906 96.953125 67.140625 98.113281 66.300781 99.28125 L 65.960938 99.753906 C 65.683594 100.132812 65.390625 100.5 65.089844 100.863281 L 64.628906 100.863281 L 64.472656 101.355469 C 64.101562 102.164062 63.617188 102.703125 63.015625 103.351562 L 62.398438 104.035156 L 61.863281 104.546875 L 61.402344 104.546875 L 60.941406 105.46875 C 60.511719 105.410156 60.511719 105.410156 60.019531 105.238281 C 59.863281 104.933594 59.710938 104.625 59.558594 104.316406 L 59.144531 104.128906 C 58.472656 103.769531 58.128906 103.300781 57.660156 102.707031 L 57.164062 102.085938 L 56.792969 101.554688 L 56.792969 101.09375 L 56.332031 101.09375 C 56.050781 100.773438 56.050781 100.773438 55.730469 100.320312 L 55.378906 99.820312 L 55.007812 99.28125 L 54.628906 98.738281 C 51.472656 94.167969 51.472656 94.167969 51.03125 91.429688 C 50.886719 89.421875 51.136719 87.886719 51.960938 86.070312 C 52.816406 84.386719 54.046875 83.09375 55.613281 82.035156 C 58.152344 80.585938 61.539062 80.269531 64.3125 81.261719 M 103.808594 41.484375 C 105.726562 41.9375 107.28125 42.679688 108.789062 43.953125 C 109.699219 44.820312 110.460938 45.753906 111.183594 46.777344 L 111.523438 47.238281 C 112.976562 49.5 113.320312 52.667969 113.488281 55.292969 C 114.058594 54.972656 114.058594 54.972656 114.640625 54.375 C 115.355469 53.042969 115.683594 51.726562 115.792969 50.230469 C 116.210938 50.289062 116.210938 50.289062 116.714844 50.460938 C 117.273438 51.085938 117.675781 51.8125 118.097656 52.53125 L 118.417969 53.078125 C 119.464844 55 119.964844 57.050781 120.027344 59.234375 C 119.96875 61.246094 119.417969 62.976562 118.417969 64.714844 C 117.28125 66.414062 115.863281 67.320312 114.0625 68.253906 C 113.109375 68.695312 112.242188 68.996094 111.183594 69.105469 L 111.183594 68.644531 L 111.644531 68.644531 L 111.644531 68.183594 L 112.179688 67.695312 C 112.761719 67.070312 113.105469 66.5625 113.371094 65.75 C 113.660156 64.367188 113.722656 62.914062 113.28125 61.5625 C 113.121094 61.210938 112.949219 60.863281 112.769531 60.519531 C 112.566406 60.128906 112.566406 60.128906 112.566406 59.667969 L 112.105469 59.667969 L 112.03125 60.078125 C 111.816406 61.144531 111.59375 61.988281 110.953125 62.890625 C 110.535156 62.832031 110.535156 62.832031 110.03125 62.660156 C 109.160156 61.710938 108.929688 60.558594 108.601562 59.34375 C 108.1875 57.472656 108.410156 55.984375 108.957031 54.15625 L 109.109375 53.683594 C 107.632812 54.390625 106.59375 55.328125 105.652344 56.675781 C 104.769531 58.53125 104.367188 60.382812 104.5 62.429688 C 104.628906 63.277344 104.785156 64.121094 104.960938 64.960938 C 104.425781 64.902344 104.425781 64.902344 103.808594 64.730469 C 103.460938 64.3125 103.460938 64.3125 103.191406 63.808594 C 103.019531 63.5 102.84375 63.191406 102.65625 62.890625 L 102.195312 62.660156 C 101.925781 64.007812 101.828125 65.253906 102.125 66.601562 C 102.5 67.425781 102.972656 67.972656 103.578125 68.644531 L 103.347656 69.105469 C 101.121094 68.167969 99.421875 66.972656 97.816406 65.191406 C 97.25 64.382812 96.824219 63.566406 96.433594 62.660156 L 96.199219 62.183594 C 95.445312 60.421875 95.570312 58.320312 95.742188 56.445312 C 96.1875 53.804688 97.363281 51.777344 99.042969 49.726562 C 99.246094 49.515625 99.449219 49.300781 99.660156 49.082031 L 100.121094 49.082031 L 100.078125 49.742188 C 100.082031 50.859375 100.320312 51.988281 100.8125 52.992188 C 101.277344 53.296875 101.277344 53.296875 101.734375 53.453125 L 101.964844 52.53125 L 102.425781 52.53125 L 102.597656 52.085938 C 102.761719 51.691406 102.925781 51.300781 103.105469 50.917969 C 104.070312 48.871094 104.441406 46.972656 104.269531 44.707031 C 104.171875 44.164062 104.050781 43.621094 103.910156 43.085938 C 103.789062 42.542969 103.773438 42.039062 103.808594 41.484375 M -28.234375 -32.492188 L -27.578125 -32.496094 C -27.121094 -32.5 -26.664062 -32.5 -26.207031 -32.496094 C -25.515625 -32.496094 -24.820312 -32.5 -24.128906 -32.507812 C -23.683594 -32.507812 -23.238281 -32.507812 -22.789062 -32.507812 L -22.171875 -32.515625 C -20.695312 -32.5 -19.398438 -32.214844 -18.105469 -31.472656 C -17.457031 -30.8125 -16.882812 -30.136719 -16.601562 -29.238281 C -16.460938 -28.546875 -16.433594 -27.875 -16.40625 -27.171875 L -16.382812 -26.707031 C -16.363281 -26.203125 -16.339844 -25.699219 -16.320312 -25.195312 L -16.273438 -24.140625 C -16.242188 -23.40625 -16.210938 -22.667969 -16.179688 -21.933594 C -16.140625 -20.992188 -16.101562 -20.050781 -16.0625 -19.109375 C -15.992188 -17.550781 -15.929688 -15.988281 -15.863281 -14.429688 L -15.828125 -13.59375 L -15.804688 -12.832031 L -15.769531 -12.070312 L -15.804688 -11.449219 L -16.261719 -10.988281 L -17.183594 -10.988281 C -17.472656 -12.519531 -17.4375 -14.039062 -17.414062 -15.59375 L -17.886719 -15.566406 L -18.511719 -15.550781 L -19.125 -15.523438 C -19.71875 -15.59375 -19.71875 -15.59375 -20.257812 -15.910156 L -20.640625 -16.28125 L -20.640625 -16.742188 L -30.320312 -16.511719 L -30.78125 -14.441406 L -32.164062 -14.441406 L -32.164062 -15.59375 L -33.546875 -15.59375 L -33.546875 -10.988281 L -34.929688 -11.21875 L -34.929688 -11.679688 L -35.390625 -11.679688 C -35.414062 -13.097656 -35.414062 -13.097656 -35.390625 -13.519531 L -35.160156 -13.75 C -35.105469 -14.375 -35.0625 -14.996094 -35.03125 -15.621094 L -35.003906 -16.203125 C -34.917969 -17.996094 -34.917969 -19.78125 -34.941406 -21.574219 C -34.949219 -22.734375 -34.902344 -23.847656 -34.757812 -24.996094 C -34.703125 -25.480469 -34.671875 -25.960938 -34.652344 -26.449219 L -34.632812 -26.914062 C -34.621094 -27.222656 -34.609375 -27.53125 -34.601562 -27.84375 C -34.550781 -28.902344 -34.332031 -29.644531 -33.777344 -30.550781 C -32.167969 -32.160156 -30.441406 -32.5 -28.234375 -32.492188 " fill-opacity="1" fill-rule="nonzero"/></g><g clip-path="url(#49ad8385e5)"><path fill="#193049" d="M 72.464844 5.8125 C 72.882812 5.839844 72.882812 5.839844 73.386719 6.042969 C 74.023438 6.601562 74.023438 6.601562 74.539062 7.191406 L 74.539062 7.652344 L 74.925781 7.8125 C 75.613281 8.199219 76.101562 8.679688 76.65625 9.234375 L 77.273438 9.835938 C 77.765625 10.414062 77.765625 10.414062 77.953125 10.949219 L 77.996094 11.335938 C 77.386719 11.671875 77.101562 11.796875 76.382812 11.796875 L 76.382812 28.367188 L 79.378906 28.367188 L 79.839844 28.597656 C 79.871094 29.921875 79.871094 29.921875 79.609375 30.4375 C 75.046875 30.445312 70.484375 30.449219 65.921875 30.449219 C 63.800781 30.449219 61.683594 30.453125 59.5625 30.457031 C 57.71875 30.457031 55.871094 30.460938 54.027344 30.460938 C 53.046875 30.460938 52.070312 30.460938 51.089844 30.460938 C 50.171875 30.464844 49.253906 30.464844 48.332031 30.464844 C 47.996094 30.464844 47.65625 30.464844 47.316406 30.464844 C 46.855469 30.464844 46.398438 30.464844 45.9375 30.464844 L 45.15625 30.464844 L 44.578125 30.4375 L 44.347656 30.207031 C 44.339844 29.671875 44.339844 29.132812 44.347656 28.597656 C 45.054688 28.242188 45.792969 28.34375 46.566406 28.351562 L 47.058594 28.355469 C 47.460938 28.359375 47.863281 28.363281 48.265625 28.367188 L 48.257812 27.828125 C 48.234375 25.050781 48.234375 25.050781 48.496094 23.761719 C 49.1875 23.304688 49.1875 23.304688 49.816406 23.25 C 50.066406 23.253906 50.3125 23.253906 50.566406 23.257812 L 51.378906 23.261719 L 52.226562 23.273438 L 53.085938 23.28125 C 53.785156 23.285156 54.480469 23.292969 55.179688 23.304688 L 55.164062 22.464844 C 55.160156 22.101562 55.15625 21.738281 55.152344 21.375 L 55.140625 20.820312 C 55.136719 20.34375 55.15625 19.867188 55.179688 19.390625 L 55.640625 18.929688 C 56.308594 18.855469 56.308594 18.855469 57.148438 18.835938 L 58.058594 18.808594 L 59.011719 18.785156 L 59.972656 18.757812 C 60.757812 18.738281 61.542969 18.71875 62.324219 18.699219 L 62.410156 17.910156 L 62.527344 16.886719 L 62.582031 16.367188 C 62.636719 15.914062 62.710938 15.464844 62.785156 15.019531 L 63.246094 14.558594 C 64.71875 14.238281 66.148438 14.34375 67.625 14.558594 L 67.625 16.859375 L 65.089844 16.859375 L 65.105469 17.640625 C 65.113281 17.980469 65.117188 18.316406 65.121094 18.65625 C 65.125 18.828125 65.128906 18.996094 65.132812 19.171875 C 65.136719 19.628906 65.113281 20.085938 65.089844 20.542969 L 64.628906 21.230469 C 63.941406 21.308594 63.941406 21.308594 63.074219 21.300781 L 62.609375 21.296875 C 62.121094 21.292969 61.632812 21.285156 61.144531 21.273438 C 60.8125 21.269531 60.480469 21.269531 60.152344 21.265625 C 59.339844 21.257812 58.527344 21.246094 57.714844 21.230469 L 57.730469 22.011719 C 57.738281 22.351562 57.742188 22.691406 57.746094 23.03125 C 57.75 23.199219 57.753906 23.371094 57.757812 23.542969 C 57.761719 24 57.738281 24.457031 57.714844 24.914062 L 57.253906 25.605469 C 56.609375 25.683594 56.609375 25.683594 55.796875 25.671875 L 54.921875 25.664062 L 54 25.648438 C 53.691406 25.644531 53.382812 25.640625 53.074219 25.636719 C 52.316406 25.628906 51.558594 25.617188 50.800781 25.605469 C 50.796875 25.980469 50.792969 26.351562 50.789062 26.726562 L 50.78125 27.359375 C 50.765625 27.910156 50.765625 27.910156 51.03125 28.367188 L 69.007812 28.367188 L 69.238281 11.796875 L 67.625 11.335938 C 67.71875 10.816406 67.808594 10.472656 68.140625 10.058594 L 68.492188 9.71875 L 68.886719 9.335938 L 69.296875 8.949219 C 70.066406 8.207031 70.824219 7.480469 71.496094 6.652344 C 72.003906 6.042969 72.003906 6.042969 72.464844 5.8125 M 16.691406 45.167969 C 17.285156 45.378906 17.597656 45.605469 18.019531 46.074219 L 18.304688 46.546875 L 18.304688 47.238281 L 18.722656 47.410156 C 19.328125 47.753906 19.5625 48.09375 19.941406 48.671875 L 20.339844 49.273438 L 20.753906 49.914062 L 21.183594 50.570312 C 21.609375 51.222656 22.03125 51.878906 22.453125 52.53125 L 22.820312 53.09375 C 23.136719 53.585938 23.453125 54.082031 23.765625 54.574219 L 24.042969 55.007812 C 24.984375 56.515625 25.621094 57.9375 25.722656 59.726562 C 25.636719 61.460938 25.242188 63.027344 24.296875 64.5 C 23.398438 65.773438 22.464844 66.640625 21.070312 67.363281 C 19.503906 68.070312 18.050781 68.515625 16.3125 68.472656 C 14.335938 68.257812 12.53125 67.417969 10.902344 66.3125 C 9.734375 65.277344 8.984375 63.78125 8.425781 62.34375 C 7.992188 60.878906 7.988281 59.40625 8.285156 57.914062 C 8.953125 55.761719 10.363281 53.917969 11.621094 52.074219 L 12.007812 51.507812 C 12.761719 50.390625 13.523438 49.28125 14.292969 48.171875 C 14.578125 47.757812 14.867188 47.339844 15.152344 46.917969 L 15.582031 46.289062 L 15.9375 45.769531 C 16.230469 45.398438 16.230469 45.398438 16.691406 45.167969 M 11.882812 81.820312 C 12.4375 81.835938 12.4375 81.835938 13.003906 81.992188 C 14.675781 83.28125 15.730469 85.214844 16.691406 87.054688 L 17.011719 87.660156 C 17.511719 88.671875 17.511719 88.671875 17.613281 89.125 C 17.484375 89.582031 17.484375 89.582031 17.152344 90.046875 C 16.554688 90.539062 16.554688 90.539062 15.859375 91.027344 L 15.15625 91.519531 L 14.617188 91.890625 C 14.707031 92.519531 14.816406 92.984375 15.144531 93.53125 C 16.625 95.414062 18.589844 97.605469 20.839844 98.5625 C 21.421875 98.597656 21.421875 98.597656 21.992188 98.332031 C 22.441406 97.914062 22.824219 97.515625 23.21875 97.054688 L 23.535156 96.691406 C 23.792969 96.394531 24.046875 96.097656 24.296875 95.800781 C 25.777344 96.039062 26.800781 96.457031 28.058594 97.261719 C 28.945312 97.808594 29.882812 98.238281 30.828125 98.679688 C 31.46875 99.039062 31.894531 99.382812 32.363281 99.945312 C 32.507812 100.679688 32.507812 100.679688 32.363281 101.554688 C 31.972656 102.300781 31.492188 102.957031 30.980469 103.625 L 30.464844 104.375 C 29.5625 105.273438 28.757812 105.800781 27.523438 106.15625 C 25.175781 106.503906 22.960938 106.214844 20.75 105.378906 C 17.519531 103.929688 14.894531 101.886719 12.3125 99.484375 L 11.78125 98.996094 C 9.308594 96.652344 7.730469 93.898438 6.550781 90.738281 C 6.214844 89.414062 6.101562 87.914062 6.445312 86.582031 C 6.609375 86.179688 6.609375 86.179688 7.011719 85.445312 L 7.375 84.753906 C 8.179688 83.765625 9.175781 83.140625 10.238281 82.453125 C 10.890625 82.019531 11.136719 81.890625 11.882812 81.820312 " fill-opacity="1" fill-rule="nonzero"/></g><path fill="#d01c16" d="M 15.539062 4.429688 C 16.09375 4.375 16.09375 4.375 16.78125 4.378906 L 17.523438 4.378906 L 18.304688 4.386719 L 19.085938 4.386719 C 21.007812 4.398438 21.007812 4.398438 21.53125 4.660156 C 21.410156 5.835938 21.140625 6.765625 20.648438 7.839844 L 20.453125 8.273438 C 20.25 8.722656 20.042969 9.175781 19.832031 9.625 L 19.421875 10.53125 C 18.839844 11.808594 18.25 13.074219 17.613281 14.328125 L 18.386719 14.316406 C 19.332031 14.304688 20.277344 14.296875 21.21875 14.289062 C 21.628906 14.285156 22.039062 14.28125 22.445312 14.273438 C 23.035156 14.265625 23.621094 14.261719 24.210938 14.261719 C 24.390625 14.257812 24.574219 14.253906 24.765625 14.25 C 25.28125 14.25 25.28125 14.25 26.140625 14.328125 C 26.609375 14.644531 26.609375 14.644531 26.832031 15.019531 C 26.832031 15.546875 26.832031 15.546875 26.601562 16.167969 C 26.246094 16.65625 25.867188 17.125 25.464844 17.578125 C 24.886719 18.242188 24.328125 18.886719 23.835938 19.621094 L 23.375 19.621094 L 23.238281 20.089844 C 22.792969 21.03125 22.140625 21.714844 21.445312 22.484375 C 20.347656 23.695312 20.347656 23.695312 19.390625 25.023438 L 18.996094 25.605469 L 18.535156 25.605469 L 18.320312 26.035156 L 17.84375 26.984375 L 17.382812 26.984375 L 17.222656 27.480469 C 16.863281 28.269531 16.394531 28.785156 15.800781 29.417969 L 15.195312 30.066406 C 14.703125 30.578125 14.203125 31.085938 13.695312 31.589844 C 13.136719 31.417969 13.136719 31.417969 12.542969 31.128906 C 12.378906 30.710938 12.378906 30.710938 12.3125 30.207031 C 12.390625 29.734375 12.390625 29.734375 12.539062 29.222656 L 12.703125 28.640625 L 12.890625 28.019531 L 13.078125 27.382812 C 13.742188 25.152344 14.515625 22.957031 15.308594 20.773438 L 14.683594 20.773438 C 13.914062 20.777344 13.148438 20.78125 12.382812 20.785156 C 12.050781 20.785156 11.71875 20.785156 11.386719 20.789062 C 10.90625 20.792969 10.429688 20.792969 9.953125 20.792969 L 9.082031 20.796875 C 8.394531 20.773438 8.394531 20.773438 7.933594 20.542969 C 7.859375 19.695312 7.933594 19.0625 8.273438 18.292969 C 8.425781 17.96875 8.582031 17.652344 8.742188 17.332031 L 8.992188 16.8125 C 9.609375 15.558594 10.261719 14.328125 10.929688 13.101562 C 11.515625 12.023438 12.042969 10.921875 12.558594 9.8125 C 14.636719 5.335938 14.636719 5.335938 15.539062 4.429688 " fill-opacity="1" fill-rule="nonzero"/><g clip-path="url(#c0548e88fd)"><path fill="#193049" d="M 75.921875 12.484375 L 76.382812 12.484375 L 76.382812 28.367188 L 79.378906 28.367188 L 79.839844 28.597656 C 79.871094 29.921875 79.871094 29.921875 79.609375 30.4375 C 75.046875 30.445312 70.484375 30.449219 65.921875 30.449219 C 63.800781 30.449219 61.683594 30.453125 59.5625 30.457031 C 57.71875 30.457031 55.871094 30.460938 54.027344 30.460938 C 53.046875 30.460938 52.070312 30.460938 51.089844 30.460938 C 50.171875 30.464844 49.253906 30.464844 48.332031 30.464844 C 47.996094 30.464844 47.65625 30.464844 47.316406 30.464844 C 46.855469 30.464844 46.398438 30.464844 45.9375 30.464844 L 45.15625 30.464844 L 44.578125 30.4375 L 44.347656 30.207031 C 44.339844 29.671875 44.339844 29.132812 44.347656 28.597656 C 45.054688 28.242188 45.792969 28.34375 46.566406 28.351562 L 47.058594 28.355469 C 47.460938 28.359375 47.863281 28.363281 48.265625 28.367188 L 48.257812 27.828125 C 48.234375 25.050781 48.234375 25.050781 48.496094 23.761719 C 49.1875 23.304688 49.1875 23.304688 49.816406 23.25 C 50.066406 23.253906 50.3125 23.253906 50.566406 23.257812 L 51.378906 23.261719 L 52.226562 23.273438 L 53.085938 23.28125 C 53.785156 23.285156 54.480469 23.292969 55.179688 23.304688 L 55.164062 22.464844 C 55.160156 22.101562 55.15625 21.738281 55.152344 21.375 L 55.140625 20.820312 C 55.136719 20.34375 55.15625 19.867188 55.179688 19.390625 L 55.640625 18.929688 C 56.308594 18.855469 56.308594 18.855469 57.148438 18.835938 L 58.058594 18.808594 L 59.011719 18.785156 L 59.972656 18.757812 C 60.757812 18.738281 61.542969 18.71875 62.324219 18.699219 L 62.410156 17.910156 L 62.527344 16.886719 L 62.582031 16.367188 C 62.636719 15.914062 62.710938 15.464844 62.785156 15.019531 L 63.246094 14.558594 C 64.71875 14.238281 66.148438 14.34375 67.625 14.558594 L 67.625 16.859375 L 65.089844 16.859375 L 65.105469 17.640625 C 65.113281 17.980469 65.117188 18.316406 65.121094 18.65625 C 65.125 18.828125 65.128906 18.996094 65.132812 19.171875 C 65.136719 19.628906 65.113281 20.085938 65.089844 20.542969 L 64.628906 21.230469 C 63.941406 21.308594 63.941406 21.308594 63.074219 21.300781 L 62.609375 21.296875 C 62.121094 21.292969 61.632812 21.285156 61.144531 21.273438 C 60.8125 21.269531 60.480469 21.269531 60.152344 21.265625 C 59.339844 21.257812 58.527344 21.246094 57.714844 21.230469 L 57.730469 22.011719 C 57.738281 22.351562 57.742188 22.691406 57.746094 23.03125 C 57.75 23.199219 57.753906 23.371094 57.757812 23.542969 C 57.761719 24 57.738281 24.457031 57.714844 24.914062 L 57.253906 25.605469 C 56.609375 25.683594 56.609375 25.683594 55.796875 25.671875 L 54.921875 25.664062 L 54 25.648438 C 53.691406 25.644531 53.382812 25.640625 53.074219 25.636719 C 52.316406 25.628906 51.558594 25.617188 50.800781 25.605469 C 50.796875 25.980469 50.792969 26.351562 50.789062 26.726562 L 50.78125 27.359375 C 50.765625 27.910156 50.765625 27.910156 51.03125 28.367188 L 68.316406 28.367188 L 68.316406 28.828125 C 68.996094 29.296875 69.585938 29.589844 70.390625 29.746094 C 71.273438 29.804688 72.15625 29.800781 73.042969 29.804688 L 73.773438 29.820312 L 74.476562 29.824219 L 75.117188 29.828125 C 75.714844 29.789062 75.714844 29.789062 76.1875 29.398438 L 76.613281 29.058594 L 77.304688 29.058594 L 77.304688 28.597656 L 75.921875 28.597656 C 75.714844 27.714844 75.664062 26.898438 75.664062 25.992188 L 75.660156 25.117188 L 75.660156 23.210938 C 75.660156 22.539062 75.660156 21.863281 75.664062 21.191406 C 75.664062 20.324219 75.664062 19.460938 75.660156 18.597656 C 75.660156 17.929688 75.660156 17.265625 75.660156 16.601562 C 75.660156 16.28125 75.660156 15.964844 75.660156 15.644531 C 75.660156 15.199219 75.660156 14.757812 75.664062 14.3125 L 75.664062 13.542969 C 75.691406 12.945312 75.691406 12.945312 75.921875 12.484375 M 24.140625 -34.277344 C 25.542969 -33.664062 26.882812 -32.914062 28.214844 -32.164062 C 28.433594 -32.046875 28.648438 -31.929688 28.867188 -31.808594 L 29.367188 -31.472656 C 29.726562 -30.375 29.542969 -29.371094 29.367188 -28.25 C 27.785156 -28.683594 27.785156 -28.683594 27.523438 -28.941406 C 27.515625 -29.402344 27.515625 -29.863281 27.523438 -30.324219 C 27.367188 -30.382812 27.210938 -30.441406 27.050781 -30.503906 C 26.417969 -30.761719 25.808594 -31.050781 25.195312 -31.347656 C 22.820312 -32.496094 20.492188 -33.332031 17.84375 -33.542969 L 17.152344 -33.773438 C 16.722656 -33.796875 16.289062 -33.804688 15.859375 -33.804688 L 15.171875 -33.804688 L 14.617188 -33.773438 L 14.386719 -33.542969 L 13.761719 -33.550781 C 12.535156 -33.539062 11.464844 -33.101562 10.3125 -32.710938 L 9.597656 -32.480469 C 7.117188 -31.6875 7.117188 -31.6875 4.9375 -30.324219 C 4.59375 -29.5625 4.675781 -28.84375 4.707031 -28.019531 C 4.699219 -27.707031 4.691406 -27.394531 4.675781 -27.082031 C 4.640625 -26.175781 4.625 -25.269531 4.617188 -24.359375 C 4.609375 -23.980469 4.601562 -23.605469 4.589844 -23.226562 C 4.539062 -21.308594 4.503906 -19.660156 5.363281 -17.898438 C 5.699219 -17.3125 6.003906 -16.832031 6.484375 -16.355469 L 6.78125 -16.054688 L 6.78125 -15.59375 L 7.214844 -15.375 L 8.164062 -14.902344 L 8.164062 -14.441406 L 8.742188 -14.269531 C 9.667969 -13.9375 10.519531 -13.523438 11.390625 -13.074219 L 11.871094 -12.832031 L 12.34375 -12.59375 L 12.804688 -12.363281 C 13.183594 -12.164062 13.558594 -11.960938 13.925781 -11.75 C 14.769531 -11.386719 15.550781 -11.207031 16.460938 -11.21875 C 17.089844 -11.371094 17.605469 -11.527344 18.191406 -11.765625 L 18.664062 -11.953125 C 21.144531 -12.964844 23.46875 -14.242188 25.449219 -16.054688 C 25.742188 -16.195312 26.035156 -16.335938 26.328125 -16.46875 L 27.0625 -16.972656 C 27.4375 -17.875 27.523438 -18.765625 27.523438 -19.734375 C 27.984375 -19.746094 28.445312 -19.746094 28.90625 -19.734375 L 29.136719 -19.503906 C 29.226562 -18.945312 29.226562 -18.945312 29.136719 -18.125 C 28.53125 -16.578125 27.71875 -15.191406 26.441406 -14.109375 C 25.96875 -13.742188 25.484375 -13.398438 24.988281 -13.0625 L 24.476562 -12.6875 C 22.21875 -11.136719 18.96875 -9.34375 16.214844 -9.082031 C 15.042969 -9.167969 14.113281 -9.542969 13.035156 -9.996094 L 12.441406 -10.234375 C 11.113281 -10.777344 9.867188 -11.414062 8.625 -12.140625 L 7.925781 -12.546875 C 6.136719 -13.65625 4.648438 -14.835938 3.589844 -16.683594 C 2.683594 -18.46875 2.519531 -20.277344 2.496094 -22.25 L 2.480469 -23.019531 C 2.476562 -23.550781 2.472656 -24.085938 2.46875 -24.617188 C 2.460938 -25.433594 2.441406 -26.246094 2.417969 -27.0625 C 2.414062 -27.582031 2.410156 -28.101562 2.40625 -28.621094 L 2.382812 -29.355469 C 2.386719 -30.042969 2.417969 -30.589844 2.632812 -31.242188 C 3.253906 -31.863281 3.921875 -32.246094 4.707031 -32.625 L 5.335938 -32.976562 C 11.34375 -35.910156 17.78125 -36.628906 24.140625 -34.277344 M 54.542969 -16.578125 C 55.179688 -16.511719 55.179688 -16.511719 55.988281 -16.125 C 56.597656 -15.558594 56.960938 -15.222656 57.253906 -14.441406 C 57.269531 -13.242188 57.011719 -12.339844 56.5625 -11.21875 L 72.003906 -11.21875 L 71.542969 -12.371094 C 71.453125 -13.070312 71.460938 -13.742188 71.542969 -14.441406 C 71.847656 -15.136719 72.128906 -15.5 72.695312 -15.996094 C 73.390625 -16.429688 74.023438 -16.566406 74.828125 -16.613281 C 75.480469 -16.609375 75.84375 -16.558594 76.410156 -16.230469 C 76.824219 -15.882812 77.191406 -15.550781 77.535156 -15.132812 C 77.746094 -14.5 77.804688 -14.089844 77.808594 -13.433594 L 77.820312 -12.910156 C 77.757812 -12.285156 77.5625 -11.792969 77.304688 -11.21875 C 77.449219 -11.222656 77.59375 -11.222656 77.742188 -11.226562 C 78.394531 -11.238281 79.046875 -11.242188 79.695312 -11.25 L 80.382812 -11.261719 L 81.042969 -11.265625 L 81.648438 -11.273438 L 82.144531 -11.21875 L 82.605469 -10.757812 C 82.535156 -10.167969 82.535156 -10.167969 82.375 -9.609375 L 82.144531 -9.378906 C 81.6875 -9.355469 81.230469 -9.347656 80.773438 -9.347656 L 77.816406 -9.347656 C 76.867188 -9.347656 75.914062 -9.347656 74.960938 -9.347656 C 73.96875 -9.347656 72.976562 -9.347656 71.984375 -9.347656 C 70.3125 -9.347656 68.644531 -9.347656 66.976562 -9.347656 C 65.046875 -9.347656 63.113281 -9.347656 61.179688 -9.347656 C 59.527344 -9.347656 57.871094 -9.347656 56.214844 -9.347656 C 55.222656 -9.347656 54.234375 -9.347656 53.242188 -9.347656 C 52.3125 -9.347656 51.382812 -9.347656 50.453125 -9.347656 C 50.109375 -9.347656 49.765625 -9.347656 49.425781 -9.347656 C 48.957031 -9.347656 48.492188 -9.347656 48.027344 -9.347656 L 47.234375 -9.347656 L 46.652344 -9.378906 L 46.421875 -9.609375 C 46.414062 -10.070312 46.414062 -10.527344 46.421875 -10.988281 C 46.964844 -11.257812 47.285156 -11.246094 47.886719 -11.242188 L 48.480469 -11.238281 L 49.101562 -11.234375 L 49.730469 -11.230469 C 50.242188 -11.226562 50.75 -11.222656 51.261719 -11.21875 L 50.917969 -11.96875 C 50.714844 -12.445312 50.574219 -12.816406 50.503906 -13.335938 C 50.59375 -14.042969 50.714844 -14.539062 51.113281 -15.136719 C 52.191406 -16.429688 52.867188 -16.59375 54.542969 -16.578125 M 51.03125 64.730469 C 51.832031 65.097656 52.5625 65.53125 53.320312 65.976562 C 54.019531 66.335938 54.488281 66.496094 55.265625 66.542969 C 56.390625 66.476562 57.277344 66.035156 58.261719 65.535156 C 59.617188 64.855469 60.71875 64.488281 62.265625 64.566406 C 63.304688 64.792969 64.175781 65.253906 65.097656 65.765625 C 65.875 66.1875 66.492188 66.460938 67.382812 66.472656 C 68.699219 66.34375 69.761719 65.996094 70.867188 65.277344 C 71.785156 64.753906 72.546875 64.617188 73.605469 64.574219 C 74.460938 64.601562 75.085938 64.664062 75.871094 65.019531 C 76.246094 65.253906 76.617188 65.503906 76.984375 65.757812 C 77.867188 66.324219 78.832031 66.558594 79.839844 66.800781 C 79.847656 67.140625 79.851562 67.484375 79.855469 67.824219 L 79.863281 68.398438 L 79.839844 68.875 L 79.609375 69.105469 C 79.140625 69.125 78.671875 69.132812 78.203125 69.132812 L 77.75 69.132812 C 77.25 69.136719 76.746094 69.132812 76.246094 69.132812 L 75.171875 69.132812 C 74.195312 69.136719 73.21875 69.136719 72.242188 69.132812 C 71.222656 69.132812 70.203125 69.132812 69.183594 69.132812 C 67.472656 69.136719 65.761719 69.136719 64.046875 69.132812 C 62.066406 69.132812 60.082031 69.132812 58.101562 69.132812 C 56.402344 69.136719 54.703125 69.136719 53.003906 69.132812 C 51.988281 69.132812 50.972656 69.132812 49.957031 69.136719 C 49.003906 69.136719 48.046875 69.136719 47.09375 69.132812 C 46.742188 69.132812 46.390625 69.132812 46.039062 69.132812 C 45.5625 69.132812 45.082031 69.132812 44.605469 69.132812 L 43.792969 69.132812 L 43.195312 69.105469 L 42.964844 68.875 C 42.902344 67.554688 42.902344 67.554688 42.964844 67.03125 C 43.503906 66.496094 43.894531 66.382812 44.609375 66.140625 C 45.414062 65.863281 46.117188 65.574219 46.839844 65.132812 C 48.164062 64.460938 49.597656 64.492188 51.03125 64.730469 " fill-opacity="1" fill-rule="nonzero"/></g><g clip-path="url(#2254d78949)"><path fill="#193049" d="M -30.320312 -16.742188 C -29.617188 -16.773438 -28.917969 -16.792969 -28.214844 -16.796875 L -27.570312 -16.804688 C -27.121094 -16.808594 -26.671875 -16.808594 -26.21875 -16.8125 C -25.53125 -16.816406 -24.84375 -16.824219 -24.152344 -16.835938 C -23.714844 -16.835938 -23.277344 -16.839844 -22.84375 -16.839844 L -22.21875 -16.855469 C -21.675781 -16.851562 -21.175781 -16.839844 -20.640625 -16.742188 C -20.121094 -16.289062 -20.121094 -16.289062 -19.71875 -15.824219 C -19.128906 -15.664062 -19.128906 -15.664062 -18.511719 -15.648438 L -17.886719 -15.609375 L -17.414062 -15.59375 C -17.3125 -14.800781 -17.21875 -14.011719 -17.128906 -13.21875 L -17.039062 -12.539062 L -16.964844 -11.882812 L -16.894531 -11.28125 L -16.953125 -10.757812 C -17.375 -10.339844 -17.71875 -10.121094 -18.28125 -9.9375 C -18.929688 -9.8125 -19.546875 -9.804688 -20.207031 -9.796875 L -21.070312 -9.789062 C -21.378906 -9.789062 -21.691406 -9.785156 -22 -9.785156 L -22.476562 -9.78125 C -23.308594 -9.777344 -24.140625 -9.773438 -24.96875 -9.769531 C -25.824219 -9.769531 -26.679688 -9.761719 -27.535156 -9.75 C -28.195312 -9.746094 -28.855469 -9.742188 -29.515625 -9.742188 C -29.832031 -9.742188 -30.148438 -9.738281 -30.460938 -9.734375 C -33.226562 -9.699219 -33.226562 -9.699219 -34.449219 -10.304688 C -34.683594 -10.453125 -34.917969 -10.605469 -35.160156 -10.757812 L -35.160156 -10.988281 L -33.546875 -10.988281 L -33.546875 -15.59375 L -32.164062 -15.59375 L -32.164062 -14.441406 L -30.78125 -14.441406 C -30.761719 -14.660156 -30.761719 -14.660156 -30.742188 -14.886719 L -30.683594 -15.464844 C -30.664062 -15.652344 -30.644531 -15.84375 -30.625 -16.039062 L -30.550781 -16.511719 Z M 50.339844 58.976562 C 51.335938 59.335938 52.164062 59.871094 52.992188 60.515625 C 53.574219 60.9375 53.929688 61.089844 54.648438 61.308594 C 55.78125 61.390625 56.726562 60.90625 57.742188 60.453125 C 58.292969 60.183594 58.824219 59.894531 59.359375 59.59375 C 60.238281 59.148438 61.011719 59.089844 61.992188 59.132812 C 63.445312 59.324219 64.558594 59.941406 65.726562 60.796875 C 66.496094 61.171875 67.234375 61.316406 68.085938 61.277344 C 68.765625 61.066406 69.355469 60.75 69.972656 60.402344 C 70.289062 60.230469 70.605469 60.0625 70.921875 59.894531 L 71.367188 59.652344 C 72.039062 59.296875 72.652344 59.007812 73.410156 58.925781 C 74.246094 58.988281 74.839844 59.105469 75.558594 59.558594 C 75.9375 59.84375 76.320312 60.132812 76.695312 60.421875 C 77.667969 61.054688 78.714844 61.285156 79.839844 61.507812 C 79.847656 61.847656 79.851562 62.191406 79.855469 62.53125 L 79.863281 63.105469 L 79.839844 63.578125 L 79.609375 63.808594 C 78.65625 63.914062 78.027344 63.914062 77.132812 63.554688 C 76.566406 63.269531 76.011719 62.972656 75.460938 62.660156 L 75.460938 62.199219 C 74.511719 61.96875 73.671875 61.871094 72.695312 61.96875 C 72.09375 62.222656 71.527344 62.507812 70.953125 62.824219 C 70.023438 63.3125 69.128906 63.664062 68.085938 63.808594 L 67.296875 63.925781 C 65.765625 63.925781 64.324219 62.917969 63.015625 62.199219 L 63.015625 61.738281 C 61.855469 61.65625 60.96875 61.613281 59.90625 62.128906 C 59.632812 62.300781 59.367188 62.480469 59.097656 62.660156 C 58.355469 63.15625 57.652344 63.542969 56.792969 63.808594 C 55.304688 63.890625 53.910156 63.839844 52.542969 63.21875 L 51.953125 62.890625 L 51.953125 62.429688 L 50.800781 62.199219 L 50.800781 61.738281 C 50.035156 61.652344 49.480469 61.613281 48.726562 61.738281 C 48.042969 62.097656 47.433594 62.503906 46.808594 62.953125 C 46.148438 63.378906 45.570312 63.613281 44.808594 63.808594 C 43.929688 63.738281 43.929688 63.738281 43.195312 63.578125 L 42.964844 63.351562 C 42.933594 62.734375 42.957031 62.125 42.964844 61.507812 L 43.546875 61.355469 C 45.082031 60.921875 46.339844 60.453125 47.621094 59.5 C 48.492188 58.886719 49.304688 58.890625 50.339844 58.976562 " fill-opacity="1" fill-rule="nonzero"/><path fill="#0c2240" d="M 124.78125 -11.679688 C 125.320312 -11.6875 125.855469 -11.6875 126.394531 -11.679688 L 126.625 -11.449219 C 126.636719 -10.914062 126.636719 -10.375 126.625 -9.839844 C 126.015625 -9.535156 125.5625 -9.578125 124.878906 -9.578125 L 124.050781 -9.574219 L 122.179688 -9.574219 C 121.308594 -9.570312 120.441406 -9.570312 119.570312 -9.570312 C 118.847656 -9.570312 118.121094 -9.570312 117.398438 -9.566406 C 115.6875 -9.566406 113.980469 -9.566406 112.269531 -9.566406 C 110.507812 -9.566406 108.742188 -9.5625 106.976562 -9.558594 C 105.464844 -9.558594 103.949219 -9.554688 102.4375 -9.554688 C 101.53125 -9.554688 100.625 -9.554688 99.722656 -9.554688 C 98.871094 -9.550781 98.019531 -9.550781 97.171875 -9.550781 C 96.707031 -9.550781 96.246094 -9.550781 95.785156 -9.546875 L 94.953125 -9.550781 L 94.230469 -9.550781 L 93.667969 -9.609375 L 93.207031 -10.070312 C 93.179688 -10.789062 93.179688 -10.789062 93.207031 -11.449219 L 93.667969 -10.988281 L 93.667969 -10.300781 L 125.703125 -10.527344 L 125.933594 -11.449219 L 124.78125 -11.449219 Z M -35.851562 84.0625 C -35.46875 84.054688 -35.085938 84.054688 -34.699219 84.0625 L -34.699219 84.753906 L -34.238281 84.753906 L -34.199219 85.226562 L -34.140625 85.847656 C -34.121094 86.050781 -34.101562 86.253906 -34.082031 86.460938 C -34.019531 86.972656 -33.917969 87.480469 -33.777344 87.976562 L -33.304688 88.035156 C -32.425781 88.257812 -31.789062 88.65625 -31.011719 89.125 C -31.332031 89.472656 -31.332031 89.472656 -31.703125 89.816406 L -32.164062 89.816406 L -31.703125 90.738281 C -32.523438 90.5 -33.164062 90.234375 -33.851562 89.746094 C -34.246094 89.484375 -34.246094 89.484375 -34.699219 89.355469 C -35.753906 89.507812 -36.589844 89.925781 -37.464844 90.507812 C -37.941406 90.449219 -37.941406 90.449219 -38.386719 90.277344 L -38.847656 89.816406 C -38.804688 89.355469 -38.804688 89.355469 -38.617188 88.898438 L -37.925781 88.4375 L -37.234375 88.4375 L -37.234375 87.746094 L -37.898438 87.585938 L -38.617188 87.285156 C -38.9375 86.679688 -38.9375 86.679688 -39.078125 86.136719 L -38.617188 85.675781 C -37.65625 85.746094 -36.925781 85.914062 -36.082031 86.363281 L -36.09375 85.921875 L -36.097656 85.34375 L -36.105469 84.769531 L -36.082031 84.292969 Z M -24.558594 84.0625 C -23.984375 84.035156 -23.984375 84.035156 -23.40625 84.0625 L -23.175781 84.292969 C -23.160156 84.644531 -23.160156 84.992188 -23.164062 85.34375 L -23.167969 85.921875 L -23.175781 86.363281 L -22.804688 86.15625 L -22.3125 85.890625 L -21.828125 85.625 C -21.332031 85.445312 -21.332031 85.445312 -20.8125 85.53125 L -20.410156 85.675781 L -20.179688 86.824219 C -21.398438 87.542969 -21.398438 87.542969 -21.792969 87.746094 L -22.253906 87.746094 L -22.253906 88.207031 L -21.722656 88.40625 C -21.101562 88.667969 -21.101562 88.667969 -20.410156 89.125 C -20.46875 89.558594 -20.46875 89.558594 -20.640625 90.046875 C -21.042969 90.34375 -21.042969 90.34375 -21.5625 90.507812 C -22.125 90.292969 -22.125 90.292969 -22.714844 89.945312 C -23.292969 89.597656 -23.292969 89.597656 -23.867188 89.355469 C -24.726562 89.421875 -25.476562 89.90625 -26.230469 90.292969 L -26.984375 90.675781 L -27.554688 90.96875 L -28.015625 90.507812 L -27.324219 89.816406 L -27.785156 88.898438 L -27.308594 88.707031 C -26.59375 88.367188 -26.0625 88.058594 -25.480469 87.515625 C -25.085938 86.457031 -24.941406 85.410156 -24.789062 84.292969 Z M 80.300781 -11.21875 C 80.734375 -11.28125 80.734375 -11.28125 81.222656 -11.277344 L 81.714844 -11.28125 L 82.144531 -11.21875 L 82.605469 -10.757812 C 82.535156 -10.167969 82.535156 -10.167969 82.375 -9.609375 L 82.144531 -9.378906 C 81.6875 -9.355469 81.230469 -9.347656 80.773438 -9.347656 L 77.816406 -9.347656 C 76.867188 -9.347656 75.914062 -9.347656 74.960938 -9.347656 C 73.96875 -9.347656 72.976562 -9.347656 71.984375 -9.347656 C 70.3125 -9.347656 68.644531 -9.347656 66.976562 -9.347656 C 65.046875 -9.347656 63.113281 -9.347656 61.179688 -9.347656 C 59.527344 -9.347656 57.871094 -9.347656 56.214844 -9.347656 C 55.222656 -9.347656 54.234375 -9.347656 53.242188 -9.347656 C 52.3125 -9.347656 51.382812 -9.347656 50.453125 -9.347656 C 50.109375 -9.347656 49.765625 -9.347656 49.425781 -9.347656 C 48.957031 -9.347656 48.492188 -9.347656 48.027344 -9.347656 L 47.234375 -9.347656 L 46.652344 -9.378906 L 46.421875 -9.609375 C 46.414062 -10.070312 46.414062 -10.527344 46.421875 -10.988281 C 47.09375 -10.742188 47.523438 -10.582031 48.035156 -10.070312 C 48.574219 -10 48.574219 -10 49.210938 -10.011719 L 49.964844 -10.007812 L 50.796875 -10.011719 L 51.667969 -10.011719 C 52.460938 -10.011719 53.25 -10.011719 54.042969 -10.015625 C 54.871094 -10.015625 55.703125 -10.015625 56.53125 -10.015625 C 57.925781 -10.015625 59.324219 -10.019531 60.71875 -10.019531 C 62.328125 -10.023438 63.9375 -10.027344 65.546875 -10.027344 C 67.261719 -10.027344 68.976562 -10.027344 70.695312 -10.03125 C 71.1875 -10.03125 71.679688 -10.03125 72.171875 -10.03125 C 73.09375 -10.03125 74.015625 -10.03125 74.941406 -10.035156 L 75.757812 -10.035156 C 77.4375 -10.042969 79.089844 -10.132812 80.761719 -10.300781 L 79.839844 -10.757812 Z M 80.300781 -11.21875 " fill-opacity="1" fill-rule="nonzero"/></g><g clip-path="url(#7c39a5a468)"><path fill="#0c2240" d="M 8.855469 95.109375 C 9.8125 95.839844 9.8125 95.839844 10.238281 96.261719 C 10.441406 96.792969 10.441406 96.792969 10.46875 97.183594 L 10.929688 97.183594 L 10.929688 97.640625 L 11.621094 97.871094 C 11.9375 98.25 12.246094 98.632812 12.542969 99.023438 C 15.085938 101.78125 18.539062 103.933594 22.054688 105.195312 C 23.175781 105.5 24.320312 105.519531 25.480469 105.539062 L 25.945312 105.550781 C 27.117188 105.550781 27.878906 105.277344 28.90625 104.777344 L 29.441406 104.5625 L 29.828125 104.316406 C 29.988281 104.011719 30.140625 103.707031 30.289062 103.394531 C 30.484375 103.097656 30.683594 102.800781 30.882812 102.503906 C 31.375 101.730469 31.605469 101.101562 31.671875 100.175781 L 31.902344 100.632812 L 32.363281 100.632812 C 32.25 101.726562 31.972656 102.394531 31.328125 103.28125 C 30.445312 104.445312 29.515625 105.257812 28.214844 105.929688 C 26.621094 106.460938 24.550781 106.363281 22.894531 106.074219 C 18.46875 105.007812 14.976562 102.003906 11.757812 98.957031 C 10.6875 97.917969 9.640625 96.847656 8.855469 95.570312 Z M 13.75 -22.628906 L 14.15625 -22.496094 L 14.15625 -22.035156 L 14.847656 -21.808594 C 15.273438 -21.375 15.625 -20.902344 16 -20.425781 C 15.84375 -20 15.84375 -20 15.539062 -19.503906 C 15.027344 -19.210938 15.027344 -19.210938 14.375 -18.957031 L 13.628906 -18.667969 L 12.773438 -18.355469 L 12.28125 -18.167969 C 11.757812 -17.972656 11.238281 -17.78125 10.714844 -17.59375 L 10.210938 -17.40625 C 9.550781 -17.171875 8.90625 -16.980469 8.210938 -16.867188 L 7.703125 -16.972656 C 7.289062 -17.445312 7.289062 -17.445312 6.941406 -18.066406 L 6.585938 -18.679688 C 6.320312 -19.273438 6.320312 -19.273438 6.320312 -20.195312 C 7.316406 -20.585938 8.316406 -20.96875 9.316406 -21.347656 L 9.828125 -21.539062 C 10.355469 -21.738281 10.878906 -21.929688 11.40625 -22.125 L 11.914062 -22.316406 C 13.121094 -22.75 13.121094 -22.75 13.75 -22.628906 M 9.5625 -21 L 8.953125 -20.769531 C 8.457031 -20.578125 7.964844 -20.390625 7.472656 -20.195312 C 7.316406 -19.417969 7.316406 -19.417969 7.242188 -18.585938 C 7.6875 -17.96875 7.6875 -17.96875 8.394531 -17.664062 C 9.523438 -17.769531 10.578125 -18.113281 11.652344 -18.453125 L 12.140625 -18.605469 C 13.3125 -18.953125 13.3125 -18.953125 14.386719 -19.503906 C 14.578125 -20.210938 14.578125 -20.210938 14.617188 -20.886719 C 14.136719 -21.378906 14.136719 -21.378906 13.464844 -21.808594 C 12.015625 -21.96875 10.886719 -21.523438 9.5625 -21 " fill-opacity="1" fill-rule="nonzero"/></g><g clip-path="url(#664bfe7eab)"><path fill="#0c2240" d="M 70.851562 -24.109375 C 71.507812 -23.882812 71.953125 -23.695312 72.457031 -23.210938 C 73.488281 -22.5 74.582031 -22.3125 75.792969 -22.035156 C 76.292969 -21.917969 76.789062 -21.800781 77.289062 -21.679688 L 78.015625 -21.507812 C 78.875 -21.300781 79.726562 -21.078125 80.574219 -20.84375 L 81.292969 -20.644531 C 81.953125 -20.410156 82.492188 -20.140625 83.066406 -19.734375 C 83.253906 -19.117188 83.253906 -19.117188 83.296875 -18.585938 L 82.734375 -18.699219 C 82.207031 -18.820312 82.207031 -18.820312 81.914062 -18.816406 L 81.683594 -18.355469 L 81.453125 -18.585938 C 80.679688 -18.648438 79.90625 -18.6875 79.128906 -18.726562 L 78.457031 -18.816406 L 78.226562 -19.273438 L 79.148438 -19.503906 L 79.148438 -19.964844 L 78.6875 -20.195312 L 78.457031 -20.65625 C 77.984375 -20.832031 77.503906 -20.988281 77.019531 -21.128906 L 76.222656 -21.367188 C 75.585938 -21.542969 74.957031 -21.679688 74.308594 -21.804688 C 73.03125 -22.15625 72.125 -22.695312 71.140625 -23.578125 L 70.851562 -23.878906 Z M 42.734375 -25.71875 C 43.195312 -25.738281 43.65625 -25.742188 44.121094 -25.742188 L 44.96875 -25.738281 L 46.757812 -25.730469 C 47.492188 -25.726562 48.226562 -25.722656 48.957031 -25.71875 L 48.957031 -24.109375 L 42.734375 -24.109375 L 42.503906 -25.488281 Z M -10.042969 52.992188 C -9.550781 52.980469 -9.0625 52.972656 -8.570312 52.964844 L -7.746094 52.949219 L -7.046875 52.992188 L -6.585938 53.453125 C -6.542969 54.019531 -6.523438 54.585938 -6.53125 55.152344 L -6.53125 55.660156 C -6.53125 56.011719 -6.535156 56.367188 -6.535156 56.71875 C -6.539062 57.265625 -6.542969 57.808594 -6.542969 58.351562 C -6.542969 58.695312 -6.542969 59.039062 -6.546875 59.378906 L -6.546875 59.875 C -6.550781 60.265625 -6.5625 60.65625 -6.585938 61.046875 L -6.816406 61.277344 C -7.398438 61.332031 -7.972656 61.375 -8.558594 61.40625 L -9.054688 61.4375 C -9.460938 61.460938 -9.867188 61.484375 -10.273438 61.507812 L -10.503906 60.816406 C -9.640625 60.6875 -8.839844 60.589844 -7.96875 60.589844 C -7.308594 57.121094 -7.308594 57.121094 -7.738281 53.683594 L -10.042969 53.222656 Z M -26.402344 88.207031 C -25.855469 88.394531 -25.855469 88.394531 -25.480469 88.667969 L -25.480469 88.898438 L -24.859375 88.738281 L -24.042969 88.539062 L -23.230469 88.335938 C -22.484375 88.207031 -22.484375 88.207031 -21.96875 88.277344 C -21.40625 88.5 -20.917969 88.804688 -20.410156 89.128906 C -20.46875 89.558594 -20.46875 89.558594 -20.640625 90.046875 C -21.042969 90.34375 -21.042969 90.34375 -21.5625 90.507812 C -22.125 90.292969 -22.125 90.292969 -22.714844 89.945312 C -23.292969 89.597656 -23.292969 89.597656 -23.867188 89.355469 C -24.726562 89.421875 -25.476562 89.90625 -26.230469 90.292969 L -26.984375 90.675781 L -27.554688 90.96875 L -28.015625 90.507812 L -27.324219 89.816406 L -27.785156 88.898438 C -27.152344 88.523438 -27.152344 88.523438 -26.402344 88.207031 " fill-opacity="1" fill-rule="nonzero"/><path fill="#0c2240" d="M 77.996094 66.339844 L 79.839844 66.800781 C 79.847656 67.140625 79.851562 67.484375 79.855469 67.824219 L 79.863281 68.398438 L 79.839844 68.875 L 79.609375 69.105469 C 79.265625 69.121094 78.921875 69.128906 78.578125 69.125 L 77.953125 69.125 L 77.292969 69.117188 L 76.628906 69.113281 C 76.085938 69.113281 75.542969 69.109375 75 69.105469 L 74.769531 68.644531 L 78.6875 68.414062 L 78.917969 67.03125 L 77.996094 66.570312 Z M -11.195312 91.660156 C -10.644531 91.589844 -10.644531 91.589844 -10.011719 91.617188 L -9.375 91.632812 L -8.890625 91.660156 L -8.660156 93.269531 C -9.640625 93.535156 -10.429688 93.445312 -11.425781 93.269531 C -11.566406 92.851562 -11.566406 92.851562 -11.65625 92.347656 Z M -11.195312 85.214844 C -10.59375 85.148438 -10.59375 85.148438 -9.898438 85.171875 L -9.195312 85.191406 L -8.660156 85.214844 L -8.660156 86.824219 L -11.425781 86.824219 L -11.65625 85.90625 Z M 10.238281 65.191406 L 12.3125 66.339844 L 12.3125 66.800781 C 14.816406 67.699219 17.292969 67.878906 19.917969 67.492188 L 19.6875 67.953125 C 18.179688 68.4375 16.757812 68.621094 15.191406 68.289062 C 13.300781 67.761719 11.671875 67.007812 10.238281 65.652344 Z M 41.351562 -17.433594 C 41.730469 -17.457031 42.113281 -17.464844 42.492188 -17.460938 L 43.117188 -17.464844 C 43.65625 -17.433594 43.65625 -17.433594 44.117188 -17.203125 C 44.128906 -16.820312 44.128906 -16.4375 44.117188 -16.054688 L 43.886719 -15.824219 C 43.507812 -15.800781 43.128906 -15.792969 42.75 -15.792969 L 42.125 -15.792969 C 41.582031 -15.824219 41.582031 -15.824219 41.121094 -16.054688 C 41.113281 -16.4375 41.113281 -16.820312 41.121094 -17.203125 Z M 41.351562 -17.433594 " fill-opacity="1" fill-rule="nonzero"/><path fill="#0c2240" d="M 51.03125 102.9375 L 51.492188 103.167969 L 51.132812 103.539062 C 50.746094 104.078125 50.746094 104.078125 50.789062 104.777344 C 50.984375 105.503906 50.984375 105.503906 51.59375 105.972656 C 52.460938 106.410156 53.28125 106.664062 54.21875 106.894531 L 54.71875 107.078125 L 55.179688 107.769531 C 53.53125 107.628906 52.214844 107.054688 50.800781 106.203125 C 50.339844 105.699219 50.339844 105.699219 50.097656 104.90625 L 50.109375 104.085938 C 50.558594 103.410156 50.558594 103.410156 51.03125 102.9375 M 53.796875 -25.488281 L 54.488281 -25.488281 C 54.253906 -24.859375 54.007812 -24.308594 53.652344 -23.734375 L 53.335938 -23.1875 L 53.335938 -22.496094 C 53.941406 -22.195312 54.425781 -22.21875 55.101562 -22.195312 L 55.886719 -22.164062 L 56.707031 -22.136719 L 57.535156 -22.109375 C 58.210938 -22.082031 58.882812 -22.058594 59.558594 -22.035156 L 59.558594 -21.808594 C 58.582031 -21.792969 57.601562 -21.785156 56.621094 -21.777344 L 55.777344 -21.765625 L 54.96875 -21.761719 L 54.222656 -21.753906 C 53.574219 -21.804688 53.195312 -21.929688 52.644531 -22.265625 C 52.71875 -23.328125 52.800781 -23.964844 53.308594 -24.914062 Z M 114.871094 98.332031 L 115.5625 98.332031 C 115.515625 98.832031 115.515625 98.832031 115.332031 99.484375 C 114.863281 100.109375 114.863281 100.109375 114.265625 100.722656 L 113.679688 101.34375 C 113.464844 101.488281 113.25 101.636719 113.027344 101.785156 C 112.195312 101.773438 112.195312 101.773438 111.414062 101.554688 C 110.867188 101.226562 110.5 100.851562 110.03125 100.40625 C 110.722656 100.40625 110.722656 100.40625 111.402344 100.777344 L 112.105469 101.09375 C 112.597656 101.003906 112.597656 101.003906 113.027344 100.632812 L 113.75 100.101562 C 114.433594 99.539062 114.433594 99.539062 114.726562 98.835938 Z M 106.34375 85.445312 C 107.746094 85.859375 108.878906 86.507812 109.945312 87.5 C 110.519531 88.117188 110.714844 88.414062 110.953125 89.242188 L 110.953125 89.816406 L 110.566406 89.328125 L 110.03125 88.667969 L 109.5 87.960938 C 108.722656 87.113281 107.953125 86.589844 106.847656 86.226562 C 106.191406 86.105469 105.566406 86.113281 104.902344 86.121094 L 104.152344 86.125 L 103.578125 86.136719 L 103.347656 85.675781 C 104.367188 85.335938 105.28125 85.316406 106.34375 85.445312 M 102.886719 103.167969 L 103.117188 103.625 C 103.742188 103.699219 104.347656 103.746094 104.976562 103.769531 L 105.503906 103.796875 C 105.9375 103.820312 106.371094 103.839844 106.804688 103.855469 L 107.035156 103.167969 L 107.726562 103.394531 L 107.726562 104.316406 C 106.164062 104.59375 104.410156 104.824219 102.886719 104.316406 Z M 119.25 24.222656 L 119.710938 24.222656 C 119.589844 25.449219 119.21875 26.417969 118.558594 27.445312 C 117.699219 28.492188 116.828125 29.222656 115.5625 29.746094 L 115.5625 29.058594 C 115.925781 28.742188 115.925781 28.742188 116.414062 28.425781 C 117.351562 27.75 118 27.078125 118.558594 26.066406 C 118.824219 25.457031 119.039062 24.855469 119.25 24.222656 M 103.117188 14.789062 L 103.808594 15.019531 L 103.808594 15.476562 L 104.199219 15.65625 C 105.015625 16.085938 105.730469 16.648438 106.472656 17.191406 C 106.992188 17.519531 107.359375 17.679688 107.957031 17.78125 L 107.957031 18.238281 L 108.394531 18.367188 L 108.964844 18.542969 L 109.53125 18.710938 L 110.03125 18.929688 L 110.492188 19.621094 C 107.820312 18.789062 105.476562 17.449219 103.410156 15.574219 L 103.117188 15.246094 Z M -31.242188 97.183594 L -30.78125 97.414062 C -31.101562 97.871094 -31.101562 97.871094 -31.472656 98.332031 L -31.933594 98.332031 L -31.933594 99.023438 L -30.550781 98.792969 L -30.550781 99.253906 C -31.171875 99.613281 -31.171875 99.613281 -31.933594 99.945312 C -32.597656 99.871094 -32.597656 99.871094 -33.085938 99.714844 L -33.316406 98.792969 Z M 111.644531 82.222656 C 112.378906 82.28125 112.824219 82.46875 113.464844 82.835938 L 114.136719 83.316406 L 114.820312 83.785156 L 115.332031 84.292969 C 115.441406 84.890625 115.441406 84.890625 115.332031 85.445312 C 114.757812 86.09375 114.757812 86.09375 114.179688 86.59375 L 113.949219 86.136719 L 114.179688 85.71875 C 114.449219 85.21875 114.449219 85.21875 114.410156 84.640625 C 114.210938 84.011719 114.210938 84.011719 113.589844 83.546875 C 112.65625 83.070312 111.992188 82.984375 110.953125 82.914062 C 111.226562 82.554688 111.226562 82.554688 111.644531 82.222656 M 138.839844 64.5 L 139.136719 64.902344 C 139.519531 65.40625 139.914062 65.898438 140.324219 66.386719 L 140.726562 66.871094 C 141.117188 67.285156 141.117188 67.285156 141.617188 67.449219 L 142.066406 67.492188 C 142.691406 67.210938 142.691406 67.210938 143.21875 66.800781 L 143.449219 66.339844 L 144.140625 66.339844 C 143.996094 66.746094 143.996094 66.746094 143.679688 67.261719 C 143.03125 67.792969 143.03125 67.792969 142.296875 68.183594 C 141.75 68.160156 141.75 68.160156 141.144531 67.953125 C 140.535156 67.460938 140.535156 67.460938 139.933594 66.84375 L 139.328125 66.238281 C 138.839844 65.652344 138.839844 65.652344 138.640625 65.128906 L 138.609375 64.730469 Z M 138.839844 64.5 " fill-opacity="1" fill-rule="nonzero"/><path fill="#0c2240" d="M 12.082031 81.992188 C 12.601562 82.050781 12.601562 82.050781 13.234375 82.222656 C 14.714844 83.445312 15.625 85.128906 16.460938 86.824219 C 16.042969 86.664062 16.042969 86.664062 15.539062 86.363281 C 15.195312 85.863281 15.195312 85.863281 14.878906 85.273438 C 14.28125 84.226562 13.6875 83.472656 12.773438 82.683594 L 12.082031 82.453125 Z M 107.265625 10.644531 C 107.828125 10.703125 108.378906 10.773438 108.9375 10.859375 C 110.007812 11.019531 111.023438 11.132812 112.105469 11.105469 L 112.105469 11.566406 C 110.320312 11.589844 108.578125 11.558594 106.804688 11.335938 L 106.804688 11.796875 L 106.113281 11.566406 C 106.492188 11.171875 106.777344 10.890625 107.265625 10.644531 M 13.003906 -14.210938 L 13.8125 -14.097656 C 15.457031 -13.910156 17.113281 -13.964844 18.765625 -13.980469 C 18.542969 -13.640625 18.542969 -13.640625 18.074219 -13.289062 C 17.433594 -13.226562 16.789062 -13.203125 16.144531 -13.21875 L 15.617188 -13.214844 C 14.644531 -13.226562 13.890625 -13.308594 13.003906 -13.75 Z M -34.699219 96.03125 L -34.238281 96.03125 C -34.21875 96.566406 -34.222656 97.105469 -34.238281 97.640625 L -34.699219 98.332031 C -35.085938 98.265625 -35.472656 98.1875 -35.851562 98.101562 L -36.082031 97.871094 C -36.09375 97.488281 -36.09375 97.105469 -36.082031 96.722656 L -34.929688 96.492188 L -35.160156 97.183594 L -34.699219 97.183594 Z M 42.964844 67.03125 L 43.425781 67.261719 L 43.886719 68.644531 L 46.882812 68.644531 L 47.113281 69.105469 C 46.464844 69.109375 45.816406 69.113281 45.171875 69.117188 L 44.609375 69.125 C 44.136719 69.125 43.667969 69.117188 43.195312 69.105469 L 42.964844 68.875 C 42.933594 68.257812 42.957031 67.648438 42.964844 67.03125 M 59.558594 -26.640625 L 59.558594 -26.179688 L 59.167969 -26.164062 C 58.582031 -26.144531 58 -26.117188 57.414062 -26.09375 L 56.796875 -26.070312 L 56.207031 -26.042969 L 55.660156 -26.023438 C 55.113281 -25.972656 55.113281 -25.972656 54.488281 -25.488281 L 54.257812 -25.949219 L 54.488281 -26.410156 C 56.226562 -26.957031 57.765625 -26.84375 59.558594 -26.640625 M -21.792969 94.652344 C -21.246094 94.835938 -21.246094 94.835938 -20.640625 95.109375 L -20.179688 95.800781 L -20.640625 96.722656 L -22.253906 96.492188 L -22.253906 95.800781 L -21.792969 96.03125 L -22.023438 95.339844 L -21.5625 95.339844 Z M 120.171875 93.269531 C 120.507812 93.257812 120.84375 93.246094 121.179688 93.242188 L 121.746094 93.226562 L 122.246094 93.269531 L 122.707031 93.730469 L 122.707031 94.652344 L 122.289062 94.433594 C 121.765625 94.167969 121.765625 94.167969 121.09375 93.960938 L 120.402344 94.421875 L 119.710938 94.191406 Z M 6.78125 85.675781 C 7.121094 86.691406 7.023438 87.71875 7.003906 88.777344 C 6.992188 89.84375 7.066406 90.839844 7.242188 91.890625 C 6.78125 91.429688 6.78125 91.429688 6.523438 90.636719 C 6.183594 89.160156 6.15625 87.667969 6.550781 86.207031 Z M 6.78125 85.675781 " fill-opacity="1" fill-rule="nonzero"/><path fill="#0c2240" d="M 105.320312 79.648438 L 106.113281 79.636719 C 106.804688 79.691406 106.804688 79.691406 107.496094 80.152344 C 107.539062 80.753906 107.539062 80.753906 107.496094 81.300781 L 106.804688 81.070312 L 106.804688 80.382812 L 103.117188 80.382812 L 102.886719 79.921875 C 103.703125 79.671875 104.472656 79.652344 105.320312 79.648438 M 158.890625 49.308594 L 159.8125 49.769531 C 159.898438 50.246094 159.898438 50.246094 159.8125 50.921875 C 159.398438 51.503906 158.925781 52.019531 158.429688 52.53125 L 157.738281 52.300781 C 157.820312 52.203125 157.90625 52.101562 157.992188 52 C 158.324219 51.574219 158.625 51.160156 158.890625 50.691406 C 158.988281 49.933594 158.988281 49.933594 158.890625 49.308594 M -38.386719 91.890625 C -37.582031 91.945312 -37.582031 91.945312 -36.773438 92.117188 L -36.3125 92.578125 L -37.695312 92.347656 L -37.695312 93.269531 L -37.234375 93.960938 L -38.617188 93.5 C -38.761719 92.953125 -38.761719 92.953125 -38.847656 92.347656 Z M 74.769531 7.882812 C 75.59375 8.234375 76.140625 8.722656 76.773438 9.351562 L 77.324219 9.886719 C 77.765625 10.414062 77.765625 10.414062 77.945312 10.941406 L 77.996094 11.335938 C 77.59375 11.578125 77.59375 11.578125 77.074219 11.796875 C 76.558594 11.710938 76.558594 11.710938 76.152344 11.566406 L 76.152344 11.335938 L 77.304688 11.105469 C 76.773438 10.042969 76 9.308594 75.148438 8.496094 L 74.769531 8.113281 Z M 127.316406 -26.179688 L 127.085938 -25.027344 C 126.453125 -24.769531 126.453125 -24.769531 125.703125 -24.570312 C 125.15625 -24.769531 125.15625 -24.769531 124.78125 -25.027344 C 125.03125 -25.222656 125.28125 -25.414062 125.53125 -25.605469 L 125.953125 -25.929688 C 126.394531 -26.179688 126.394531 -26.179688 127.316406 -26.179688 M 66.703125 14.789062 L 67.625 14.789062 L 67.625 16.859375 L 66.242188 16.859375 L 66.242188 16.398438 L 66.703125 16.398438 L 66.574219 15.722656 L 66.472656 15.019531 Z M 66.703125 14.789062 " fill-opacity="1" fill-rule="nonzero"/><path fill="#0c2240" d="M 103.578125 105.699219 L 106.574219 105.929688 L 106.574219 106.386719 L 105.882812 106.847656 C 105.015625 106.773438 104.332031 106.59375 103.578125 106.15625 Z M 92.976562 -25.257812 L 93.207031 -24.796875 L 92.976562 -24.109375 L 93.207031 -23.417969 C 94.015625 -23.132812 94.015625 -23.132812 94.820312 -22.957031 L 94.820312 -22.496094 L 92.746094 -22.726562 C 92.472656 -23.34375 92.472656 -23.34375 92.285156 -24.109375 C 92.601562 -24.769531 92.601562 -24.769531 92.976562 -25.257812 M 136.304688 59.207031 L 136.996094 59.667969 C 137.65625 59.804688 138.3125 59.902344 138.980469 60 L 139.53125 60.128906 L 139.761719 60.589844 L 136.535156 60.359375 Z M 109.570312 102.476562 C 110.625 102.601562 111.410156 102.890625 112.335938 103.394531 L 111.644531 103.625 L 111.097656 103.511719 C 110.433594 103.386719 109.988281 103.460938 109.339844 103.625 Z M -21.792969 91.890625 L -20.640625 92.117188 L -20.410156 93.039062 C -21.058594 93.515625 -21.058594 93.515625 -21.792969 93.960938 L -22.484375 93.730469 L -22.039062 93.3125 C -21.519531 92.832031 -21.519531 92.832031 -21.332031 92.117188 Z M 76.152344 62.660156 L 79.378906 63.351562 L 79.378906 62.890625 L 79.839844 62.890625 L 79.609375 63.808594 C 78.230469 63.882812 77.390625 63.738281 76.152344 63.121094 Z M 103.117188 25.605469 L 109.800781 26.066406 L 109.800781 26.296875 C 109.101562 26.347656 108.398438 26.394531 107.699219 26.4375 L 107.101562 26.484375 C 105.964844 26.554688 105.105469 26.527344 104.039062 26.066406 Z M 23.835938 64.039062 L 24.296875 64.039062 C 24.058594 64.859375 23.714844 65.359375 23.117188 65.953125 L 22.453125 66.570312 L 21.761719 66.339844 L 22.28125 65.839844 C 22.917969 65.210938 22.917969 65.210938 23.417969 64.542969 Z M 74.308594 61.277344 C 74.871094 61.738281 74.871094 61.738281 75.230469 62.199219 L 74.871094 62.082031 C 73.832031 61.871094 72.789062 61.875 71.773438 62.199219 L 71.542969 61.738281 C 72.492188 61.277344 73.257812 61.164062 74.308594 61.277344 M 149.902344 51.84375 C 151.667969 52.105469 151.667969 52.105469 152.421875 52.589844 C 152.746094 52.863281 153.054688 53.15625 153.359375 53.453125 L 153.128906 53.914062 L 152.78125 53.679688 C 151.757812 53.003906 150.867188 52.578125 149.671875 52.300781 Z M 149.902344 51.84375 " fill-opacity="1" fill-rule="nonzero"/></g><g clip-path="url(#502c675da6)"><path fill="#0c2240" d="M 24.988281 58.976562 L 25.679688 58.976562 C 25.703125 59.511719 25.699219 60.050781 25.679688 60.589844 L 25.21875 61.277344 C 25.039062 60.496094 24.964844 59.78125 24.988281 58.976562 M 8.394531 57.824219 L 8.625 57.824219 L 8.617188 58.414062 C 8.617188 58.667969 8.613281 58.917969 8.613281 59.179688 L 8.605469 59.9375 C 8.582031 60.578125 8.582031 60.578125 8.855469 61.046875 C 8.640625 61.539062 8.640625 61.539062 8.394531 61.96875 C 8.148438 61.226562 8.136719 60.675781 8.136719 59.898438 L 8.136719 59.164062 C 8.164062 58.515625 8.164062 58.515625 8.394531 57.824219 M 157.738281 22.382812 L 157.507812 23.074219 L 155.203125 23.304688 L 154.972656 22.84375 C 155.871094 22.246094 156.695312 22.347656 157.738281 22.382812 M 56.792969 104.546875 C 57.242188 104.734375 57.242188 104.734375 57.714844 105.007812 L 57.945312 105.699219 L 58.40625 105.699219 C 58.78125 106.15625 58.78125 106.15625 59.097656 106.617188 L 58.175781 106.617188 C 57.785156 106.222656 57.785156 106.222656 57.429688 105.710938 L 57.0625 105.203125 L 56.792969 104.777344 Z M 138.839844 49.769531 C 139.4375 50.664062 139.976562 51.566406 140.453125 52.53125 C 140.1875 52.324219 139.921875 52.113281 139.660156 51.898438 C 139.515625 51.78125 139.367188 51.664062 139.214844 51.542969 C 138.839844 51.152344 138.839844 51.152344 138.660156 50.671875 L 138.609375 50.230469 Z M 160.734375 -10.757812 L 161.195312 -10.757812 C 161.207031 -10.375 161.203125 -9.992188 161.195312 -9.609375 L 160.964844 -9.378906 C 160.503906 -9.371094 160.042969 -9.367188 159.582031 -9.378906 C 159.953125 -9.847656 160.339844 -10.308594 160.734375 -10.757812 M 55.410156 19.160156 L 55.871094 19.390625 L 55.640625 22.152344 L 55.410156 22.152344 C 55.367188 21.695312 55.324219 21.242188 55.28125 20.785156 L 55.207031 20.015625 L 55.179688 19.390625 Z M 24.757812 61.96875 L 25.21875 61.96875 C 25.09375 62.738281 24.910156 63.355469 24.527344 64.039062 L 24.066406 63.578125 Z M 141.375 47.238281 C 142.007812 47.28125 142.007812 47.28125 142.757812 47.46875 C 143.304688 48.058594 143.304688 48.058594 143.679688 48.621094 L 143.320312 48.417969 C 142.613281 48.09375 141.894531 47.902344 141.144531 47.699219 Z M 148.058594 44.707031 C 148.585938 44.695312 149.113281 44.6875 149.644531 44.679688 L 150.535156 44.664062 L 151.285156 44.707031 L 151.746094 45.167969 L 151.054688 45.398438 L 150.59375 45.167969 C 150.164062 45.117188 149.730469 45.074219 149.296875 45.039062 L 148.597656 44.980469 L 148.058594 44.9375 Z M 148.058594 44.707031 " fill-opacity="1" fill-rule="nonzero"/></g><g clip-path="url(#23bf0da72e)"><path fill="#0c2240" d="M 26.140625 -14.902344 L 26.832031 -14.902344 L 26.832031 -14.441406 C 26.480469 -14.144531 26.480469 -14.144531 26.027344 -13.835938 L 25.574219 -13.527344 L 25.21875 -13.289062 L 25.21875 -13.980469 C 25.636719 -14.484375 25.636719 -14.484375 26.140625 -14.902344 M 114.640625 94.421875 L 115.101562 94.421875 L 114.410156 96.492188 L 113.949219 96.261719 C 114.382812 94.9375 114.382812 94.9375 114.640625 94.421875 M 144.371094 4.199219 L 147.828125 4.429688 L 147.828125 4.660156 C 145.75 4.957031 145.75 4.957031 144.804688 4.675781 L 144.371094 4.429688 Z M 144.371094 4.199219 " fill-opacity="1" fill-rule="nonzero"/></g></svg>