<svg xmlns="http://www.w3.org/2000/svg" xmlns:xlink="http://www.w3.org/1999/xlink" width="48" zoomAndPan="magnify" viewBox="0 0 36 36.000001" height="48" preserveAspectRatio="xMidYMid meet" version="1.0"><defs><clipPath id="bc55e1fa1f"><path d="M 0.488281 0 L 35.511719 0 L 35.511719 35.027344 L 0.488281 35.027344 Z M 0.488281 0 " clip-rule="nonzero"/></clipPath><clipPath id="6a2e50d56a"><path d="M 4 0 L 35.511719 0 L 35.511719 27 L 4 27 Z M 4 0 " clip-rule="nonzero"/></clipPath><clipPath id="41eccb751d"><path d="M 0.488281 0 L 35.511719 0 L 35.511719 28 L 0.488281 28 Z M 0.488281 0 " clip-rule="nonzero"/></clipPath><clipPath id="3dee79fdc1"><path d="M 0.488281 0 L 35.511719 0 L 35.511719 29 L 0.488281 29 Z M 0.488281 0 " clip-rule="nonzero"/></clipPath><clipPath id="c683270922"><path d="M 8 0 L 35.511719 0 L 35.511719 31 L 8 31 Z M 8 0 " clip-rule="nonzero"/></clipPath><clipPath id="c7fe41a1f9"><path d="M 0.488281 0 L 35.511719 0 L 35.511719 13 L 0.488281 13 Z M 0.488281 0 " clip-rule="nonzero"/></clipPath><clipPath id="f3c4c63910"><path d="M 14 0 L 35.511719 0 L 35.511719 31 L 14 31 Z M 14 0 " clip-rule="nonzero"/></clipPath><clipPath id="cfb0e30fb9"><path d="M 0.488281 0 L 35.511719 0 L 35.511719 13 L 0.488281 13 Z M 0.488281 0 " clip-rule="nonzero"/></clipPath><clipPath id="1b6e9498a1"><path d="M 0.488281 0 L 35.511719 0 L 35.511719 16 L 0.488281 16 Z M 0.488281 0 " clip-rule="nonzero"/></clipPath><clipPath id="88bee86d42"><path d="M 0.488281 0 L 35.511719 0 L 35.511719 30 L 0.488281 30 Z M 0.488281 0 " clip-rule="nonzero"/></clipPath><clipPath id="9a8aa9d9d6"><path d="M 0.488281 0 L 35.511719 0 L 35.511719 21 L 0.488281 21 Z M 0.488281 0 " clip-rule="nonzero"/></clipPath><clipPath id="4c18946aa8"><path d="M 0.488281 0 L 35.511719 0 L 35.511719 16 L 0.488281 16 Z M 0.488281 0 " clip-rule="nonzero"/></clipPath><clipPath id="b6d043fc11"><path d="M 0.488281 0 L 35.511719 0 L 35.511719 29 L 0.488281 29 Z M 0.488281 0 " clip-rule="nonzero"/></clipPath><clipPath id="45b4ed3cd8"><path d="M 11 0 L 35.511719 0 L 35.511719 30 L 11 30 Z M 11 0 " clip-rule="nonzero"/></clipPath><clipPath id="e25cf8a36c"><path d="M 0.488281 0 L 35.511719 0 L 35.511719 29 L 0.488281 29 Z M 0.488281 0 " clip-rule="nonzero"/></clipPath><clipPath id="53c831b92f"><path d="M 0.488281 0 L 35.511719 0 L 35.511719 19 L 0.488281 19 Z M 0.488281 0 " clip-rule="nonzero"/></clipPath></defs><g clip-path="url(#bc55e1fa1f)"><rect x="-3.6" width="43.2" fill="#fefefe" y="-3.6" height="43.200001" fill-opacity="1"/></g><g clip-path="url(#6a2e50d56a)"><path fill="#193049" d="M 105.785156 -33.773438 C 106.210938 -33.863281 106.210938 -33.863281 106.71875 -33.867188 L 107.273438 -33.867188 L 107.851562 -33.859375 L 108.429688 -33.867188 L 108.984375 -33.867188 L 109.492188 -33.863281 C 109.945312 -33.773438 109.945312 -33.773438 110.351562 -33.46875 L 110.640625 -33.082031 C 110.667969 -32.300781 110.667969 -32.300781 110.640625 -31.464844 C 110.707031 -31.074219 110.777344 -30.691406 110.871094 -30.308594 L 111.503906 -30.207031 C 112.257812 -30.078125 112.257812 -30.078125 112.71875 -29.910156 L 113.179688 -29.84375 C 113.625 -30.167969 113.964844 -30.542969 114.34375 -30.941406 L 114.796875 -31.230469 C 115.464844 -31.226562 115.464844 -31.226562 116.183594 -31 C 116.824219 -30.511719 116.824219 -30.511719 117.425781 -29.902344 L 118.039062 -29.300781 C 118.496094 -28.691406 118.496094 -28.691406 118.605469 -28.097656 C 118.410156 -27.089844 117.75 -26.472656 117.109375 -25.6875 L 118.035156 -23.605469 L 118.574219 -23.5625 L 119.277344 -23.507812 L 119.972656 -23.449219 C 120.574219 -23.375 120.574219 -23.375 121.039062 -23.144531 C 121.292969 -22.378906 121.308594 -21.785156 121.3125 -20.976562 L 121.320312 -20.191406 C 121.269531 -19.449219 121.164062 -18.945312 120.808594 -18.292969 C 120.109375 -18.058594 119.640625 -18.039062 118.914062 -18.046875 L 118.285156 -18.054688 L 117.804688 -18.0625 C 117.5 -17.300781 117.238281 -16.5625 117.109375 -15.75 C 117.488281 -15.050781 117.488281 -15.050781 118.035156 -14.59375 L 118.035156 -14.132812 L 118.496094 -14.132812 C 118.554688 -13.507812 118.554688 -13.507812 118.496094 -12.746094 C 118.082031 -12.171875 118.082031 -12.171875 117.527344 -11.648438 L 116.984375 -11.117188 C 116.414062 -10.664062 115.960938 -10.402344 115.261719 -10.203125 C 114.640625 -10.492188 114.164062 -10.851562 113.628906 -11.273438 C 113.199219 -11.601562 113.199219 -11.601562 112.746094 -11.777344 C 112.046875 -11.839844 111.515625 -11.609375 110.871094 -11.359375 L 110.84375 -10.777344 L 110.796875 -10.015625 L 110.757812 -9.261719 C 110.640625 -8.585938 110.640625 -8.585938 110.34375 -8.203125 C 109.945312 -7.894531 109.945312 -7.894531 109.492188 -7.804688 L 108.984375 -7.800781 L 108.429688 -7.800781 L 107.851562 -7.808594 L 107.273438 -7.800781 L 106.71875 -7.800781 L 106.210938 -7.804688 L 105.785156 -7.894531 C 105.261719 -8.679688 105.238281 -9.085938 105.179688 -10.015625 L 105.128906 -10.777344 L 105.09375 -11.359375 C 104.3125 -11.535156 103.585938 -11.644531 102.78125 -11.589844 C 102.234375 -11.277344 101.820312 -10.933594 101.371094 -10.492188 L 100.933594 -10.203125 C 100.378906 -10.207031 100.378906 -10.207031 99.777344 -10.4375 C 99.167969 -10.933594 99.167969 -10.933594 98.566406 -11.546875 L 97.957031 -12.160156 C 97.46875 -12.746094 97.46875 -12.746094 97.234375 -13.226562 L 97.238281 -13.671875 C 97.574219 -14.117188 97.574219 -14.117188 98.046875 -14.566406 C 98.5 -15.035156 98.5 -15.035156 98.855469 -15.519531 C 98.898438 -16.265625 98.898438 -16.265625 98.625 -16.90625 C 98.542969 -17.214844 98.464844 -17.519531 98.390625 -17.832031 L 97.691406 -17.871094 L 95.886719 -17.988281 L 95.15625 -18.0625 L 94.925781 -18.292969 C 94.699219 -19.859375 94.632812 -21.355469 94.925781 -22.914062 L 95.15625 -23.144531 C 95.660156 -23.199219 96.167969 -23.242188 96.671875 -23.273438 L 97.511719 -23.332031 L 98.160156 -23.375 L 98.375 -24.035156 C 98.625 -24.761719 98.625 -24.761719 98.867188 -25.324219 L 98.855469 -25.917969 C 98.457031 -26.355469 98.035156 -26.734375 97.574219 -27.109375 L 97.238281 -27.535156 C 97.226562 -28.078125 97.226562 -28.078125 97.46875 -28.691406 C 97.855469 -29.1875 98.226562 -29.609375 98.667969 -30.046875 L 98.996094 -30.40625 C 99.328125 -30.738281 99.328125 -30.738281 100.007812 -31.230469 C 100.746094 -31.230469 100.746094 -31.230469 101.394531 -31 L 102.03125 -30.378906 L 102.78125 -29.84375 C 103.589844 -29.882812 104.324219 -30.070312 105.09375 -30.308594 L 105.128906 -30.890625 L 105.179688 -31.652344 C 105.195312 -31.898438 105.210938 -32.148438 105.230469 -32.40625 C 105.324219 -33.082031 105.324219 -33.082031 105.785156 -33.773438 M 63.859375 1.304688 L 64.65625 1.296875 C 65.347656 1.347656 65.347656 1.347656 66.039062 1.808594 C 66.109375 2.359375 66.109375 2.359375 66.085938 2.996094 L 66.066406 3.632812 L 66.039062 4.121094 L 66.472656 4.214844 L 67.039062 4.335938 L 67.597656 4.460938 C 68.121094 4.582031 68.121094 4.582031 68.8125 4.8125 L 69.476562 4.351562 L 70.199219 3.890625 C 70.941406 3.933594 71.378906 4.132812 72.023438 4.507812 L 72.699219 4.988281 L 73.382812 5.460938 L 73.898438 5.96875 C 74.007812 6.554688 74.007812 6.554688 73.898438 7.125 C 73.644531 7.589844 73.644531 7.589844 73.320312 8.007812 L 72.996094 8.429688 L 72.742188 8.742188 C 73.03125 9.527344 73.339844 10.191406 73.898438 10.820312 C 74.574219 11.011719 75.152344 11.039062 75.855469 11.03125 L 76.4375 11.054688 L 77.132812 11.515625 C 77.195312 12.1875 77.21875 12.804688 77.203125 13.480469 L 77.207031 14.027344 C 77.203125 14.5 77.167969 14.972656 77.132812 15.441406 L 76.671875 15.90625 C 76.21875 15.957031 75.765625 16 75.3125 16.035156 C 74.566406 16.125 74.566406 16.125 73.898438 16.367188 C 73.464844 16.867188 73.277344 17.300781 73.054688 17.917969 C 72.96875 18.480469 73.023438 18.835938 73.203125 19.371094 L 73.667969 19.371094 L 74.128906 20.066406 C 74.109375 20.609375 74.109375 20.609375 73.898438 21.21875 C 73.425781 21.847656 73.425781 21.847656 72.828125 22.460938 C 72.636719 22.667969 72.441406 22.875 72.242188 23.089844 C 72.027344 23.234375 71.808594 23.378906 71.585938 23.53125 C 70.757812 23.523438 70.757812 23.523438 69.96875 23.300781 L 69.488281 22.933594 L 69.042969 22.605469 C 68.390625 22.570312 68.390625 22.570312 67.714844 22.679688 L 67.027344 22.761719 L 66.503906 22.835938 L 66.511719 23.25 C 66.523438 24.222656 66.515625 25.125 66.273438 26.074219 C 64.707031 26.351562 62.945312 26.582031 61.417969 26.074219 L 61.382812 25.5 C 61.300781 24.726562 61.195312 24.039062 60.957031 23.300781 C 60.511719 22.851562 60.167969 22.667969 59.578125 22.457031 C 59.078125 22.339844 59.078125 22.339844 58.472656 22.503906 C 57.949219 22.824219 57.949219 22.824219 57.492188 23.210938 C 57.027344 23.53125 57.027344 23.53125 56.507812 23.617188 C 55.875 23.53125 55.875 23.53125 55.195312 23.074219 L 54.515625 22.460938 L 53.824219 21.859375 L 53.332031 21.21875 C 53.34375 20.480469 53.34375 20.480469 53.5625 19.832031 L 54.054688 19.355469 L 54.488281 18.910156 C 54.480469 18.339844 54.480469 18.339844 54.253906 17.753906 L 54.011719 16.988281 L 53.792969 16.367188 L 53.195312 16.324219 L 52.421875 16.265625 L 51.648438 16.210938 L 51.019531 16.136719 L 50.789062 15.90625 C 50.769531 15.59375 50.761719 15.285156 50.765625 14.972656 L 50.769531 14.40625 L 50.773438 13.8125 L 50.777344 13.214844 C 50.78125 12.722656 50.785156 12.234375 50.789062 11.746094 L 51.371094 11.644531 C 52.125 11.488281 52.839844 11.316406 53.5625 11.054688 C 54.136719 10.3125 54.230469 9.796875 54.414062 8.886719 L 54.488281 8.28125 L 54.023438 8.28125 C 53.621094 7.761719 53.621094 7.761719 53.332031 7.125 C 53.6875 6.140625 54.40625 5.464844 55.144531 4.75 C 55.640625 4.351562 55.640625 4.351562 56.507812 4.078125 L 57.257812 4.121094 C 57.574219 4.34375 57.882812 4.574219 58.183594 4.8125 C 58.742188 4.789062 58.742188 4.789062 59.339844 4.582031 L 60.21875 4.335938 C 60.464844 4.265625 60.707031 4.195312 60.957031 4.121094 L 60.941406 3.683594 L 60.929688 3.109375 L 60.910156 2.542969 L 60.957031 2.042969 C 61.417969 1.578125 61.417969 1.578125 61.816406 1.4375 C 62.5 1.320312 63.164062 1.308594 63.859375 1.304688 M 109.34375 -73.222656 C 110.867188 -72.523438 112.03125 -71.574219 113.082031 -70.269531 C 113.640625 -69.351562 113.753906 -68.578125 113.789062 -67.507812 C 113.71875 -66.089844 113.476562 -65.015625 112.71875 -63.8125 L 112.394531 -63.296875 C 111.074219 -61.421875 109.15625 -60.074219 107.171875 -58.960938 C 106.824219 -58.808594 106.472656 -58.664062 106.117188 -58.527344 C 104.964844 -58.078125 103.824219 -57.605469 102.683594 -57.125 C 102.257812 -56.949219 101.832031 -56.792969 101.394531 -56.648438 C 101.125 -55.972656 101.125 -55.972656 100.933594 -55.261719 L 100.703125 -54.800781 L 101.164062 -54.800781 L 101.28125 -54.28125 C 101.597656 -53.578125 101.597656 -53.578125 102.382812 -53.175781 C 103.703125 -52.546875 105.101562 -52.40625 106.539062 -52.214844 C 107.074219 -52.140625 107.609375 -52.066406 108.144531 -51.988281 L 108.855469 -51.894531 C 109.386719 -51.8125 109.886719 -51.695312 110.410156 -51.566406 C 110.9375 -51.53125 111.46875 -51.515625 111.996094 -51.507812 L 112.832031 -51.488281 C 113.730469 -51.574219 114.269531 -51.785156 115.03125 -52.257812 C 115.632812 -53.105469 115.976562 -53.761719 116.128906 -54.785156 L 116.183594 -55.492188 C 114.605469 -55.394531 113.558594 -55.050781 112.171875 -54.324219 C 110.285156 -53.417969 108.652344 -53.164062 106.570312 -53.289062 C 105.234375 -53.421875 104.007812 -53.792969 102.78125 -54.339844 L 102.550781 -55.492188 L 103.222656 -55.824219 C 103.53125 -55.980469 103.84375 -56.132812 104.15625 -56.289062 L 104.65625 -56.539062 C 105.53125 -56.972656 106.398438 -57.421875 107.253906 -57.894531 C 110.207031 -59.53125 112.855469 -60.449219 116.257812 -60.445312 C 117.425781 -60.308594 118.296875 -59.929688 119.289062 -59.292969 L 119.652344 -58.960938 L 119.652344 -58.496094 L 120.34375 -58.265625 C 120.933594 -57.460938 121.242188 -56.621094 121.371094 -55.636719 C 121.207031 -54.273438 120.976562 -53.085938 120.199219 -51.929688 C 118.660156 -50.078125 116.785156 -49.125 114.582031 -48.273438 L 114.140625 -48.101562 C 110.632812 -46.816406 106.53125 -46.804688 102.863281 -47.25 C 100.84375 -47.609375 99.023438 -48.378906 97.425781 -49.660156 C 96.40625 -50.585938 95.761719 -51.5 95.316406 -52.804688 C 94.925781 -54.300781 94.789062 -55.660156 95.171875 -57.167969 C 95.496094 -58.074219 95.871094 -58.796875 96.539062 -59.492188 C 98.445312 -61.101562 100.691406 -62.0625 102.953125 -63.050781 C 105.476562 -64.152344 105.476562 -64.152344 107.582031 -65.878906 L 107.867188 -66.355469 L 107.867188 -67.277344 C 105.992188 -67.324219 104.300781 -67.304688 102.464844 -66.898438 C 101.769531 -66.804688 101.195312 -66.882812 100.5 -66.988281 C 99.882812 -67.082031 99.882812 -67.082031 99.316406 -67.046875 C 98.410156 -66.273438 97.957031 -65.351562 97.46875 -64.273438 L 96.773438 -64.503906 L 96.703125 -64.953125 L 96.542969 -65.429688 C 95.851562 -65.730469 95.851562 -65.730469 95.15625 -65.890625 L 95.386719 -66.816406 L 96.269531 -66.875 C 96.773438 -66.925781 96.773438 -66.925781 97.238281 -67.046875 C 97.714844 -67.460938 97.714844 -67.460938 97.929688 -67.972656 L 97.929688 -68.433594 L 97.335938 -68.96875 L 96.773438 -69.589844 C 96.796875 -70.132812 96.796875 -70.132812 97.003906 -70.746094 C 97.871094 -72.007812 98.910156 -73.046875 100.269531 -73.761719 C 103.140625 -75.121094 106.542969 -74.414062 109.34375 -73.222656 M 69.925781 -73.71875 C 71 -73.292969 71.90625 -72.699219 72.742188 -71.898438 C 73.019531 -71.535156 73.289062 -71.164062 73.550781 -70.789062 C 73.921875 -70.25 73.921875 -70.25 74.359375 -69.820312 C 75.03125 -69.578125 75.484375 -69.578125 76.207031 -69.589844 L 76.4375 -70.050781 L 77.824219 -70.050781 C 77.769531 -69.617188 77.769531 -69.617188 77.59375 -69.125 C 77.117188 -68.839844 77.117188 -68.839844 76.671875 -68.664062 L 77.03125 -68.246094 L 77.363281 -67.742188 L 77.132812 -67.046875 C 76.351562 -67.171875 75.957031 -67.289062 75.285156 -67.742188 C 74.089844 -67.910156 72.996094 -67.785156 71.859375 -67.394531 C 69.773438 -66.699219 67.496094 -67.007812 65.347656 -67.277344 L 65.347656 -66.355469 L 65.761719 -66.15625 C 66.273438 -65.890625 66.273438 -65.890625 67.023438 -65.386719 C 67.933594 -64.808594 68.890625 -64.390625 69.882812 -63.972656 C 72.175781 -62.996094 74.488281 -61.960938 76.207031 -60.117188 L 76.601562 -59.707031 C 77.363281 -58.851562 78.042969 -58.023438 78.289062 -56.878906 C 78.433594 -55.394531 78.492188 -53.921875 77.925781 -52.519531 C 77.234375 -51.203125 76.292969 -50.121094 75.101562 -49.242188 C 74.332031 -48.777344 73.601562 -48.46875 72.757812 -48.171875 L 71.941406 -47.878906 C 68.671875 -46.910156 64.46875 -47.058594 61.128906 -47.667969 C 58.804688 -48.242188 56.214844 -48.964844 54.367188 -50.542969 C 53.726562 -51.160156 53.238281 -51.652344 52.925781 -52.496094 C 52.6875 -53.367188 52.578125 -54.152344 52.738281 -55.046875 C 53.035156 -55.984375 53.554688 -56.671875 54.230469 -57.382812 C 55.316406 -58.320312 56.605469 -58.882812 57.980469 -59.261719 C 61 -59.816406 64.152344 -59.429688 67.039062 -58.472656 C 68.453125 -57.925781 69.8125 -57.273438 70.894531 -56.1875 C 71.171875 -55.683594 71.171875 -55.683594 71.355469 -55.261719 C 70.996094 -54.828125 70.996094 -54.828125 70.429688 -54.339844 C 68.765625 -53.765625 67.09375 -53.65625 65.347656 -53.875 C 64.363281 -54.097656 63.421875 -54.417969 62.472656 -54.757812 C 61.09375 -55.21875 60.078125 -55.289062 58.644531 -55.03125 L 58.414062 -54.109375 C 59.867188 -53.652344 61.3125 -53.242188 62.804688 -52.953125 L 63.425781 -52.828125 C 65.746094 -52.503906 68.402344 -52.441406 70.636719 -53.191406 C 71.1875 -53.425781 71.1875 -53.425781 71.859375 -53.917969 C 72.265625 -54.546875 72.363281 -54.777344 72.410156 -55.492188 C 72.363281 -56.210938 72.257812 -56.457031 71.859375 -57.097656 C 71.375 -57.621094 71.375 -57.621094 70.664062 -57.804688 L 70.664062 -58.265625 L 69.96875 -58.265625 L 69.96875 -58.730469 L 69.160156 -58.90625 C 68.132812 -59.164062 67.226562 -59.5625 66.285156 -60.042969 L 65.796875 -60.292969 C 63.972656 -61.242188 62.417969 -62.320312 61.238281 -64.039062 C 60.453125 -65.335938 60.210938 -66.417969 60.148438 -67.941406 C 60.183594 -69.257812 60.367188 -70.269531 61.03125 -71.410156 C 61.847656 -72.445312 62.847656 -73 64.042969 -73.523438 C 65.914062 -74.183594 68.015625 -74.273438 69.925781 -73.71875 M 24.476562 -106.761719 C 26.792969 -105.25 26.792969 -105.25 27.449219 -104.710938 L 27.449219 -104.25 L 28.605469 -103.785156 L 28.605469 -103.324219 L 29.066406 -103.179688 C 29.695312 -102.890625 30.046875 -102.632812 30.5625 -102.195312 C 31.710938 -101.320312 32.902344 -101.054688 34.296875 -100.753906 C 34.789062 -100.640625 35.28125 -100.523438 35.777344 -100.410156 L 36.492188 -100.246094 C 37.351562 -100.042969 38.199219 -99.820312 39.046875 -99.585938 L 39.765625 -99.386719 C 40.429688 -99.152344 40.96875 -98.878906 41.546875 -98.472656 C 42.105469 -97.53125 42.289062 -96.789062 42.324219 -95.699219 C 42.285156 -94.597656 42.128906 -93.867188 41.546875 -92.925781 C 40.949219 -92.460938 40.621094 -92.21875 39.929688 -92.003906 C 39.226562 -91.933594 38.550781 -91.945312 37.847656 -92.003906 L 37.679688 -92.46875 C 37.0625 -94.097656 37.0625 -94.097656 36 -95.46875 C 35.054688 -96.128906 34.328125 -96.34375 33.199219 -96.480469 C 32.167969 -96.378906 31.4375 -96.128906 30.527344 -95.644531 C 29.742188 -95.046875 29.414062 -94.355469 29.03125 -93.460938 C 28.882812 -93.054688 28.742188 -92.644531 28.605469 -92.234375 C 27.371094 -91.980469 26.179688 -91.964844 24.925781 -91.964844 L 24.265625 -91.960938 C 23.808594 -91.960938 23.351562 -91.960938 22.894531 -91.960938 C 22.191406 -91.957031 21.488281 -91.953125 20.789062 -91.949219 C 20.34375 -91.949219 19.898438 -91.949219 19.453125 -91.949219 L 18.816406 -91.945312 L 17.707031 -91.945312 L 17.28125 -92.003906 C 16.757812 -92.527344 16.671875 -92.867188 16.445312 -93.5625 C 16.183594 -94.242188 15.964844 -94.703125 15.457031 -95.226562 C 14.703125 -95.804688 14.066406 -96.214844 13.125 -96.394531 C 12.347656 -96.46875 11.734375 -96.488281 11.007812 -96.1875 C 10.683594 -96.019531 10.367188 -95.847656 10.050781 -95.671875 C 9.65625 -95.46875 9.65625 -95.46875 9.195312 -95.46875 C 8.816406 -94.726562 8.46875 -93.972656 8.125 -93.214844 L 7.8125 -92.527344 L 7.578125 -92.003906 C 7.171875 -92.023438 6.769531 -92.046875 6.363281 -92.074219 L 5.683594 -92.113281 C 5.035156 -92.234375 5.035156 -92.234375 4.492188 -92.457031 L 4.109375 -92.925781 C 3.996094 -93.636719 4.023438 -94.332031 4.054688 -95.050781 L 4.066406 -95.640625 C 4.078125 -96.121094 4.09375 -96.605469 4.109375 -97.085938 C 5.328125 -97.808594 5.328125 -97.808594 5.730469 -98.011719 L 6.191406 -98.011719 C 6.230469 -98.675781 6.230469 -98.675781 6.191406 -99.394531 L 5.730469 -100.089844 L 6.496094 -100.550781 C 7.675781 -101.421875 8.394531 -102.578125 9.167969 -103.804688 C 9.875 -104.90625 10.640625 -105.824219 11.738281 -106.558594 C 12.699219 -107.050781 13.617188 -107.101562 14.675781 -107.125 L 15.195312 -107.140625 C 15.558594 -107.152344 15.921875 -107.160156 16.28125 -107.167969 C 16.828125 -107.179688 17.371094 -107.195312 17.917969 -107.214844 C 22.839844 -107.351562 22.839844 -107.351562 24.476562 -106.761719 " fill-opacity="1" fill-rule="nonzero"/></g><g clip-path="url(#41eccb751d)"><path fill="#cf1b15" d="M 22.742188 2.925781 C 24.289062 3.691406 25.84375 4.792969 26.90625 6.167969 C 27.914062 7.765625 28.652344 9.386719 28.757812 11.28125 C 28.785156 13.515625 28.144531 15.4375 27.15625 17.421875 C 26.441406 18.679688 25.578125 19.847656 24.734375 21.019531 L 24.394531 21.492188 C 24.117188 21.871094 23.820312 22.242188 23.523438 22.605469 L 23.058594 22.605469 L 22.902344 23.101562 C 22.53125 23.910156 22.042969 24.449219 21.441406 25.105469 L 20.820312 25.789062 L 20.285156 26.304688 L 19.824219 26.304688 L 19.363281 27.226562 C 18.929688 27.167969 18.929688 27.167969 18.4375 26.996094 C 18.28125 26.691406 18.125 26.382812 17.976562 26.074219 L 17.5625 25.882812 C 16.886719 25.523438 16.539062 25.054688 16.070312 24.453125 L 15.574219 23.832031 L 15.203125 23.300781 L 15.203125 22.835938 L 14.742188 22.835938 C 14.457031 22.511719 14.457031 22.511719 14.136719 22.058594 L 13.785156 21.558594 L 13.414062 21.019531 L 13.03125 20.472656 C 9.867188 15.882812 9.867188 15.882812 9.425781 13.132812 C 9.28125 11.117188 9.53125 9.578125 10.359375 7.753906 C 11.214844 6.0625 12.449219 4.761719 14.019531 3.703125 C 16.566406 2.246094 19.957031 1.929688 22.742188 2.925781 M 62.34375 -37.007812 C 64.265625 -36.554688 65.824219 -35.808594 67.335938 -34.53125 C 68.25 -33.660156 69.011719 -32.722656 69.738281 -31.695312 L 70.078125 -31.230469 C 71.535156 -28.964844 71.878906 -25.78125 72.050781 -23.144531 C 72.621094 -23.46875 72.621094 -23.46875 73.203125 -24.070312 C 73.921875 -25.402344 74.25 -26.726562 74.359375 -28.226562 C 74.78125 -28.167969 74.78125 -28.167969 75.285156 -27.996094 C 75.84375 -27.371094 76.246094 -26.640625 76.671875 -25.917969 L 76.992188 -25.371094 C 78.042969 -23.441406 78.539062 -21.382812 78.605469 -19.1875 C 78.542969 -17.167969 77.992188 -15.429688 76.988281 -13.6875 C 75.851562 -11.980469 74.429688 -11.070312 72.625 -10.136719 C 71.667969 -9.691406 70.796875 -9.390625 69.738281 -9.28125 L 69.738281 -9.742188 L 70.199219 -9.742188 L 70.199219 -10.203125 L 70.734375 -10.695312 C 71.320312 -11.320312 71.664062 -11.832031 71.933594 -12.644531 C 72.222656 -14.035156 72.28125 -15.496094 71.839844 -16.851562 C 71.679688 -17.207031 71.507812 -17.554688 71.328125 -17.898438 C 71.125 -18.292969 71.125 -18.292969 71.125 -18.753906 L 70.664062 -18.753906 L 70.585938 -18.339844 C 70.371094 -17.273438 70.148438 -16.421875 69.507812 -15.519531 C 69.089844 -15.578125 69.089844 -15.578125 68.582031 -15.75 C 67.710938 -16.703125 67.476562 -17.859375 67.148438 -19.078125 C 66.730469 -20.960938 66.957031 -22.453125 67.507812 -24.289062 L 67.660156 -24.761719 C 66.175781 -24.050781 65.136719 -23.109375 64.191406 -21.757812 C 63.304688 -19.894531 62.902344 -18.035156 63.035156 -15.980469 C 63.164062 -15.128906 63.320312 -14.285156 63.5 -13.441406 C 62.960938 -13.496094 62.960938 -13.496094 62.34375 -13.671875 C 61.992188 -14.089844 61.992188 -14.089844 61.722656 -14.59375 C 61.550781 -14.90625 61.375 -15.214844 61.1875 -15.519531 L 60.726562 -15.75 C 60.457031 -14.398438 60.355469 -13.144531 60.652344 -11.792969 C 61.03125 -10.96875 61.503906 -10.414062 62.113281 -9.742188 L 61.882812 -9.28125 C 59.648438 -10.21875 57.941406 -11.421875 56.335938 -13.207031 C 55.769531 -14.023438 55.339844 -14.839844 54.949219 -15.75 L 54.714844 -16.226562 C 53.957031 -17.996094 54.082031 -20.109375 54.253906 -21.988281 C 54.703125 -24.640625 55.878906 -26.675781 57.5625 -28.734375 C 57.769531 -28.949219 57.972656 -29.164062 58.183594 -29.382812 L 58.644531 -29.382812 L 58.601562 -28.71875 C 58.605469 -27.597656 58.84375 -26.464844 59.339844 -25.457031 C 59.804688 -25.148438 59.804688 -25.148438 60.265625 -24.992188 L 60.496094 -25.917969 L 60.957031 -25.917969 L 61.128906 -26.363281 C 61.292969 -26.761719 61.457031 -27.152344 61.640625 -27.539062 C 62.605469 -29.59375 62.976562 -31.5 62.804688 -33.773438 C 62.707031 -34.320312 62.585938 -34.863281 62.445312 -35.402344 C 62.324219 -35.945312 62.308594 -36.453125 62.34375 -37.007812 M -70.054688 -111.28125 L -69.394531 -111.285156 C -68.9375 -111.285156 -68.476562 -111.285156 -68.019531 -111.285156 C -67.324219 -111.28125 -66.628906 -111.289062 -65.9375 -111.296875 C -65.488281 -111.296875 -65.042969 -111.296875 -64.59375 -111.296875 L -63.972656 -111.304688 C -62.492188 -111.285156 -61.191406 -111 -59.898438 -110.257812 C -59.246094 -109.59375 -58.671875 -108.914062 -58.386719 -108.011719 C -58.246094 -107.320312 -58.21875 -106.644531 -58.191406 -105.9375 L -58.171875 -105.472656 C -58.148438 -104.964844 -58.125 -104.460938 -58.105469 -103.953125 L -58.0625 -102.894531 C -58.027344 -102.15625 -57.996094 -101.417969 -57.96875 -100.679688 C -57.925781 -99.734375 -57.886719 -98.789062 -57.847656 -97.84375 C -57.777344 -96.277344 -57.710938 -94.710938 -57.648438 -93.148438 L -57.613281 -92.304688 L -57.585938 -91.539062 L -57.554688 -90.773438 L -57.585938 -90.152344 L -58.050781 -89.691406 L -58.972656 -89.691406 C -59.261719 -91.230469 -59.226562 -92.753906 -59.203125 -94.3125 L -59.679688 -94.289062 L -60.300781 -94.269531 L -60.917969 -94.246094 C -61.515625 -94.3125 -61.515625 -94.3125 -62.054688 -94.632812 L -62.441406 -95.007812 L -62.441406 -95.46875 L -72.144531 -95.238281 L -72.609375 -93.15625 L -73.992188 -93.15625 L -73.992188 -94.3125 L -75.378906 -94.3125 L -75.378906 -89.691406 L -76.765625 -89.921875 L -76.765625 -90.386719 L -77.230469 -90.386719 C -77.25 -91.804688 -77.25 -91.804688 -77.230469 -92.234375 L -76.996094 -92.464844 C -76.941406 -93.09375 -76.898438 -93.714844 -76.867188 -94.34375 L -76.835938 -94.925781 C -76.753906 -96.722656 -76.753906 -98.519531 -76.777344 -100.320312 C -76.785156 -101.480469 -76.738281 -102.601562 -76.59375 -103.753906 C -76.535156 -104.242188 -76.507812 -104.722656 -76.488281 -105.210938 L -76.46875 -105.679688 C -76.457031 -105.988281 -76.445312 -106.300781 -76.4375 -106.613281 C -76.386719 -107.675781 -76.164062 -108.421875 -75.613281 -109.332031 C -73.996094 -110.949219 -72.265625 -111.289062 -70.054688 -111.28125 " fill-opacity="1" fill-rule="nonzero"/></g><g clip-path="url(#3dee79fdc1)"><path fill="#193049" d="M 30.917969 -72.824219 C 31.335938 -72.796875 31.335938 -72.796875 31.839844 -72.59375 C 32.476562 -72.03125 32.476562 -72.03125 32.996094 -71.4375 L 32.996094 -70.976562 L 33.382812 -70.816406 C 34.070312 -70.429688 34.558594 -69.941406 35.121094 -69.386719 L 35.734375 -68.78125 C 36.230469 -68.203125 36.230469 -68.203125 36.417969 -67.667969 L 36.460938 -67.277344 C 35.851562 -66.941406 35.5625 -66.816406 34.84375 -66.816406 L 34.84375 -50.179688 L 37.847656 -50.179688 L 38.3125 -49.949219 C 38.339844 -48.621094 38.339844 -48.621094 38.078125 -48.101562 C 33.503906 -48.09375 28.929688 -48.089844 24.351562 -48.085938 C 22.230469 -48.085938 20.105469 -48.085938 17.980469 -48.082031 C 16.128906 -48.082031 14.277344 -48.078125 12.425781 -48.078125 C 11.445312 -48.078125 10.464844 -48.078125 9.484375 -48.074219 C 8.5625 -48.074219 7.640625 -48.074219 6.71875 -48.074219 C 6.378906 -48.074219 6.039062 -48.074219 5.699219 -48.074219 C 5.238281 -48.070312 4.777344 -48.070312 4.316406 -48.070312 L 3.53125 -48.070312 L 2.957031 -48.101562 L 2.726562 -48.332031 C 2.714844 -48.871094 2.714844 -49.410156 2.726562 -49.949219 C 3.433594 -50.300781 4.171875 -50.203125 4.949219 -50.195312 L 5.445312 -50.191406 C 5.847656 -50.1875 6.25 -50.183594 6.652344 -50.179688 L 6.644531 -50.722656 C 6.621094 -53.507812 6.621094 -53.507812 6.882812 -54.800781 C 7.578125 -55.261719 7.578125 -55.261719 8.207031 -55.316406 C 8.457031 -55.3125 8.703125 -55.3125 8.960938 -55.308594 L 9.773438 -55.304688 L 10.625 -55.292969 L 11.484375 -55.285156 C 12.183594 -55.28125 12.886719 -55.273438 13.585938 -55.261719 L 13.570312 -56.105469 C 13.566406 -56.46875 13.5625 -56.835938 13.558594 -57.199219 L 13.546875 -57.753906 C 13.539062 -58.234375 13.5625 -58.710938 13.585938 -59.191406 L 14.046875 -59.652344 C 14.714844 -59.726562 14.714844 -59.726562 15.558594 -59.75 L 16.46875 -59.777344 L 17.425781 -59.796875 L 18.390625 -59.824219 C 19.175781 -59.847656 19.960938 -59.867188 20.75 -59.882812 L 20.832031 -60.675781 L 20.953125 -61.703125 L 21.007812 -62.226562 C 21.058594 -62.679688 21.132812 -63.132812 21.210938 -63.582031 L 21.671875 -64.042969 C 23.148438 -64.363281 24.582031 -64.257812 26.0625 -64.042969 L 26.0625 -61.734375 L 23.523438 -61.734375 L 23.539062 -60.949219 C 23.542969 -60.609375 23.546875 -60.269531 23.550781 -59.925781 C 23.554688 -59.757812 23.558594 -59.585938 23.5625 -59.410156 C 23.566406 -58.953125 23.546875 -58.492188 23.523438 -58.035156 L 23.058594 -57.34375 C 22.371094 -57.265625 22.371094 -57.265625 21.5 -57.273438 L 21.035156 -57.277344 C 20.542969 -57.28125 20.054688 -57.289062 19.566406 -57.300781 C 19.234375 -57.300781 18.902344 -57.304688 18.570312 -57.308594 C 17.753906 -57.316406 16.941406 -57.328125 16.128906 -57.34375 L 16.144531 -56.558594 C 16.148438 -56.21875 16.152344 -55.878906 16.15625 -55.539062 C 16.160156 -55.367188 16.164062 -55.195312 16.167969 -55.019531 C 16.171875 -54.5625 16.152344 -54.101562 16.128906 -53.644531 L 15.664062 -52.953125 C 15.019531 -52.875 15.019531 -52.875 14.203125 -52.882812 L 13.324219 -52.890625 L 12.402344 -52.910156 C 12.089844 -52.914062 11.78125 -52.914062 11.472656 -52.917969 C 10.714844 -52.925781 9.953125 -52.9375 9.195312 -52.953125 C 9.1875 -52.578125 9.183594 -52.203125 9.179688 -51.824219 L 9.171875 -51.191406 C 9.15625 -50.636719 9.15625 -50.636719 9.425781 -50.179688 L 27.449219 -50.179688 L 27.679688 -66.816406 L 26.0625 -67.277344 C 26.15625 -67.796875 26.246094 -68.144531 26.578125 -68.5625 L 26.933594 -68.902344 L 27.328125 -69.285156 L 27.738281 -69.675781 C 28.511719 -70.417969 29.269531 -71.148438 29.945312 -71.980469 C 30.453125 -72.59375 30.453125 -72.59375 30.917969 -72.824219 M -25.003906 -33.3125 C -24.414062 -33.101562 -24.097656 -32.871094 -23.675781 -32.402344 L -23.386719 -31.925781 L -23.386719 -31.230469 L -22.96875 -31.0625 C -22.363281 -30.714844 -22.128906 -30.375 -21.746094 -29.792969 L -21.347656 -29.191406 L -20.933594 -28.546875 L -20.5 -27.886719 C -20.074219 -27.230469 -19.652344 -26.574219 -19.226562 -25.917969 L -18.863281 -25.351562 C -18.542969 -24.859375 -18.226562 -24.363281 -17.914062 -23.867188 L -17.636719 -23.429688 C -16.691406 -21.917969 -16.054688 -20.488281 -15.949219 -18.695312 C -16.035156 -16.953125 -16.433594 -15.382812 -17.378906 -13.902344 C -18.28125 -12.625 -19.21875 -11.753906 -20.613281 -11.027344 C -22.1875 -10.316406 -23.644531 -9.871094 -25.386719 -9.914062 C -27.367188 -10.128906 -29.179688 -10.972656 -30.8125 -12.082031 C -31.984375 -13.125 -32.734375 -14.621094 -33.292969 -16.066406 C -33.726562 -17.539062 -33.730469 -19.015625 -33.4375 -20.511719 C -32.765625 -22.675781 -31.351562 -24.527344 -30.089844 -26.378906 L -29.703125 -26.949219 C -28.945312 -28.066406 -28.183594 -29.183594 -27.414062 -30.292969 C -27.125 -30.710938 -26.835938 -31.132812 -26.550781 -31.550781 L -26.117188 -32.183594 L -25.761719 -32.707031 C -25.46875 -33.082031 -25.46875 -33.082031 -25.003906 -33.3125 M -29.828125 3.484375 C -29.273438 3.5 -29.273438 3.5 -28.703125 3.660156 C -27.027344 4.953125 -25.96875 6.894531 -25.003906 8.742188 L -24.683594 9.347656 C -24.183594 10.363281 -24.183594 10.363281 -24.082031 10.820312 C -24.210938 11.28125 -24.210938 11.28125 -24.542969 11.746094 C -25.144531 12.242188 -25.144531 12.242188 -25.84375 12.726562 L -26.546875 13.222656 L -27.085938 13.59375 C -26.996094 14.226562 -26.886719 14.691406 -26.558594 15.246094 C -25.070312 17.132812 -23.101562 19.332031 -20.84375 20.296875 C -20.265625 20.328125 -20.265625 20.328125 -19.691406 20.066406 C -19.242188 19.644531 -18.855469 19.246094 -18.460938 18.78125 L -18.144531 18.414062 C -17.886719 18.121094 -17.632812 17.820312 -17.378906 17.523438 C -15.894531 17.761719 -14.871094 18.179688 -13.609375 18.992188 C -12.71875 19.535156 -11.777344 19.96875 -10.832031 20.414062 C -10.191406 20.773438 -9.761719 21.121094 -9.292969 21.683594 C -9.148438 22.417969 -9.148438 22.417969 -9.292969 23.300781 C -9.683594 24.050781 -10.164062 24.707031 -10.679688 25.378906 L -11.199219 26.128906 C -12.101562 27.035156 -12.910156 27.5625 -14.144531 27.921875 C -16.5 28.265625 -18.722656 27.980469 -20.9375 27.140625 C -24.175781 25.683594 -26.808594 23.632812 -29.394531 21.21875 L -29.929688 20.730469 C -32.410156 18.375 -33.992188 15.613281 -35.171875 12.4375 C -35.511719 11.109375 -35.625 9.605469 -35.28125 8.265625 C -35.113281 7.859375 -35.113281 7.859375 -34.710938 7.125 L -34.347656 6.433594 C -33.542969 5.4375 -32.542969 4.8125 -31.476562 4.121094 C -30.820312 3.683594 -30.578125 3.554688 -29.828125 3.484375 " fill-opacity="1" fill-rule="nonzero"/></g><g clip-path="url(#c683270922)"><path fill="#193049" d="M 99.316406 -92.003906 C 99.949219 -92.027344 100.574219 -92.035156 101.207031 -92.03125 L 101.804688 -92.035156 C 102.464844 -92.035156 103.121094 -92.035156 103.777344 -92.03125 C 104.234375 -92.03125 104.6875 -92.035156 105.144531 -92.035156 C 106.097656 -92.035156 107.054688 -92.035156 108.007812 -92.03125 C 109.234375 -92.03125 110.464844 -92.03125 111.691406 -92.035156 C 112.628906 -92.035156 113.570312 -92.035156 114.511719 -92.035156 C 114.964844 -92.035156 115.414062 -92.035156 115.867188 -92.035156 C 116.5 -92.035156 117.128906 -92.035156 117.761719 -92.03125 L 118.335938 -92.035156 C 118.773438 -92.03125 119.210938 -92.019531 119.652344 -92.003906 L 119.882812 -91.769531 C 119.90625 -91.191406 119.914062 -90.617188 119.910156 -90.039062 L 119.914062 -89.546875 C 119.914062 -89.132812 119.898438 -88.71875 119.882812 -88.304688 L 119.652344 -88.074219 C 119.019531 -88.050781 118.394531 -88.042969 117.761719 -88.042969 L 117.164062 -88.042969 C 116.503906 -88.042969 115.847656 -88.042969 115.1875 -88.042969 C 114.734375 -88.042969 114.277344 -88.042969 113.824219 -88.042969 C 112.867188 -88.042969 111.914062 -88.042969 110.957031 -88.042969 C 109.730469 -88.046875 108.503906 -88.042969 107.277344 -88.042969 C 106.335938 -88.042969 105.398438 -88.042969 104.457031 -88.042969 C 104.003906 -88.042969 103.550781 -88.042969 103.101562 -88.042969 C 102.46875 -88.042969 101.835938 -88.042969 101.207031 -88.042969 L 100.632812 -88.042969 C 100.195312 -88.042969 99.753906 -88.058594 99.316406 -88.074219 L 99.085938 -88.304688 C 99.0625 -88.886719 99.054688 -89.457031 99.054688 -90.039062 L 99.054688 -90.53125 C 99.054688 -90.945312 99.070312 -91.359375 99.085938 -91.769531 Z M 12.890625 23.351562 C 13.460938 23.570312 13.707031 23.832031 14.101562 24.296875 L 14.503906 24.761719 L 14.914062 25.25 L 15.335938 25.734375 C 16.085938 26.613281 16.085938 26.613281 16.359375 26.996094 L 16.359375 27.457031 L 16.820312 27.457031 L 17.183594 27.90625 C 17.691406 28.398438 17.691406 28.398438 18.21875 28.527344 C 18.796875 28.621094 19.238281 28.691406 19.824219 28.613281 C 20.847656 28.039062 21.582031 27.351562 22.351562 26.476562 L 22.949219 25.804688 L 23.523438 25.148438 L 24.03125 24.570312 C 24.402344 24.148438 24.769531 23.726562 25.140625 23.300781 C 26.578125 23.496094 27.710938 23.816406 28.929688 24.613281 C 29.300781 24.917969 29.300781 24.917969 29.761719 25.609375 C 29.730469 26.273438 29.730469 26.273438 29.53125 26.996094 C 29.074219 27.671875 28.679688 28.105469 27.988281 28.542969 C 24.605469 30.054688 20.648438 30.535156 16.972656 30.179688 C 14.21875 29.886719 11.570312 29.574219 9.253906 27.933594 L 8.734375 27.457031 C 8.488281 26.664062 8.488281 26.664062 8.5 25.839844 C 8.804688 25.234375 8.804688 25.234375 9.425781 24.6875 C 11.925781 23.242188 11.925781 23.242188 12.890625 23.351562 M 78.75 14.980469 C 79.085938 14.96875 79.425781 14.960938 79.761719 14.953125 L 80.328125 14.9375 L 80.828125 14.980469 L 81.292969 15.441406 C 81.414062 16.113281 81.414062 16.113281 81.480469 16.917969 L 81.558594 17.714844 C 81.523438 18.445312 81.523438 18.445312 81.246094 18.988281 C 80.828125 19.371094 80.828125 19.371094 80.308594 19.5625 L 79.746094 19.660156 C 79.558594 19.695312 79.375 19.730469 79.179688 19.765625 L 78.75 19.832031 C 78.496094 20.527344 78.300781 21.171875 78.289062 21.914062 C 78.597656 22.363281 78.914062 22.636719 79.355469 22.957031 L 79.675781 23.300781 C 79.777344 23.839844 79.777344 23.839844 79.675781 24.453125 C 79.269531 25.082031 79.269531 25.082031 78.722656 25.695312 L 78.183594 26.324219 L 77.59375 26.765625 C 76.875 26.746094 76.875 26.746094 76.207031 26.535156 L 75.515625 26.074219 C 74.632812 26.148438 73.980469 26.355469 73.203125 26.765625 L 73.21875 27.253906 L 73.25 28.527344 L 73.203125 29.074219 C 72.742188 29.539062 72.742188 29.539062 72.238281 29.683594 C 70.054688 30.101562 70.054688 30.101562 69.042969 30 C 68.429688 29.386719 68.328125 28.765625 68.09375 27.941406 L 67.890625 27.457031 L 67.195312 26.996094 L 67.890625 24.453125 L 69.042969 24.222656 L 69.824219 24.585938 C 70.632812 24.976562 70.632812 24.976562 71.429688 24.859375 C 72.6875 24.40625 73.691406 23.335938 74.589844 22.375 C 75.132812 21.664062 75.28125 21.246094 75.402344 20.347656 C 75.417969 20.039062 75.433594 19.726562 75.441406 19.414062 L 75.46875 18.929688 C 75.484375 18.539062 75.5 18.144531 75.515625 17.753906 L 75.988281 17.617188 C 76.644531 17.398438 77.226562 17.171875 77.824219 16.828125 C 78.285156 16.222656 78.484375 15.707031 78.75 14.980469 " fill-opacity="1" fill-rule="nonzero"/></g><path fill="#fefefe" d="M 20.285156 7.585938 C 21.019531 7.859375 21.570312 8.203125 22.136719 8.742188 C 22.683594 9.464844 22.992188 10.175781 23.136719 11.070312 C 23.175781 11.847656 23.054688 12.453125 22.785156 13.175781 C 22.214844 14.0625 21.617188 14.738281 20.707031 15.285156 C 19.726562 15.523438 18.746094 15.554688 17.746094 15.441406 C 17.210938 15.207031 17.210938 15.207031 16.820312 14.980469 L 16.820312 14.519531 L 16.128906 14.289062 L 16.128906 13.824219 L 15.664062 13.824219 C 14.957031 11.96875 14.957031 11.96875 14.988281 11 C 15.160156 10.191406 15.457031 9.558594 15.953125 8.902344 C 17.25 7.632812 18.515625 7.300781 20.285156 7.585938 " fill-opacity="1" fill-rule="nonzero"/><g clip-path="url(#c7fe41a1f9)"><path fill="#0c2240" d="M 83.371094 -90.386719 C 83.910156 -90.394531 84.449219 -90.394531 84.988281 -90.386719 L 85.21875 -90.152344 C 85.230469 -89.613281 85.230469 -89.074219 85.21875 -88.535156 C 84.609375 -88.230469 84.152344 -88.277344 83.46875 -88.273438 L 82.636719 -88.269531 L 81.722656 -88.273438 L 80.761719 -88.269531 C 79.890625 -88.265625 79.019531 -88.265625 78.148438 -88.265625 C 77.421875 -88.265625 76.695312 -88.265625 75.96875 -88.265625 C 74.253906 -88.261719 72.542969 -88.261719 70.828125 -88.261719 C 69.058594 -88.261719 67.289062 -88.261719 65.519531 -88.257812 C 64 -88.253906 62.484375 -88.253906 60.964844 -88.253906 C 60.058594 -88.253906 59.152344 -88.25 58.246094 -88.25 C 57.390625 -88.246094 56.539062 -88.246094 55.6875 -88.25 C 55.222656 -88.25 54.757812 -88.246094 54.296875 -88.246094 L 53.464844 -88.25 L 52.742188 -88.246094 L 52.175781 -88.304688 L 51.714844 -88.765625 C 51.683594 -89.488281 51.683594 -89.488281 51.714844 -90.152344 L 52.175781 -89.691406 L 52.175781 -89 L 84.296875 -89.230469 L 84.527344 -90.152344 L 83.371094 -90.152344 Z M -77.691406 5.738281 C -77.304688 5.730469 -76.921875 5.730469 -76.535156 5.738281 L -76.535156 6.433594 L -76.074219 6.433594 L -76.03125 6.90625 L -75.972656 7.527344 C -75.953125 7.734375 -75.933594 7.9375 -75.914062 8.148438 C -75.851562 8.660156 -75.75 9.167969 -75.613281 9.667969 L -75.136719 9.722656 C -74.253906 9.949219 -73.613281 10.351562 -72.839844 10.820312 C -73.15625 11.167969 -73.15625 11.167969 -73.53125 11.515625 L -73.992188 11.515625 L -73.53125 12.4375 C -74.351562 12.199219 -74.992188 11.933594 -75.683594 11.441406 C -76.082031 11.183594 -76.082031 11.183594 -76.535156 11.054688 C -77.589844 11.207031 -78.429688 11.621094 -79.308594 12.207031 C -79.785156 12.152344 -79.785156 12.152344 -80.234375 11.976562 L -80.695312 11.515625 C -80.652344 11.054688 -80.652344 11.054688 -80.464844 10.589844 L -79.769531 10.128906 L -79.078125 10.128906 L -79.078125 9.4375 L -79.742188 9.277344 L -80.464844 8.972656 C -80.78125 8.367188 -80.78125 8.367188 -80.925781 7.816406 L -80.464844 7.355469 C -79.5 7.425781 -78.769531 7.59375 -77.921875 8.050781 L -77.929688 7.601562 L -77.945312 6.445312 L -77.921875 5.96875 Z M -66.367188 5.738281 C -65.789062 5.710938 -65.789062 5.710938 -65.214844 5.738281 L -64.980469 5.96875 C -64.964844 6.320312 -64.960938 6.671875 -64.96875 7.023438 L -64.972656 7.601562 L -64.980469 8.050781 L -64.609375 7.839844 L -64.117188 7.574219 L -63.628906 7.304688 C -63.132812 7.125 -63.132812 7.125 -62.609375 7.210938 L -62.207031 7.355469 L -61.976562 8.511719 C -63.195312 9.234375 -63.195312 9.234375 -63.59375 9.4375 L -64.058594 9.4375 L -64.058594 9.898438 L -63.523438 10.101562 C -62.902344 10.359375 -62.902344 10.359375 -62.207031 10.820312 C -62.265625 11.253906 -62.265625 11.253906 -62.441406 11.746094 C -62.839844 12.042969 -62.839844 12.042969 -63.363281 12.207031 C -63.925781 11.992188 -63.925781 11.992188 -64.519531 11.644531 C -65.09375 11.292969 -65.09375 11.292969 -65.675781 11.054688 C -66.535156 11.121094 -67.285156 11.605469 -68.042969 11.992188 L -68.796875 12.375 L -69.371094 12.671875 L -69.835938 12.207031 L -69.140625 11.515625 L -69.601562 10.589844 L -69.121094 10.402344 C -68.40625 10.058594 -67.875 9.746094 -67.292969 9.203125 C -66.898438 8.140625 -66.75 7.089844 -66.597656 5.96875 Z M 38.773438 -89.921875 C 39.207031 -89.984375 39.207031 -89.984375 39.699219 -89.980469 L 40.1875 -89.984375 L 40.621094 -89.921875 L 41.085938 -89.460938 C 41.011719 -88.867188 41.011719 -88.867188 40.851562 -88.304688 L 40.621094 -88.074219 C 40.164062 -88.050781 39.703125 -88.046875 39.246094 -88.042969 L 36.28125 -88.042969 C 35.328125 -88.042969 34.375 -88.042969 33.421875 -88.042969 C 32.425781 -88.042969 31.429688 -88.042969 30.433594 -88.042969 C 28.757812 -88.042969 27.085938 -88.042969 25.414062 -88.042969 C 23.476562 -88.046875 21.539062 -88.046875 19.601562 -88.042969 C 17.941406 -88.042969 16.28125 -88.042969 14.621094 -88.042969 C 13.628906 -88.042969 12.636719 -88.042969 11.644531 -88.042969 C 10.710938 -88.042969 9.777344 -88.042969 8.84375 -88.042969 C 8.5 -88.042969 8.15625 -88.042969 7.8125 -88.042969 C 7.347656 -88.042969 6.878906 -88.042969 6.414062 -88.042969 L 5.617188 -88.046875 L 5.035156 -88.074219 L 4.804688 -88.304688 C 4.796875 -88.765625 4.792969 -89.230469 4.804688 -89.691406 C 5.476562 -89.445312 5.910156 -89.28125 6.421875 -88.765625 C 6.960938 -88.699219 6.960938 -88.699219 7.597656 -88.710938 L 8.355469 -88.707031 L 9.1875 -88.710938 L 10.0625 -88.710938 C 10.855469 -88.710938 11.648438 -88.710938 12.445312 -88.710938 C 13.277344 -88.714844 14.109375 -88.714844 14.941406 -88.714844 C 16.339844 -88.714844 17.738281 -88.714844 19.140625 -88.71875 C 20.753906 -88.722656 22.363281 -88.726562 23.976562 -88.722656 C 25.699219 -88.722656 27.417969 -88.726562 29.140625 -88.726562 C 29.632812 -88.730469 30.125 -88.730469 30.621094 -88.730469 C 31.546875 -88.730469 32.472656 -88.730469 33.398438 -88.734375 L 34.214844 -88.734375 C 35.898438 -88.738281 37.558594 -88.832031 39.234375 -89 L 38.3125 -89.460938 Z M 38.773438 -89.921875 " fill-opacity="1" fill-rule="nonzero"/><path fill="#0c2240" d="M 29.300781 -102.863281 C 29.953125 -102.636719 30.402344 -102.449219 30.90625 -101.964844 C 31.941406 -101.246094 33.039062 -101.058594 34.253906 -100.78125 C 34.753906 -100.664062 35.25 -100.542969 35.75 -100.425781 L 36.480469 -100.25 C 37.34375 -100.042969 38.195312 -99.820312 39.046875 -99.585938 L 39.765625 -99.386719 C 40.429688 -99.152344 40.972656 -98.882812 41.546875 -98.472656 C 41.734375 -97.851562 41.734375 -97.851562 41.777344 -97.316406 L 41.214844 -97.433594 C 40.683594 -97.554688 40.683594 -97.554688 40.390625 -97.546875 L 40.160156 -97.085938 L 39.929688 -97.316406 C 39.152344 -97.382812 38.375 -97.421875 37.597656 -97.460938 L 36.925781 -97.546875 L 36.695312 -98.011719 L 37.617188 -98.242188 L 37.617188 -98.703125 L 37.15625 -98.933594 L 36.925781 -99.394531 C 36.449219 -99.574219 35.96875 -99.730469 35.480469 -99.871094 L 34.683594 -100.113281 C 34.042969 -100.285156 33.414062 -100.425781 32.765625 -100.550781 C 31.484375 -100.902344 30.574219 -101.445312 29.585938 -102.328125 L 29.300781 -102.632812 Z M 1.105469 -104.480469 C 1.570312 -104.5 2.03125 -104.503906 2.496094 -104.503906 L 3.34375 -104.5 L 5.140625 -104.492188 C 5.875 -104.488281 6.609375 -104.484375 7.347656 -104.480469 L 7.347656 -102.863281 L 1.105469 -102.863281 L 0.875 -104.25 Z M -51.808594 -25.457031 C -51.320312 -25.46875 -50.828125 -25.476562 -50.335938 -25.484375 L -49.507812 -25.5 L -48.804688 -25.457031 L -48.34375 -24.992188 C -48.300781 -24.425781 -48.285156 -23.855469 -48.289062 -23.289062 L -48.289062 -22.777344 C -48.292969 -22.421875 -48.292969 -22.070312 -48.296875 -21.714844 C -48.300781 -21.167969 -48.300781 -20.621094 -48.300781 -20.078125 C -48.300781 -19.730469 -48.304688 -19.386719 -48.304688 -19.042969 L -48.304688 -18.542969 C -48.3125 -18.152344 -48.324219 -17.761719 -48.34375 -17.367188 L -48.574219 -17.136719 C -49.160156 -17.082031 -49.738281 -17.039062 -50.324219 -17.007812 L -50.820312 -16.976562 C -51.226562 -16.953125 -51.632812 -16.929688 -52.042969 -16.90625 L -52.273438 -17.597656 C -51.410156 -17.730469 -50.605469 -17.832031 -49.730469 -17.832031 C -49.070312 -21.308594 -49.070312 -21.308594 -49.5 -24.761719 L -51.808594 -25.222656 Z M -68.21875 9.898438 C -67.667969 10.085938 -67.667969 10.085938 -67.292969 10.359375 L -67.292969 10.589844 L -66.667969 10.429688 L -65.847656 10.230469 L -65.035156 10.027344 C -64.289062 9.898438 -64.289062 9.898438 -63.769531 9.96875 C -63.207031 10.191406 -62.714844 10.496094 -62.207031 10.820312 C -62.265625 11.253906 -62.265625 11.253906 -62.441406 11.746094 C -62.839844 12.042969 -62.839844 12.042969 -63.363281 12.207031 C -63.925781 11.992188 -63.925781 11.992188 -64.519531 11.644531 C -65.09375 11.292969 -65.09375 11.292969 -65.675781 11.054688 C -66.535156 11.121094 -67.285156 11.605469 -68.042969 11.992188 L -68.796875 12.375 L -69.371094 12.671875 L -69.835938 12.207031 L -69.140625 11.515625 L -69.601562 10.589844 C -68.96875 10.214844 -68.96875 10.214844 -68.21875 9.898438 " fill-opacity="1" fill-rule="nonzero"/></g><g clip-path="url(#f3c4c63910)"><path fill="#0c2240" d="M 78.289062 22.375 C 78.859375 22.640625 79.222656 22.847656 79.675781 23.300781 C 79.761719 23.828125 79.761719 23.828125 79.675781 24.453125 C 79.269531 25.082031 79.269531 25.082031 78.722656 25.695312 C 78.542969 25.902344 78.367188 26.109375 78.183594 26.324219 L 77.59375 26.765625 C 76.875 26.746094 76.875 26.746094 76.207031 26.535156 L 75.515625 26.074219 C 74.539062 26.160156 73.660156 26.4375 72.742188 26.765625 L 72.742188 26.074219 C 73.425781 25.777344 74.09375 25.53125 74.820312 25.378906 C 75.339844 25.453125 75.339844 25.453125 75.820312 25.597656 L 76.671875 25.839844 C 77.199219 25.664062 77.199219 25.664062 77.59375 25.378906 L 78.289062 25.378906 L 78.390625 24.945312 C 78.519531 24.453125 78.519531 24.453125 78.75 23.992188 C 78.609375 23.449219 78.457031 22.910156 78.289062 22.375 M 67.660156 25.609375 C 68.074219 26.230469 68.328125 26.769531 68.597656 27.457031 L 68.835938 28.066406 C 68.992188 28.476562 69.136719 28.890625 69.277344 29.308594 C 69.652344 29.273438 70.027344 29.242188 70.402344 29.207031 L 71.035156 29.148438 C 71.589844 29.105469 71.589844 29.105469 72.050781 28.84375 C 72.207031 28.410156 72.207031 28.410156 72.308594 27.90625 L 72.425781 27.394531 L 72.511719 26.996094 L 72.972656 26.996094 C 73.023438 27.332031 73.070312 27.671875 73.117188 28.007812 L 73.199219 28.574219 L 73.203125 29.074219 C 72.742188 29.539062 72.742188 29.539062 72.238281 29.683594 C 70.054688 30.101562 70.054688 30.101562 69.042969 30 C 68.429688 29.386719 68.328125 28.765625 68.09375 27.941406 L 67.890625 27.457031 L 67.195312 26.996094 Z M 14.972656 -89.921875 L 30.222656 -89.921875 L 30.222656 -89.691406 L 24.445312 -89.460938 L 24.445312 -89 L 23.523438 -89.230469 L 23.523438 -89.691406 L 23.28125 -89.347656 L 22.828125 -89 C 22.054688 -88.929688 22.054688 -88.929688 21.167969 -88.953125 L 20.277344 -88.972656 L 19.59375 -89 L 19.59375 -89.460938 L 14.972656 -89.691406 Z M 72.742188 9.667969 L 73.203125 9.667969 L 73.421875 10.230469 L 73.898438 10.820312 C 74.550781 10.945312 75.175781 10.980469 75.839844 10.996094 C 76.4375 11.054688 76.4375 11.054688 77.132812 11.515625 C 77.195312 12.1875 77.21875 12.804688 77.203125 13.480469 L 77.207031 14.027344 C 77.203125 14.5 77.167969 14.972656 77.132812 15.441406 L 76.671875 15.90625 C 76.121094 16 76.121094 16 75.484375 16.050781 L 74.847656 16.101562 L 74.359375 16.136719 L 74.128906 15.675781 L 76.207031 15.441406 C 76.257812 14.917969 76.308594 14.394531 76.351562 13.871094 L 76.433594 12.984375 L 76.4375 12.207031 L 75.976562 11.515625 C 75.386719 11.421875 75.386719 11.421875 74.722656 11.429688 C 74.03125 11.386719 74.03125 11.386719 73.433594 11.285156 C 72.929688 10.722656 72.929688 10.722656 72.742188 10.128906 Z M 116.648438 -15.75 L 117.109375 -15.75 C 117.601562 -15.203125 117.601562 -15.203125 118.035156 -14.59375 L 118.035156 -14.132812 L 118.496094 -14.132812 C 118.554688 -13.507812 118.554688 -13.507812 118.496094 -12.746094 C 118.082031 -12.171875 118.082031 -12.171875 117.527344 -11.648438 L 116.984375 -11.117188 C 116.414062 -10.664062 115.960938 -10.402344 115.261719 -10.203125 C 114.667969 -10.480469 114.667969 -10.480469 114.105469 -10.898438 L 113.613281 -11.257812 C 113.472656 -11.367188 113.328125 -11.480469 113.179688 -11.589844 L 112.488281 -12.054688 L 113.875 -12.054688 L 113.875 -11.589844 C 114.558594 -11.421875 115.03125 -11.316406 115.722656 -11.359375 C 116.46875 -11.703125 117.035156 -12.125 117.570312 -12.746094 C 117.804688 -13.449219 117.804688 -13.449219 117.570312 -14.132812 C 117.128906 -14.765625 117.128906 -14.765625 116.648438 -15.289062 Z M 70.429688 -56.1875 L 71.355469 -55.726562 C 71.253906 -55.191406 71.253906 -55.191406 70.894531 -54.570312 C 69.777344 -53.875 68.464844 -53.8125 67.183594 -53.761719 C 65.234375 -53.796875 63.441406 -54.277344 61.648438 -55.03125 L 61.417969 -55.492188 C 62.460938 -55.398438 63.363281 -55.246094 64.351562 -54.902344 C 65.746094 -54.460938 67.132812 -54.429688 68.582031 -54.570312 C 69.335938 -54.742188 69.335938 -54.742188 69.96875 -55.03125 C 70.300781 -55.613281 70.300781 -55.613281 70.429688 -56.1875 M 23.058594 -60.347656 L 23.523438 -60.347656 C 23.535156 -59.976562 23.542969 -59.605469 23.550781 -59.234375 L 23.566406 -58.609375 C 23.523438 -58.035156 23.523438 -58.035156 23.058594 -57.34375 C 22.371094 -57.265625 22.371094 -57.265625 21.5 -57.273438 L 21.035156 -57.277344 C 20.542969 -57.28125 20.054688 -57.289062 19.566406 -57.300781 C 19.234375 -57.300781 18.902344 -57.304688 18.570312 -57.308594 C 17.753906 -57.316406 16.941406 -57.328125 16.128906 -57.34375 L 15.894531 -57.804688 C 17.679688 -57.988281 19.414062 -58.042969 21.203125 -57.976562 C 21.902344 -57.988281 21.902344 -57.988281 22.449219 -58.332031 L 22.828125 -58.730469 C 23.015625 -59.5625 23.015625 -59.5625 23.058594 -60.347656 " fill-opacity="1" fill-rule="nonzero"/></g><g clip-path="url(#cfb0e30fb9)"><path fill="#0c2240" d="M -52.964844 10.128906 C -52.574219 10.113281 -52.1875 10.109375 -51.796875 10.113281 L -51.152344 10.121094 L -50.65625 10.128906 C -50.566406 10.667969 -50.488281 11.207031 -50.421875 11.746094 L -50.65625 11.976562 C -51.035156 12.007812 -51.414062 12.019531 -51.796875 12.019531 L -52.421875 12.03125 L -52.964844 11.976562 L -53.429688 11.515625 C -53.355469 10.921875 -53.355469 10.921875 -53.195312 10.359375 Z M 118.265625 -23.375 C 118.640625 -23.382812 119.015625 -23.386719 119.390625 -23.390625 L 120.023438 -23.398438 C 120.574219 -23.375 120.574219 -23.375 121.039062 -23.144531 C 121.292969 -22.378906 121.308594 -21.785156 121.3125 -20.976562 L 121.320312 -20.191406 C 121.269531 -19.449219 121.164062 -18.945312 120.808594 -18.292969 C 120.171875 -18.082031 119.800781 -18.035156 119.144531 -18.046875 L 118.265625 -18.0625 L 118.496094 -18.523438 L 120.113281 -18.984375 C 120.460938 -19.679688 120.367188 -20.324219 120.359375 -21.09375 L 120.351562 -21.992188 L 120.34375 -22.683594 L 118.265625 -23.144531 Z M 118.265625 -23.375 " fill-opacity="1" fill-rule="nonzero"/></g><g clip-path="url(#1b6e9498a1)"><path fill="#0c2240" d="M 36.460938 -12.054688 L 38.3125 -11.589844 C 38.316406 -11.25 38.320312 -10.90625 38.324219 -10.566406 L 38.332031 -9.988281 L 38.3125 -9.511719 L 38.078125 -9.28125 C 37.734375 -9.261719 37.390625 -9.253906 37.046875 -9.257812 L 36.417969 -9.261719 L 35.089844 -9.269531 C 34.546875 -9.273438 34.003906 -9.277344 33.457031 -9.28125 L 33.226562 -9.742188 L 37.15625 -9.972656 L 37.386719 -11.359375 L 36.460938 -11.824219 Z M -52.964844 13.363281 C -52.414062 13.296875 -52.414062 13.296875 -51.78125 13.320312 L -51.144531 13.339844 L -50.65625 13.363281 L -50.421875 14.980469 C -51.40625 15.25 -52.199219 15.15625 -53.195312 14.980469 C -53.339844 14.5625 -53.339844 14.5625 -53.429688 14.058594 Z M -52.964844 6.894531 C -52.363281 6.824219 -52.363281 6.824219 -51.664062 6.851562 L -50.964844 6.871094 L -50.421875 6.894531 L -50.421875 8.511719 L -53.195312 8.511719 L -53.429688 7.585938 Z M -31.476562 -13.207031 L -29.394531 -12.054688 L -29.394531 -11.589844 C -26.886719 -10.691406 -24.402344 -10.511719 -21.769531 -10.898438 L -22 -10.4375 C -23.515625 -9.949219 -24.941406 -9.765625 -26.507812 -10.097656 C -28.40625 -10.628906 -30.039062 -11.382812 -31.476562 -12.746094 Z M -0.277344 -96.160156 C 0.101562 -96.183594 0.480469 -96.191406 0.863281 -96.191406 L 1.488281 -96.191406 C 2.03125 -96.160156 2.03125 -96.160156 2.492188 -95.929688 C 2.503906 -95.546875 2.503906 -95.160156 2.492188 -94.773438 L 2.261719 -94.542969 C 1.882812 -94.519531 1.503906 -94.515625 1.121094 -94.515625 L 0.496094 -94.511719 C -0.046875 -94.542969 -0.046875 -94.542969 -0.511719 -94.773438 C -0.519531 -95.160156 -0.519531 -95.546875 -0.511719 -95.929688 Z M -0.277344 -96.160156 " fill-opacity="1" fill-rule="nonzero"/></g><g clip-path="url(#88bee86d42)"><path fill="#0c2240" d="M 9.425781 24.6875 L 9.886719 24.917969 L 9.527344 25.292969 C 9.136719 25.832031 9.136719 25.832031 9.179688 26.535156 C 9.378906 27.265625 9.378906 27.265625 9.988281 27.734375 C 10.855469 28.175781 11.679688 28.429688 12.621094 28.65625 L 13.125 28.84375 L 13.585938 29.539062 C 11.929688 29.398438 10.609375 28.820312 9.195312 27.964844 C 8.734375 27.457031 8.734375 27.457031 8.488281 26.664062 L 8.5 25.839844 C 8.949219 25.164062 8.949219 25.164062 9.425781 24.6875 M 12.199219 -104.25 L 12.890625 -104.25 C 12.65625 -103.617188 12.410156 -103.0625 12.054688 -102.488281 L 11.738281 -101.9375 L 11.738281 -101.246094 C 12.34375 -100.941406 12.828125 -100.964844 13.507812 -100.941406 L 14.292969 -100.910156 L 15.117188 -100.882812 L 15.945312 -100.855469 C 16.621094 -100.828125 17.300781 -100.804688 17.976562 -100.78125 L 17.976562 -100.550781 C 16.992188 -100.539062 16.011719 -100.53125 15.03125 -100.523438 L 14.183594 -100.511719 L 13.371094 -100.507812 L 12.625 -100.5 C 11.972656 -100.550781 11.597656 -100.675781 11.042969 -101.015625 C 11.117188 -102.078125 11.199219 -102.71875 11.707031 -103.671875 Z M 73.433594 20.066406 L 74.128906 20.066406 C 74.078125 20.566406 74.078125 20.566406 73.898438 21.21875 C 73.425781 21.847656 73.425781 21.847656 72.828125 22.460938 L 72.242188 23.089844 C 72.027344 23.234375 71.808594 23.378906 71.585938 23.53125 C 70.75 23.519531 70.75 23.519531 69.96875 23.300781 C 69.417969 22.972656 69.050781 22.589844 68.582031 22.144531 C 69.277344 22.144531 69.277344 22.144531 69.953125 22.519531 L 70.664062 22.835938 C 71.15625 22.746094 71.15625 22.746094 71.585938 22.375 L 72.308594 21.839844 C 72.996094 21.273438 72.996094 21.273438 73.289062 20.570312 Z M 64.886719 7.125 C 66.289062 7.539062 67.425781 8.195312 68.496094 9.191406 C 69.074219 9.808594 69.269531 10.105469 69.507812 10.9375 L 69.507812 11.515625 L 69.117188 11.023438 L 68.582031 10.359375 L 68.046875 9.652344 C 67.269531 8.800781 66.5 8.277344 65.386719 7.910156 C 64.734375 7.789062 64.105469 7.796875 63.441406 7.804688 L 62.6875 7.808594 L 62.113281 7.816406 L 61.882812 7.355469 C 62.902344 7.015625 63.820312 6.996094 64.886719 7.125 M 61.417969 24.917969 L 61.648438 25.378906 C 62.277344 25.453125 62.882812 25.496094 63.511719 25.523438 L 64.042969 25.550781 C 64.480469 25.574219 64.914062 25.589844 65.347656 25.609375 L 65.578125 24.917969 L 66.273438 25.148438 L 66.273438 26.074219 C 64.707031 26.351562 62.945312 26.582031 61.417969 26.074219 Z M 77.824219 -54.339844 L 78.289062 -54.339844 C 78.164062 -53.109375 77.792969 -52.136719 77.132812 -51.105469 C 76.269531 -50.050781 75.398438 -49.320312 74.128906 -48.792969 L 74.128906 -49.484375 C 74.492188 -49.800781 74.492188 -49.800781 74.980469 -50.121094 C 75.921875 -50.796875 76.574219 -51.472656 77.132812 -52.488281 C 77.398438 -53.101562 77.613281 -53.707031 77.824219 -54.339844 M 61.648438 -63.8125 L 62.34375 -63.582031 L 62.34375 -63.117188 L 62.734375 -62.941406 C 63.550781 -62.507812 64.269531 -61.945312 65.015625 -61.398438 C 65.53125 -61.070312 65.902344 -60.910156 66.503906 -60.808594 L 66.503906 -60.347656 L 66.941406 -60.21875 L 67.515625 -60.042969 L 68.082031 -59.871094 L 68.582031 -59.652344 L 69.042969 -58.960938 C 66.363281 -59.792969 64.015625 -61.140625 61.941406 -63.023438 L 61.648438 -63.351562 Z M -73.070312 18.910156 L -72.609375 19.140625 C -72.925781 19.601562 -72.925781 19.601562 -73.300781 20.066406 L -73.761719 20.066406 L -73.761719 20.757812 L -72.375 20.527344 L -72.375 20.988281 C -72.996094 21.351562 -72.996094 21.351562 -73.761719 21.683594 C -74.425781 21.609375 -74.425781 21.609375 -74.917969 21.449219 L -75.148438 20.527344 Z M 70.199219 3.890625 C 70.933594 3.949219 71.382812 4.136719 72.023438 4.507812 L 72.699219 4.988281 L 73.382812 5.460938 L 73.898438 5.96875 C 74.007812 6.566406 74.007812 6.566406 73.898438 7.125 C 73.320312 7.773438 73.320312 7.773438 72.742188 8.28125 L 72.511719 7.816406 L 72.742188 7.398438 C 73.011719 6.898438 73.011719 6.898438 72.972656 6.316406 C 72.769531 5.683594 72.769531 5.683594 72.148438 5.21875 C 71.210938 4.742188 70.546875 4.65625 69.507812 4.582031 C 69.78125 4.222656 69.78125 4.222656 70.199219 3.890625 M 97.46875 -13.902344 L 97.765625 -13.5 C 98.148438 -12.992188 98.542969 -12.496094 98.957031 -12.011719 L 99.359375 -11.523438 C 99.75 -11.105469 99.75 -11.105469 100.253906 -10.941406 L 100.703125 -10.898438 C 101.328125 -11.183594 101.328125 -11.183594 101.859375 -11.589844 L 102.089844 -12.054688 L 102.78125 -12.054688 C 102.636719 -11.648438 102.636719 -11.648438 102.320312 -11.128906 C 101.671875 -10.59375 101.671875 -10.59375 100.933594 -10.203125 C 100.386719 -10.226562 100.386719 -10.226562 99.777344 -10.4375 C 99.167969 -10.933594 99.167969 -10.933594 98.566406 -11.546875 L 97.957031 -12.160156 C 97.46875 -12.746094 97.46875 -12.746094 97.269531 -13.269531 L 97.238281 -13.671875 Z M 97.46875 -13.902344 " fill-opacity="1" fill-rule="nonzero"/></g><g clip-path="url(#9a8aa9d9d6)"><path fill="#0c2240" d="M -29.625 3.660156 C -29.105469 3.71875 -29.105469 3.71875 -28.472656 3.890625 C -26.988281 5.121094 -26.078125 6.808594 -25.234375 8.511719 C -25.65625 8.347656 -25.65625 8.347656 -26.160156 8.050781 C -26.503906 7.546875 -26.503906 7.546875 -26.824219 6.953125 C -27.425781 5.902344 -28.019531 5.144531 -28.933594 4.351562 L -29.625 4.121094 Z M 65.808594 -67.972656 C 66.375 -67.914062 66.925781 -67.839844 67.484375 -67.753906 C 68.558594 -67.59375 69.578125 -67.480469 70.664062 -67.507812 L 70.664062 -67.046875 C 68.875 -67.023438 67.125 -67.054688 65.347656 -67.277344 L 65.347656 -66.816406 L 64.65625 -67.046875 C 65.03125 -67.441406 65.316406 -67.726562 65.808594 -67.972656 M -28.703125 -92.925781 L -27.894531 -92.8125 C -26.242188 -92.621094 -24.582031 -92.675781 -22.925781 -92.695312 C -23.152344 -92.355469 -23.152344 -92.355469 -23.617188 -92.003906 C -24.261719 -91.941406 -24.90625 -91.914062 -25.554688 -91.929688 L -26.082031 -91.925781 C -27.058594 -91.9375 -27.8125 -92.019531 -28.703125 -92.464844 Z M -76.535156 17.753906 L -76.074219 17.753906 C -76.054688 18.292969 -76.054688 18.832031 -76.074219 19.371094 L -76.535156 20.066406 C -76.921875 19.996094 -77.308594 19.917969 -77.691406 19.832031 L -77.921875 19.601562 C -77.933594 19.21875 -77.933594 18.832031 -77.921875 18.445312 L -76.765625 18.214844 L -76.996094 18.910156 L -76.535156 18.910156 Z M 1.339844 -11.359375 L 1.800781 -11.128906 L 2.261719 -9.742188 L 5.265625 -9.742188 L 5.496094 -9.28125 C 4.847656 -9.273438 4.199219 -9.269531 3.546875 -9.265625 L 2.984375 -9.261719 C 2.515625 -9.257812 2.042969 -9.269531 1.570312 -9.28125 L 1.339844 -9.511719 C 1.304688 -10.128906 1.328125 -10.742188 1.339844 -11.359375 M 17.976562 -105.402344 L 17.976562 -104.941406 L 17.582031 -104.929688 C 16.996094 -104.90625 16.410156 -104.878906 15.824219 -104.855469 L 15.207031 -104.832031 L 14.613281 -104.804688 L 14.066406 -104.785156 C 13.515625 -104.734375 13.515625 -104.734375 12.890625 -104.25 L 12.660156 -104.710938 L 12.890625 -105.171875 C 14.632812 -105.722656 16.179688 -105.609375 17.976562 -105.402344 M -63.59375 16.367188 C -63.046875 16.554688 -63.046875 16.554688 -62.441406 16.828125 L -61.976562 17.523438 L -62.441406 18.445312 L -64.058594 18.214844 L -64.058594 17.523438 L -63.59375 17.753906 L -63.828125 17.0625 L -63.363281 17.0625 Z M 78.75 14.980469 C 79.085938 14.96875 79.425781 14.960938 79.761719 14.953125 L 80.328125 14.9375 L 80.828125 14.980469 L 81.292969 15.441406 L 81.292969 16.367188 L 80.875 16.152344 C 80.347656 15.882812 80.347656 15.882812 79.675781 15.675781 L 78.980469 16.136719 L 78.289062 15.90625 Z M -34.941406 7.355469 C -34.601562 8.378906 -34.699219 9.40625 -34.71875 10.472656 C -34.730469 11.542969 -34.65625 12.539062 -34.480469 13.59375 C -34.941406 13.132812 -34.941406 13.132812 -35.203125 12.339844 C -35.542969 10.855469 -35.570312 9.359375 -35.171875 7.890625 Z M -34.941406 7.355469 " fill-opacity="1" fill-rule="nonzero"/></g><g clip-path="url(#4c18946aa8)"><path fill="#0c2240" d="M 63.859375 1.304688 L 64.65625 1.296875 C 65.347656 1.347656 65.347656 1.347656 66.039062 1.808594 C 66.085938 2.417969 66.085938 2.417969 66.039062 2.964844 L 65.347656 2.734375 L 65.347656 2.042969 L 61.648438 2.042969 L 61.417969 1.578125 C 62.238281 1.328125 63.007812 1.308594 63.859375 1.304688 M 117.570312 -29.152344 L 118.496094 -28.691406 C 118.582031 -28.214844 118.582031 -28.214844 118.496094 -27.535156 C 118.082031 -26.949219 117.609375 -26.433594 117.109375 -25.917969 L 116.417969 -26.148438 C 116.5 -26.25 116.582031 -26.351562 116.667969 -26.453125 C 117 -26.882812 117.304688 -27.292969 117.570312 -27.765625 C 117.667969 -28.527344 117.667969 -28.527344 117.570312 -29.152344 M -80.234375 13.59375 C -79.425781 13.652344 -79.425781 13.652344 -78.617188 13.824219 L -78.152344 14.289062 L -79.539062 14.058594 L -79.539062 14.980469 L -79.078125 15.675781 L -80.464844 15.210938 C -80.609375 14.664062 -80.609375 14.664062 -80.695312 14.058594 Z M 33.226562 -70.746094 C 34.054688 -70.390625 34.601562 -69.902344 35.234375 -69.269531 L 35.785156 -68.730469 C 36.230469 -68.203125 36.230469 -68.203125 36.410156 -67.671875 L 36.460938 -67.277344 C 36.058594 -67.03125 36.058594 -67.03125 35.539062 -66.816406 C 35.019531 -66.902344 35.019531 -66.902344 34.613281 -67.046875 L 34.613281 -67.277344 L 35.769531 -67.507812 C 35.234375 -68.578125 34.457031 -69.3125 33.609375 -70.125 L 33.226562 -70.511719 Z M 85.914062 -104.941406 L 85.683594 -103.785156 C 85.046875 -103.527344 85.046875 -103.527344 84.296875 -103.324219 C 83.746094 -103.527344 83.746094 -103.527344 83.371094 -103.785156 C 83.621094 -103.980469 83.871094 -104.175781 84.121094 -104.363281 L 84.546875 -104.6875 C 84.988281 -104.941406 84.988281 -104.941406 85.914062 -104.941406 M 25.140625 -63.8125 L 26.0625 -63.8125 L 26.0625 -61.734375 L 24.675781 -61.734375 L 24.675781 -62.195312 L 25.140625 -62.195312 L 25.007812 -62.875 L 24.910156 -63.582031 Z M 25.140625 -63.8125 " fill-opacity="1" fill-rule="nonzero"/></g><g clip-path="url(#b6d043fc11)"><path fill="#0c2240" d="M 62.113281 27.457031 L 65.117188 27.691406 L 65.117188 28.152344 L 64.421875 28.613281 C 63.554688 28.539062 62.867188 28.355469 62.113281 27.921875 Z M 51.484375 -104.019531 L 51.714844 -103.554688 L 51.484375 -102.863281 L 51.714844 -102.167969 C 52.523438 -101.886719 52.523438 -101.886719 53.332031 -101.707031 L 53.332031 -101.246094 L 51.25 -101.476562 C 50.976562 -102.097656 50.976562 -102.097656 50.789062 -102.863281 C 51.105469 -103.527344 51.105469 -103.527344 51.484375 -104.019531 M 94.925781 -19.214844 L 95.617188 -18.753906 C 96.277344 -18.613281 96.941406 -18.519531 97.605469 -18.421875 L 98.160156 -18.292969 L 98.390625 -17.832031 L 95.15625 -18.0625 Z M 68.121094 24.222656 C 69.175781 24.347656 69.964844 24.636719 70.894531 25.148438 L 70.199219 25.378906 L 69.652344 25.261719 C 68.988281 25.136719 68.539062 25.210938 67.890625 25.378906 Z M -63.59375 13.59375 L -62.441406 13.824219 L -62.207031 14.75 C -62.859375 15.226562 -62.859375 15.226562 -63.59375 15.675781 L -64.289062 15.441406 L -63.839844 15.023438 C -63.316406 14.539062 -63.316406 14.539062 -63.132812 13.824219 Z M 34.613281 -15.75 L 37.847656 -15.058594 L 37.847656 -15.519531 L 38.3125 -15.519531 L 38.078125 -14.59375 C 36.695312 -14.523438 35.851562 -14.667969 34.613281 -15.289062 Z M 61.648438 -52.953125 L 68.351562 -52.488281 L 68.351562 -52.257812 C 67.648438 -52.207031 66.945312 -52.160156 66.242188 -52.113281 L 65.644531 -52.070312 C 64.503906 -52 63.640625 -52.023438 62.574219 -52.488281 Z M -17.839844 -14.363281 L -17.378906 -14.363281 C -17.621094 -13.542969 -17.964844 -13.039062 -18.5625 -12.445312 L -19.226562 -11.824219 L -19.921875 -12.054688 L -19.402344 -12.558594 C -18.761719 -13.1875 -18.761719 -13.1875 -18.261719 -13.859375 Z M 32.765625 -17.136719 C 33.328125 -16.675781 33.328125 -16.675781 33.691406 -16.210938 L 33.328125 -16.328125 C 32.285156 -16.542969 31.242188 -16.539062 30.222656 -16.210938 L 29.992188 -16.675781 C 30.945312 -17.136719 31.710938 -17.253906 32.765625 -17.136719 M 108.558594 -26.609375 C 110.332031 -26.347656 110.332031 -26.347656 111.085938 -25.859375 C 111.410156 -25.585938 111.71875 -25.289062 112.027344 -24.992188 L 111.792969 -24.53125 L 111.445312 -24.765625 C 110.417969 -25.441406 109.527344 -25.875 108.328125 -26.148438 Z M 108.558594 -26.609375 " fill-opacity="1" fill-rule="nonzero"/></g><g clip-path="url(#45b4ed3cd8)"><path fill="#0c2240" d="M 23.753906 28.84375 L 25.371094 29.074219 L 25.371094 29.539062 L 23.058594 29.769531 L 22.828125 29.308594 L 23.753906 29.308594 Z M 12.90625 23.355469 L 13.355469 23.53125 L 13.816406 24.222656 L 11.273438 23.992188 C 11.804688 23.460938 12.148438 23.265625 12.90625 23.355469 M 20.519531 -13.671875 C 21.578125 -13.605469 22.253906 -13.417969 23.160156 -12.847656 C 23.4375 -12.664062 23.710938 -12.476562 23.984375 -12.285156 L 23.523438 -12.054688 C 23.003906 -12.261719 22.492188 -12.488281 21.992188 -12.730469 L 21.160156 -13.128906 L 20.519531 -13.441406 Z M 78.75 19.140625 C 79.253906 19.210938 79.253906 19.210938 79.675781 19.371094 L 79.242188 19.5 L 78.75 19.832031 C 78.449219 20.652344 78.449219 20.652344 78.289062 21.449219 L 77.824219 21.21875 C 77.964844 19.96875 77.964844 19.96875 78.359375 19.386719 Z M 78.75 19.140625 " fill-opacity="1" fill-rule="nonzero"/></g><g clip-path="url(#e25cf8a36c)"><path fill="#0c2240" d="M -16.6875 -19.449219 L -15.992188 -19.449219 C -15.972656 -18.910156 -15.972656 -18.367188 -15.992188 -17.832031 L -16.453125 -17.136719 C -16.632812 -17.925781 -16.710938 -18.640625 -16.6875 -19.449219 M -33.324219 -20.601562 L -33.09375 -20.601562 L -33.101562 -20.011719 C -33.101562 -19.757812 -33.105469 -19.507812 -33.105469 -19.246094 L -33.117188 -18.480469 C -33.136719 -17.839844 -33.136719 -17.839844 -32.863281 -17.367188 C -33.078125 -16.878906 -33.078125 -16.878906 -33.324219 -16.445312 C -33.570312 -17.1875 -33.585938 -17.742188 -33.582031 -18.523438 L -33.585938 -19.261719 C -33.554688 -19.910156 -33.554688 -19.910156 -33.324219 -20.601562 M 116.417969 -56.1875 L 116.183594 -55.492188 L 113.875 -55.261719 L 113.644531 -55.726562 C 114.542969 -56.324219 115.371094 -56.222656 116.417969 -56.1875 M 15.203125 26.304688 C 15.652344 26.492188 15.652344 26.492188 16.128906 26.765625 L 16.359375 27.457031 L 16.820312 27.457031 C 17.195312 27.921875 17.195312 27.921875 17.515625 28.382812 L 16.589844 28.382812 C 16.195312 27.988281 16.195312 27.988281 15.839844 27.472656 L 15.472656 26.960938 L 15.203125 26.535156 Z M 97.46875 -28.691406 C 98.066406 -27.792969 98.609375 -26.886719 99.085938 -25.917969 C 98.820312 -26.125 98.554688 -26.339844 98.292969 -26.554688 C 98.144531 -26.671875 97.996094 -26.789062 97.84375 -26.910156 C 97.46875 -27.304688 97.46875 -27.304688 97.285156 -27.785156 L 97.238281 -28.226562 Z M 119.421875 -89.460938 L 119.882812 -89.460938 C 119.890625 -89.074219 119.890625 -88.691406 119.882812 -88.304688 L 119.652344 -88.074219 C 119.1875 -88.066406 118.726562 -88.0625 118.265625 -88.074219 C 118.640625 -88.546875 119.023438 -89.007812 119.421875 -89.460938 M 13.816406 -59.421875 L 14.277344 -59.191406 L 14.046875 -56.417969 L 13.816406 -56.417969 C 13.773438 -56.875 13.730469 -57.332031 13.6875 -57.789062 L 13.613281 -58.5625 L 13.585938 -59.191406 Z M -16.917969 -16.445312 L -16.453125 -16.445312 C -16.582031 -15.671875 -16.765625 -15.050781 -17.148438 -14.363281 L -17.609375 -14.828125 Z M 100.007812 -31.230469 C 100.644531 -31.1875 100.644531 -31.1875 101.394531 -31 C 101.945312 -30.410156 101.945312 -30.410156 102.320312 -29.84375 L 101.960938 -30.046875 C 101.25 -30.375 100.53125 -30.566406 99.777344 -30.769531 Z M 106.710938 -33.773438 C 107.242188 -33.785156 107.769531 -33.796875 108.300781 -33.800781 L 109.191406 -33.820312 L 109.945312 -33.773438 L 110.410156 -33.3125 L 109.714844 -33.082031 L 109.253906 -33.3125 C 108.820312 -33.363281 108.386719 -33.40625 107.953125 -33.441406 L 107.25 -33.5 L 106.710938 -33.542969 Z M 106.710938 -33.773438 " fill-opacity="1" fill-rule="nonzero"/></g><g clip-path="url(#53c831b92f)"><path fill="#0c2240" d="M -15.53125 -93.621094 L -14.835938 -93.621094 L -14.835938 -93.15625 C -15.191406 -92.859375 -15.191406 -92.859375 -15.644531 -92.550781 L -16.101562 -92.238281 L -16.453125 -92.003906 L -16.453125 -92.695312 C -16.035156 -93.199219 -16.035156 -93.199219 -15.53125 -93.621094 M 73.203125 16.136719 L 73.667969 16.136719 L 72.972656 18.214844 L 72.511719 17.984375 C 72.945312 16.65625 72.945312 16.65625 73.203125 16.136719 M 103.011719 -74.441406 L 106.480469 -74.210938 L 106.480469 -73.980469 C 104.398438 -73.679688 104.398438 -73.679688 103.445312 -73.964844 L 103.011719 -74.210938 Z M 103.011719 -74.441406 " fill-opacity="1" fill-rule="nonzero"/></g></svg>