<svg xmlns="http://www.w3.org/2000/svg" xmlns:xlink="http://www.w3.org/1999/xlink" width="48" zoomAndPan="magnify" viewBox="0 0 36 36.000001" height="48" preserveAspectRatio="xMidYMid meet" version="1.0"><defs><clipPath id="839d70d779"><path d="M 0.488281 0 L 35.511719 0 L 35.511719 35.027344 L 0.488281 35.027344 Z M 0.488281 0 " clip-rule="nonzero"/></clipPath><clipPath id="8fcc4001b2"><path d="M 0.488281 0 L 31 0 L 31 35.027344 L 0.488281 35.027344 Z M 0.488281 0 " clip-rule="nonzero"/></clipPath><clipPath id="d63eb8ed95"><path d="M 0.488281 0 L 30 0 L 30 35.027344 L 0.488281 35.027344 Z M 0.488281 0 " clip-rule="nonzero"/></clipPath><clipPath id="2876bce75f"><path d="M 0.488281 0 L 31 0 L 31 18 L 0.488281 18 Z M 0.488281 0 " clip-rule="nonzero"/></clipPath><clipPath id="e79c9decf1"><path d="M 0.488281 0 L 28 0 L 28 35.027344 L 0.488281 35.027344 Z M 0.488281 0 " clip-rule="nonzero"/></clipPath><clipPath id="21b932208e"><path d="M 0.488281 15 L 31 15 L 31 35.027344 L 0.488281 35.027344 Z M 0.488281 15 " clip-rule="nonzero"/></clipPath><clipPath id="936c659872"><path d="M 0.488281 0 L 14 0 L 14 35.027344 L 0.488281 35.027344 Z M 0.488281 0 " clip-rule="nonzero"/></clipPath><clipPath id="f507c859d2"><path d="M 0.488281 0 L 28 0 L 28 35.027344 L 0.488281 35.027344 Z M 0.488281 0 " clip-rule="nonzero"/></clipPath><clipPath id="93bdd529dc"><path d="M 0.488281 0 L 22 0 L 22 35.027344 L 0.488281 35.027344 Z M 0.488281 0 " clip-rule="nonzero"/></clipPath><clipPath id="a25623ff4a"><path d="M 0.488281 0 L 30 0 L 30 35.027344 L 0.488281 35.027344 Z M 0.488281 0 " clip-rule="nonzero"/></clipPath><clipPath id="d8fec65c27"><path d="M 0.488281 0 L 17 0 L 17 35.027344 L 0.488281 35.027344 Z M 0.488281 0 " clip-rule="nonzero"/></clipPath></defs><g clip-path="url(#839d70d779)"><rect x="-3.6" width="43.2" fill="#fefefe" y="-3.6" height="43.200001" fill-opacity="1"/></g><g clip-path="url(#8fcc4001b2)"><path fill="#193049" d="M 16.066406 5.433594 C 16.460938 5.351562 16.460938 5.351562 16.933594 5.347656 L 17.453125 5.347656 L 17.996094 5.355469 L 18.535156 5.347656 L 19.050781 5.347656 L 19.527344 5.351562 C 19.949219 5.433594 19.949219 5.433594 20.328125 5.71875 L 20.597656 6.082031 C 20.625 6.808594 20.625 6.808594 20.597656 7.589844 C 20.660156 7.953125 20.726562 8.3125 20.8125 8.667969 L 21.40625 8.761719 C 22.109375 8.882812 22.109375 8.882812 22.539062 9.039062 L 22.972656 9.097656 C 23.386719 8.796875 23.707031 8.449219 24.058594 8.074219 L 24.484375 7.804688 C 25.109375 7.808594 25.109375 7.808594 25.777344 8.019531 C 26.378906 8.476562 26.378906 8.476562 26.941406 9.046875 L 27.511719 9.609375 C 27.9375 10.175781 27.9375 10.175781 28.039062 10.726562 C 27.855469 11.671875 27.242188 12.246094 26.644531 12.980469 L 27.507812 14.917969 L 28.011719 14.957031 L 28.667969 15.011719 L 29.320312 15.066406 C 29.878906 15.132812 29.878906 15.132812 30.3125 15.347656 C 30.550781 16.0625 30.566406 16.617188 30.570312 17.371094 L 30.578125 18.101562 C 30.527344 18.796875 30.429688 19.265625 30.097656 19.875 C 29.445312 20.09375 29.007812 20.113281 28.328125 20.105469 L 27.738281 20.097656 L 27.289062 20.089844 C 27.007812 20.800781 26.761719 21.492188 26.644531 22.246094 C 26.996094 22.898438 26.996094 22.898438 27.507812 23.324219 L 27.507812 23.753906 L 27.9375 23.753906 C 27.996094 24.339844 27.996094 24.339844 27.9375 25.046875 C 27.550781 25.585938 27.550781 25.585938 27.035156 26.074219 L 26.527344 26.566406 C 25.992188 26.992188 25.570312 27.238281 24.914062 27.417969 C 24.335938 27.152344 23.890625 26.816406 23.390625 26.421875 C 22.992188 26.117188 22.992188 26.117188 22.566406 25.953125 C 21.914062 25.894531 21.417969 26.109375 20.8125 26.34375 L 20.789062 26.886719 L 20.746094 27.59375 L 20.707031 28.300781 C 20.597656 28.929688 20.597656 28.929688 20.324219 29.285156 C 19.949219 29.574219 19.949219 29.574219 19.527344 29.660156 L 19.050781 29.660156 L 18.535156 29.664062 L 17.996094 29.65625 L 17.453125 29.664062 L 16.933594 29.660156 L 16.460938 29.660156 L 16.066406 29.574219 C 15.574219 28.839844 15.554688 28.460938 15.5 27.59375 L 15.449219 26.886719 L 15.417969 26.34375 C 14.6875 26.175781 14.007812 26.078125 13.257812 26.125 C 12.746094 26.421875 12.359375 26.742188 11.9375 27.148438 L 11.53125 27.417969 C 11.011719 27.417969 11.011719 27.417969 10.453125 27.203125 C 9.882812 26.742188 9.882812 26.742188 9.320312 26.167969 L 8.75 25.597656 C 8.292969 25.046875 8.292969 25.046875 8.074219 24.601562 L 8.078125 24.1875 C 8.394531 23.769531 8.394531 23.769531 8.832031 23.351562 C 9.257812 22.914062 9.257812 22.914062 9.589844 22.460938 C 9.628906 21.765625 9.628906 21.765625 9.371094 21.167969 C 9.296875 20.882812 9.226562 20.59375 9.15625 20.308594 L 8.503906 20.265625 L 7.660156 20.210938 L 6.816406 20.160156 L 6.132812 20.089844 L 5.917969 19.875 C 5.707031 18.414062 5.644531 17.015625 5.917969 15.566406 L 6.132812 15.347656 C 6.605469 15.300781 7.078125 15.257812 7.550781 15.226562 L 8.335938 15.171875 L 8.941406 15.132812 L 9.144531 14.519531 C 9.371094 13.839844 9.371094 13.839844 9.601562 13.316406 L 9.589844 12.761719 C 9.214844 12.351562 8.824219 12 8.394531 11.652344 L 8.078125 11.253906 C 8.066406 10.746094 8.066406 10.746094 8.292969 10.175781 C 8.65625 9.714844 9 9.320312 9.414062 8.910156 L 9.71875 8.578125 C 10.03125 8.265625 10.03125 8.265625 10.667969 7.804688 C 11.355469 7.808594 11.355469 7.808594 11.964844 8.019531 L 12.558594 8.601562 L 13.257812 9.097656 C 14.011719 9.066406 14.699219 8.890625 15.417969 8.667969 L 15.449219 8.125 L 15.5 7.414062 C 15.511719 7.183594 15.527344 6.949219 15.542969 6.710938 C 15.632812 6.082031 15.632812 6.082031 16.066406 5.433594 M -23.101562 38.15625 L -22.359375 38.148438 C -21.710938 38.195312 -21.710938 38.195312 -21.066406 38.628906 C -21 39.140625 -21 39.140625 -21.023438 39.730469 L -21.042969 40.328125 L -21.066406 40.78125 L -20.664062 40.871094 L -20.132812 40.984375 L -19.609375 41.097656 C -19.121094 41.214844 -19.121094 41.214844 -18.476562 41.429688 L -17.855469 41 L -17.179688 40.566406 C -16.484375 40.609375 -16.078125 40.796875 -15.476562 41.144531 L -14.84375 41.589844 L -14.207031 42.03125 L -13.726562 42.507812 C -13.621094 43.050781 -13.621094 43.050781 -13.726562 43.585938 C -13.960938 44.019531 -13.960938 44.019531 -14.265625 44.40625 L -14.570312 44.800781 L -14.804688 45.09375 C -14.535156 45.828125 -14.246094 46.445312 -13.726562 47.035156 C -13.09375 47.210938 -12.550781 47.238281 -11.894531 47.226562 L -11.351562 47.25 L -10.703125 47.679688 C -10.644531 48.308594 -10.621094 48.886719 -10.636719 49.511719 L -10.632812 50.023438 C -10.636719 50.464844 -10.667969 50.90625 -10.703125 51.34375 L -11.136719 51.777344 C -11.558594 51.824219 -11.980469 51.863281 -12.402344 51.898438 C -13.101562 51.980469 -13.101562 51.980469 -13.726562 52.207031 C -14.128906 52.671875 -14.304688 53.074219 -14.511719 53.652344 C -14.59375 54.179688 -14.542969 54.507812 -14.375 55.007812 L -13.941406 55.007812 L -13.507812 55.65625 C -13.527344 56.164062 -13.527344 56.164062 -13.726562 56.734375 C -14.164062 57.316406 -14.164062 57.316406 -14.722656 57.890625 C -14.90625 58.085938 -15.085938 58.277344 -15.273438 58.476562 C -15.472656 58.613281 -15.675781 58.75 -15.882812 58.886719 C -16.660156 58.882812 -16.660156 58.882812 -17.394531 58.671875 L -17.84375 58.332031 L -18.257812 58.027344 C -18.871094 57.996094 -18.871094 57.996094 -19.5 58.09375 L -20.144531 58.171875 L -20.632812 58.242188 L -20.625 58.628906 C -20.617188 59.535156 -20.621094 60.375 -20.847656 61.257812 C -22.3125 61.519531 -23.957031 61.734375 -25.382812 61.257812 L -25.417969 60.722656 C -25.492188 60.003906 -25.589844 59.363281 -25.8125 58.671875 C -26.230469 58.253906 -26.550781 58.082031 -27.105469 57.886719 C -27.566406 57.777344 -27.566406 57.777344 -28.136719 57.933594 C -28.625 58.230469 -28.625 58.230469 -29.050781 58.59375 C -29.484375 58.886719 -29.484375 58.886719 -29.972656 58.96875 C -30.5625 58.886719 -30.5625 58.886719 -31.195312 58.460938 L -31.832031 57.890625 L -32.476562 57.332031 L -32.9375 56.734375 C -32.929688 56.042969 -32.929688 56.042969 -32.722656 55.441406 L -32.261719 54.996094 L -31.859375 54.578125 C -31.863281 54.046875 -31.863281 54.046875 -32.074219 53.5 L -32.304688 52.785156 L -32.507812 52.207031 L -33.066406 52.167969 L -33.789062 52.113281 L -34.507812 52.058594 L -35.097656 51.992188 L -35.3125 51.777344 C -35.332031 51.484375 -35.335938 51.195312 -35.332031 50.90625 L -35.332031 50.378906 L -35.328125 49.820312 L -35.324219 49.265625 C -35.320312 48.808594 -35.316406 48.351562 -35.3125 47.894531 L -34.769531 47.800781 C -34.0625 47.65625 -33.398438 47.496094 -32.722656 47.25 C -32.183594 46.558594 -32.097656 46.078125 -31.925781 45.230469 L -31.859375 44.664062 L -32.289062 44.664062 C -32.667969 44.179688 -32.667969 44.179688 -32.9375 43.585938 C -32.605469 42.667969 -31.933594 42.039062 -31.246094 41.371094 C -30.78125 41 -30.78125 41 -29.96875 40.742188 L -29.269531 40.78125 C -28.972656 40.988281 -28.6875 41.207031 -28.40625 41.429688 C -27.886719 41.40625 -27.886719 41.40625 -27.324219 41.214844 L -26.503906 40.984375 C -26.277344 40.917969 -26.046875 40.851562 -25.8125 40.78125 L -25.828125 40.375 L -25.839844 39.839844 L -25.855469 39.308594 L -25.8125 38.84375 C -25.382812 38.414062 -25.382812 38.414062 -25.011719 38.28125 C -24.371094 38.171875 -23.753906 38.160156 -23.101562 38.15625 M 19.386719 -31.363281 C 20.808594 -30.710938 21.898438 -29.824219 22.878906 -28.605469 C 23.402344 -27.753906 23.507812 -27.03125 23.539062 -26.035156 C 23.476562 -24.710938 23.25 -23.707031 22.542969 -22.585938 L 22.238281 -22.105469 C 21.003906 -20.355469 19.214844 -19.097656 17.359375 -18.058594 C 17.035156 -17.917969 16.707031 -17.78125 16.375 -17.65625 C 15.296875 -17.238281 14.230469 -16.792969 13.164062 -16.347656 C 12.769531 -16.183594 12.367188 -16.039062 11.964844 -15.902344 C 11.710938 -15.273438 11.710938 -15.273438 11.53125 -14.609375 L 11.316406 -14.179688 L 11.746094 -14.179688 L 11.855469 -13.695312 C 12.148438 -13.039062 12.148438 -13.039062 12.882812 -12.664062 C 14.117188 -12.078125 15.425781 -11.945312 16.765625 -11.769531 C 17.265625 -11.699219 17.765625 -11.628906 18.265625 -11.558594 L 18.933594 -11.46875 C 19.429688 -11.390625 19.898438 -11.285156 20.382812 -11.160156 C 20.875 -11.132812 21.371094 -11.113281 21.867188 -11.109375 L 22.648438 -11.089844 C 23.484375 -11.167969 23.988281 -11.363281 24.699219 -11.808594 C 25.261719 -12.597656 25.582031 -13.210938 25.726562 -14.164062 L 25.777344 -14.824219 C 24.304688 -14.734375 23.324219 -14.414062 22.027344 -13.734375 C 20.269531 -12.886719 18.742188 -12.652344 16.796875 -12.769531 C 15.550781 -12.894531 14.402344 -13.238281 13.257812 -13.75 L 13.042969 -14.824219 L 13.667969 -15.136719 C 13.960938 -15.277344 14.25 -15.421875 14.539062 -15.566406 L 15.011719 -15.800781 C 15.828125 -16.207031 16.636719 -16.625 17.4375 -17.066406 C 20.195312 -18.59375 22.667969 -19.449219 25.847656 -19.445312 C 26.9375 -19.316406 27.75 -18.964844 28.679688 -18.367188 L 29.015625 -18.058594 L 29.015625 -17.628906 L 29.664062 -17.414062 C 30.214844 -16.660156 30.503906 -15.878906 30.621094 -14.960938 C 30.46875 -13.6875 30.253906 -12.578125 29.527344 -11.5 C 28.089844 -9.777344 26.339844 -8.886719 24.28125 -8.089844 L 23.867188 -7.929688 C 20.59375 -6.730469 16.761719 -6.722656 13.332031 -7.136719 C 11.449219 -7.472656 9.746094 -8.191406 8.253906 -9.382812 C 7.304688 -10.246094 6.703125 -11.101562 6.28125 -12.316406 C 5.917969 -13.710938 5.789062 -14.980469 6.148438 -16.390625 C 6.449219 -17.234375 6.800781 -17.90625 7.425781 -18.554688 C 9.207031 -20.054688 11.304688 -20.953125 13.417969 -21.875 C 15.773438 -22.902344 15.773438 -22.902344 17.742188 -24.515625 L 18.007812 -24.957031 L 18.007812 -25.820312 C 16.257812 -25.859375 14.675781 -25.84375 12.964844 -25.464844 C 12.3125 -25.375 11.773438 -25.449219 11.125 -25.550781 C 10.550781 -25.632812 10.550781 -25.632812 10.019531 -25.601562 C 9.175781 -24.882812 8.75 -24.023438 8.292969 -23.015625 L 7.644531 -23.230469 L 7.578125 -23.648438 L 7.429688 -24.09375 C 6.785156 -24.375 6.785156 -24.375 6.132812 -24.523438 L 6.351562 -25.386719 L 7.171875 -25.441406 C 7.644531 -25.488281 7.644531 -25.488281 8.078125 -25.601562 C 8.523438 -25.988281 8.523438 -25.988281 8.726562 -26.464844 L 8.726562 -26.894531 L 8.171875 -27.394531 L 7.644531 -27.972656 C 7.667969 -28.480469 7.667969 -28.480469 7.863281 -29.050781 C 8.671875 -30.230469 9.640625 -31.199219 10.910156 -31.867188 C 13.59375 -33.132812 16.773438 -32.472656 19.386719 -31.363281 M -17.4375 -31.828125 C -16.429688 -31.429688 -15.582031 -30.875 -14.804688 -30.128906 C -14.546875 -29.789062 -14.296875 -29.441406 -14.050781 -29.09375 C -13.703125 -28.589844 -13.703125 -28.589844 -13.292969 -28.191406 C -12.667969 -27.964844 -12.242188 -27.960938 -11.566406 -27.972656 L -11.351562 -28.40625 L -10.054688 -28.40625 C -10.109375 -28 -10.109375 -28 -10.273438 -27.542969 C -10.714844 -27.273438 -10.714844 -27.273438 -11.136719 -27.113281 L -10.796875 -26.722656 L -10.488281 -26.25 L -10.703125 -25.601562 C -11.433594 -25.722656 -11.800781 -25.832031 -12.429688 -26.25 C -13.546875 -26.40625 -14.566406 -26.292969 -15.628906 -25.925781 C -17.578125 -25.277344 -19.707031 -25.566406 -21.710938 -25.820312 L -21.710938 -24.957031 L -21.324219 -24.769531 C -20.847656 -24.523438 -20.847656 -24.523438 -20.148438 -24.054688 C -19.296875 -23.515625 -18.402344 -23.125 -17.476562 -22.734375 C -15.332031 -21.824219 -13.175781 -20.859375 -11.566406 -19.136719 L -11.199219 -18.753906 C -10.488281 -17.957031 -9.851562 -17.183594 -9.625 -16.121094 C -9.488281 -14.734375 -9.433594 -13.359375 -9.960938 -12.050781 C -10.609375 -10.824219 -11.488281 -9.816406 -12.601562 -8.992188 C -13.320312 -8.558594 -14 -8.273438 -14.792969 -7.996094 L -15.554688 -7.722656 C -18.605469 -6.816406 -22.53125 -6.957031 -25.652344 -7.523438 C -27.828125 -8.0625 -30.242188 -8.734375 -31.972656 -10.207031 C -32.566406 -10.78125 -33.023438 -11.242188 -33.316406 -12.03125 C -33.539062 -12.84375 -33.640625 -13.574219 -33.492188 -14.410156 C -33.214844 -15.285156 -32.730469 -15.925781 -32.101562 -16.589844 C -31.085938 -17.460938 -29.878906 -17.988281 -28.59375 -18.34375 C -25.773438 -18.855469 -22.832031 -18.5 -20.132812 -17.605469 C -18.8125 -17.09375 -17.542969 -16.484375 -16.53125 -15.472656 C -16.269531 -15.003906 -16.269531 -15.003906 -16.101562 -14.609375 C -16.4375 -14.207031 -16.4375 -14.207031 -16.964844 -13.75 C -18.519531 -13.214844 -20.082031 -13.109375 -21.710938 -13.316406 C -22.632812 -13.523438 -23.511719 -13.824219 -24.398438 -14.136719 C -25.683594 -14.566406 -26.636719 -14.636719 -27.972656 -14.394531 L -28.1875 -13.53125 C -26.832031 -13.109375 -25.480469 -12.726562 -24.085938 -12.457031 L -23.507812 -12.339844 C -21.339844 -12.039062 -18.859375 -11.976562 -16.773438 -12.675781 C -16.257812 -12.898438 -16.257812 -12.898438 -15.628906 -13.359375 C -15.25 -13.945312 -15.15625 -14.160156 -15.117188 -14.824219 C -15.160156 -15.496094 -15.257812 -15.722656 -15.628906 -16.320312 C -16.082031 -16.808594 -16.082031 -16.808594 -16.746094 -16.980469 L -16.746094 -17.414062 L -17.394531 -17.414062 L -17.394531 -17.84375 L -18.152344 -18.007812 C -19.113281 -18.25 -19.957031 -18.621094 -20.835938 -19.070312 L -21.292969 -19.300781 C -22.996094 -20.191406 -24.449219 -21.195312 -25.550781 -22.796875 C -26.285156 -24.007812 -26.511719 -25.015625 -26.570312 -26.4375 C -26.539062 -27.664062 -26.367188 -28.609375 -25.742188 -29.671875 C -24.980469 -30.640625 -24.046875 -31.15625 -22.933594 -31.644531 C -21.183594 -32.261719 -19.222656 -32.34375 -17.4375 -31.828125 M -59.894531 -62.648438 C -57.730469 -61.238281 -57.730469 -61.238281 -57.117188 -60.734375 L -57.117188 -60.304688 L -56.035156 -59.875 L -56.035156 -59.441406 L -55.605469 -59.308594 C -55.019531 -59.039062 -54.691406 -58.796875 -54.210938 -58.386719 C -53.132812 -57.574219 -52.023438 -57.324219 -50.722656 -57.042969 C -50.261719 -56.9375 -49.800781 -56.832031 -49.339844 -56.722656 L -48.667969 -56.570312 C -47.867188 -56.382812 -47.074219 -56.175781 -46.28125 -55.953125 L -45.613281 -55.769531 C -44.988281 -55.550781 -44.488281 -55.292969 -43.949219 -54.917969 C -43.425781 -54.039062 -43.253906 -53.347656 -43.21875 -52.328125 C -43.257812 -51.300781 -43.402344 -50.621094 -43.949219 -49.742188 C -44.503906 -49.308594 -44.8125 -49.085938 -45.457031 -48.882812 C -46.113281 -48.816406 -46.746094 -48.828125 -47.402344 -48.882812 L -47.558594 -49.316406 C -48.136719 -50.835938 -48.136719 -50.835938 -49.128906 -52.113281 C -50.011719 -52.730469 -50.691406 -52.929688 -51.746094 -53.058594 C -52.707031 -52.964844 -53.390625 -52.730469 -54.242188 -52.28125 C -54.976562 -51.71875 -55.28125 -51.074219 -55.640625 -50.242188 C -55.777344 -49.859375 -55.910156 -49.480469 -56.035156 -49.097656 C -57.1875 -48.859375 -58.304688 -48.847656 -59.472656 -48.84375 L -60.089844 -48.84375 C -60.515625 -48.84375 -60.945312 -48.839844 -61.371094 -48.839844 C -62.027344 -48.839844 -62.683594 -48.835938 -63.339844 -48.832031 C -63.757812 -48.832031 -64.171875 -48.832031 -64.585938 -48.832031 L -65.183594 -48.828125 L -66.21875 -48.828125 L -66.613281 -48.882812 C -67.105469 -49.371094 -67.1875 -49.6875 -67.398438 -50.335938 C -67.640625 -50.96875 -67.84375 -51.402344 -68.320312 -51.890625 C -69.027344 -52.429688 -69.617188 -52.8125 -70.5 -52.976562 C -71.222656 -53.046875 -71.796875 -53.066406 -72.476562 -52.785156 C -72.777344 -52.628906 -73.078125 -52.46875 -73.371094 -52.304688 C -73.738281 -52.113281 -73.738281 -52.113281 -74.167969 -52.113281 C -74.523438 -51.421875 -74.847656 -50.71875 -75.167969 -50.011719 L -75.460938 -49.371094 L -75.679688 -48.882812 C -76.058594 -48.902344 -76.4375 -48.921875 -76.8125 -48.949219 L -77.453125 -48.988281 C -78.054688 -49.097656 -78.054688 -49.097656 -78.5625 -49.304688 L -78.917969 -49.742188 C -79.023438 -50.40625 -79 -51.054688 -78.972656 -51.722656 L -78.960938 -52.277344 C -78.949219 -52.726562 -78.933594 -53.175781 -78.917969 -53.625 C -77.78125 -54.296875 -77.78125 -54.296875 -77.40625 -54.484375 L -76.976562 -54.484375 C -76.941406 -55.105469 -76.941406 -55.105469 -76.976562 -55.777344 L -77.40625 -56.425781 L -76.691406 -56.855469 C -75.589844 -57.667969 -74.917969 -58.75 -74.195312 -59.890625 C -73.535156 -60.917969 -72.820312 -61.773438 -71.796875 -62.460938 C -70.894531 -62.917969 -70.039062 -62.96875 -69.046875 -62.988281 L -68.5625 -63.003906 C -68.226562 -63.011719 -67.886719 -63.019531 -67.546875 -63.027344 C -67.039062 -63.039062 -66.53125 -63.054688 -66.019531 -63.070312 C -61.421875 -63.199219 -61.421875 -63.199219 -59.894531 -62.648438 " fill-opacity="1" fill-rule="nonzero"/></g><path fill="#fefefe" d="M 18.800781 12.40625 C 19.960938 12.734375 21.007812 13.171875 21.871094 14.035156 C 22.507812 14.84375 22.972656 15.625 23.1875 16.644531 C 23.289062 17.71875 23.132812 18.609375 22.765625 19.617188 C 22.390625 20.414062 21.914062 21.023438 21.246094 21.601562 C 20.359375 22.203125 19.375 22.628906 18.296875 22.710938 C 17.125 22.632812 16.046875 22.308594 14.984375 21.816406 C 14.105469 21.132812 13.605469 20.394531 13.164062 19.378906 C 12.972656 18.113281 12.796875 16.894531 13.238281 15.664062 C 13.789062 14.609375 14.417969 13.867188 15.417969 13.195312 C 16.542969 12.53125 17.492188 12.171875 18.800781 12.40625 " fill-opacity="1" fill-rule="nonzero"/><g clip-path="url(#d63eb8ed95)"><path fill="#193049" d="M 10.019531 -48.882812 C 10.609375 -48.902344 11.195312 -48.910156 11.785156 -48.910156 L 12.347656 -48.910156 C 12.960938 -48.910156 13.574219 -48.910156 14.1875 -48.910156 C 14.613281 -48.910156 15.039062 -48.910156 15.464844 -48.910156 C 16.355469 -48.910156 17.25 -48.910156 18.140625 -48.910156 C 19.289062 -48.910156 20.433594 -48.910156 21.578125 -48.910156 C 22.457031 -48.910156 23.335938 -48.910156 24.214844 -48.910156 C 24.636719 -48.910156 25.058594 -48.910156 25.484375 -48.910156 C 26.074219 -48.910156 26.664062 -48.910156 27.253906 -48.910156 L 27.789062 -48.910156 C 28.199219 -48.910156 28.609375 -48.894531 29.015625 -48.882812 L 29.234375 -48.664062 C 29.253906 -48.125 29.261719 -47.589844 29.261719 -47.050781 L 29.261719 -46.589844 C 29.261719 -46.203125 29.25 -45.820312 29.234375 -45.433594 L 29.015625 -45.21875 C 28.425781 -45.195312 27.84375 -45.1875 27.253906 -45.1875 L 26.691406 -45.1875 C 26.078125 -45.1875 25.460938 -45.1875 24.847656 -45.1875 C 24.421875 -45.1875 23.996094 -45.1875 23.574219 -45.1875 C 22.679688 -45.1875 21.789062 -45.1875 20.898438 -45.1875 C 19.75 -45.191406 18.605469 -45.191406 17.457031 -45.1875 C 16.578125 -45.1875 15.703125 -45.1875 14.824219 -45.1875 C 14.398438 -45.1875 13.976562 -45.1875 13.554688 -45.1875 C 12.964844 -45.1875 12.375 -45.1875 11.785156 -45.1875 L 11.25 -45.1875 C 10.839844 -45.191406 10.429688 -45.203125 10.019531 -45.21875 L 9.804688 -45.433594 C 9.78125 -45.972656 9.773438 -46.507812 9.777344 -47.050781 L 9.773438 -47.507812 C 9.777344 -47.894531 9.789062 -48.28125 9.804688 -48.664062 Z M -70.71875 58.722656 C -70.1875 58.925781 -69.957031 59.171875 -69.585938 59.601562 L -69.210938 60.035156 L -68.828125 60.492188 L -68.433594 60.945312 C -67.730469 61.765625 -67.730469 61.765625 -67.476562 62.121094 L -67.476562 62.550781 L -67.046875 62.550781 L -66.707031 62.96875 C -66.234375 63.429688 -66.234375 63.429688 -65.738281 63.550781 C -65.199219 63.636719 -64.785156 63.699219 -64.238281 63.628906 C -63.285156 63.097656 -62.597656 62.453125 -61.878906 61.636719 L -61.320312 61.007812 L -60.785156 60.398438 L -60.3125 59.859375 C -59.964844 59.464844 -59.617188 59.070312 -59.273438 58.671875 C -57.929688 58.855469 -56.875 59.152344 -55.734375 59.898438 C -55.390625 60.183594 -55.390625 60.183594 -54.957031 60.828125 C -54.984375 61.449219 -54.984375 61.449219 -55.171875 62.121094 C -55.601562 62.753906 -55.96875 63.15625 -56.613281 63.566406 C -59.773438 64.976562 -63.46875 65.421875 -66.902344 65.089844 C -69.476562 64.820312 -71.953125 64.523438 -74.113281 62.996094 L -74.601562 62.550781 C -74.832031 61.8125 -74.832031 61.8125 -74.816406 61.042969 C -74.535156 60.476562 -74.535156 60.476562 -73.953125 59.964844 C -71.621094 58.617188 -71.621094 58.617188 -70.71875 58.722656 M -9.191406 50.914062 C -8.878906 50.902344 -8.5625 50.894531 -8.246094 50.886719 L -7.714844 50.871094 L -7.25 50.914062 L -6.816406 51.34375 C -6.707031 51.96875 -6.707031 51.96875 -6.640625 52.71875 L -6.570312 53.464844 C -6.601562 54.148438 -6.601562 54.148438 -6.859375 54.648438 C -7.25 55.007812 -7.25 55.007812 -7.738281 55.1875 L -8.261719 55.277344 C -8.4375 55.3125 -8.609375 55.34375 -8.789062 55.375 L -9.191406 55.441406 C -9.429688 56.085938 -9.609375 56.6875 -9.625 57.378906 C -9.335938 57.800781 -9.039062 58.054688 -8.628906 58.351562 L -8.328125 58.671875 C -8.230469 59.175781 -8.230469 59.175781 -8.328125 59.75 C -8.707031 60.335938 -8.707031 60.335938 -9.21875 60.910156 L -9.71875 61.492188 L -10.273438 61.90625 C -10.945312 61.886719 -10.945312 61.886719 -11.566406 61.691406 L -12.214844 61.257812 C -13.039062 61.328125 -13.648438 61.523438 -14.375 61.90625 L -14.359375 62.363281 L -14.347656 62.957031 L -14.332031 63.546875 L -14.375 64.0625 C -14.804688 64.492188 -14.804688 64.492188 -15.273438 64.628906 C -17.3125 65.019531 -17.3125 65.019531 -18.257812 64.921875 C -18.832031 64.351562 -18.929688 63.773438 -19.148438 63.003906 L -19.339844 62.550781 L -19.984375 62.121094 L -19.339844 59.75 L -18.257812 59.535156 L -17.53125 59.871094 C -16.777344 60.234375 -16.777344 60.234375 -16.03125 60.128906 C -14.855469 59.703125 -13.917969 58.707031 -13.078125 57.8125 C -12.574219 57.148438 -12.433594 56.757812 -12.320312 55.921875 C -12.304688 55.628906 -12.292969 55.339844 -12.28125 55.050781 L -12.257812 54.597656 C -12.242188 54.230469 -12.226562 53.867188 -12.214844 53.5 L -11.773438 53.371094 C -11.160156 53.167969 -10.617188 52.957031 -10.054688 52.636719 C -9.625 52.070312 -9.441406 51.589844 -9.191406 50.914062 " fill-opacity="1" fill-rule="nonzero"/></g><g clip-path="url(#2876bce75f)"><path fill="#0c2240" d="M 6.78125 -17.628906 L 7 -17.195312 L 6.78125 -16.484375 C 6.441406 -15.210938 6.582031 -13.957031 6.78125 -12.671875 C 6.988281 -11.929688 7.261719 -11.34375 7.792969 -10.769531 L 8.078125 -10.515625 L 8.078125 -10.085938 L 8.457031 -9.894531 L 9.804688 -9.222656 L 9.804688 -8.789062 L 10.285156 -8.703125 C 10.824219 -8.589844 11.308594 -8.433594 11.828125 -8.253906 C 13.289062 -7.808594 14.761719 -7.761719 16.28125 -7.714844 L 17.007812 -7.6875 C 20.515625 -7.617188 23.621094 -8.375 26.734375 -9.96875 C 27.40625 -10.371094 27.855469 -10.796875 28.371094 -11.378906 L 28.800781 -11.378906 L 28.992188 -11.847656 C 29.136719 -12.214844 29.292969 -12.574219 29.460938 -12.925781 C 29.765625 -13.835938 29.898438 -14.730469 29.878906 -15.6875 C 29.613281 -16.417969 29.613281 -16.417969 29.234375 -16.980469 L 29.015625 -17.628906 L 29.664062 -17.414062 C 30.214844 -16.660156 30.503906 -15.878906 30.621094 -14.960938 C 30.46875 -13.6875 30.253906 -12.578125 29.527344 -11.5 C 28.089844 -9.777344 26.339844 -8.886719 24.28125 -8.089844 L 23.867188 -7.929688 C 20.59375 -6.730469 16.761719 -6.722656 13.332031 -7.136719 C 11.449219 -7.472656 9.746094 -8.191406 8.253906 -9.382812 C 7.304688 -10.246094 6.703125 -11.101562 6.28125 -12.316406 C 5.96875 -13.523438 5.796875 -14.644531 6.042969 -15.878906 C 6.457031 -17.304688 6.457031 -17.304688 6.78125 -17.628906 M -76 13.050781 C -75.179688 13.019531 -74.671875 13.160156 -73.925781 13.515625 L -73.523438 14.054688 C -73.5 14.675781 -73.605469 15.167969 -73.738281 15.78125 L -74.238281 15.679688 C -74.960938 15.570312 -75.597656 15.511719 -76.328125 15.566406 C -76.929688 15.890625 -77.375 16.25 -77.875 16.714844 C -78.269531 17.074219 -78.269531 17.074219 -78.917969 17.289062 C -79.328125 17.304688 -79.738281 17.308594 -80.148438 17.304688 L -80.796875 17.296875 L -81.292969 17.289062 C -81.484375 15.964844 -81.484375 15.964844 -81.507812 15.566406 L -81.292969 15.347656 C -80.941406 15.308594 -80.59375 15.265625 -80.242188 15.226562 C -79.167969 15.050781 -78.550781 14.707031 -77.703125 14.027344 C -76.6875 13.230469 -76.6875 13.230469 -76 13.050781 M -52.8125 13.085938 C -51.929688 13.230469 -51.152344 13.535156 -50.425781 14.054688 L -50.207031 14.703125 C -49.824219 14.847656 -49.824219 14.847656 -49.34375 14.917969 C -48.933594 15.023438 -48.527344 15.132812 -48.117188 15.242188 L -47.480469 15.410156 C -46.96875 15.566406 -46.96875 15.566406 -46.753906 15.78125 C -46.726562 16.320312 -46.726562 16.320312 -46.753906 16.859375 L -46.96875 17.074219 C -47.800781 17.269531 -48.59375 17.371094 -49.425781 17.160156 C -49.835938 17.003906 -50.238281 16.824219 -50.640625 16.644531 L -50.640625 16.210938 L -51.03125 16.128906 C -51.503906 15.996094 -51.503906 15.996094 -52.152344 15.566406 C -52.875 15.503906 -53.378906 15.542969 -54.066406 15.78125 L -54.527344 15.996094 L -54.957031 14.054688 C -53.667969 13.230469 -53.667969 13.230469 -52.8125 13.085938 " fill-opacity="1" fill-rule="nonzero"/></g><g clip-path="url(#e79c9decf1)"><path fill="#0c2240" d="M -9.625 57.8125 C -9.089844 58.058594 -8.75 58.253906 -8.328125 58.671875 C -8.246094 59.167969 -8.246094 59.167969 -8.328125 59.75 C -8.707031 60.335938 -8.707031 60.335938 -9.21875 60.910156 C -9.382812 61.101562 -9.550781 61.296875 -9.71875 61.492188 L -10.273438 61.90625 C -10.945312 61.886719 -10.945312 61.886719 -11.566406 61.691406 L -12.214844 61.257812 C -13.125 61.339844 -13.945312 61.601562 -14.804688 61.90625 L -14.804688 61.257812 C -14.167969 60.984375 -13.542969 60.753906 -12.863281 60.613281 C -12.378906 60.679688 -12.378906 60.679688 -11.929688 60.816406 L -11.136719 61.042969 C -10.640625 60.878906 -10.640625 60.878906 -10.273438 60.613281 L -9.625 60.613281 L -9.53125 60.207031 C -9.40625 59.75 -9.40625 59.75 -9.191406 59.320312 C -9.324219 58.8125 -9.46875 58.308594 -9.625 57.8125 M -19.554688 60.828125 C -19.167969 61.40625 -18.929688 61.910156 -18.675781 62.550781 L -18.453125 63.117188 C -18.308594 63.5 -18.171875 63.886719 -18.042969 64.277344 C -17.691406 64.246094 -17.339844 64.214844 -16.992188 64.183594 L -16.398438 64.128906 C -15.882812 64.089844 -15.882812 64.089844 -15.453125 63.847656 C -15.304688 63.4375 -15.304688 63.4375 -15.210938 62.96875 L -15.101562 62.492188 L -15.019531 62.121094 L -14.589844 62.121094 C -14.542969 62.433594 -14.496094 62.75 -14.453125 63.066406 L -14.378906 63.59375 L -14.375 64.0625 C -14.804688 64.492188 -14.804688 64.492188 -15.273438 64.628906 C -17.3125 65.019531 -17.3125 65.019531 -18.257812 64.921875 C -18.832031 64.351562 -18.929688 63.773438 -19.148438 63.003906 L -19.339844 62.550781 L -19.984375 62.121094 Z M -68.773438 -46.941406 L -54.527344 -46.941406 L -54.527344 -46.726562 L -59.921875 -46.511719 L -59.921875 -46.078125 L -60.785156 -46.292969 L -60.785156 -46.726562 L -61.011719 -46.40625 L -61.433594 -46.078125 C -62.15625 -46.015625 -62.15625 -46.015625 -62.984375 -46.039062 L -63.816406 -46.058594 L -64.457031 -46.078125 L -64.457031 -46.511719 L -68.773438 -46.726562 Z M -14.804688 45.957031 L -14.375 45.957031 L -14.171875 46.480469 L -13.726562 47.035156 C -13.113281 47.148438 -12.53125 47.183594 -11.910156 47.199219 C -11.351562 47.25 -11.351562 47.25 -10.703125 47.679688 C -10.644531 48.308594 -10.621094 48.886719 -10.636719 49.511719 L -10.632812 50.023438 C -10.636719 50.464844 -10.667969 50.90625 -10.703125 51.34375 L -11.136719 51.777344 C -11.648438 51.863281 -11.648438 51.863281 -12.242188 51.910156 L -12.835938 51.960938 L -13.292969 51.992188 L -13.507812 51.558594 L -11.566406 51.34375 C -11.519531 50.855469 -11.476562 50.367188 -11.433594 49.875 L -11.355469 49.050781 L -11.351562 48.328125 L -11.78125 47.679688 C -12.335938 47.59375 -12.335938 47.59375 -12.957031 47.597656 C -13.601562 47.558594 -13.601562 47.558594 -14.15625 47.464844 C -14.628906 46.941406 -14.628906 46.941406 -14.804688 46.386719 Z M 26.210938 22.246094 L 26.644531 22.246094 C 27.101562 22.757812 27.101562 22.757812 27.507812 23.324219 L 27.507812 23.753906 L 27.9375 23.753906 C 27.996094 24.339844 27.996094 24.339844 27.9375 25.046875 C 27.550781 25.585938 27.550781 25.585938 27.035156 26.074219 L 26.527344 26.566406 C 25.992188 26.992188 25.570312 27.238281 24.914062 27.417969 C 24.363281 27.164062 24.363281 27.164062 23.835938 26.773438 L 23.378906 26.4375 C 23.242188 26.335938 23.109375 26.230469 22.972656 26.125 L 22.324219 25.695312 L 23.621094 25.695312 L 23.621094 26.125 C 24.257812 26.285156 24.703125 26.382812 25.347656 26.34375 C 26.046875 26.023438 26.570312 25.628906 27.074219 25.046875 C 27.289062 24.394531 27.289062 24.394531 27.074219 23.753906 C 26.660156 23.167969 26.660156 23.167969 26.210938 22.679688 Z M -16.964844 -15.472656 L -16.101562 -15.042969 C -16.195312 -14.542969 -16.195312 -14.542969 -16.53125 -13.964844 C -17.574219 -13.316406 -18.800781 -13.257812 -20 -13.210938 C -21.820312 -13.242188 -23.492188 -13.691406 -25.167969 -14.394531 L -25.382812 -14.824219 C -24.410156 -14.734375 -23.566406 -14.59375 -22.644531 -14.273438 C -21.34375 -13.863281 -20.042969 -13.832031 -18.691406 -13.964844 C -17.988281 -14.125 -17.988281 -14.125 -17.394531 -14.394531 C -17.085938 -14.9375 -17.085938 -14.9375 -16.964844 -15.472656 M -61.21875 -19.351562 L -60.785156 -19.351562 C -60.773438 -19.007812 -60.765625 -18.660156 -60.757812 -18.316406 L -60.742188 -17.730469 C -60.785156 -17.195312 -60.785156 -17.195312 -61.21875 -16.550781 C -61.859375 -16.476562 -61.859375 -16.476562 -62.675781 -16.488281 L -63.109375 -16.488281 C -63.566406 -16.492188 -64.023438 -16.5 -64.484375 -16.511719 C -64.792969 -16.511719 -65.101562 -16.515625 -65.414062 -16.519531 C -66.171875 -16.527344 -66.933594 -16.535156 -67.695312 -16.550781 L -67.910156 -16.980469 C -66.246094 -17.152344 -64.625 -17.207031 -62.953125 -17.140625 C -62.296875 -17.152344 -62.296875 -17.152344 -61.789062 -17.472656 L -61.433594 -17.84375 C -61.257812 -18.621094 -61.257812 -18.621094 -61.21875 -19.351562 " fill-opacity="1" fill-rule="nonzero"/></g><g clip-path="url(#21b932208e)"><path fill="#0c2240" d="M -132.238281 46.386719 C -131.875 46.371094 -131.511719 46.367188 -131.148438 46.375 L -130.546875 46.378906 L -130.082031 46.386719 C -130 46.886719 -129.925781 47.390625 -129.863281 47.894531 L -130.082031 48.113281 C -130.433594 48.136719 -130.792969 48.148438 -131.148438 48.152344 L -131.734375 48.160156 L -132.238281 48.113281 L -132.671875 47.679688 C -132.605469 47.128906 -132.605469 47.128906 -132.457031 46.601562 Z M 27.722656 15.132812 C 28.074219 15.128906 28.421875 15.125 28.773438 15.121094 L 29.367188 15.113281 C 29.878906 15.132812 29.878906 15.132812 30.3125 15.347656 C 30.550781 16.0625 30.566406 16.617188 30.570312 17.371094 L 30.578125 18.101562 C 30.527344 18.796875 30.429688 19.265625 30.097656 19.875 C 29.503906 20.074219 29.15625 20.113281 28.546875 20.105469 L 27.722656 20.089844 L 27.9375 19.660156 L 29.449219 19.230469 C 29.773438 18.582031 29.683594 17.980469 29.679688 17.261719 L 29.671875 16.425781 L 29.664062 15.78125 L 27.722656 15.347656 Z M 27.722656 15.132812 " fill-opacity="1" fill-rule="nonzero"/></g><path fill="#0c2240" d="M 16.535156 12.425781 L 16.929688 12.546875 L 16.488281 12.792969 C 15 13.632812 15 13.632812 13.90625 14.917969 L 13.542969 15.484375 C 13.144531 16.5 13.097656 17.5 13.042969 18.582031 L 12.609375 18.582031 C 12.558594 17.480469 12.53125 16.484375 12.839844 15.417969 C 13.53125 14.238281 14.304688 13.28125 15.457031 12.535156 C 16.066406 12.332031 16.066406 12.332031 16.535156 12.425781 " fill-opacity="1" fill-rule="nonzero"/><path fill="#0c2240" d="M 15.632812 27.203125 L 15.847656 27.203125 L 16.039062 27.945312 L 16.28125 28.714844 C 16.929688 29.035156 17.53125 28.949219 18.25 28.941406 L 19.089844 28.9375 L 19.734375 28.929688 L 20.167969 27.417969 L 20.597656 27.417969 C 20.640625 28.132812 20.640625 28.132812 20.597656 28.929688 C 20.328125 29.296875 20.328125 29.296875 19.949219 29.574219 C 19.527344 29.660156 19.527344 29.660156 19.050781 29.660156 L 18.535156 29.664062 L 17.996094 29.65625 L 17.453125 29.664062 L 16.933594 29.660156 L 16.460938 29.660156 L 16.066406 29.574219 C 15.632812 28.929688 15.632812 28.929688 15.589844 28.488281 Z M 15.632812 27.203125 " fill-opacity="1" fill-rule="nonzero"/><g clip-path="url(#936c659872)"><path fill="#0c2240" d="M -73.953125 59.964844 L -73.523438 60.183594 L -73.859375 60.53125 C -74.222656 61.035156 -74.222656 61.035156 -74.183594 61.691406 C -74 62.371094 -74 62.371094 -73.425781 62.808594 C -72.617188 63.21875 -71.847656 63.457031 -70.96875 63.671875 L -70.5 63.847656 L -70.066406 64.492188 C -71.613281 64.359375 -72.847656 63.820312 -74.167969 63.023438 C -74.601562 62.550781 -74.601562 62.550781 -74.832031 61.8125 L -74.816406 61.042969 C -74.398438 60.410156 -74.398438 60.410156 -73.953125 59.964844 M -71.363281 -60.304688 L -70.714844 -60.304688 C -70.933594 -59.714844 -71.164062 -59.199219 -71.5 -58.660156 L -71.796875 -58.148438 L -71.796875 -57.503906 C -71.226562 -57.21875 -70.773438 -57.242188 -70.140625 -57.21875 L -69.40625 -57.191406 L -68.636719 -57.167969 L -67.863281 -57.136719 C -67.230469 -57.113281 -66.597656 -57.09375 -65.964844 -57.070312 L -65.964844 -56.855469 C -66.882812 -56.84375 -67.800781 -56.835938 -68.71875 -56.828125 L -69.507812 -56.820312 L -70.265625 -56.8125 L -70.964844 -56.808594 C -71.574219 -56.855469 -71.925781 -56.972656 -72.441406 -57.289062 C -72.375 -58.28125 -72.296875 -58.878906 -71.820312 -59.765625 Z M -14.15625 55.65625 L -13.507812 55.65625 C -13.554688 56.121094 -13.554688 56.121094 -13.726562 56.734375 C -14.164062 57.316406 -14.164062 57.316406 -14.722656 57.890625 L -15.273438 58.476562 C -15.472656 58.613281 -15.675781 58.75 -15.882812 58.886719 C -16.664062 58.878906 -16.664062 58.878906 -17.394531 58.671875 C -17.910156 58.367188 -18.25 58.011719 -18.691406 57.59375 C -18.042969 57.59375 -18.042969 57.59375 -17.410156 57.945312 L -16.746094 58.242188 C -16.289062 58.15625 -16.289062 58.15625 -15.882812 57.8125 L -15.210938 57.3125 C -14.570312 56.785156 -14.570312 56.785156 -14.292969 56.128906 Z M -22.144531 43.585938 C -20.832031 43.972656 -19.773438 44.582031 -18.773438 45.511719 C -18.234375 46.089844 -18.050781 46.363281 -17.828125 47.140625 L -17.828125 47.679688 L -18.191406 47.222656 L -18.691406 46.601562 L -19.191406 45.941406 C -19.917969 45.148438 -20.636719 44.660156 -21.675781 44.316406 C -22.289062 44.207031 -22.871094 44.210938 -23.492188 44.21875 L -24.199219 44.222656 L -24.734375 44.230469 L -24.949219 43.800781 C -23.996094 43.484375 -23.140625 43.464844 -22.144531 43.585938 M -25.382812 60.183594 L -25.167969 60.613281 C -24.582031 60.679688 -24.015625 60.722656 -23.425781 60.746094 L -22.929688 60.773438 C -22.523438 60.792969 -22.117188 60.8125 -21.710938 60.828125 L -21.496094 60.183594 L -20.847656 60.398438 L -20.847656 61.257812 C -22.3125 61.519531 -23.957031 61.734375 -25.382812 61.257812 Z M -10.054688 -13.75 L -9.625 -13.75 C -9.738281 -12.601562 -10.085938 -11.691406 -10.703125 -10.730469 C -11.507812 -9.75 -12.324219 -9.066406 -13.507812 -8.574219 L -13.507812 -9.222656 C -13.167969 -9.515625 -13.167969 -9.515625 -12.714844 -9.816406 C -11.832031 -10.445312 -11.226562 -11.074219 -10.703125 -12.023438 C -10.453125 -12.59375 -10.253906 -13.15625 -10.054688 -13.75 M -25.167969 -22.585938 L -24.519531 -22.371094 L -24.519531 -21.9375 L -24.15625 -21.769531 C -23.390625 -21.367188 -22.71875 -20.84375 -22.023438 -20.335938 C -21.539062 -20.027344 -21.191406 -19.878906 -20.632812 -19.785156 L -20.632812 -19.351562 L -20.222656 -19.234375 L -19.6875 -19.070312 L -19.15625 -18.910156 L -18.691406 -18.707031 L -18.257812 -18.058594 C -20.761719 -18.835938 -22.957031 -20.09375 -24.894531 -21.847656 L -25.167969 -22.15625 Z M -151.019531 54.578125 L -150.589844 54.792969 C -150.886719 55.222656 -150.886719 55.222656 -151.238281 55.65625 L -151.667969 55.65625 L -151.667969 56.300781 L -150.371094 56.085938 L -150.371094 56.515625 C -150.953125 56.855469 -150.953125 56.855469 -151.667969 57.164062 C -152.289062 57.097656 -152.289062 57.097656 -152.746094 56.949219 L -152.964844 56.085938 Z M -17.179688 40.566406 C -16.492188 40.621094 -16.074219 40.796875 -15.476562 41.144531 L -14.84375 41.589844 L -14.207031 42.03125 L -13.726562 42.507812 C -13.621094 43.066406 -13.621094 43.066406 -13.726562 43.585938 C -14.265625 44.191406 -14.265625 44.191406 -14.804688 44.664062 L -15.019531 44.230469 L -14.804688 43.839844 C -14.550781 43.375 -14.550781 43.375 -14.589844 42.832031 C -14.777344 42.242188 -14.777344 42.242188 -15.359375 41.808594 C -16.234375 41.363281 -16.855469 41.28125 -17.828125 41.214844 C -17.570312 40.878906 -17.570312 40.878906 -17.179688 40.566406 M 8.292969 23.972656 L 8.570312 24.34375 C 8.929688 24.820312 9.300781 25.28125 9.683594 25.734375 L 10.058594 26.191406 C 10.425781 26.578125 10.425781 26.578125 10.894531 26.734375 L 11.316406 26.773438 C 11.902344 26.507812 11.902344 26.507812 12.394531 26.125 L 12.609375 25.695312 L 13.257812 25.695312 C 13.125 26.074219 13.125 26.074219 12.828125 26.558594 C 12.21875 27.054688 12.21875 27.054688 11.53125 27.417969 C 11.019531 27.398438 11.019531 27.398438 10.453125 27.203125 C 9.882812 26.742188 9.882812 26.742188 9.320312 26.167969 L 8.75 25.597656 C 8.292969 25.046875 8.292969 25.046875 8.109375 24.5625 L 8.078125 24.1875 Z M 8.292969 23.972656 " fill-opacity="1" fill-rule="nonzero"/></g><g clip-path="url(#f507c859d2)"><path fill="#0c2240" d="M -23.101562 38.15625 L -22.359375 38.148438 C -21.710938 38.195312 -21.710938 38.195312 -21.066406 38.628906 C -21.023438 39.195312 -21.023438 39.195312 -21.066406 39.707031 L -21.710938 39.488281 L -21.710938 38.84375 L -25.167969 38.84375 L -25.382812 38.414062 C -24.617188 38.179688 -23.898438 38.160156 -23.101562 38.15625 M 27.074219 9.746094 L 27.9375 10.175781 C 28.019531 10.621094 28.019531 10.621094 27.9375 11.253906 C 27.550781 11.800781 27.109375 12.28125 26.644531 12.761719 L 25.996094 12.546875 C 26.074219 12.453125 26.152344 12.359375 26.230469 12.261719 C 26.542969 11.863281 26.824219 11.476562 27.074219 11.039062 C 27.164062 10.328125 27.164062 10.328125 27.074219 9.746094 M -157.710938 49.621094 C -156.957031 49.675781 -156.957031 49.675781 -156.203125 49.835938 L -155.769531 50.265625 L -157.066406 50.050781 L -157.066406 50.914062 L -156.632812 51.558594 L -157.929688 51.128906 C -158.0625 50.617188 -158.0625 50.617188 -158.144531 50.050781 Z M -51.71875 -29.050781 C -50.945312 -28.722656 -50.4375 -28.265625 -49.84375 -27.675781 L -49.328125 -27.175781 C -48.914062 -26.679688 -48.914062 -26.679688 -48.746094 -26.1875 L -48.695312 -25.820312 C -49.074219 -25.589844 -49.074219 -25.589844 -49.558594 -25.386719 C -50.046875 -25.46875 -50.046875 -25.46875 -50.425781 -25.601562 L -50.425781 -25.820312 L -49.34375 -26.035156 C -49.84375 -27.03125 -50.570312 -27.714844 -51.363281 -28.476562 L -51.71875 -28.835938 Z M -2.5 -60.953125 L -2.714844 -59.875 C -3.308594 -59.632812 -3.308594 -59.632812 -4.011719 -59.441406 C -4.523438 -59.632812 -4.523438 -59.632812 -4.875 -59.875 C -4.644531 -60.054688 -4.410156 -60.234375 -4.171875 -60.414062 L -3.777344 -60.714844 C -3.363281 -60.953125 -3.363281 -60.953125 -2.5 -60.953125 M -59.273438 -22.585938 L -58.410156 -22.585938 L -58.410156 -20.644531 L -59.707031 -20.644531 L -59.707031 -21.078125 L -59.273438 -21.078125 L -59.394531 -21.710938 L -59.492188 -22.371094 Z M -59.273438 -22.585938 " fill-opacity="1" fill-rule="nonzero"/></g><g clip-path="url(#93bdd529dc)"><path fill="#0c2240" d="M -24.734375 62.550781 L -21.929688 62.769531 L -21.929688 63.199219 L -22.578125 63.628906 C -23.386719 63.5625 -24.027344 63.390625 -24.734375 62.984375 Z M -34.664062 -60.089844 L -34.449219 -59.660156 L -34.664062 -59.011719 L -34.449219 -58.363281 C -33.691406 -58.101562 -33.691406 -58.101562 -32.9375 -57.933594 L -32.9375 -57.503906 L -34.882812 -57.71875 C -35.136719 -58.296875 -35.136719 -58.296875 -35.3125 -59.011719 C -35.015625 -59.632812 -35.015625 -59.632812 -34.664062 -60.089844 M 5.917969 19.011719 L 6.566406 19.445312 C 7.183594 19.574219 7.800781 19.664062 8.421875 19.753906 L 8.941406 19.875 L 9.15625 20.308594 L 6.132812 20.089844 Z M -19.121094 59.535156 C -18.136719 59.652344 -17.402344 59.921875 -16.53125 60.398438 L -17.179688 60.613281 L -17.691406 60.503906 C -18.3125 60.386719 -18.730469 60.457031 -19.339844 60.613281 Z M -142.167969 49.621094 L -141.089844 49.835938 L -140.875 50.699219 C -141.480469 51.144531 -141.480469 51.144531 -142.167969 51.558594 L -142.816406 51.34375 L -142.398438 50.953125 C -141.910156 50.503906 -141.910156 50.503906 -141.738281 49.835938 Z M -50.425781 22.246094 L -47.402344 22.894531 L -47.402344 22.460938 L -46.96875 22.460938 L -47.1875 23.324219 C -48.480469 23.390625 -49.265625 23.257812 -50.425781 22.679688 Z M -25.167969 -12.457031 L -18.90625 -12.023438 L -18.90625 -11.808594 C -19.5625 -11.761719 -20.21875 -11.714844 -20.875 -11.671875 L -21.4375 -11.632812 C -22.5 -11.566406 -23.304688 -11.589844 -24.304688 -12.023438 Z M -99.425781 23.539062 L -98.996094 23.539062 C -99.222656 24.308594 -99.542969 24.777344 -100.101562 25.332031 L -100.722656 25.910156 L -101.371094 25.695312 L -100.882812 25.222656 C -100.289062 24.636719 -100.289062 24.636719 -99.816406 24.011719 Z M -52.152344 20.953125 C -51.625 21.382812 -51.625 21.382812 -51.289062 21.816406 L -51.625 21.707031 C -52.597656 21.507812 -53.574219 21.511719 -54.527344 21.816406 L -54.742188 21.382812 C -53.851562 20.953125 -53.136719 20.847656 -52.152344 20.953125 M 18.65625 12.117188 C 20.3125 12.363281 20.3125 12.363281 21.015625 12.816406 C 21.320312 13.074219 21.609375 13.347656 21.894531 13.625 L 21.675781 14.054688 L 21.351562 13.835938 C 20.390625 13.207031 19.558594 12.804688 18.441406 12.546875 Z M 18.65625 12.117188 " fill-opacity="1" fill-rule="nonzero"/></g><g clip-path="url(#a25623ff4a)"><path fill="#0c2240" d="M -98.347656 18.796875 L -97.699219 18.796875 C -97.679688 19.300781 -97.683594 19.804688 -97.699219 20.308594 L -98.132812 20.953125 C -98.300781 20.21875 -98.371094 19.550781 -98.347656 18.796875 M -113.890625 17.71875 L -113.675781 17.71875 L -113.683594 18.269531 C -113.683594 18.507812 -113.6875 18.742188 -113.6875 18.988281 L -113.695312 19.699219 C -113.71875 20.296875 -113.71875 20.296875 -113.457031 20.738281 C -113.660156 21.195312 -113.660156 21.195312 -113.890625 21.601562 C -114.121094 20.90625 -114.136719 20.390625 -114.132812 19.660156 L -114.136719 18.972656 C -114.105469 18.367188 -114.105469 18.367188 -113.890625 17.71875 M 25.996094 -15.472656 L 25.777344 -14.824219 L 23.621094 -14.609375 L 23.40625 -15.042969 C 24.246094 -15.601562 25.019531 -15.503906 25.996094 -15.472656 M -68.558594 61.476562 C -68.140625 61.648438 -68.140625 61.648438 -67.695312 61.90625 L -67.476562 62.550781 L -67.046875 62.550781 C -66.695312 62.984375 -66.695312 62.984375 -66.398438 63.414062 L -67.261719 63.414062 C -67.628906 63.046875 -67.628906 63.046875 -67.964844 62.566406 L -68.304688 62.089844 L -68.558594 61.691406 Z M 8.292969 10.175781 C 8.851562 11.015625 9.359375 11.859375 9.804688 12.761719 C 9.554688 12.566406 9.308594 12.371094 9.0625 12.171875 C 8.925781 12.058594 8.785156 11.949219 8.644531 11.835938 C 8.292969 11.46875 8.292969 11.46875 8.125 11.023438 L 8.078125 10.609375 Z M 28.800781 -46.511719 L 29.234375 -46.511719 C 29.242188 -46.152344 29.242188 -45.792969 29.234375 -45.433594 L 29.015625 -45.21875 C 28.585938 -45.207031 28.152344 -45.207031 27.722656 -45.21875 C 28.070312 -45.65625 28.429688 -46.089844 28.800781 -46.511719 M -69.851562 -18.492188 L -69.421875 -18.273438 L -69.636719 -15.6875 L -69.851562 -15.6875 C -69.894531 -16.113281 -69.933594 -16.542969 -69.972656 -16.96875 L -70.042969 -17.6875 L -70.066406 -18.273438 Z M -98.5625 21.601562 L -98.132812 21.601562 C -98.253906 22.320312 -98.421875 22.902344 -98.78125 23.539062 L -99.210938 23.109375 Z M 10.667969 7.804688 C 11.261719 7.847656 11.261719 7.847656 11.964844 8.019531 C 12.476562 8.574219 12.476562 8.574219 12.828125 9.097656 L 12.488281 8.910156 C 11.828125 8.605469 11.152344 8.425781 10.453125 8.238281 Z M 16.929688 5.433594 C 17.421875 5.421875 17.917969 5.414062 18.414062 5.40625 L 19.246094 5.394531 L 19.949219 5.433594 L 20.382812 5.867188 L 19.734375 6.082031 L 19.304688 5.867188 C 18.898438 5.816406 18.492188 5.777344 18.089844 5.746094 L 17.433594 5.691406 L 16.929688 5.648438 Z M 16.929688 5.433594 " fill-opacity="1" fill-rule="nonzero"/></g><g clip-path="url(#d8fec65c27)"><path fill="#0c2240" d="M -97.269531 -50.390625 L -96.621094 -50.390625 L -96.621094 -49.960938 C -96.949219 -49.679688 -96.949219 -49.679688 -97.375 -49.394531 L -97.800781 -49.101562 L -98.132812 -48.882812 L -98.132812 -49.527344 C -97.742188 -50 -97.742188 -50 -97.269531 -50.390625 M -14.375 51.992188 L -13.941406 51.992188 L -14.589844 53.929688 L -15.019531 53.714844 C -14.617188 52.476562 -14.617188 52.476562 -14.375 51.992188 M 13.472656 -32.5 L 16.710938 -32.285156 L 16.710938 -32.070312 C 14.765625 -31.789062 14.765625 -31.789062 13.878906 -32.054688 L 13.472656 -32.285156 Z M 13.472656 -32.5 " fill-opacity="1" fill-rule="nonzero"/></g></svg>