<svg xmlns="http://www.w3.org/2000/svg" xmlns:xlink="http://www.w3.org/1999/xlink" width="48" zoomAndPan="magnify" viewBox="0 0 36 36.000001" height="48" preserveAspectRatio="xMidYMid meet" version="1.0"><defs><clipPath id="b3186d5baf"><path d="M 0.488281 0 L 35.511719 0 L 35.511719 35.027344 L 0.488281 35.027344 Z M 0.488281 0 " clip-rule="nonzero"/></clipPath><clipPath id="2df3983017"><path d="M 0.488281 11 L 31 11 L 31 35.027344 L 0.488281 35.027344 Z M 0.488281 11 " clip-rule="nonzero"/></clipPath><clipPath id="0a76917fb3"><path d="M 0.488281 26 L 29 26 L 29 35.027344 L 0.488281 35.027344 Z M 0.488281 26 " clip-rule="nonzero"/></clipPath><clipPath id="304033a4bf"><path d="M 0.488281 3 L 19 3 L 19 19 L 0.488281 19 Z M 0.488281 3 " clip-rule="nonzero"/></clipPath><clipPath id="9bcc8b2365"><path d="M 0.488281 6 L 23 6 L 23 35.027344 L 0.488281 35.027344 Z M 0.488281 6 " clip-rule="nonzero"/></clipPath><clipPath id="1906fccb7e"><path d="M 0.488281 15 L 33 15 L 33 35.027344 L 0.488281 35.027344 Z M 0.488281 15 " clip-rule="nonzero"/></clipPath><clipPath id="7003a0cae9"><path d="M 0.488281 29 L 28 29 L 28 35.027344 L 0.488281 35.027344 Z M 0.488281 29 " clip-rule="nonzero"/></clipPath><clipPath id="877b8f8626"><path d="M 0.488281 14 L 12 14 L 12 35.027344 L 0.488281 35.027344 Z M 0.488281 14 " clip-rule="nonzero"/></clipPath><clipPath id="e86b370ec8"><path d="M 0.488281 14 L 28 14 L 28 35.027344 L 0.488281 35.027344 Z M 0.488281 14 " clip-rule="nonzero"/></clipPath><clipPath id="ef3e0a61f7"><path d="M 0.488281 15 L 22 15 L 22 35.027344 L 0.488281 35.027344 Z M 0.488281 15 " clip-rule="nonzero"/></clipPath><clipPath id="d959abfc36"><path d="M 0.488281 29 L 29 29 L 29 35.027344 L 0.488281 35.027344 Z M 0.488281 29 " clip-rule="nonzero"/></clipPath><clipPath id="8fc58030f8"><path d="M 0.488281 25 L 16 25 L 16 35.027344 L 0.488281 35.027344 Z M 0.488281 25 " clip-rule="nonzero"/></clipPath></defs><g clip-path="url(#b3186d5baf)"><rect x="-3.6" width="43.2" fill="#fefefe" y="-3.6" height="43.200001" fill-opacity="1"/></g><g clip-path="url(#2df3983017)"><path fill="#193049" d="M 14.828125 85.027344 C 15.25 84.9375 15.25 84.9375 15.753906 84.933594 L 16.308594 84.929688 L 16.886719 84.9375 L 17.464844 84.929688 L 18.015625 84.933594 L 18.523438 84.9375 C 18.976562 85.027344 18.976562 85.027344 19.378906 85.328125 L 19.667969 85.714844 C 19.695312 86.492188 19.695312 86.492188 19.667969 87.328125 C 19.734375 87.710938 19.804688 88.097656 19.898438 88.476562 L 20.53125 88.578125 C 21.28125 88.707031 21.28125 88.707031 21.738281 88.875 L 22.203125 88.9375 C 22.644531 88.613281 22.984375 88.242188 23.359375 87.84375 L 23.816406 87.558594 C 24.480469 87.5625 24.480469 87.5625 25.199219 87.789062 C 25.835938 88.273438 25.835938 88.273438 26.4375 88.878906 L 27.046875 89.480469 C 27.503906 90.089844 27.503906 90.089844 27.613281 90.679688 C 27.417969 91.683594 26.757812 92.296875 26.121094 93.082031 L 27.042969 95.152344 L 27.582031 95.195312 L 28.28125 95.253906 L 28.976562 95.308594 C 29.578125 95.382812 29.578125 95.382812 30.039062 95.613281 C 30.292969 96.375 30.308594 96.96875 30.3125 97.769531 L 30.320312 98.550781 C 30.269531 99.292969 30.164062 99.792969 29.808594 100.445312 C 29.113281 100.675781 28.644531 100.699219 27.921875 100.691406 L 27.292969 100.683594 L 26.8125 100.675781 C 26.511719 101.433594 26.246094 102.171875 26.121094 102.976562 C 26.496094 103.675781 26.496094 103.675781 27.042969 104.128906 L 27.042969 104.589844 L 27.503906 104.589844 C 27.5625 105.210938 27.5625 105.210938 27.503906 105.96875 C 27.089844 106.542969 27.089844 106.542969 26.539062 107.0625 L 25.996094 107.589844 C 25.425781 108.042969 24.976562 108.304688 24.277344 108.5 C 23.65625 108.214844 23.183594 107.855469 22.648438 107.4375 C 22.222656 107.109375 22.222656 107.109375 21.769531 106.933594 C 21.074219 106.871094 20.542969 107.101562 19.898438 107.351562 L 19.871094 107.929688 L 19.824219 108.6875 L 19.785156 109.441406 C 19.667969 110.113281 19.667969 110.113281 19.375 110.492188 C 18.976562 110.800781 18.976562 110.800781 18.523438 110.890625 L 18.015625 110.894531 L 17.464844 110.898438 L 16.886719 110.890625 L 16.308594 110.898438 L 15.753906 110.894531 L 15.25 110.890625 L 14.828125 110.800781 C 14.304688 110.019531 14.28125 109.613281 14.222656 108.6875 L 14.171875 107.929688 L 14.136719 107.351562 C 13.355469 107.175781 12.632812 107.066406 11.832031 107.121094 C 11.285156 107.433594 10.875 107.777344 10.421875 108.214844 L 9.988281 108.5 C 9.433594 108.5 9.433594 108.5 8.835938 108.269531 C 8.226562 107.777344 8.226562 107.777344 7.625 107.164062 L 7.015625 106.554688 C 6.53125 105.96875 6.53125 105.96875 6.296875 105.488281 L 6.300781 105.046875 C 6.636719 104.605469 6.636719 104.605469 7.105469 104.15625 C 7.558594 103.691406 7.558594 103.691406 7.914062 103.207031 C 7.957031 102.464844 7.957031 102.464844 7.683594 101.828125 C 7.601562 101.519531 7.527344 101.214844 7.453125 100.90625 L 6.753906 100.863281 L 5.855469 100.804688 L 4.953125 100.75 L 4.226562 100.675781 L 3.996094 100.445312 C 3.769531 98.886719 3.703125 97.394531 3.996094 95.84375 L 4.226562 95.613281 C 4.730469 95.558594 5.234375 95.515625 5.738281 95.484375 L 6.574219 95.425781 L 7.222656 95.382812 L 7.4375 94.726562 C 7.683594 94 7.683594 94 7.929688 93.441406 L 7.914062 92.851562 C 7.515625 92.414062 7.097656 92.039062 6.636719 91.664062 L 6.300781 91.238281 C 6.289062 90.699219 6.289062 90.699219 6.53125 90.089844 C 6.917969 89.59375 7.285156 89.175781 7.726562 88.738281 L 8.054688 88.378906 C 8.382812 88.046875 8.382812 88.046875 9.066406 87.558594 C 9.800781 87.558594 9.800781 87.558594 10.449219 87.789062 L 11.082031 88.40625 L 11.832031 88.9375 C 12.636719 88.902344 13.367188 88.714844 14.136719 88.476562 L 14.171875 87.898438 L 14.222656 87.140625 C 14.238281 86.890625 14.253906 86.644531 14.269531 86.386719 C 14.367188 85.714844 14.367188 85.714844 14.828125 85.027344 M -26.988281 119.964844 L -26.195312 119.957031 C -25.503906 120.007812 -25.503906 120.007812 -24.8125 120.46875 C -24.746094 121.015625 -24.746094 121.015625 -24.769531 121.648438 L -24.789062 122.285156 L -24.8125 122.769531 L -24.382812 122.863281 L -23.820312 122.984375 L -23.261719 123.109375 C -22.738281 123.230469 -22.738281 123.230469 -22.046875 123.460938 L -21.382812 123 L -20.664062 122.539062 C -19.925781 122.585938 -19.488281 122.78125 -18.84375 123.15625 L -18.171875 123.632812 L -17.492188 124.105469 L -16.976562 124.613281 C -16.867188 125.191406 -16.867188 125.191406 -16.976562 125.761719 C -17.230469 126.226562 -17.230469 126.226562 -17.554688 126.640625 L -17.878906 127.0625 L -18.128906 127.375 C -17.84375 128.15625 -17.535156 128.820312 -16.976562 129.445312 C -16.300781 129.632812 -15.722656 129.660156 -15.023438 129.652344 L -14.441406 129.675781 L -13.75 130.136719 C -13.6875 130.808594 -13.664062 131.421875 -13.679688 132.089844 L -13.675781 132.640625 C -13.679688 133.109375 -13.714844 133.578125 -13.75 134.046875 L -14.210938 134.507812 C -14.660156 134.5625 -15.113281 134.601562 -15.566406 134.636719 C -16.308594 134.726562 -16.308594 134.726562 -16.976562 134.96875 C -17.40625 135.46875 -17.597656 135.898438 -17.816406 136.511719 C -17.902344 137.074219 -17.847656 137.425781 -17.667969 137.960938 L -17.207031 137.960938 L -16.746094 138.652344 C -16.765625 139.191406 -16.765625 139.191406 -16.976562 139.800781 C -17.445312 140.425781 -17.445312 140.425781 -18.042969 141.039062 C -18.234375 141.246094 -18.429688 141.449219 -18.628906 141.664062 C -18.84375 141.808594 -19.058594 141.953125 -19.28125 142.101562 C -20.109375 142.097656 -20.109375 142.097656 -20.894531 141.875 L -21.375 141.507812 L -21.816406 141.183594 C -22.46875 141.148438 -22.46875 141.148438 -23.140625 141.253906 L -23.828125 141.339844 L -24.351562 141.414062 L -24.34375 141.824219 C -24.332031 142.792969 -24.339844 143.691406 -24.582031 144.636719 C -26.144531 144.914062 -27.898438 145.140625 -29.421875 144.636719 L -29.457031 144.0625 C -29.539062 143.292969 -29.644531 142.609375 -29.882812 141.875 C -30.324219 141.425781 -30.671875 141.242188 -31.257812 141.03125 C -31.753906 140.917969 -31.753906 140.917969 -32.359375 141.082031 C -32.882812 141.402344 -32.882812 141.402344 -33.339844 141.785156 C -33.800781 142.101562 -33.800781 142.101562 -34.320312 142.191406 C -34.953125 142.101562 -34.953125 142.101562 -35.628906 141.648438 L -36.308594 141.039062 L -36.996094 140.441406 L -37.488281 139.800781 C -37.476562 139.0625 -37.476562 139.0625 -37.257812 138.421875 L -36.769531 137.945312 L -36.335938 137.5 C -36.339844 136.933594 -36.339844 136.933594 -36.566406 136.347656 L -36.8125 135.585938 L -37.027344 134.96875 L -37.625 134.925781 L -38.394531 134.867188 L -39.164062 134.8125 L -39.792969 134.738281 L -40.023438 134.507812 C -40.042969 134.199219 -40.050781 133.890625 -40.046875 133.578125 L -40.042969 133.015625 L -40.035156 131.828125 C -40.03125 131.339844 -40.027344 130.851562 -40.023438 130.367188 L -39.441406 130.261719 C -38.691406 130.109375 -37.980469 129.9375 -37.257812 129.675781 C -36.683594 128.9375 -36.59375 128.421875 -36.40625 127.515625 L -36.335938 126.914062 L -36.796875 126.914062 C -37.199219 126.394531 -37.199219 126.394531 -37.488281 125.761719 C -37.132812 124.78125 -36.417969 124.109375 -35.683594 123.394531 C -35.183594 123 -35.183594 123 -34.320312 122.726562 L -33.570312 122.769531 C -33.257812 122.992188 -32.949219 123.222656 -32.648438 123.460938 C -32.09375 123.433594 -32.09375 123.433594 -31.496094 123.230469 L -30.617188 122.988281 C -30.375 122.914062 -30.132812 122.84375 -29.882812 122.769531 L -29.898438 122.332031 L -29.910156 121.761719 L -29.929688 121.199219 L -29.882812 120.699219 C -29.421875 120.238281 -29.421875 120.238281 -29.027344 120.097656 C -28.34375 119.980469 -27.683594 119.96875 -26.988281 119.964844 M 18.375 45.730469 C 19.894531 46.429688 21.054688 47.375 22.101562 48.675781 C 22.664062 49.589844 22.773438 50.359375 22.808594 51.421875 C 22.738281 52.839844 22.496094 53.910156 21.742188 55.105469 L 21.417969 55.617188 C 20.101562 57.488281 18.1875 58.828125 16.210938 59.9375 C 15.863281 60.089844 15.511719 60.234375 15.160156 60.371094 C 14.007812 60.816406 12.871094 61.289062 11.730469 61.769531 C 11.308594 61.941406 10.882812 62.097656 10.449219 62.242188 C 10.179688 62.914062 10.179688 62.914062 9.988281 63.621094 L 9.757812 64.082031 L 10.21875 64.082031 L 10.332031 64.597656 C 10.648438 65.296875 10.648438 65.296875 11.433594 65.699219 C 12.746094 66.324219 14.144531 66.46875 15.578125 66.65625 C 16.109375 66.730469 16.644531 66.804688 17.179688 66.882812 L 17.890625 66.976562 C 18.417969 67.058594 18.917969 67.175781 19.4375 67.304688 C 19.964844 67.335938 20.492188 67.355469 21.019531 67.359375 L 21.855469 67.378906 C 22.75 67.296875 23.289062 67.085938 24.046875 66.613281 C 24.644531 65.769531 24.988281 65.117188 25.140625 64.097656 L 25.199219 63.390625 C 23.621094 63.488281 22.578125 63.832031 21.195312 64.554688 C 19.316406 65.460938 17.683594 65.714844 15.609375 65.589844 C 14.277344 65.453125 13.050781 65.085938 11.832031 64.542969 L 11.601562 63.390625 L 12.269531 63.0625 C 12.578125 62.90625 12.890625 62.753906 13.199219 62.601562 L 13.699219 62.351562 C 14.574219 61.917969 15.4375 61.472656 16.292969 61 C 19.238281 59.367188 21.878906 58.453125 25.269531 58.457031 C 26.433594 58.59375 27.304688 58.972656 28.296875 59.609375 L 28.65625 59.9375 L 28.65625 60.398438 L 29.347656 60.628906 C 29.933594 61.433594 30.242188 62.265625 30.371094 63.246094 C 30.207031 64.605469 29.976562 65.789062 29.203125 66.941406 C 27.664062 68.785156 25.796875 69.734375 23.597656 70.582031 L 23.160156 70.753906 C 19.664062 72.035156 15.570312 72.042969 11.910156 71.601562 C 9.898438 71.246094 8.082031 70.476562 6.488281 69.203125 C 5.472656 68.28125 4.832031 67.371094 4.382812 66.070312 C 3.996094 64.582031 3.855469 63.226562 4.238281 61.722656 C 4.5625 60.820312 4.9375 60.101562 5.605469 59.410156 C 7.507812 57.804688 9.746094 56.847656 12 55.863281 C 14.515625 54.765625 14.515625 54.765625 16.621094 53.046875 L 16.902344 52.574219 L 16.902344 51.652344 C 15.035156 51.609375 13.34375 51.625 11.515625 52.03125 C 10.820312 52.125 10.246094 52.046875 9.554688 51.941406 C 8.9375 51.851562 8.9375 51.851562 8.375 51.882812 C 7.472656 52.65625 7.015625 53.570312 6.53125 54.644531 L 5.839844 54.414062 L 5.765625 53.96875 L 5.609375 53.496094 C 4.917969 53.195312 4.917969 53.195312 4.226562 53.035156 L 4.457031 52.113281 L 5.335938 52.054688 C 5.839844 52.003906 5.839844 52.003906 6.300781 51.882812 C 6.777344 51.472656 6.777344 51.472656 6.992188 50.960938 L 6.992188 50.503906 L 6.402344 49.96875 L 5.839844 49.351562 C 5.863281 48.808594 5.863281 48.808594 6.070312 48.199219 C 6.933594 46.941406 7.96875 45.90625 9.324219 45.195312 C 12.1875 43.839844 15.582031 44.546875 18.375 45.730469 M -20.9375 45.238281 C -19.863281 45.660156 -18.960938 46.253906 -18.128906 47.050781 C -17.855469 47.414062 -17.585938 47.785156 -17.324219 48.15625 C -16.953125 48.695312 -16.953125 48.695312 -16.515625 49.121094 C -15.847656 49.363281 -15.394531 49.363281 -14.671875 49.351562 L -14.441406 48.890625 L -13.058594 48.890625 C -13.117188 49.324219 -13.117188 49.324219 -13.289062 49.8125 C -13.765625 50.101562 -13.765625 50.101562 -14.210938 50.273438 L -13.851562 50.691406 L -13.519531 51.191406 L -13.75 51.882812 C -14.527344 51.757812 -14.921875 51.640625 -15.59375 51.191406 C -16.785156 51.023438 -17.875 51.148438 -19.007812 51.539062 C -21.089844 52.230469 -23.363281 51.921875 -25.503906 51.652344 L -25.503906 52.574219 L -25.089844 52.773438 C -24.582031 53.035156 -24.582031 53.035156 -23.832031 53.539062 C -22.925781 54.113281 -21.96875 54.53125 -20.980469 54.949219 C -18.695312 55.917969 -16.390625 56.949219 -14.671875 58.789062 L -14.28125 59.195312 C -13.519531 60.046875 -12.84375 60.871094 -12.597656 62.011719 C -12.453125 63.488281 -12.394531 64.957031 -12.957031 66.355469 C -13.648438 67.664062 -14.585938 68.742188 -15.777344 69.621094 C -16.542969 70.082031 -17.273438 70.390625 -18.113281 70.683594 L -18.929688 70.972656 C -22.1875 71.941406 -26.378906 71.792969 -29.710938 71.1875 C -32.03125 70.613281 -34.613281 69.894531 -36.457031 68.320312 C -37.09375 67.710938 -37.582031 67.21875 -37.890625 66.375 C -38.128906 65.507812 -38.238281 64.726562 -38.078125 63.835938 C -37.78125 62.902344 -37.265625 62.21875 -36.59375 61.507812 C -35.507812 60.578125 -34.222656 60.015625 -32.851562 59.636719 C -29.839844 59.085938 -26.695312 59.46875 -23.816406 60.421875 C -22.40625 60.96875 -21.050781 61.621094 -19.972656 62.699219 C -19.695312 63.203125 -19.695312 63.203125 -19.511719 63.621094 C -19.871094 64.054688 -19.871094 64.054688 -20.433594 64.542969 C -22.097656 65.113281 -23.761719 65.222656 -25.503906 65.003906 C -26.484375 64.78125 -27.425781 64.460938 -28.371094 64.125 C -29.746094 63.667969 -30.761719 63.59375 -32.1875 63.851562 L -32.417969 64.773438 C -30.972656 65.222656 -29.527344 65.632812 -28.039062 65.921875 L -27.417969 66.046875 C -25.105469 66.367188 -22.457031 66.433594 -20.230469 65.683594 C -19.679688 65.453125 -19.679688 65.453125 -19.007812 64.960938 C -18.605469 64.332031 -18.507812 64.101562 -18.460938 63.390625 C -18.507812 62.675781 -18.613281 62.433594 -19.007812 61.792969 C -19.492188 61.273438 -19.492188 61.273438 -20.203125 61.089844 L -20.203125 60.628906 L -20.894531 60.628906 L -20.894531 60.167969 L -21.703125 59.992188 C -22.726562 59.734375 -23.628906 59.339844 -24.566406 58.859375 L -25.054688 58.613281 C -26.875 57.664062 -28.425781 56.589844 -29.601562 54.878906 C -30.386719 53.585938 -30.628906 52.511719 -30.691406 50.992188 C -30.65625 49.683594 -30.472656 48.671875 -29.808594 47.539062 C -28.992188 46.507812 -27.996094 45.953125 -26.808594 45.433594 C -24.941406 44.773438 -22.84375 44.6875 -20.9375 45.238281 M -66.269531 12.324219 C -63.957031 13.832031 -63.957031 13.832031 -63.300781 14.367188 L -63.300781 14.828125 L -62.148438 15.289062 L -62.148438 15.75 L -61.6875 15.894531 C -61.0625 16.179688 -60.710938 16.4375 -60.199219 16.875 C -59.050781 17.746094 -57.863281 18.011719 -56.472656 18.308594 C -55.980469 18.425781 -55.488281 18.539062 -54.996094 18.652344 L -54.28125 18.816406 C -53.425781 19.015625 -52.582031 19.238281 -51.734375 19.476562 L -51.019531 19.671875 C -50.355469 19.90625 -49.820312 20.179688 -49.242188 20.582031 C -48.6875 21.519531 -48.503906 22.257812 -48.464844 23.34375 C -48.507812 24.441406 -48.660156 25.167969 -49.242188 26.105469 C -49.835938 26.570312 -50.164062 26.808594 -50.855469 27.027344 C -51.554688 27.09375 -52.230469 27.085938 -52.929688 27.027344 L -53.097656 26.5625 C -53.714844 24.9375 -53.714844 24.9375 -54.773438 23.574219 C -55.714844 22.917969 -56.441406 22.703125 -57.566406 22.566406 C -58.597656 22.667969 -59.324219 22.917969 -60.234375 23.398438 C -61.015625 23.996094 -61.34375 24.683594 -61.722656 25.574219 C -61.871094 25.980469 -62.011719 26.386719 -62.148438 26.796875 C -63.378906 27.050781 -64.570312 27.0625 -65.816406 27.066406 L -66.476562 27.066406 C -66.929688 27.070312 -67.386719 27.070312 -67.84375 27.070312 C -68.542969 27.070312 -69.246094 27.074219 -69.945312 27.078125 C -70.390625 27.078125 -70.832031 27.078125 -71.277344 27.078125 L -71.914062 27.085938 L -72.5 27.082031 L -73.019531 27.082031 L -73.441406 27.027344 C -73.964844 26.503906 -74.050781 26.167969 -74.277344 25.472656 C -74.539062 24.796875 -74.753906 24.335938 -75.261719 23.816406 C -76.015625 23.238281 -76.648438 22.832031 -77.589844 22.652344 C -78.363281 22.578125 -78.976562 22.558594 -79.699219 22.859375 C -80.023438 23.023438 -80.339844 23.195312 -80.65625 23.375 C -81.046875 23.574219 -81.046875 23.574219 -81.507812 23.574219 C -81.882812 24.3125 -82.230469 25.0625 -82.574219 25.820312 L -82.886719 26.503906 L -83.121094 27.027344 C -83.523438 27.007812 -83.925781 26.984375 -84.332031 26.957031 L -85.011719 26.914062 C -85.65625 26.796875 -85.65625 26.796875 -86.195312 26.574219 L -86.578125 26.105469 C -86.691406 25.398438 -86.664062 24.707031 -86.636719 23.992188 L -86.621094 23.402344 C -86.613281 22.921875 -86.59375 22.441406 -86.578125 21.964844 C -85.363281 21.246094 -85.363281 21.246094 -84.964844 21.042969 L -84.503906 21.042969 C -84.464844 20.382812 -84.464844 20.382812 -84.503906 19.664062 L -84.964844 18.972656 L -84.199219 18.511719 C -83.023438 17.644531 -82.308594 16.492188 -81.535156 15.269531 C -80.828125 14.171875 -80.066406 13.261719 -78.972656 12.527344 C -78.011719 12.039062 -77.097656 11.984375 -76.039062 11.964844 L -75.523438 11.949219 C -75.160156 11.9375 -74.800781 11.929688 -74.4375 11.921875 C -73.894531 11.910156 -73.351562 11.894531 -72.808594 11.875 C -67.898438 11.738281 -67.898438 11.738281 -66.269531 12.324219 " fill-opacity="1" fill-rule="nonzero"/></g><path fill="#cf1b15" d="M 21.925781 11.4375 C 23.460938 12.300781 24.421875 13.34375 25.320312 14.847656 C 25.9375 15.964844 26.132812 16.980469 26.261719 18.238281 L 26.335938 18.863281 C 26.386719 19.292969 26.433594 19.722656 26.480469 20.15625 C 26.554688 20.816406 26.628906 21.480469 26.710938 22.140625 C 26.757812 22.5625 26.804688 22.980469 26.851562 23.402344 C 26.875 23.601562 26.898438 23.800781 26.921875 24.003906 C 26.972656 24.472656 27.007812 24.945312 27.042969 25.414062 L 26.8125 25.644531 C 26.296875 25.667969 25.777344 25.671875 25.261719 25.671875 L 24.773438 25.671875 C 24.234375 25.671875 23.695312 25.671875 23.160156 25.667969 L 22.042969 25.667969 C 21.0625 25.667969 20.082031 25.664062 19.101562 25.660156 C 18.105469 25.660156 17.105469 25.660156 16.105469 25.65625 C 14.144531 25.65625 12.179688 25.652344 10.21875 25.644531 C 10.199219 23.902344 10.328125 22.214844 10.519531 20.480469 L 10.601562 19.671875 C 10.859375 17.347656 11.25 15.34375 12.628906 13.425781 C 13.519531 12.324219 14.671875 11.652344 15.980469 11.144531 C 18.011719 10.535156 19.976562 10.558594 21.925781 11.4375 " fill-opacity="1" fill-rule="nonzero"/><g clip-path="url(#0a76917fb3)"><path fill="#193049" d="M 8.375 27.027344 C 9.003906 27.003906 9.628906 26.996094 10.257812 26.996094 L 10.855469 26.996094 C 11.511719 26.996094 12.167969 26.996094 12.824219 26.996094 C 13.277344 26.996094 13.734375 26.996094 14.1875 26.996094 C 15.140625 26.996094 16.089844 26.996094 17.042969 26.996094 C 18.269531 26.996094 19.492188 26.996094 20.714844 26.996094 C 21.652344 26.996094 22.589844 26.996094 23.527344 26.996094 C 23.980469 26.996094 24.429688 26.996094 24.882812 26.996094 C 25.511719 26.996094 26.140625 26.996094 26.769531 26.996094 L 27.34375 26.996094 C 27.78125 26.996094 28.21875 27.011719 28.65625 27.027344 L 28.886719 27.257812 C 28.910156 27.835938 28.917969 28.40625 28.914062 28.984375 L 28.917969 29.472656 C 28.917969 29.886719 28.902344 30.296875 28.886719 30.710938 L 28.65625 30.941406 C 28.023438 30.960938 27.402344 30.972656 26.769531 30.96875 L 26.171875 30.96875 C 25.515625 30.972656 24.859375 30.972656 24.203125 30.96875 C 23.75 30.96875 23.296875 30.96875 22.84375 30.972656 C 21.890625 30.972656 20.9375 30.96875 19.984375 30.96875 C 18.761719 30.96875 17.539062 30.96875 16.3125 30.96875 C 15.375 30.972656 14.4375 30.972656 13.5 30.96875 C 13.050781 30.96875 12.597656 30.96875 12.148438 30.972656 C 11.519531 30.972656 10.886719 30.972656 10.257812 30.96875 L 9.6875 30.972656 C 9.25 30.96875 8.8125 30.957031 8.375 30.941406 L 8.144531 30.710938 C 8.121094 30.132812 8.113281 29.5625 8.113281 28.984375 L 8.113281 28.492188 C 8.113281 28.082031 8.128906 27.667969 8.144531 27.257812 Z M -77.824219 141.925781 C -77.253906 142.144531 -77.007812 142.40625 -76.613281 142.863281 L -76.214844 143.328125 L -75.804688 143.816406 L -75.382812 144.300781 C -74.632812 145.175781 -74.632812 145.175781 -74.363281 145.554688 L -74.363281 146.015625 L -73.902344 146.015625 L -73.542969 146.460938 C -73.035156 146.953125 -73.035156 146.953125 -72.507812 147.082031 C -71.929688 147.171875 -71.488281 147.242188 -70.90625 147.167969 C -69.886719 146.597656 -69.15625 145.910156 -68.386719 145.039062 L -67.789062 144.367188 L -67.21875 143.714844 L -66.710938 143.140625 C -66.339844 142.71875 -65.972656 142.296875 -65.605469 141.875 C -64.167969 142.070312 -63.042969 142.386719 -61.824219 143.179688 C -61.457031 143.484375 -61.457031 143.484375 -60.996094 144.175781 C -61.023438 144.835938 -61.023438 144.835938 -61.226562 145.554688 C -61.683594 146.230469 -62.074219 146.660156 -62.765625 147.097656 C -66.136719 148.601562 -70.085938 149.082031 -73.75 148.726562 C -76.496094 148.4375 -79.140625 148.121094 -81.449219 146.488281 L -81.96875 146.015625 C -82.214844 145.226562 -82.214844 145.226562 -82.199219 144.40625 C -81.894531 143.800781 -81.894531 143.800781 -81.277344 143.253906 C -78.785156 141.816406 -78.785156 141.816406 -77.824219 141.925781 M -12.136719 133.585938 C -11.800781 133.574219 -11.464844 133.566406 -11.128906 133.558594 L -10.5625 133.542969 L -10.0625 133.585938 L -9.601562 134.046875 C -9.480469 134.714844 -9.480469 134.714844 -9.414062 135.515625 L -9.339844 136.3125 C -9.371094 137.039062 -9.371094 137.039062 -9.648438 137.578125 C -10.0625 137.960938 -10.0625 137.960938 -10.585938 138.152344 L -11.144531 138.25 C -11.328125 138.28125 -11.515625 138.316406 -11.707031 138.351562 L -12.136719 138.421875 C -12.390625 139.113281 -12.582031 139.753906 -12.597656 140.492188 C -12.289062 140.941406 -11.972656 141.210938 -11.535156 141.53125 L -11.214844 141.875 C -11.109375 142.410156 -11.109375 142.410156 -11.214844 143.023438 C -11.621094 143.648438 -11.621094 143.648438 -12.167969 144.261719 L -12.699219 144.882812 L -13.289062 145.324219 C -14.007812 145.304688 -14.007812 145.304688 -14.671875 145.09375 L -15.363281 144.636719 C -16.242188 144.710938 -16.894531 144.917969 -17.667969 145.324219 L -17.652344 145.8125 L -17.640625 146.449219 L -17.625 147.078125 L -17.667969 147.625 C -18.128906 148.085938 -18.128906 148.085938 -18.628906 148.234375 C -20.808594 148.648438 -20.808594 148.648438 -21.816406 148.546875 C -22.429688 147.933594 -22.53125 147.316406 -22.765625 146.496094 L -22.96875 146.015625 L -23.660156 145.554688 L -22.96875 143.023438 L -21.816406 142.792969 L -21.039062 143.152344 C -20.234375 143.542969 -20.234375 143.542969 -19.441406 143.425781 C -18.183594 142.972656 -17.179688 141.90625 -16.285156 140.953125 C -15.746094 140.246094 -15.597656 139.828125 -15.476562 138.933594 C -15.460938 138.625 -15.445312 138.3125 -15.4375 138.003906 L -15.410156 137.519531 C -15.394531 137.128906 -15.378906 136.738281 -15.363281 136.347656 L -14.890625 136.210938 C -14.238281 135.992188 -13.660156 135.769531 -13.058594 135.429688 C -12.597656 134.824219 -12.402344 134.308594 -12.136719 133.585938 " fill-opacity="1" fill-rule="nonzero"/></g><g clip-path="url(#304033a4bf)"><path fill="#fefefe" d="M 18.515625 12.988281 L 18.976562 14.136719 C 18.617188 14.542969 18.335938 14.804688 17.839844 15.023438 L 16.886719 15.324219 C 16.367188 15.550781 16.101562 15.765625 15.75 16.210938 C 15.554688 16.738281 15.417969 17.265625 15.273438 17.808594 C 15.203125 17.964844 15.132812 18.121094 15.058594 18.28125 C 14.574219 18.574219 14.574219 18.574219 14.136719 18.742188 L 13.214844 18.050781 C 13.320312 16.824219 13.433594 15.871094 14.136719 14.828125 C 15.480469 13.613281 16.667969 12.902344 18.515625 12.988281 M -158.023438 3.867188 C -157.148438 3.914062 -156.460938 4.015625 -155.6875 4.429688 C -155.027344 4.933594 -155.027344 4.933594 -154.566406 5.621094 L -154.566406 6.542969 L -161.480469 6.542969 C -161.039062 5.449219 -160.800781 4.992188 -159.925781 4.28125 C -159.269531 3.941406 -158.761719 3.894531 -158.023438 3.867188 " fill-opacity="1" fill-rule="nonzero"/></g><g clip-path="url(#9bcc8b2365)"><path fill="#0c2240" d="M 15.75 61.320312 L 16.210938 61.550781 L 15.613281 61.796875 C 14.851562 62.136719 14.144531 62.472656 13.445312 62.929688 C 13.183594 63.363281 13.183594 63.363281 13.15625 63.824219 L 13.214844 64.542969 C 14.136719 64.632812 15.058594 64.703125 15.980469 64.773438 L 16.605469 64.835938 C 18.195312 64.933594 19.386719 64.507812 20.8125 63.863281 C 21.191406 63.691406 21.582031 63.539062 21.972656 63.390625 L 22.664062 63.621094 C 21.796875 64.488281 20.628906 64.9375 19.480469 65.332031 C 17.625 65.816406 15.550781 65.6875 13.703125 65.253906 C 13.0625 65.042969 12.445312 64.816406 11.832031 64.542969 L 11.601562 63.390625 Z M -18.820312 6.3125 C -17.992188 6.621094 -17.246094 6.964844 -16.515625 7.464844 L -16.515625 7.925781 L -15.953125 8.125 L -15.363281 8.382812 L -15.132812 8.84375 L -14.601562 9.160156 C -13.980469 9.535156 -13.566406 9.949219 -13.058594 10.457031 L -12.613281 10.671875 C -11.945312 11.015625 -11.515625 11.535156 -10.984375 12.066406 L -10.523438 12.308594 C -9.933594 12.632812 -9.5625 12.917969 -9.140625 13.449219 C -8.890625 14.601562 -8.957031 15.734375 -9.011719 16.90625 C -9.019531 17.246094 -9.027344 17.582031 -9.035156 17.921875 C -9.054688 18.808594 -9.085938 19.695312 -9.121094 20.585938 C -9.152344 21.492188 -9.175781 22.398438 -9.199219 23.304688 C -9.246094 25.082031 -9.304688 26.859375 -9.371094 28.636719 C -9.832031 27.949219 -9.832031 27.949219 -9.878906 27.332031 L -9.859375 26.582031 L -9.84375 25.730469 L -9.832031 25.273438 C -9.820312 24.804688 -9.8125 24.332031 -9.808594 23.859375 C -9.792969 22.519531 -9.769531 21.179688 -9.734375 19.839844 C -9.714844 19.019531 -9.703125 18.199219 -9.699219 17.378906 C -9.691406 16.917969 -9.675781 16.457031 -9.660156 15.992188 C -9.65625 15.1875 -9.671875 14.464844 -9.832031 13.679688 C -10.28125 13.039062 -10.777344 12.6875 -11.445312 12.296875 C -11.726562 12.085938 -12.003906 11.871094 -12.28125 11.65625 C -12.574219 11.4375 -12.867188 11.21875 -13.160156 11.003906 L -13.632812 10.648438 C -14.484375 10.015625 -15.335938 9.386719 -16.191406 8.757812 L -16.707031 8.378906 C -17.035156 8.136719 -17.367188 7.894531 -17.695312 7.65625 C -18.078125 7.371094 -18.453125 7.074219 -18.820312 6.773438 Z M -18.820312 6.3125 " fill-opacity="1" fill-rule="nonzero"/></g><g clip-path="url(#1906fccb7e)"><path fill="#0c2240" d="M 30.5 67.304688 C 31.148438 67.269531 31.695312 67.410156 32.34375 67.535156 L 32.574219 67.765625 C 32.558594 68.539062 32.558594 68.539062 32.34375 69.375 C 31.589844 69.863281 31.007812 70.058594 30.121094 70.183594 L 29.261719 70.222656 L 28.390625 70.269531 L 27.734375 70.296875 C 27.964844 69.605469 27.964844 69.605469 28.367188 69.210938 L 28.855469 68.800781 C 29.539062 68.230469 29.539062 68.230469 30.152344 67.59375 Z M -34.722656 17.140625 C -34.453125 17.160156 -34.179688 17.183594 -33.902344 17.203125 C -33.628906 17.21875 -33.359375 17.238281 -33.078125 17.257812 L -32.417969 17.359375 L -32.1875 17.820312 L -35.414062 17.820312 L -35.414062 28.636719 L -35.875 28.636719 C -36.003906 27.527344 -36.121094 26.433594 -36.105469 25.316406 C -36.0625 24.503906 -36.0625 24.503906 -36.335938 23.804688 C -36.496094 23.113281 -36.496094 23.113281 -36.566406 22.425781 L -36.105469 21.734375 C -36.023438 21.246094 -36.023438 21.246094 -36.011719 20.710938 L -35.984375 20.117188 L -35.960938 19.503906 L -35.933594 18.882812 C -35.914062 18.375 -35.894531 17.867188 -35.875 17.359375 C -35.414062 17.128906 -35.414062 17.128906 -34.722656 17.140625 M -7.988281 15.75 L -7.527344 15.75 L -7.527344 27.71875 L -8.21875 27.71875 C -8.226562 26.085938 -8.230469 24.457031 -8.230469 22.828125 C -8.234375 22.269531 -8.234375 21.714844 -8.238281 21.160156 C -8.238281 20.363281 -8.242188 19.570312 -8.242188 18.773438 L -8.246094 18.015625 L -8.246094 16.703125 C -8.21875 16.210938 -8.21875 16.210938 -7.988281 15.75 M -33.800781 69.144531 L -33.339844 69.144531 L -33.339844 69.605469 C -32.691406 69.753906 -32.042969 69.902344 -31.394531 70.050781 L -30.847656 70.179688 C -28.753906 70.652344 -26.714844 70.804688 -24.566406 70.8125 L -23.867188 70.816406 C -22.125 70.800781 -20.515625 70.589844 -18.816406 70.195312 C -18.128906 70.066406 -18.128906 70.066406 -17.4375 70.296875 C -17.789062 70.445312 -18.136719 70.59375 -18.488281 70.742188 L -19.082031 70.992188 C -22.234375 72.058594 -26.542969 71.777344 -29.769531 71.160156 C -31.214844 70.804688 -32.632812 70.347656 -34.03125 69.835938 Z M -33.800781 69.144531 " fill-opacity="1" fill-rule="nonzero"/></g><path fill="#d01c16" d="M 12.292969 4.472656 L 12.984375 4.703125 C 13.292969 5.207031 13.574219 5.722656 13.832031 6.253906 L 14.058594 6.6875 C 14.375 7.332031 14.59375 7.871094 14.660156 8.589844 L 14.597656 9.074219 L 14.367188 9.304688 C 13.984375 9.316406 13.597656 9.316406 13.214844 9.304688 C 12.898438 8.667969 12.585938 8.03125 12.277344 7.390625 L 12.003906 6.84375 L 11.75 6.316406 L 11.511719 5.832031 L 11.371094 5.394531 L 11.601562 4.703125 Z M 12.292969 4.472656 " fill-opacity="1" fill-rule="nonzero"/><path fill="#d10502" d="M 29.117188 8.15625 C 29.632812 8.234375 29.632812 8.234375 30.039062 8.382812 C 30.222656 8.769531 30.222656 8.769531 30.269531 9.304688 C 29.804688 9.898438 29.804688 9.898438 29.160156 10.511719 L 28.519531 11.136719 L 27.964844 11.605469 L 27.503906 11.605469 L 27.503906 12.066406 L 26.582031 12.296875 L 25.890625 11.144531 C 26.789062 9.996094 27.789062 8.820312 29.117188 8.15625 " fill-opacity="1" fill-rule="nonzero"/><path fill="#d60401" d="M 24.277344 4.472656 L 25.429688 4.933594 C 25.285156 5.980469 24.859375 6.839844 24.378906 7.765625 L 24.148438 8.214844 C 23.960938 8.578125 23.773438 8.941406 23.585938 9.304688 L 22.433594 9.074219 L 22.203125 8.382812 C 22.339844 7.972656 22.339844 7.972656 22.574219 7.519531 L 22.824219 7.027344 L 23.09375 6.515625 L 23.359375 5.996094 C 24.003906 4.746094 24.003906 4.746094 24.277344 4.472656 " fill-opacity="1" fill-rule="nonzero"/><path fill="#d01c16" d="M 7.222656 8.15625 C 7.640625 8.199219 7.640625 8.199219 8.144531 8.382812 C 8.605469 8.785156 8.605469 8.785156 9.066406 9.277344 C 9.648438 9.890625 10.21875 10.425781 10.910156 10.917969 L 10.679688 12.066406 L 9.988281 12.296875 C 9.304688 11.84375 8.738281 11.25 8.144531 10.6875 L 7.707031 10.304688 C 7.324219 9.953125 7.324219 9.953125 6.761719 9.304688 C 6.828125 8.820312 6.828125 8.820312 6.992188 8.382812 Z M 7.222656 8.15625 " fill-opacity="1" fill-rule="nonzero"/><path fill="#d60401" d="M 18.285156 3.320312 L 19.207031 3.550781 L 19.207031 8.15625 L 18.054688 8.382812 C 17.59375 7.695312 17.59375 7.695312 17.5625 7.234375 L 17.597656 6.71875 L 17.632812 6.160156 L 17.679688 5.578125 L 17.71875 4.992188 C 17.75 4.511719 17.789062 4.03125 17.824219 3.550781 Z M 18.285156 3.320312 " fill-opacity="1" fill-rule="nonzero"/><g clip-path="url(#7003a0cae9)"><path fill="#0c2240" d="M -12.597656 140.953125 C -12.03125 141.21875 -11.664062 141.425781 -11.214844 141.875 C -11.128906 142.398438 -11.128906 142.398438 -11.214844 143.023438 C -11.621094 143.648438 -11.621094 143.648438 -12.167969 144.261719 C -12.34375 144.46875 -12.519531 144.671875 -12.699219 144.882812 L -13.289062 145.324219 C -14.007812 145.304688 -14.007812 145.304688 -14.671875 145.09375 L -15.363281 144.636719 C -16.335938 144.722656 -17.210938 145 -18.128906 145.324219 L -18.128906 144.636719 C -17.449219 144.34375 -16.78125 144.097656 -16.054688 143.945312 C -15.539062 144.015625 -15.539062 144.015625 -15.0625 144.160156 L -14.210938 144.40625 C -13.683594 144.226562 -13.683594 144.226562 -13.289062 143.945312 L -12.597656 143.945312 L -12.496094 143.511719 C -12.367188 143.023438 -12.367188 143.023438 -12.136719 142.5625 C -12.277344 142.023438 -12.429688 141.484375 -12.597656 140.953125 M -23.199219 144.175781 C -22.785156 144.792969 -22.53125 145.328125 -22.261719 146.015625 L -22.023438 146.621094 C -21.871094 147.03125 -21.722656 147.441406 -21.585938 147.855469 C -21.210938 147.824219 -20.835938 147.792969 -20.460938 147.757812 L -19.832031 147.699219 C -19.277344 147.65625 -19.277344 147.65625 -18.820312 147.398438 C -18.664062 146.960938 -18.664062 146.960938 -18.5625 146.460938 L -18.445312 145.949219 L -18.359375 145.554688 L -17.898438 145.554688 C -17.847656 145.890625 -17.800781 146.226562 -17.753906 146.5625 L -17.671875 147.128906 L -17.667969 147.625 C -18.128906 148.085938 -18.128906 148.085938 -18.628906 148.234375 C -20.808594 148.648438 -20.808594 148.648438 -21.816406 148.546875 C -22.429688 147.933594 -22.53125 147.316406 -22.765625 146.496094 L -22.96875 146.015625 L -23.660156 145.554688 Z M -75.746094 29.097656 L -60.535156 29.097656 L -60.535156 29.328125 L -66.296875 29.558594 L -66.296875 30.019531 L -67.21875 29.789062 L -67.21875 29.328125 L -67.460938 29.671875 L -67.910156 30.019531 C -68.683594 30.085938 -68.683594 30.085938 -69.566406 30.0625 L -70.457031 30.042969 L -71.136719 30.019531 L -71.136719 29.558594 L -75.746094 29.328125 Z M -18.128906 128.292969 L -17.667969 128.292969 L -17.453125 128.855469 L -16.976562 129.445312 C -16.324219 129.570312 -15.703125 129.601562 -15.039062 129.621094 C -14.441406 129.675781 -14.441406 129.675781 -13.75 130.136719 C -13.6875 130.808594 -13.664062 131.421875 -13.679688 132.089844 L -13.675781 132.640625 C -13.679688 133.109375 -13.714844 133.578125 -13.75 134.046875 L -14.210938 134.507812 C -14.761719 134.605469 -14.761719 134.605469 -15.390625 134.652344 L -16.027344 134.703125 L -16.515625 134.738281 L -16.746094 134.277344 L -14.671875 134.046875 C -14.621094 133.527344 -14.574219 133.003906 -14.527344 132.480469 L -14.445312 131.597656 L -14.441406 130.824219 L -14.902344 130.136719 C -15.492188 130.042969 -15.492188 130.042969 -16.15625 130.050781 C -16.84375 130.007812 -16.84375 130.007812 -17.4375 129.90625 C -17.941406 129.34375 -17.941406 129.34375 -18.128906 128.753906 Z M 25.660156 102.976562 L 26.121094 102.976562 C 26.609375 103.523438 26.609375 103.523438 27.042969 104.128906 L 27.042969 104.589844 L 27.503906 104.589844 C 27.5625 105.210938 27.5625 105.210938 27.503906 105.96875 C 27.089844 106.542969 27.089844 106.542969 26.539062 107.0625 L 25.996094 107.589844 C 25.425781 108.042969 24.976562 108.304688 24.277344 108.5 C 23.6875 108.226562 23.6875 108.226562 23.125 107.808594 L 22.632812 107.449219 C 22.492188 107.339844 22.347656 107.230469 22.203125 107.121094 L 21.511719 106.660156 L 22.894531 106.660156 L 22.894531 107.121094 C 23.574219 107.289062 24.046875 107.394531 24.738281 107.351562 C 25.484375 107.007812 26.042969 106.589844 26.582031 105.96875 C 26.8125 105.269531 26.8125 105.269531 26.582031 104.589844 C 26.140625 103.960938 26.140625 103.960938 25.660156 103.4375 Z M -20.433594 62.699219 L -19.511719 63.160156 C -19.613281 63.691406 -19.613281 63.691406 -19.972656 64.3125 C -21.085938 65.003906 -22.394531 65.066406 -23.675781 65.117188 C -25.617188 65.082031 -27.402344 64.601562 -29.191406 63.851562 L -29.421875 63.390625 C -28.386719 63.488281 -27.484375 63.640625 -26.496094 63.980469 C -25.109375 64.417969 -23.722656 64.453125 -22.277344 64.3125 C -21.527344 64.136719 -21.527344 64.136719 -20.894531 63.851562 C -20.5625 63.273438 -20.5625 63.273438 -20.433594 62.699219 M -67.679688 58.558594 L -67.21875 58.558594 C -67.207031 58.925781 -67.195312 59.296875 -67.191406 59.664062 L -67.171875 60.289062 C -67.21875 60.859375 -67.21875 60.859375 -67.679688 61.550781 C -68.367188 61.628906 -68.367188 61.628906 -69.238281 61.617188 L -69.699219 61.613281 C -70.1875 61.609375 -70.675781 61.601562 -71.164062 61.59375 C -71.496094 61.589844 -71.828125 61.585938 -72.160156 61.582031 C -72.96875 61.574219 -73.78125 61.5625 -74.59375 61.550781 L -74.824219 61.089844 C -73.046875 60.90625 -71.316406 60.851562 -69.53125 60.917969 C -68.832031 60.90625 -68.832031 60.90625 -68.289062 60.566406 L -67.910156 60.167969 C -67.722656 59.339844 -67.722656 59.339844 -67.679688 58.558594 " fill-opacity="1" fill-rule="nonzero"/></g><g clip-path="url(#877b8f8626)"><path fill="#0c2240" d="M -81.277344 143.253906 L -80.816406 143.484375 L -81.175781 143.859375 C -81.566406 144.398438 -81.566406 144.398438 -81.523438 145.09375 C -81.324219 145.824219 -81.324219 145.824219 -80.714844 146.289062 C -79.851562 146.730469 -79.03125 146.980469 -78.089844 147.210938 L -77.589844 147.398438 L -77.128906 148.085938 C -78.777344 147.945312 -80.097656 147.371094 -81.507812 146.519531 C -81.96875 146.015625 -81.96875 146.015625 -82.214844 145.226562 L -82.199219 144.40625 C -81.753906 143.730469 -81.753906 143.730469 -81.277344 143.253906 M -78.511719 14.828125 L -77.820312 14.828125 C -78.054688 15.457031 -78.300781 16.011719 -78.65625 16.582031 L -78.972656 17.128906 L -78.972656 17.820312 C -78.367188 18.125 -77.882812 18.101562 -77.207031 18.125 L -76.421875 18.152344 L -75.601562 18.179688 L -74.777344 18.210938 C -74.101562 18.234375 -73.425781 18.257812 -72.75 18.28125 L -72.75 18.511719 C -73.730469 18.523438 -74.707031 18.53125 -75.6875 18.539062 L -76.53125 18.550781 L -77.339844 18.554688 L -78.085938 18.5625 C -78.738281 18.511719 -79.113281 18.386719 -79.664062 18.050781 C -79.589844 16.988281 -79.507812 16.351562 -79 15.40625 Z M -17.4375 138.652344 L -16.746094 138.652344 C -16.796875 139.148438 -16.796875 139.148438 -16.976562 139.800781 C -17.445312 140.425781 -17.445312 140.425781 -18.042969 141.039062 L -18.628906 141.664062 C -18.84375 141.808594 -19.058594 141.953125 -19.28125 142.101562 C -20.117188 142.089844 -20.117188 142.089844 -20.894531 141.875 C -21.445312 141.546875 -21.808594 141.167969 -22.277344 140.722656 C -21.585938 140.722656 -21.585938 140.722656 -20.910156 141.097656 L -20.203125 141.414062 C -19.710938 141.320312 -19.710938 141.320312 -19.28125 140.953125 L -18.5625 140.421875 C -17.878906 139.855469 -17.878906 139.855469 -17.582031 139.15625 Z M -25.964844 125.761719 C -24.566406 126.175781 -23.433594 126.828125 -22.363281 127.820312 C -21.789062 128.4375 -21.59375 128.730469 -21.355469 129.558594 L -21.355469 130.136719 L -21.746094 129.644531 L -22.277344 128.984375 L -22.8125 128.28125 C -23.585938 127.433594 -24.355469 126.910156 -25.464844 126.542969 C -26.117188 126.425781 -26.742188 126.429688 -27.40625 126.4375 L -28.160156 126.445312 L -28.730469 126.453125 L -28.960938 125.992188 C -27.941406 125.652344 -27.027344 125.636719 -25.964844 125.761719 M -29.421875 143.484375 L -29.191406 143.945312 C -28.566406 144.015625 -27.960938 144.0625 -27.332031 144.089844 L -26.804688 144.117188 C -26.371094 144.136719 -25.9375 144.15625 -25.503906 144.175781 L -25.273438 143.484375 L -24.582031 143.714844 L -24.582031 144.636719 C -26.144531 144.914062 -27.898438 145.140625 -29.421875 144.636719 Z M -13.058594 64.542969 L -12.597656 64.542969 C -12.722656 65.765625 -13.089844 66.738281 -13.75 67.765625 C -14.609375 68.8125 -15.480469 69.539062 -16.746094 70.066406 L -16.746094 69.375 C -16.382812 69.0625 -16.382812 69.0625 -15.898438 68.742188 C -14.957031 68.070312 -14.308594 67.398438 -13.75 66.382812 C -13.484375 65.773438 -13.269531 65.171875 -13.058594 64.542969 M -29.191406 55.105469 L -28.5 55.335938 L -28.5 55.796875 L -28.109375 55.976562 C -27.296875 56.40625 -26.578125 56.964844 -25.835938 57.507812 C -25.320312 57.839844 -24.949219 57.996094 -24.351562 58.097656 L -24.351562 58.558594 L -23.914062 58.683594 L -23.34375 58.859375 L -22.777344 59.03125 L -22.277344 59.25 L -21.816406 59.9375 C -24.488281 59.109375 -26.832031 57.769531 -28.902344 55.894531 L -29.191406 55.566406 Z M -163.554688 137.5 L -163.09375 137.730469 C -163.410156 138.191406 -163.410156 138.191406 -163.785156 138.652344 L -164.246094 138.652344 L -164.246094 139.339844 L -162.863281 139.109375 L -162.863281 139.570312 C -163.480469 139.929688 -163.480469 139.929688 -164.246094 140.261719 C -164.90625 140.191406 -164.90625 140.191406 -165.398438 140.03125 L -165.628906 139.109375 Z M -20.664062 122.539062 C -19.933594 122.597656 -19.484375 122.785156 -18.84375 123.15625 L -18.171875 123.632812 L -17.492188 124.105469 L -16.976562 124.613281 C -16.867188 125.207031 -16.867188 125.207031 -16.976562 125.761719 C -17.554688 126.410156 -17.554688 126.410156 -18.128906 126.914062 L -18.359375 126.453125 L -18.128906 126.035156 C -17.859375 125.539062 -17.859375 125.539062 -17.898438 124.957031 C -18.101562 124.328125 -18.101562 124.328125 -18.71875 123.863281 C -19.65625 123.386719 -20.316406 123.300781 -21.355469 123.230469 C -21.082031 122.871094 -21.082031 122.871094 -20.664062 122.539062 M 6.53125 104.820312 L 6.828125 105.21875 C 7.210938 105.726562 7.605469 106.21875 8.015625 106.703125 L 8.417969 107.1875 C 8.808594 107.601562 8.808594 107.601562 9.308594 107.769531 L 9.757812 107.808594 C 10.382812 107.527344 10.382812 107.527344 10.910156 107.121094 L 11.140625 106.660156 L 11.832031 106.660156 C 11.6875 107.0625 11.6875 107.0625 11.371094 107.582031 C 10.722656 108.113281 10.722656 108.113281 9.988281 108.5 C 9.441406 108.480469 9.441406 108.480469 8.835938 108.269531 C 8.226562 107.777344 8.226562 107.777344 7.625 107.164062 L 7.015625 106.554688 C 6.53125 105.96875 6.53125 105.96875 6.332031 105.449219 L 6.300781 105.046875 Z M 6.53125 104.820312 " fill-opacity="1" fill-rule="nonzero"/></g><g clip-path="url(#e86b370ec8)"><path fill="#0c2240" d="M -26.988281 119.964844 L -26.195312 119.957031 C -25.503906 120.007812 -25.503906 120.007812 -24.8125 120.46875 C -24.769531 121.074219 -24.769531 121.074219 -24.8125 121.621094 L -25.503906 121.390625 L -25.503906 120.699219 L -29.191406 120.699219 L -29.421875 120.238281 C -28.605469 119.988281 -27.839844 119.96875 -26.988281 119.964844 M 26.582031 89.628906 L 27.503906 90.089844 C 27.589844 90.5625 27.589844 90.5625 27.503906 91.238281 C 27.089844 91.824219 26.617188 92.335938 26.121094 92.851562 L 25.429688 92.621094 C 25.511719 92.519531 25.59375 92.421875 25.679688 92.316406 C 26.011719 91.890625 26.3125 91.480469 26.582031 91.007812 C 26.679688 90.25 26.679688 90.25 26.582031 89.628906 M -170.699219 132.207031 C -169.890625 132.265625 -169.890625 132.265625 -169.085938 132.4375 L -168.625 132.898438 L -170.007812 132.667969 L -170.007812 133.585938 L -169.546875 134.277344 L -170.929688 133.816406 C -171.074219 133.269531 -171.074219 133.269531 -171.160156 132.667969 Z M -57.539062 48.199219 C -56.714844 48.550781 -56.167969 49.039062 -55.535156 49.667969 L -54.988281 50.207031 C -54.542969 50.734375 -54.542969 50.734375 -54.367188 51.257812 L -54.3125 51.652344 C -54.714844 51.898438 -54.714844 51.898438 -55.234375 52.113281 C -55.753906 52.027344 -55.753906 52.027344 -56.15625 51.882812 L -56.15625 51.652344 L -55.003906 51.421875 C -55.535156 50.359375 -56.3125 49.628906 -57.160156 48.816406 L -57.539062 48.429688 Z M -4.992188 14.136719 L -5.222656 15.289062 C -5.855469 15.546875 -5.855469 15.546875 -6.605469 15.75 C -7.152344 15.546875 -7.152344 15.546875 -7.527344 15.289062 C -7.28125 15.09375 -7.03125 14.902344 -6.777344 14.714844 L -6.359375 14.390625 C -5.914062 14.136719 -5.914062 14.136719 -4.992188 14.136719 M -65.605469 55.105469 L -64.683594 55.105469 L -64.683594 57.175781 L -66.066406 57.175781 L -66.066406 56.714844 L -65.605469 56.714844 L -65.734375 56.039062 L -65.835938 55.335938 Z M -65.605469 55.105469 " fill-opacity="1" fill-rule="nonzero"/></g><g clip-path="url(#ef3e0a61f7)"><path fill="#0c2240" d="M -28.730469 146.015625 L -25.734375 146.246094 L -25.734375 146.707031 L -26.425781 147.167969 C -27.292969 147.09375 -27.976562 146.910156 -28.730469 146.476562 Z M -39.332031 15.058594 L -39.101562 15.519531 L -39.332031 16.210938 L -39.101562 16.898438 C -38.292969 17.183594 -38.292969 17.183594 -37.488281 17.359375 L -37.488281 17.820312 L -39.5625 17.589844 C -39.835938 16.972656 -39.835938 16.972656 -40.023438 16.210938 C -39.707031 15.546875 -39.707031 15.546875 -39.332031 15.058594 M 3.996094 99.523438 L 4.6875 99.984375 C 5.34375 100.125 6.003906 100.21875 6.667969 100.316406 L 7.222656 100.445312 L 7.453125 100.90625 L 4.226562 100.675781 Z M -22.738281 142.792969 C -21.6875 142.917969 -20.902344 143.207031 -19.972656 143.714844 L -20.664062 143.945312 L -21.210938 143.828125 C -21.875 143.703125 -22.320312 143.777344 -22.96875 143.945312 Z M -154.105469 132.207031 L -152.953125 132.4375 L -152.722656 133.359375 C -153.371094 133.832031 -153.371094 133.832031 -154.105469 134.277344 L -154.796875 134.046875 L -154.347656 133.632812 C -153.828125 133.148438 -153.828125 133.148438 -153.644531 132.4375 Z M -56.15625 102.976562 L -52.929688 103.667969 L -52.929688 103.207031 L -52.46875 103.207031 L -52.699219 104.128906 C -54.078125 104.199219 -54.921875 104.054688 -56.15625 103.4375 Z M -29.191406 65.921875 L -22.507812 66.382812 L -22.507812 66.613281 C -23.207031 66.664062 -23.910156 66.710938 -24.609375 66.757812 L -25.210938 66.800781 C -26.34375 66.871094 -27.207031 66.847656 -28.269531 66.382812 Z M -108.472656 104.359375 L -108.011719 104.359375 C -108.253906 105.179688 -108.59375 105.679688 -109.191406 106.273438 L -109.855469 106.890625 L -110.546875 106.660156 L -110.027344 106.15625 C -109.390625 105.53125 -109.390625 105.53125 -108.890625 104.863281 Z M -58 101.597656 C -57.4375 102.058594 -57.4375 102.058594 -57.078125 102.515625 L -57.4375 102.402344 C -58.480469 102.1875 -59.519531 102.191406 -60.535156 102.515625 L -60.765625 102.058594 C -59.816406 101.597656 -59.050781 101.480469 -58 101.597656 M 17.59375 92.160156 C 19.359375 92.421875 19.359375 92.421875 20.113281 92.90625 C 20.4375 93.179688 20.746094 93.476562 21.050781 93.769531 L 20.820312 94.230469 L 20.472656 93.996094 C 19.445312 93.324219 18.558594 92.894531 17.363281 92.621094 Z M 17.59375 92.160156 " fill-opacity="1" fill-rule="nonzero"/></g><g clip-path="url(#d959abfc36)"><path fill="#0c2240" d="M -107.320312 99.292969 L -106.628906 99.292969 C -106.609375 99.832031 -106.609375 100.371094 -106.628906 100.90625 L -107.089844 101.597656 C -107.269531 100.8125 -107.34375 100.097656 -107.320312 99.292969 M -123.914062 98.144531 L -123.683594 98.144531 L -123.691406 98.730469 C -123.691406 98.984375 -123.695312 99.238281 -123.699219 99.496094 L -123.707031 100.257812 C -123.730469 100.894531 -123.730469 100.894531 -123.453125 101.367188 C -123.667969 101.855469 -123.667969 101.855469 -123.914062 102.285156 C -124.160156 101.546875 -124.175781 100.996094 -124.171875 100.214844 L -124.175781 99.480469 C -124.144531 98.835938 -124.144531 98.835938 -123.914062 98.144531 M 25.429688 62.699219 L 25.199219 63.390625 L 22.894531 63.621094 L 22.664062 63.160156 C 23.5625 62.5625 24.386719 62.667969 25.429688 62.699219 M -75.515625 144.863281 C -75.070312 145.050781 -75.070312 145.050781 -74.59375 145.324219 L -74.363281 146.015625 L -73.902344 146.015625 C -73.527344 146.476562 -73.527344 146.476562 -73.210938 146.9375 L -74.132812 146.9375 C -74.523438 146.542969 -74.523438 146.542969 -74.882812 146.03125 L -75.246094 145.519531 L -75.515625 145.09375 Z M 6.53125 90.089844 C 7.128906 90.984375 7.667969 91.886719 8.144531 92.851562 C 7.878906 92.640625 7.613281 92.429688 7.351562 92.21875 C 7.203125 92.101562 7.058594 91.984375 6.90625 91.863281 C 6.53125 91.46875 6.53125 91.46875 6.351562 90.992188 L 6.300781 90.550781 Z M 28.425781 29.558594 L 28.886719 29.558594 C 28.894531 29.941406 28.894531 30.324219 28.886719 30.710938 L 28.65625 30.941406 C 28.195312 30.949219 27.734375 30.949219 27.273438 30.941406 C 27.644531 30.46875 28.03125 30.007812 28.425781 29.558594 M -76.898438 59.476562 L -76.4375 59.707031 L -76.667969 62.46875 L -76.898438 62.46875 C -76.941406 62.015625 -76.984375 61.558594 -77.027344 61.105469 L -77.101562 60.335938 L -77.128906 59.707031 Z M -107.550781 102.285156 L -107.089844 102.285156 C -107.21875 103.054688 -107.402344 103.675781 -107.78125 104.359375 L -108.242188 103.898438 Z M 9.066406 87.558594 C 9.699219 87.601562 9.699219 87.601562 10.449219 87.789062 C 10.996094 88.378906 10.996094 88.378906 11.371094 88.9375 L 11.011719 88.738281 C 10.304688 88.410156 9.585938 88.21875 8.835938 88.015625 Z M 15.75 85.027344 C 16.277344 85.011719 16.804688 85.003906 17.332031 84.996094 L 18.226562 84.980469 L 18.976562 85.027344 L 19.4375 85.484375 L 18.746094 85.714844 L 18.285156 85.484375 C 17.851562 85.433594 17.421875 85.390625 16.988281 85.355469 L 16.289062 85.296875 L 15.75 85.253906 Z M 15.75 85.027344 " fill-opacity="1" fill-rule="nonzero"/></g><g clip-path="url(#8fc58030f8)"><path fill="#0c2240" d="M -106.167969 25.414062 L -105.476562 25.414062 L -105.476562 25.875 C -105.828125 26.171875 -105.828125 26.171875 -106.28125 26.480469 L -106.738281 26.792969 L -107.089844 27.027344 L -107.089844 26.335938 C -106.671875 25.832031 -106.671875 25.832031 -106.167969 25.414062 M -17.667969 134.738281 L -17.207031 134.738281 L -17.898438 136.808594 L -18.359375 136.578125 C -17.925781 135.257812 -17.925781 135.257812 -17.667969 134.738281 M 12.0625 44.519531 L 15.519531 44.75 L 15.519531 44.980469 C 13.441406 45.277344 13.441406 45.277344 12.492188 44.992188 L 12.0625 44.75 Z M 12.0625 44.519531 " fill-opacity="1" fill-rule="nonzero"/></g><path fill="#b50f08" d="M 29.808594 8.613281 L 30.269531 8.613281 C 30.210938 9.03125 30.210938 9.03125 30.039062 9.535156 C 29.5625 9.9375 29.5625 9.9375 29.117188 10.226562 L 29.117188 9.535156 C 29.433594 9.03125 29.433594 9.03125 29.808594 8.613281 " fill-opacity="1" fill-rule="nonzero"/></svg>