<svg xmlns="http://www.w3.org/2000/svg" xmlns:xlink="http://www.w3.org/1999/xlink" width="48" zoomAndPan="magnify" viewBox="0 0 36 36.000001" height="48" preserveAspectRatio="xMidYMid meet" version="1.0"><defs><clipPath id="b8d82ebfda"><path d="M 0.488281 0 L 35.511719 0 L 35.511719 35.027344 L 0.488281 35.027344 Z M 0.488281 0 " clip-rule="nonzero"/></clipPath><clipPath id="d5ee538c06"><path d="M 0.488281 6 L 35.511719 6 L 35.511719 35.027344 L 0.488281 35.027344 Z M 0.488281 6 " clip-rule="nonzero"/></clipPath><clipPath id="d0c655646f"><path d="M 2 3 L 35.511719 3 L 35.511719 35.027344 L 2 35.027344 Z M 2 3 " clip-rule="nonzero"/></clipPath><clipPath id="b32740486a"><path d="M 0.488281 24 L 35.511719 24 L 35.511719 35.027344 L 0.488281 35.027344 Z M 0.488281 24 " clip-rule="nonzero"/></clipPath><clipPath id="6a20b58b11"><path d="M 0.488281 29 L 35.511719 29 L 35.511719 35.027344 L 0.488281 35.027344 Z M 0.488281 29 " clip-rule="nonzero"/></clipPath><clipPath id="c029d4d9df"><path d="M 0.488281 13 L 35.511719 13 L 35.511719 27 L 0.488281 27 Z M 0.488281 13 " clip-rule="nonzero"/></clipPath><clipPath id="0593d35db2"><path d="M 0.488281 2 L 35.511719 2 L 35.511719 19 L 0.488281 19 Z M 0.488281 2 " clip-rule="nonzero"/></clipPath><clipPath id="bcd882035e"><path d="M 6 17 L 35.511719 17 L 35.511719 35.027344 L 6 35.027344 Z M 6 17 " clip-rule="nonzero"/></clipPath><clipPath id="9cf2ca7869"><path d="M 0.488281 14 L 35.511719 14 L 35.511719 35.027344 L 0.488281 35.027344 Z M 0.488281 14 " clip-rule="nonzero"/></clipPath><clipPath id="efcd8c75db"><path d="M 0.488281 23 L 35.511719 23 L 35.511719 35.027344 L 0.488281 35.027344 Z M 0.488281 23 " clip-rule="nonzero"/></clipPath><clipPath id="5aec106855"><path d="M 0.488281 14 L 35.511719 14 L 35.511719 35.027344 L 0.488281 35.027344 Z M 0.488281 14 " clip-rule="nonzero"/></clipPath><clipPath id="bd1a13fc29"><path d="M 0.488281 13 L 35.511719 13 L 35.511719 35.027344 L 0.488281 35.027344 Z M 0.488281 13 " clip-rule="nonzero"/></clipPath><clipPath id="008932fb0f"><path d="M 0.488281 14 L 35.511719 14 L 35.511719 35.027344 L 0.488281 35.027344 Z M 0.488281 14 " clip-rule="nonzero"/></clipPath><clipPath id="a6db8988ed"><path d="M 9 31 L 35.511719 31 L 35.511719 35.027344 L 9 35.027344 Z M 9 31 " clip-rule="nonzero"/></clipPath><clipPath id="ecd84f3295"><path d="M 28 26 L 35.511719 26 L 35.511719 35.027344 L 28 35.027344 Z M 28 26 " clip-rule="nonzero"/></clipPath></defs><g clip-path="url(#b8d82ebfda)"><rect x="-3.6" width="43.2" fill="#fefefe" y="-3.6" height="43.200001" fill-opacity="1"/></g><g clip-path="url(#d5ee538c06)"><path fill="#cf1b15" d="M 71.851562 134.003906 C 73.578125 134.855469 75.3125 136.082031 76.5 137.617188 C 77.621094 139.398438 78.445312 141.203125 78.566406 143.316406 C 78.59375 145.804688 77.878906 147.949219 76.773438 150.160156 C 75.980469 151.5625 75.015625 152.863281 74.074219 154.167969 L 73.695312 154.695312 C 73.382812 155.121094 73.054688 155.53125 72.722656 155.9375 L 72.207031 155.9375 L 72.027344 156.488281 C 71.613281 157.390625 71.074219 157.996094 70.402344 158.722656 L 69.707031 159.484375 L 69.113281 160.058594 L 68.597656 160.058594 L 68.082031 161.089844 C 67.597656 161.027344 67.597656 161.027344 67.046875 160.832031 C 66.871094 160.492188 66.699219 160.148438 66.53125 159.800781 L 66.070312 159.59375 C 65.320312 159.1875 64.929688 158.667969 64.40625 158 L 63.855469 157.308594 L 63.4375 156.710938 L 63.4375 156.195312 L 62.921875 156.195312 C 62.605469 155.835938 62.605469 155.835938 62.25 155.328125 L 61.855469 154.769531 L 61.441406 154.167969 L 61.015625 153.558594 C 57.484375 148.445312 57.484375 148.445312 56.992188 145.378906 C 56.828125 143.136719 57.109375 141.417969 58.03125 139.386719 C 58.988281 137.5 60.367188 136.050781 62.117188 134.867188 C 64.957031 133.246094 68.746094 132.894531 71.851562 134.003906 M 116.039062 89.492188 C 118.183594 89.996094 119.921875 90.828125 121.609375 92.253906 C 122.628906 93.222656 123.480469 94.269531 124.289062 95.414062 L 124.667969 95.933594 C 126.296875 98.460938 126.675781 102.003906 126.867188 104.945312 C 127.503906 104.582031 127.503906 104.582031 128.15625 103.914062 C 128.957031 102.425781 129.320312 100.953125 129.445312 99.277344 C 129.914062 99.34375 129.914062 99.34375 130.476562 99.535156 C 131.101562 100.234375 131.550781 101.046875 132.023438 101.855469 L 132.382812 102.464844 C 133.554688 104.617188 134.109375 106.910156 134.183594 109.355469 C 134.113281 111.605469 133.5 113.542969 132.378906 115.488281 C 131.109375 117.390625 129.523438 118.402344 127.507812 119.445312 C 126.445312 119.941406 125.46875 120.277344 124.289062 120.398438 L 124.289062 119.882812 L 124.804688 119.882812 L 124.804688 119.367188 L 125.402344 118.820312 C 126.050781 118.125 126.4375 117.550781 126.738281 116.644531 C 127.058594 115.097656 127.128906 113.472656 126.632812 111.960938 C 126.457031 111.5625 126.265625 111.175781 126.0625 110.792969 C 125.835938 110.351562 125.835938 110.351562 125.835938 109.839844 L 125.320312 109.839844 L 125.234375 110.300781 C 124.996094 111.488281 124.746094 112.4375 124.03125 113.445312 C 123.5625 113.378906 123.5625 113.378906 123 113.1875 C 122.023438 112.125 121.765625 110.835938 121.398438 109.476562 C 120.933594 107.378906 121.1875 105.714844 121.800781 103.671875 L 121.96875 103.140625 C 120.3125 103.933594 119.152344 104.984375 118.101562 106.492188 C 117.113281 108.566406 116.660156 110.640625 116.8125 112.929688 C 116.953125 113.878906 117.128906 114.820312 117.328125 115.761719 C 116.726562 115.699219 116.726562 115.699219 116.039062 115.503906 C 115.648438 115.039062 115.648438 115.039062 115.34375 114.472656 C 115.15625 114.125 114.957031 113.78125 114.75 113.445312 L 114.234375 113.1875 C 113.929688 114.695312 113.820312 116.09375 114.152344 117.597656 C 114.574219 118.519531 115.101562 119.132812 115.78125 119.882812 L 115.523438 120.398438 C 113.03125 119.351562 111.128906 118.011719 109.335938 116.019531 C 108.703125 115.113281 108.222656 114.199219 107.789062 113.1875 L 107.523438 112.65625 C 106.679688 110.683594 106.820312 108.328125 107.011719 106.234375 C 107.511719 103.277344 108.824219 101.007812 110.703125 98.714844 C 110.933594 98.476562 111.160156 98.238281 111.398438 97.992188 L 111.914062 97.992188 L 111.863281 98.730469 C 111.867188 99.980469 112.132812 101.246094 112.6875 102.371094 C 113.203125 102.710938 113.203125 102.710938 113.71875 102.882812 L 113.976562 101.855469 L 114.492188 101.855469 L 114.683594 101.355469 C 114.863281 100.914062 115.050781 100.476562 115.253906 100.046875 C 116.328125 97.753906 116.742188 95.632812 116.554688 93.097656 C 116.441406 92.488281 116.308594 91.882812 116.152344 91.28125 C 116.015625 90.675781 115.996094 90.109375 116.039062 89.492188 M -31.6875 6.707031 L -30.953125 6.703125 C -30.441406 6.703125 -29.929688 6.703125 -29.421875 6.703125 C -28.644531 6.707031 -27.871094 6.699219 -27.09375 6.691406 C -26.597656 6.691406 -26.097656 6.691406 -25.597656 6.691406 L -24.90625 6.683594 C -23.253906 6.699219 -21.800781 7.019531 -20.359375 7.847656 C -19.628906 8.589844 -18.988281 9.347656 -18.671875 10.347656 C -18.515625 11.121094 -18.488281 11.875 -18.453125 12.664062 L -18.429688 13.183594 C -18.40625 13.746094 -18.382812 14.308594 -18.359375 14.875 L -18.308594 16.054688 C -18.273438 16.878906 -18.238281 17.703125 -18.203125 18.527344 C -18.160156 19.578125 -18.113281 20.632812 -18.070312 21.6875 C -17.992188 23.429688 -17.917969 25.175781 -17.847656 26.921875 L -17.808594 27.855469 L -17.78125 28.710938 L -17.742188 29.5625 L -17.78125 30.257812 L -18.296875 30.769531 L -19.328125 30.769531 C -19.644531 29.058594 -19.609375 27.359375 -19.585938 25.621094 L -20.113281 25.648438 L -20.808594 25.667969 L -21.5 25.695312 C -22.164062 25.621094 -22.164062 25.621094 -22.761719 25.261719 L -23.195312 24.847656 L -23.195312 24.332031 L -34.023438 24.589844 L -34.539062 26.90625 L -36.085938 26.90625 L -36.085938 25.621094 L -37.632812 25.621094 L -37.632812 30.769531 L -39.179688 30.515625 L -39.179688 30 L -39.695312 30 C -39.722656 28.414062 -39.722656 28.414062 -39.695312 27.9375 L -39.4375 27.679688 C -39.375 26.980469 -39.328125 26.289062 -39.292969 25.589844 L -39.257812 24.9375 C -39.167969 22.933594 -39.164062 20.929688 -39.191406 18.925781 C -39.203125 17.628906 -39.148438 16.378906 -38.984375 15.09375 C -38.921875 14.554688 -38.890625 14.015625 -38.867188 13.472656 L -38.847656 12.953125 C -38.832031 12.605469 -38.820312 12.257812 -38.8125 11.914062 C -38.757812 10.726562 -38.507812 9.894531 -37.890625 8.878906 C -36.089844 7.078125 -34.160156 6.699219 -31.6875 6.707031 " fill-opacity="1" fill-rule="nonzero"/></g><g clip-path="url(#d0c655646f)"><path fill="#193049" d="M 84.839844 57.042969 L 85.355469 57.042969 L 85.355469 74.8125 L 88.707031 74.8125 L 89.222656 75.070312 C 89.253906 76.550781 89.253906 76.550781 88.964844 77.128906 C 83.859375 77.136719 78.753906 77.140625 73.648438 77.144531 C 71.277344 77.144531 68.90625 77.144531 66.539062 77.148438 C 64.472656 77.152344 62.40625 77.152344 60.339844 77.152344 C 59.246094 77.152344 58.152344 77.15625 57.058594 77.15625 C 56.03125 77.160156 55 77.160156 53.972656 77.160156 C 53.59375 77.160156 53.214844 77.160156 52.835938 77.160156 C 52.320312 77.160156 51.808594 77.160156 51.292969 77.160156 L 50.417969 77.160156 L 49.773438 77.128906 L 49.515625 76.871094 C 49.503906 76.269531 49.503906 75.671875 49.515625 75.070312 C 50.304688 74.675781 51.132812 74.785156 51.996094 74.796875 L 52.550781 74.800781 C 53 74.800781 53.449219 74.808594 53.898438 74.8125 L 53.890625 74.207031 C 53.863281 71.101562 53.863281 71.101562 54.15625 69.660156 C 54.929688 69.144531 54.929688 69.144531 55.632812 69.085938 C 55.910156 69.089844 56.1875 69.09375 56.472656 69.09375 L 57.382812 69.101562 L 58.332031 69.113281 L 59.289062 69.121094 C 60.070312 69.125 60.851562 69.136719 61.632812 69.144531 L 61.617188 68.207031 C 61.609375 67.800781 61.605469 67.394531 61.601562 66.988281 L 61.589844 66.371094 C 61.585938 65.835938 61.609375 65.300781 61.632812 64.765625 L 62.148438 64.253906 C 62.894531 64.171875 62.894531 64.171875 63.835938 64.144531 L 64.851562 64.117188 L 65.921875 64.089844 L 66.996094 64.0625 C 67.871094 64.035156 68.75 64.015625 69.628906 63.996094 L 69.722656 63.113281 L 69.851562 61.964844 L 69.914062 61.382812 C 69.972656 60.878906 70.058594 60.375 70.144531 59.875 L 70.660156 59.359375 C 72.304688 59 73.902344 59.121094 75.558594 59.359375 L 75.558594 61.933594 L 72.722656 61.933594 L 72.738281 62.808594 C 72.746094 63.1875 72.75 63.566406 72.753906 63.945312 C 72.757812 64.136719 72.761719 64.328125 72.765625 64.523438 C 72.769531 65.035156 72.746094 65.542969 72.722656 66.054688 L 72.207031 66.828125 C 71.4375 66.914062 71.4375 66.914062 70.464844 66.902344 L 69.945312 66.898438 C 69.398438 66.894531 68.851562 66.886719 68.304688 66.875 C 67.933594 66.871094 67.566406 66.867188 67.195312 66.867188 C 66.285156 66.855469 65.378906 66.84375 64.46875 66.828125 L 64.488281 67.703125 C 64.492188 68.082031 64.5 68.460938 64.503906 68.839844 C 64.507812 69.03125 64.511719 69.21875 64.515625 69.414062 C 64.519531 69.925781 64.496094 70.4375 64.46875 70.949219 L 63.953125 71.722656 C 63.234375 71.808594 63.234375 71.808594 62.324219 71.796875 L 61.34375 71.789062 L 60.3125 71.769531 C 59.96875 71.765625 59.621094 71.761719 59.277344 71.757812 C 58.429688 71.75 57.582031 71.738281 56.734375 71.722656 C 56.726562 72.140625 56.722656 72.558594 56.71875 72.976562 L 56.710938 73.683594 C 56.695312 74.300781 56.695312 74.300781 56.992188 74.8125 L 76.332031 74.8125 L 76.332031 75.328125 C 77.089844 75.851562 77.75 76.179688 78.652344 76.355469 C 79.640625 76.421875 80.628906 76.417969 81.617188 76.421875 L 82.433594 76.4375 L 83.21875 76.441406 L 83.9375 76.449219 C 84.605469 76.402344 84.605469 76.402344 85.132812 75.964844 L 85.613281 75.585938 L 86.386719 75.585938 L 86.386719 75.070312 L 84.839844 75.070312 C 84.609375 74.082031 84.550781 73.167969 84.546875 72.152344 L 84.546875 69.042969 C 84.546875 68.289062 84.546875 67.535156 84.546875 66.78125 C 84.550781 65.8125 84.550781 64.847656 84.546875 63.878906 C 84.546875 63.132812 84.546875 62.390625 84.546875 61.648438 C 84.546875 61.289062 84.546875 60.933594 84.546875 60.578125 C 84.546875 60.078125 84.546875 59.582031 84.546875 59.082031 L 84.550781 58.226562 C 84.582031 57.554688 84.582031 57.554688 84.839844 57.042969 M 26.90625 4.710938 C 28.476562 5.398438 29.976562 6.234375 31.46875 7.078125 C 31.707031 7.207031 31.949219 7.339844 32.199219 7.476562 L 32.757812 7.847656 C 33.15625 9.078125 32.949219 10.203125 32.757812 11.457031 C 30.984375 10.972656 30.984375 10.972656 30.695312 10.683594 C 30.683594 10.167969 30.683594 9.652344 30.695312 9.136719 C 30.519531 9.070312 30.34375 9.003906 30.160156 8.933594 C 29.457031 8.644531 28.773438 8.320312 28.085938 7.988281 C 25.429688 6.703125 22.828125 5.769531 19.863281 5.53125 L 19.089844 5.273438 C 18.609375 5.25 18.125 5.242188 17.640625 5.242188 L 16.871094 5.238281 L 16.253906 5.273438 L 15.996094 5.53125 L 15.296875 5.523438 C 13.925781 5.535156 12.722656 6.027344 11.4375 6.464844 L 10.636719 6.722656 C 7.863281 7.609375 7.863281 7.609375 5.425781 9.136719 C 5.039062 9.988281 5.128906 10.789062 5.167969 11.710938 C 5.160156 12.0625 5.148438 12.414062 5.132812 12.761719 C 5.089844 13.777344 5.074219 14.792969 5.0625 15.808594 C 5.058594 16.230469 5.050781 16.65625 5.035156 17.078125 C 4.976562 19.222656 4.941406 21.070312 5.898438 23.039062 C 6.273438 23.695312 6.617188 24.234375 7.152344 24.769531 L 7.488281 25.105469 L 7.488281 25.621094 L 9.035156 26.394531 L 9.035156 26.90625 L 9.679688 27.101562 C 10.714844 27.472656 11.667969 27.9375 12.644531 28.4375 L 13.179688 28.707031 L 13.707031 28.976562 L 14.226562 29.234375 C 14.648438 29.457031 15.066406 29.683594 15.480469 29.917969 C 16.421875 30.328125 17.296875 30.527344 18.316406 30.511719 C 19.015625 30.34375 19.59375 30.171875 20.25 29.902344 L 20.78125 29.691406 C 23.554688 28.558594 26.15625 27.128906 28.375 25.105469 C 28.699219 24.945312 29.027344 24.789062 29.355469 24.636719 L 30.179688 24.074219 C 30.59375 23.0625 30.695312 22.070312 30.695312 20.984375 C 31.210938 20.972656 31.726562 20.972656 32.242188 20.984375 L 32.5 21.242188 C 32.59375 21.871094 32.59375 21.871094 32.5 22.789062 C 31.820312 24.519531 30.910156 26.066406 29.480469 27.28125 C 28.949219 27.691406 28.410156 28.074219 27.859375 28.453125 L 27.285156 28.871094 C 24.757812 30.605469 21.121094 32.613281 18.042969 32.90625 C 16.726562 32.808594 15.6875 32.386719 14.480469 31.882812 L 13.820312 31.617188 C 12.332031 31.007812 10.9375 30.292969 9.550781 29.484375 L 8.765625 29.027344 C 6.761719 27.785156 5.101562 26.464844 3.914062 24.398438 C 2.902344 22.402344 2.71875 20.375 2.691406 18.171875 L 2.675781 17.308594 C 2.667969 16.714844 2.664062 16.117188 2.660156 15.519531 C 2.652344 14.609375 2.628906 13.699219 2.605469 12.785156 C 2.601562 12.203125 2.597656 11.621094 2.59375 11.039062 L 2.5625 10.21875 C 2.570312 9.449219 2.601562 8.839844 2.847656 8.105469 C 3.539062 7.410156 4.289062 6.984375 5.167969 6.5625 L 5.867188 6.164062 C 12.589844 2.882812 19.792969 2.078125 26.90625 4.710938 M 60.921875 24.519531 C 61.632812 24.589844 61.632812 24.589844 62.535156 25.023438 C 63.222656 25.65625 63.625 26.035156 63.953125 26.90625 C 63.96875 28.25 63.683594 29.257812 63.179688 30.515625 L 80.457031 30.515625 L 79.941406 29.226562 C 79.835938 28.441406 79.847656 27.691406 79.941406 26.90625 C 80.28125 26.128906 80.59375 25.726562 81.230469 25.167969 C 82.003906 24.6875 82.714844 24.53125 83.613281 24.476562 C 84.34375 24.480469 84.75 24.539062 85.382812 24.90625 C 85.847656 25.296875 86.261719 25.667969 86.644531 26.136719 C 86.882812 26.84375 86.945312 27.300781 86.949219 28.035156 L 86.960938 28.621094 C 86.894531 29.324219 86.675781 29.871094 86.386719 30.515625 C 86.546875 30.511719 86.710938 30.507812 86.875 30.503906 C 87.605469 30.496094 88.332031 30.488281 89.0625 30.480469 L 89.832031 30.46875 L 90.566406 30.464844 L 91.246094 30.457031 L 91.800781 30.515625 L 92.316406 31.027344 C 92.238281 31.6875 92.238281 31.6875 92.058594 32.316406 L 91.800781 32.574219 C 91.289062 32.597656 90.777344 32.605469 90.265625 32.605469 L 89.253906 32.609375 L 88.132812 32.605469 L 86.957031 32.609375 C 85.894531 32.609375 84.828125 32.609375 83.765625 32.609375 C 82.652344 32.609375 81.542969 32.609375 80.429688 32.609375 C 78.566406 32.609375 76.699219 32.609375 74.832031 32.609375 C 72.671875 32.605469 70.507812 32.605469 68.347656 32.609375 C 66.496094 32.609375 64.644531 32.609375 62.789062 32.609375 C 61.683594 32.609375 60.574219 32.609375 59.46875 32.609375 C 58.425781 32.609375 57.386719 32.609375 56.34375 32.609375 C 55.960938 32.609375 55.578125 32.609375 55.195312 32.609375 C 54.671875 32.609375 54.152344 32.609375 53.632812 32.605469 L 52.746094 32.605469 L 52.09375 32.574219 L 51.835938 32.316406 C 51.824219 31.800781 51.824219 31.285156 51.835938 30.769531 C 52.441406 30.46875 52.800781 30.484375 53.472656 30.488281 L 54.140625 30.492188 L 54.832031 30.496094 L 55.535156 30.5 C 56.105469 30.503906 56.679688 30.507812 57.25 30.515625 L 56.867188 29.675781 C 56.636719 29.144531 56.480469 28.726562 56.402344 28.148438 C 56.5 27.355469 56.636719 26.800781 57.082031 26.128906 C 58.289062 24.683594 59.042969 24.5 60.921875 24.519531 M 56.992188 115.503906 C 57.886719 115.917969 58.707031 116.398438 59.550781 116.898438 C 60.335938 117.300781 60.859375 117.476562 61.730469 117.53125 C 62.988281 117.457031 63.980469 116.964844 65.082031 116.40625 C 66.59375 115.640625 67.828125 115.230469 69.558594 115.320312 C 70.722656 115.574219 71.699219 116.089844 72.730469 116.660156 C 73.601562 117.132812 74.289062 117.441406 75.285156 117.453125 C 76.757812 117.3125 77.945312 116.921875 79.183594 116.117188 C 80.210938 115.527344 81.0625 115.378906 82.246094 115.328125 C 83.203125 115.359375 83.90625 115.433594 84.78125 115.828125 C 85.203125 116.09375 85.617188 116.367188 86.027344 116.65625 C 87.011719 117.285156 88.09375 117.546875 89.222656 117.824219 C 89.230469 118.203125 89.234375 118.585938 89.238281 118.964844 L 89.25 119.609375 L 89.222656 120.140625 L 88.964844 120.398438 C 88.441406 120.421875 87.914062 120.429688 87.390625 120.429688 L 86.886719 120.433594 C 86.324219 120.433594 85.761719 120.433594 85.199219 120.429688 L 83.996094 120.433594 C 82.90625 120.433594 81.8125 120.433594 80.722656 120.433594 C 79.582031 120.433594 78.441406 120.433594 77.300781 120.433594 C 75.386719 120.433594 73.46875 120.433594 71.554688 120.429688 C 69.335938 120.429688 67.121094 120.429688 64.902344 120.433594 C 63 120.433594 61.101562 120.433594 59.199219 120.433594 C 58.0625 120.433594 56.925781 120.433594 55.789062 120.433594 C 54.722656 120.433594 53.652344 120.433594 52.585938 120.429688 C 52.191406 120.429688 51.800781 120.433594 51.40625 120.433594 C 50.871094 120.433594 50.335938 120.433594 49.800781 120.429688 L 48.894531 120.429688 L 48.226562 120.398438 L 47.96875 120.140625 C 47.898438 118.664062 47.898438 118.664062 47.96875 118.078125 C 48.570312 117.480469 49.007812 117.351562 49.804688 117.082031 C 50.707031 116.773438 51.492188 116.449219 52.304688 115.957031 C 53.78125 115.203125 55.386719 115.238281 56.992188 115.503906 " fill-opacity="1" fill-rule="nonzero"/></g><g clip-path="url(#b32740486a)"><path fill="#193049" d="M -34.023438 24.332031 C -33.234375 24.296875 -32.453125 24.277344 -31.664062 24.269531 L -30.945312 24.265625 C -30.441406 24.261719 -29.9375 24.257812 -29.433594 24.257812 C -28.664062 24.253906 -27.894531 24.242188 -27.121094 24.230469 C -26.632812 24.226562 -26.144531 24.226562 -25.65625 24.222656 L -24.957031 24.210938 C -24.351562 24.210938 -23.789062 24.222656 -23.195312 24.332031 C -22.609375 24.84375 -22.609375 24.84375 -22.164062 25.363281 C -21.5 25.539062 -21.5 25.539062 -20.808594 25.554688 L -20.113281 25.601562 L -19.585938 25.621094 C -19.46875 26.503906 -19.363281 27.390625 -19.261719 28.277344 L -19.160156 29.039062 L -19.082031 29.769531 L -19 30.445312 L -19.070312 31.027344 C -19.539062 31.496094 -19.921875 31.746094 -20.554688 31.949219 C -21.28125 32.085938 -21.96875 32.097656 -22.707031 32.105469 L -23.671875 32.113281 C -24.019531 32.117188 -24.367188 32.117188 -24.714844 32.121094 L -25.246094 32.125 C -26.175781 32.128906 -27.105469 32.132812 -28.035156 32.136719 C -28.992188 32.136719 -29.949219 32.148438 -30.90625 32.15625 C -31.644531 32.164062 -32.382812 32.164062 -33.125 32.167969 C -33.476562 32.167969 -33.828125 32.171875 -34.179688 32.175781 C -37.273438 32.214844 -37.273438 32.214844 -38.640625 31.535156 C -38.902344 31.371094 -39.167969 31.203125 -39.4375 31.027344 L -39.4375 30.769531 L -37.632812 30.769531 L -37.632812 25.621094 L -36.085938 25.621094 L -36.085938 26.90625 L -34.539062 26.90625 C -34.515625 26.660156 -34.515625 26.660156 -34.492188 26.410156 L -34.425781 25.765625 C -34.40625 25.554688 -34.382812 25.339844 -34.363281 25.121094 L -34.28125 24.589844 Z M 56.21875 109.066406 C 57.332031 109.46875 58.257812 110.066406 59.183594 110.789062 C 59.835938 111.257812 60.234375 111.429688 61.039062 111.671875 C 62.304688 111.765625 63.363281 111.226562 64.5 110.71875 C 65.117188 110.414062 65.710938 110.09375 66.308594 109.757812 C 67.292969 109.257812 68.160156 109.191406 69.253906 109.242188 C 70.878906 109.453125 72.125 110.144531 73.429688 111.105469 C 74.296875 111.519531 75.121094 111.683594 76.074219 111.640625 C 76.832031 111.40625 77.496094 111.050781 78.183594 110.660156 C 78.535156 110.46875 78.890625 110.28125 79.242188 110.089844 L 79.742188 109.820312 C 80.496094 109.425781 81.179688 109.097656 82.03125 109.007812 C 82.964844 109.082031 83.628906 109.210938 84.433594 109.714844 C 84.859375 110.035156 85.28125 110.359375 85.707031 110.683594 C 86.792969 111.390625 87.964844 111.648438 89.222656 111.898438 C 89.230469 112.28125 89.234375 112.660156 89.238281 113.042969 L 89.25 113.683594 L 89.222656 114.214844 L 88.964844 114.472656 C 87.898438 114.589844 87.195312 114.59375 86.191406 114.1875 C 85.558594 113.871094 84.9375 113.535156 84.324219 113.1875 L 84.324219 112.671875 C 83.261719 112.414062 82.320312 112.304688 81.230469 112.414062 C 80.554688 112.695312 79.921875 113.019531 79.277344 113.371094 C 78.242188 113.917969 77.238281 114.3125 76.074219 114.472656 L 75.1875 114.601562 C 73.476562 114.601562 71.863281 113.476562 70.402344 112.671875 L 70.402344 112.15625 C 69.101562 112.0625 68.109375 112.019531 66.917969 112.589844 C 66.617188 112.785156 66.316406 112.984375 66.015625 113.1875 C 65.183594 113.742188 64.398438 114.175781 63.4375 114.472656 C 61.773438 114.5625 60.210938 114.507812 58.679688 113.8125 L 58.023438 113.445312 L 58.023438 112.929688 L 56.734375 112.671875 L 56.734375 112.15625 C 55.878906 112.058594 55.257812 112.015625 54.414062 112.15625 C 53.652344 112.558594 52.96875 113.011719 52.269531 113.515625 C 51.53125 113.992188 50.882812 114.253906 50.03125 114.472656 C 49.046875 114.394531 49.046875 114.394531 48.226562 114.214844 L 47.96875 113.960938 C 47.933594 113.269531 47.957031 112.589844 47.96875 111.898438 L 48.621094 111.726562 C 50.335938 111.246094 51.742188 110.71875 53.175781 109.648438 C 54.152344 108.964844 55.0625 108.972656 56.21875 109.066406 " fill-opacity="1" fill-rule="nonzero"/></g><path fill="#1a314a" d="M 18.011719 7.027344 L 18.699219 7.027344 C 20.265625 7.039062 21.695312 7.1875 23.214844 7.59375 L 23.214844 8.363281 L 22.523438 8.671875 C 21.636719 9.152344 21.078125 9.707031 20.378906 10.425781 L 19.863281 10.425781 L 19.863281 10.941406 L 19.421875 11.035156 C 18.5 11.28125 17.757812 11.535156 17.015625 12.148438 C 16.222656 13.011719 15.714844 13.710938 15.433594 14.851562 C 15.261719 15.367188 15.261719 15.367188 14.964844 15.832031 C 14 16.4375 12.949219 16.761719 11.871094 17.121094 C 11.484375 17.261719 11.097656 17.402344 10.710938 17.542969 C 7.617188 18.667969 7.617188 18.667969 6.972656 18.667969 C 6.417969 17.5625 6.644531 16.097656 6.640625 14.867188 C 6.632812 14.324219 6.625 13.78125 6.613281 13.238281 C 6.609375 12.890625 6.605469 12.542969 6.605469 12.199219 L 6.59375 11.242188 L 6.714844 10.425781 C 7.605469 9.304688 8.699219 8.925781 10.007812 8.40625 C 12.65625 7.453125 15.199219 7.027344 18.011719 7.027344 " fill-opacity="1" fill-rule="nonzero"/><path fill="#cf1b15" d="M 26.09375 9.8125 C 26.824219 9.910156 26.824219 9.910156 27.710938 10.328125 C 28.453125 11.011719 29.0625 11.675781 29.664062 12.484375 L 29.664062 13 L 30.339844 12.9375 C 31.210938 13 31.210938 13 32.046875 13.402344 C 32.757812 14.03125 32.757812 14.03125 33.160156 14.882812 C 33.273438 15.832031 33.273438 15.832031 33 16.800781 C 32.5 17.636719 32.5 17.636719 31.839844 18.121094 L 31.210938 18.410156 L 30.695312 18.667969 C 30.34375 18.691406 29.988281 18.703125 29.636719 18.703125 L 28.976562 18.710938 L 27.527344 18.710938 C 27.015625 18.714844 26.503906 18.714844 25.988281 18.714844 C 25.203125 18.714844 24.421875 18.71875 23.636719 18.722656 C 23.136719 18.726562 22.636719 18.726562 22.140625 18.726562 L 21.429688 18.730469 C 20.277344 18.726562 19.363281 18.699219 18.316406 18.152344 L 18.316406 17.636719 L 17.542969 17.378906 C 17.265625 16.628906 17.089844 16.097656 17.027344 15.320312 C 17.269531 14.480469 17.269531 14.480469 17.800781 13.773438 C 18.367188 13.328125 18.9375 13.003906 19.605469 12.742188 L 20.429688 12.644531 L 21.152344 12.484375 C 21.511719 11.980469 21.855469 11.464844 22.183594 10.941406 C 23.386719 9.800781 24.503906 9.753906 26.09375 9.8125 " fill-opacity="1" fill-rule="nonzero"/><path fill="#1a314a" d="M 15.28125 17.75 L 15.738281 17.894531 L 15.738281 18.410156 L 16.511719 18.667969 C 16.988281 19.148438 17.382812 19.679688 17.800781 20.210938 C 17.625 20.6875 17.625 20.6875 17.285156 21.242188 C 16.714844 21.570312 16.714844 21.570312 15.980469 21.855469 L 15.148438 22.175781 L 14.191406 22.53125 L 13.636719 22.738281 C 13.054688 22.957031 12.472656 23.171875 11.886719 23.382812 L 11.324219 23.589844 C 10.585938 23.855469 9.863281 24.066406 9.085938 24.195312 L 8.519531 24.074219 C 8.054688 23.546875 8.054688 23.546875 7.664062 22.851562 L 7.265625 22.164062 C 6.972656 21.5 6.972656 21.5 6.972656 20.46875 C 8.085938 20.03125 9.203125 19.605469 10.324219 19.179688 L 10.898438 18.964844 C 11.484375 18.746094 12.070312 18.527344 12.660156 18.3125 L 13.226562 18.097656 C 14.578125 17.609375 14.578125 17.609375 15.28125 17.75 " fill-opacity="1" fill-rule="nonzero"/><path fill="#192f49" d="M 17.0625 23.382812 C 17.542969 23.558594 17.542969 23.558594 18.011719 24.074219 C 18.5625 24.664062 18.5625 24.664062 19.460938 24.800781 C 20.273438 24.84375 20.890625 24.800781 21.667969 24.589844 L 21.925781 25.363281 L 24.503906 25.878906 L 24.503906 26.394531 C 21.988281 27.625 19.675781 28.566406 16.832031 28.375 C 14.6875 28.105469 12.621094 27.0625 10.839844 25.878906 L 10.839844 25.363281 C 11.957031 24.925781 13.074219 24.5 14.191406 24.074219 L 14.894531 23.808594 L 15.496094 23.59375 L 16.023438 23.402344 C 16.511719 23.300781 16.511719 23.300781 17.0625 23.382812 " fill-opacity="1" fill-rule="nonzero"/><path fill="#0c2240" d="M 18.011719 7.027344 L 18.699219 7.027344 C 20.265625 7.039062 21.695312 7.1875 23.214844 7.59375 L 23.214844 8.363281 L 22.523438 8.671875 C 21.636719 9.152344 21.078125 9.707031 20.378906 10.425781 L 19.863281 10.425781 L 19.863281 10.941406 L 19.421875 11.035156 C 18.5 11.28125 17.757812 11.535156 17.015625 12.148438 C 16.222656 13.011719 15.714844 13.710938 15.433594 14.851562 C 15.261719 15.367188 15.261719 15.367188 14.964844 15.832031 C 14 16.4375 12.949219 16.761719 11.871094 17.121094 C 11.484375 17.261719 11.097656 17.402344 10.710938 17.542969 C 7.617188 18.667969 7.617188 18.667969 6.972656 18.667969 C 6.417969 17.5625 6.644531 16.097656 6.640625 14.867188 C 6.632812 14.324219 6.625 13.78125 6.613281 13.238281 C 6.609375 12.890625 6.605469 12.542969 6.605469 12.199219 L 6.59375 11.242188 L 6.714844 10.425781 C 7.605469 9.304688 8.699219 8.925781 10.007812 8.40625 C 12.65625 7.453125 15.199219 7.027344 18.011719 7.027344 M 9.808594 9.136719 L 9.269531 9.339844 C 8.722656 9.535156 8.722656 9.535156 8.003906 9.910156 C 7.523438 10.519531 7.480469 10.984375 7.351562 11.753906 C 7.230469 12.753906 7.179688 13.730469 7.164062 14.738281 L 7.144531 15.75 C 7.160156 16.585938 7.160156 16.585938 7.566406 17.109375 L 8.003906 17.378906 C 9.886719 17.378906 11.761719 16.699219 13.417969 15.832031 C 14 15.1875 14 15.1875 14.449219 14.546875 L 14.964844 14.289062 L 15.320312 13.433594 C 15.558594 12.863281 15.777344 12.429688 16.140625 11.921875 C 16.957031 11.316406 17.8125 11.035156 18.769531 10.714844 C 19.375 10.46875 19.375 10.46875 19.683594 9.941406 C 19.917969 9.328125 19.917969 9.328125 19.863281 8.363281 L 20.378906 8.105469 C 19.925781 7.976562 19.46875 7.847656 19.011719 7.722656 L 18.238281 7.503906 C 15.636719 6.871094 12.164062 8.046875 9.808594 9.136719 " fill-opacity="1" fill-rule="nonzero"/><g clip-path="url(#6a20b58b11)"><path fill="#0c2240" d="M 139.5 30 C 140.101562 29.988281 140.703125 29.988281 141.304688 30 L 141.5625 30.257812 C 141.574219 30.855469 141.574219 31.457031 141.5625 32.058594 C 140.882812 32.398438 140.371094 32.351562 139.609375 32.351562 L 138.683594 32.355469 L 136.589844 32.355469 C 135.617188 32.359375 134.644531 32.359375 133.671875 32.359375 C 132.859375 32.359375 132.050781 32.359375 131.238281 32.363281 C 129.328125 32.363281 127.417969 32.363281 125.503906 32.363281 C 123.53125 32.363281 121.554688 32.367188 119.582031 32.371094 C 117.886719 32.375 116.195312 32.375 114.5 32.375 C 113.488281 32.375 112.476562 32.375 111.464844 32.378906 C 110.511719 32.382812 109.5625 32.382812 108.609375 32.378906 C 108.09375 32.378906 107.574219 32.382812 107.058594 32.382812 L 106.132812 32.378906 L 105.324219 32.378906 L 104.691406 32.316406 L 104.175781 31.800781 C 104.144531 30.996094 104.144531 30.996094 104.175781 30.257812 L 104.691406 30.769531 L 104.691406 31.542969 L 140.53125 31.285156 L 140.789062 30.257812 L 139.5 30.257812 Z M -40.210938 137.136719 C -39.78125 137.128906 -39.351562 137.128906 -38.921875 137.136719 L -38.921875 137.910156 L -38.40625 137.910156 L -38.359375 138.4375 L -38.292969 139.132812 C -38.273438 139.363281 -38.253906 139.589844 -38.230469 139.824219 C -38.160156 140.394531 -38.046875 140.960938 -37.890625 141.515625 L -37.359375 141.582031 C -36.375 141.832031 -35.664062 142.277344 -34.796875 142.804688 C -35.152344 143.191406 -35.152344 143.191406 -35.570312 143.578125 L -36.085938 143.578125 L -35.570312 144.605469 C -36.484375 144.339844 -37.199219 144.042969 -37.972656 143.496094 C -38.414062 143.207031 -38.414062 143.207031 -38.921875 143.0625 C -40.097656 143.234375 -41.035156 143.695312 -42.015625 144.351562 C -42.546875 144.285156 -42.546875 144.285156 -43.046875 144.09375 L -43.5625 143.578125 C -43.515625 143.0625 -43.515625 143.0625 -43.304688 142.546875 L -42.53125 142.03125 L -41.757812 142.03125 L -41.757812 141.257812 L -42.5 141.082031 L -43.304688 140.742188 C -43.660156 140.066406 -43.660156 140.066406 -43.820312 139.457031 L -43.304688 138.941406 C -42.230469 139.019531 -41.414062 139.207031 -40.46875 139.714844 L -40.480469 139.214844 L -40.484375 138.570312 L -40.496094 137.929688 L -40.46875 137.394531 Z M -27.578125 137.136719 C -26.933594 137.105469 -26.933594 137.105469 -26.289062 137.136719 L -26.03125 137.394531 C -26.011719 137.789062 -26.007812 138.179688 -26.015625 138.570312 L -26.023438 139.214844 L -26.03125 139.714844 L -25.617188 139.480469 L -25.0625 139.183594 L -24.519531 138.882812 C -23.96875 138.683594 -23.96875 138.683594 -23.382812 138.78125 L -22.9375 138.941406 L -22.679688 140.230469 C -24.039062 141.035156 -24.039062 141.035156 -24.484375 141.257812 L -25 141.257812 L -25 141.773438 L -24.402344 142 C -23.710938 142.289062 -23.710938 142.289062 -22.9375 142.804688 C -23 143.289062 -23 143.289062 -23.195312 143.835938 C -23.640625 144.164062 -23.640625 144.164062 -24.226562 144.351562 C -24.855469 144.109375 -24.855469 144.109375 -25.515625 143.722656 C -26.15625 143.332031 -26.15625 143.332031 -26.804688 143.0625 C -27.761719 143.136719 -28.601562 143.675781 -29.445312 144.109375 L -30.289062 144.535156 L -30.929688 144.863281 L -31.445312 144.351562 L -30.671875 143.578125 L -31.1875 142.546875 L -30.652344 142.335938 C -29.851562 141.953125 -29.257812 141.605469 -28.609375 141 C -28.167969 139.816406 -28.003906 138.644531 -27.835938 137.394531 Z M 89.738281 30.515625 C 90.222656 30.445312 90.222656 30.445312 90.769531 30.449219 L 91.316406 30.445312 L 91.800781 30.515625 L 92.316406 31.027344 C 92.238281 31.6875 92.238281 31.6875 92.058594 32.316406 L 91.800781 32.574219 C 91.289062 32.597656 90.777344 32.605469 90.265625 32.605469 L 89.253906 32.609375 L 88.132812 32.605469 L 86.957031 32.609375 C 85.894531 32.609375 84.828125 32.609375 83.765625 32.609375 C 82.652344 32.609375 81.542969 32.609375 80.429688 32.609375 C 78.566406 32.609375 76.699219 32.609375 74.832031 32.609375 C 72.671875 32.605469 70.507812 32.605469 68.347656 32.609375 C 66.496094 32.609375 64.644531 32.609375 62.789062 32.609375 C 61.683594 32.609375 60.574219 32.609375 59.46875 32.609375 C 58.425781 32.609375 57.386719 32.609375 56.34375 32.609375 C 55.960938 32.609375 55.578125 32.609375 55.195312 32.609375 C 54.671875 32.609375 54.152344 32.609375 53.632812 32.605469 L 52.746094 32.605469 L 52.09375 32.574219 L 51.835938 32.316406 C 51.824219 31.800781 51.824219 31.285156 51.835938 30.769531 C 52.589844 31.046875 53.066406 31.230469 53.640625 31.800781 C 54.246094 31.878906 54.246094 31.878906 54.953125 31.863281 L 55.796875 31.867188 L 56.726562 31.863281 L 57.703125 31.867188 C 58.589844 31.867188 59.472656 31.863281 60.359375 31.863281 C 61.289062 31.859375 62.214844 31.859375 63.144531 31.859375 C 64.707031 31.859375 66.269531 31.859375 67.832031 31.855469 C 69.628906 31.851562 71.429688 31.847656 73.230469 31.847656 C 75.148438 31.847656 77.070312 31.847656 78.992188 31.84375 C 79.539062 31.84375 80.089844 31.84375 80.640625 31.84375 C 81.675781 31.84375 82.707031 31.84375 83.738281 31.839844 L 84.652344 31.839844 C 86.53125 31.832031 88.382812 31.730469 90.253906 31.542969 L 89.222656 31.027344 Z M 89.738281 30.515625 " fill-opacity="1" fill-rule="nonzero"/></g><g clip-path="url(#c029d4d9df)"><path fill="#fefefe" d="M 61.632812 13.773438 C 62 13.753906 62.363281 13.742188 62.730469 13.746094 L 63.398438 13.75 L 64.101562 13.757812 L 64.804688 13.761719 C 65.378906 13.761719 65.957031 13.769531 66.53125 13.773438 C 66.539062 14.496094 66.546875 15.222656 66.550781 15.945312 L 66.554688 16.574219 C 66.558594 17.097656 66.546875 17.625 66.53125 18.152344 L 66.273438 18.410156 C 65.257812 18.472656 64.234375 18.457031 63.214844 18.457031 L 62.34375 18.46875 L 61.507812 18.46875 L 60.738281 18.472656 C 60.085938 18.410156 60.085938 18.410156 59.3125 17.894531 C 59.457031 16.800781 59.824219 16.140625 60.472656 15.253906 L 60.964844 14.574219 C 61.375 14.03125 61.375 14.03125 61.632812 13.773438 M -35.570312 22.789062 C -35.136719 22.765625 -34.699219 22.753906 -34.261719 22.757812 L -33.417969 22.757812 L -32.5 22.761719 L -31.5625 22.761719 C -30.574219 22.765625 -29.582031 22.769531 -28.59375 22.769531 C -27.921875 22.773438 -27.253906 22.773438 -26.582031 22.773438 C -24.9375 22.777344 -23.292969 22.78125 -21.648438 22.789062 L -21.648438 25.621094 L -22.9375 25.105469 L -23.195312 24.332031 L -34.023438 24.589844 L -34.539062 26.90625 L -36.085938 26.90625 C -36.109375 25.585938 -36.070312 24.351562 -35.828125 23.042969 Z M -35.570312 22.789062 " fill-opacity="1" fill-rule="nonzero"/></g><g clip-path="url(#0593d35db2)"><path fill="#fefefe" d="M 168.636719 12.484375 L 169.152344 13.773438 C 168.75 14.226562 168.4375 14.519531 167.878906 14.761719 L 166.816406 15.101562 C 166.234375 15.355469 165.9375 15.59375 165.542969 16.089844 C 165.324219 16.679688 165.171875 17.269531 165.011719 17.878906 C 164.933594 18.054688 164.851562 18.230469 164.769531 18.410156 C 164.226562 18.738281 164.226562 18.738281 163.738281 18.925781 L 162.707031 18.152344 C 162.824219 16.78125 162.949219 15.710938 163.738281 14.546875 C 165.242188 13.183594 166.570312 12.390625 168.636719 12.484375 M -28.867188 2.28125 C -27.890625 2.332031 -27.121094 2.445312 -26.257812 2.90625 C -25.515625 3.472656 -25.515625 3.472656 -25 4.242188 L -25 5.273438 L -32.734375 5.273438 C -32.242188 4.046875 -31.976562 3.539062 -30.996094 2.742188 C -30.261719 2.359375 -29.695312 2.308594 -28.867188 2.28125 " fill-opacity="1" fill-rule="nonzero"/></g><g clip-path="url(#bcd882035e)"><path fill="#0c2240" d="M 9.808594 149.5 C 10.875 150.316406 10.875 150.316406 11.355469 150.789062 C 11.582031 151.382812 11.582031 151.382812 11.613281 151.820312 L 12.128906 151.820312 L 12.128906 152.332031 L 12.902344 152.589844 C 13.253906 153.015625 13.597656 153.445312 13.933594 153.878906 C 16.777344 156.964844 20.640625 159.371094 24.570312 160.785156 C 25.828125 161.128906 27.109375 161.148438 28.40625 161.171875 L 28.929688 161.183594 C 30.234375 161.183594 31.089844 160.878906 32.242188 160.316406 L 32.835938 160.078125 L 33.273438 159.800781 C 33.449219 159.460938 33.621094 159.117188 33.789062 158.773438 C 34.003906 158.4375 34.226562 158.105469 34.449219 157.773438 C 35 156.910156 35.257812 156.203125 35.335938 155.167969 L 35.59375 155.683594 L 36.109375 155.683594 C 35.980469 156.902344 35.667969 157.648438 34.949219 158.644531 C 33.960938 159.945312 32.917969 160.855469 31.46875 161.605469 C 29.683594 162.199219 27.363281 162.09375 25.515625 161.769531 C 20.5625 160.574219 16.65625 157.210938 13.050781 153.804688 C 11.855469 152.640625 10.683594 151.445312 9.808594 150.015625 Z M 15.28125 17.75 L 15.738281 17.894531 L 15.738281 18.410156 L 16.511719 18.667969 C 16.988281 19.148438 17.382812 19.679688 17.800781 20.210938 C 17.625 20.6875 17.625 20.6875 17.285156 21.242188 C 16.714844 21.570312 16.714844 21.570312 15.980469 21.855469 L 15.148438 22.175781 L 14.191406 22.53125 L 13.636719 22.738281 C 13.054688 22.957031 12.472656 23.171875 11.886719 23.382812 L 11.324219 23.589844 C 10.585938 23.855469 9.863281 24.066406 9.085938 24.195312 L 8.519531 24.074219 C 8.054688 23.546875 8.054688 23.546875 7.664062 22.851562 L 7.265625 22.164062 C 6.972656 21.5 6.972656 21.5 6.972656 20.46875 C 8.085938 20.03125 9.203125 19.605469 10.324219 19.179688 L 10.898438 18.964844 C 11.484375 18.746094 12.070312 18.527344 12.660156 18.3125 L 13.226562 18.097656 C 14.578125 17.609375 14.578125 17.609375 15.28125 17.75 M 10.597656 19.566406 L 9.914062 19.828125 C 9.363281 20.039062 8.8125 20.253906 8.261719 20.46875 C 8.085938 21.339844 8.085938 21.339844 8.003906 22.273438 C 8.5 22.960938 8.5 22.960938 9.292969 23.300781 C 10.554688 23.183594 11.734375 22.796875 12.933594 22.417969 L 13.484375 22.246094 C 14.792969 21.859375 14.792969 21.859375 15.996094 21.242188 C 16.207031 20.453125 16.207031 20.453125 16.253906 19.695312 C 15.714844 19.144531 15.714844 19.144531 14.964844 18.667969 C 13.339844 18.484375 12.082031 18.984375 10.597656 19.566406 " fill-opacity="1" fill-rule="nonzero"/></g><g clip-path="url(#9cf2ca7869)"><path fill="#0c2240" d="M 79.167969 16.089844 C 79.898438 16.339844 80.398438 16.550781 80.960938 17.09375 C 82.113281 17.890625 83.339844 18.101562 84.695312 18.410156 C 85.25 18.542969 85.808594 18.675781 86.367188 18.808594 L 87.183594 19 C 88.140625 19.230469 89.09375 19.480469 90.042969 19.746094 L 90.84375 19.964844 C 91.589844 20.226562 92.191406 20.527344 92.832031 20.984375 C 93.042969 21.675781 93.042969 21.675781 93.089844 22.273438 L 92.460938 22.144531 C 91.871094 22.007812 91.871094 22.007812 91.542969 22.015625 L 91.285156 22.53125 L 91.027344 22.273438 C 90.160156 22.199219 89.292969 22.15625 88.425781 22.113281 L 87.675781 22.015625 L 87.417969 21.5 L 88.449219 21.242188 L 88.449219 20.726562 L 87.933594 20.46875 L 87.675781 19.953125 C 87.144531 19.757812 86.609375 19.582031 86.0625 19.421875 L 85.175781 19.15625 C 84.460938 18.960938 83.757812 18.808594 83.035156 18.667969 C 81.605469 18.277344 80.589844 17.671875 79.488281 16.683594 L 79.167969 16.347656 Z M 47.710938 14.289062 C 48.226562 14.265625 48.742188 14.261719 49.257812 14.261719 L 50.207031 14.265625 L 51.207031 14.273438 L 52.210938 14.277344 C 53.03125 14.277344 53.851562 14.28125 54.671875 14.289062 L 54.671875 16.089844 L 47.710938 16.089844 L 47.453125 14.546875 Z M -11.332031 102.371094 C -10.785156 102.355469 -10.238281 102.34375 -9.691406 102.335938 L -8.765625 102.320312 L -7.980469 102.371094 L -7.464844 102.882812 C -7.417969 103.515625 -7.398438 104.152344 -7.40625 104.785156 L -7.40625 105.351562 C -7.40625 105.75 -7.410156 106.144531 -7.414062 106.539062 C -7.417969 107.148438 -7.417969 107.757812 -7.417969 108.363281 C -7.417969 108.75 -7.421875 109.132812 -7.421875 109.515625 L -7.421875 110.070312 C -7.429688 110.507812 -7.445312 110.945312 -7.464844 111.382812 L -7.722656 111.640625 C -8.375 111.703125 -9.019531 111.75 -9.675781 111.785156 L -10.230469 111.820312 C -10.683594 111.847656 -11.136719 111.875 -11.589844 111.898438 L -11.847656 111.125 C -10.886719 110.976562 -9.988281 110.867188 -9.011719 110.867188 C -8.277344 106.988281 -8.277344 106.988281 -8.753906 103.140625 L -11.332031 102.628906 Z M -29.640625 141.773438 C -29.027344 141.984375 -29.027344 141.984375 -28.609375 142.289062 L -28.609375 142.546875 L -27.910156 142.367188 L -26.996094 142.144531 L -26.089844 141.917969 C -25.257812 141.773438 -25.257812 141.773438 -24.675781 141.855469 C -24.050781 142.101562 -23.503906 142.441406 -22.9375 142.804688 C -23 143.289062 -23 143.289062 -23.195312 143.835938 C -23.640625 144.164062 -23.640625 144.164062 -24.226562 144.351562 C -24.855469 144.109375 -24.855469 144.109375 -25.515625 143.722656 C -26.15625 143.332031 -26.15625 143.332031 -26.804688 143.0625 C -27.761719 143.136719 -28.601562 143.675781 -29.445312 144.109375 L -30.289062 144.535156 L -30.929688 144.863281 L -31.445312 144.351562 L -30.671875 143.578125 L -31.1875 142.546875 C -30.476562 142.128906 -30.476562 142.128906 -29.640625 141.773438 " fill-opacity="1" fill-rule="nonzero"/></g><path fill="#0c2240" d="M 30.695312 20.984375 C 31.210938 20.972656 31.726562 20.972656 32.242188 20.984375 L 32.5 21.242188 C 32.625 22.058594 32.546875 22.664062 32.246094 23.433594 C 31.402344 25.203125 31.402344 25.203125 30.648438 25.828125 L 30.179688 26.136719 C 30.179688 25.363281 30.179688 25.363281 30.433594 24.90625 C 30.789062 24.117188 30.742188 23.457031 30.726562 22.59375 L 30.710938 21.679688 Z M 30.695312 20.984375 " fill-opacity="1" fill-rule="nonzero"/><g clip-path="url(#efcd8c75db)"><path fill="#0c2240" d="M 87.160156 117.308594 L 89.222656 117.824219 C 89.230469 118.203125 89.234375 118.585938 89.238281 118.964844 L 89.25 119.609375 L 89.222656 120.140625 L 88.964844 120.398438 C 88.582031 120.417969 88.195312 120.425781 87.8125 120.421875 L 87.109375 120.421875 L 86.371094 120.414062 L 85.628906 120.410156 C 85.023438 120.40625 84.414062 120.402344 83.808594 120.398438 L 83.550781 119.882812 L 87.933594 119.625 L 88.191406 118.078125 L 87.160156 117.566406 Z M -12.625 145.636719 C -12.007812 145.5625 -12.007812 145.5625 -11.300781 145.589844 L -10.589844 145.609375 L -10.042969 145.636719 L -9.785156 147.441406 C -10.882812 147.738281 -11.769531 147.636719 -12.882812 147.441406 C -13.042969 146.972656 -13.042969 146.972656 -13.140625 146.410156 Z M -12.625 138.425781 C -11.953125 138.351562 -11.953125 138.351562 -11.171875 138.378906 L -10.390625 138.398438 L -9.785156 138.425781 L -9.785156 140.230469 L -12.882812 140.230469 L -13.140625 139.199219 Z M 11.355469 116.019531 L 13.675781 117.308594 L 13.675781 117.824219 C 16.476562 118.828125 19.246094 119.027344 22.183594 118.59375 L 21.925781 119.109375 C 20.238281 119.652344 18.644531 119.859375 16.894531 119.488281 C 14.78125 118.894531 12.957031 118.054688 11.355469 116.535156 Z M 46.164062 23.558594 C 46.589844 23.535156 47.011719 23.523438 47.4375 23.527344 L 48.136719 23.527344 C 48.742188 23.558594 48.742188 23.558594 49.257812 23.816406 C 49.269531 24.246094 49.269531 24.675781 49.257812 25.105469 L 49 25.363281 C 48.578125 25.386719 48.152344 25.394531 47.726562 25.394531 L 47.027344 25.398438 C 46.421875 25.363281 46.421875 25.363281 45.90625 25.105469 C 45.894531 24.675781 45.894531 24.246094 45.90625 23.816406 Z M 46.164062 23.558594 " fill-opacity="1" fill-rule="nonzero"/></g><path fill="#d60401" d="M 23.988281 20.210938 L 24.503906 20.210938 C 24.957031 21.367188 25.117188 22.320312 25.019531 23.558594 L 24.503906 24.074219 C 23.828125 23.976562 23.828125 23.976562 23.214844 23.816406 L 22.957031 23.042969 C 23.09375 22.414062 23.09375 22.414062 23.3125 21.726562 L 23.527344 21.03125 C 23.730469 20.46875 23.730469 20.46875 23.988281 20.210938 " fill-opacity="1" fill-rule="nonzero"/><g clip-path="url(#5aec106855)"><path fill="#0c2240" d="M 56.992188 158.257812 L 57.507812 158.515625 L 57.105469 158.933594 C 56.671875 159.535156 56.671875 159.535156 56.71875 160.316406 C 56.9375 161.132812 56.9375 161.132812 57.621094 161.652344 C 58.589844 162.144531 59.507812 162.429688 60.558594 162.683594 L 61.117188 162.894531 L 61.632812 163.664062 C 59.789062 163.507812 58.3125 162.863281 56.734375 161.910156 C 56.21875 161.347656 56.21875 161.347656 55.945312 160.460938 L 55.960938 159.546875 C 56.460938 158.789062 56.460938 158.789062 56.992188 158.257812 M 60.085938 14.546875 L 60.859375 14.546875 C 60.597656 15.25 60.324219 15.867188 59.925781 16.507812 L 59.570312 17.121094 L 59.570312 17.894531 C 60.25 18.230469 60.789062 18.207031 61.546875 18.234375 L 62.425781 18.265625 L 63.34375 18.296875 L 64.265625 18.328125 C 65.023438 18.355469 65.777344 18.382812 66.53125 18.410156 L 66.53125 18.667969 C 65.4375 18.679688 64.339844 18.691406 63.246094 18.699219 L 62.304688 18.710938 L 61.394531 18.714844 L 60.5625 18.726562 C 59.835938 18.667969 59.414062 18.527344 58.796875 18.152344 C 58.878906 16.964844 58.972656 16.25 59.539062 15.191406 Z M 128.414062 153.105469 L 129.1875 153.105469 C 129.132812 153.664062 129.132812 153.664062 128.929688 154.394531 C 128.402344 155.09375 128.402344 155.09375 127.738281 155.777344 L 127.082031 156.476562 C 126.839844 156.640625 126.601562 156.800781 126.351562 156.96875 C 125.417969 156.957031 125.417969 156.957031 124.546875 156.710938 C 123.933594 156.34375 123.523438 155.921875 123 155.425781 C 123.773438 155.425781 123.773438 155.425781 124.53125 155.84375 L 125.320312 156.195312 C 125.871094 156.09375 125.871094 156.09375 126.351562 155.683594 L 127.15625 155.085938 C 127.921875 154.453125 127.921875 154.453125 128.253906 153.667969 Z M 118.875 138.683594 C 120.441406 139.148438 121.707031 139.875 122.902344 140.984375 C 123.546875 141.675781 123.765625 142.003906 124.03125 142.933594 L 124.03125 143.578125 L 123.597656 143.03125 L 123 142.289062 L 122.402344 141.5 C 121.535156 140.550781 120.675781 139.96875 119.433594 139.558594 C 118.703125 139.425781 118.003906 139.433594 117.261719 139.441406 L 116.421875 139.449219 L 115.78125 139.457031 L 115.523438 138.941406 C 116.660156 138.5625 117.683594 138.542969 118.875 138.683594 M 115.007812 158.515625 L 115.265625 159.03125 C 115.964844 159.109375 116.640625 159.160156 117.34375 159.191406 L 117.9375 159.222656 C 118.421875 159.246094 118.90625 159.265625 119.390625 159.289062 L 119.648438 158.515625 L 120.421875 158.773438 L 120.421875 159.800781 C 118.671875 160.113281 116.710938 160.371094 115.007812 159.800781 Z M 133.3125 70.175781 L 133.828125 70.175781 C 133.691406 71.546875 133.277344 72.632812 132.539062 73.78125 C 131.578125 74.953125 130.605469 75.769531 129.1875 76.355469 L 129.1875 75.585938 C 129.59375 75.234375 129.59375 75.234375 130.136719 74.875 C 131.191406 74.121094 131.917969 73.371094 132.539062 72.238281 C 132.835938 71.554688 133.078125 70.882812 133.3125 70.175781 M 115.265625 59.617188 L 116.039062 59.875 L 116.039062 60.390625 L 116.472656 60.589844 C 117.386719 61.070312 118.1875 61.695312 119.019531 62.304688 C 119.597656 62.675781 120.011719 62.851562 120.679688 62.964844 L 120.679688 63.480469 L 121.167969 63.621094 L 121.808594 63.816406 L 122.441406 64.007812 L 123 64.253906 L 123.515625 65.023438 C 120.523438 64.097656 117.902344 62.597656 115.589844 60.496094 L 115.265625 60.132812 Z M -35.054688 151.820312 L -34.539062 152.074219 C -34.894531 152.589844 -34.894531 152.589844 -35.3125 153.105469 L -35.828125 153.105469 L -35.828125 153.878906 L -34.28125 153.621094 L -34.28125 154.136719 C -34.972656 154.539062 -34.972656 154.539062 -35.828125 154.910156 C -36.570312 154.828125 -36.570312 154.828125 -37.117188 154.652344 L -37.375 153.621094 Z M 124.804688 135.078125 C 125.625 135.140625 126.125 135.355469 126.839844 135.765625 L 127.59375 136.300781 L 128.355469 136.828125 L 128.929688 137.394531 C 129.054688 138.0625 129.054688 138.0625 128.929688 138.683594 C 128.285156 139.40625 128.285156 139.40625 127.640625 139.972656 L 127.382812 139.457031 L 127.640625 138.988281 C 127.941406 138.433594 127.941406 138.433594 127.898438 137.78125 C 127.671875 137.078125 127.671875 137.078125 126.980469 136.558594 C 125.933594 136.027344 125.191406 135.929688 124.03125 135.851562 C 124.335938 135.449219 124.335938 135.449219 124.804688 135.078125 M 155.230469 115.246094 L 155.5625 115.695312 C 155.992188 116.261719 156.429688 116.8125 156.890625 117.355469 L 157.339844 117.898438 C 157.777344 118.363281 157.777344 118.363281 158.335938 118.546875 L 158.839844 118.59375 C 159.539062 118.277344 159.539062 118.277344 160.128906 117.824219 L 160.386719 117.308594 L 161.160156 117.308594 C 161 117.757812 161 117.757812 160.644531 118.335938 C 159.917969 118.933594 159.917969 118.933594 159.097656 119.367188 C 158.484375 119.34375 158.484375 119.34375 157.808594 119.109375 C 157.128906 118.558594 157.128906 118.558594 156.453125 117.871094 L 155.773438 117.191406 C 155.230469 116.535156 155.230469 116.535156 155.007812 115.953125 L 154.972656 115.503906 Z M 155.230469 115.246094 " fill-opacity="1" fill-rule="nonzero"/></g><path fill="#d60401" d="M 27.339844 20.210938 L 27.859375 20.210938 C 28.605469 21.390625 28.605469 21.390625 28.890625 22.015625 C 28.824219 22.640625 28.824219 22.640625 28.632812 23.042969 C 28.203125 23.054688 27.769531 23.054688 27.339844 23.042969 L 27.082031 22.789062 C 27.058594 22.402344 27.050781 22.015625 27.050781 21.628906 L 27.050781 20.992188 L 27.082031 20.46875 Z M 27.339844 20.210938 " fill-opacity="1" fill-rule="nonzero"/><path fill="#d60401" d="M 20.378906 20.210938 L 20.894531 20.210938 C 21.316406 21.050781 21.183594 21.859375 21.152344 22.789062 L 20.894531 23.042969 C 20.464844 23.054688 20.035156 23.054688 19.605469 23.042969 C 19.414062 22.640625 19.414062 22.640625 19.347656 22.015625 C 19.640625 21.371094 20 20.8125 20.378906 20.210938 " fill-opacity="1" fill-rule="nonzero"/><g clip-path="url(#bd1a13fc29)"><path fill="#0c2240" d="M 13.417969 134.820312 C 14 134.886719 14 134.886719 14.707031 135.078125 C 16.363281 136.449219 17.378906 138.332031 18.316406 140.230469 C 17.847656 140.046875 17.847656 140.046875 17.285156 139.714844 C 16.902344 139.15625 16.902344 139.15625 16.542969 138.492188 C 15.875 137.320312 15.210938 136.476562 14.191406 135.59375 L 13.417969 135.335938 Z M 119.90625 54.980469 C 120.535156 55.046875 121.152344 55.125 121.773438 55.222656 C 122.972656 55.402344 124.109375 55.527344 125.320312 55.496094 L 125.320312 56.011719 C 123.324219 56.039062 121.371094 56.003906 119.390625 55.753906 L 119.390625 56.269531 L 118.617188 56.011719 C 119.039062 55.570312 119.355469 55.253906 119.90625 54.980469 M 14.449219 27.164062 L 15.351562 27.292969 C 17.191406 27.503906 19.046875 27.445312 20.894531 27.421875 C 20.644531 27.804688 20.644531 27.804688 20.121094 28.195312 C 19.402344 28.265625 18.683594 28.292969 17.964844 28.277344 L 17.371094 28.277344 C 16.285156 28.269531 15.441406 28.175781 14.449219 27.679688 Z M -38.921875 150.53125 L -38.40625 150.53125 C -38.382812 151.132812 -38.386719 151.734375 -38.40625 152.332031 L -38.921875 153.105469 C -39.355469 153.027344 -39.785156 152.941406 -40.210938 152.847656 L -40.46875 152.589844 C -40.480469 152.160156 -40.480469 151.734375 -40.46875 151.304688 L -39.179688 151.046875 L -39.4375 151.820312 L -38.921875 151.820312 Z M 47.96875 118.078125 L 48.484375 118.335938 L 49 119.882812 L 52.351562 119.882812 L 52.609375 120.398438 C 51.882812 120.40625 51.160156 120.410156 50.433594 120.414062 L 49.808594 120.421875 C 49.28125 120.421875 48.753906 120.410156 48.226562 120.398438 L 47.96875 120.140625 C 47.933594 119.453125 47.957031 118.769531 47.96875 118.078125 M 66.53125 13.257812 L 66.53125 13.773438 L 66.09375 13.789062 C 65.441406 13.8125 64.785156 13.839844 64.132812 13.871094 L 63.445312 13.894531 L 62.78125 13.925781 L 62.171875 13.949219 C 61.554688 14.003906 61.554688 14.003906 60.859375 14.546875 L 60.601562 14.03125 L 60.859375 13.515625 C 62.800781 12.902344 64.527344 13.027344 66.53125 13.257812 M -24.484375 148.984375 C -23.871094 149.195312 -23.871094 149.195312 -23.195312 149.5 L -22.679688 150.273438 L -23.195312 151.304688 L -25 151.046875 L -25 150.273438 L -24.484375 150.53125 L -24.742188 149.757812 L -24.226562 149.757812 Z M 134.34375 147.441406 C 134.71875 147.425781 135.097656 147.414062 135.472656 147.40625 L 136.105469 147.390625 L 136.664062 147.441406 L 137.179688 147.957031 L 137.179688 148.984375 L 136.714844 148.746094 C 136.125 148.445312 136.125 148.445312 135.375 148.214844 L 134.601562 148.726562 L 133.828125 148.46875 Z M 7.488281 138.941406 C 7.867188 140.082031 7.757812 141.226562 7.734375 142.414062 C 7.722656 143.605469 7.804688 144.71875 8.003906 145.894531 C 7.488281 145.378906 7.488281 145.378906 7.199219 144.496094 C 6.820312 142.84375 6.785156 141.175781 7.230469 139.535156 Z M 7.488281 138.941406 " fill-opacity="1" fill-rule="nonzero"/><path fill="#0c2240" d="M 117.730469 132.195312 L 118.617188 132.1875 C 119.390625 132.246094 119.390625 132.246094 120.164062 132.761719 C 120.210938 133.4375 120.210938 133.4375 120.164062 134.046875 L 119.390625 133.789062 L 119.390625 133.019531 L 115.265625 133.019531 L 115.007812 132.503906 C 115.917969 132.222656 116.777344 132.203125 117.730469 132.195312 M 177.660156 98.25 L 178.691406 98.765625 C 178.789062 99.296875 178.789062 99.296875 178.691406 100.050781 C 178.230469 100.703125 177.703125 101.28125 177.144531 101.855469 L 176.371094 101.597656 C 176.464844 101.484375 176.558594 101.371094 176.652344 101.257812 C 177.023438 100.78125 177.363281 100.320312 177.660156 99.792969 C 177.769531 98.945312 177.769531 98.945312 177.660156 98.25 M -43.046875 145.894531 C -42.144531 145.960938 -42.144531 145.960938 -41.242188 146.152344 L -40.726562 146.667969 L -42.273438 146.410156 L -42.273438 147.441406 L -41.757812 148.214844 L -43.304688 147.699219 C -43.46875 147.085938 -43.46875 147.085938 -43.5625 146.410156 Z M 83.550781 51.890625 C 84.472656 52.28125 85.082031 52.828125 85.789062 53.53125 L 86.40625 54.132812 C 86.902344 54.722656 86.902344 54.722656 87.101562 55.3125 L 87.160156 55.753906 C 86.707031 56.027344 86.707031 56.027344 86.128906 56.269531 C 85.546875 56.171875 85.546875 56.171875 85.097656 56.011719 L 85.097656 55.753906 L 86.386719 55.496094 C 85.792969 54.304688 84.925781 53.488281 83.972656 52.578125 L 83.550781 52.148438 Z M 142.335938 13.773438 L 142.078125 15.0625 C 141.371094 15.351562 141.371094 15.351562 140.53125 15.574219 C 139.921875 15.351562 139.921875 15.351562 139.5 15.0625 C 139.777344 14.84375 140.058594 14.628906 140.339844 14.417969 L 140.808594 14.054688 C 141.304688 13.773438 141.304688 13.773438 142.335938 13.773438 M 74.527344 59.617188 L 75.558594 59.617188 L 75.558594 61.933594 L 74.011719 61.933594 L 74.011719 61.417969 L 74.527344 61.417969 L 74.382812 60.664062 L 74.269531 59.875 Z M 74.527344 59.617188 " fill-opacity="1" fill-rule="nonzero"/></g><g clip-path="url(#008932fb0f)"><path fill="#0c2240" d="M 115.78125 161.347656 L 119.132812 161.605469 L 119.132812 162.121094 L 118.359375 162.636719 C 117.386719 162.554688 116.625 162.347656 115.78125 161.863281 Z M 103.917969 14.804688 L 104.175781 15.320312 L 103.917969 16.089844 L 104.175781 16.863281 C 105.082031 17.179688 105.082031 17.179688 105.980469 17.378906 L 105.980469 17.894531 L 103.660156 17.636719 C 103.355469 16.945312 103.355469 16.945312 103.144531 16.089844 C 103.5 15.351562 103.5 15.351562 103.917969 14.804688 M 152.394531 109.324219 L 153.167969 109.839844 C 153.902344 109.992188 154.640625 110.097656 155.382812 110.207031 L 156.003906 110.351562 L 156.261719 110.867188 L 152.652344 110.609375 Z M 122.484375 157.742188 C 123.660156 157.882812 124.539062 158.203125 125.578125 158.773438 L 124.804688 159.03125 L 124.191406 158.902344 C 123.449219 158.761719 122.949219 158.84375 122.226562 159.03125 Z M -24.484375 145.894531 L -23.195312 146.152344 L -22.9375 147.183594 C -23.660156 147.714844 -23.660156 147.714844 -24.484375 148.214844 L -25.257812 147.957031 L -24.757812 147.488281 C -24.171875 146.949219 -24.171875 146.949219 -23.96875 146.152344 Z M 85.097656 113.1875 L 88.707031 113.960938 L 88.707031 113.445312 L 89.222656 113.445312 L 88.964844 114.472656 C 87.421875 114.554688 86.480469 114.390625 85.097656 113.703125 Z M 115.265625 71.722656 L 122.742188 72.238281 L 122.742188 72.492188 C 121.957031 72.550781 121.171875 72.605469 120.390625 72.65625 L 119.71875 72.707031 C 118.449219 72.78125 117.484375 72.753906 116.296875 72.238281 Z M 26.566406 114.730469 L 27.082031 114.730469 C 26.8125 115.648438 26.429688 116.210938 25.761719 116.871094 L 25.019531 117.566406 L 24.246094 117.308594 L 24.828125 116.742188 C 25.539062 116.042969 25.539062 116.042969 26.101562 115.296875 Z M 83.035156 111.640625 C 83.664062 112.15625 83.664062 112.15625 84.066406 112.671875 L 83.664062 112.542969 C 82.5 112.304688 81.335938 112.308594 80.199219 112.671875 L 79.941406 112.15625 C 81.003906 111.640625 81.859375 111.511719 83.035156 111.640625 M 167.605469 101.082031 C 169.582031 101.375 169.582031 101.375 170.425781 101.917969 C 170.789062 102.226562 171.132812 102.554688 171.472656 102.882812 L 171.214844 103.398438 L 170.828125 103.136719 C 169.679688 102.382812 168.6875 101.902344 167.347656 101.597656 Z M 167.605469 101.082031 " fill-opacity="1" fill-rule="nonzero"/></g><g clip-path="url(#a6db8988ed)"><path fill="#0c2240" d="M 27.859375 109.066406 L 28.632812 109.066406 C 28.652344 109.667969 28.652344 110.269531 28.632812 110.867188 L 28.117188 111.640625 C 27.914062 110.765625 27.832031 109.964844 27.859375 109.066406 M 9.292969 107.777344 L 9.550781 107.777344 L 9.542969 108.4375 C 9.539062 108.71875 9.539062 109 9.535156 109.292969 L 9.527344 110.140625 C 9.5 110.855469 9.5 110.855469 9.808594 111.382812 C 9.566406 111.929688 9.566406 111.929688 9.292969 112.414062 C 9.015625 111.582031 9 110.96875 9.003906 110.097656 L 9 109.273438 C 9.035156 108.550781 9.035156 108.550781 9.292969 107.777344 M 176.371094 68.117188 L 176.113281 68.886719 L 173.535156 69.144531 L 173.277344 68.628906 C 174.285156 67.960938 175.203125 68.078125 176.371094 68.117188 M 63.4375 160.058594 C 63.9375 160.269531 63.9375 160.269531 64.46875 160.574219 L 64.726562 161.347656 L 65.242188 161.347656 C 65.664062 161.863281 65.664062 161.863281 66.015625 162.378906 L 64.984375 162.378906 C 64.546875 161.9375 64.546875 161.9375 64.148438 161.363281 L 63.742188 160.792969 L 63.4375 160.316406 Z M 155.230469 98.765625 C 155.898438 99.765625 156.5 100.773438 157.035156 101.855469 C 156.738281 101.621094 156.441406 101.386719 156.148438 101.144531 C 155.984375 101.015625 155.820312 100.882812 155.648438 100.746094 C 155.230469 100.308594 155.230469 100.308594 155.027344 99.773438 L 154.972656 99.277344 Z M 179.722656 31.027344 L 180.238281 31.027344 C 180.25 31.457031 180.25 31.886719 180.238281 32.316406 L 179.980469 32.574219 C 179.464844 32.585938 178.949219 32.585938 178.433594 32.574219 C 178.851562 32.046875 179.28125 31.535156 179.722656 31.027344 M 61.890625 64.511719 L 62.40625 64.765625 L 62.148438 67.859375 L 61.890625 67.859375 C 61.84375 67.347656 61.792969 66.839844 61.746094 66.328125 L 61.664062 65.46875 L 61.632812 64.765625 Z M 27.597656 112.414062 L 28.117188 112.414062 C 27.972656 113.273438 27.765625 113.96875 27.339844 114.730469 L 26.824219 114.214844 Z M 158.066406 95.929688 C 158.773438 95.980469 158.773438 95.980469 159.613281 96.1875 C 160.226562 96.847656 160.226562 96.847656 160.644531 97.476562 L 160.242188 97.25 C 159.453125 96.886719 158.644531 96.671875 157.808594 96.445312 Z M 165.542969 93.097656 C 166.132812 93.085938 166.722656 93.074219 167.316406 93.066406 L 168.3125 93.046875 L 169.152344 93.097656 L 169.667969 93.613281 L 168.894531 93.871094 L 168.378906 93.613281 C 167.898438 93.554688 167.414062 93.507812 166.929688 93.46875 L 166.144531 93.402344 L 165.542969 93.355469 Z M 165.542969 93.097656 " fill-opacity="1" fill-rule="nonzero"/></g><g clip-path="url(#ecd84f3295)"><path fill="#0c2240" d="M 29.148438 26.394531 L 29.921875 26.394531 L 29.921875 26.90625 C 29.527344 27.242188 29.527344 27.242188 29.019531 27.585938 L 28.511719 27.933594 L 28.117188 28.195312 L 28.117188 27.421875 C 28.582031 26.859375 28.582031 26.859375 29.148438 26.394531 M 128.15625 148.726562 L 128.671875 148.726562 L 127.898438 151.046875 L 127.382812 150.789062 C 127.867188 149.308594 127.867188 149.308594 128.15625 148.726562 M 161.417969 47.769531 L 165.285156 48.027344 L 165.285156 48.285156 C 162.960938 48.617188 162.960938 48.617188 161.902344 48.300781 L 161.417969 48.027344 Z M 161.417969 47.769531 " fill-opacity="1" fill-rule="nonzero"/></g></svg>