<svg xmlns="http://www.w3.org/2000/svg" xmlns:xlink="http://www.w3.org/1999/xlink" width="48" zoomAndPan="magnify" viewBox="0 0 36 36.000001" height="48" preserveAspectRatio="xMidYMid meet" version="1.0"><defs><clipPath id="f87690f506"><path d="M 0.488281 0 L 35.511719 0 L 35.511719 35.027344 L 0.488281 35.027344 Z M 0.488281 0 " clip-rule="nonzero"/></clipPath><clipPath id="30706fb2cb"><path d="M 5 0 L 35.511719 0 L 35.511719 35.027344 L 5 35.027344 Z M 5 0 " clip-rule="nonzero"/></clipPath><clipPath id="af067ad73c"><path d="M 5 0 L 35.511719 0 L 35.511719 26 L 5 26 Z M 5 0 " clip-rule="nonzero"/></clipPath><clipPath id="6dbc197c2c"><path d="M 1 0 L 35.511719 0 L 35.511719 35.027344 L 1 35.027344 Z M 1 0 " clip-rule="nonzero"/></clipPath><clipPath id="a247bd71de"><path d="M 12 0 L 35.511719 0 L 35.511719 35.027344 L 12 35.027344 Z M 12 0 " clip-rule="nonzero"/></clipPath><clipPath id="cb61314ed1"><path d="M 28 16 L 35.511719 16 L 35.511719 35.027344 L 28 35.027344 Z M 28 16 " clip-rule="nonzero"/></clipPath><clipPath id="29c59c76d9"><path d="M 28 0 L 35.511719 0 L 35.511719 35.027344 L 28 35.027344 Z M 28 0 " clip-rule="nonzero"/></clipPath><clipPath id="ec4d1cb582"><path d="M 7 0 L 35.511719 0 L 35.511719 35.027344 L 7 35.027344 Z M 7 0 " clip-rule="nonzero"/></clipPath><clipPath id="18e903135f"><path d="M 4 0 L 35.511719 0 L 35.511719 35.027344 L 4 35.027344 Z M 4 0 " clip-rule="nonzero"/></clipPath><clipPath id="0ec531c114"><path d="M 1 0 L 35.511719 0 L 35.511719 35.027344 L 1 35.027344 Z M 1 0 " clip-rule="nonzero"/></clipPath><clipPath id="768615b760"><path d="M 18 0 L 35.511719 0 L 35.511719 35.027344 L 18 35.027344 Z M 18 0 " clip-rule="nonzero"/></clipPath></defs><g clip-path="url(#f87690f506)"><rect x="-3.6" width="43.2" fill="#fefefe" y="-3.6" height="43.200001" fill-opacity="1"/></g><path fill="#fefefe" d="M 4.445312 10.179688 L 5.085938 10.175781 L 5.78125 10.179688 L 6.519531 10.175781 C 7.324219 10.175781 8.128906 10.175781 8.933594 10.179688 L 10.609375 10.175781 C 11.78125 10.175781 12.953125 10.175781 14.128906 10.179688 C 15.628906 10.183594 17.132812 10.179688 18.636719 10.179688 C 19.789062 10.175781 20.945312 10.175781 22.101562 10.179688 C 22.65625 10.179688 23.207031 10.179688 23.761719 10.175781 C 24.539062 10.175781 25.3125 10.175781 26.085938 10.179688 L 26.78125 10.175781 C 27.839844 10.183594 28.703125 10.191406 29.660156 10.699219 L 29.660156 11.160156 L 30.121094 11.160156 C 30.199219 11.484375 30.277344 11.8125 30.351562 12.136719 L 30.480469 12.6875 C 30.582031 13.230469 30.582031 13.230469 30.582031 14.152344 L 31.222656 14.136719 L 32.050781 14.125 L 32.878906 14.105469 L 33.578125 14.152344 L 34.039062 14.613281 C 34.082031 15.179688 34.101562 15.742188 34.09375 16.3125 L 34.09375 16.816406 C 34.09375 17.171875 34.089844 17.527344 34.085938 17.878906 C 34.082031 18.421875 34.082031 18.964844 34.082031 19.511719 C 34.082031 19.851562 34.082031 20.195312 34.078125 20.539062 L 34.078125 21.035156 C 34.074219 21.425781 34.058594 21.816406 34.039062 22.207031 L 33.808594 22.4375 C 33.269531 22.492188 32.726562 22.53125 32.183594 22.566406 L 31.28125 22.625 L 30.582031 22.667969 L 30.566406 23.132812 C 30.503906 24.074219 30.433594 24.808594 30.007812 25.660156 C 29.191406 26.3125 28.378906 26.421875 27.355469 26.582031 C 26.566406 26.640625 25.78125 26.644531 24.988281 26.644531 L 24.300781 26.648438 C 23.558594 26.648438 22.8125 26.648438 22.070312 26.648438 L 20.507812 26.652344 C 19.421875 26.652344 18.332031 26.65625 17.246094 26.652344 C 15.851562 26.652344 14.460938 26.65625 13.070312 26.660156 C 11.996094 26.664062 10.921875 26.664062 9.847656 26.664062 C 9.335938 26.664062 8.824219 26.664062 8.308594 26.667969 C 7.59375 26.671875 6.875 26.667969 6.15625 26.667969 L 5.519531 26.671875 C 4.25 26.660156 3.355469 26.5 2.234375 25.890625 C 1.796875 25.332031 1.796875 25.332031 1.542969 24.507812 C 1.445312 23.574219 1.441406 22.644531 1.445312 21.703125 L 1.441406 20.882812 C 1.4375 20.3125 1.441406 19.742188 1.441406 19.171875 C 1.445312 18.296875 1.4375 17.425781 1.429688 16.550781 C 1.429688 15.996094 1.429688 15.441406 1.429688 14.886719 L 1.421875 14.097656 C 1.4375 12.355469 1.4375 12.355469 1.726562 11.617188 C 2.039062 11.105469 2.378906 10.753906 2.894531 10.4375 C 3.449219 10.214844 3.847656 10.179688 4.445312 10.179688 " fill-opacity="1" fill-rule="nonzero"/><g clip-path="url(#30706fb2cb)"><path fill="#cf1b15" d="M 104.9375 42.421875 C 106.480469 43.183594 108.03125 44.28125 109.09375 45.648438 C 110.09375 47.242188 110.832031 48.855469 110.9375 50.742188 C 110.964844 52.96875 110.328125 54.882812 109.339844 56.859375 C 108.628906 58.113281 107.765625 59.273438 106.925781 60.441406 L 106.585938 60.914062 C 106.308594 61.292969 106.011719 61.660156 105.714844 62.023438 L 105.253906 62.023438 L 105.097656 62.515625 C 104.726562 63.320312 104.242188 63.859375 103.640625 64.511719 L 103.023438 65.191406 L 102.488281 65.707031 L 102.027344 65.707031 L 101.566406 66.625 C 101.132812 66.570312 101.132812 66.570312 100.644531 66.398438 C 100.488281 66.09375 100.332031 65.785156 100.183594 65.476562 L 99.769531 65.289062 C 99.097656 64.929688 98.75 64.460938 98.28125 63.863281 L 97.789062 63.246094 L 97.417969 62.714844 L 97.417969 62.253906 L 96.957031 62.253906 C 96.671875 61.929688 96.671875 61.929688 96.355469 61.480469 L 96.003906 60.980469 L 95.632812 60.441406 L 95.253906 59.898438 C 92.09375 55.328125 92.09375 55.328125 91.65625 52.585938 C 91.511719 50.582031 91.761719 49.046875 92.585938 47.230469 C 93.4375 45.542969 94.671875 44.25 96.238281 43.195312 C 98.777344 41.746094 102.160156 41.429688 104.9375 42.421875 M 144.433594 2.644531 C 146.351562 3.09375 147.90625 3.839844 149.414062 5.113281 C 150.324219 5.980469 151.085938 6.914062 151.808594 7.9375 L 152.144531 8.398438 C 153.601562 10.65625 153.941406 13.828125 154.113281 16.453125 C 154.683594 16.132812 154.683594 16.132812 155.265625 15.53125 C 155.980469 14.203125 156.308594 12.886719 156.417969 11.390625 C 156.835938 11.449219 156.835938 11.449219 157.339844 11.621094 C 157.898438 12.246094 158.300781 12.972656 158.722656 13.691406 L 159.042969 14.234375 C 160.089844 16.160156 160.585938 18.210938 160.652344 20.394531 C 160.589844 22.40625 160.042969 24.136719 159.039062 25.875 C 157.90625 27.574219 156.488281 28.480469 154.6875 29.410156 C 153.734375 29.855469 152.863281 30.15625 151.808594 30.261719 L 151.808594 29.800781 L 152.269531 29.800781 L 152.269531 29.34375 L 152.800781 28.851562 C 153.386719 28.230469 153.730469 27.71875 153.996094 26.910156 C 154.285156 25.527344 154.347656 24.074219 153.90625 22.722656 C 153.746094 22.367188 153.574219 22.019531 153.394531 21.679688 C 153.191406 21.285156 153.191406 21.285156 153.191406 20.828125 L 152.730469 20.828125 L 152.652344 21.238281 C 152.441406 22.300781 152.21875 23.148438 151.578125 24.046875 C 151.160156 23.992188 151.160156 23.992188 150.65625 23.820312 C 149.785156 22.871094 149.554688 21.71875 149.226562 20.503906 C 148.8125 18.628906 149.035156 17.140625 149.582031 15.316406 L 149.734375 14.84375 C 148.253906 15.550781 147.21875 16.488281 146.277344 17.835938 C 145.394531 19.6875 144.992188 21.542969 145.125 23.589844 C 145.25 24.4375 145.410156 25.277344 145.585938 26.121094 C 145.046875 26.0625 145.046875 26.0625 144.433594 25.890625 C 144.085938 25.472656 144.085938 25.472656 143.8125 24.96875 C 143.644531 24.65625 143.464844 24.351562 143.28125 24.046875 L 142.820312 23.820312 C 142.550781 25.164062 142.453125 26.414062 142.75 27.761719 C 143.125 28.582031 143.597656 29.132812 144.203125 29.800781 L 143.972656 30.261719 C 141.746094 29.328125 140.042969 28.132812 138.441406 26.351562 C 137.875 25.539062 137.449219 24.722656 137.058594 23.820312 L 136.824219 23.34375 C 136.070312 21.582031 136.195312 19.476562 136.367188 17.605469 C 136.8125 14.964844 137.988281 12.9375 139.664062 10.886719 C 139.871094 10.671875 140.074219 10.460938 140.285156 10.238281 L 140.746094 10.238281 L 140.703125 10.902344 C 140.707031 12.019531 140.945312 13.148438 141.4375 14.152344 C 141.902344 14.457031 141.902344 14.457031 142.359375 14.613281 L 142.589844 13.691406 L 143.050781 13.691406 L 143.222656 13.246094 C 143.382812 12.851562 143.550781 12.460938 143.730469 12.074219 C 144.695312 10.027344 145.066406 8.132812 144.894531 5.867188 C 144.792969 5.320312 144.675781 4.78125 144.535156 4.242188 C 144.414062 3.703125 144.398438 3.195312 144.433594 2.644531 M 12.390625 -71.335938 L 13.046875 -71.335938 C 13.503906 -71.339844 13.960938 -71.339844 14.417969 -71.335938 C 15.109375 -71.335938 15.800781 -71.339844 16.496094 -71.347656 C 16.941406 -71.347656 17.386719 -71.347656 17.832031 -71.347656 L 18.453125 -71.355469 C 19.929688 -71.339844 21.226562 -71.054688 22.515625 -70.3125 C 23.167969 -69.652344 23.738281 -68.976562 24.023438 -68.078125 C 24.164062 -67.386719 24.191406 -66.714844 24.21875 -66.011719 L 24.238281 -65.546875 C 24.261719 -65.042969 24.285156 -64.539062 24.304688 -64.035156 L 24.347656 -62.984375 C 24.382812 -62.246094 24.414062 -61.507812 24.441406 -60.773438 C 24.480469 -59.832031 24.523438 -58.890625 24.5625 -57.949219 C 24.628906 -56.390625 24.695312 -54.832031 24.761719 -53.273438 L 24.796875 -52.433594 L 24.820312 -51.671875 L 24.855469 -50.910156 L 24.820312 -50.289062 L 24.359375 -49.832031 L 23.4375 -49.832031 C 23.152344 -51.363281 23.1875 -52.878906 23.207031 -54.433594 L 22.738281 -54.410156 L 22.113281 -54.390625 L 21.496094 -54.367188 C 20.902344 -54.433594 20.902344 -54.433594 20.367188 -54.753906 L 19.980469 -55.125 L 19.980469 -55.585938 L 10.300781 -55.355469 L 9.839844 -53.28125 L 8.457031 -53.28125 L 8.457031 -54.433594 L 7.074219 -54.433594 L 7.074219 -49.832031 L 5.691406 -50.058594 L 5.691406 -50.519531 L 5.230469 -50.519531 C 5.210938 -51.9375 5.210938 -51.9375 5.230469 -52.363281 L 5.460938 -52.59375 C 5.519531 -53.21875 5.5625 -53.835938 5.59375 -54.460938 L 5.621094 -55.042969 C 5.703125 -56.835938 5.707031 -58.625 5.683594 -60.414062 C 5.671875 -61.574219 5.722656 -62.691406 5.867188 -63.839844 C 5.921875 -64.324219 5.953125 -64.800781 5.972656 -65.289062 L 5.992188 -65.753906 C 6.003906 -66.0625 6.015625 -66.375 6.023438 -66.683594 C 6.070312 -67.746094 6.292969 -68.488281 6.84375 -69.394531 C 8.457031 -71.003906 10.179688 -71.339844 12.390625 -71.335938 " fill-opacity="1" fill-rule="nonzero"/></g><path fill="#193049" d="M 4.445312 10.179688 L 5.085938 10.175781 L 5.78125 10.179688 L 6.519531 10.175781 C 7.324219 10.175781 8.128906 10.175781 8.933594 10.179688 L 10.609375 10.175781 C 11.78125 10.175781 12.953125 10.175781 14.128906 10.179688 C 15.628906 10.183594 17.132812 10.179688 18.636719 10.179688 C 19.789062 10.175781 20.945312 10.175781 22.101562 10.179688 C 22.65625 10.179688 23.207031 10.179688 23.761719 10.175781 C 24.539062 10.175781 25.3125 10.175781 26.085938 10.179688 L 26.78125 10.175781 C 27.839844 10.183594 28.703125 10.191406 29.660156 10.699219 L 29.660156 11.160156 L 30.121094 11.160156 C 30.199219 11.484375 30.277344 11.8125 30.351562 12.136719 L 30.480469 12.6875 C 30.582031 13.230469 30.582031 13.230469 30.582031 14.152344 L 31.222656 14.136719 L 32.050781 14.125 L 32.878906 14.105469 L 33.578125 14.152344 L 34.039062 14.613281 C 34.082031 15.179688 34.101562 15.742188 34.09375 16.3125 L 34.09375 16.816406 C 34.09375 17.171875 34.089844 17.527344 34.085938 17.878906 C 34.082031 18.421875 34.082031 18.964844 34.082031 19.511719 C 34.082031 19.851562 34.082031 20.195312 34.078125 20.539062 L 34.078125 21.035156 C 34.074219 21.425781 34.058594 21.816406 34.039062 22.207031 L 33.808594 22.4375 C 33.269531 22.492188 32.726562 22.53125 32.183594 22.566406 L 31.28125 22.625 L 30.582031 22.667969 L 30.566406 23.132812 C 30.503906 24.074219 30.433594 24.808594 30.007812 25.660156 C 29.191406 26.3125 28.378906 26.421875 27.355469 26.582031 C 26.566406 26.640625 25.78125 26.644531 24.988281 26.644531 L 24.300781 26.648438 C 23.558594 26.648438 22.8125 26.648438 22.070312 26.648438 L 20.507812 26.652344 C 19.421875 26.652344 18.332031 26.65625 17.246094 26.652344 C 15.851562 26.652344 14.460938 26.65625 13.070312 26.660156 C 11.996094 26.664062 10.921875 26.664062 9.847656 26.664062 C 9.335938 26.664062 8.824219 26.664062 8.308594 26.667969 C 7.59375 26.671875 6.875 26.667969 6.15625 26.667969 L 5.519531 26.671875 C 4.25 26.660156 3.355469 26.5 2.234375 25.890625 C 1.796875 25.332031 1.796875 25.332031 1.542969 24.507812 C 1.445312 23.574219 1.441406 22.644531 1.445312 21.703125 L 1.441406 20.882812 C 1.4375 20.3125 1.441406 19.742188 1.441406 19.171875 C 1.445312 18.296875 1.4375 17.425781 1.429688 16.550781 C 1.429688 15.996094 1.429688 15.441406 1.429688 14.886719 L 1.421875 14.097656 C 1.4375 12.355469 1.4375 12.355469 1.726562 11.617188 C 2.039062 11.105469 2.378906 10.753906 2.894531 10.4375 C 3.449219 10.214844 3.847656 10.179688 4.445312 10.179688 M 3.910156 12.402344 C 3.582031 12.757812 3.582031 12.757812 3.535156 13.257812 L 3.535156 14.476562 L 3.542969 15.171875 L 3.542969 15.890625 C 3.546875 16.390625 3.550781 16.894531 3.554688 17.394531 C 3.5625 18.160156 3.5625 18.929688 3.566406 19.695312 C 3.566406 20.183594 3.570312 20.667969 3.570312 21.15625 L 3.574219 21.851562 L 3.582031 22.5 L 3.585938 23.070312 C 3.617188 23.578125 3.71875 24.019531 3.847656 24.507812 C 6.964844 24.515625 10.082031 24.519531 13.199219 24.519531 C 14.648438 24.523438 16.09375 24.523438 17.542969 24.527344 C 18.9375 24.527344 20.332031 24.53125 21.730469 24.53125 C 22.261719 24.53125 22.796875 24.53125 23.328125 24.53125 C 24.074219 24.535156 24.820312 24.535156 25.566406 24.535156 L 26.238281 24.539062 L 26.851562 24.535156 L 27.386719 24.539062 C 27.839844 24.535156 27.839844 24.535156 28.277344 24.277344 C 28.757812 22.175781 28.558594 19.796875 28.5625 17.648438 C 28.566406 17.007812 28.574219 16.371094 28.582031 15.730469 C 28.582031 15.324219 28.582031 14.917969 28.585938 14.511719 L 28.59375 13.933594 C 28.597656 13.34375 28.597656 13.34375 28.507812 12.542969 C 27.890625 12.054688 27.890625 12.054688 27.367188 12.023438 L 26.847656 12.019531 L 26.246094 12.015625 L 24.898438 12.015625 C 24.144531 12.011719 23.386719 12.011719 22.632812 12.011719 L 21.058594 12.007812 C 19.960938 12.007812 18.859375 12.007812 17.757812 12.007812 C 16.347656 12.007812 14.9375 12.007812 13.527344 12 C 12.441406 11.996094 11.359375 11.996094 10.277344 11.996094 C 9.757812 11.996094 9.234375 11.996094 8.714844 11.992188 C 7.988281 11.992188 7.261719 11.992188 6.535156 11.996094 L 5.878906 11.988281 L 5.28125 11.996094 L 4.761719 11.996094 C 4.285156 12.050781 4.285156 12.050781 3.910156 12.402344 " fill-opacity="1" fill-rule="nonzero"/><path fill="#d0211b" d="M 5.921875 14.382812 C 6.347656 14.359375 6.769531 14.351562 7.195312 14.351562 L 9.824219 14.351562 C 10.460938 14.351562 11.101562 14.351562 11.738281 14.351562 C 12.558594 14.351562 13.375 14.351562 14.195312 14.351562 C 14.972656 14.351562 15.753906 14.351562 16.53125 14.351562 L 18.976562 14.351562 L 19.519531 14.382812 L 19.75 14.613281 C 19.777344 15.152344 19.789062 15.6875 19.789062 16.230469 L 19.792969 16.722656 C 19.792969 17.0625 19.792969 17.40625 19.792969 17.75 C 19.792969 18.277344 19.796875 18.804688 19.804688 19.332031 C 19.804688 19.664062 19.804688 19.996094 19.804688 20.328125 L 19.808594 20.808594 C 19.808594 21.199219 19.78125 21.589844 19.75 21.976562 L 19.289062 22.4375 C 18.730469 22.496094 18.730469 22.496094 18.015625 22.492188 L 17.207031 22.496094 L 16.328125 22.492188 L 15.433594 22.492188 C 14.808594 22.488281 14.183594 22.488281 13.558594 22.484375 C 12.753906 22.480469 11.949219 22.480469 11.148438 22.480469 C 10.382812 22.480469 9.617188 22.476562 8.855469 22.476562 L 7.976562 22.476562 L 7.167969 22.472656 L 6.457031 22.46875 L 5.921875 22.4375 L 5.691406 22.207031 C 5.667969 21.648438 5.660156 21.09375 5.660156 20.53125 L 5.660156 20.023438 C 5.660156 19.667969 5.660156 19.3125 5.664062 18.957031 C 5.664062 18.414062 5.664062 17.867188 5.660156 17.320312 C 5.660156 16.976562 5.660156 16.632812 5.660156 16.289062 L 5.660156 15.789062 C 5.664062 15.398438 5.675781 15.003906 5.691406 14.613281 Z M 5.921875 14.382812 " fill-opacity="1" fill-rule="nonzero"/><g clip-path="url(#af067ad73c)"><path fill="#193049" d="M 10.300781 -55.585938 C 11.007812 -55.617188 11.703125 -55.632812 12.410156 -55.640625 L 13.054688 -55.644531 C 13.503906 -55.648438 13.953125 -55.648438 14.40625 -55.652344 C 15.09375 -55.65625 15.78125 -55.664062 16.472656 -55.675781 C 16.910156 -55.679688 17.34375 -55.679688 17.78125 -55.683594 L 18.40625 -55.695312 C 18.949219 -55.691406 19.449219 -55.683594 19.980469 -55.585938 C 20.503906 -55.128906 20.503906 -55.128906 20.902344 -54.664062 C 21.496094 -54.503906 21.496094 -54.503906 22.113281 -54.492188 L 22.738281 -54.453125 L 23.207031 -54.433594 C 23.3125 -53.644531 23.40625 -52.851562 23.496094 -52.058594 L 23.585938 -51.378906 L 23.660156 -50.726562 L 23.730469 -50.121094 L 23.667969 -49.601562 C 23.25 -49.183594 22.90625 -48.960938 22.34375 -48.777344 C 21.691406 -48.652344 21.078125 -48.644531 20.417969 -48.640625 L 19.554688 -48.628906 C 19.246094 -48.628906 18.933594 -48.625 18.625 -48.625 L 18.148438 -48.621094 C 17.316406 -48.617188 16.484375 -48.613281 15.652344 -48.613281 C 14.796875 -48.609375 13.945312 -48.601562 13.089844 -48.59375 C 12.429688 -48.585938 11.765625 -48.582031 11.105469 -48.582031 C 10.792969 -48.582031 10.476562 -48.578125 10.160156 -48.574219 C 7.398438 -48.539062 7.398438 -48.539062 6.175781 -49.144531 C 5.941406 -49.296875 5.707031 -49.445312 5.460938 -49.601562 L 5.460938 -49.832031 L 7.074219 -49.832031 L 7.074219 -54.433594 L 8.457031 -54.433594 L 8.457031 -53.28125 L 9.839844 -53.28125 C 9.863281 -53.503906 9.863281 -53.503906 9.882812 -53.726562 L 9.941406 -54.304688 C 9.960938 -54.492188 9.980469 -54.683594 10 -54.878906 L 10.070312 -55.355469 Z M 90.964844 20.136719 C 91.957031 20.496094 92.789062 21.027344 93.617188 21.675781 C 94.199219 22.09375 94.554688 22.246094 95.273438 22.464844 C 96.40625 22.546875 97.351562 22.066406 98.367188 21.613281 C 98.917969 21.34375 99.449219 21.054688 99.980469 20.753906 C 100.863281 20.304688 101.636719 20.246094 102.617188 20.292969 C 104.066406 20.484375 105.183594 21.097656 106.347656 21.957031 C 107.121094 22.332031 107.859375 22.476562 108.710938 22.4375 C 109.390625 22.226562 109.980469 21.910156 110.597656 21.558594 C 110.914062 21.390625 111.230469 21.222656 111.542969 21.050781 L 111.992188 20.808594 C 112.664062 20.457031 113.277344 20.164062 114.035156 20.085938 C 114.871094 20.148438 115.464844 20.265625 116.183594 20.71875 C 116.5625 21.003906 116.941406 21.292969 117.320312 21.582031 C 118.292969 22.214844 119.339844 22.445312 120.464844 22.667969 C 120.472656 23.007812 120.476562 23.347656 120.480469 23.6875 L 120.488281 24.261719 L 120.464844 24.738281 L 120.234375 24.96875 C 119.28125 25.074219 118.652344 25.074219 117.757812 24.710938 C 117.191406 24.429688 116.632812 24.132812 116.085938 23.820312 L 116.085938 23.359375 C 115.136719 23.128906 114.296875 23.03125 113.320312 23.128906 C 112.71875 23.378906 112.148438 23.667969 111.574219 23.980469 C 110.648438 24.472656 109.75 24.824219 108.710938 24.96875 L 107.917969 25.085938 C 106.390625 25.085938 104.949219 24.078125 103.640625 23.359375 L 103.640625 22.898438 C 102.480469 22.8125 101.59375 22.773438 100.53125 23.285156 C 100.257812 23.460938 99.988281 23.636719 99.722656 23.820312 C 98.976562 24.3125 98.277344 24.703125 97.417969 24.96875 C 95.929688 25.046875 94.535156 24.996094 93.164062 24.378906 L 92.578125 24.046875 L 92.578125 23.589844 L 91.425781 23.359375 L 91.425781 22.898438 C 90.660156 22.808594 90.105469 22.769531 89.351562 22.898438 C 88.667969 23.253906 88.058594 23.660156 87.433594 24.113281 C 86.773438 24.535156 86.195312 24.773438 85.433594 24.96875 C 84.554688 24.898438 84.554688 24.898438 83.820312 24.738281 L 83.589844 24.507812 C 83.558594 23.894531 83.582031 23.285156 83.589844 22.667969 L 84.171875 22.515625 C 85.707031 22.082031 86.960938 21.613281 88.246094 20.660156 C 89.117188 20.046875 89.929688 20.050781 90.964844 20.136719 " fill-opacity="1" fill-rule="nonzero"/></g><g clip-path="url(#6dbc197c2c)"><path fill="#0c2240" d="M 165.40625 -50.519531 C 165.945312 -50.53125 166.480469 -50.53125 167.019531 -50.519531 L 167.25 -50.289062 C 167.257812 -49.753906 167.257812 -49.214844 167.25 -48.679688 C 166.640625 -48.375 166.183594 -48.417969 165.503906 -48.417969 L 164.675781 -48.414062 L 162.800781 -48.414062 C 161.933594 -48.410156 161.066406 -48.410156 160.195312 -48.410156 C 159.472656 -48.410156 158.746094 -48.410156 158.023438 -48.410156 C 156.3125 -48.40625 154.605469 -48.40625 152.894531 -48.40625 C 151.128906 -48.40625 149.367188 -48.40625 147.601562 -48.402344 C 146.085938 -48.398438 144.574219 -48.394531 143.058594 -48.398438 C 142.15625 -48.398438 141.25 -48.394531 140.347656 -48.394531 C 139.496094 -48.390625 138.644531 -48.390625 137.792969 -48.394531 C 137.332031 -48.394531 136.871094 -48.390625 136.40625 -48.390625 L 134.855469 -48.390625 L 134.292969 -48.449219 L 133.832031 -48.910156 C 133.804688 -49.628906 133.804688 -49.628906 133.832031 -50.289062 L 134.292969 -49.832031 L 134.292969 -49.140625 L 166.328125 -49.371094 L 166.558594 -50.289062 L 165.40625 -50.289062 Z M 4.769531 45.222656 C 5.15625 45.214844 5.539062 45.214844 5.921875 45.222656 L 5.921875 45.914062 L 6.382812 45.914062 L 6.425781 46.382812 L 6.484375 47.007812 C 6.503906 47.210938 6.523438 47.414062 6.542969 47.621094 C 6.605469 48.132812 6.707031 48.636719 6.84375 49.136719 L 7.320312 49.191406 C 8.199219 49.417969 8.835938 49.816406 9.609375 50.285156 C 9.292969 50.632812 9.292969 50.632812 8.917969 50.976562 L 8.457031 50.976562 L 8.917969 51.898438 C 8.101562 51.660156 7.460938 51.390625 6.773438 50.90625 C 6.375 50.644531 6.375 50.644531 5.921875 50.515625 C 4.871094 50.667969 4.035156 51.082031 3.15625 51.667969 C 2.683594 51.609375 2.683594 51.609375 2.234375 51.4375 L 1.773438 50.976562 C 1.816406 50.515625 1.816406 50.515625 2.003906 50.054688 L 2.695312 49.59375 L 3.386719 49.59375 L 3.386719 48.90625 L 2.726562 48.746094 L 2.003906 48.445312 C 1.6875 47.839844 1.6875 47.839844 1.542969 47.292969 L 2.003906 46.832031 C 2.964844 46.90625 3.695312 47.070312 4.539062 47.523438 L 4.53125 47.078125 L 4.527344 46.503906 L 4.519531 45.929688 L 4.539062 45.453125 Z M 16.0625 45.222656 C 16.640625 45.195312 16.640625 45.195312 17.214844 45.222656 L 17.445312 45.453125 C 17.464844 45.800781 17.464844 46.152344 17.460938 46.503906 L 17.453125 47.078125 L 17.445312 47.523438 L 17.816406 47.316406 L 18.3125 47.050781 L 18.796875 46.78125 C 19.289062 46.605469 19.289062 46.605469 19.8125 46.691406 L 20.210938 46.832031 L 20.441406 47.984375 C 19.226562 48.703125 19.226562 48.703125 18.828125 48.90625 L 18.367188 48.90625 L 18.367188 49.367188 L 18.902344 49.566406 C 19.519531 49.824219 19.519531 49.824219 20.210938 50.285156 C 20.15625 50.71875 20.15625 50.71875 19.980469 51.207031 C 19.582031 51.503906 19.582031 51.503906 19.058594 51.667969 C 18.5 51.453125 18.5 51.453125 17.90625 51.105469 C 17.332031 50.753906 17.332031 50.753906 16.753906 50.515625 C 15.898438 50.582031 15.148438 51.066406 14.394531 51.453125 L 13.640625 51.832031 L 13.066406 52.128906 L 12.605469 51.667969 L 13.296875 50.976562 L 12.835938 50.054688 L 13.316406 49.867188 C 14.03125 49.527344 14.5625 49.214844 15.140625 48.675781 C 15.535156 47.617188 15.679688 46.566406 15.832031 45.453125 Z M 120.925781 -50.058594 C 121.359375 -50.121094 121.359375 -50.121094 121.847656 -50.117188 L 122.335938 -50.121094 L 122.769531 -50.058594 L 123.230469 -49.601562 C 123.160156 -49.011719 123.160156 -49.011719 123 -48.449219 L 122.769531 -48.21875 C 122.3125 -48.195312 121.855469 -48.191406 121.394531 -48.191406 L 120.492188 -48.1875 L 119.488281 -48.191406 L 118.441406 -48.1875 C 117.488281 -48.1875 116.539062 -48.1875 115.585938 -48.1875 C 114.59375 -48.1875 113.601562 -48.1875 112.605469 -48.1875 C 110.9375 -48.1875 109.269531 -48.1875 107.601562 -48.1875 C 105.667969 -48.191406 103.738281 -48.191406 101.804688 -48.1875 C 100.148438 -48.1875 98.496094 -48.1875 96.839844 -48.1875 C 95.847656 -48.1875 94.859375 -48.1875 93.867188 -48.1875 C 92.9375 -48.1875 92.007812 -48.1875 91.078125 -48.1875 C 90.734375 -48.1875 90.390625 -48.1875 90.046875 -48.1875 C 89.582031 -48.1875 89.117188 -48.1875 88.652344 -48.191406 L 87.859375 -48.191406 L 87.277344 -48.21875 L 87.046875 -48.449219 C 87.039062 -48.910156 87.039062 -49.371094 87.046875 -49.832031 C 87.71875 -49.582031 88.148438 -49.421875 88.660156 -48.910156 C 89.199219 -48.839844 89.199219 -48.839844 89.835938 -48.851562 L 90.589844 -48.851562 L 91.417969 -48.855469 L 92.292969 -48.851562 C 93.082031 -48.851562 93.875 -48.851562 94.667969 -48.855469 C 95.496094 -48.859375 96.324219 -48.855469 97.15625 -48.855469 C 98.550781 -48.855469 99.949219 -48.859375 101.34375 -48.863281 C 102.953125 -48.867188 104.5625 -48.867188 106.167969 -48.867188 C 107.886719 -48.867188 109.601562 -48.867188 111.320312 -48.871094 C 111.8125 -48.871094 112.300781 -48.871094 112.792969 -48.871094 C 113.71875 -48.871094 114.640625 -48.875 115.5625 -48.875 L 116.382812 -48.875 C 118.058594 -48.882812 119.714844 -48.976562 121.386719 -49.140625 L 120.464844 -49.601562 Z M 120.925781 -50.058594 " fill-opacity="1" fill-rule="nonzero"/></g><g clip-path="url(#a247bd71de)"><path fill="#0c2240" d="M 111.476562 -62.949219 C 112.132812 -62.726562 112.578125 -62.535156 113.082031 -62.054688 C 114.109375 -61.339844 115.207031 -61.152344 116.417969 -60.878906 C 116.914062 -60.757812 117.414062 -60.640625 117.910156 -60.519531 L 118.640625 -60.347656 C 119.5 -60.140625 120.347656 -59.917969 121.199219 -59.683594 L 121.914062 -59.488281 C 122.578125 -59.253906 123.117188 -58.984375 123.691406 -58.574219 C 123.878906 -57.957031 123.878906 -57.957031 123.921875 -57.425781 L 123.359375 -57.539062 C 122.832031 -57.664062 122.832031 -57.664062 122.539062 -57.65625 L 122.308594 -57.195312 L 122.078125 -57.425781 C 121.304688 -57.492188 120.527344 -57.527344 119.753906 -57.566406 L 119.082031 -57.65625 L 118.851562 -58.117188 L 119.773438 -58.347656 L 119.773438 -58.804688 L 119.3125 -59.035156 L 119.082031 -59.496094 C 118.609375 -59.671875 118.128906 -59.832031 117.640625 -59.972656 L 116.847656 -60.210938 C 116.210938 -60.382812 115.582031 -60.519531 114.933594 -60.648438 C 113.65625 -60.996094 112.75 -61.535156 111.765625 -62.417969 L 111.476562 -62.71875 Z M 83.359375 -64.558594 C 83.820312 -64.582031 84.28125 -64.585938 84.742188 -64.582031 L 85.59375 -64.582031 L 86.484375 -64.574219 L 87.382812 -64.570312 C 88.117188 -64.570312 88.847656 -64.566406 89.582031 -64.558594 L 89.582031 -62.949219 L 83.359375 -62.949219 L 83.128906 -64.328125 Z M 30.582031 14.152344 C 31.074219 14.140625 31.5625 14.128906 32.050781 14.125 L 32.878906 14.105469 L 33.578125 14.152344 L 34.039062 14.613281 C 34.082031 15.179688 34.101562 15.742188 34.09375 16.3125 L 34.09375 16.816406 C 34.09375 17.171875 34.089844 17.527344 34.085938 17.878906 C 34.082031 18.421875 34.082031 18.964844 34.082031 19.511719 C 34.082031 19.851562 34.082031 20.195312 34.078125 20.539062 L 34.078125 21.035156 C 34.074219 21.425781 34.058594 21.816406 34.039062 22.207031 L 33.808594 22.4375 C 33.226562 22.492188 32.648438 22.535156 32.066406 22.566406 L 31.570312 22.597656 C 31.164062 22.621094 30.757812 22.644531 30.351562 22.667969 L 30.121094 21.976562 C 30.984375 21.84375 31.785156 21.746094 32.65625 21.746094 C 33.316406 18.28125 33.316406 18.28125 32.886719 14.84375 L 30.582031 14.382812 Z M 14.21875 49.367188 C 14.765625 49.550781 14.765625 49.550781 15.140625 49.824219 L 15.140625 50.054688 L 15.765625 49.898438 L 16.582031 49.695312 L 17.394531 49.492188 C 18.136719 49.367188 18.136719 49.367188 18.65625 49.4375 C 19.214844 49.65625 19.707031 49.964844 20.210938 50.285156 C 20.15625 50.71875 20.15625 50.71875 19.980469 51.207031 C 19.582031 51.503906 19.582031 51.503906 19.058594 51.667969 C 18.5 51.453125 18.5 51.453125 17.90625 51.105469 C 17.332031 50.757812 17.332031 50.757812 16.753906 50.515625 C 15.898438 50.582031 15.148438 51.066406 14.394531 51.453125 L 13.640625 51.832031 L 13.066406 52.128906 L 12.605469 51.667969 L 13.296875 50.976562 L 12.835938 50.054688 C 13.472656 49.683594 13.472656 49.683594 14.21875 49.367188 " fill-opacity="1" fill-rule="nonzero"/></g><g clip-path="url(#cb61314ed1)"><path fill="#0c2240" d="M 29.429688 49.59375 C 29.820312 49.582031 30.207031 49.574219 30.597656 49.582031 L 31.238281 49.585938 L 31.734375 49.59375 C 31.824219 50.132812 31.898438 50.667969 31.964844 51.207031 L 31.734375 51.4375 C 31.355469 51.464844 30.976562 51.476562 30.597656 51.480469 L 29.972656 51.488281 L 29.429688 51.4375 L 28.96875 50.976562 C 29.042969 50.386719 29.042969 50.386719 29.199219 49.824219 Z M 200.207031 16.222656 C 200.582031 16.21875 200.957031 16.210938 201.328125 16.210938 L 201.960938 16.199219 C 202.511719 16.222656 202.511719 16.222656 202.972656 16.453125 C 203.226562 17.21875 203.242188 17.808594 203.246094 18.613281 L 203.253906 19.394531 C 203.203125 20.136719 203.097656 20.636719 202.742188 21.285156 C 202.109375 21.496094 201.738281 21.542969 201.085938 21.53125 L 200.207031 21.515625 L 200.4375 21.058594 L 202.050781 20.597656 C 202.394531 19.90625 202.300781 19.265625 202.296875 18.496094 L 202.289062 17.601562 L 202.28125 16.914062 L 200.207031 16.453125 Z M 200.207031 16.222656 " fill-opacity="1" fill-rule="nonzero"/></g><g clip-path="url(#29c59c76d9)"><path fill="#0c2240" d="M 118.621094 27.5 L 120.464844 27.960938 C 120.472656 28.300781 120.476562 28.640625 120.480469 28.984375 L 120.488281 29.558594 L 120.464844 30.03125 L 120.234375 30.261719 C 119.890625 30.28125 119.546875 30.289062 119.203125 30.285156 L 118.574219 30.28125 L 117.253906 30.273438 C 116.710938 30.269531 116.167969 30.269531 115.625 30.261719 L 115.394531 29.800781 L 119.3125 29.574219 L 119.542969 28.191406 L 118.621094 27.730469 Z M 29.429688 52.816406 C 29.980469 52.75 29.980469 52.75 30.613281 52.773438 L 31.246094 52.792969 L 31.734375 52.816406 L 31.964844 54.429688 C 30.984375 54.695312 30.195312 54.605469 29.199219 54.429688 C 29.054688 54.011719 29.054688 54.011719 28.96875 53.507812 Z M 29.429688 46.375 C 30.03125 46.304688 30.03125 46.304688 30.726562 46.332031 L 31.429688 46.347656 L 31.964844 46.375 L 31.964844 47.984375 L 29.199219 47.984375 L 28.96875 47.0625 Z M 50.863281 26.351562 L 52.9375 27.5 L 52.9375 27.960938 C 55.441406 28.859375 57.917969 29.035156 60.542969 28.652344 L 60.3125 29.113281 C 58.804688 29.597656 57.378906 29.78125 55.816406 29.449219 C 53.925781 28.917969 52.296875 28.167969 50.863281 26.808594 Z M 81.976562 -56.273438 C 82.355469 -56.296875 82.734375 -56.304688 83.113281 -56.304688 L 83.742188 -56.304688 C 84.28125 -56.273438 84.28125 -56.273438 84.742188 -56.042969 C 84.753906 -55.660156 84.753906 -55.277344 84.742188 -54.894531 L 84.511719 -54.664062 C 84.132812 -54.640625 83.753906 -54.632812 83.375 -54.632812 L 82.75 -54.632812 C 82.207031 -54.664062 82.207031 -54.664062 81.746094 -54.894531 C 81.738281 -55.277344 81.738281 -55.660156 81.746094 -56.042969 Z M 81.976562 -56.273438 " fill-opacity="1" fill-rule="nonzero"/></g><path fill="#b50f08" d="M 16.523438 14.382812 C 17.019531 14.375 17.515625 14.371094 18.007812 14.367188 L 18.84375 14.359375 L 19.519531 14.382812 L 19.75 14.613281 C 19.773438 15.125 19.777344 15.632812 19.773438 16.144531 L 19.773438 16.609375 C 19.773438 17.097656 19.769531 17.589844 19.765625 18.078125 C 19.765625 18.410156 19.761719 18.742188 19.761719 19.074219 C 19.761719 19.886719 19.757812 20.703125 19.75 21.515625 L 19.289062 21.515625 L 19.289062 15.074219 L 16.523438 14.613281 Z M 16.523438 14.382812 " fill-opacity="1" fill-rule="nonzero"/><g clip-path="url(#ec4d1cb582)"><path fill="#0c2240" d="M 91.65625 64.09375 L 92.117188 64.324219 L 91.757812 64.699219 C 91.367188 65.238281 91.367188 65.238281 91.410156 65.9375 C 91.609375 66.664062 91.609375 66.664062 92.21875 67.128906 C 93.082031 67.570312 93.902344 67.824219 94.84375 68.050781 L 95.34375 68.238281 L 95.804688 68.929688 C 94.15625 68.789062 92.835938 68.210938 91.425781 67.359375 C 90.964844 66.855469 90.964844 66.855469 90.71875 66.066406 L 90.734375 65.246094 C 91.179688 64.570312 91.179688 64.570312 91.65625 64.09375 M 94.421875 -64.328125 L 95.113281 -64.328125 C 94.878906 -63.699219 94.632812 -63.148438 94.277344 -62.574219 L 93.960938 -62.027344 L 93.960938 -61.335938 C 94.566406 -61.035156 95.050781 -61.058594 95.726562 -61.035156 L 96.511719 -61.003906 L 97.332031 -60.976562 L 98.160156 -60.949219 C 98.832031 -60.921875 99.507812 -60.898438 100.183594 -60.878906 L 100.183594 -60.648438 C 99.203125 -60.632812 98.226562 -60.625 97.246094 -60.617188 L 96.402344 -60.605469 L 95.59375 -60.601562 L 94.847656 -60.59375 C 94.195312 -60.648438 93.820312 -60.773438 93.269531 -61.109375 C 93.34375 -62.167969 93.425781 -62.808594 93.933594 -63.753906 Z M 155.496094 59.492188 L 156.1875 59.492188 C 156.140625 59.992188 156.140625 59.992188 155.957031 60.644531 C 155.488281 61.265625 155.488281 61.265625 154.890625 61.878906 L 154.304688 62.503906 C 154.089844 62.648438 153.875 62.792969 153.652344 62.945312 C 152.816406 62.933594 152.816406 62.933594 152.039062 62.714844 C 151.488281 62.386719 151.125 62.007812 150.65625 61.5625 C 151.347656 61.5625 151.347656 61.5625 152.023438 61.9375 L 152.730469 62.253906 C 153.222656 62.164062 153.222656 62.164062 153.652344 61.792969 L 154.371094 61.261719 C 155.054688 60.695312 155.054688 60.695312 155.351562 59.996094 Z M 146.96875 46.605469 C 148.367188 47.019531 149.5 47.667969 150.570312 48.660156 C 151.144531 49.277344 151.339844 49.570312 151.578125 50.402344 L 151.578125 50.976562 L 150.65625 49.824219 L 150.125 49.121094 C 149.347656 48.273438 148.578125 47.75 147.46875 47.386719 C 146.816406 47.265625 146.191406 47.273438 145.527344 47.28125 L 144.777344 47.285156 L 144.203125 47.292969 L 143.972656 46.832031 C 144.992188 46.496094 145.90625 46.476562 146.96875 46.605469 M 143.511719 64.324219 L 143.742188 64.785156 C 144.367188 64.859375 144.972656 64.902344 145.601562 64.929688 L 146.128906 64.957031 C 146.5625 64.976562 146.996094 64.996094 147.429688 65.015625 L 147.660156 64.324219 L 148.351562 64.554688 L 148.351562 65.476562 C 146.789062 65.753906 145.035156 65.984375 143.511719 65.476562 Z M 159.875 -14.617188 L 160.335938 -14.617188 C 160.214844 -13.394531 159.84375 -12.421875 159.183594 -11.394531 C 158.324219 -10.347656 157.453125 -9.617188 156.1875 -9.09375 L 156.1875 -9.785156 C 156.550781 -10.097656 156.550781 -10.097656 157.039062 -10.417969 C 157.976562 -11.089844 158.625 -11.761719 159.183594 -12.777344 C 159.449219 -13.382812 159.664062 -13.984375 159.875 -14.617188 M 143.742188 -24.054688 L 144.433594 -23.824219 L 144.433594 -23.363281 L 144.824219 -23.183594 C 145.636719 -22.753906 146.355469 -22.195312 147.097656 -21.648438 C 147.613281 -21.320312 147.984375 -21.164062 148.582031 -21.0625 L 148.582031 -20.601562 L 149.019531 -20.472656 L 149.589844 -20.300781 L 150.15625 -20.128906 L 150.65625 -19.910156 L 151.117188 -19.21875 C 148.445312 -20.050781 146.101562 -21.390625 144.03125 -23.265625 L 143.742188 -23.59375 Z M 9.378906 58.339844 L 9.839844 58.570312 C 9.523438 59.03125 9.523438 59.03125 9.148438 59.492188 L 8.6875 59.492188 L 8.6875 60.183594 L 10.070312 59.953125 L 10.070312 60.414062 C 9.453125 60.773438 9.453125 60.773438 8.6875 61.101562 C 8.027344 61.03125 8.027344 61.03125 7.535156 60.875 L 7.304688 59.953125 Z M 152.269531 43.382812 C 153 43.4375 153.449219 43.628906 154.089844 43.996094 L 154.761719 44.476562 L 155.441406 44.945312 L 155.957031 45.453125 C 156.066406 46.050781 156.066406 46.050781 155.957031 46.605469 C 155.378906 47.25 155.378906 47.25 154.804688 47.753906 L 154.574219 47.292969 L 154.804688 46.878906 C 155.074219 46.378906 155.074219 46.378906 155.035156 45.796875 C 154.832031 45.167969 154.832031 45.167969 154.214844 44.703125 C 153.277344 44.230469 152.617188 44.144531 151.578125 44.070312 C 151.851562 43.710938 151.851562 43.710938 152.269531 43.382812 M 179.464844 25.660156 L 179.761719 26.058594 C 180.144531 26.566406 180.539062 27.058594 180.949219 27.542969 L 181.351562 28.027344 C 181.742188 28.445312 181.742188 28.445312 182.242188 28.609375 L 182.691406 28.652344 C 183.316406 28.367188 183.316406 28.367188 183.84375 27.960938 L 184.074219 27.5 L 184.765625 27.5 C 184.621094 27.902344 184.621094 27.902344 184.304688 28.421875 C 183.65625 28.953125 183.65625 28.953125 182.921875 29.34375 C 182.375 29.320312 182.375 29.320312 181.769531 29.113281 C 181.160156 28.617188 181.160156 28.617188 180.558594 28.003906 L 179.949219 27.394531 C 179.464844 26.808594 179.464844 26.808594 179.265625 26.289062 L 179.234375 25.890625 Z M 179.464844 25.660156 " fill-opacity="1" fill-rule="nonzero"/></g><g clip-path="url(#18e903135f)"><path fill="#0c2240" d="M 52.707031 43.152344 C 53.226562 43.210938 53.226562 43.210938 53.859375 43.382812 C 55.339844 44.605469 56.25 46.289062 57.085938 47.984375 C 56.667969 47.824219 56.667969 47.824219 56.164062 47.523438 C 55.820312 47.023438 55.820312 47.023438 55.503906 46.429688 C 54.902344 45.386719 54.3125 44.628906 53.398438 43.84375 L 52.707031 43.613281 Z M 147.890625 -28.195312 C 148.453125 -28.136719 149.003906 -28.066406 149.5625 -27.980469 C 150.632812 -27.820312 151.648438 -27.707031 152.730469 -27.734375 L 152.730469 -27.273438 C 150.945312 -27.25 149.199219 -27.28125 147.429688 -27.503906 L 147.429688 -27.046875 L 146.738281 -27.273438 C 147.113281 -27.667969 147.398438 -27.949219 147.890625 -28.195312 M 53.628906 -53.050781 L 54.4375 -52.9375 C 56.082031 -52.75 57.738281 -52.804688 59.390625 -52.820312 C 59.167969 -52.480469 59.167969 -52.480469 58.699219 -52.132812 C 58.058594 -52.070312 57.414062 -52.046875 56.769531 -52.058594 L 56.242188 -52.058594 C 55.269531 -52.066406 54.515625 -52.148438 53.628906 -52.59375 Z M 5.921875 57.191406 L 6.382812 57.191406 C 6.40625 57.726562 6.402344 58.265625 6.382812 58.800781 L 5.921875 59.492188 C 5.539062 59.421875 5.152344 59.347656 4.769531 59.261719 L 4.539062 59.03125 C 4.53125 58.648438 4.53125 58.265625 4.539062 57.882812 L 5.691406 57.652344 L 5.460938 58.339844 L 5.921875 58.339844 Z M 83.589844 28.191406 L 84.050781 28.421875 L 84.511719 29.800781 L 87.507812 29.800781 L 87.738281 30.261719 C 87.089844 30.269531 86.441406 30.273438 85.792969 30.277344 L 85.234375 30.28125 C 84.761719 30.285156 84.292969 30.273438 83.820312 30.261719 L 83.589844 30.03125 C 83.558594 29.417969 83.582031 28.808594 83.589844 28.191406 M 100.183594 -65.480469 L 100.183594 -65.019531 L 99.792969 -65.007812 C 99.207031 -64.984375 98.621094 -64.960938 98.039062 -64.933594 L 97.421875 -64.914062 L 96.832031 -64.886719 L 96.285156 -64.863281 C 95.734375 -64.8125 95.734375 -64.8125 95.113281 -64.328125 L 94.882812 -64.789062 L 95.113281 -65.25 C 96.847656 -65.800781 98.390625 -65.683594 100.183594 -65.480469 M 18.828125 55.808594 C 19.375 55.996094 19.375 55.996094 19.980469 56.269531 L 20.441406 56.960938 L 19.980469 57.882812 L 18.367188 57.652344 L 18.367188 56.960938 L 18.828125 57.191406 L 18.597656 56.5 L 19.058594 56.5 Z M 160.796875 54.429688 C 161.132812 54.417969 161.46875 54.40625 161.804688 54.398438 L 162.371094 54.382812 L 162.871094 54.429688 L 163.332031 54.890625 L 163.332031 55.808594 L 162.914062 55.59375 C 162.390625 55.324219 162.390625 55.324219 161.71875 55.121094 L 161.027344 55.578125 L 160.335938 55.347656 Z M 47.40625 46.832031 C 47.746094 47.851562 47.648438 48.875 47.628906 49.9375 C 47.617188 51.003906 47.691406 51.996094 47.867188 53.046875 C 47.40625 52.585938 47.40625 52.585938 47.148438 51.796875 C 46.808594 50.320312 46.78125 48.828125 47.175781 47.367188 Z M 47.40625 46.832031 " fill-opacity="1" fill-rule="nonzero"/></g><g clip-path="url(#0ec531c114)"><path fill="#0c2240" d="M 145.945312 40.808594 L 146.738281 40.796875 C 147.429688 40.851562 147.429688 40.851562 148.121094 41.308594 C 148.164062 41.914062 148.164062 41.914062 148.121094 42.460938 L 147.429688 42.230469 L 147.429688 41.539062 L 143.742188 41.539062 L 143.511719 41.078125 C 144.328125 40.828125 145.09375 40.8125 145.945312 40.808594 M 199.515625 10.46875 L 200.4375 10.929688 C 200.523438 11.40625 200.523438 11.40625 200.4375 12.082031 C 200.023438 12.664062 199.550781 13.179688 199.054688 13.691406 L 198.363281 13.460938 C 198.445312 13.363281 198.527344 13.261719 198.613281 13.15625 C 198.945312 12.730469 199.246094 12.320312 199.515625 11.851562 C 199.613281 11.09375 199.613281 11.09375 199.515625 10.46875 M 2.234375 53.046875 C 3.042969 53.105469 3.042969 53.105469 3.847656 53.277344 L 4.308594 53.738281 L 2.925781 53.507812 L 2.925781 54.429688 L 3.386719 55.121094 L 2.003906 54.660156 C 1.859375 54.113281 1.859375 54.113281 1.773438 53.507812 Z M 115.394531 -30.957031 C 116.21875 -30.605469 116.765625 -30.117188 117.398438 -29.492188 L 117.945312 -28.953125 C 118.390625 -28.425781 118.390625 -28.425781 118.566406 -27.898438 L 118.621094 -27.503906 C 118.21875 -27.261719 118.21875 -27.261719 117.699219 -27.046875 C 117.179688 -27.132812 117.179688 -27.132812 116.777344 -27.273438 L 116.777344 -27.503906 L 117.929688 -27.734375 C 117.398438 -28.800781 116.621094 -29.53125 115.773438 -30.34375 L 115.394531 -30.726562 Z M 167.941406 -65.019531 L 167.710938 -63.871094 C 167.078125 -63.609375 167.078125 -63.609375 166.328125 -63.410156 C 165.78125 -63.609375 165.78125 -63.609375 165.40625 -63.871094 C 165.652344 -64.0625 165.902344 -64.253906 166.15625 -64.445312 L 166.578125 -64.769531 C 167.019531 -65.019531 167.019531 -65.019531 167.941406 -65.019531 M 107.328125 -24.054688 L 108.25 -24.054688 L 108.25 -21.980469 L 106.867188 -21.980469 L 106.867188 -22.441406 L 107.328125 -22.441406 L 107.199219 -23.117188 L 107.097656 -23.824219 Z M 107.328125 -24.054688 " fill-opacity="1" fill-rule="nonzero"/></g><g clip-path="url(#768615b760)"><path fill="#0c2240" d="M 144.203125 66.855469 L 147.199219 67.085938 L 147.199219 67.546875 L 146.507812 68.007812 C 145.640625 67.933594 144.957031 67.75 144.203125 67.316406 Z M 133.601562 -64.101562 L 133.832031 -63.640625 L 133.601562 -62.949219 L 133.832031 -62.257812 C 134.640625 -61.976562 134.640625 -61.976562 135.445312 -61.796875 L 135.445312 -61.335938 L 133.371094 -61.566406 C 133.097656 -62.1875 133.097656 -62.1875 132.910156 -62.949219 C 133.226562 -63.609375 133.226562 -63.609375 133.601562 -64.101562 M 176.929688 20.367188 L 177.621094 20.828125 C 178.277344 20.964844 178.9375 21.058594 179.601562 21.15625 L 180.15625 21.285156 L 180.386719 21.746094 L 177.160156 21.515625 Z M 150.195312 63.636719 C 151.246094 63.761719 152.03125 64.046875 152.960938 64.554688 L 152.269531 64.785156 L 151.722656 64.671875 C 151.058594 64.542969 150.613281 64.621094 149.964844 64.785156 Z M 18.828125 53.046875 L 19.980469 53.277344 L 20.210938 54.199219 C 19.5625 54.671875 19.5625 54.671875 18.828125 55.121094 L 18.136719 54.890625 L 18.585938 54.472656 C 19.105469 53.988281 19.105469 53.988281 19.289062 53.277344 Z M 116.777344 23.820312 L 120.003906 24.507812 L 120.003906 24.046875 L 120.464844 24.046875 L 120.234375 24.96875 C 118.855469 25.042969 118.015625 24.894531 116.777344 24.277344 Z M 143.742188 -13.234375 L 150.425781 -12.777344 L 150.425781 -12.546875 C 149.726562 -12.496094 149.023438 -12.445312 148.324219 -12.402344 L 147.726562 -12.355469 C 146.589844 -12.285156 145.726562 -12.3125 144.664062 -12.777344 Z M 64.460938 25.199219 L 64.921875 25.199219 C 64.679688 26.019531 64.339844 26.519531 63.742188 27.113281 L 63.078125 27.730469 L 62.386719 27.5 L 62.90625 26.996094 C 63.542969 26.371094 63.542969 26.371094 64.042969 25.703125 Z M 114.933594 22.4375 C 115.496094 22.898438 115.496094 22.898438 115.855469 23.359375 L 115.496094 23.242188 C 114.457031 23.03125 113.414062 23.035156 112.398438 23.359375 L 112.167969 22.898438 C 113.117188 22.4375 113.882812 22.324219 114.933594 22.4375 M 190.527344 13 C 192.292969 13.265625 192.292969 13.265625 193.046875 13.75 C 193.371094 14.023438 193.679688 14.316406 193.984375 14.613281 L 193.753906 15.074219 L 193.40625 14.835938 C 192.382812 14.164062 191.492188 13.734375 190.296875 13.460938 Z M 190.527344 13 " fill-opacity="1" fill-rule="nonzero"/></g><path fill="#b50f08" d="M 9.839844 14.382812 L 10.53125 14.382812 L 10.53125 14.84375 L 11.453125 14.84375 L 11.453125 15.304688 L 10.761719 15.304688 L 10.761719 16.453125 L 10.300781 16.683594 Z M 9.839844 14.382812 " fill-opacity="1" fill-rule="nonzero"/></svg>