<svg xmlns="http://www.w3.org/2000/svg" xmlns:xlink="http://www.w3.org/1999/xlink" width="48" zoomAndPan="magnify" viewBox="0 0 36 36.000001" height="48" preserveAspectRatio="xMidYMid meet" version="1.0"><defs><clipPath id="562d76daec"><path d="M 0.488281 0 L 35.511719 0 L 35.511719 35.027344 L 0.488281 35.027344 Z M 0.488281 0 " clip-rule="nonzero"/></clipPath><clipPath id="3cd011e88f"><path d="M 2 11 L 35.511719 11 L 35.511719 35.027344 L 2 35.027344 Z M 2 11 " clip-rule="nonzero"/></clipPath><clipPath id="d858268128"><path d="M 0.488281 8 L 35.511719 8 L 35.511719 35.027344 L 0.488281 35.027344 Z M 0.488281 8 " clip-rule="nonzero"/></clipPath><clipPath id="7aef2403cf"><path d="M 0.488281 6 L 33 6 L 33 35.027344 L 0.488281 35.027344 Z M 0.488281 6 " clip-rule="nonzero"/></clipPath><clipPath id="0f1a6506e2"><path d="M 0.488281 21 L 31 21 L 31 35.027344 L 0.488281 35.027344 Z M 0.488281 21 " clip-rule="nonzero"/></clipPath><clipPath id="0a5b376d25"><path d="M 6 24 L 35.511719 24 L 35.511719 35.027344 L 6 35.027344 Z M 6 24 " clip-rule="nonzero"/></clipPath><clipPath id="18aac82f67"><path d="M 0.488281 25 L 35.511719 25 L 35.511719 35.027344 L 0.488281 35.027344 Z M 0.488281 25 " clip-rule="nonzero"/></clipPath><clipPath id="e9218dddc3"><path d="M 0.488281 13 L 14 13 L 14 24 L 0.488281 24 Z M 0.488281 13 " clip-rule="nonzero"/></clipPath><clipPath id="c031f0e21a"><path d="M 0.488281 5 L 35.511719 5 L 35.511719 18 L 0.488281 18 Z M 0.488281 5 " clip-rule="nonzero"/></clipPath><clipPath id="12851dc443"><path d="M 0.488281 14 L 33 14 L 33 35.027344 L 0.488281 35.027344 Z M 0.488281 14 " clip-rule="nonzero"/></clipPath><clipPath id="54e0801bd5"><path d="M 0.488281 17 L 3 17 L 3 19 L 0.488281 19 Z M 0.488281 17 " clip-rule="nonzero"/></clipPath><clipPath id="667bbaa4b2"><path d="M 6 7 L 35.511719 7 L 35.511719 35.027344 L 6 35.027344 Z M 6 7 " clip-rule="nonzero"/></clipPath><clipPath id="8ecef2a1f8"><path d="M 11 25 L 35.511719 25 L 35.511719 35.027344 L 11 35.027344 Z M 11 25 " clip-rule="nonzero"/></clipPath><clipPath id="74a752663e"><path d="M 0.488281 20 L 31 20 L 31 35.027344 L 0.488281 35.027344 Z M 0.488281 20 " clip-rule="nonzero"/></clipPath><clipPath id="141101df9d"><path d="M 0.488281 14 L 35.511719 14 L 35.511719 35.027344 L 0.488281 35.027344 Z M 0.488281 14 " clip-rule="nonzero"/></clipPath><clipPath id="33978e856c"><path d="M 0.488281 13 L 35.511719 13 L 35.511719 35.027344 L 0.488281 35.027344 Z M 0.488281 13 " clip-rule="nonzero"/></clipPath><clipPath id="62f665d2a7"><path d="M 0.488281 14 L 35.511719 14 L 35.511719 35.027344 L 0.488281 35.027344 Z M 0.488281 14 " clip-rule="nonzero"/></clipPath><clipPath id="787132772c"><path d="M 0.488281 26 L 35.511719 26 L 35.511719 35.027344 L 0.488281 35.027344 Z M 0.488281 26 " clip-rule="nonzero"/></clipPath><clipPath id="a14b88bf22"><path d="M 0.488281 22 L 35.511719 22 L 35.511719 35.027344 L 0.488281 35.027344 Z M 0.488281 22 " clip-rule="nonzero"/></clipPath></defs><g clip-path="url(#562d76daec)"><rect x="-3.6" width="43.2" fill="#fefefe" y="-3.6" height="43.200001" fill-opacity="1"/></g><g clip-path="url(#3cd011e88f)"><path fill="#193049" d="M 83.976562 70.976562 C 84.3125 70.90625 84.3125 70.90625 84.71875 70.902344 L 85.164062 70.902344 L 85.625 70.90625 L 86.089844 70.902344 L 86.535156 70.902344 L 86.941406 70.90625 C 87.300781 70.976562 87.300781 70.976562 87.625 71.222656 L 87.855469 71.535156 C 87.878906 72.160156 87.878906 72.160156 87.855469 72.832031 C 87.910156 73.140625 87.96875 73.453125 88.042969 73.757812 L 88.550781 73.839844 C 89.152344 73.945312 89.152344 73.945312 89.519531 74.078125 L 89.890625 74.128906 C 90.246094 73.867188 90.519531 73.570312 90.820312 73.25 L 91.183594 73.015625 C 91.71875 73.019531 91.71875 73.019531 92.292969 73.203125 C 92.804688 73.59375 92.804688 73.59375 93.289062 74.082031 L 93.777344 74.566406 C 94.140625 75.054688 94.140625 75.054688 94.230469 75.53125 C 94.074219 76.339844 93.546875 76.835938 93.03125 77.464844 L 93.773438 79.136719 L 94.203125 79.167969 L 94.765625 79.214844 L 95.324219 79.261719 C 95.804688 79.320312 95.804688 79.320312 96.175781 79.503906 C 96.378906 80.121094 96.390625 80.597656 96.394531 81.242188 L 96.402344 81.875 C 96.359375 82.472656 96.277344 82.875 95.992188 83.398438 C 95.433594 83.585938 95.058594 83.601562 94.476562 83.597656 L 93.972656 83.589844 L 93.585938 83.585938 C 93.347656 84.195312 93.136719 84.789062 93.03125 85.4375 C 93.335938 86 93.335938 86 93.773438 86.367188 L 93.773438 86.734375 L 94.140625 86.734375 C 94.191406 87.238281 94.191406 87.238281 94.140625 87.847656 C 93.8125 88.308594 93.8125 88.308594 93.367188 88.730469 L 92.933594 89.15625 C 92.476562 89.519531 92.113281 89.730469 91.554688 89.886719 C 91.058594 89.65625 90.675781 89.367188 90.25 89.03125 C 89.90625 88.769531 89.90625 88.769531 89.542969 88.625 C 88.984375 88.574219 88.558594 88.761719 88.042969 88.960938 L 88.019531 89.429688 L 87.984375 90.039062 L 87.953125 90.644531 C 87.855469 91.1875 87.855469 91.1875 87.621094 91.492188 C 87.300781 91.742188 87.300781 91.742188 86.941406 91.8125 L 86.535156 91.816406 L 86.089844 91.816406 L 85.625 91.8125 L 85.164062 91.816406 L 84.71875 91.816406 L 84.3125 91.8125 L 83.976562 91.742188 C 83.554688 91.109375 83.539062 90.785156 83.488281 90.039062 L 83.449219 89.429688 L 83.421875 88.960938 C 82.792969 88.820312 82.214844 88.734375 81.570312 88.777344 C 81.132812 89.027344 80.804688 89.304688 80.441406 89.65625 L 80.09375 89.886719 C 79.648438 89.886719 79.648438 89.886719 79.167969 89.703125 C 78.679688 89.304688 78.679688 89.304688 78.199219 88.808594 L 77.710938 88.320312 C 77.320312 87.847656 77.320312 87.847656 77.132812 87.460938 L 77.136719 87.105469 C 77.40625 86.75 77.40625 86.75 77.78125 86.386719 C 78.144531 86.011719 78.144531 86.011719 78.429688 85.625 C 78.464844 85.023438 78.464844 85.023438 78.242188 84.511719 C 78.179688 84.265625 78.117188 84.015625 78.058594 83.769531 L 77.5 83.734375 L 76.777344 83.6875 L 76.054688 83.644531 L 75.472656 83.585938 L 75.285156 83.398438 C 75.105469 82.140625 75.050781 80.941406 75.285156 79.691406 L 75.472656 79.503906 C 75.875 79.464844 76.277344 79.429688 76.683594 79.402344 L 77.355469 79.355469 L 77.875 79.320312 L 78.046875 78.792969 C 78.242188 78.207031 78.242188 78.207031 78.441406 77.753906 L 78.429688 77.28125 C 78.109375 76.929688 77.773438 76.625 77.40625 76.324219 L 77.136719 75.984375 C 77.125 75.546875 77.125 75.546875 77.320312 75.054688 C 77.628906 74.660156 77.925781 74.320312 78.277344 73.96875 L 78.542969 73.679688 C 78.804688 73.414062 78.804688 73.414062 79.351562 73.015625 C 79.941406 73.019531 79.941406 73.019531 80.460938 73.203125 L 80.972656 73.699219 L 81.570312 74.128906 C 82.21875 74.101562 82.804688 73.949219 83.421875 73.757812 L 83.449219 73.292969 L 83.488281 72.679688 C 83.503906 72.480469 83.515625 72.28125 83.527344 72.074219 C 83.605469 71.535156 83.605469 71.535156 83.976562 70.976562 M 50.433594 99.125 L 51.070312 99.113281 C 51.625 99.15625 51.625 99.15625 52.179688 99.527344 C 52.230469 99.96875 52.230469 99.96875 52.210938 100.480469 L 52.199219 100.988281 L 52.179688 101.382812 L 52.523438 101.457031 L 52.976562 101.554688 L 53.421875 101.652344 C 53.84375 101.753906 53.84375 101.753906 54.394531 101.9375 L 54.929688 101.566406 L 55.503906 101.195312 C 56.097656 101.234375 56.449219 101.394531 56.964844 101.691406 L 57.503906 102.078125 L 58.050781 102.457031 L 58.464844 102.867188 C 58.550781 103.335938 58.550781 103.335938 58.464844 103.792969 C 58.261719 104.167969 58.261719 104.167969 58 104.5 L 57.742188 104.839844 L 57.539062 105.089844 C 57.769531 105.722656 58.015625 106.253906 58.464844 106.757812 C 59.007812 106.910156 59.46875 106.933594 60.03125 106.925781 L 60.496094 106.945312 L 61.050781 107.316406 C 61.101562 107.855469 61.121094 108.351562 61.109375 108.890625 L 61.109375 109.332031 C 61.109375 109.710938 61.082031 110.089844 61.050781 110.46875 L 60.683594 110.835938 C 60.320312 110.878906 59.957031 110.914062 59.597656 110.941406 C 59 111.011719 59 111.011719 58.464844 111.207031 C 58.117188 111.609375 57.964844 111.957031 57.789062 112.453125 C 57.71875 112.90625 57.765625 113.1875 57.910156 113.617188 L 58.277344 113.617188 L 58.648438 114.175781 C 58.632812 114.609375 58.632812 114.609375 58.464844 115.101562 C 58.085938 115.605469 58.085938 115.605469 57.609375 116.097656 C 57.453125 116.265625 57.296875 116.429688 57.140625 116.601562 C 56.964844 116.71875 56.792969 116.835938 56.613281 116.957031 C 55.953125 116.953125 55.953125 116.953125 55.320312 116.769531 L 54.9375 116.476562 L 54.582031 116.214844 C 54.058594 116.1875 54.058594 116.1875 53.519531 116.273438 L 52.964844 116.339844 L 52.546875 116.398438 L 52.554688 116.730469 C 52.5625 117.511719 52.558594 118.234375 52.363281 118.996094 C 51.109375 119.21875 49.703125 119.402344 48.480469 118.996094 L 48.453125 118.535156 C 48.386719 117.914062 48.304688 117.363281 48.109375 116.769531 C 47.757812 116.410156 47.480469 116.265625 47.007812 116.09375 C 46.609375 116 46.609375 116 46.125 116.132812 C 45.703125 116.390625 45.703125 116.390625 45.339844 116.699219 C 44.96875 116.957031 44.96875 116.957031 44.550781 117.027344 C 44.042969 116.957031 44.042969 116.957031 43.503906 116.589844 L 42.957031 116.097656 L 42.40625 115.617188 L 42.011719 115.101562 C 42.019531 114.507812 42.019531 114.507812 42.195312 113.988281 L 42.589844 113.605469 L 42.933594 113.246094 C 42.929688 112.792969 42.929688 112.792969 42.75 112.320312 L 42.554688 111.707031 L 42.378906 111.207031 L 41.902344 111.175781 L 41.28125 111.128906 L 40.664062 111.082031 L 40.160156 111.023438 L 39.976562 110.835938 C 39.960938 110.589844 39.957031 110.339844 39.957031 110.089844 L 39.960938 109.636719 L 39.964844 109.15625 L 39.96875 108.679688 C 39.96875 108.285156 39.972656 107.894531 39.976562 107.5 L 40.441406 107.417969 C 41.046875 107.292969 41.617188 107.15625 42.195312 106.945312 C 42.65625 106.351562 42.730469 105.9375 42.878906 105.207031 L 42.933594 104.71875 L 42.566406 104.71875 C 42.242188 104.300781 42.242188 104.300781 42.011719 103.792969 C 42.296875 103.003906 42.871094 102.460938 43.460938 101.886719 C 43.859375 101.566406 43.859375 101.566406 44.550781 101.347656 L 45.152344 101.382812 C 45.40625 101.558594 45.652344 101.746094 45.894531 101.9375 C 46.339844 101.917969 46.339844 101.917969 46.816406 101.753906 L 47.523438 101.554688 C 47.714844 101.5 47.910156 101.441406 48.109375 101.382812 L 48.097656 101.03125 L 48.085938 100.570312 L 48.074219 100.117188 L 48.109375 99.714844 C 48.480469 99.34375 48.480469 99.34375 48.796875 99.230469 C 49.347656 99.136719 49.875 99.125 50.433594 99.125 M 86.820312 39.324219 C 88.039062 39.886719 88.972656 40.648438 89.808594 41.695312 C 90.257812 42.429688 90.347656 43.050781 90.375 43.910156 C 90.320312 45.050781 90.128906 45.910156 89.519531 46.875 L 89.261719 47.289062 C 88.207031 48.792969 86.671875 49.875 85.082031 50.769531 C 84.804688 50.890625 84.523438 51.007812 84.242188 51.117188 C 83.316406 51.476562 82.402344 51.855469 81.492188 52.242188 C 81.152344 52.382812 80.808594 52.507812 80.460938 52.621094 C 80.246094 53.167969 80.246094 53.167969 80.09375 53.734375 L 79.90625 54.105469 L 80.277344 54.105469 L 80.371094 54.523438 C 80.621094 55.085938 80.621094 55.085938 81.25 55.410156 C 82.308594 55.914062 83.425781 56.027344 84.574219 56.179688 C 85.003906 56.242188 85.433594 56.300781 85.859375 56.363281 L 86.429688 56.4375 C 86.855469 56.503906 87.257812 56.597656 87.671875 56.703125 C 88.09375 56.726562 88.519531 56.742188 88.941406 56.75 L 89.613281 56.761719 C 90.328125 56.695312 90.761719 56.527344 91.371094 56.144531 C 91.851562 55.46875 92.125 54.9375 92.246094 54.117188 L 92.292969 53.550781 C 91.03125 53.628906 90.191406 53.90625 89.082031 54.488281 C 87.574219 55.21875 86.265625 55.421875 84.601562 55.320312 C 83.535156 55.210938 82.550781 54.914062 81.570312 54.476562 L 81.386719 53.550781 L 81.921875 53.285156 C 82.171875 53.160156 82.421875 53.035156 82.667969 52.914062 L 83.070312 52.714844 C 83.773438 52.363281 84.464844 52.003906 85.148438 51.621094 C 87.511719 50.308594 89.628906 49.574219 92.351562 49.574219 C 93.285156 49.6875 93.980469 49.992188 94.777344 50.503906 L 95.066406 50.769531 L 95.066406 51.140625 L 95.621094 51.324219 C 96.089844 51.972656 96.339844 52.644531 96.441406 53.433594 C 96.308594 54.527344 96.125 55.480469 95.503906 56.410156 C 94.273438 57.894531 92.773438 58.660156 91.011719 59.34375 L 90.65625 59.480469 C 87.851562 60.511719 84.570312 60.519531 81.636719 60.164062 C 80.019531 59.875 78.5625 59.257812 77.285156 58.230469 C 76.472656 57.488281 75.957031 56.753906 75.597656 55.707031 C 75.285156 54.507812 75.175781 53.417969 75.484375 52.207031 C 75.742188 51.480469 76.042969 50.898438 76.578125 50.34375 C 78.101562 49.050781 79.898438 48.28125 81.707031 47.488281 C 83.726562 46.601562 83.726562 46.601562 85.414062 45.214844 L 85.636719 44.835938 L 85.636719 44.09375 C 84.140625 44.058594 82.785156 44.074219 81.320312 44.398438 C 80.761719 44.476562 80.300781 44.410156 79.746094 44.328125 C 79.25 44.253906 79.25 44.253906 78.796875 44.28125 C 78.074219 44.902344 77.710938 45.640625 77.320312 46.503906 L 76.765625 46.320312 L 76.707031 45.960938 L 76.582031 45.578125 C 76.027344 45.335938 76.027344 45.335938 75.472656 45.207031 L 75.65625 44.464844 L 76.359375 44.417969 C 76.765625 44.378906 76.765625 44.378906 77.136719 44.28125 C 77.519531 43.949219 77.519531 43.949219 77.6875 43.539062 L 77.6875 43.167969 L 77.214844 42.738281 L 76.765625 42.242188 C 76.785156 41.804688 76.785156 41.804688 76.949219 41.3125 C 77.644531 40.300781 78.472656 39.464844 79.5625 38.890625 C 81.859375 37.800781 84.582031 38.371094 86.820312 39.324219 M 55.285156 38.925781 C 56.148438 39.269531 56.871094 39.742188 57.539062 40.386719 C 57.757812 40.679688 57.976562 40.976562 58.1875 41.277344 C 58.484375 41.710938 58.484375 41.710938 58.832031 42.054688 C 59.367188 42.25 59.734375 42.25 60.3125 42.242188 L 60.496094 41.871094 L 61.605469 41.871094 C 61.558594 42.21875 61.558594 42.21875 61.421875 42.613281 C 61.039062 42.84375 61.039062 42.84375 60.683594 42.980469 L 60.972656 43.320312 L 61.238281 43.722656 L 61.050781 44.28125 C 60.425781 44.179688 60.113281 44.085938 59.574219 43.722656 C 58.617188 43.589844 57.742188 43.6875 56.835938 44.003906 C 55.164062 44.558594 53.339844 44.3125 51.625 44.09375 L 51.625 44.835938 L 51.957031 44.996094 C 52.363281 45.207031 52.363281 45.207031 52.964844 45.613281 C 53.691406 46.078125 54.460938 46.414062 55.25 46.75 C 57.085938 47.53125 58.933594 48.359375 60.3125 49.84375 L 60.625 50.171875 C 61.238281 50.855469 61.78125 51.519531 61.976562 52.4375 C 62.09375 53.628906 62.140625 54.808594 61.6875 55.9375 C 61.132812 56.992188 60.378906 57.859375 59.425781 58.566406 C 58.8125 58.941406 58.226562 59.1875 57.550781 59.425781 L 56.898438 59.660156 C 54.285156 60.4375 50.921875 60.320312 48.25 59.832031 C 46.386719 59.367188 44.316406 58.789062 42.839844 57.523438 C 42.328125 57.027344 41.9375 56.632812 41.6875 55.953125 C 41.496094 55.257812 41.410156 54.625 41.535156 53.910156 C 41.773438 53.15625 42.191406 52.605469 42.726562 52.035156 C 43.597656 51.28125 44.628906 50.832031 45.730469 50.527344 C 48.144531 50.082031 50.667969 50.390625 52.976562 51.160156 C 54.105469 51.597656 55.195312 52.125 56.058594 52.992188 C 56.285156 53.398438 56.285156 53.398438 56.429688 53.734375 C 56.140625 54.082031 56.140625 54.082031 55.691406 54.476562 C 54.355469 54.9375 53.019531 55.023438 51.625 54.847656 C 50.835938 54.671875 50.082031 54.414062 49.324219 54.140625 C 48.222656 53.773438 47.40625 53.714844 46.261719 53.921875 L 46.078125 54.664062 C 47.238281 55.027344 48.394531 55.355469 49.589844 55.589844 L 50.085938 55.6875 C 51.941406 55.949219 54.066406 56 55.855469 55.398438 C 56.292969 55.210938 56.292969 55.210938 56.835938 54.8125 C 57.160156 54.308594 57.238281 54.125 57.273438 53.550781 C 57.234375 52.972656 57.152344 52.777344 56.835938 52.265625 C 56.445312 51.84375 56.445312 51.84375 55.875 51.695312 L 55.875 51.324219 L 55.320312 51.324219 L 55.320312 50.953125 L 54.671875 50.8125 C 53.851562 50.605469 53.128906 50.285156 52.375 49.898438 L 51.984375 49.699219 C 50.523438 48.9375 49.277344 48.070312 48.335938 46.691406 C 47.707031 45.652344 47.515625 44.785156 47.464844 43.5625 C 47.492188 42.507812 47.640625 41.695312 48.171875 40.78125 C 48.824219 39.949219 49.625 39.503906 50.578125 39.082031 C 52.074219 38.554688 53.757812 38.480469 55.285156 38.925781 M 18.925781 12.414062 C 20.777344 13.628906 20.777344 13.628906 21.304688 14.058594 L 21.304688 14.429688 L 22.230469 14.800781 L 22.230469 15.171875 L 22.601562 15.289062 C 23.101562 15.519531 23.382812 15.726562 23.792969 16.078125 C 24.714844 16.78125 25.664062 16.992188 26.78125 17.234375 C 27.175781 17.328125 27.570312 17.417969 27.964844 17.511719 L 28.539062 17.644531 C 29.226562 17.804688 29.90625 17.984375 30.582031 18.175781 L 31.15625 18.332031 C 31.691406 18.523438 32.121094 18.742188 32.582031 19.066406 C 33.027344 19.820312 33.175781 20.414062 33.207031 21.289062 C 33.171875 22.175781 33.050781 22.757812 32.582031 23.515625 C 32.105469 23.890625 31.84375 24.082031 31.289062 24.257812 C 30.726562 24.3125 30.1875 24.304688 29.625 24.257812 L 29.488281 23.882812 C 28.992188 22.574219 28.992188 22.574219 28.144531 21.476562 C 27.390625 20.945312 26.804688 20.773438 25.902344 20.664062 C 25.078125 20.746094 24.496094 20.945312 23.765625 21.335938 C 23.140625 21.816406 22.875 22.371094 22.570312 23.089844 C 22.453125 23.414062 22.339844 23.742188 22.230469 24.070312 C 21.242188 24.273438 20.289062 24.285156 19.285156 24.289062 L 18.757812 24.289062 C 18.394531 24.292969 18.027344 24.292969 17.660156 24.292969 C 17.097656 24.292969 16.539062 24.296875 15.976562 24.300781 C 15.621094 24.300781 15.261719 24.300781 14.90625 24.300781 L 14.398438 24.304688 L 13.925781 24.300781 L 13.511719 24.304688 L 13.171875 24.257812 C 12.753906 23.835938 12.683594 23.566406 12.5 23.003906 C 12.292969 22.460938 12.117188 22.089844 11.710938 21.667969 C 11.105469 21.207031 10.597656 20.875 9.84375 20.734375 C 9.222656 20.675781 8.730469 20.660156 8.152344 20.902344 C 7.894531 21.03125 7.636719 21.171875 7.386719 21.3125 C 7.070312 21.476562 7.070312 21.476562 6.703125 21.476562 C 6.398438 22.070312 6.121094 22.675781 5.847656 23.285156 L 5.597656 23.835938 L 5.40625 24.257812 C 5.082031 24.242188 4.761719 24.222656 4.4375 24.199219 L 3.890625 24.167969 C 3.375 24.070312 3.375 24.070312 2.941406 23.890625 L 2.632812 23.515625 C 2.542969 22.945312 2.566406 22.386719 2.589844 21.8125 L 2.597656 21.335938 C 2.605469 20.949219 2.621094 20.566406 2.632812 20.179688 C 3.609375 19.597656 3.609375 19.597656 3.929688 19.4375 L 4.296875 19.4375 C 4.328125 18.902344 4.328125 18.902344 4.296875 18.324219 L 3.929688 17.769531 L 4.539062 17.398438 C 5.488281 16.699219 6.058594 15.769531 6.679688 14.785156 C 7.246094 13.902344 7.855469 13.167969 8.734375 12.578125 C 9.503906 12.183594 10.238281 12.140625 11.085938 12.121094 L 11.503906 12.109375 C 11.792969 12.101562 12.082031 12.09375 12.371094 12.089844 C 12.808594 12.078125 13.242188 12.066406 13.679688 12.050781 C 17.617188 11.941406 17.617188 11.941406 18.925781 12.414062 " fill-opacity="1" fill-rule="nonzero"/></g><g clip-path="url(#d858268128)"><path fill="#cf1b15" d="M 17.539062 100.421875 C 18.777344 101.039062 20.019531 101.921875 20.871094 103.023438 C 21.675781 104.308594 22.265625 105.605469 22.351562 107.125 C 22.375 108.917969 21.863281 110.460938 21.070312 112.054688 C 20.5 113.0625 19.808594 114 19.132812 114.941406 L 18.863281 115.320312 C 18.636719 115.625 18.402344 115.921875 18.164062 116.214844 L 17.792969 116.214844 L 17.667969 116.609375 C 17.371094 117.261719 16.980469 117.695312 16.5 118.21875 L 16.003906 118.765625 L 15.574219 119.179688 L 15.203125 119.179688 L 14.835938 119.921875 C 14.488281 119.875 14.488281 119.875 14.097656 119.738281 C 13.96875 119.492188 13.847656 119.242188 13.726562 118.996094 L 13.394531 118.84375 C 12.855469 118.554688 12.578125 118.179688 12.199219 117.699219 L 11.804688 117.199219 L 11.507812 116.769531 L 11.507812 116.398438 L 11.136719 116.398438 C 10.910156 116.140625 10.910156 116.140625 10.65625 115.777344 L 10.371094 115.375 L 10.074219 114.941406 L 9.769531 114.5 C 7.238281 110.820312 7.238281 110.820312 6.886719 108.613281 C 6.769531 106.996094 6.96875 105.761719 7.632812 104.296875 C 8.316406 102.9375 9.304688 101.898438 10.558594 101.046875 C 12.597656 99.878906 15.3125 99.625 17.539062 100.421875 M 49.21875 68.382812 C 50.757812 68.746094 52.003906 69.34375 53.214844 70.371094 C 53.945312 71.066406 54.554688 71.820312 55.136719 72.644531 L 55.40625 73.015625 C 56.574219 74.835938 56.847656 77.390625 56.984375 79.503906 C 57.441406 79.246094 57.441406 79.246094 57.910156 78.765625 C 58.480469 77.691406 58.746094 76.632812 58.832031 75.425781 C 59.167969 75.472656 59.167969 75.472656 59.574219 75.613281 C 60.019531 76.117188 60.34375 76.699219 60.683594 77.28125 L 60.9375 77.71875 C 61.777344 79.269531 62.175781 80.921875 62.230469 82.679688 C 62.179688 84.300781 61.742188 85.695312 60.9375 87.09375 C 60.027344 88.464844 58.886719 89.191406 57.445312 89.945312 C 56.679688 90.300781 55.984375 90.542969 55.136719 90.628906 L 55.136719 90.257812 L 55.503906 90.257812 L 55.503906 89.886719 L 55.933594 89.492188 C 56.402344 88.992188 56.675781 88.582031 56.890625 87.929688 C 57.121094 86.816406 57.171875 85.644531 56.816406 84.554688 C 56.691406 84.269531 56.554688 83.992188 56.40625 83.714844 C 56.246094 83.398438 56.246094 83.398438 56.246094 83.027344 L 55.875 83.027344 L 55.8125 83.359375 C 55.640625 84.21875 55.464844 84.898438 54.949219 85.625 C 54.617188 85.578125 54.617188 85.578125 54.210938 85.4375 C 53.511719 84.675781 53.328125 83.746094 53.066406 82.769531 C 52.730469 81.257812 52.910156 80.058594 53.351562 78.589844 L 53.472656 78.207031 C 52.285156 78.777344 51.453125 79.535156 50.699219 80.617188 C 49.988281 82.113281 49.667969 83.605469 49.773438 85.253906 C 49.875 85.9375 50.003906 86.613281 50.144531 87.292969 C 49.714844 87.246094 49.714844 87.246094 49.21875 87.105469 C 48.941406 86.769531 48.941406 86.769531 48.722656 86.367188 C 48.585938 86.113281 48.445312 85.867188 48.296875 85.625 L 47.925781 85.4375 C 47.710938 86.523438 47.628906 87.53125 47.867188 88.613281 C 48.171875 89.277344 48.546875 89.71875 49.035156 90.257812 L 48.851562 90.628906 C 47.066406 89.875 45.699219 88.914062 44.414062 87.476562 C 43.960938 86.824219 43.617188 86.167969 43.304688 85.4375 L 43.117188 85.054688 C 42.511719 83.636719 42.609375 81.941406 42.75 80.433594 C 43.109375 78.304688 44.050781 76.671875 45.394531 75.019531 C 45.558594 74.847656 45.722656 74.675781 45.894531 74.5 L 46.261719 74.5 L 46.226562 75.03125 C 46.230469 75.933594 46.421875 76.84375 46.816406 77.652344 C 47.1875 77.898438 47.1875 77.898438 47.554688 78.023438 L 47.742188 77.28125 L 48.109375 77.28125 L 48.25 76.921875 C 48.378906 76.605469 48.511719 76.289062 48.65625 75.980469 C 49.429688 74.332031 49.726562 72.804688 49.589844 70.976562 C 49.511719 70.539062 49.414062 70.101562 49.300781 69.671875 C 49.203125 69.234375 49.191406 68.828125 49.21875 68.382812 M -56.695312 8.789062 L -56.167969 8.785156 C -55.804688 8.785156 -55.4375 8.785156 -55.070312 8.785156 C -54.515625 8.789062 -53.960938 8.78125 -53.402344 8.777344 C -53.046875 8.777344 -52.6875 8.777344 -52.328125 8.777344 L -51.832031 8.769531 C -50.648438 8.785156 -49.609375 9.015625 -48.574219 9.609375 C -48.050781 10.144531 -47.59375 10.6875 -47.363281 11.410156 C -47.253906 11.96875 -47.230469 12.507812 -47.207031 13.078125 L -47.191406 13.449219 C -47.171875 13.855469 -47.15625 14.261719 -47.140625 14.667969 L -47.101562 15.515625 C -47.078125 16.109375 -47.054688 16.703125 -47.027344 17.296875 C -46.996094 18.054688 -46.964844 18.8125 -46.933594 19.570312 C -46.878906 20.828125 -46.824219 22.082031 -46.773438 23.339844 L -46.746094 24.011719 L -46.726562 24.628906 L -46.699219 25.242188 L -46.726562 25.742188 L -47.09375 26.109375 L -47.832031 26.109375 C -48.0625 24.878906 -48.035156 23.65625 -48.019531 22.402344 L -48.398438 22.421875 L -48.898438 22.4375 L -49.390625 22.457031 C -49.867188 22.402344 -49.867188 22.402344 -50.296875 22.144531 L -50.605469 21.847656 L -50.605469 21.476562 L -58.371094 21.660156 L -58.742188 23.332031 L -59.851562 23.332031 L -59.851562 22.402344 L -60.960938 22.402344 L -60.960938 26.109375 L -62.070312 25.925781 L -62.070312 25.554688 L -62.4375 25.554688 C -62.457031 24.414062 -62.457031 24.414062 -62.4375 24.070312 L -62.253906 23.886719 C -62.207031 23.382812 -62.175781 22.882812 -62.148438 22.378906 L -62.125 21.910156 C -62.058594 20.46875 -62.058594 19.027344 -62.074219 17.585938 C -62.082031 16.652344 -62.046875 15.753906 -61.929688 14.828125 C -61.882812 14.4375 -61.859375 14.050781 -61.84375 13.660156 L -61.828125 13.285156 C -61.820312 13.035156 -61.8125 12.785156 -61.804688 12.535156 C -61.765625 11.679688 -61.585938 11.082031 -61.144531 10.351562 C -59.851562 9.054688 -58.46875 8.78125 -56.695312 8.789062 " fill-opacity="1" fill-rule="nonzero"/></g><g clip-path="url(#7aef2403cf)"><path fill="#193049" d="M 26.851562 45.023438 L 27.222656 45.023438 L 27.222656 57.8125 L 29.625 57.8125 L 29.996094 58 C 30.015625 59.066406 30.015625 59.066406 29.808594 59.484375 C 26.148438 59.488281 22.488281 59.488281 18.828125 59.492188 C 17.128906 59.492188 15.429688 59.496094 13.730469 59.496094 C 12.25 59.5 10.769531 59.5 9.285156 59.5 C 8.503906 59.5 7.71875 59.5 6.933594 59.503906 C 6.195312 59.503906 5.457031 59.503906 4.71875 59.503906 C 4.449219 59.503906 4.175781 59.503906 3.90625 59.503906 C 3.535156 59.503906 3.167969 59.503906 2.796875 59.503906 L 2.171875 59.503906 L 1.710938 59.484375 L 1.523438 59.296875 C 1.515625 58.863281 1.515625 58.433594 1.523438 58 C 2.089844 57.714844 2.683594 57.796875 3.304688 57.800781 L 3.699219 57.804688 C 4.023438 57.808594 4.34375 57.808594 4.667969 57.8125 L 4.660156 57.378906 C 4.640625 55.144531 4.640625 55.144531 4.851562 54.105469 C 5.40625 53.734375 5.40625 53.734375 5.910156 53.691406 C 6.109375 53.695312 6.308594 53.695312 6.511719 53.699219 L 7.164062 53.703125 L 7.84375 53.710938 L 8.53125 53.71875 C 9.09375 53.722656 9.652344 53.726562 10.214844 53.734375 L 10.199219 53.058594 C 10.195312 52.765625 10.195312 52.476562 10.191406 52.183594 L 10.179688 51.738281 C 10.179688 51.351562 10.195312 50.96875 10.214844 50.582031 L 10.582031 50.210938 C 11.117188 50.152344 11.117188 50.152344 11.792969 50.136719 L 12.523438 50.113281 L 13.285156 50.097656 L 14.058594 50.074219 C 14.6875 50.058594 15.316406 50.042969 15.945312 50.027344 L 16.011719 49.390625 L 16.105469 48.566406 L 16.148438 48.148438 C 16.191406 47.785156 16.253906 47.421875 16.3125 47.0625 L 16.683594 46.691406 C 17.867188 46.433594 19.011719 46.519531 20.195312 46.691406 L 20.195312 48.542969 L 18.164062 48.542969 L 18.175781 49.171875 C 18.179688 49.445312 18.183594 49.71875 18.1875 49.992188 C 18.1875 50.128906 18.191406 50.265625 18.195312 50.40625 C 18.199219 50.773438 18.183594 51.144531 18.164062 51.511719 L 17.792969 52.066406 C 17.242188 52.128906 17.242188 52.128906 16.542969 52.121094 L 16.171875 52.117188 C 15.78125 52.117188 15.390625 52.109375 14.996094 52.101562 C 14.730469 52.097656 14.464844 52.097656 14.199219 52.09375 C 13.550781 52.085938 12.898438 52.078125 12.246094 52.066406 L 12.261719 52.695312 C 12.265625 52.96875 12.265625 53.242188 12.269531 53.515625 C 12.273438 53.652344 12.277344 53.789062 12.28125 53.929688 C 12.28125 54.296875 12.265625 54.664062 12.246094 55.03125 L 11.878906 55.589844 C 11.359375 55.652344 11.359375 55.652344 10.710938 55.644531 L 10.003906 55.636719 L 9.265625 55.625 C 9.019531 55.621094 8.769531 55.617188 8.523438 55.617188 C 7.914062 55.609375 7.308594 55.601562 6.703125 55.589844 C 6.695312 55.890625 6.691406 56.191406 6.691406 56.492188 L 6.683594 57 C 6.671875 57.445312 6.671875 57.445312 6.886719 57.8125 L 20.75 57.8125 L 20.75 58.183594 C 21.292969 58.5625 21.769531 58.800781 22.414062 58.925781 C 23.121094 58.972656 23.832031 58.96875 24.539062 58.972656 L 25.125 58.984375 L 25.691406 58.988281 L 26.203125 58.992188 C 26.683594 58.960938 26.683594 58.960938 27.0625 58.644531 L 27.40625 58.371094 L 27.960938 58.371094 L 27.960938 58 L 26.851562 58 C 26.6875 57.289062 26.644531 56.628906 26.644531 55.902344 L 26.640625 55.195312 L 26.640625 53.660156 C 26.640625 53.117188 26.640625 52.574219 26.644531 52.03125 C 26.644531 51.335938 26.644531 50.640625 26.640625 49.945312 C 26.640625 49.40625 26.640625 48.871094 26.640625 48.335938 C 26.640625 48.078125 26.640625 47.824219 26.640625 47.566406 C 26.640625 47.207031 26.640625 46.851562 26.644531 46.492188 L 26.644531 45.875 C 26.667969 45.390625 26.667969 45.390625 26.851562 45.023438 M -14.683594 7.351562 C -13.558594 7.84375 -12.484375 8.449219 -11.414062 9.054688 C -11.242188 9.148438 -11.070312 9.242188 -10.890625 9.339844 L -10.492188 9.609375 C -10.203125 10.496094 -10.351562 11.304688 -10.492188 12.207031 C -11.761719 11.859375 -11.761719 11.859375 -11.96875 11.648438 C -11.976562 11.28125 -11.976562 10.910156 -11.96875 10.539062 C -12.097656 10.488281 -12.222656 10.441406 -12.351562 10.390625 C -12.859375 10.183594 -13.347656 9.949219 -13.839844 9.710938 C -15.746094 8.785156 -17.609375 8.113281 -19.734375 7.941406 L -20.289062 7.757812 C -20.636719 7.738281 -20.980469 7.734375 -21.328125 7.734375 L -21.878906 7.730469 L -22.324219 7.757812 L -22.507812 7.941406 L -23.011719 7.9375 C -23.992188 7.945312 -24.855469 8.300781 -25.777344 8.613281 L -26.351562 8.800781 C -28.339844 9.4375 -28.339844 9.4375 -30.085938 10.539062 C -30.363281 11.152344 -30.300781 11.726562 -30.273438 12.390625 C -30.277344 12.644531 -30.285156 12.894531 -30.296875 13.148438 C -30.328125 13.878906 -30.339844 14.609375 -30.347656 15.339844 C -30.351562 15.644531 -30.355469 15.949219 -30.367188 16.253906 C -30.410156 17.796875 -30.433594 19.125 -29.746094 20.542969 C -29.476562 21.019531 -29.234375 21.40625 -28.847656 21.789062 L -28.609375 22.03125 L -28.609375 22.402344 L -28.261719 22.578125 L -27.5 22.960938 L -27.5 23.332031 L -27.035156 23.46875 C -26.292969 23.734375 -25.613281 24.070312 -24.910156 24.429688 L -24.527344 24.625 L -24.148438 24.820312 L -23.777344 25.007812 C -23.472656 25.164062 -23.175781 25.328125 -22.878906 25.496094 C -22.203125 25.792969 -21.574219 25.933594 -20.84375 25.925781 C -20.339844 25.804688 -19.925781 25.679688 -19.457031 25.484375 L -19.078125 25.335938 C -17.085938 24.519531 -15.222656 23.488281 -13.632812 22.03125 C -13.402344 21.917969 -13.164062 21.804688 -12.929688 21.695312 L -12.339844 21.289062 C -12.039062 20.5625 -11.96875 19.847656 -11.96875 19.066406 C -11.601562 19.058594 -11.230469 19.058594 -10.859375 19.066406 L -10.675781 19.25 C -10.605469 19.703125 -10.605469 19.703125 -10.675781 20.363281 C -11.160156 21.609375 -11.8125 22.726562 -12.839844 23.597656 C -13.21875 23.894531 -13.609375 24.167969 -14.003906 24.441406 L -14.414062 24.742188 C -16.226562 25.992188 -18.832031 27.4375 -21.042969 27.648438 C -21.984375 27.578125 -22.730469 27.273438 -23.59375 26.910156 L -24.066406 26.71875 C -25.132812 26.28125 -26.136719 25.769531 -27.128906 25.183594 L -27.691406 24.855469 C -29.128906 23.964844 -30.320312 23.011719 -31.167969 21.523438 C -31.894531 20.085938 -32.027344 18.628906 -32.046875 17.042969 L -32.058594 16.421875 C -32.0625 15.992188 -32.066406 15.5625 -32.070312 15.132812 C -32.074219 14.476562 -32.089844 13.820312 -32.109375 13.164062 C -32.113281 12.746094 -32.117188 12.328125 -32.117188 11.90625 L -32.136719 11.316406 C -32.132812 10.761719 -32.109375 10.324219 -31.933594 9.796875 C -31.4375 9.296875 -30.902344 8.988281 -30.273438 8.683594 L -29.769531 8.398438 C -24.949219 6.035156 -19.785156 5.457031 -14.683594 7.351562 M 9.703125 21.609375 C 10.214844 21.660156 10.214844 21.660156 10.859375 21.972656 C 11.351562 22.429688 11.640625 22.703125 11.878906 23.332031 C 11.886719 24.296875 11.683594 25.023438 11.324219 25.925781 L 23.707031 25.925781 L 23.339844 25 C 23.265625 24.433594 23.273438 23.894531 23.339844 23.332031 C 23.582031 22.769531 23.808594 22.480469 24.261719 22.078125 C 24.820312 21.730469 25.328125 21.617188 25.972656 21.582031 C 26.496094 21.582031 26.789062 21.625 27.242188 21.890625 C 27.574219 22.167969 27.871094 22.4375 28.144531 22.773438 C 28.316406 23.285156 28.359375 23.613281 28.363281 24.140625 L 28.371094 24.5625 C 28.324219 25.070312 28.167969 25.464844 27.960938 25.925781 C 28.078125 25.925781 28.191406 25.921875 28.3125 25.917969 C 28.832031 25.914062 29.355469 25.90625 29.878906 25.902344 L 30.429688 25.894531 L 30.957031 25.890625 L 31.445312 25.882812 L 31.84375 25.925781 L 32.210938 26.296875 C 32.15625 26.773438 32.15625 26.773438 32.027344 27.222656 L 31.84375 27.410156 C 31.476562 27.425781 31.109375 27.433594 30.742188 27.433594 L 28.371094 27.433594 C 27.609375 27.433594 26.84375 27.433594 26.082031 27.433594 C 25.285156 27.433594 24.488281 27.433594 23.691406 27.433594 C 22.351562 27.433594 21.015625 27.433594 19.675781 27.433594 C 18.125 27.433594 16.578125 27.433594 15.027344 27.433594 C 13.699219 27.433594 12.371094 27.433594 11.042969 27.433594 C 10.25 27.433594 9.453125 27.433594 8.660156 27.433594 C 7.914062 27.433594 7.167969 27.433594 6.421875 27.433594 C 6.144531 27.433594 5.871094 27.433594 5.597656 27.433594 C 5.222656 27.433594 4.847656 27.433594 4.476562 27.433594 L 3.839844 27.433594 L 3.375 27.410156 L 3.1875 27.222656 C 3.179688 26.851562 3.179688 26.480469 3.1875 26.109375 C 3.625 25.894531 3.878906 25.90625 4.363281 25.90625 L 4.839844 25.910156 L 5.335938 25.914062 L 5.839844 25.917969 C 6.25 25.917969 6.660156 25.921875 7.070312 25.925781 L 6.792969 25.324219 C 6.632812 24.9375 6.519531 24.636719 6.464844 24.222656 C 6.535156 23.652344 6.628906 23.253906 6.949219 22.769531 C 7.816406 21.730469 8.355469 21.59375 9.703125 21.609375 M 6.886719 87.105469 C 7.527344 87.402344 8.113281 87.75 8.722656 88.109375 C 9.28125 88.402344 9.65625 88.527344 10.28125 88.566406 C 11.183594 88.511719 11.894531 88.160156 12.6875 87.753906 C 13.769531 87.207031 14.65625 86.910156 15.894531 86.976562 C 16.730469 87.15625 17.429688 87.527344 18.167969 87.9375 C 18.792969 88.28125 19.285156 88.5 20 88.507812 C 21.058594 88.40625 21.90625 88.125 22.796875 87.546875 C 23.53125 87.125 24.144531 87.015625 24.992188 86.980469 C 25.679688 87.003906 26.179688 87.054688 26.808594 87.339844 C 27.113281 87.53125 27.410156 87.726562 27.703125 87.933594 C 28.410156 88.390625 29.183594 88.578125 29.996094 88.777344 C 30 89.050781 30.003906 89.324219 30.003906 89.597656 L 30.011719 90.0625 L 29.996094 90.445312 L 29.808594 90.628906 C 29.433594 90.648438 29.054688 90.652344 28.679688 90.652344 L 28.316406 90.652344 C 27.914062 90.65625 27.511719 90.652344 27.109375 90.652344 L 26.246094 90.65625 C 25.464844 90.65625 24.683594 90.65625 23.898438 90.65625 C 23.082031 90.652344 22.261719 90.65625 21.445312 90.65625 C 20.074219 90.65625 18.699219 90.65625 17.328125 90.652344 C 15.734375 90.652344 14.144531 90.652344 12.554688 90.652344 C 11.195312 90.65625 9.832031 90.65625 8.46875 90.65625 C 7.652344 90.652344 6.839844 90.652344 6.023438 90.65625 C 5.257812 90.65625 4.492188 90.65625 3.726562 90.652344 C 3.445312 90.652344 3.164062 90.652344 2.878906 90.652344 C 2.496094 90.65625 2.113281 90.652344 1.730469 90.652344 L 1.078125 90.652344 L 0.601562 90.628906 L 0.414062 90.445312 C 0.367188 89.378906 0.367188 89.378906 0.414062 88.960938 C 0.847656 88.53125 1.160156 88.4375 1.734375 88.242188 C 2.378906 88.019531 2.941406 87.789062 3.523438 87.429688 C 4.585938 86.890625 5.734375 86.914062 6.886719 87.105469 " fill-opacity="1" fill-rule="nonzero"/></g><g clip-path="url(#0f1a6506e2)"><path fill="#193049" d="M -58.371094 21.476562 C -57.804688 21.449219 -57.246094 21.4375 -56.679688 21.433594 L -56.164062 21.425781 C -55.804688 21.425781 -55.441406 21.421875 -55.082031 21.421875 C -54.527344 21.417969 -53.976562 21.410156 -53.421875 21.402344 C -53.070312 21.398438 -52.722656 21.398438 -52.371094 21.398438 L -51.871094 21.386719 C -51.4375 21.390625 -51.035156 21.398438 -50.605469 21.476562 C -50.1875 21.84375 -50.1875 21.84375 -49.867188 22.21875 C -49.390625 22.34375 -49.390625 22.34375 -48.898438 22.355469 L -48.398438 22.390625 L -48.019531 22.402344 C -47.933594 23.039062 -47.859375 23.675781 -47.789062 24.316406 L -47.714844 24.863281 L -47.65625 25.390625 L -47.597656 25.875 L -47.648438 26.296875 C -47.984375 26.632812 -48.261719 26.8125 -48.714844 26.957031 C -49.234375 27.058594 -49.726562 27.066406 -50.257812 27.070312 L -50.949219 27.078125 C -51.199219 27.078125 -51.445312 27.082031 -51.695312 27.082031 L -52.078125 27.085938 C -52.746094 27.089844 -53.410156 27.089844 -54.078125 27.09375 C -54.765625 27.09375 -55.449219 27.101562 -56.136719 27.109375 C -56.664062 27.113281 -57.195312 27.113281 -57.726562 27.117188 C -57.976562 27.117188 -58.230469 27.117188 -58.484375 27.121094 C -60.699219 27.152344 -60.699219 27.152344 -61.679688 26.664062 C -61.871094 26.542969 -62.058594 26.421875 -62.253906 26.296875 L -62.253906 26.109375 L -60.960938 26.109375 L -60.960938 22.402344 L -59.851562 22.402344 L -59.851562 23.332031 L -58.742188 23.332031 C -58.722656 23.152344 -58.722656 23.152344 -58.707031 22.972656 L -58.660156 22.507812 C -58.644531 22.355469 -58.628906 22.203125 -58.613281 22.042969 L -58.554688 21.660156 Z M 6.332031 82.472656 C 7.128906 82.761719 7.792969 83.191406 8.457031 83.710938 C 8.925781 84.050781 9.210938 84.171875 9.785156 84.347656 C 10.695312 84.414062 11.453125 84.027344 12.269531 83.660156 C 12.710938 83.445312 13.136719 83.210938 13.5625 82.96875 C 14.269531 82.609375 14.890625 82.5625 15.675781 82.597656 C 16.839844 82.75 17.734375 83.25 18.671875 83.9375 C 19.292969 84.238281 19.882812 84.355469 20.566406 84.324219 C 21.109375 84.15625 21.585938 83.898438 22.078125 83.621094 C 22.332031 83.484375 22.585938 83.347656 22.839844 83.210938 L 23.199219 83.015625 C 23.738281 82.730469 24.226562 82.496094 24.835938 82.429688 C 25.507812 82.484375 25.984375 82.574219 26.558594 82.941406 C 26.863281 83.171875 27.167969 83.402344 27.472656 83.636719 C 28.25 84.144531 29.089844 84.332031 29.996094 84.511719 C 30 84.785156 30.003906 85.058594 30.007812 85.335938 L 30.011719 85.796875 L 29.996094 86.179688 L 29.808594 86.367188 C 29.042969 86.449219 28.539062 86.449219 27.820312 86.160156 C 27.367188 85.929688 26.921875 85.691406 26.480469 85.4375 L 26.480469 85.066406 C 25.71875 84.882812 25.046875 84.804688 24.261719 84.882812 C 23.78125 85.085938 23.324219 85.316406 22.863281 85.570312 C 22.121094 85.964844 21.402344 86.25 20.566406 86.367188 L 19.929688 86.457031 C 18.707031 86.457031 17.546875 85.644531 16.5 85.066406 L 16.5 84.695312 C 15.570312 84.628906 14.855469 84.597656 14.003906 85.007812 C 13.785156 85.148438 13.570312 85.292969 13.355469 85.4375 C 12.757812 85.835938 12.195312 86.152344 11.507812 86.367188 C 10.3125 86.429688 9.195312 86.386719 8.097656 85.890625 L 7.625 85.625 L 7.625 85.253906 L 6.703125 85.066406 L 6.703125 84.695312 C 6.085938 84.625 5.640625 84.59375 5.039062 84.695312 C 4.488281 84.984375 4 85.3125 3.5 85.675781 C 2.96875 86.015625 2.503906 86.207031 1.894531 86.367188 C 1.191406 86.308594 1.191406 86.308594 0.601562 86.179688 L 0.414062 85.996094 C 0.390625 85.5 0.40625 85.007812 0.414062 84.511719 L 0.882812 84.386719 C 2.113281 84.039062 3.121094 83.660156 4.148438 82.894531 C 4.851562 82.398438 5.5 82.402344 6.332031 82.472656 " fill-opacity="1" fill-rule="nonzero"/></g><g clip-path="url(#0a5b376d25)"><path fill="#193049" d="M 78.796875 24.257812 C 79.304688 24.238281 79.804688 24.230469 80.308594 24.234375 L 80.789062 24.230469 C 81.316406 24.230469 81.84375 24.230469 82.367188 24.234375 C 82.734375 24.234375 83.097656 24.230469 83.460938 24.230469 C 84.226562 24.230469 84.988281 24.230469 85.753906 24.234375 C 86.734375 24.234375 87.714844 24.234375 88.699219 24.230469 C 89.449219 24.230469 90.203125 24.230469 90.953125 24.230469 C 91.316406 24.230469 91.679688 24.230469 92.039062 24.230469 C 92.546875 24.230469 93.050781 24.230469 93.554688 24.234375 L 94.011719 24.230469 C 94.363281 24.234375 94.714844 24.246094 95.066406 24.257812 L 95.25 24.441406 C 95.269531 24.90625 95.277344 25.367188 95.273438 25.832031 L 95.277344 26.226562 C 95.277344 26.558594 95.265625 26.890625 95.25 27.222656 L 95.066406 27.410156 C 94.5625 27.425781 94.0625 27.433594 93.554688 27.433594 L 93.074219 27.433594 C 92.550781 27.433594 92.023438 27.433594 91.496094 27.433594 C 91.132812 27.433594 90.769531 27.433594 90.40625 27.433594 C 89.640625 27.433594 88.875 27.433594 88.113281 27.433594 C 87.128906 27.433594 86.148438 27.433594 85.167969 27.433594 C 84.414062 27.433594 83.664062 27.433594 82.910156 27.433594 C 82.550781 27.433594 82.1875 27.433594 81.824219 27.433594 C 81.320312 27.433594 80.816406 27.433594 80.308594 27.433594 L 79.851562 27.433594 C 79.5 27.433594 79.148438 27.421875 78.796875 27.410156 L 78.613281 27.222656 C 78.59375 26.757812 78.589844 26.296875 78.589844 25.832031 L 78.589844 25.4375 C 78.589844 25.105469 78.601562 24.773438 78.613281 24.441406 Z M 9.65625 116.8125 C 10.113281 116.988281 10.308594 117.199219 10.625 117.570312 L 10.949219 117.941406 L 11.277344 118.335938 L 11.613281 118.726562 C 12.214844 119.429688 12.214844 119.429688 12.433594 119.738281 L 12.433594 120.109375 L 12.800781 120.109375 L 13.089844 120.46875 C 13.496094 120.863281 13.496094 120.863281 13.921875 120.964844 C 14.382812 121.039062 14.738281 121.09375 15.203125 121.035156 C 16.023438 120.574219 16.609375 120.023438 17.226562 119.320312 L 17.703125 118.78125 L 18.164062 118.253906 L 18.570312 117.789062 C 18.867188 117.453125 19.164062 117.113281 19.457031 116.769531 C 20.609375 116.929688 21.511719 117.183594 22.488281 117.824219 C 22.785156 118.066406 22.785156 118.066406 23.152344 118.625 C 23.132812 119.15625 23.132812 119.15625 22.96875 119.738281 C 22.605469 120.28125 22.289062 120.625 21.734375 120.976562 C 19.03125 122.191406 15.863281 122.578125 12.921875 122.289062 C 10.71875 122.058594 8.601562 121.804688 6.75 120.488281 L 6.332031 120.109375 C 6.136719 119.46875 6.136719 119.46875 6.148438 118.808594 C 6.390625 118.324219 6.390625 118.324219 6.886719 117.882812 C 8.886719 116.722656 8.886719 116.722656 9.65625 116.8125 M 62.34375 110.097656 C 62.613281 110.085938 62.882812 110.078125 63.15625 110.074219 L 63.609375 110.058594 L 64.007812 110.097656 L 64.378906 110.46875 C 64.476562 111.003906 64.476562 111.003906 64.53125 111.648438 L 64.589844 112.289062 C 64.5625 112.878906 64.5625 112.878906 64.34375 113.308594 C 64.007812 113.617188 64.007812 113.617188 63.589844 113.773438 L 63.144531 113.851562 C 62.992188 113.878906 62.84375 113.90625 62.691406 113.933594 L 62.34375 113.988281 C 62.140625 114.546875 61.988281 115.0625 61.976562 115.65625 C 62.222656 116.019531 62.476562 116.238281 62.828125 116.496094 L 63.085938 116.769531 C 63.167969 117.203125 63.167969 117.203125 63.085938 117.699219 C 62.761719 118.199219 62.761719 118.199219 62.324219 118.695312 L 61.894531 119.195312 L 61.421875 119.550781 C 60.84375 119.535156 60.84375 119.535156 60.3125 119.367188 L 59.757812 118.996094 C 59.050781 119.054688 58.53125 119.222656 57.910156 119.550781 L 57.921875 119.945312 L 57.933594 120.457031 L 57.945312 120.964844 L 57.910156 121.40625 C 57.539062 121.777344 57.539062 121.777344 57.136719 121.894531 C 55.390625 122.226562 55.390625 122.226562 54.582031 122.148438 C 54.089844 121.652344 54.007812 121.15625 53.820312 120.496094 L 53.65625 120.109375 L 53.101562 119.738281 L 53.65625 117.699219 L 54.582031 117.511719 L 55.207031 117.800781 C 55.851562 118.113281 55.851562 118.113281 56.488281 118.023438 C 57.496094 117.65625 58.300781 116.796875 59.019531 116.027344 C 59.449219 115.457031 59.570312 115.121094 59.667969 114.402344 C 59.679688 114.152344 59.691406 113.902344 59.699219 113.652344 L 59.71875 113.265625 C 59.734375 112.949219 59.746094 112.636719 59.757812 112.320312 L 60.136719 112.210938 C 60.660156 112.035156 61.125 111.855469 61.605469 111.578125 C 61.976562 111.09375 62.132812 110.679688 62.34375 110.097656 " fill-opacity="1" fill-rule="nonzero"/></g><path fill="#193049" d="M 9.703125 21.609375 C 10.214844 21.660156 10.214844 21.660156 10.859375 21.972656 C 11.351562 22.429688 11.640625 22.703125 11.878906 23.332031 C 11.886719 24.339844 11.644531 25.148438 11.324219 26.109375 L 15.757812 26.109375 L 15.019531 26.296875 L 15.203125 26.851562 C 13.839844 26.996094 12.472656 27.070312 11.097656 27.070312 L 10.527344 27.070312 C 10.132812 27.070312 9.742188 27.074219 9.347656 27.074219 C 8.742188 27.074219 8.140625 27.074219 7.535156 27.078125 C 7.152344 27.082031 6.769531 27.082031 6.382812 27.082031 L 5.839844 27.085938 L 5.332031 27.082031 L 4.886719 27.082031 C 4.433594 27.03125 4.140625 26.894531 3.742188 26.667969 L 3.375 26.480469 L 3.558594 25.925781 L 7.070312 25.925781 L 6.515625 24.628906 C 6.445312 24.089844 6.519531 23.65625 6.703125 23.144531 C 7.546875 21.863281 8.191406 21.59375 9.703125 21.609375 " fill-opacity="1" fill-rule="nonzero"/><path fill="#fefefe" d="M 17.375 13.640625 C 17.960938 13.710938 18.402344 13.9375 18.902344 14.246094 L 18.902344 14.617188 L 19.640625 14.800781 L 19.640625 15.171875 L 20.566406 15.542969 L 20.566406 15.914062 L 20.914062 16.054688 C 21.304688 16.285156 21.304688 16.285156 21.535156 16.679688 L 21.675781 17.027344 L 21.492188 17.210938 C 21.039062 17.226562 20.589844 17.234375 20.136719 17.230469 L 19.726562 17.230469 C 19.296875 17.226562 18.863281 17.226562 18.429688 17.222656 C 18.136719 17.222656 17.84375 17.222656 17.550781 17.222656 C 16.828125 17.21875 16.109375 17.214844 15.390625 17.210938 L 15.390625 14.058594 C 16.160156 13.671875 16.546875 13.625 17.375 13.640625 " fill-opacity="1" fill-rule="nonzero"/><g clip-path="url(#18aac82f67)"><path fill="#0c2240" d="M 66.042969 25.554688 C 66.472656 25.546875 66.90625 25.546875 67.335938 25.554688 L 67.523438 25.742188 C 67.53125 26.171875 67.53125 26.605469 67.523438 27.039062 C 67.035156 27.28125 66.667969 27.246094 66.121094 27.25 L 64.722656 27.25 L 63.953125 27.253906 C 63.257812 27.253906 62.558594 27.253906 61.863281 27.253906 C 61.28125 27.253906 60.699219 27.253906 60.121094 27.257812 C 58.75 27.257812 57.378906 27.257812 56.007812 27.257812 C 54.59375 27.257812 53.175781 27.257812 51.761719 27.261719 C 50.546875 27.265625 49.332031 27.265625 48.117188 27.265625 C 47.394531 27.265625 46.667969 27.265625 45.941406 27.269531 C 45.257812 27.269531 44.578125 27.269531 43.894531 27.269531 C 43.523438 27.269531 43.152344 27.269531 42.78125 27.273438 L 42.117188 27.269531 L 41.539062 27.269531 L 41.085938 27.222656 L 40.714844 26.851562 C 40.691406 26.273438 40.691406 26.273438 40.714844 25.742188 L 41.085938 26.109375 L 41.085938 26.667969 L 66.78125 26.480469 L 66.96875 25.742188 L 66.042969 25.742188 Z M -62.808594 102.679688 C -62.5 102.671875 -62.191406 102.671875 -61.882812 102.679688 L -61.882812 103.238281 L -61.515625 103.238281 L -61.480469 103.617188 L -61.433594 104.117188 C -61.417969 104.28125 -61.402344 104.445312 -61.386719 104.613281 C -61.335938 105.023438 -61.257812 105.433594 -61.144531 105.832031 L -60.761719 105.878906 C -60.058594 106.058594 -59.546875 106.378906 -58.925781 106.757812 C -59.179688 107.039062 -59.179688 107.039062 -59.480469 107.316406 L -59.851562 107.316406 L -59.480469 108.058594 C -60.136719 107.863281 -60.648438 107.648438 -61.203125 107.257812 C -61.519531 107.046875 -61.519531 107.046875 -61.882812 106.945312 C -62.726562 107.066406 -63.398438 107.402344 -64.101562 107.871094 C -64.484375 107.824219 -64.484375 107.824219 -64.839844 107.6875 L -65.210938 107.316406 C -65.175781 106.945312 -65.175781 106.945312 -65.027344 106.574219 L -64.472656 106.203125 L -63.917969 106.203125 L -63.917969 105.648438 L -64.449219 105.519531 L -65.027344 105.277344 C -65.28125 104.789062 -65.28125 104.789062 -65.394531 104.347656 L -65.027344 103.976562 C -64.253906 104.035156 -63.667969 104.167969 -62.992188 104.535156 L -63 104.175781 L -63.003906 103.710938 L -63.011719 103.25 L -62.992188 102.867188 Z M -53.75 102.679688 C -53.289062 102.65625 -53.289062 102.65625 -52.824219 102.679688 L -52.640625 102.867188 C -52.628906 103.148438 -52.625 103.429688 -52.628906 103.710938 L -52.632812 104.175781 L -52.640625 104.535156 L -52.34375 104.367188 L -51.945312 104.152344 L -51.558594 103.9375 C -51.160156 103.792969 -51.160156 103.792969 -50.742188 103.863281 L -50.421875 103.976562 L -50.238281 104.90625 C -51.210938 105.484375 -51.210938 105.484375 -51.53125 105.648438 L -51.902344 105.648438 L -51.902344 106.015625 L -51.472656 106.179688 C -50.976562 106.386719 -50.976562 106.386719 -50.421875 106.757812 C -50.46875 107.105469 -50.46875 107.105469 -50.605469 107.5 C -50.925781 107.738281 -50.925781 107.738281 -51.347656 107.871094 C -51.796875 107.699219 -51.796875 107.699219 -52.269531 107.417969 C -52.730469 107.136719 -52.730469 107.136719 -53.195312 106.945312 C -53.882812 106.996094 -54.484375 107.386719 -55.089844 107.699219 L -55.695312 108.003906 L -56.152344 108.242188 L -56.523438 107.871094 L -55.96875 107.316406 L -56.335938 106.574219 L -55.953125 106.421875 C -55.378906 106.148438 -54.953125 105.898438 -54.488281 105.460938 C -54.171875 104.609375 -54.054688 103.765625 -53.933594 102.867188 Z M 30.363281 25.925781 C 30.710938 25.875 30.710938 25.875 31.101562 25.878906 L 31.496094 25.875 L 31.84375 25.925781 L 32.210938 26.296875 C 32.15625 26.773438 32.15625 26.773438 32.027344 27.222656 L 31.84375 27.410156 C 31.476562 27.425781 31.109375 27.433594 30.742188 27.433594 L 28.371094 27.433594 C 27.609375 27.433594 26.84375 27.433594 26.082031 27.433594 C 25.285156 27.433594 24.488281 27.433594 23.691406 27.433594 C 22.351562 27.433594 21.015625 27.433594 19.675781 27.433594 C 18.125 27.433594 16.578125 27.433594 15.027344 27.433594 C 13.699219 27.433594 12.371094 27.433594 11.042969 27.433594 C 10.25 27.433594 9.453125 27.433594 8.660156 27.433594 C 7.914062 27.433594 7.167969 27.433594 6.421875 27.433594 C 6.144531 27.433594 5.871094 27.433594 5.597656 27.433594 C 5.222656 27.433594 4.847656 27.433594 4.476562 27.433594 L 3.839844 27.433594 L 3.375 27.410156 L 3.1875 27.222656 C 3.179688 26.851562 3.179688 26.480469 3.1875 26.109375 C 3.726562 26.308594 4.070312 26.441406 4.484375 26.851562 C 4.914062 26.910156 4.914062 26.910156 5.425781 26.898438 L 6.027344 26.902344 L 6.695312 26.898438 L 7.394531 26.898438 C 8.03125 26.898438 8.664062 26.898438 9.300781 26.898438 C 9.964844 26.894531 10.632812 26.894531 11.296875 26.894531 C 12.417969 26.894531 13.535156 26.894531 14.65625 26.890625 C 15.945312 26.886719 17.238281 26.886719 18.527344 26.886719 C 19.902344 26.886719 21.28125 26.886719 22.65625 26.882812 C 23.050781 26.882812 23.445312 26.882812 23.839844 26.882812 C 24.582031 26.882812 25.324219 26.882812 26.0625 26.878906 L 26.71875 26.878906 C 28.066406 26.875 29.394531 26.800781 30.734375 26.667969 L 29.996094 26.296875 Z M 30.363281 25.925781 " fill-opacity="1" fill-rule="nonzero"/></g><g clip-path="url(#e9218dddc3)"><path fill="#fefefe" d="M 10.214844 13.875 C 10.476562 13.859375 10.738281 13.855469 11 13.855469 L 11.480469 13.859375 L 11.980469 13.863281 L 12.488281 13.867188 C 12.898438 13.867188 13.3125 13.871094 13.726562 13.875 C 13.730469 14.394531 13.734375 14.917969 13.738281 15.4375 L 13.742188 15.890625 C 13.742188 16.269531 13.734375 16.648438 13.726562 17.027344 L 13.542969 17.210938 C 12.8125 17.257812 12.078125 17.246094 11.347656 17.246094 L 10.722656 17.253906 L 10.121094 17.253906 L 9.570312 17.257812 C 9.105469 17.210938 9.105469 17.210938 8.550781 16.839844 C 8.652344 16.054688 8.917969 15.578125 9.382812 14.941406 L 9.734375 14.453125 C 10.027344 14.058594 10.027344 14.058594 10.214844 13.875 M -59.480469 20.363281 C -59.167969 20.347656 -58.855469 20.339844 -58.542969 20.34375 L -57.277344 20.34375 L -56.609375 20.347656 C -55.898438 20.347656 -55.1875 20.351562 -54.476562 20.351562 C -53.996094 20.351562 -53.515625 20.355469 -53.035156 20.355469 C -51.855469 20.355469 -50.675781 20.359375 -49.496094 20.363281 L -49.496094 22.402344 L -50.421875 22.03125 L -50.605469 21.476562 L -58.371094 21.660156 L -58.742188 23.332031 L -59.851562 23.332031 C -59.867188 22.378906 -59.835938 21.488281 -59.664062 20.550781 Z M -59.480469 20.363281 " fill-opacity="1" fill-rule="nonzero"/></g><g clip-path="url(#c031f0e21a)"><path fill="#fefefe" d="M 86.933594 12.949219 L 87.300781 13.875 C 87.015625 14.199219 86.789062 14.414062 86.390625 14.585938 L 85.628906 14.832031 C 85.207031 15.011719 84.996094 15.183594 84.714844 15.542969 C 84.558594 15.96875 84.449219 16.394531 84.332031 16.832031 C 84.277344 16.957031 84.21875 17.082031 84.160156 17.210938 C 83.773438 17.449219 83.773438 17.449219 83.421875 17.582031 L 82.679688 17.027344 C 82.765625 16.039062 82.855469 15.269531 83.421875 14.429688 C 84.496094 13.453125 85.449219 12.878906 86.933594 12.949219 M -54.675781 5.601562 C -53.972656 5.636719 -53.421875 5.71875 -52.800781 6.054688 C -52.269531 6.460938 -52.269531 6.460938 -51.902344 7.015625 L -51.902344 7.757812 L -57.445312 7.757812 C -57.09375 6.875 -56.902344 6.507812 -56.199219 5.933594 C -55.671875 5.660156 -55.265625 5.621094 -54.675781 5.601562 " fill-opacity="1" fill-rule="nonzero"/></g><g clip-path="url(#12851dc443)"><path fill="#0c2240" d="M 22.785156 15.542969 C 23.308594 15.722656 23.667969 15.875 24.070312 16.265625 C 24.898438 16.839844 25.777344 16.992188 26.746094 17.210938 C 27.148438 17.308594 27.546875 17.402344 27.945312 17.5 L 28.53125 17.636719 C 29.21875 17.804688 29.902344 17.984375 30.582031 18.171875 L 31.15625 18.332031 C 31.691406 18.519531 32.121094 18.738281 32.582031 19.066406 C 32.734375 19.5625 32.734375 19.5625 32.765625 19.992188 L 32.316406 19.898438 C 31.894531 19.800781 31.894531 19.800781 31.65625 19.808594 L 31.472656 20.179688 L 31.289062 19.992188 C 30.667969 19.941406 30.046875 19.910156 29.421875 19.878906 L 28.886719 19.808594 L 28.699219 19.4375 L 29.441406 19.25 L 29.441406 18.878906 L 29.070312 18.695312 L 28.886719 18.324219 C 28.503906 18.183594 28.121094 18.054688 27.730469 17.941406 L 27.089844 17.75 C 26.582031 17.609375 26.078125 17.5 25.558594 17.398438 C 24.53125 17.117188 23.804688 16.679688 23.015625 15.972656 L 22.785156 15.730469 Z M 0.230469 14.246094 C 0.601562 14.230469 0.972656 14.226562 1.339844 14.226562 L 2.023438 14.230469 L 2.738281 14.234375 L 3.457031 14.238281 C 4.046875 14.238281 4.632812 14.242188 5.222656 14.246094 L 5.222656 15.542969 L 0.230469 15.542969 L 0.046875 14.429688 Z M -42.101562 77.652344 C -41.710938 77.640625 -41.316406 77.632812 -40.925781 77.628906 L -40.261719 77.617188 L -39.699219 77.652344 L -39.332031 78.023438 C -39.296875 78.476562 -39.28125 78.933594 -39.289062 79.390625 L -39.289062 79.800781 C -39.289062 80.085938 -39.289062 80.367188 -39.292969 80.652344 C -39.296875 81.09375 -39.296875 81.53125 -39.296875 81.96875 C -39.296875 82.242188 -39.296875 82.519531 -39.300781 82.796875 L -39.300781 83.195312 C -39.304688 83.511719 -39.3125 83.824219 -39.332031 84.140625 L -39.515625 84.324219 C -39.980469 84.371094 -40.445312 84.402344 -40.914062 84.429688 L -41.3125 84.453125 C -41.636719 84.472656 -41.960938 84.492188 -42.289062 84.511719 L -42.472656 83.957031 C -41.78125 83.847656 -41.140625 83.769531 -40.4375 83.769531 C -39.910156 80.976562 -39.910156 80.976562 -40.253906 78.207031 L -42.101562 77.835938 Z M -55.226562 106.015625 C -54.789062 106.167969 -54.789062 106.167969 -54.488281 106.386719 L -54.488281 106.574219 L -53.988281 106.445312 L -53.332031 106.285156 L -52.683594 106.121094 C -52.085938 106.015625 -52.085938 106.015625 -51.667969 106.074219 C -51.21875 106.253906 -50.828125 106.5 -50.421875 106.757812 C -50.46875 107.105469 -50.46875 107.105469 -50.605469 107.5 C -50.925781 107.738281 -50.925781 107.738281 -51.347656 107.871094 C -51.796875 107.699219 -51.796875 107.699219 -52.269531 107.417969 C -52.730469 107.136719 -52.730469 107.136719 -53.195312 106.945312 C -53.882812 106.996094 -54.484375 107.386719 -55.089844 107.699219 L -55.695312 108.003906 L -56.152344 108.242188 L -56.523438 107.871094 L -55.96875 107.316406 L -56.335938 106.574219 C -55.828125 106.273438 -55.828125 106.273438 -55.226562 106.015625 " fill-opacity="1" fill-rule="nonzero"/></g><g clip-path="url(#54e0801bd5)"><path fill="#0c2240" d="M -2.355469 17.582031 L 2.265625 17.582031 L 2.449219 18.695312 C 1.847656 18.886719 1.375 18.871094 0.75 18.800781 C 0.0742188 18.726562 -0.582031 18.683594 -1.257812 18.695312 C -1.988281 18.695312 -1.988281 18.695312 -2.355469 18.511719 Z M -2.355469 17.582031 " fill-opacity="1" fill-rule="nonzero"/></g><g clip-path="url(#667bbaa4b2)"><path fill="#0c2240" d="M 56.246094 7.199219 L 56.613281 7.570312 C 55.242188 8.742188 53.816406 9.820312 52.359375 10.882812 L 51.929688 11.199219 L 51.5 11.511719 C 50.90625 11.957031 50.332031 12.433594 49.761719 12.914062 L 49.40625 13.132812 L 48.851562 12.949219 C 49.597656 12.292969 50.359375 11.652344 51.125 11.023438 L 51.597656 10.636719 L 51.992188 10.351562 L 52.363281 10.351562 L 52.363281 9.980469 C 52.640625 9.742188 52.640625 9.742188 53.023438 9.476562 L 53.445312 9.183594 L 53.886719 8.882812 L 54.746094 8.285156 L 55.132812 8.019531 C 55.507812 7.753906 55.878906 7.480469 56.246094 7.199219 M 11.878906 52.4375 L 12.246094 52.4375 C 12.257812 52.859375 12.265625 53.28125 12.269531 53.699219 L 12.285156 54.410156 L 12.246094 55.03125 L 11.878906 55.589844 C 11.394531 55.652344 11.394531 55.652344 10.789062 55.644531 L 10.136719 55.636719 L 9.449219 55.625 L 8.761719 55.617188 C 8.199219 55.609375 7.632812 55.601562 7.070312 55.589844 L 6.886719 55.21875 C 7.417969 55.039062 7.75 55.011719 8.304688 55.015625 L 8.804688 55.015625 L 9.324219 55.023438 L 9.851562 55.023438 C 10.28125 55.027344 10.710938 55.03125 11.136719 55.03125 L 11.136719 54.664062 L 11.507812 54.476562 C 11.636719 54 11.636719 54 11.714844 53.445312 L 11.808594 52.878906 Z M 11.878906 52.4375 " fill-opacity="1" fill-rule="nonzero"/></g><g clip-path="url(#8ecef2a1f8)"><path fill="#0c2240" d="M 61.976562 116.027344 C 62.433594 116.242188 62.722656 116.410156 63.085938 116.769531 C 63.15625 117.195312 63.15625 117.195312 63.085938 117.699219 C 62.761719 118.199219 62.761719 118.199219 62.324219 118.695312 C 62.179688 118.859375 62.039062 119.027344 61.894531 119.195312 L 61.421875 119.550781 C 60.84375 119.535156 60.84375 119.535156 60.3125 119.367188 L 59.757812 118.996094 C 58.976562 119.066406 58.273438 119.289062 57.539062 119.550781 L 57.539062 118.996094 C 58.085938 118.757812 58.621094 118.5625 59.203125 118.4375 C 59.617188 118.496094 59.617188 118.496094 60 118.613281 L 60.683594 118.808594 C 61.105469 118.667969 61.105469 118.667969 61.421875 118.4375 L 61.976562 118.4375 L 62.058594 118.089844 C 62.160156 117.699219 62.160156 117.699219 62.34375 117.328125 C 62.234375 116.890625 62.109375 116.457031 61.976562 116.027344 M 53.472656 118.625 C 53.804688 119.125 54.007812 119.554688 54.222656 120.109375 L 54.414062 120.59375 C 54.539062 120.925781 54.65625 121.257812 54.765625 121.589844 C 55.066406 121.566406 55.367188 121.539062 55.667969 121.511719 L 56.175781 121.464844 C 56.617188 121.429688 56.617188 121.429688 56.984375 121.21875 C 57.109375 120.871094 57.109375 120.871094 57.191406 120.46875 L 57.285156 120.054688 L 57.355469 119.738281 L 57.722656 119.738281 C 57.765625 120.007812 57.804688 120.277344 57.839844 120.546875 L 57.90625 121.003906 L 57.910156 121.40625 C 57.539062 121.777344 57.539062 121.777344 57.136719 121.894531 C 55.390625 122.226562 55.390625 122.226562 54.582031 122.148438 C 54.089844 121.652344 54.007812 121.15625 53.820312 120.496094 L 53.65625 120.109375 L 53.101562 119.738281 Z M 11.324219 25.925781 L 23.523438 25.925781 L 23.523438 26.109375 L 18.902344 26.296875 L 18.902344 26.667969 L 18.164062 26.480469 L 18.164062 26.109375 L 17.96875 26.386719 L 17.609375 26.667969 C 16.988281 26.722656 16.988281 26.722656 16.28125 26.703125 L 15.566406 26.6875 L 15.019531 26.667969 L 15.019531 26.296875 L 11.324219 26.109375 Z M 57.539062 105.832031 L 57.910156 105.832031 L 58.082031 106.285156 L 58.464844 106.757812 C 58.984375 106.859375 59.484375 106.886719 60.015625 106.898438 C 60.496094 106.945312 60.496094 106.945312 61.050781 107.316406 C 61.101562 107.855469 61.121094 108.351562 61.109375 108.890625 L 61.109375 109.332031 C 61.109375 109.710938 61.082031 110.089844 61.050781 110.46875 L 60.683594 110.835938 C 60.242188 110.914062 60.242188 110.914062 59.734375 110.953125 L 59.222656 110.996094 L 58.832031 111.023438 L 58.648438 110.652344 L 60.3125 110.46875 C 60.351562 110.046875 60.390625 109.625 60.425781 109.203125 L 60.492188 108.492188 L 60.496094 107.871094 L 60.128906 107.316406 C 59.652344 107.242188 59.652344 107.242188 59.121094 107.246094 C 58.570312 107.210938 58.570312 107.210938 58.09375 107.128906 C 57.6875 106.679688 57.6875 106.679688 57.539062 106.203125 Z M 92.664062 85.4375 L 93.03125 85.4375 C 93.425781 85.878906 93.425781 85.878906 93.773438 86.367188 L 93.773438 86.734375 L 94.140625 86.734375 C 94.191406 87.238281 94.191406 87.238281 94.140625 87.847656 C 93.8125 88.308594 93.8125 88.308594 93.367188 88.730469 L 92.933594 89.15625 C 92.476562 89.519531 92.113281 89.730469 91.554688 89.886719 C 91.082031 89.667969 91.082031 89.667969 90.628906 89.332031 L 90.238281 89.042969 C 90.121094 88.953125 90.007812 88.867188 89.890625 88.777344 L 89.335938 88.40625 L 90.445312 88.40625 L 90.445312 88.777344 C 90.992188 88.914062 91.371094 88.996094 91.925781 88.960938 C 92.523438 88.6875 92.972656 88.347656 93.402344 87.847656 C 93.585938 87.285156 93.585938 87.285156 93.402344 86.734375 C 93.046875 86.230469 93.046875 86.230469 92.664062 85.808594 Z M 55.691406 52.992188 L 56.429688 53.363281 C 56.347656 53.792969 56.347656 53.792969 56.058594 54.292969 C 55.167969 54.847656 54.117188 54.898438 53.089844 54.941406 C 51.53125 54.910156 50.101562 54.523438 48.664062 53.921875 L 48.480469 53.550781 C 49.3125 53.628906 50.035156 53.75 50.828125 54.023438 C 51.941406 54.378906 53.050781 54.40625 54.210938 54.292969 C 54.8125 54.152344 54.8125 54.152344 55.320312 53.921875 C 55.585938 53.457031 55.585938 53.457031 55.691406 52.992188 M 17.792969 49.65625 L 18.164062 49.65625 C 18.171875 49.953125 18.179688 50.25 18.1875 50.550781 L 18.199219 51.050781 C 18.164062 51.511719 18.164062 51.511719 17.792969 52.066406 C 17.242188 52.128906 17.242188 52.128906 16.542969 52.121094 L 16.171875 52.117188 C 15.78125 52.117188 15.390625 52.109375 14.996094 52.101562 C 14.730469 52.097656 14.464844 52.097656 14.199219 52.09375 C 13.550781 52.085938 12.898438 52.078125 12.246094 52.066406 L 12.0625 51.695312 C 13.488281 51.550781 14.875 51.503906 16.308594 51.558594 C 16.867188 51.546875 16.867188 51.546875 17.304688 51.273438 L 17.609375 50.953125 C 17.757812 50.285156 17.757812 50.285156 17.792969 49.65625 " fill-opacity="1" fill-rule="nonzero"/></g><path fill="#fefefe" d="M 8.734375 23.144531 C 9.105469 23.191406 9.476562 23.257812 9.84375 23.332031 L 10.214844 23.699219 C 10.273438 24.152344 10.273438 24.152344 10.214844 24.628906 C 10.003906 24.976562 10.003906 24.976562 9.660156 25.183594 C 9.070312 25.125 9.070312 25.125 8.550781 25 C 8.332031 24.488281 8.332031 24.488281 8.179688 23.886719 C 8.433594 23.445312 8.433594 23.445312 8.734375 23.144531 " fill-opacity="1" fill-rule="nonzero"/><path fill="#fefefe" d="M 25.558594 23.144531 C 26.019531 23.191406 26.019531 23.191406 26.480469 23.332031 L 26.851562 23.699219 C 26.910156 24.152344 26.910156 24.152344 26.851562 24.628906 C 26.632812 24.964844 26.632812 24.964844 26.296875 25.183594 C 25.835938 25.277344 25.835938 25.277344 25.371094 25.183594 C 25.015625 24.765625 25.015625 24.765625 24.816406 24.257812 C 24.976562 23.746094 25.179688 23.523438 25.558594 23.144531 " fill-opacity="1" fill-rule="nonzero"/><g clip-path="url(#74a752663e)"><path fill="#0c2240" d="M 28.515625 88.40625 L 29.996094 88.777344 C 30 89.050781 30.003906 89.324219 30.007812 89.597656 L 30.011719 90.0625 L 29.996094 90.445312 L 29.808594 90.628906 C 29.535156 90.644531 29.257812 90.652344 28.984375 90.648438 L 28.480469 90.644531 L 27.417969 90.636719 C 26.980469 90.636719 26.546875 90.632812 26.113281 90.628906 L 25.925781 90.257812 L 29.070312 90.074219 L 29.253906 88.960938 L 28.515625 88.589844 Z M -43.027344 108.796875 C -42.585938 108.742188 -42.585938 108.742188 -42.078125 108.765625 L -41.570312 108.777344 L -41.179688 108.796875 L -40.992188 110.097656 C -41.78125 110.3125 -42.414062 110.238281 -43.210938 110.097656 C -43.328125 109.761719 -43.328125 109.761719 -43.398438 109.355469 Z M -43.027344 103.605469 C -42.546875 103.554688 -42.546875 103.554688 -41.988281 103.574219 L -41.425781 103.585938 L -40.992188 103.605469 L -40.992188 104.90625 L -43.210938 104.90625 L -43.398438 104.164062 Z M -25.835938 87.476562 L -24.171875 88.40625 L -24.171875 88.777344 C -22.164062 89.5 -20.175781 89.640625 -18.070312 89.332031 L -18.253906 89.703125 C -19.464844 90.09375 -20.609375 90.242188 -21.863281 89.972656 C -23.378906 89.546875 -24.6875 88.941406 -25.835938 87.847656 Z M -0.878906 20.921875 C -0.574219 20.902344 -0.269531 20.894531 0.0351562 20.898438 L 0.535156 20.894531 C 0.96875 20.921875 0.96875 20.921875 1.339844 21.105469 C 1.347656 21.414062 1.347656 21.722656 1.339844 22.03125 L 1.15625 22.21875 C 0.851562 22.234375 0.546875 22.242188 0.242188 22.242188 L -0.257812 22.242188 C -0.691406 22.21875 -0.691406 22.21875 -1.0625 22.03125 C -1.070312 21.722656 -1.070312 21.414062 -1.0625 21.105469 Z M -0.878906 20.921875 " fill-opacity="1" fill-rule="nonzero"/></g><path fill="#fefefe" d="M 30.386719 19.691406 L 30.886719 19.742188 L 31.289062 19.808594 L 31.472656 19.992188 C 31.480469 20.300781 31.480469 20.609375 31.472656 20.921875 C 31.054688 21.058594 30.785156 21.117188 30.351562 21.027344 C 29.972656 20.886719 29.609375 20.746094 29.253906 20.550781 C 28.976562 20.144531 28.976562 20.144531 28.886719 19.808594 C 29.46875 19.613281 29.78125 19.625 30.386719 19.691406 " fill-opacity="1" fill-rule="nonzero"/><path fill="#0c2240" d="M 32.765625 21.289062 L 33.136719 21.289062 C 33.125 21.859375 33.082031 22.402344 32.953125 22.960938 C 32.46875 23.574219 32.007812 23.960938 31.289062 24.257812 C 30.726562 24.304688 30.1875 24.273438 29.625 24.257812 L 29.070312 22.402344 L 29.441406 22.589844 C 29.632812 22.953125 29.820312 23.324219 29.996094 23.699219 C 30.265625 23.675781 30.535156 23.648438 30.804688 23.621094 L 31.257812 23.574219 C 31.664062 23.535156 31.664062 23.535156 32.027344 23.332031 C 32.171875 22.992188 32.300781 22.648438 32.421875 22.300781 L 32.617188 21.730469 Z M 32.765625 21.289062 " fill-opacity="1" fill-rule="nonzero"/><g clip-path="url(#141101df9d)"><path fill="#0c2240" d="M 6.886719 117.882812 L 7.253906 118.066406 L 6.96875 118.371094 C 6.65625 118.804688 6.65625 118.804688 6.691406 119.367188 C 6.847656 119.953125 6.847656 119.953125 7.335938 120.328125 C 8.03125 120.683594 8.6875 120.886719 9.441406 121.070312 L 9.84375 121.21875 L 10.214844 121.777344 C 8.890625 121.664062 7.832031 121.199219 6.703125 120.511719 C 6.332031 120.109375 6.332031 120.109375 6.136719 119.46875 L 6.148438 118.808594 C 6.503906 118.265625 6.503906 118.265625 6.886719 117.882812 M 9.105469 14.429688 L 9.660156 14.429688 C 9.472656 14.9375 9.273438 15.382812 8.988281 15.84375 L 8.734375 16.285156 L 8.734375 16.839844 C 9.21875 17.085938 9.609375 17.066406 10.152344 17.085938 L 10.78125 17.109375 L 11.4375 17.132812 L 12.101562 17.15625 C 12.644531 17.175781 13.183594 17.195312 13.726562 17.210938 L 13.726562 17.398438 C 12.941406 17.410156 12.15625 17.414062 11.367188 17.421875 L 10.691406 17.429688 L 10.042969 17.433594 L 9.445312 17.441406 C 8.921875 17.398438 8.621094 17.296875 8.179688 17.027344 C 8.238281 16.171875 8.304688 15.65625 8.710938 14.894531 Z M 58.09375 114.175781 L 58.648438 114.175781 C 58.609375 114.574219 58.609375 114.574219 58.464844 115.101562 C 58.085938 115.605469 58.085938 115.605469 57.609375 116.097656 L 57.140625 116.601562 C 56.964844 116.71875 56.792969 116.835938 56.613281 116.957031 C 55.945312 116.945312 55.945312 116.945312 55.320312 116.769531 C 54.878906 116.507812 54.585938 116.203125 54.210938 115.84375 C 54.765625 115.84375 54.765625 115.84375 55.308594 116.144531 L 55.875 116.398438 C 56.269531 116.328125 56.269531 116.328125 56.613281 116.027344 L 57.191406 115.601562 C 57.742188 115.144531 57.742188 115.144531 57.976562 114.582031 Z M 51.253906 103.792969 C 52.375 104.125 53.285156 104.648438 54.140625 105.449219 C 54.601562 105.945312 54.761719 106.183594 54.949219 106.851562 L 54.949219 107.316406 L 54.640625 106.921875 L 54.210938 106.386719 L 53.785156 105.820312 C 53.160156 105.136719 52.542969 104.714844 51.65625 104.421875 C 51.132812 104.328125 50.632812 104.332031 50.097656 104.335938 L 49.496094 104.34375 L 49.035156 104.347656 L 48.851562 103.976562 C 49.667969 103.703125 50.398438 103.691406 51.253906 103.792969 M 48.480469 118.066406 L 48.664062 118.4375 C 49.167969 118.496094 49.652344 118.535156 50.15625 118.554688 L 50.582031 118.578125 C 50.929688 118.59375 51.277344 118.609375 51.625 118.625 L 51.808594 118.066406 L 52.363281 118.253906 L 52.363281 118.996094 C 51.109375 119.21875 49.703125 119.402344 48.480469 118.996094 Z M 61.605469 54.476562 L 61.976562 54.476562 C 61.878906 55.464844 61.582031 56.246094 61.050781 57.074219 C 60.359375 57.917969 59.664062 58.503906 58.648438 58.925781 L 58.648438 58.371094 C 58.9375 58.117188 58.9375 58.117188 59.328125 57.859375 C 60.085938 57.316406 60.605469 56.777344 61.050781 55.960938 C 61.265625 55.46875 61.4375 54.984375 61.605469 54.476562 M 48.664062 46.875 L 49.21875 47.0625 L 49.21875 47.433594 L 49.53125 47.574219 C 50.1875 47.921875 50.761719 48.375 51.359375 48.8125 C 51.773438 49.078125 52.070312 49.203125 52.546875 49.285156 L 52.546875 49.65625 L 52.898438 49.757812 L 53.355469 49.898438 L 53.8125 50.035156 L 54.210938 50.210938 L 54.582031 50.769531 C 52.4375 50.101562 50.558594 49.019531 48.898438 47.511719 L 48.664062 47.246094 Z M -59.109375 113.246094 L -58.742188 113.433594 C -58.996094 113.804688 -58.996094 113.804688 -59.296875 114.175781 L -59.664062 114.175781 L -59.664062 114.730469 L -58.554688 114.546875 L -58.554688 114.917969 C -59.054688 115.207031 -59.054688 115.207031 -59.664062 115.472656 C -60.195312 115.414062 -60.195312 115.414062 -60.589844 115.289062 L -60.773438 114.546875 Z M 55.503906 101.195312 C 56.09375 101.242188 56.453125 101.394531 56.964844 101.691406 L 57.503906 102.078125 L 58.050781 102.457031 L 58.464844 102.867188 C 58.550781 103.347656 58.550781 103.347656 58.464844 103.792969 C 58 104.3125 58 104.3125 57.539062 104.71875 L 57.355469 104.347656 L 57.539062 104.011719 C 57.757812 103.613281 57.757812 103.613281 57.722656 103.144531 C 57.5625 102.636719 57.5625 102.636719 57.066406 102.261719 C 56.316406 101.878906 55.785156 101.8125 54.949219 101.753906 C 55.171875 101.464844 55.171875 101.464844 55.503906 101.195312 M 77.320312 86.921875 L 77.558594 87.242188 C 77.867188 87.652344 78.179688 88.046875 78.511719 88.441406 L 78.832031 88.828125 C 79.148438 89.164062 79.148438 89.164062 79.546875 89.296875 L 79.90625 89.332031 C 80.410156 89.105469 80.410156 89.105469 80.832031 88.777344 L 81.015625 88.40625 L 81.570312 88.40625 C 81.457031 88.730469 81.457031 88.730469 81.203125 89.144531 C 80.683594 89.574219 80.683594 89.574219 80.09375 89.886719 C 79.65625 89.871094 79.65625 89.871094 79.167969 89.703125 C 78.679688 89.304688 78.679688 89.304688 78.199219 88.808594 L 77.710938 88.320312 C 77.320312 87.847656 77.320312 87.847656 77.160156 87.429688 L 77.136719 87.105469 Z M 77.320312 86.921875 " fill-opacity="1" fill-rule="nonzero"/></g><g clip-path="url(#33978e856c)"><path fill="#0c2240" d="M -24.355469 101.011719 C -23.9375 101.058594 -23.9375 101.058594 -23.433594 101.195312 C -22.246094 102.183594 -21.515625 103.539062 -20.84375 104.90625 C -21.179688 104.773438 -21.179688 104.773438 -21.582031 104.535156 C -21.859375 104.132812 -21.859375 104.132812 -22.113281 103.652344 C -22.59375 102.8125 -23.070312 102.203125 -23.800781 101.566406 L -24.355469 101.382812 Z M 51.992188 43.539062 C 52.445312 43.585938 52.886719 43.644531 53.332031 43.710938 C 54.191406 43.839844 55.007812 43.933594 55.875 43.910156 L 55.875 44.28125 C 54.445312 44.300781 53.042969 44.273438 51.625 44.09375 L 51.625 44.464844 L 51.070312 44.28125 C 51.371094 43.964844 51.597656 43.734375 51.992188 43.539062 M -23.617188 23.515625 L -22.96875 23.609375 C -21.648438 23.757812 -20.320312 23.714844 -18.996094 23.699219 C -19.175781 23.976562 -19.175781 23.976562 -19.550781 24.257812 C -20.066406 24.308594 -20.582031 24.328125 -21.097656 24.316406 L -21.519531 24.316406 C -22.300781 24.308594 -22.90625 24.242188 -23.617188 23.886719 Z M -61.882812 112.320312 L -61.515625 112.320312 C -61.496094 112.753906 -61.5 113.1875 -61.515625 113.617188 L -61.882812 114.175781 C -62.191406 114.121094 -62.5 114.058594 -62.808594 113.988281 L -62.992188 113.804688 C -63 113.496094 -63 113.1875 -62.992188 112.878906 L -62.070312 112.691406 L -62.253906 113.246094 L -61.882812 113.246094 Z M 0.414062 88.960938 L 0.785156 89.144531 L 1.15625 90.257812 L 3.558594 90.257812 L 3.742188 90.628906 C 3.222656 90.632812 2.703125 90.636719 2.183594 90.640625 L 1.734375 90.644531 C 1.355469 90.648438 0.976562 90.640625 0.601562 90.628906 L 0.414062 90.445312 C 0.390625 89.949219 0.40625 89.457031 0.414062 88.960938 M 13.726562 13.503906 L 13.726562 13.875 L 13.414062 13.886719 C 12.941406 13.902344 12.472656 13.925781 12.003906 13.945312 L 11.511719 13.960938 L 11.035156 13.984375 L 10.597656 14 C 10.15625 14.042969 10.15625 14.042969 9.660156 14.429688 L 9.472656 14.058594 L 9.660156 13.691406 C 11.050781 13.246094 12.289062 13.339844 13.726562 13.503906 M -51.53125 111.207031 C -51.09375 111.359375 -51.09375 111.359375 -50.605469 111.578125 L -50.238281 112.136719 L -50.605469 112.878906 L -51.902344 112.691406 L -51.902344 112.136719 L -51.53125 112.320312 L -51.714844 111.765625 L -51.347656 111.765625 Z M 62.34375 110.097656 C 62.613281 110.085938 62.882812 110.078125 63.15625 110.074219 L 63.609375 110.058594 L 64.007812 110.097656 L 64.378906 110.46875 L 64.378906 111.207031 L 64.042969 111.035156 C 63.621094 110.820312 63.621094 110.820312 63.085938 110.652344 L 62.53125 111.023438 L 61.976562 110.835938 Z M -28.609375 103.976562 C -28.335938 104.796875 -28.414062 105.625 -28.429688 106.480469 C -28.4375 107.335938 -28.382812 108.136719 -28.238281 108.984375 C -28.609375 108.613281 -28.609375 108.613281 -28.816406 107.976562 C -29.089844 106.785156 -29.113281 105.585938 -28.792969 104.40625 Z M -28.609375 103.976562 " fill-opacity="1" fill-rule="nonzero"/><path fill="#0c2240" d="M 50.433594 99.125 L 51.070312 99.113281 C 51.625 99.15625 51.625 99.15625 52.179688 99.527344 C 52.210938 100.015625 52.210938 100.015625 52.179688 100.457031 L 51.625 100.269531 L 51.625 99.714844 L 48.664062 99.714844 L 48.480469 99.34375 C 49.136719 99.140625 49.75 99.125 50.433594 99.125 M 93.402344 74.683594 L 94.140625 75.054688 C 94.210938 75.4375 94.210938 75.4375 94.140625 75.984375 C 93.8125 76.453125 93.433594 76.867188 93.03125 77.28125 L 92.480469 77.09375 C 92.546875 77.015625 92.613281 76.933594 92.679688 76.851562 C 92.945312 76.507812 93.1875 76.175781 93.402344 75.796875 C 93.480469 75.1875 93.480469 75.1875 93.402344 74.683594 M -64.839844 108.984375 C -64.195312 109.03125 -64.195312 109.03125 -63.546875 109.167969 L -63.175781 109.539062 L -64.285156 109.355469 L -64.285156 110.097656 L -63.917969 110.652344 L -65.027344 110.28125 C -65.140625 109.839844 -65.140625 109.839844 -65.210938 109.355469 Z M 25.925781 41.3125 C 26.589844 41.597656 27.027344 41.988281 27.535156 42.496094 L 27.972656 42.929688 C 28.332031 43.351562 28.332031 43.351562 28.472656 43.777344 L 28.515625 44.09375 C 28.191406 44.292969 28.191406 44.292969 27.777344 44.464844 C 27.359375 44.394531 27.359375 44.394531 27.035156 44.28125 L 27.035156 44.09375 L 27.960938 43.910156 C 27.535156 43.050781 26.910156 42.464844 26.230469 41.808594 L 25.925781 41.5 Z M 68.078125 13.875 L 67.890625 14.800781 C 67.382812 15.011719 67.382812 15.011719 66.78125 15.171875 C 66.34375 15.011719 66.34375 15.011719 66.042969 14.800781 C 66.242188 14.644531 66.441406 14.492188 66.644531 14.339844 L 66.980469 14.078125 C 67.335938 13.875 67.335938 13.875 68.078125 13.875 M 19.457031 46.875 L 20.195312 46.875 L 20.195312 48.542969 L 19.085938 48.542969 L 19.085938 48.171875 L 19.457031 48.171875 L 19.351562 47.628906 L 19.273438 47.0625 Z M 19.457031 46.875 " fill-opacity="1" fill-rule="nonzero"/></g><g clip-path="url(#62f665d2a7)"><path fill="#0c2240" d="M 49.035156 120.109375 L 51.4375 120.292969 L 51.4375 120.664062 L 50.882812 121.035156 C 50.1875 120.976562 49.640625 120.828125 49.035156 120.476562 Z M 40.53125 14.617188 L 40.714844 14.988281 L 40.53125 15.542969 L 40.714844 16.101562 C 41.367188 16.328125 41.367188 16.328125 42.011719 16.46875 L 42.011719 16.839844 L 40.347656 16.65625 C 40.128906 16.15625 40.128906 16.15625 39.976562 15.542969 C 40.230469 15.011719 40.230469 15.011719 40.53125 14.617188 M 75.285156 82.65625 L 75.839844 83.027344 C 76.367188 83.140625 76.898438 83.214844 77.429688 83.292969 L 77.875 83.398438 L 78.058594 83.769531 L 75.472656 83.585938 Z M 53.84375 117.511719 C 54.6875 117.613281 55.316406 117.84375 56.058594 118.253906 L 55.503906 118.4375 L 55.066406 118.347656 C 54.535156 118.246094 54.175781 118.304688 53.65625 118.4375 Z M -51.53125 108.984375 L -50.605469 109.167969 L -50.421875 109.910156 C -50.941406 110.292969 -50.941406 110.292969 -51.53125 110.652344 L -52.085938 110.46875 L -51.726562 110.132812 C -51.308594 109.742188 -51.308594 109.742188 -51.160156 109.167969 Z M 27.035156 85.4375 L 29.625 85.996094 L 29.625 85.625 L 29.996094 85.625 L 29.808594 86.367188 C 28.703125 86.421875 28.027344 86.304688 27.035156 85.808594 Z M 48.664062 55.589844 L 54.027344 55.960938 L 54.027344 56.144531 C 53.464844 56.1875 52.902344 56.226562 52.339844 56.261719 L 51.859375 56.296875 C 50.949219 56.355469 50.257812 56.332031 49.40625 55.960938 Z M -14.929688 86.550781 L -14.558594 86.550781 C -14.75 87.210938 -15.027344 87.613281 -15.503906 88.09375 L -16.039062 88.589844 L -16.589844 88.40625 L -16.175781 88 C -15.664062 87.496094 -15.664062 87.496094 -15.261719 86.957031 Z M 25.558594 84.324219 C 26.007812 84.695312 26.007812 84.695312 26.296875 85.066406 L 26.007812 84.976562 C 25.171875 84.804688 24.339844 84.804688 23.523438 85.066406 L 23.339844 84.695312 C 24.101562 84.324219 24.714844 84.234375 25.558594 84.324219 M 86.191406 76.726562 C 87.609375 76.9375 87.609375 76.9375 88.214844 77.328125 C 88.476562 77.546875 88.722656 77.785156 88.964844 78.023438 L 88.78125 78.394531 L 88.503906 78.203125 C 87.679688 77.660156 86.96875 77.316406 86.007812 77.09375 Z M 86.191406 76.726562 " fill-opacity="1" fill-rule="nonzero"/></g><g clip-path="url(#787132772c)"><path fill="#0c2240" d="M -14.003906 82.472656 L -13.449219 82.472656 C -13.433594 82.90625 -13.433594 83.335938 -13.449219 83.769531 L -13.820312 84.324219 C -13.960938 83.695312 -14.023438 83.121094 -14.003906 82.472656 M -27.3125 81.546875 L -27.128906 81.546875 L -27.136719 82.019531 C -27.136719 82.222656 -27.140625 82.425781 -27.140625 82.632812 L -27.148438 83.246094 C -27.164062 83.761719 -27.164062 83.761719 -26.945312 84.140625 C -27.117188 84.535156 -27.117188 84.535156 -27.3125 84.882812 C -27.511719 84.285156 -27.523438 83.839844 -27.523438 83.214844 L -27.523438 82.621094 C -27.5 82.101562 -27.5 82.101562 -27.3125 81.546875 M 92.480469 52.992188 L 92.292969 53.550781 L 90.445312 53.734375 L 90.261719 53.363281 C 90.980469 52.882812 91.640625 52.964844 92.480469 52.992188 M 11.507812 119.179688 C 11.867188 119.332031 11.867188 119.332031 12.246094 119.550781 L 12.433594 120.109375 L 12.800781 120.109375 C 13.101562 120.476562 13.101562 120.476562 13.355469 120.847656 L 12.617188 120.847656 C 12.300781 120.53125 12.300781 120.53125 12.015625 120.121094 L 11.722656 119.707031 L 11.507812 119.367188 Z M 77.320312 75.054688 C 77.800781 75.777344 78.230469 76.503906 78.613281 77.28125 C 78.398438 77.113281 78.1875 76.941406 77.976562 76.769531 C 77.859375 76.675781 77.742188 76.582031 77.621094 76.484375 C 77.320312 76.167969 77.320312 76.167969 77.175781 75.785156 L 77.136719 75.425781 Z M 94.882812 26.296875 L 95.25 26.296875 C 95.257812 26.605469 95.257812 26.914062 95.25 27.222656 L 95.066406 27.410156 C 94.695312 27.417969 94.328125 27.417969 93.957031 27.410156 C 94.257812 27.03125 94.566406 26.660156 94.882812 26.296875 M 10.398438 50.398438 L 10.769531 50.582031 L 10.582031 52.808594 L 10.398438 52.808594 C 10.363281 52.441406 10.328125 52.074219 10.292969 51.707031 L 10.234375 51.089844 L 10.214844 50.582031 Z M -14.1875 84.882812 L -13.820312 84.882812 C -13.921875 85.503906 -14.070312 86 -14.375 86.550781 L -14.742188 86.179688 Z M 79.351562 73.015625 C 79.863281 73.050781 79.863281 73.050781 80.460938 73.203125 C 80.902344 73.675781 80.902344 73.675781 81.203125 74.128906 L 80.914062 73.96875 C 80.347656 73.703125 79.769531 73.550781 79.167969 73.386719 Z M 84.714844 70.976562 C 85.136719 70.96875 85.5625 70.960938 85.984375 70.953125 L 86.699219 70.941406 L 87.300781 70.976562 L 87.671875 71.347656 L 87.117188 71.535156 L 86.746094 71.347656 C 86.402344 71.304688 86.054688 71.273438 85.707031 71.242188 L 85.144531 71.195312 L 84.714844 71.164062 Z M 84.714844 70.976562 " fill-opacity="1" fill-rule="nonzero"/></g><g clip-path="url(#a14b88bf22)"><path fill="#0c2240" d="M -13.078125 22.960938 L -12.523438 22.960938 L -12.523438 23.332031 C -12.808594 23.570312 -12.808594 23.570312 -13.171875 23.816406 L -13.535156 24.066406 L -13.820312 24.257812 L -13.820312 23.699219 C -13.484375 23.296875 -13.484375 23.296875 -13.078125 22.960938 M 57.910156 111.023438 L 58.277344 111.023438 L 57.722656 112.691406 L 57.355469 112.507812 C 57.699219 111.441406 57.699219 111.441406 57.910156 111.023438 M 81.757812 38.347656 L 84.53125 38.53125 L 84.53125 38.71875 C 82.863281 38.957031 82.863281 38.957031 82.101562 38.730469 L 81.757812 38.53125 Z M 81.757812 38.347656 " fill-opacity="1" fill-rule="nonzero"/></g></svg>