<svg xmlns="http://www.w3.org/2000/svg" xmlns:xlink="http://www.w3.org/1999/xlink" width="48" zoomAndPan="magnify" viewBox="0 0 36 36.000001" height="48" preserveAspectRatio="xMidYMid meet" version="1.0"><defs><clipPath id="485fb15de2"><path d="M 0.488281 0 L 35.511719 0 L 35.511719 35.027344 L 0.488281 35.027344 Z M 0.488281 0 " clip-rule="nonzero"/></clipPath><clipPath id="ffc67bd289"><path d="M 0.488281 0 L 29 0 L 29 35.027344 L 0.488281 35.027344 Z M 0.488281 0 " clip-rule="nonzero"/></clipPath><clipPath id="dd933f5d94"><path d="M 0.488281 0 L 35.511719 0 L 35.511719 35.027344 L 0.488281 35.027344 Z M 0.488281 0 " clip-rule="nonzero"/></clipPath><clipPath id="056a6bad86"><path d="M 0.488281 0 L 35.511719 0 L 35.511719 21 L 0.488281 21 Z M 0.488281 0 " clip-rule="nonzero"/></clipPath><clipPath id="a4ac65ab1b"><path d="M 0.488281 0 L 35.511719 0 L 35.511719 35.027344 L 0.488281 35.027344 Z M 0.488281 0 " clip-rule="nonzero"/></clipPath><clipPath id="529ba59366"><path d="M 0.488281 18 L 35.511719 18 L 35.511719 35.027344 L 0.488281 35.027344 Z M 0.488281 18 " clip-rule="nonzero"/></clipPath><clipPath id="48043b24d9"><path d="M 0.488281 0 L 35.511719 0 L 35.511719 35.027344 L 0.488281 35.027344 Z M 0.488281 0 " clip-rule="nonzero"/></clipPath><clipPath id="bb8a89e26c"><path d="M 0.488281 0 L 32 0 L 32 35.027344 L 0.488281 35.027344 Z M 0.488281 0 " clip-rule="nonzero"/></clipPath><clipPath id="6d18437801"><path d="M 0.488281 0 L 35.511719 0 L 35.511719 35.027344 L 0.488281 35.027344 Z M 0.488281 0 " clip-rule="nonzero"/></clipPath><clipPath id="70263ca7b0"><path d="M 0.488281 27 L 30 27 L 30 35.027344 L 0.488281 35.027344 Z M 0.488281 27 " clip-rule="nonzero"/></clipPath><clipPath id="cf498a3f5f"><path d="M 0.488281 0 L 35.511719 0 L 35.511719 35.027344 L 0.488281 35.027344 Z M 0.488281 0 " clip-rule="nonzero"/></clipPath></defs><g clip-path="url(#485fb15de2)"><rect x="-3.6" width="43.2" fill="#fefefe" y="-3.6" height="43.200001" fill-opacity="1"/><path fill="#193049" d="M 54.25 8.941406 C 54.648438 8.859375 54.648438 8.859375 55.121094 8.855469 L 55.636719 8.855469 L 56.179688 8.863281 L 56.71875 8.855469 L 57.238281 8.855469 L 57.714844 8.859375 C 58.136719 8.941406 58.136719 8.941406 58.515625 9.226562 L 58.785156 9.589844 C 58.8125 10.316406 58.8125 10.316406 58.785156 11.097656 C 58.847656 11.460938 58.914062 11.820312 59 12.175781 L 59.59375 12.269531 C 60.296875 12.390625 60.296875 12.390625 60.726562 12.546875 L 61.160156 12.605469 C 61.574219 12.304688 61.890625 11.957031 62.242188 11.582031 L 62.671875 11.3125 C 63.292969 11.316406 63.292969 11.316406 63.964844 11.53125 C 64.5625 11.984375 64.5625 11.984375 65.125 12.554688 L 65.699219 13.117188 C 66.125 13.683594 66.125 13.683594 66.226562 14.238281 C 66.042969 15.179688 65.425781 15.753906 64.828125 16.488281 L 65.691406 18.425781 L 66.195312 18.464844 L 66.851562 18.519531 L 67.503906 18.574219 C 68.066406 18.640625 68.066406 18.640625 68.5 18.859375 C 68.738281 19.574219 68.75 20.125 68.753906 20.878906 L 68.765625 21.609375 C 68.714844 22.304688 68.617188 22.773438 68.28125 23.382812 C 67.632812 23.601562 67.195312 23.621094 66.515625 23.613281 L 65.925781 23.605469 L 65.476562 23.601562 C 65.195312 24.308594 64.949219 25 64.828125 25.753906 C 65.183594 26.40625 65.183594 26.40625 65.691406 26.832031 L 65.691406 27.265625 L 66.125 27.265625 C 66.179688 27.847656 66.179688 27.847656 66.125 28.558594 C 65.738281 29.09375 65.738281 29.09375 65.21875 29.582031 L 64.710938 30.074219 C 64.179688 30.5 63.757812 30.746094 63.101562 30.929688 C 62.523438 30.660156 62.078125 30.324219 61.578125 29.929688 C 61.175781 29.625 61.175781 29.625 60.753906 29.460938 C 60.101562 29.402344 59.605469 29.617188 59 29.851562 L 58.976562 30.394531 L 58.933594 31.101562 L 58.894531 31.808594 C 58.785156 32.4375 58.785156 32.4375 58.511719 32.792969 C 58.136719 33.082031 58.136719 33.082031 57.714844 33.167969 L 57.238281 33.167969 L 56.71875 33.171875 L 56.179688 33.164062 L 55.636719 33.171875 L 55.121094 33.167969 L 54.648438 33.167969 L 54.25 33.082031 C 53.761719 32.351562 53.742188 31.96875 53.683594 31.101562 L 53.636719 30.394531 L 53.601562 29.851562 C 52.875 29.6875 52.195312 29.585938 51.445312 29.636719 C 50.933594 29.929688 50.546875 30.25 50.125 30.660156 L 49.71875 30.929688 C 49.199219 30.925781 49.199219 30.925781 48.636719 30.710938 C 48.070312 30.25 48.070312 30.25 47.503906 29.675781 L 46.933594 29.105469 C 46.480469 28.558594 46.480469 28.558594 46.261719 28.109375 L 46.265625 27.695312 C 46.582031 27.277344 46.582031 27.277344 47.019531 26.859375 C 47.445312 26.421875 47.445312 26.421875 47.773438 25.972656 C 47.816406 25.273438 47.816406 25.273438 47.558594 24.675781 C 47.484375 24.390625 47.414062 24.101562 47.34375 23.816406 L 46.691406 23.777344 L 45.003906 23.667969 L 44.320312 23.601562 L 44.105469 23.382812 C 43.894531 21.921875 43.832031 20.527344 44.105469 19.074219 L 44.320312 18.859375 C 44.792969 18.808594 45.265625 18.769531 45.738281 18.738281 L 46.519531 18.683594 L 47.128906 18.640625 L 47.328125 18.027344 C 47.558594 17.347656 47.558594 17.347656 47.789062 16.824219 L 47.773438 16.273438 C 47.402344 15.863281 47.011719 15.511719 46.582031 15.160156 L 46.265625 14.761719 C 46.253906 14.253906 46.253906 14.253906 46.480469 13.683594 C 46.84375 13.222656 47.1875 12.828125 47.601562 12.417969 L 47.90625 12.085938 C 48.214844 11.773438 48.214844 11.773438 48.855469 11.3125 C 49.542969 11.316406 49.542969 11.316406 50.148438 11.53125 L 50.742188 12.109375 L 51.445312 12.605469 C 52.199219 12.574219 52.882812 12.398438 53.601562 12.175781 L 53.636719 11.632812 L 53.683594 10.921875 C 53.699219 10.691406 53.714844 10.457031 53.730469 10.21875 C 53.820312 9.589844 53.820312 9.589844 54.25 8.941406 M 15.082031 41.664062 L 15.828125 41.65625 C 16.472656 41.707031 16.472656 41.707031 17.121094 42.136719 C 17.183594 42.648438 17.183594 42.648438 17.160156 43.242188 L 17.144531 43.835938 L 17.121094 44.292969 L 17.523438 44.378906 L 18.050781 44.492188 L 18.574219 44.605469 C 19.0625 44.722656 19.0625 44.722656 19.710938 44.9375 L 20.332031 44.507812 L 21.007812 44.074219 C 21.699219 44.117188 22.105469 44.304688 22.710938 44.652344 L 23.339844 45.101562 L 23.980469 45.542969 L 24.460938 46.015625 C 24.5625 46.5625 24.5625 46.5625 24.460938 47.09375 C 24.222656 47.527344 24.222656 47.527344 23.921875 47.914062 L 23.617188 48.308594 L 23.382812 48.601562 C 23.648438 49.335938 23.9375 49.957031 24.460938 50.542969 C 25.09375 50.71875 25.632812 50.746094 26.289062 50.738281 L 26.835938 50.757812 L 27.484375 51.1875 C 27.542969 51.816406 27.5625 52.394531 27.550781 53.019531 L 27.550781 53.535156 C 27.546875 53.972656 27.515625 54.414062 27.484375 54.851562 L 27.050781 55.285156 C 26.628906 55.332031 26.207031 55.371094 25.78125 55.40625 C 25.085938 55.488281 25.085938 55.488281 24.460938 55.714844 C 24.058594 56.183594 23.878906 56.585938 23.675781 57.160156 C 23.59375 57.6875 23.644531 58.015625 23.8125 58.515625 L 24.246094 58.515625 L 24.675781 59.164062 C 24.65625 59.671875 24.65625 59.671875 24.460938 60.242188 C 24.019531 60.824219 24.019531 60.824219 23.460938 61.398438 C 23.28125 61.59375 23.101562 61.785156 22.914062 61.984375 C 22.710938 62.121094 22.511719 62.257812 22.300781 62.398438 C 21.527344 62.390625 21.527344 62.390625 20.789062 62.179688 L 20.34375 61.839844 L 19.925781 61.535156 C 19.316406 61.503906 19.316406 61.503906 18.6875 61.601562 L 18.042969 61.679688 L 17.554688 61.75 L 17.558594 62.136719 C 17.570312 63.042969 17.566406 63.882812 17.335938 64.769531 C 15.875 65.027344 14.230469 65.242188 12.804688 64.769531 L 12.769531 64.234375 C 12.695312 63.511719 12.597656 62.871094 12.371094 62.179688 C 11.957031 61.761719 11.632812 61.59375 11.082031 61.394531 C 10.617188 61.289062 10.617188 61.289062 10.050781 61.441406 C 9.5625 61.738281 9.5625 61.738281 9.132812 62.101562 C 8.703125 62.398438 8.703125 62.398438 8.214844 62.476562 C 7.621094 62.398438 7.621094 62.398438 6.988281 61.972656 L 6.355469 61.398438 L 5.707031 60.839844 L 5.246094 60.242188 C 5.257812 59.550781 5.257812 59.550781 5.464844 58.949219 L 5.921875 58.503906 L 6.328125 58.085938 C 6.320312 57.554688 6.320312 57.554688 6.113281 57.007812 L 5.882812 56.292969 L 5.679688 55.714844 L 5.121094 55.675781 L 3.675781 55.566406 L 3.089844 55.5 L 2.875 55.285156 C 2.855469 54.996094 2.847656 54.703125 2.851562 54.414062 L 2.855469 53.886719 L 2.859375 53.332031 L 2.863281 52.773438 C 2.867188 52.316406 2.871094 51.859375 2.875 51.40625 L 3.417969 51.308594 C 4.121094 51.164062 4.789062 51.003906 5.464844 50.757812 C 6 50.066406 6.085938 49.585938 6.261719 48.738281 L 6.328125 48.171875 L 5.894531 48.171875 C 5.519531 47.6875 5.519531 47.6875 5.246094 47.09375 C 5.582031 46.175781 6.253906 45.546875 6.941406 44.878906 C 7.40625 44.507812 7.40625 44.507812 8.214844 44.25 L 8.917969 44.292969 C 9.210938 44.5 9.5 44.714844 9.78125 44.9375 C 10.300781 44.914062 10.300781 44.914062 10.859375 44.722656 L 11.683594 44.492188 C 11.910156 44.425781 12.136719 44.359375 12.371094 44.292969 L 12.355469 43.882812 L 12.34375 43.347656 L 12.328125 42.820312 L 12.371094 42.351562 C 12.804688 41.921875 12.804688 41.921875 13.171875 41.789062 C 13.816406 41.679688 14.433594 41.667969 15.082031 41.664062 M 57.574219 -27.855469 C 58.996094 -27.203125 60.085938 -26.316406 61.066406 -25.097656 C 61.589844 -24.246094 61.691406 -23.523438 61.726562 -22.527344 C 61.660156 -21.199219 61.4375 -20.199219 60.726562 -19.078125 L 60.425781 -18.597656 C 59.191406 -16.847656 57.398438 -15.589844 55.546875 -14.550781 C 55.222656 -14.40625 54.894531 -14.273438 54.5625 -14.148438 C 53.484375 -13.726562 52.417969 -13.285156 51.351562 -12.835938 C 50.957031 -12.675781 50.554688 -12.53125 50.148438 -12.394531 C 49.898438 -11.765625 49.898438 -11.765625 49.71875 -11.101562 L 49.5 -10.671875 L 49.933594 -10.671875 L 50.042969 -10.1875 C 50.335938 -9.53125 50.335938 -9.53125 51.070312 -9.15625 C 52.304688 -8.570312 53.613281 -8.4375 54.953125 -8.257812 C 55.453125 -8.191406 55.953125 -8.117188 56.453125 -8.046875 L 57.121094 -7.957031 C 57.613281 -7.882812 58.082031 -7.773438 58.570312 -7.652344 C 59.0625 -7.621094 59.558594 -7.605469 60.050781 -7.597656 L 60.832031 -7.582031 C 61.671875 -7.660156 62.175781 -7.855469 62.886719 -8.300781 C 63.449219 -9.089844 63.769531 -9.703125 63.910156 -10.65625 L 63.964844 -11.316406 C 62.488281 -11.226562 61.511719 -10.90625 60.214844 -10.226562 C 58.453125 -9.378906 56.925781 -9.144531 54.984375 -9.261719 C 53.738281 -9.386719 52.585938 -9.730469 51.445312 -10.238281 L 51.230469 -11.316406 L 51.855469 -11.625 C 52.144531 -11.769531 52.4375 -11.914062 52.726562 -12.058594 L 53.195312 -12.289062 C 54.015625 -12.699219 54.824219 -13.113281 55.621094 -13.558594 C 58.382812 -15.085938 60.855469 -15.941406 64.03125 -15.9375 C 65.121094 -15.808594 65.9375 -15.457031 66.867188 -14.859375 L 67.203125 -14.550781 L 67.203125 -14.121094 L 67.851562 -13.902344 C 68.398438 -13.152344 68.691406 -12.371094 68.808594 -11.453125 C 68.65625 -10.179688 68.441406 -9.070312 67.714844 -7.992188 C 66.277344 -6.265625 64.527344 -5.378906 62.46875 -4.582031 L 62.054688 -4.421875 C 58.78125 -3.222656 54.949219 -3.214844 51.519531 -3.628906 C 49.632812 -3.964844 47.933594 -4.679688 46.441406 -5.875 C 45.488281 -6.738281 44.886719 -7.59375 44.46875 -8.808594 C 44.105469 -10.203125 43.976562 -11.472656 44.335938 -12.878906 C 44.636719 -13.722656 44.988281 -14.398438 45.613281 -15.046875 C 47.394531 -16.546875 49.488281 -17.445312 51.605469 -18.367188 C 53.960938 -19.394531 53.960938 -19.394531 55.929688 -21.007812 L 56.195312 -21.449219 L 56.195312 -22.308594 C 54.445312 -22.351562 52.863281 -22.335938 51.148438 -21.957031 C 50.5 -21.867188 49.960938 -21.941406 49.3125 -22.039062 C 48.734375 -22.125 48.734375 -22.125 48.207031 -22.09375 C 47.359375 -21.371094 46.933594 -20.511719 46.480469 -19.507812 L 45.832031 -19.722656 L 45.765625 -20.140625 L 45.617188 -20.585938 C 44.96875 -20.867188 44.96875 -20.867188 44.320312 -21.015625 L 44.535156 -21.878906 L 45.359375 -21.933594 C 45.832031 -21.980469 45.832031 -21.980469 46.265625 -22.09375 C 46.710938 -22.480469 46.710938 -22.480469 46.910156 -22.957031 L 46.910156 -23.386719 L 46.359375 -23.886719 L 45.832031 -24.464844 C 45.855469 -24.972656 45.855469 -24.972656 46.046875 -25.542969 C 46.855469 -26.722656 47.828125 -27.691406 49.097656 -28.359375 C 51.78125 -29.625 54.957031 -28.964844 57.574219 -27.855469 M 20.75 -28.316406 C 21.753906 -27.921875 22.601562 -27.367188 23.382812 -26.621094 C 23.640625 -26.277344 23.890625 -25.933594 24.136719 -25.582031 C 24.484375 -25.082031 24.484375 -25.082031 24.890625 -24.679688 C 25.519531 -24.457031 25.945312 -24.453125 26.621094 -24.464844 L 26.835938 -24.898438 L 28.128906 -24.898438 C 28.078125 -24.492188 28.078125 -24.492188 27.914062 -24.035156 C 27.46875 -23.765625 27.46875 -23.765625 27.050781 -23.601562 L 27.386719 -23.210938 L 27.699219 -22.742188 L 27.484375 -22.09375 C 26.753906 -22.210938 26.386719 -22.320312 25.757812 -22.742188 C 24.640625 -22.898438 23.617188 -22.78125 22.558594 -22.417969 C 20.609375 -21.769531 18.480469 -22.058594 16.472656 -22.308594 L 16.472656 -21.449219 L 16.863281 -21.261719 C 17.335938 -21.015625 17.335938 -21.015625 18.039062 -20.546875 C 18.886719 -20.007812 19.785156 -19.613281 20.710938 -19.226562 C 22.851562 -18.316406 25.011719 -17.351562 26.621094 -15.628906 L 26.984375 -15.246094 C 27.699219 -14.449219 28.332031 -13.675781 28.5625 -12.609375 C 28.699219 -11.226562 28.753906 -9.851562 28.226562 -8.542969 C 27.578125 -7.316406 26.699219 -6.308594 25.585938 -5.484375 C 24.867188 -5.050781 24.183594 -4.765625 23.394531 -4.488281 L 22.632812 -4.214844 C 19.578125 -3.308594 15.652344 -3.449219 12.535156 -4.015625 C 10.359375 -4.554688 7.941406 -5.226562 6.214844 -6.699219 C 5.617188 -7.273438 5.160156 -7.734375 4.871094 -8.523438 C 4.648438 -9.332031 4.546875 -10.066406 4.695312 -10.898438 C 4.972656 -11.777344 5.457031 -12.417969 6.085938 -13.078125 C 7.101562 -13.953125 8.308594 -14.476562 9.59375 -14.832031 C 12.410156 -15.347656 15.355469 -14.992188 18.054688 -14.097656 C 19.375 -13.585938 20.644531 -12.976562 21.65625 -11.964844 C 21.914062 -11.492188 21.914062 -11.492188 22.085938 -11.101562 C 21.75 -10.699219 21.75 -10.699219 21.222656 -10.238281 C 19.664062 -9.707031 18.105469 -9.601562 16.472656 -9.808594 C 15.554688 -10.015625 14.671875 -10.316406 13.789062 -10.628906 C 12.5 -11.058594 11.550781 -11.125 10.214844 -10.886719 L 9.996094 -10.023438 C 11.351562 -9.601562 12.703125 -9.21875 14.097656 -8.945312 L 14.679688 -8.832031 C 16.847656 -8.527344 19.328125 -8.46875 21.414062 -9.167969 C 21.929688 -9.386719 21.929688 -9.386719 22.558594 -9.847656 C 22.9375 -10.4375 23.027344 -10.652344 23.070312 -11.316406 C 23.027344 -11.988281 22.929688 -12.214844 22.558594 -12.8125 C 22.105469 -13.300781 22.105469 -13.300781 21.4375 -13.472656 L 21.4375 -13.902344 L 20.789062 -13.902344 L 20.789062 -14.335938 L 20.035156 -14.5 C 19.074219 -14.742188 18.230469 -15.113281 17.351562 -15.5625 L 16.894531 -15.792969 C 15.1875 -16.679688 13.734375 -17.6875 12.636719 -19.289062 C 11.902344 -20.5 11.675781 -21.507812 11.617188 -22.929688 C 11.648438 -24.15625 11.820312 -25.101562 12.441406 -26.164062 C 13.207031 -27.128906 14.140625 -27.648438 15.253906 -28.136719 C 17 -28.75 18.964844 -28.835938 20.75 -28.316406 M -21.710938 -59.140625 C -19.542969 -57.730469 -19.542969 -57.730469 -18.929688 -57.226562 L -18.929688 -56.796875 L -17.851562 -56.367188 L -17.851562 -55.933594 L -17.417969 -55.800781 C -16.832031 -55.53125 -16.503906 -55.289062 -16.023438 -54.878906 C -14.949219 -54.0625 -13.839844 -53.816406 -12.535156 -53.535156 C -12.074219 -53.429688 -11.613281 -53.320312 -11.152344 -53.214844 L -10.480469 -53.0625 C -9.679688 -52.875 -8.886719 -52.667969 -8.09375 -52.445312 L -7.425781 -52.261719 C -6.804688 -52.039062 -6.300781 -51.785156 -5.761719 -51.40625 C -5.242188 -50.53125 -5.070312 -49.839844 -5.03125 -48.820312 C -5.070312 -47.792969 -5.214844 -47.113281 -5.761719 -46.234375 C -6.320312 -45.800781 -6.625 -45.574219 -7.273438 -45.371094 C -7.929688 -45.308594 -8.558594 -45.320312 -9.214844 -45.371094 L -9.375 -45.804688 C -9.953125 -47.328125 -9.953125 -47.328125 -10.941406 -48.605469 C -11.824219 -49.222656 -12.507812 -49.421875 -13.558594 -49.550781 C -14.523438 -49.457031 -15.207031 -49.222656 -16.058594 -48.769531 C -16.789062 -48.210938 -17.097656 -47.566406 -17.453125 -46.730469 C -17.589844 -46.351562 -17.722656 -45.972656 -17.851562 -45.589844 C -19.003906 -45.351562 -20.117188 -45.339844 -21.289062 -45.335938 L -21.902344 -45.335938 C -22.332031 -45.332031 -22.757812 -45.332031 -23.183594 -45.332031 C -23.839844 -45.332031 -24.496094 -45.328125 -25.152344 -45.324219 C -25.570312 -45.324219 -25.984375 -45.324219 -26.402344 -45.324219 L -26.996094 -45.320312 L -28.03125 -45.320312 L -28.429688 -45.371094 C -28.917969 -45.863281 -29 -46.179688 -29.210938 -46.828125 C -29.453125 -47.460938 -29.65625 -47.890625 -30.132812 -48.382812 C -30.839844 -48.917969 -31.433594 -49.304688 -32.3125 -49.46875 C -33.039062 -49.539062 -33.613281 -49.554688 -34.292969 -49.273438 C -34.59375 -49.121094 -34.890625 -48.960938 -35.183594 -48.792969 C -35.550781 -48.605469 -35.550781 -48.605469 -35.984375 -48.605469 C -36.335938 -47.914062 -36.660156 -47.210938 -36.980469 -46.503906 L -37.273438 -45.859375 L -37.496094 -45.371094 C -37.871094 -45.390625 -38.25 -45.414062 -38.628906 -45.441406 L -39.265625 -45.476562 C -39.871094 -45.589844 -39.871094 -45.589844 -40.375 -45.796875 L -40.734375 -46.234375 C -40.839844 -46.898438 -40.8125 -47.546875 -40.785156 -48.214844 L -40.773438 -48.765625 C -40.765625 -49.214844 -40.75 -49.664062 -40.734375 -50.113281 C -39.59375 -50.789062 -39.59375 -50.789062 -39.222656 -50.976562 L -38.789062 -50.976562 C -38.753906 -51.597656 -38.753906 -51.597656 -38.789062 -52.269531 L -39.222656 -52.917969 L -38.507812 -53.347656 C -37.402344 -54.160156 -36.734375 -55.238281 -36.011719 -56.382812 C -35.347656 -57.410156 -34.632812 -58.265625 -33.609375 -58.953125 C -32.710938 -59.410156 -31.855469 -59.460938 -30.863281 -59.480469 L -30.378906 -59.492188 C -30.039062 -59.503906 -29.699219 -59.511719 -29.363281 -59.519531 C -28.851562 -59.53125 -28.34375 -59.546875 -27.835938 -59.5625 C -23.238281 -59.6875 -23.238281 -59.6875 -21.710938 -59.140625 " fill-opacity="1" fill-rule="nonzero"/></g><g clip-path="url(#ffc67bd289)"><path fill="#cf1b15" d="M -23.328125 43.175781 C -21.882812 43.890625 -20.429688 44.917969 -19.4375 46.199219 C -18.5 47.691406 -17.808594 49.203125 -17.707031 50.96875 C -17.683594 53.054688 -18.28125 54.847656 -19.207031 56.699219 C -19.871094 57.871094 -20.679688 58.960938 -21.464844 60.054688 L -21.78125 60.496094 C -22.042969 60.851562 -22.320312 61.195312 -22.597656 61.535156 L -23.03125 61.535156 L -23.179688 61.996094 C -23.527344 62.75 -23.980469 63.253906 -24.542969 63.867188 L -25.121094 64.503906 L -25.621094 64.984375 L -26.054688 64.984375 L -26.484375 65.84375 C -26.890625 65.792969 -26.890625 65.792969 -27.347656 65.628906 C -27.496094 65.34375 -27.640625 65.058594 -27.78125 64.769531 L -28.167969 64.59375 C -28.796875 64.253906 -29.121094 63.816406 -29.5625 63.257812 L -30.023438 62.679688 L -30.371094 62.179688 L -30.371094 61.75 L -30.800781 61.75 C -31.070312 61.449219 -31.070312 61.449219 -31.367188 61.023438 L -31.695312 60.558594 L -32.042969 60.054688 L -32.398438 59.542969 C -35.355469 55.265625 -35.355469 55.265625 -35.769531 52.699219 C -35.90625 50.820312 -35.671875 49.382812 -34.898438 47.679688 C -34.097656 46.101562 -32.941406 44.890625 -31.476562 43.902344 C -29.097656 42.542969 -25.929688 42.25 -23.328125 43.175781 M 13.667969 5.925781 C 15.464844 6.347656 16.917969 7.042969 18.332031 8.238281 C 19.183594 9.046875 19.898438 9.925781 20.574219 10.882812 L 20.890625 11.316406 C 22.253906 13.429688 22.574219 16.398438 22.734375 18.859375 C 23.269531 18.554688 23.269531 18.554688 23.8125 17.996094 C 24.484375 16.75 24.789062 15.515625 24.890625 14.117188 C 25.285156 14.171875 25.285156 14.171875 25.757812 14.332031 C 26.277344 14.917969 26.65625 15.597656 27.050781 16.273438 L 27.351562 16.78125 C 28.332031 18.582031 28.796875 20.503906 28.859375 22.550781 C 28.800781 24.433594 28.289062 26.054688 27.347656 27.679688 C 26.285156 29.273438 24.957031 30.121094 23.273438 30.992188 C 22.378906 31.410156 21.5625 31.6875 20.574219 31.789062 L 20.574219 31.359375 L 21.007812 31.359375 L 21.007812 30.929688 L 21.507812 30.46875 C 22.050781 29.886719 22.375 29.410156 22.625 28.652344 C 22.894531 27.355469 22.953125 25.996094 22.539062 24.726562 C 22.390625 24.398438 22.230469 24.070312 22.058594 23.753906 C 21.871094 23.382812 21.871094 23.382812 21.871094 22.953125 L 21.4375 22.953125 L 21.367188 23.339844 C 21.167969 24.335938 20.957031 25.128906 20.359375 25.972656 C 19.96875 25.917969 19.96875 25.917969 19.496094 25.753906 C 18.679688 24.867188 18.464844 23.789062 18.15625 22.652344 C 17.765625 20.894531 17.976562 19.503906 18.492188 17.792969 L 18.632812 17.347656 C 17.246094 18.011719 16.277344 18.890625 15.394531 20.152344 C 14.566406 21.886719 14.1875 23.625 14.316406 25.539062 C 14.433594 26.335938 14.582031 27.125 14.746094 27.910156 C 14.242188 27.855469 14.242188 27.855469 13.667969 27.695312 C 13.339844 27.304688 13.339844 27.304688 13.085938 26.832031 C 12.925781 26.542969 12.761719 26.253906 12.585938 25.972656 L 12.15625 25.753906 C 11.902344 27.015625 11.8125 28.1875 12.089844 29.445312 C 12.441406 30.21875 12.882812 30.730469 13.453125 31.359375 L 13.234375 31.789062 C 11.148438 30.914062 9.554688 29.792969 8.054688 28.125 C 7.523438 27.367188 7.125 26.605469 6.757812 25.753906 L 6.539062 25.3125 C 5.832031 23.660156 5.949219 21.691406 6.113281 19.9375 C 6.53125 17.460938 7.628906 15.566406 9.203125 13.644531 C 9.390625 13.445312 9.585938 13.246094 9.78125 13.039062 L 10.214844 13.039062 L 10.171875 13.65625 C 10.175781 14.703125 10.398438 15.761719 10.859375 16.703125 C 11.292969 16.988281 11.292969 16.988281 11.722656 17.132812 L 11.941406 16.273438 L 12.371094 16.273438 L 12.535156 15.855469 C 12.683594 15.484375 12.839844 15.117188 13.007812 14.757812 C 13.910156 12.839844 14.257812 11.066406 14.097656 8.941406 C 14.003906 8.433594 13.894531 7.925781 13.761719 7.421875 C 13.648438 6.917969 13.632812 6.441406 13.667969 5.925781 M -110.015625 -63.355469 L -109.398438 -63.359375 C -108.972656 -63.359375 -108.542969 -63.359375 -108.117188 -63.359375 C -107.46875 -63.355469 -106.820312 -63.363281 -106.171875 -63.371094 C -105.753906 -63.371094 -105.335938 -63.371094 -104.917969 -63.371094 L -104.335938 -63.375 C -102.953125 -63.363281 -101.738281 -63.09375 -100.53125 -62.402344 C -99.917969 -61.78125 -99.382812 -61.148438 -99.117188 -60.308594 C -98.988281 -59.660156 -98.960938 -59.03125 -98.933594 -58.371094 L -98.914062 -57.9375 C -98.894531 -57.464844 -98.875 -56.992188 -98.855469 -56.523438 L -98.8125 -55.535156 C -98.785156 -54.84375 -98.753906 -54.15625 -98.726562 -53.464844 C -98.6875 -52.585938 -98.652344 -51.703125 -98.613281 -50.820312 C -98.550781 -49.359375 -98.488281 -47.902344 -98.425781 -46.441406 L -98.394531 -45.65625 L -98.371094 -44.941406 L -98.339844 -44.226562 L -98.371094 -43.648438 L -98.800781 -43.21875 L -99.667969 -43.21875 C -99.933594 -44.652344 -99.902344 -46.074219 -99.882812 -47.527344 L -100.324219 -47.503906 L -100.90625 -47.488281 L -101.484375 -47.464844 C -102.039062 -47.527344 -102.039062 -47.527344 -102.542969 -47.828125 L -102.902344 -48.175781 L -102.902344 -48.605469 L -111.972656 -48.390625 L -112.402344 -46.449219 L -113.699219 -46.449219 L -113.699219 -47.527344 L -114.992188 -47.527344 L -114.992188 -43.21875 L -116.289062 -43.433594 L -116.289062 -43.863281 L -116.71875 -43.863281 C -116.742188 -45.191406 -116.742188 -45.191406 -116.71875 -45.589844 L -116.503906 -45.804688 C -116.449219 -46.390625 -116.410156 -46.96875 -116.382812 -47.554688 L -116.355469 -48.101562 C -116.277344 -49.777344 -116.273438 -51.453125 -116.296875 -53.128906 C -116.304688 -54.214844 -116.261719 -55.261719 -116.125 -56.335938 C -116.074219 -56.789062 -116.046875 -57.238281 -116.027344 -57.695312 L -116.007812 -58.128906 C -115.996094 -58.417969 -115.988281 -58.710938 -115.980469 -59 C -115.933594 -59.992188 -115.726562 -60.6875 -115.207031 -61.539062 C -113.699219 -63.046875 -112.082031 -63.363281 -110.015625 -63.355469 " fill-opacity="1" fill-rule="nonzero"/></g><g clip-path="url(#dd933f5d94)"><path fill="#193049" d="M 48.207031 -45.371094 C 48.796875 -45.394531 49.382812 -45.402344 49.972656 -45.402344 L 50.53125 -45.402344 C 51.148438 -45.402344 51.761719 -45.402344 52.375 -45.402344 C 52.800781 -45.402344 53.226562 -45.402344 53.652344 -45.402344 C 54.542969 -45.402344 55.433594 -45.402344 56.328125 -45.402344 C 57.472656 -45.398438 58.621094 -45.398438 59.765625 -45.402344 C 60.644531 -45.402344 61.523438 -45.402344 62.402344 -45.402344 C 62.824219 -45.402344 63.246094 -45.402344 63.667969 -45.402344 C 64.257812 -45.402344 64.847656 -45.402344 65.4375 -45.402344 L 65.972656 -45.402344 C 66.382812 -45.402344 66.792969 -45.386719 67.203125 -45.371094 L 67.417969 -45.15625 C 67.441406 -44.617188 67.449219 -44.082031 67.445312 -43.539062 L 67.449219 -43.082031 C 67.449219 -42.695312 67.433594 -42.308594 67.417969 -41.925781 L 67.203125 -41.707031 C 66.613281 -41.6875 66.027344 -41.679688 65.4375 -41.679688 L 64.878906 -41.679688 C 64.261719 -41.679688 63.648438 -41.679688 63.035156 -41.679688 C 62.609375 -41.679688 62.183594 -41.679688 61.757812 -41.679688 C 60.867188 -41.679688 59.976562 -41.679688 59.082031 -41.679688 C 57.9375 -41.679688 56.789062 -41.679688 55.644531 -41.679688 C 54.765625 -41.679688 53.886719 -41.679688 53.007812 -41.679688 C 52.585938 -41.679688 52.164062 -41.679688 51.742188 -41.679688 C 51.152344 -41.679688 50.5625 -41.679688 49.972656 -41.679688 L 49.4375 -41.679688 C 49.027344 -41.679688 48.617188 -41.695312 48.207031 -41.707031 L 47.992188 -41.925781 C 47.96875 -42.464844 47.960938 -43 47.964844 -43.539062 L 47.960938 -44 C 47.960938 -44.386719 47.976562 -44.773438 47.992188 -45.15625 Z M -32.53125 62.230469 C -32 62.433594 -31.769531 62.679688 -31.398438 63.109375 L -31.023438 63.542969 L -30.640625 64 L -30.246094 64.453125 C -29.546875 65.273438 -29.546875 65.273438 -29.292969 65.628906 L -29.292969 66.0625 L -28.859375 66.0625 L -28.523438 66.480469 C -28.046875 66.941406 -28.046875 66.941406 -27.554688 67.058594 C -27.011719 67.144531 -26.601562 67.210938 -26.054688 67.140625 C -25.097656 66.605469 -24.414062 65.960938 -23.691406 65.144531 L -23.136719 64.519531 L -22.597656 63.90625 L -22.125 63.367188 C -21.777344 62.972656 -21.433594 62.578125 -21.089844 62.179688 C -19.742188 62.367188 -18.6875 62.660156 -17.546875 63.40625 C -17.203125 63.691406 -17.203125 63.691406 -16.769531 64.335938 C -16.796875 64.957031 -16.796875 64.957031 -16.988281 65.628906 C -17.414062 66.261719 -17.78125 66.664062 -18.429688 67.074219 C -21.585938 68.484375 -25.285156 68.929688 -28.71875 68.597656 C -31.289062 68.328125 -33.765625 68.035156 -35.929688 66.503906 L -36.414062 66.0625 C -36.644531 65.320312 -36.644531 65.320312 -36.632812 64.550781 C -36.347656 63.988281 -36.347656 63.988281 -35.769531 63.476562 C -33.433594 62.125 -33.433594 62.125 -32.53125 62.230469 M 28.992188 54.421875 C 29.308594 54.410156 29.625 54.402344 29.9375 54.394531 L 30.46875 54.378906 L 30.9375 54.421875 L 31.367188 54.851562 C 31.480469 55.476562 31.480469 55.476562 31.542969 56.226562 L 31.617188 56.972656 C 31.585938 57.65625 31.585938 57.65625 31.328125 58.160156 C 30.9375 58.515625 30.9375 58.515625 30.449219 58.695312 L 29.925781 58.785156 C 29.75 58.820312 29.574219 58.851562 29.394531 58.882812 L 28.992188 58.949219 C 28.753906 59.597656 28.574219 60.195312 28.5625 60.886719 C 28.851562 61.308594 29.148438 61.5625 29.558594 61.863281 L 29.859375 62.179688 C 29.957031 62.683594 29.957031 62.683594 29.859375 63.257812 C 29.476562 63.84375 29.476562 63.84375 28.96875 64.417969 L 28.464844 65 L 27.914062 65.414062 C 27.242188 65.394531 27.242188 65.394531 26.621094 65.199219 L 25.972656 64.769531 C 25.148438 64.839844 24.539062 65.03125 23.8125 65.414062 L 23.828125 65.871094 L 23.839844 66.464844 L 23.855469 67.054688 L 23.8125 67.570312 C 23.382812 68 23.382812 68 22.914062 68.136719 C 20.871094 68.527344 20.871094 68.527344 19.925781 68.433594 C 19.351562 67.859375 19.257812 67.28125 19.039062 66.511719 L 18.847656 66.0625 L 18.199219 65.628906 L 18.847656 63.257812 L 19.925781 63.042969 L 20.65625 63.378906 C 21.410156 63.746094 21.410156 63.746094 22.152344 63.636719 C 23.332031 63.210938 24.269531 62.214844 25.109375 61.320312 C 25.613281 60.65625 25.753906 60.265625 25.867188 59.429688 C 25.882812 59.140625 25.894531 58.847656 25.90625 58.558594 L 25.925781 58.105469 C 25.945312 57.738281 25.957031 57.375 25.972656 57.007812 L 26.414062 56.878906 C 27.027344 56.675781 27.570312 56.464844 28.128906 56.144531 C 28.5625 55.582031 28.746094 55.097656 28.992188 54.421875 " fill-opacity="1" fill-rule="nonzero"/><path fill="#0c2240" d="M 33.3125 -43.863281 C 33.816406 -43.871094 34.320312 -43.871094 34.824219 -43.863281 L 35.039062 -43.648438 C 35.046875 -43.144531 35.046875 -42.644531 35.039062 -42.140625 C 34.46875 -41.855469 34.042969 -41.894531 33.402344 -41.894531 L 32.625 -41.890625 L 31.769531 -41.894531 L 30.871094 -41.890625 C 30.058594 -41.890625 29.246094 -41.886719 28.429688 -41.886719 C 27.753906 -41.886719 27.074219 -41.886719 26.394531 -41.886719 C 24.792969 -41.886719 23.195312 -41.882812 21.59375 -41.882812 C 19.941406 -41.882812 18.285156 -41.882812 16.632812 -41.878906 C 15.214844 -41.875 13.796875 -41.875 12.378906 -41.875 C 11.53125 -41.875 10.6875 -41.875 9.839844 -41.871094 C 9.042969 -41.871094 8.246094 -41.871094 7.449219 -41.871094 C 7.015625 -41.871094 6.582031 -41.871094 6.148438 -41.867188 L 5.375 -41.871094 L 4.695312 -41.871094 L 4.167969 -41.925781 L 3.738281 -42.355469 C 3.710938 -43.027344 3.710938 -43.027344 3.738281 -43.648438 L 4.167969 -43.21875 L 4.167969 -42.570312 L 34.175781 -42.785156 L 34.390625 -43.648438 L 33.3125 -43.648438 Z M -117.152344 45.800781 C -116.792969 45.792969 -116.433594 45.792969 -116.074219 45.800781 L -116.074219 46.445312 L -115.640625 46.445312 L -115.601562 46.886719 L -115.546875 47.472656 C -115.527344 47.660156 -115.511719 47.851562 -115.492188 48.046875 C -115.433594 48.527344 -115.339844 49 -115.207031 49.464844 L -114.761719 49.519531 C -113.941406 49.726562 -113.34375 50.101562 -112.617188 50.542969 C -112.914062 50.867188 -112.914062 50.867188 -113.265625 51.1875 L -113.699219 51.1875 L -113.265625 52.050781 C -114.03125 51.828125 -114.632812 51.578125 -115.277344 51.121094 C -115.648438 50.878906 -115.648438 50.878906 -116.074219 50.757812 C -117.058594 50.902344 -117.839844 51.289062 -118.664062 51.835938 C -119.109375 51.78125 -119.109375 51.78125 -119.527344 51.621094 L -119.957031 51.1875 C -119.917969 50.757812 -119.917969 50.757812 -119.742188 50.328125 L -119.09375 49.894531 L -118.445312 49.894531 L -118.445312 49.25 L -119.066406 49.101562 L -119.742188 48.816406 C -120.039062 48.253906 -120.039062 48.253906 -120.175781 47.742188 L -119.742188 47.308594 C -118.84375 47.375 -118.15625 47.53125 -117.367188 47.957031 L -117.375 47.539062 L -117.390625 46.460938 L -117.367188 46.015625 Z M -106.574219 45.800781 C -106.035156 45.773438 -106.035156 45.773438 -105.496094 45.800781 L -105.277344 46.015625 C -105.261719 46.34375 -105.261719 46.671875 -105.265625 47 L -105.269531 47.539062 L -105.277344 47.957031 L -104.929688 47.757812 L -104.46875 47.511719 L -104.015625 47.261719 C -103.550781 47.09375 -103.550781 47.09375 -103.0625 47.175781 L -102.6875 47.308594 L -102.472656 48.386719 C -103.609375 49.058594 -103.609375 49.058594 -103.984375 49.25 L -104.414062 49.25 L -104.414062 49.679688 L -103.914062 49.867188 C -103.335938 50.109375 -103.335938 50.109375 -102.6875 50.542969 C -102.742188 50.945312 -102.742188 50.945312 -102.902344 51.40625 C -103.277344 51.679688 -103.277344 51.679688 -103.769531 51.835938 C -104.292969 51.632812 -104.292969 51.632812 -104.847656 51.308594 C -105.386719 50.980469 -105.386719 50.980469 -105.925781 50.757812 C -106.730469 50.820312 -107.433594 51.273438 -108.140625 51.632812 L -108.84375 51.992188 L -109.378906 52.265625 L -109.8125 51.835938 L -109.164062 51.1875 L -109.597656 50.328125 L -109.148438 50.148438 C -108.476562 49.832031 -107.980469 49.539062 -107.4375 49.035156 C -107.066406 48.042969 -106.933594 47.058594 -106.789062 46.015625 Z M -8.351562 -43.433594 C -7.945312 -43.492188 -7.945312 -43.492188 -7.488281 -43.488281 L -7.03125 -43.492188 L -6.625 -43.433594 L -6.191406 -43 C -6.261719 -42.449219 -6.261719 -42.449219 -6.410156 -41.925781 L -6.625 -41.707031 C -7.054688 -41.6875 -7.484375 -41.679688 -7.910156 -41.679688 L -10.679688 -41.679688 C -11.570312 -41.679688 -12.460938 -41.679688 -13.351562 -41.679688 C -14.285156 -41.679688 -15.214844 -41.679688 -16.144531 -41.679688 C -17.707031 -41.679688 -19.269531 -41.679688 -20.832031 -41.679688 C -22.640625 -41.679688 -24.453125 -41.679688 -26.261719 -41.679688 C -27.8125 -41.679688 -29.363281 -41.679688 -30.914062 -41.679688 C -31.839844 -41.679688 -32.769531 -41.679688 -33.695312 -41.679688 C -34.566406 -41.679688 -35.441406 -41.679688 -36.3125 -41.679688 C -36.632812 -41.679688 -36.953125 -41.679688 -37.273438 -41.679688 C -37.710938 -41.679688 -38.148438 -41.679688 -38.582031 -41.679688 L -39.324219 -41.679688 L -39.871094 -41.707031 L -40.085938 -41.925781 C -40.09375 -42.355469 -40.09375 -42.785156 -40.085938 -43.21875 C -39.457031 -42.984375 -39.054688 -42.835938 -38.574219 -42.355469 C -38.070312 -42.289062 -38.070312 -42.289062 -37.472656 -42.300781 L -36.769531 -42.300781 L -35.988281 -42.304688 L -35.171875 -42.300781 C -34.429688 -42.300781 -33.691406 -42.300781 -32.949219 -42.304688 C -32.171875 -42.304688 -31.394531 -42.304688 -30.617188 -42.304688 C -29.308594 -42.304688 -28 -42.308594 -26.695312 -42.3125 C -25.1875 -42.3125 -23.679688 -42.316406 -22.175781 -42.316406 C -20.566406 -42.316406 -18.957031 -42.316406 -17.351562 -42.320312 C -16.890625 -42.320312 -16.429688 -42.320312 -15.96875 -42.320312 C -15.105469 -42.320312 -14.238281 -42.320312 -13.375 -42.324219 L -12.609375 -42.324219 C -11.035156 -42.328125 -9.484375 -42.417969 -7.921875 -42.570312 L -8.785156 -43 Z M -8.351562 -43.433594 " fill-opacity="1" fill-rule="nonzero"/></g><g clip-path="url(#056a6bad86)"><path fill="#0c2240" d="M 44.96875 -14.121094 L 45.183594 -13.6875 L 44.96875 -12.972656 C 44.628906 -11.703125 44.765625 -10.449219 44.96875 -9.164062 C 45.175781 -8.417969 45.449219 -7.835938 45.980469 -7.261719 L 46.265625 -7.007812 L 46.265625 -6.574219 L 46.640625 -6.386719 L 47.992188 -5.714844 L 47.992188 -5.28125 L 48.472656 -5.195312 C 49.007812 -5.078125 49.496094 -4.925781 50.015625 -4.742188 C 51.476562 -4.300781 52.949219 -4.253906 54.46875 -4.203125 L 55.191406 -4.179688 C 58.699219 -4.109375 61.808594 -4.863281 64.921875 -6.460938 C 65.59375 -6.859375 66.042969 -7.289062 66.554688 -7.867188 L 66.988281 -7.867188 L 67.175781 -8.339844 C 67.320312 -8.707031 67.476562 -9.0625 67.648438 -9.417969 C 67.953125 -10.328125 68.082031 -11.222656 68.066406 -12.179688 C 67.800781 -12.910156 67.800781 -12.910156 67.417969 -13.472656 L 67.203125 -14.121094 L 67.851562 -13.902344 C 68.398438 -13.152344 68.691406 -12.371094 68.808594 -11.453125 C 68.65625 -10.179688 68.441406 -9.070312 67.714844 -7.992188 C 66.277344 -6.265625 64.527344 -5.378906 62.46875 -4.582031 L 62.054688 -4.421875 C 58.78125 -3.222656 54.949219 -3.214844 51.519531 -3.628906 C 49.632812 -3.964844 47.933594 -4.679688 46.441406 -5.875 C 45.488281 -6.738281 44.886719 -7.59375 44.46875 -8.808594 C 44.15625 -10.015625 43.980469 -11.136719 44.230469 -12.371094 C 44.644531 -13.792969 44.644531 -13.792969 44.96875 -14.121094 M -37.816406 16.558594 C -36.992188 16.53125 -36.488281 16.667969 -35.742188 17.027344 L -35.335938 17.566406 C -35.3125 18.183594 -35.417969 18.675781 -35.550781 19.289062 L -36.050781 19.1875 C -36.773438 19.078125 -37.410156 19.019531 -38.140625 19.074219 C -38.746094 19.398438 -39.1875 19.757812 -39.6875 20.222656 C -40.085938 20.582031 -40.085938 20.582031 -40.734375 20.796875 C -41.140625 20.8125 -41.550781 20.816406 -41.960938 20.8125 L -42.609375 20.804688 L -43.109375 20.796875 C -43.296875 19.472656 -43.296875 19.472656 -43.324219 19.074219 L -43.109375 18.859375 C -42.757812 18.816406 -42.40625 18.777344 -42.054688 18.738281 C -40.980469 18.558594 -40.367188 18.214844 -39.519531 17.539062 C -38.503906 16.742188 -38.503906 16.742188 -37.816406 16.558594 M -14.625 16.59375 C -13.746094 16.738281 -12.96875 17.046875 -12.238281 17.566406 L -12.023438 18.210938 C -11.636719 18.355469 -11.636719 18.355469 -11.160156 18.425781 C -10.75 18.535156 -10.339844 18.640625 -9.929688 18.75 L -9.292969 18.917969 C -8.785156 19.074219 -8.785156 19.074219 -8.566406 19.289062 C -8.539062 19.828125 -8.539062 19.828125 -8.566406 20.367188 L -8.785156 20.582031 C -9.613281 20.777344 -10.40625 20.878906 -11.238281 20.667969 C -11.652344 20.511719 -12.054688 20.332031 -12.453125 20.152344 L -12.453125 19.71875 L -12.84375 19.640625 C -13.316406 19.503906 -13.316406 19.503906 -13.964844 19.074219 C -14.691406 19.011719 -15.191406 19.050781 -15.878906 19.289062 L -16.339844 19.503906 L -16.769531 17.566406 C -15.480469 16.738281 -15.480469 16.738281 -14.625 16.59375 " fill-opacity="1" fill-rule="nonzero"/></g><g clip-path="url(#a4ac65ab1b)"><path fill="#0c2240" d="M 28.5625 61.320312 C 29.09375 61.566406 29.4375 61.761719 29.859375 62.179688 C 29.941406 62.675781 29.941406 62.675781 29.859375 63.257812 C 29.476562 63.84375 29.476562 63.84375 28.96875 64.417969 C 28.800781 64.609375 28.636719 64.804688 28.464844 65 L 27.914062 65.414062 C 27.242188 65.394531 27.242188 65.394531 26.621094 65.199219 L 25.972656 64.769531 C 25.0625 64.847656 24.242188 65.109375 23.382812 65.414062 L 23.382812 64.769531 C 24.019531 64.492188 24.644531 64.261719 25.324219 64.121094 C 25.808594 64.1875 25.808594 64.1875 26.253906 64.324219 L 27.050781 64.550781 C 27.542969 64.386719 27.542969 64.386719 27.914062 64.121094 L 28.5625 64.121094 L 28.65625 63.71875 C 28.777344 63.257812 28.777344 63.257812 28.992188 62.828125 C 28.863281 62.320312 28.71875 61.820312 28.5625 61.320312 M 18.632812 64.335938 C 19.019531 64.917969 19.257812 65.417969 19.507812 66.0625 L 19.734375 66.625 C 19.878906 67.011719 20.015625 67.394531 20.144531 67.785156 C 20.492188 67.753906 20.84375 67.722656 21.195312 67.691406 L 21.789062 67.636719 C 22.304688 67.597656 22.304688 67.597656 22.734375 67.355469 C 22.882812 66.949219 22.882812 66.949219 22.976562 66.480469 L 23.085938 66 L 23.164062 65.628906 L 23.597656 65.628906 C 23.644531 65.945312 23.6875 66.257812 23.730469 66.574219 L 23.808594 67.101562 L 23.8125 67.570312 C 23.382812 68 23.382812 68 22.914062 68.136719 C 20.871094 68.527344 20.871094 68.527344 19.925781 68.433594 C 19.351562 67.859375 19.257812 67.28125 19.039062 66.511719 L 18.847656 66.0625 L 18.199219 65.628906 Z M -30.585938 -43.433594 L -16.339844 -43.433594 L -16.339844 -43.21875 L -21.734375 -43 L -21.734375 -42.570312 L -22.597656 -42.785156 L -22.597656 -43.21875 L -22.828125 -42.898438 L -23.246094 -42.570312 C -23.972656 -42.507812 -23.972656 -42.507812 -24.796875 -42.53125 L -25.632812 -42.546875 L -26.269531 -42.570312 L -26.269531 -43 L -30.585938 -43.21875 Z M 23.382812 49.464844 L 23.8125 49.464844 L 24.015625 49.988281 L 24.460938 50.542969 C 25.070312 50.660156 25.65625 50.691406 26.273438 50.707031 C 26.835938 50.757812 26.835938 50.757812 27.484375 51.1875 C 27.542969 51.816406 27.5625 52.394531 27.550781 53.019531 L 27.550781 53.535156 C 27.546875 53.972656 27.515625 54.414062 27.484375 54.851562 L 27.050781 55.285156 C 26.535156 55.375 26.535156 55.375 25.945312 55.417969 L 25.347656 55.46875 L 24.890625 55.5 L 24.675781 55.070312 L 26.621094 54.851562 C 26.667969 54.363281 26.710938 53.875 26.753906 53.386719 L 26.832031 52.558594 L 26.835938 51.835938 L 26.402344 51.1875 C 25.851562 51.105469 25.851562 51.105469 25.230469 51.109375 C 24.585938 51.070312 24.585938 51.070312 24.027344 50.972656 C 23.558594 50.449219 23.558594 50.449219 23.382812 49.894531 Z M 64.398438 25.753906 L 64.828125 25.753906 C 65.289062 26.265625 65.289062 26.265625 65.691406 26.832031 L 65.691406 27.265625 L 66.125 27.265625 C 66.179688 27.847656 66.179688 27.847656 66.125 28.558594 C 65.738281 29.09375 65.738281 29.09375 65.21875 29.582031 L 64.710938 30.074219 C 64.179688 30.5 63.757812 30.746094 63.101562 30.929688 C 62.550781 30.671875 62.550781 30.671875 62.023438 30.28125 L 61.5625 29.945312 C 61.429688 29.84375 61.296875 29.738281 61.160156 29.636719 L 60.511719 29.203125 L 61.808594 29.203125 L 61.808594 29.636719 C 62.445312 29.792969 62.886719 29.894531 63.535156 29.851562 C 64.230469 29.53125 64.757812 29.136719 65.261719 28.558594 C 65.476562 27.902344 65.476562 27.902344 65.261719 27.265625 C 64.847656 26.675781 64.847656 26.675781 64.398438 26.1875 Z M 21.222656 -11.964844 L 22.085938 -11.53125 C 21.992188 -11.035156 21.992188 -11.035156 21.65625 -10.457031 C 20.613281 -9.808594 19.386719 -9.746094 18.1875 -9.699219 C 16.367188 -9.734375 14.695312 -10.183594 13.019531 -10.886719 L 12.804688 -11.316406 C 13.773438 -11.226562 14.621094 -11.085938 15.542969 -10.765625 C 16.84375 -10.355469 18.140625 -10.324219 19.496094 -10.457031 C 20.199219 -10.617188 20.199219 -10.617188 20.789062 -10.886719 C 21.101562 -11.425781 21.101562 -11.425781 21.222656 -11.964844 M -23.03125 -15.84375 L -22.597656 -15.84375 C -22.589844 -15.5 -22.578125 -15.152344 -22.574219 -14.804688 L -22.558594 -14.222656 C -22.597656 -13.6875 -22.597656 -13.6875 -23.03125 -13.042969 C -23.675781 -12.96875 -23.675781 -12.96875 -24.488281 -12.980469 L -24.925781 -12.980469 C -25.382812 -12.984375 -25.839844 -12.992188 -26.296875 -13 C -26.605469 -13.003906 -26.917969 -13.007812 -27.226562 -13.011719 C -27.988281 -13.019531 -28.746094 -13.027344 -29.507812 -13.042969 L -29.722656 -13.472656 C -28.058594 -13.644531 -26.4375 -13.695312 -24.765625 -13.632812 C -24.109375 -13.644531 -24.109375 -13.644531 -23.601562 -13.964844 L -23.246094 -14.335938 C -23.070312 -15.113281 -23.070312 -15.113281 -23.03125 -15.84375 " fill-opacity="1" fill-rule="nonzero"/></g><g clip-path="url(#529ba59366)"><path fill="#0c2240" d="M -94.054688 49.894531 C -93.6875 49.882812 -93.324219 49.875 -92.960938 49.882812 L -92.359375 49.886719 L -91.894531 49.894531 C -91.8125 50.398438 -91.742188 50.898438 -91.679688 51.40625 L -91.894531 51.621094 C -92.25 51.648438 -92.605469 51.65625 -92.960938 51.660156 L -93.546875 51.667969 L -94.054688 51.621094 L -94.484375 51.1875 C -94.417969 50.636719 -94.417969 50.636719 -94.269531 50.109375 Z M 65.910156 18.640625 C 66.257812 18.636719 66.609375 18.632812 66.960938 18.628906 L 67.550781 18.621094 C 68.066406 18.640625 68.066406 18.640625 68.5 18.859375 C 68.738281 19.574219 68.75 20.125 68.753906 20.878906 L 68.765625 21.609375 C 68.714844 22.304688 68.617188 22.773438 68.28125 23.382812 C 67.6875 23.582031 67.339844 23.625 66.730469 23.613281 L 65.910156 23.601562 L 66.125 23.167969 L 67.636719 22.738281 C 67.960938 22.089844 67.871094 21.488281 67.863281 20.769531 L 67.859375 19.933594 L 67.851562 19.289062 L 65.910156 18.859375 Z M 65.910156 18.640625 " fill-opacity="1" fill-rule="nonzero"/></g><g clip-path="url(#48043b24d9)"><path fill="#0c2240" d="M -35.769531 63.476562 L -35.335938 63.691406 L -35.671875 64.039062 C -36.039062 64.542969 -36.039062 64.542969 -35.996094 65.199219 C -35.8125 65.878906 -35.8125 65.878906 -35.242188 66.316406 C -34.429688 66.730469 -33.664062 66.964844 -32.78125 67.179688 L -32.3125 67.355469 L -31.882812 68 C -33.425781 67.871094 -34.660156 67.328125 -35.984375 66.53125 C -36.414062 66.0625 -36.414062 66.0625 -36.644531 65.320312 L -36.632812 64.550781 C -36.210938 63.917969 -36.210938 63.917969 -35.769531 63.476562 M -33.175781 -56.796875 L -32.53125 -56.796875 C -32.75 -56.207031 -32.980469 -55.6875 -33.3125 -55.152344 L -33.609375 -54.640625 L -33.609375 -53.996094 C -33.042969 -53.710938 -32.589844 -53.734375 -31.953125 -53.710938 L -31.222656 -53.683594 L -30.453125 -53.65625 L -29.679688 -53.628906 C -29.046875 -53.605469 -28.414062 -53.585938 -27.78125 -53.5625 L -27.78125 -53.347656 C -28.699219 -53.335938 -29.617188 -53.328125 -30.53125 -53.320312 L -31.320312 -53.308594 L -32.082031 -53.304688 L -32.78125 -53.300781 C -33.386719 -53.347656 -33.742188 -53.464844 -34.257812 -53.777344 C -34.1875 -54.773438 -34.113281 -55.371094 -33.636719 -56.257812 Z M 24.027344 59.164062 L 24.675781 59.164062 C 24.632812 59.628906 24.632812 59.628906 24.460938 60.242188 C 24.019531 60.824219 24.019531 60.824219 23.460938 61.398438 L 22.914062 61.984375 C 22.710938 62.121094 22.511719 62.257812 22.300781 62.398438 C 21.519531 62.386719 21.519531 62.386719 20.789062 62.179688 C 20.277344 61.875 19.933594 61.519531 19.496094 61.105469 C 20.144531 61.105469 20.144531 61.105469 20.777344 61.453125 L 21.4375 61.75 C 21.898438 61.664062 21.898438 61.664062 22.300781 61.320312 L 22.976562 60.820312 C 23.617188 60.292969 23.617188 60.292969 23.894531 59.636719 Z M 16.042969 47.09375 C 17.351562 47.480469 18.414062 48.089844 19.414062 49.019531 C 19.953125 49.597656 20.136719 49.875 20.359375 50.648438 L 20.359375 51.1875 L 19.996094 50.730469 L 19.496094 50.109375 L 18.996094 49.453125 C 18.269531 48.65625 17.550781 48.167969 16.511719 47.824219 C 15.898438 47.714844 15.316406 47.71875 14.691406 47.726562 L 13.988281 47.734375 L 13.453125 47.742188 L 13.234375 47.308594 C 14.1875 46.992188 15.046875 46.976562 16.042969 47.09375 M 12.804688 63.691406 L 13.019531 64.121094 C 13.605469 64.1875 14.171875 64.230469 14.761719 64.257812 L 15.257812 64.28125 C 15.660156 64.300781 16.066406 64.320312 16.472656 64.335938 L 16.6875 63.691406 L 17.335938 63.90625 L 17.335938 64.769531 C 15.875 65.027344 14.230469 65.242188 12.804688 64.769531 Z M 28.128906 -10.238281 L 28.5625 -10.238281 C 28.449219 -9.09375 28.101562 -8.183594 27.484375 -7.222656 C 26.675781 -6.242188 25.863281 -5.558594 24.675781 -5.066406 L 24.675781 -5.714844 C 25.015625 -6.007812 25.015625 -6.007812 25.472656 -6.304688 C 26.351562 -6.9375 26.960938 -7.566406 27.484375 -8.515625 C 27.730469 -9.085938 27.933594 -9.648438 28.128906 -10.238281 M 13.019531 -19.078125 L 13.667969 -18.863281 L 13.667969 -18.429688 L 14.03125 -18.261719 C 14.796875 -17.859375 15.46875 -17.335938 16.164062 -16.828125 C 16.648438 -16.519531 16.992188 -16.371094 17.554688 -16.273438 L 17.554688 -15.84375 L 17.960938 -15.726562 L 18.496094 -15.5625 L 19.027344 -15.402344 L 19.496094 -15.199219 L 19.925781 -14.550781 C 17.421875 -15.328125 15.230469 -16.582031 13.292969 -18.339844 L 13.019531 -18.644531 Z M -112.835938 58.085938 L -112.402344 58.300781 C -112.699219 58.734375 -112.699219 58.734375 -113.050781 59.164062 L -113.480469 59.164062 L -113.480469 59.808594 L -112.1875 59.59375 L -112.1875 60.027344 C -112.765625 60.363281 -112.765625 60.363281 -113.480469 60.671875 C -114.101562 60.605469 -114.101562 60.605469 -114.5625 60.457031 L -114.777344 59.59375 Z M 21.007812 44.074219 C 21.691406 44.128906 22.113281 44.308594 22.710938 44.652344 L 23.339844 45.101562 L 23.980469 45.542969 L 24.460938 46.015625 C 24.5625 46.574219 24.5625 46.574219 24.460938 47.09375 C 23.921875 47.699219 23.921875 47.699219 23.382812 48.171875 L 23.164062 47.742188 L 23.382812 47.351562 C 23.632812 46.882812 23.632812 46.882812 23.597656 46.339844 C 23.410156 45.75 23.410156 45.75 22.828125 45.316406 C 21.953125 44.871094 21.332031 44.789062 20.359375 44.722656 C 20.617188 44.386719 20.617188 44.386719 21.007812 44.074219 M 46.480469 27.480469 L 46.757812 27.855469 C 47.117188 28.328125 47.484375 28.789062 47.871094 29.246094 L 48.246094 29.699219 C 48.613281 30.085938 48.613281 30.085938 49.082031 30.242188 L 49.5 30.28125 C 50.085938 30.015625 50.085938 30.015625 50.582031 29.636719 L 50.796875 29.203125 L 51.445312 29.203125 C 51.308594 29.582031 51.308594 29.582031 51.011719 30.066406 C 50.40625 30.566406 50.40625 30.566406 49.71875 30.929688 C 49.207031 30.90625 49.207031 30.90625 48.636719 30.710938 C 48.070312 30.25 48.070312 30.25 47.503906 29.675781 L 46.933594 29.105469 C 46.480469 28.558594 46.480469 28.558594 46.292969 28.070312 L 46.265625 27.695312 Z M 46.480469 27.480469 " fill-opacity="1" fill-rule="nonzero"/></g><g clip-path="url(#bb8a89e26c)"><path fill="#0c2240" d="M -72.25 43.859375 C -71.761719 43.917969 -71.761719 43.917969 -71.171875 44.074219 C -69.785156 45.222656 -68.933594 46.796875 -68.148438 48.386719 C -68.542969 48.234375 -68.542969 48.234375 -69.011719 47.957031 C -69.335938 47.488281 -69.335938 47.488281 -69.632812 46.933594 C -70.195312 45.953125 -70.75 45.246094 -71.601562 44.507812 L -72.25 44.292969 Z M 16.90625 -22.957031 C 17.433594 -22.902344 17.949219 -22.835938 18.46875 -22.753906 C 19.472656 -22.605469 20.425781 -22.5 21.4375 -22.527344 L 21.4375 -22.09375 C 19.765625 -22.070312 18.132812 -22.101562 16.472656 -22.308594 L 16.472656 -21.878906 L 15.824219 -22.09375 C 16.179688 -22.460938 16.445312 -22.726562 16.90625 -22.957031 M -71.386719 -46.234375 L -70.632812 -46.128906 C -69.089844 -45.953125 -67.539062 -46.003906 -65.988281 -46.019531 C -66.199219 -45.699219 -66.199219 -45.699219 -66.636719 -45.371094 C -67.238281 -45.3125 -67.839844 -45.292969 -68.445312 -45.304688 L -68.941406 -45.304688 C -69.851562 -45.3125 -70.554688 -45.390625 -71.386719 -45.804688 Z M -116.074219 57.007812 L -115.640625 57.007812 C -115.621094 57.511719 -115.625 58.015625 -115.640625 58.515625 L -116.074219 59.164062 C -116.433594 59.097656 -116.792969 59.027344 -117.152344 58.949219 L -117.367188 58.734375 C -117.375 58.375 -117.375 58.015625 -117.367188 57.65625 L -116.289062 57.441406 L -116.503906 58.085938 L -116.074219 58.085938 Z M -43.324219 29.851562 L -42.890625 30.066406 L -42.460938 31.359375 L -39.652344 31.359375 L -39.4375 31.789062 C -40.042969 31.796875 -40.652344 31.800781 -41.257812 31.804688 L -41.785156 31.808594 C -42.226562 31.8125 -42.667969 31.800781 -43.109375 31.789062 L -43.324219 31.574219 C -43.355469 31 -43.332031 30.425781 -43.324219 29.851562 M -27.78125 -57.875 L -27.78125 -57.441406 L -28.148438 -57.429688 C -28.695312 -57.410156 -29.242188 -57.386719 -29.789062 -57.363281 L -30.367188 -57.34375 L -30.921875 -57.316406 L -31.433594 -57.296875 C -31.945312 -57.25 -31.945312 -57.25 -32.53125 -56.796875 L -32.746094 -57.226562 L -32.53125 -57.660156 C -30.90625 -58.171875 -29.460938 -58.066406 -27.78125 -57.875 M -103.984375 55.714844 C -103.472656 55.890625 -103.472656 55.890625 -102.902344 56.144531 L -102.472656 56.792969 L -102.902344 57.65625 L -104.414062 57.441406 L -104.414062 56.792969 L -103.984375 57.007812 L -104.199219 56.363281 L -103.769531 56.363281 Z M 28.992188 54.421875 C 29.308594 54.410156 29.625 54.402344 29.9375 54.394531 L 30.46875 54.378906 L 30.9375 54.421875 L 31.367188 54.851562 L 31.367188 55.714844 L 30.976562 55.511719 C 30.484375 55.261719 30.484375 55.261719 29.859375 55.070312 L 29.210938 55.5 L 28.5625 55.285156 Z M -77.214844 47.308594 C -76.898438 48.261719 -76.992188 49.222656 -77.007812 50.214844 C -77.019531 51.214844 -76.949219 52.144531 -76.785156 53.128906 C -77.214844 52.699219 -77.214844 52.699219 -77.457031 51.957031 C -77.777344 50.574219 -77.804688 49.175781 -77.429688 47.808594 Z M -77.214844 47.308594 " fill-opacity="1" fill-rule="nonzero"/></g><path fill="#d60401" d="M 22.519531 29.851562 L 22.949219 30.066406 C 23.085938 30.617188 23.085938 30.617188 23.164062 31.144531 C 22.855469 31.253906 22.546875 31.359375 22.234375 31.46875 L 21.710938 31.648438 C 21.222656 31.789062 21.222656 31.789062 20.574219 31.789062 L 20.574219 31.359375 L 21.007812 31.359375 L 21.007812 30.929688 C 21.519531 30.578125 21.519531 30.578125 22.085938 30.28125 L 22.519531 30.28125 Z M 22.519531 29.851562 " fill-opacity="1" fill-rule="nonzero"/><g clip-path="url(#6d18437801)"><path fill="#0c2240" d="M 15.082031 41.664062 L 15.828125 41.65625 C 16.472656 41.707031 16.472656 41.707031 17.121094 42.136719 C 17.160156 42.703125 17.160156 42.703125 17.121094 43.214844 L 16.472656 43 L 16.472656 42.351562 L 13.019531 42.351562 L 12.804688 41.921875 C 13.566406 41.6875 14.285156 41.667969 15.082031 41.664062 M 65.261719 13.253906 L 66.125 13.683594 C 66.203125 14.128906 66.203125 14.128906 66.125 14.761719 C 65.738281 15.308594 65.292969 15.792969 64.828125 16.273438 L 64.179688 16.054688 C 64.257812 15.960938 64.335938 15.867188 64.417969 15.769531 C 64.726562 15.371094 65.011719 14.988281 65.261719 14.546875 C 65.351562 13.835938 65.351562 13.835938 65.261719 13.253906 M -119.527344 53.128906 C -118.769531 53.183594 -118.769531 53.183594 -118.015625 53.34375 L -117.582031 53.777344 L -118.878906 53.558594 L -118.878906 54.421875 L -118.445312 55.070312 L -119.742188 54.636719 C -119.878906 54.125 -119.878906 54.125 -119.957031 53.558594 Z M -13.53125 -25.542969 C -12.761719 -25.214844 -12.25 -24.757812 -11.65625 -24.167969 L -11.140625 -23.664062 C -10.726562 -23.171875 -10.726562 -23.171875 -10.558594 -22.679688 L -10.511719 -22.308594 C -10.886719 -22.082031 -10.886719 -22.082031 -11.375 -21.878906 C -11.859375 -21.960938 -11.859375 -21.960938 -12.238281 -22.09375 L -12.238281 -22.308594 L -11.160156 -22.527344 C -11.65625 -23.523438 -12.382812 -24.207031 -13.179688 -24.96875 L -13.53125 -25.328125 Z M 35.6875 -57.441406 L 35.46875 -56.367188 C 34.875 -56.121094 34.875 -56.121094 34.175781 -55.933594 C 33.664062 -56.121094 33.664062 -56.121094 33.3125 -56.367188 C 33.542969 -56.546875 33.777344 -56.726562 34.011719 -56.902344 L 34.40625 -57.207031 C 34.824219 -57.441406 34.824219 -57.441406 35.6875 -57.441406 M -21.089844 -19.078125 L -20.226562 -19.078125 L -20.226562 -17.136719 L -21.519531 -17.136719 L -21.519531 -17.566406 L -21.089844 -17.566406 L -21.210938 -18.203125 L -21.304688 -18.863281 Z M -21.089844 -19.078125 " fill-opacity="1" fill-rule="nonzero"/><path fill="#0c2240" d="M 13.453125 66.0625 L 16.257812 66.277344 L 16.257812 66.707031 L 15.609375 67.140625 C 14.796875 67.070312 14.15625 66.898438 13.453125 66.492188 Z M 3.519531 -56.582031 L 3.738281 -56.148438 L 3.519531 -55.503906 L 3.738281 -54.855469 C 4.496094 -54.589844 4.496094 -54.589844 5.246094 -54.425781 L 5.246094 -53.996094 L 3.304688 -54.210938 C 3.050781 -54.789062 3.050781 -54.789062 2.875 -55.503906 C 3.171875 -56.121094 3.171875 -56.121094 3.519531 -56.582031 M 44.105469 22.523438 L 44.753906 22.953125 C 45.371094 23.082031 45.984375 23.171875 46.609375 23.261719 L 47.128906 23.382812 L 47.34375 23.816406 L 44.320312 23.601562 Z M 19.0625 63.042969 C 20.050781 63.160156 20.785156 63.429688 21.65625 63.90625 L 21.007812 64.121094 L 20.492188 64.011719 C 19.875 63.894531 19.453125 63.964844 18.847656 64.121094 Z M -103.984375 53.128906 L -102.902344 53.34375 L -102.6875 54.207031 C -103.296875 54.652344 -103.296875 54.652344 -103.984375 55.070312 L -104.632812 54.851562 L -104.210938 54.460938 C -103.722656 54.011719 -103.722656 54.011719 -103.550781 53.34375 Z M -12.238281 25.753906 L -9.214844 26.402344 L -9.214844 25.972656 L -8.785156 25.972656 L -9 26.832031 C -10.292969 26.902344 -11.078125 26.765625 -12.238281 26.1875 Z M 13.019531 -8.945312 L 19.28125 -8.515625 L 19.28125 -8.300781 C 18.625 -8.253906 17.964844 -8.207031 17.308594 -8.164062 L 16.75 -8.125 C 15.6875 -8.058594 14.878906 -8.082031 13.882812 -8.515625 Z M -61.242188 27.046875 L -60.808594 27.046875 C -61.035156 27.816406 -61.355469 28.285156 -61.914062 28.839844 L -62.535156 29.417969 L -63.183594 29.203125 L -62.699219 28.734375 C -62.101562 28.144531 -62.101562 28.144531 -61.632812 27.519531 Z M -13.964844 24.460938 C -13.4375 24.894531 -13.4375 24.894531 -13.101562 25.324219 L -13.4375 25.214844 C -14.414062 25.015625 -15.386719 25.019531 -16.339844 25.324219 L -16.554688 24.894531 C -15.664062 24.460938 -14.949219 24.355469 -13.964844 24.460938 M 56.839844 15.625 C 58.496094 15.871094 58.496094 15.871094 59.203125 16.324219 C 59.507812 16.582031 59.792969 16.855469 60.078125 17.132812 L 59.863281 17.566406 L 59.539062 17.34375 C 58.578125 16.714844 57.746094 16.3125 56.625 16.054688 Z M 56.839844 15.625 " fill-opacity="1" fill-rule="nonzero"/></g><g clip-path="url(#70263ca7b0)"><path fill="#0c2240" d="M -22.382812 67.355469 L -20.871094 67.570312 L -20.871094 68 L -23.03125 68.214844 L -23.246094 67.785156 L -22.382812 67.785156 Z M -32.515625 62.234375 L -32.097656 62.398438 L -31.667969 63.042969 L -34.039062 62.828125 C -33.546875 62.332031 -33.222656 62.148438 -32.515625 62.234375 M -25.40625 27.695312 C -24.414062 27.757812 -23.78125 27.929688 -22.9375 28.464844 C -22.679688 28.636719 -22.421875 28.808594 -22.167969 28.988281 L -22.597656 29.203125 C -23.082031 29.007812 -23.558594 28.796875 -24.03125 28.570312 L -24.808594 28.203125 L -25.40625 27.910156 Z M 28.992188 58.300781 C 29.464844 58.371094 29.464844 58.371094 29.859375 58.515625 L 29.453125 58.636719 L 28.992188 58.949219 C 28.714844 59.710938 28.714844 59.710938 28.5625 60.457031 L 28.128906 60.242188 C 28.261719 59.074219 28.261719 59.074219 28.628906 58.53125 Z M 28.992188 58.300781 " fill-opacity="1" fill-rule="nonzero"/></g><g clip-path="url(#cf498a3f5f)"><path fill="#0c2240" d="M -60.160156 22.304688 L -59.515625 22.304688 C -59.496094 22.808594 -59.496094 23.3125 -59.515625 23.816406 L -59.945312 24.460938 C -60.113281 23.726562 -60.183594 23.058594 -60.160156 22.304688 M -75.703125 21.230469 L -75.488281 21.230469 L -75.496094 21.78125 C -75.496094 22.015625 -75.5 22.25 -75.5 22.496094 L -75.507812 23.207031 C -75.53125 23.804688 -75.53125 23.804688 -75.273438 24.246094 C -75.476562 24.703125 -75.476562 24.703125 -75.703125 25.109375 C -75.9375 24.414062 -75.949219 23.898438 -75.945312 23.167969 L -75.949219 22.480469 C -75.921875 21.875 -75.921875 21.875 -75.703125 21.230469 M 64.179688 -11.964844 L 63.964844 -11.316406 L 61.808594 -11.101562 L 61.589844 -11.53125 C 62.433594 -12.09375 63.203125 -11.996094 64.179688 -11.964844 M -30.371094 64.984375 C -29.953125 65.160156 -29.953125 65.160156 -29.507812 65.414062 L -29.292969 66.0625 L -28.859375 66.0625 C -28.507812 66.492188 -28.507812 66.492188 -28.210938 66.921875 L -29.074219 66.921875 C -29.441406 66.554688 -29.441406 66.554688 -29.777344 66.074219 L -30.117188 65.597656 L -30.371094 65.199219 Z M 46.480469 13.683594 C 47.039062 14.523438 47.546875 15.367188 47.992188 16.273438 C 47.742188 16.074219 47.496094 15.878906 47.25 15.679688 C 47.109375 15.570312 46.972656 15.457031 46.832031 15.34375 C 46.480469 14.976562 46.480469 14.976562 46.308594 14.53125 L 46.265625 14.117188 Z M 66.988281 -43 L 67.417969 -43 C 67.429688 -42.644531 67.429688 -42.285156 67.417969 -41.925781 L 67.203125 -41.707031 C 66.773438 -41.699219 66.339844 -41.699219 65.910156 -41.707031 C 66.257812 -42.148438 66.617188 -42.578125 66.988281 -43 M -31.667969 -14.980469 L -31.234375 -14.765625 L -31.449219 -12.179688 L -31.667969 -12.179688 C -31.707031 -12.605469 -31.75 -13.03125 -31.789062 -13.460938 L -31.855469 -14.179688 L -31.882812 -14.765625 Z M -60.378906 25.109375 L -59.945312 25.109375 C -60.066406 25.828125 -60.238281 26.410156 -60.59375 27.046875 L -61.023438 26.617188 Z M 48.855469 11.3125 C 49.449219 11.355469 49.449219 11.355469 50.148438 11.53125 C 50.664062 12.082031 50.664062 12.082031 51.011719 12.605469 L 50.675781 12.417969 C 50.015625 12.113281 49.339844 11.933594 48.636719 11.746094 Z M 55.113281 8.941406 C 55.609375 8.933594 56.105469 8.921875 56.597656 8.917969 L 57.433594 8.902344 L 58.136719 8.941406 L 58.570312 9.375 L 57.921875 9.589844 L 57.488281 9.375 C 57.085938 9.324219 56.679688 9.285156 56.273438 9.253906 L 55.617188 9.199219 L 55.113281 9.160156 Z M 55.113281 8.941406 " fill-opacity="1" fill-rule="nonzero"/><path fill="#0c2240" d="M -59.082031 -46.882812 L -58.433594 -46.882812 L -58.433594 -46.449219 C -58.765625 -46.171875 -58.765625 -46.171875 -59.191406 -45.882812 L -59.613281 -45.59375 L -59.945312 -45.371094 L -59.945312 -46.019531 C -59.554688 -46.492188 -59.554688 -46.492188 -59.082031 -46.882812 M 23.8125 55.5 L 24.246094 55.5 L 23.597656 57.441406 L 23.164062 57.222656 C 23.570312 55.984375 23.570312 55.984375 23.8125 55.5 M 51.660156 -28.992188 L 54.898438 -28.777344 L 54.898438 -28.5625 C 52.953125 -28.28125 52.953125 -28.28125 52.066406 -28.546875 L 51.660156 -28.777344 Z M 51.660156 -28.992188 " fill-opacity="1" fill-rule="nonzero"/></g></svg>