<svg xmlns="http://www.w3.org/2000/svg" xmlns:xlink="http://www.w3.org/1999/xlink" width="48" zoomAndPan="magnify" viewBox="0 0 36 36.000001" height="48" preserveAspectRatio="xMidYMid meet" version="1.0"><defs><clipPath id="7bad7f7a3d"><path d="M 0.488281 0 L 35.511719 0 L 35.511719 35.027344 L 0.488281 35.027344 Z M 0.488281 0 " clip-rule="nonzero"/></clipPath><clipPath id="e3cfdf059b"><path d="M 2 0 L 35.511719 0 L 35.511719 35.027344 L 2 35.027344 Z M 2 0 " clip-rule="nonzero"/></clipPath><clipPath id="6a24bea15b"><path d="M 0.488281 0 L 35.511719 0 L 35.511719 35.027344 L 0.488281 35.027344 Z M 0.488281 0 " clip-rule="nonzero"/></clipPath><clipPath id="fae3718e20"><path d="M 0.488281 0 L 35 0 L 35 35.027344 L 0.488281 35.027344 Z M 0.488281 0 " clip-rule="nonzero"/></clipPath><clipPath id="83e0dc3e62"><path d="M 0.488281 0 L 35.511719 0 L 35.511719 32 L 0.488281 32 Z M 0.488281 0 " clip-rule="nonzero"/></clipPath><clipPath id="f02f5d0f3a"><path d="M 0.488281 0 L 35 0 L 35 27 L 0.488281 27 Z M 0.488281 0 " clip-rule="nonzero"/></clipPath><clipPath id="61187e3ec9"><path d="M 6 0 L 35.511719 0 L 35.511719 35.027344 L 6 35.027344 Z M 6 0 " clip-rule="nonzero"/></clipPath><clipPath id="1013668a0c"><path d="M 0.488281 0 L 35.511719 0 L 35.511719 35.027344 L 0.488281 35.027344 Z M 0.488281 0 " clip-rule="nonzero"/></clipPath><clipPath id="f285311821"><path d="M 0.488281 0 L 35.511719 0 L 35.511719 21 L 0.488281 21 Z M 0.488281 0 " clip-rule="nonzero"/></clipPath><clipPath id="18877d175a"><path d="M 0.488281 0 L 35.511719 0 L 35.511719 35.027344 L 0.488281 35.027344 Z M 0.488281 0 " clip-rule="nonzero"/></clipPath><clipPath id="4cc70f71f0"><path d="M 12 0 L 35.511719 0 L 35.511719 35.027344 L 12 35.027344 Z M 12 0 " clip-rule="nonzero"/></clipPath><clipPath id="6346018739"><path d="M 0.488281 18 L 35.511719 18 L 35.511719 35.027344 L 0.488281 35.027344 Z M 0.488281 18 " clip-rule="nonzero"/></clipPath><clipPath id="8753733898"><path d="M 0.488281 0 L 35 0 L 35 35.027344 L 0.488281 35.027344 Z M 0.488281 0 " clip-rule="nonzero"/></clipPath><clipPath id="befa0cd031"><path d="M 0.488281 0 L 35.511719 0 L 35.511719 35.027344 L 0.488281 35.027344 Z M 0.488281 0 " clip-rule="nonzero"/></clipPath><clipPath id="aaa4fd8a3d"><path d="M 9 27 L 35.511719 27 L 35.511719 35.027344 L 9 35.027344 Z M 9 27 " clip-rule="nonzero"/></clipPath><clipPath id="dfe9696cf4"><path d="M 0.488281 0 L 35.511719 0 L 35.511719 35.027344 L 0.488281 35.027344 Z M 0.488281 0 " clip-rule="nonzero"/></clipPath></defs><g clip-path="url(#7bad7f7a3d)"><rect x="-3.6" width="43.2" fill="#fefefe" y="-3.6" height="43.200001" fill-opacity="1"/></g><g clip-path="url(#e3cfdf059b)"><path fill="#193049" d="M 97.644531 8.941406 C 98.039062 8.859375 98.039062 8.859375 98.515625 8.855469 L 99.03125 8.855469 L 99.574219 8.863281 L 100.113281 8.855469 L 100.632812 8.855469 L 101.105469 8.859375 C 101.53125 8.941406 101.53125 8.941406 101.910156 9.226562 L 102.179688 9.589844 C 102.203125 10.316406 102.203125 10.316406 102.179688 11.097656 C 102.238281 11.460938 102.308594 11.820312 102.394531 12.175781 L 102.988281 12.269531 C 103.6875 12.390625 103.6875 12.390625 104.117188 12.546875 L 104.550781 12.605469 C 104.96875 12.304688 105.285156 11.957031 105.636719 11.582031 L 106.0625 11.3125 C 106.6875 11.316406 106.6875 11.316406 107.359375 11.53125 C 107.957031 11.984375 107.957031 11.984375 108.519531 12.554688 L 109.089844 13.117188 C 109.515625 13.683594 109.515625 13.683594 109.621094 14.238281 C 109.4375 15.179688 108.820312 15.753906 108.222656 16.488281 L 109.085938 18.425781 L 109.589844 18.464844 L 110.246094 18.519531 L 110.898438 18.574219 C 111.460938 18.640625 111.460938 18.640625 111.890625 18.859375 C 112.128906 19.574219 112.144531 20.125 112.148438 20.878906 L 112.15625 21.609375 C 112.109375 22.304688 112.011719 22.773438 111.675781 23.382812 C 111.027344 23.601562 110.585938 23.621094 109.910156 23.613281 L 109.320312 23.605469 L 108.871094 23.601562 C 108.589844 24.308594 108.339844 25 108.222656 25.753906 C 108.574219 26.40625 108.574219 26.40625 109.085938 26.832031 L 109.085938 27.265625 L 109.515625 27.265625 C 109.574219 27.847656 109.574219 27.847656 109.515625 28.558594 C 109.128906 29.09375 109.128906 29.09375 108.613281 29.582031 L 108.105469 30.074219 C 107.570312 30.5 107.148438 30.746094 106.496094 30.929688 C 105.914062 30.660156 105.472656 30.324219 104.972656 29.929688 C 104.570312 29.625 104.570312 29.625 104.148438 29.460938 C 103.496094 29.402344 102.996094 29.617188 102.394531 29.851562 L 102.371094 30.394531 L 102.328125 31.101562 L 102.289062 31.808594 C 102.179688 32.4375 102.179688 32.4375 101.902344 32.792969 C 101.53125 33.082031 101.53125 33.082031 101.105469 33.167969 L 100.632812 33.167969 L 100.113281 33.171875 L 99.574219 33.164062 L 99.03125 33.171875 L 98.515625 33.167969 L 98.039062 33.167969 L 97.644531 33.082031 C 97.15625 32.351562 97.132812 31.96875 97.078125 31.101562 L 97.027344 30.394531 L 96.996094 29.851562 C 96.265625 29.6875 95.585938 29.585938 94.839844 29.636719 C 94.328125 29.929688 93.941406 30.25 93.519531 30.660156 L 93.109375 30.929688 C 92.59375 30.925781 92.59375 30.925781 92.03125 30.710938 C 91.460938 30.25 91.460938 30.25 90.898438 29.675781 L 90.328125 29.105469 C 89.875 28.558594 89.875 28.558594 89.652344 28.109375 L 89.65625 27.695312 C 89.972656 27.277344 89.972656 27.277344 90.414062 26.859375 C 90.835938 26.421875 90.835938 26.421875 91.167969 25.972656 C 91.207031 25.273438 91.207031 25.273438 90.953125 24.675781 C 90.878906 24.390625 90.804688 24.101562 90.738281 23.816406 L 90.082031 23.777344 L 89.238281 23.722656 L 88.398438 23.667969 L 87.714844 23.601562 L 87.5 23.382812 C 87.289062 21.921875 87.222656 20.527344 87.5 19.074219 L 87.714844 18.859375 C 88.1875 18.808594 88.65625 18.769531 89.132812 18.738281 L 89.914062 18.683594 L 90.519531 18.640625 L 90.722656 18.027344 C 90.953125 17.347656 90.953125 17.347656 91.183594 16.824219 L 91.167969 16.273438 C 90.796875 15.863281 90.402344 15.511719 89.972656 15.160156 L 89.65625 14.761719 C 89.648438 14.253906 89.648438 14.253906 89.875 13.683594 C 90.234375 13.222656 90.582031 12.828125 90.992188 12.417969 L 91.300781 12.085938 C 91.609375 11.773438 91.609375 11.773438 92.246094 11.3125 C 92.9375 11.316406 92.9375 11.316406 93.542969 11.53125 L 94.136719 12.109375 L 94.839844 12.605469 C 95.59375 12.574219 96.277344 12.398438 96.996094 12.175781 L 97.027344 11.632812 L 97.078125 10.921875 C 97.09375 10.691406 97.109375 10.457031 97.125 10.21875 C 97.210938 9.589844 97.210938 9.589844 97.644531 8.941406 M 58.476562 41.664062 L 59.21875 41.65625 C 59.867188 41.707031 59.867188 41.707031 60.515625 42.136719 C 60.578125 42.648438 60.578125 42.648438 60.554688 43.242188 L 60.539062 43.835938 L 60.515625 44.292969 L 60.917969 44.378906 L 61.445312 44.492188 L 61.96875 44.605469 C 62.457031 44.722656 62.457031 44.722656 63.105469 44.9375 L 63.726562 44.507812 L 64.398438 44.074219 C 65.09375 44.117188 65.5 44.304688 66.105469 44.652344 L 66.734375 45.101562 L 67.371094 45.542969 L 67.855469 46.015625 C 67.957031 46.5625 67.957031 46.5625 67.855469 47.09375 C 67.617188 47.527344 67.617188 47.527344 67.3125 47.914062 L 67.011719 48.308594 L 66.773438 48.601562 C 67.042969 49.335938 67.332031 49.957031 67.855469 50.542969 C 68.488281 50.71875 69.027344 50.746094 69.683594 50.738281 L 70.230469 50.757812 L 70.875 51.1875 C 70.9375 51.816406 70.957031 52.394531 70.945312 53.019531 L 70.945312 53.535156 C 70.941406 53.972656 70.910156 54.414062 70.875 54.851562 L 70.445312 55.285156 C 70.023438 55.332031 69.601562 55.371094 69.175781 55.40625 C 68.476562 55.488281 68.476562 55.488281 67.855469 55.714844 C 67.449219 56.183594 67.273438 56.585938 67.066406 57.160156 C 66.984375 57.6875 67.039062 58.015625 67.207031 58.515625 L 67.636719 58.515625 L 68.070312 59.164062 C 68.050781 59.671875 68.050781 59.671875 67.855469 60.242188 C 67.414062 60.824219 67.414062 60.824219 66.855469 61.398438 C 66.675781 61.59375 66.492188 61.785156 66.308594 61.984375 C 66.105469 62.121094 65.902344 62.257812 65.695312 62.398438 C 64.921875 62.390625 64.921875 62.390625 64.183594 62.179688 L 63.734375 61.839844 L 63.320312 61.535156 C 62.710938 61.503906 62.710938 61.503906 62.078125 61.601562 L 61.433594 61.679688 L 60.945312 61.75 L 60.953125 62.136719 C 60.964844 63.042969 60.960938 63.882812 60.730469 64.769531 C 59.265625 65.027344 57.625 65.242188 56.195312 64.769531 L 56.164062 64.234375 C 56.085938 63.511719 55.988281 62.871094 55.765625 62.179688 C 55.351562 61.761719 55.027344 61.59375 54.476562 61.394531 C 54.011719 61.289062 54.011719 61.289062 53.445312 61.441406 C 52.957031 61.738281 52.957031 61.738281 52.527344 62.101562 C 52.09375 62.398438 52.09375 62.398438 51.609375 62.476562 C 51.015625 62.398438 51.015625 62.398438 50.382812 61.972656 L 49.746094 61.398438 L 49.101562 60.839844 L 48.640625 60.242188 C 48.652344 59.550781 48.652344 59.550781 48.855469 58.949219 L 49.316406 58.503906 L 49.722656 58.085938 C 49.714844 57.554688 49.714844 57.554688 49.503906 57.007812 L 49.277344 56.292969 L 49.074219 55.714844 L 48.515625 55.675781 L 47.070312 55.566406 L 46.484375 55.5 L 46.265625 55.285156 C 46.25 54.996094 46.242188 54.703125 46.246094 54.414062 L 46.246094 53.886719 L 46.253906 53.332031 L 46.257812 52.773438 C 46.257812 52.316406 46.261719 51.859375 46.265625 51.40625 L 46.8125 51.308594 C 47.515625 51.164062 48.179688 51.003906 48.855469 50.757812 C 49.394531 50.066406 49.480469 49.585938 49.652344 48.738281 L 49.722656 48.171875 L 49.289062 48.171875 C 48.910156 47.6875 48.910156 47.6875 48.640625 47.09375 C 48.972656 46.175781 49.644531 45.546875 50.332031 44.878906 C 50.800781 44.507812 50.800781 44.507812 51.609375 44.25 L 52.3125 44.292969 C 52.605469 44.5 52.894531 44.714844 53.175781 44.9375 C 53.695312 44.914062 53.695312 44.914062 54.253906 44.722656 L 55.078125 44.492188 C 55.304688 44.425781 55.53125 44.359375 55.765625 44.292969 L 55.75 43.882812 L 55.738281 43.347656 L 55.722656 42.820312 L 55.765625 42.351562 C 56.195312 41.921875 56.195312 41.921875 56.566406 41.789062 C 57.207031 41.679688 57.828125 41.667969 58.476562 41.664062 M 100.96875 -27.855469 C 102.390625 -27.203125 103.480469 -26.316406 104.457031 -25.097656 C 104.984375 -24.246094 105.085938 -23.523438 105.121094 -22.527344 C 105.054688 -21.199219 104.828125 -20.199219 104.121094 -19.078125 L 103.816406 -18.597656 C 102.585938 -16.847656 100.792969 -15.589844 98.941406 -14.550781 C 98.613281 -14.40625 98.285156 -14.273438 97.953125 -14.148438 C 96.875 -13.726562 95.808594 -13.285156 94.746094 -12.835938 C 94.347656 -12.675781 93.949219 -12.53125 93.542969 -12.394531 C 93.289062 -11.765625 93.289062 -11.765625 93.109375 -11.101562 L 92.894531 -10.671875 L 93.328125 -10.671875 L 93.433594 -10.1875 C 93.730469 -9.53125 93.730469 -9.53125 94.464844 -9.15625 C 95.695312 -8.570312 97.003906 -8.4375 98.347656 -8.257812 C 98.847656 -8.191406 99.347656 -8.117188 99.847656 -8.046875 L 100.511719 -7.957031 C 101.007812 -7.882812 101.476562 -7.773438 101.960938 -7.652344 C 102.457031 -7.621094 102.949219 -7.605469 103.445312 -7.597656 L 104.226562 -7.582031 C 105.066406 -7.660156 105.570312 -7.855469 106.28125 -8.300781 C 106.84375 -9.089844 107.164062 -9.703125 107.304688 -10.65625 L 107.359375 -11.316406 C 105.882812 -11.226562 104.902344 -10.90625 103.609375 -10.226562 C 101.847656 -9.378906 100.320312 -9.144531 98.378906 -9.261719 C 97.128906 -9.386719 95.980469 -9.730469 94.839844 -10.238281 L 94.621094 -11.316406 L 95.25 -11.625 C 95.539062 -11.769531 95.828125 -11.914062 96.121094 -12.058594 L 96.589844 -12.289062 C 97.40625 -12.699219 98.21875 -13.113281 99.015625 -13.558594 C 101.773438 -15.085938 104.25 -15.941406 107.425781 -15.9375 C 108.515625 -15.808594 109.332031 -15.457031 110.257812 -14.859375 L 110.597656 -14.550781 L 110.597656 -14.121094 L 111.246094 -13.902344 C 111.792969 -13.152344 112.082031 -12.371094 112.203125 -11.453125 C 112.050781 -10.179688 111.832031 -9.070312 111.109375 -7.992188 C 109.667969 -6.265625 107.921875 -5.378906 105.859375 -4.582031 L 105.449219 -4.421875 C 102.171875 -3.222656 98.339844 -3.214844 94.914062 -3.628906 C 93.027344 -3.964844 91.324219 -4.679688 89.835938 -5.875 C 88.882812 -6.738281 88.28125 -7.59375 87.863281 -8.808594 C 87.5 -10.203125 87.367188 -11.472656 87.726562 -12.878906 C 88.03125 -13.722656 88.382812 -14.398438 89.007812 -15.046875 C 90.785156 -16.546875 92.882812 -17.445312 94.996094 -18.367188 C 97.355469 -19.394531 97.355469 -19.394531 99.324219 -21.007812 L 99.585938 -21.449219 L 99.585938 -22.308594 C 97.835938 -22.351562 96.257812 -22.335938 94.542969 -21.957031 C 93.894531 -21.867188 93.355469 -21.941406 92.707031 -22.039062 C 92.128906 -22.125 92.128906 -22.125 91.601562 -22.09375 C 90.753906 -21.371094 90.328125 -20.511719 89.875 -19.507812 L 89.226562 -19.722656 L 89.15625 -20.140625 L 89.007812 -20.585938 C 88.363281 -20.867188 88.363281 -20.867188 87.714844 -21.015625 L 87.929688 -21.878906 L 88.753906 -21.933594 C 89.226562 -21.980469 89.226562 -21.980469 89.65625 -22.09375 C 90.105469 -22.480469 90.105469 -22.480469 90.304688 -22.957031 L 90.304688 -23.386719 L 89.75 -23.886719 L 89.226562 -24.464844 C 89.246094 -24.972656 89.246094 -24.972656 89.441406 -25.542969 C 90.25 -26.722656 91.21875 -27.691406 92.492188 -28.359375 C 95.171875 -29.625 98.351562 -28.964844 100.96875 -27.855469 M 64.144531 -28.316406 C 65.148438 -27.921875 65.996094 -27.367188 66.773438 -26.621094 C 67.03125 -26.277344 67.285156 -25.933594 67.53125 -25.582031 C 67.878906 -25.082031 67.878906 -25.082031 68.285156 -24.679688 C 68.910156 -24.457031 69.335938 -24.453125 70.011719 -24.464844 L 70.230469 -24.898438 L 71.523438 -24.898438 C 71.46875 -24.492188 71.46875 -24.492188 71.308594 -24.035156 C 70.863281 -23.765625 70.863281 -23.765625 70.445312 -23.601562 L 70.78125 -23.210938 L 71.09375 -22.742188 L 70.875 -22.09375 C 70.148438 -22.210938 69.777344 -22.320312 69.148438 -22.742188 C 68.035156 -22.898438 67.011719 -22.78125 65.953125 -22.417969 C 64.003906 -21.769531 61.871094 -22.058594 59.867188 -22.308594 L 59.867188 -21.449219 L 60.253906 -21.261719 C 60.730469 -21.015625 60.730469 -21.015625 61.433594 -20.546875 C 62.28125 -20.007812 63.179688 -19.613281 64.101562 -19.226562 C 66.246094 -18.316406 68.40625 -17.351562 70.011719 -15.628906 L 70.378906 -15.246094 C 71.09375 -14.449219 71.726562 -13.675781 71.957031 -12.609375 C 72.089844 -11.226562 72.148438 -9.851562 71.617188 -8.542969 C 70.96875 -7.316406 70.09375 -6.308594 68.976562 -5.484375 C 68.261719 -5.050781 67.578125 -4.765625 66.789062 -4.488281 L 66.027344 -4.214844 C 62.972656 -3.308594 59.046875 -3.449219 55.925781 -4.015625 C 53.753906 -4.554688 51.335938 -5.226562 49.609375 -6.699219 C 49.011719 -7.273438 48.554688 -7.734375 48.265625 -8.523438 C 48.039062 -9.335938 47.9375 -10.066406 48.089844 -10.898438 C 48.367188 -11.777344 48.851562 -12.417969 49.480469 -13.078125 C 50.496094 -13.953125 51.699219 -14.476562 52.984375 -14.832031 C 55.804688 -15.347656 58.75 -14.992188 61.449219 -14.097656 C 62.765625 -13.585938 64.035156 -12.976562 65.046875 -11.964844 C 65.308594 -11.492188 65.308594 -11.492188 65.480469 -11.101562 C 65.140625 -10.699219 65.140625 -10.699219 64.617188 -10.238281 C 63.058594 -9.707031 61.5 -9.601562 59.867188 -9.808594 C 58.949219 -10.015625 58.066406 -10.316406 57.179688 -10.628906 C 55.894531 -11.058594 54.945312 -11.125 53.605469 -10.886719 L 53.390625 -10.023438 C 54.746094 -9.601562 56.097656 -9.21875 57.492188 -8.945312 L 58.074219 -8.832031 C 60.242188 -8.527344 62.71875 -8.46875 64.808594 -9.167969 C 65.320312 -9.386719 65.320312 -9.386719 65.953125 -9.847656 C 66.332031 -10.4375 66.421875 -10.652344 66.464844 -11.316406 C 66.421875 -11.988281 66.320312 -12.214844 65.953125 -12.8125 C 65.5 -13.300781 65.5 -13.300781 64.832031 -13.472656 L 64.832031 -13.902344 L 64.183594 -13.902344 L 64.183594 -14.335938 L 63.429688 -14.5 C 62.46875 -14.742188 61.625 -15.113281 60.742188 -15.5625 L 60.289062 -15.792969 C 58.582031 -16.679688 57.128906 -17.6875 56.027344 -19.289062 C 55.296875 -20.5 55.066406 -21.507812 55.007812 -22.929688 C 55.042969 -24.15625 55.214844 -25.101562 55.835938 -26.164062 C 56.597656 -27.128906 57.53125 -27.648438 58.648438 -28.136719 C 60.394531 -28.75 62.359375 -28.835938 64.144531 -28.316406 M 21.683594 -59.140625 C 23.847656 -57.730469 23.847656 -57.730469 24.464844 -57.226562 L 24.464844 -56.796875 L 25.542969 -56.367188 L 25.542969 -55.933594 L 25.976562 -55.800781 C 26.5625 -55.53125 26.886719 -55.289062 27.371094 -54.878906 C 28.445312 -54.0625 29.554688 -53.816406 30.859375 -53.535156 C 31.320312 -53.429688 31.78125 -53.320312 32.242188 -53.214844 L 32.910156 -53.0625 C 33.714844 -52.875 34.503906 -52.667969 35.296875 -52.445312 L 35.96875 -52.261719 C 36.589844 -52.039062 37.089844 -51.785156 37.632812 -51.40625 C 38.152344 -50.53125 38.324219 -49.839844 38.359375 -48.820312 C 38.320312 -47.792969 38.175781 -47.113281 37.632812 -46.234375 C 37.074219 -45.800781 36.769531 -45.574219 36.121094 -45.371094 C 35.464844 -45.308594 34.832031 -45.320312 34.179688 -45.371094 L 34.019531 -45.804688 C 33.441406 -47.328125 33.441406 -47.328125 32.449219 -48.605469 C 31.570312 -49.222656 30.886719 -49.421875 29.832031 -49.550781 C 28.871094 -49.457031 28.1875 -49.222656 27.335938 -48.769531 C 26.605469 -48.210938 26.296875 -47.566406 25.941406 -46.730469 C 25.800781 -46.351562 25.671875 -45.972656 25.542969 -45.589844 C 24.390625 -45.351562 23.277344 -45.339844 22.105469 -45.335938 L 21.492188 -45.335938 C 21.0625 -45.332031 20.636719 -45.332031 20.207031 -45.332031 C 19.550781 -45.332031 18.894531 -45.328125 18.238281 -45.324219 C 17.824219 -45.324219 17.40625 -45.324219 16.992188 -45.324219 L 16.394531 -45.320312 L 15.359375 -45.320312 L 14.964844 -45.371094 C 14.476562 -45.863281 14.394531 -46.179688 14.183594 -46.828125 C 13.9375 -47.460938 13.734375 -47.890625 13.261719 -48.382812 C 12.554688 -48.917969 11.960938 -49.304688 11.078125 -49.46875 C 10.355469 -49.539062 9.78125 -49.554688 9.101562 -49.273438 C 8.800781 -49.121094 8.503906 -48.960938 8.207031 -48.792969 C 7.839844 -48.605469 7.839844 -48.605469 7.410156 -48.605469 C 7.058594 -47.914062 6.730469 -47.210938 6.410156 -46.503906 L 6.121094 -45.859375 L 5.898438 -45.371094 C 5.519531 -45.390625 5.144531 -45.414062 4.765625 -45.441406 L 4.128906 -45.476562 C 3.523438 -45.589844 3.523438 -45.589844 3.019531 -45.796875 L 2.660156 -46.234375 C 2.554688 -46.898438 2.578125 -47.546875 2.605469 -48.214844 L 2.617188 -48.765625 C 2.628906 -49.214844 2.644531 -49.664062 2.660156 -50.113281 C 3.800781 -50.789062 3.800781 -50.789062 4.171875 -50.976562 L 4.601562 -50.976562 C 4.640625 -51.597656 4.640625 -51.597656 4.601562 -52.269531 L 4.171875 -52.917969 L 4.886719 -53.347656 C 5.992188 -54.160156 6.660156 -55.238281 7.382812 -56.382812 C 8.046875 -57.410156 8.761719 -58.265625 9.785156 -58.953125 C 10.683594 -59.410156 11.539062 -59.460938 12.53125 -59.480469 L 13.015625 -59.492188 C 13.355469 -59.503906 13.691406 -59.511719 14.03125 -59.519531 C 14.539062 -59.53125 15.050781 -59.546875 15.558594 -59.5625 C 20.15625 -59.6875 20.15625 -59.6875 21.683594 -59.140625 " fill-opacity="1" fill-rule="nonzero"/></g><g clip-path="url(#6a24bea15b)"><path fill="#cf1b15" d="M 20.066406 43.175781 C 21.511719 43.890625 22.960938 44.917969 23.957031 46.199219 C 24.894531 47.691406 25.585938 49.203125 25.6875 50.96875 C 25.710938 53.054688 25.113281 54.847656 24.1875 56.699219 C 23.519531 57.871094 22.714844 58.960938 21.925781 60.054688 L 21.609375 60.496094 C 21.347656 60.851562 21.074219 61.195312 20.792969 61.535156 L 20.363281 61.535156 L 20.214844 61.996094 C 19.867188 62.75 19.414062 63.253906 18.851562 63.867188 L 18.269531 64.503906 L 17.773438 64.984375 L 17.339844 64.984375 L 16.90625 65.84375 C 16.503906 65.792969 16.503906 65.792969 16.042969 65.628906 C 15.898438 65.34375 15.753906 65.058594 15.613281 64.769531 L 15.226562 64.59375 C 14.597656 64.253906 14.269531 63.816406 13.832031 63.257812 L 13.371094 62.679688 L 13.023438 62.179688 L 13.023438 61.75 L 12.589844 61.75 C 12.324219 61.449219 12.324219 61.449219 12.027344 61.023438 L 11.695312 60.558594 L 11.347656 60.054688 L 10.996094 59.542969 C 8.035156 55.265625 8.035156 55.265625 7.625 52.699219 C 7.488281 50.820312 7.722656 49.382812 8.496094 47.679688 C 9.296875 46.101562 10.449219 44.890625 11.917969 43.902344 C 14.292969 42.542969 17.464844 42.25 20.066406 43.175781 M 57.058594 5.925781 C 58.859375 6.347656 60.3125 7.042969 61.726562 8.238281 C 62.578125 9.046875 63.289062 9.925781 63.96875 10.882812 L 64.285156 11.316406 C 65.648438 13.429688 65.96875 16.398438 66.128906 18.859375 C 66.660156 18.554688 66.660156 18.554688 67.207031 17.996094 C 67.875 16.75 68.183594 15.515625 68.285156 14.117188 C 68.679688 14.171875 68.679688 14.171875 69.148438 14.332031 C 69.671875 14.917969 70.046875 15.597656 70.445312 16.273438 L 70.746094 16.78125 C 71.726562 18.582031 72.191406 20.503906 72.253906 22.550781 C 72.195312 24.433594 71.679688 26.054688 70.742188 27.679688 C 69.679688 29.273438 68.351562 30.121094 66.664062 30.992188 C 65.773438 31.410156 64.957031 31.6875 63.96875 31.789062 L 63.96875 31.359375 L 64.398438 31.359375 L 64.398438 30.929688 L 64.898438 30.46875 C 65.445312 29.886719 65.769531 29.410156 66.019531 28.652344 C 66.289062 27.355469 66.347656 25.996094 65.933594 24.726562 C 65.78125 24.398438 65.625 24.070312 65.453125 23.753906 C 65.261719 23.382812 65.261719 23.382812 65.261719 22.953125 L 64.832031 22.953125 L 64.761719 23.339844 C 64.558594 24.335938 64.351562 25.128906 63.753906 25.972656 C 63.363281 25.917969 63.363281 25.917969 62.890625 25.753906 C 62.074219 24.867188 61.855469 23.789062 61.550781 22.652344 C 61.160156 20.894531 61.371094 19.503906 61.882812 17.792969 L 62.027344 17.347656 C 60.640625 18.011719 59.667969 18.890625 58.789062 20.152344 C 57.960938 21.886719 57.582031 23.625 57.707031 25.539062 C 57.828125 26.335938 57.976562 27.125 58.140625 27.910156 C 57.636719 27.855469 57.636719 27.855469 57.058594 27.695312 C 56.734375 27.304688 56.734375 27.304688 56.480469 26.832031 C 56.320312 26.542969 56.15625 26.253906 55.980469 25.972656 L 55.550781 25.753906 C 55.296875 27.015625 55.203125 28.1875 55.480469 29.445312 C 55.835938 30.21875 56.277344 30.730469 56.84375 31.359375 L 56.628906 31.789062 C 54.542969 30.914062 52.949219 29.792969 51.449219 28.125 C 50.917969 27.367188 50.519531 26.605469 50.152344 25.753906 L 49.933594 25.3125 C 49.226562 23.660156 49.34375 21.691406 49.503906 19.9375 C 49.921875 17.460938 51.023438 15.566406 52.59375 13.644531 C 52.785156 13.445312 52.976562 13.246094 53.175781 13.039062 L 53.605469 13.039062 L 53.566406 13.65625 C 53.566406 14.703125 53.792969 15.761719 54.253906 16.703125 C 54.6875 16.988281 54.6875 16.988281 55.117188 17.132812 L 55.332031 16.273438 L 55.765625 16.273438 L 55.925781 15.855469 C 56.078125 15.484375 56.234375 15.117188 56.402344 14.757812 C 57.304688 12.839844 57.652344 11.066406 57.492188 8.941406 C 57.398438 8.433594 57.285156 7.925781 57.15625 7.421875 C 57.039062 6.917969 57.027344 6.441406 57.058594 5.925781 M -66.621094 -63.355469 L -66.007812 -63.359375 C -65.578125 -63.359375 -65.152344 -63.359375 -64.722656 -63.359375 C -64.074219 -63.355469 -63.425781 -63.363281 -62.777344 -63.371094 C -62.359375 -63.371094 -61.941406 -63.371094 -61.523438 -63.371094 L -60.941406 -63.375 C -59.5625 -63.363281 -58.34375 -63.09375 -57.136719 -62.402344 C -56.527344 -61.78125 -55.992188 -61.148438 -55.722656 -60.308594 C -55.59375 -59.660156 -55.570312 -59.03125 -55.542969 -58.371094 L -55.523438 -57.9375 C -55.5 -57.464844 -55.480469 -56.992188 -55.460938 -56.523438 L -55.417969 -55.535156 C -55.390625 -54.84375 -55.359375 -54.15625 -55.332031 -53.464844 C -55.296875 -52.585938 -55.257812 -51.703125 -55.21875 -50.820312 C -55.15625 -49.359375 -55.09375 -47.902344 -55.035156 -46.441406 L -55 -45.65625 L -54.976562 -44.941406 L -54.945312 -44.226562 L -54.976562 -43.648438 L -55.410156 -43.21875 L -56.273438 -43.21875 C -56.539062 -44.652344 -56.507812 -46.074219 -56.488281 -47.527344 L -56.929688 -47.503906 L -57.515625 -47.488281 L -58.089844 -47.464844 C -58.648438 -47.527344 -58.648438 -47.527344 -59.148438 -47.828125 L -59.511719 -48.175781 L -59.511719 -48.605469 L -68.578125 -48.390625 L -69.007812 -46.449219 L -70.304688 -46.449219 L -70.304688 -47.527344 L -71.601562 -47.527344 L -71.601562 -43.21875 L -72.894531 -43.433594 L -72.894531 -43.863281 L -73.328125 -43.863281 C -73.347656 -45.191406 -73.347656 -45.191406 -73.328125 -45.589844 L -73.109375 -45.804688 C -73.058594 -46.390625 -73.019531 -46.96875 -72.988281 -47.554688 L -72.960938 -48.101562 C -72.882812 -49.777344 -72.882812 -51.453125 -72.902344 -53.128906 C -72.914062 -54.214844 -72.867188 -55.261719 -72.730469 -56.335938 C -72.679688 -56.789062 -72.652344 -57.238281 -72.632812 -57.695312 L -72.613281 -58.128906 C -72.605469 -58.417969 -72.59375 -58.710938 -72.585938 -59 C -72.539062 -59.992188 -72.332031 -60.6875 -71.816406 -61.539062 C -70.304688 -63.046875 -68.691406 -63.363281 -66.621094 -63.355469 " fill-opacity="1" fill-rule="nonzero"/></g><g clip-path="url(#fae3718e20)"><path fill="#193049" d="M 27.703125 -27.484375 C 28.09375 -27.457031 28.09375 -27.457031 28.566406 -27.265625 C 29.160156 -26.742188 29.160156 -26.742188 29.644531 -26.191406 L 29.644531 -25.757812 L 30.007812 -25.609375 C 30.648438 -25.25 31.105469 -24.796875 31.628906 -24.277344 L 32.203125 -23.710938 C 32.667969 -23.171875 32.667969 -23.171875 32.839844 -22.671875 L 32.882812 -22.308594 C 32.3125 -21.996094 32.042969 -21.878906 31.371094 -21.878906 L 31.371094 -6.359375 L 34.179688 -6.359375 L 34.609375 -6.144531 C 34.636719 -4.90625 34.636719 -4.90625 34.394531 -4.421875 C 30.121094 -4.414062 25.84375 -4.410156 21.570312 -4.410156 C 19.585938 -4.40625 17.601562 -4.40625 15.617188 -4.402344 C 13.886719 -4.402344 12.160156 -4.402344 10.429688 -4.398438 C 9.511719 -4.398438 8.597656 -4.398438 7.679688 -4.398438 C 6.820312 -4.394531 5.957031 -4.394531 5.097656 -4.394531 C 4.78125 -4.394531 4.464844 -4.394531 4.144531 -4.394531 C 3.714844 -4.394531 3.285156 -4.394531 2.851562 -4.394531 L 2.121094 -4.394531 L 1.582031 -4.421875 L 1.367188 -4.636719 C 1.355469 -5.140625 1.355469 -5.640625 1.367188 -6.144531 C 2.027344 -6.476562 2.71875 -6.382812 3.441406 -6.375 L 3.90625 -6.371094 C 4.28125 -6.367188 4.660156 -6.363281 5.035156 -6.359375 L 5.027344 -6.867188 C 5.003906 -9.464844 5.003906 -9.464844 5.25 -10.671875 C 5.898438 -11.101562 5.898438 -11.101562 6.488281 -11.152344 C 6.71875 -11.148438 6.949219 -11.148438 7.191406 -11.144531 L 7.949219 -11.140625 L 8.746094 -11.128906 L 9.546875 -11.125 C 10.203125 -11.117188 10.855469 -11.109375 11.511719 -11.101562 L 11.496094 -11.886719 C 11.492188 -12.226562 11.488281 -12.566406 11.484375 -12.90625 L 11.472656 -13.425781 C 11.46875 -13.871094 11.488281 -14.320312 11.511719 -14.765625 L 11.941406 -15.199219 C 12.566406 -15.265625 12.566406 -15.265625 13.355469 -15.285156 L 14.207031 -15.3125 L 15.101562 -15.332031 L 16 -15.355469 C 16.734375 -15.378906 17.46875 -15.394531 18.203125 -15.414062 L 18.28125 -16.152344 L 18.390625 -17.109375 L 18.445312 -17.597656 C 18.492188 -18.019531 18.5625 -18.441406 18.636719 -18.863281 L 19.066406 -19.292969 C 20.445312 -19.59375 21.785156 -19.492188 23.167969 -19.292969 L 23.167969 -17.136719 L 20.792969 -17.136719 L 20.808594 -16.40625 C 20.8125 -16.089844 20.816406 -15.769531 20.820312 -15.453125 C 20.824219 -15.292969 20.828125 -15.136719 20.832031 -14.972656 C 20.835938 -14.542969 20.816406 -14.117188 20.792969 -13.6875 L 20.363281 -13.042969 C 19.71875 -12.96875 19.71875 -12.96875 18.902344 -12.980469 L 18.46875 -12.980469 C 18.011719 -12.984375 17.554688 -12.992188 17.097656 -13 C 16.785156 -13.003906 16.476562 -13.007812 16.167969 -13.011719 C 15.40625 -13.019531 14.644531 -13.027344 13.886719 -13.042969 L 13.902344 -12.308594 C 13.90625 -11.992188 13.910156 -11.675781 13.914062 -11.359375 C 13.917969 -11.199219 13.921875 -11.039062 13.921875 -10.875 C 13.929688 -10.449219 13.90625 -10.019531 13.886719 -9.59375 L 13.453125 -8.945312 C 12.851562 -8.875 12.851562 -8.875 12.089844 -8.882812 L 11.269531 -8.890625 L 10.40625 -8.90625 C 10.117188 -8.910156 9.828125 -8.914062 9.539062 -8.914062 C 8.828125 -8.921875 8.117188 -8.933594 7.410156 -8.945312 C 7.402344 -8.597656 7.398438 -8.246094 7.394531 -7.894531 L 7.386719 -7.304688 C 7.375 -6.789062 7.375 -6.789062 7.625 -6.359375 L 24.464844 -6.359375 L 24.679688 -21.878906 L 23.167969 -22.308594 C 23.257812 -22.796875 23.339844 -23.117188 23.648438 -23.507812 L 23.980469 -23.824219 L 24.347656 -24.179688 L 24.734375 -24.546875 C 25.453125 -25.238281 26.164062 -25.921875 26.792969 -26.695312 C 27.269531 -27.265625 27.269531 -27.265625 27.703125 -27.484375 M -24.539062 9.375 C -23.984375 9.570312 -23.695312 9.785156 -23.296875 10.222656 L -23.027344 10.667969 L -23.027344 11.3125 L -22.636719 11.472656 C -22.074219 11.796875 -21.851562 12.113281 -21.496094 12.65625 L -21.125 13.21875 L -20.734375 13.820312 L -20.332031 14.433594 C -19.933594 15.046875 -19.539062 15.65625 -19.140625 16.269531 L -18.800781 16.796875 C -18.503906 17.257812 -18.207031 17.722656 -17.914062 18.183594 L -17.65625 18.589844 C -16.773438 20 -16.175781 21.335938 -16.078125 23.007812 C -16.160156 24.632812 -16.53125 26.097656 -17.414062 27.480469 C -18.257812 28.671875 -19.136719 29.484375 -20.4375 30.160156 C -21.90625 30.824219 -23.269531 31.242188 -24.894531 31.199219 C -26.746094 31 -28.4375 30.210938 -29.964844 29.175781 C -31.058594 28.207031 -31.761719 26.808594 -32.285156 25.457031 C -32.6875 24.085938 -32.691406 22.710938 -32.414062 21.3125 C -31.789062 19.296875 -30.46875 17.566406 -29.289062 15.839844 L -28.929688 15.308594 C -28.21875 14.265625 -27.507812 13.226562 -26.789062 12.1875 C -26.519531 11.796875 -26.25 11.40625 -25.984375 11.015625 L -25.578125 10.425781 L -25.246094 9.9375 C -24.972656 9.589844 -24.972656 9.589844 -24.539062 9.375 M -29.046875 43.699219 C -28.527344 43.710938 -28.527344 43.710938 -27.992188 43.859375 C -26.429688 45.070312 -25.441406 46.878906 -24.539062 48.601562 L -24.238281 49.167969 C -23.773438 50.113281 -23.773438 50.113281 -23.675781 50.542969 C -23.796875 50.96875 -23.796875 50.96875 -24.109375 51.40625 C -24.667969 51.867188 -24.667969 51.867188 -25.320312 52.320312 L -25.976562 52.78125 L -26.480469 53.128906 C -26.398438 53.71875 -26.296875 54.152344 -25.992188 54.667969 C -24.601562 56.429688 -22.761719 58.480469 -20.652344 59.378906 C -20.113281 59.410156 -20.113281 59.410156 -19.574219 59.164062 C -19.15625 58.773438 -18.796875 58.398438 -18.425781 57.964844 L -18.128906 57.625 C -17.890625 57.347656 -17.652344 57.070312 -17.414062 56.792969 C -16.027344 57.015625 -15.074219 57.40625 -13.894531 58.160156 C -13.0625 58.671875 -12.183594 59.074219 -11.296875 59.488281 C -10.699219 59.824219 -10.300781 60.148438 -9.859375 60.671875 C -9.726562 61.359375 -9.726562 61.359375 -9.859375 62.179688 C -10.226562 62.878906 -10.675781 63.496094 -11.15625 64.121094 L -11.640625 64.820312 C -12.484375 65.664062 -13.238281 66.160156 -14.394531 66.492188 C -16.59375 66.816406 -18.671875 66.546875 -20.738281 65.761719 C -23.765625 64.40625 -26.222656 62.492188 -28.640625 60.242188 L -29.140625 59.785156 C -31.457031 57.589844 -32.9375 55.011719 -34.039062 52.050781 C -34.355469 50.8125 -34.460938 49.40625 -34.140625 48.160156 C -33.984375 47.78125 -33.984375 47.78125 -33.605469 47.09375 L -33.269531 46.445312 C -32.515625 45.519531 -31.582031 44.9375 -30.582031 44.292969 C -29.972656 43.886719 -29.746094 43.765625 -29.046875 43.699219 " fill-opacity="1" fill-rule="nonzero"/></g><path fill="#cf1b15" d="M 16.691406 6.570312 C 17.394531 6.476562 17.394531 6.476562 18.203125 6.570312 C 19.039062 7.445312 19.648438 8.414062 20.253906 9.453125 L 20.757812 10.3125 C 20.839844 10.449219 20.917969 10.582031 21 10.722656 C 21.285156 11.199219 21.585938 11.660156 21.886719 12.121094 L 22.304688 12.824219 L 22.304688 13.46875 L 22.738281 13.46875 C 23.0625 13.960938 23.0625 13.960938 23.4375 14.628906 C 23.933594 15.5 24.433594 16.363281 24.964844 17.214844 C 25.867188 18.734375 25.867188 18.734375 25.976562 19.503906 C 25.597656 20.109375 25.597656 20.109375 25.113281 20.582031 C 24.507812 20.882812 24.011719 20.828125 23.339844 20.832031 L 22.484375 20.839844 L 21.558594 20.839844 L 20.609375 20.84375 C 19.945312 20.847656 19.28125 20.847656 18.621094 20.847656 C 17.769531 20.851562 16.921875 20.855469 16.070312 20.863281 C 15.417969 20.867188 14.765625 20.867188 14.109375 20.867188 C 13.796875 20.867188 13.484375 20.871094 13.171875 20.871094 C 12.734375 20.875 12.292969 20.875 11.855469 20.875 L 11.101562 20.875 C 10.355469 20.789062 9.953125 20.59375 9.351562 20.152344 C 9.027344 19.667969 9.027344 19.667969 8.921875 19.074219 C 9.410156 17.695312 10.191406 16.488281 10.957031 15.246094 L 11.363281 14.589844 C 11.769531 13.929688 12.179688 13.269531 12.589844 12.605469 L 12.964844 12.003906 C 13.304688 11.457031 13.648438 10.90625 13.992188 10.359375 L 14.300781 9.867188 C 15.855469 7.410156 15.855469 7.410156 16.691406 6.570312 " fill-opacity="1" fill-rule="nonzero"/><g clip-path="url(#83e0dc3e62)"><path fill="#193049" d="M 30.941406 -21.230469 L 31.371094 -21.230469 L 31.371094 -6.359375 L 34.179688 -6.359375 L 34.609375 -6.144531 C 34.636719 -4.90625 34.636719 -4.90625 34.394531 -4.421875 C 30.121094 -4.414062 25.84375 -4.410156 21.570312 -4.410156 C 19.585938 -4.40625 17.601562 -4.40625 15.617188 -4.402344 C 13.886719 -4.402344 12.160156 -4.402344 10.429688 -4.398438 C 9.511719 -4.398438 8.597656 -4.398438 7.679688 -4.398438 C 6.820312 -4.394531 5.957031 -4.394531 5.097656 -4.394531 C 4.78125 -4.394531 4.464844 -4.394531 4.144531 -4.394531 C 3.714844 -4.394531 3.285156 -4.394531 2.851562 -4.394531 L 2.121094 -4.394531 L 1.582031 -4.421875 L 1.367188 -4.636719 C 1.355469 -5.140625 1.355469 -5.640625 1.367188 -6.144531 C 2.027344 -6.476562 2.71875 -6.382812 3.441406 -6.375 L 3.90625 -6.371094 C 4.28125 -6.367188 4.660156 -6.363281 5.035156 -6.359375 L 5.027344 -6.867188 C 5.003906 -9.464844 5.003906 -9.464844 5.25 -10.671875 C 5.898438 -11.101562 5.898438 -11.101562 6.488281 -11.152344 C 6.71875 -11.148438 6.949219 -11.148438 7.191406 -11.144531 L 7.949219 -11.140625 L 8.746094 -11.128906 L 9.546875 -11.125 C 10.203125 -11.117188 10.855469 -11.109375 11.511719 -11.101562 L 11.496094 -11.886719 C 11.492188 -12.226562 11.488281 -12.566406 11.484375 -12.90625 L 11.472656 -13.425781 C 11.46875 -13.871094 11.488281 -14.320312 11.511719 -14.765625 L 11.941406 -15.199219 C 12.566406 -15.265625 12.566406 -15.265625 13.355469 -15.285156 L 14.207031 -15.3125 L 15.101562 -15.332031 L 16 -15.355469 C 16.734375 -15.378906 17.46875 -15.394531 18.203125 -15.414062 L 18.28125 -16.152344 L 18.390625 -17.109375 L 18.445312 -17.597656 C 18.492188 -18.019531 18.5625 -18.441406 18.636719 -18.863281 L 19.066406 -19.292969 C 20.445312 -19.59375 21.785156 -19.492188 23.167969 -19.292969 L 23.167969 -17.136719 L 20.792969 -17.136719 L 20.808594 -16.40625 C 20.8125 -16.089844 20.816406 -15.769531 20.820312 -15.453125 C 20.824219 -15.292969 20.828125 -15.136719 20.832031 -14.972656 C 20.835938 -14.542969 20.816406 -14.117188 20.792969 -13.6875 L 20.363281 -13.042969 C 19.71875 -12.96875 19.71875 -12.96875 18.902344 -12.980469 L 18.46875 -12.980469 C 18.011719 -12.984375 17.554688 -12.992188 17.097656 -13 C 16.785156 -13.003906 16.476562 -13.007812 16.167969 -13.011719 C 15.40625 -13.019531 14.644531 -13.027344 13.886719 -13.042969 L 13.902344 -12.308594 C 13.90625 -11.992188 13.910156 -11.675781 13.914062 -11.359375 C 13.917969 -11.199219 13.921875 -11.039062 13.921875 -10.875 C 13.929688 -10.449219 13.90625 -10.019531 13.886719 -9.59375 L 13.453125 -8.945312 C 12.851562 -8.875 12.851562 -8.875 12.089844 -8.882812 L 11.269531 -8.890625 L 10.40625 -8.90625 C 10.117188 -8.910156 9.828125 -8.914062 9.539062 -8.914062 C 8.828125 -8.921875 8.117188 -8.933594 7.410156 -8.945312 C 7.402344 -8.597656 7.398438 -8.246094 7.394531 -7.894531 L 7.386719 -7.304688 C 7.375 -6.789062 7.375 -6.789062 7.625 -6.359375 L 23.816406 -6.359375 L 23.816406 -5.929688 C 24.449219 -5.488281 25.003906 -5.214844 25.757812 -5.066406 C 26.585938 -5.015625 27.414062 -5.015625 28.242188 -5.011719 L 28.925781 -5 L 29.582031 -4.996094 L 30.183594 -4.988281 C 30.742188 -5.027344 30.742188 -5.027344 31.1875 -5.394531 L 31.585938 -5.714844 L 32.234375 -5.714844 L 32.234375 -6.144531 L 30.941406 -6.144531 C 30.746094 -6.972656 30.695312 -7.738281 30.695312 -8.585938 L 30.695312 -11.1875 C 30.695312 -11.820312 30.695312 -12.449219 30.695312 -13.082031 C 30.695312 -13.890625 30.695312 -14.699219 30.695312 -15.511719 C 30.695312 -16.132812 30.695312 -16.753906 30.695312 -17.378906 C 30.695312 -17.675781 30.695312 -17.976562 30.695312 -18.273438 C 30.695312 -18.691406 30.695312 -19.105469 30.695312 -19.523438 L 30.695312 -20.242188 C 30.722656 -20.800781 30.722656 -20.800781 30.941406 -21.230469 M -17.5625 -65.027344 C -16.25 -64.453125 -14.992188 -63.75 -13.746094 -63.046875 C -13.542969 -62.9375 -13.34375 -62.828125 -13.132812 -62.714844 L -12.667969 -62.402344 C -12.332031 -61.371094 -12.503906 -60.429688 -12.667969 -59.382812 C -14.152344 -59.785156 -14.152344 -59.785156 -14.394531 -60.03125 C -14.402344 -60.460938 -14.402344 -60.890625 -14.394531 -61.324219 C -14.539062 -61.378906 -14.6875 -61.433594 -14.839844 -61.492188 C -15.429688 -61.734375 -16.003906 -62.003906 -16.578125 -62.285156 C -18.800781 -63.359375 -20.980469 -64.140625 -23.460938 -64.339844 L -24.109375 -64.554688 C -24.511719 -64.574219 -24.917969 -64.582031 -25.320312 -64.582031 L -25.964844 -64.585938 L -26.480469 -64.554688 L -26.699219 -64.339844 L -27.285156 -64.347656 C -28.433594 -64.335938 -29.4375 -63.925781 -30.515625 -63.558594 L -31.1875 -63.34375 C -33.507812 -62.601562 -33.507812 -62.601562 -35.550781 -61.324219 C -35.871094 -60.609375 -35.796875 -59.9375 -35.765625 -59.167969 C -35.773438 -58.875 -35.78125 -58.582031 -35.792969 -58.289062 C -35.828125 -57.4375 -35.84375 -56.589844 -35.851562 -55.738281 C -35.855469 -55.386719 -35.863281 -55.03125 -35.875 -54.675781 C -35.925781 -52.882812 -35.953125 -51.335938 -35.152344 -49.6875 C -34.835938 -49.136719 -34.550781 -48.6875 -34.101562 -48.242188 L -33.820312 -47.960938 L -33.820312 -47.527344 L -33.417969 -47.324219 L -32.527344 -46.882812 L -32.527344 -46.449219 L -31.988281 -46.289062 C -31.121094 -45.980469 -30.324219 -45.589844 -29.503906 -45.171875 L -29.054688 -44.945312 L -28.613281 -44.71875 L -28.179688 -44.503906 C -27.828125 -44.320312 -27.476562 -44.128906 -27.128906 -43.929688 C -26.34375 -43.589844 -25.609375 -43.421875 -24.753906 -43.433594 C -24.167969 -43.574219 -23.6875 -43.71875 -23.136719 -43.945312 L -22.691406 -44.121094 C -20.371094 -45.066406 -18.191406 -46.265625 -16.335938 -47.960938 C -16.0625 -48.09375 -15.789062 -48.222656 -15.511719 -48.351562 L -14.824219 -48.820312 C -14.476562 -49.667969 -14.394531 -50.5 -14.394531 -51.40625 C -13.960938 -51.417969 -13.53125 -51.417969 -13.097656 -51.40625 L -12.882812 -51.191406 C -12.800781 -50.667969 -12.800781 -50.667969 -12.882812 -49.898438 C -13.449219 -48.449219 -14.210938 -47.15625 -15.410156 -46.136719 C -15.851562 -45.796875 -16.304688 -45.476562 -16.769531 -45.15625 L -17.246094 -44.808594 C -19.363281 -43.355469 -22.40625 -41.675781 -24.984375 -41.429688 C -26.085938 -41.511719 -26.957031 -41.863281 -27.964844 -42.289062 L -28.519531 -42.511719 C -29.765625 -43.019531 -30.933594 -43.617188 -32.09375 -44.296875 L -32.75 -44.675781 C -34.429688 -45.714844 -35.820312 -46.820312 -36.8125 -48.550781 C -37.660156 -50.21875 -37.816406 -51.917969 -37.839844 -53.761719 L -37.851562 -54.484375 C -37.855469 -54.980469 -37.859375 -55.480469 -37.863281 -55.980469 C -37.871094 -56.742188 -37.890625 -57.507812 -37.910156 -58.269531 C -37.914062 -58.757812 -37.917969 -59.242188 -37.921875 -59.730469 L -37.945312 -60.417969 C -37.9375 -61.0625 -37.910156 -61.574219 -37.707031 -62.183594 C -37.128906 -62.765625 -36.5 -63.121094 -35.765625 -63.476562 L -35.179688 -63.808594 C -29.550781 -66.554688 -23.519531 -67.230469 -17.5625 -65.027344 M 10.914062 -48.449219 C 11.511719 -48.390625 11.511719 -48.390625 12.265625 -48.027344 C 12.839844 -47.496094 13.179688 -47.179688 13.453125 -46.449219 C 13.464844 -45.324219 13.226562 -44.484375 12.804688 -43.433594 L 27.269531 -43.433594 L 26.839844 -44.511719 C 26.75 -45.167969 26.761719 -45.792969 26.839844 -46.449219 C 27.121094 -47.101562 27.386719 -47.441406 27.917969 -47.90625 C 28.566406 -48.308594 29.164062 -48.441406 29.914062 -48.484375 C 30.527344 -48.480469 30.863281 -48.433594 31.394531 -48.125 C 31.785156 -47.800781 32.128906 -47.488281 32.449219 -47.097656 C 32.648438 -46.503906 32.703125 -46.121094 32.707031 -45.507812 L 32.714844 -45.019531 C 32.660156 -44.429688 32.476562 -43.96875 32.234375 -43.433594 C 32.371094 -43.433594 32.503906 -43.4375 32.644531 -43.441406 C 33.253906 -43.449219 33.863281 -43.453125 34.476562 -43.460938 L 35.117188 -43.472656 L 35.734375 -43.476562 L 36.304688 -43.480469 L 36.769531 -43.433594 L 37.199219 -43 C 37.132812 -42.449219 37.132812 -42.449219 36.984375 -41.925781 L 36.769531 -41.707031 C 36.339844 -41.6875 35.910156 -41.679688 35.480469 -41.679688 L 32.714844 -41.679688 C 31.824219 -41.679688 30.933594 -41.679688 30.039062 -41.679688 C 29.109375 -41.679688 28.179688 -41.679688 27.25 -41.679688 C 25.6875 -41.679688 24.125 -41.679688 22.5625 -41.679688 C 20.75 -41.679688 18.941406 -41.679688 17.132812 -41.679688 C 15.582031 -41.679688 14.03125 -41.679688 12.480469 -41.679688 C 11.550781 -41.679688 10.625 -41.679688 9.695312 -41.679688 C 8.824219 -41.679688 7.953125 -41.679688 7.082031 -41.679688 C 6.761719 -41.679688 6.441406 -41.679688 6.117188 -41.679688 C 5.683594 -41.679688 5.246094 -41.679688 4.8125 -41.679688 L 4.070312 -41.679688 L 3.523438 -41.707031 L 3.308594 -41.925781 C 3.300781 -42.355469 3.300781 -42.785156 3.308594 -43.21875 C 3.816406 -43.46875 4.113281 -43.457031 4.679688 -43.453125 L 5.234375 -43.453125 L 5.816406 -43.445312 L 6.40625 -43.445312 C 6.882812 -43.441406 7.363281 -43.4375 7.839844 -43.433594 L 7.519531 -44.132812 C 7.328125 -44.582031 7.195312 -44.929688 7.132812 -45.414062 C 7.214844 -46.074219 7.328125 -46.539062 7.699219 -47.101562 C 8.710938 -48.3125 9.34375 -48.46875 10.914062 -48.449219 M 7.625 27.695312 C 8.375 28.039062 9.058594 28.445312 9.769531 28.863281 C 10.421875 29.199219 10.863281 29.347656 11.59375 29.390625 C 12.644531 29.328125 13.472656 28.917969 14.398438 28.449219 C 15.664062 27.8125 16.695312 27.46875 18.148438 27.542969 C 19.121094 27.753906 19.9375 28.183594 20.800781 28.664062 C 21.53125 29.058594 22.105469 29.316406 22.9375 29.324219 C 24.171875 29.207031 25.167969 28.878906 26.203125 28.207031 C 27.066406 27.714844 27.777344 27.589844 28.769531 27.546875 C 29.570312 27.574219 30.15625 27.632812 30.890625 27.964844 C 31.242188 28.1875 31.589844 28.417969 31.933594 28.65625 C 32.761719 29.1875 33.664062 29.40625 34.609375 29.636719 C 34.617188 29.953125 34.621094 30.273438 34.625 30.589844 L 34.628906 31.128906 L 34.609375 31.574219 L 34.394531 31.789062 C 33.953125 31.8125 33.515625 31.816406 33.074219 31.816406 L 32.652344 31.820312 C 32.183594 31.820312 31.710938 31.820312 31.242188 31.816406 L 30.234375 31.820312 C 29.320312 31.820312 28.40625 31.820312 27.492188 31.820312 C 26.535156 31.820312 25.582031 31.820312 24.628906 31.820312 C 23.023438 31.820312 21.421875 31.820312 19.816406 31.820312 C 17.960938 31.816406 16.105469 31.816406 14.246094 31.820312 C 12.65625 31.820312 11.066406 31.820312 9.472656 31.820312 C 8.523438 31.820312 7.570312 31.820312 6.617188 31.820312 C 5.722656 31.820312 4.832031 31.820312 3.933594 31.820312 C 3.605469 31.820312 3.277344 31.820312 2.949219 31.820312 C 2.5 31.820312 2.054688 31.820312 1.605469 31.816406 L 0.84375 31.816406 L 0.285156 31.789062 L 0.0703125 31.574219 C 0.0117188 30.339844 0.0117188 30.339844 0.0703125 29.851562 C 0.570312 29.347656 0.9375 29.242188 1.609375 29.015625 C 2.363281 28.757812 3.019531 28.488281 3.699219 28.074219 C 4.9375 27.445312 6.28125 27.472656 7.625 27.695312 " fill-opacity="1" fill-rule="nonzero"/></g><g clip-path="url(#f02f5d0f3a)"><path fill="#193049" d="M -68.578125 -48.605469 C -67.917969 -48.636719 -67.261719 -48.652344 -66.601562 -48.65625 L -66 -48.664062 C -65.578125 -48.664062 -65.15625 -48.667969 -64.734375 -48.667969 C -64.089844 -48.671875 -63.445312 -48.683594 -62.800781 -48.691406 C -62.390625 -48.695312 -61.980469 -48.695312 -61.570312 -48.699219 L -60.984375 -48.710938 C -60.480469 -48.707031 -60.007812 -48.699219 -59.511719 -48.605469 C -59.019531 -48.179688 -59.019531 -48.179688 -58.648438 -47.742188 C -58.09375 -47.59375 -58.09375 -47.59375 -57.515625 -47.582031 L -56.929688 -47.546875 L -56.488281 -47.527344 C -56.390625 -46.789062 -56.304688 -46.046875 -56.21875 -45.304688 L -56.132812 -44.667969 L -56.066406 -44.054688 L -56 -43.492188 L -56.058594 -43 C -56.449219 -42.609375 -56.773438 -42.402344 -57.300781 -42.234375 C -57.90625 -42.117188 -58.484375 -42.105469 -59.101562 -42.101562 L -59.910156 -42.09375 C -60.203125 -42.089844 -60.492188 -42.089844 -60.78125 -42.089844 L -61.226562 -42.085938 C -62.007812 -42.082031 -62.785156 -42.078125 -63.566406 -42.078125 C -64.367188 -42.074219 -65.167969 -42.066406 -65.96875 -42.058594 C -66.585938 -42.050781 -67.203125 -42.050781 -67.824219 -42.050781 C -68.117188 -42.046875 -68.414062 -42.046875 -68.707031 -42.042969 C -71.296875 -42.007812 -71.296875 -42.007812 -72.441406 -42.578125 C -72.664062 -42.714844 -72.882812 -42.855469 -73.109375 -43 L -73.109375 -43.21875 L -71.601562 -43.21875 L -71.601562 -47.527344 L -70.304688 -47.527344 L -70.304688 -46.449219 L -69.007812 -46.449219 C -68.988281 -46.65625 -68.988281 -46.65625 -68.96875 -46.867188 L -68.914062 -47.40625 C -68.898438 -47.585938 -68.878906 -47.761719 -68.863281 -47.945312 L -68.792969 -48.390625 Z M 6.976562 22.304688 C 7.910156 22.640625 8.683594 23.144531 9.460938 23.75 C 10.007812 24.140625 10.339844 24.285156 11.011719 24.488281 C 12.074219 24.566406 12.960938 24.113281 13.910156 23.6875 C 14.425781 23.4375 14.925781 23.167969 15.425781 22.886719 C 16.246094 22.464844 16.972656 22.410156 17.890625 22.453125 C 19.25 22.632812 20.296875 23.207031 21.386719 24.011719 C 22.113281 24.363281 22.804688 24.496094 23.601562 24.460938 C 24.234375 24.265625 24.789062 23.964844 25.367188 23.640625 C 25.664062 23.480469 25.957031 23.324219 26.253906 23.164062 L 26.671875 22.9375 C 27.300781 22.605469 27.875 22.332031 28.589844 22.257812 C 29.371094 22.320312 29.925781 22.425781 30.597656 22.851562 C 30.957031 23.121094 31.3125 23.390625 31.664062 23.660156 C 32.574219 24.25 33.554688 24.46875 34.609375 24.675781 C 34.617188 24.996094 34.621094 25.316406 34.625 25.632812 L 34.632812 26.171875 L 34.609375 26.617188 L 34.394531 26.832031 C 33.5 26.929688 32.910156 26.933594 32.074219 26.59375 C 31.542969 26.328125 31.023438 26.046875 30.507812 25.753906 L 30.507812 25.324219 C 29.617188 25.109375 28.832031 25.019531 27.917969 25.109375 C 27.351562 25.34375 26.820312 25.613281 26.285156 25.910156 C 25.414062 26.367188 24.574219 26.695312 23.601562 26.832031 L 22.859375 26.941406 C 21.425781 26.941406 20.074219 25.996094 18.851562 25.324219 L 18.851562 24.894531 C 17.765625 24.816406 16.933594 24.777344 15.9375 25.257812 C 15.683594 25.421875 15.429688 25.585938 15.179688 25.753906 C 14.484375 26.21875 13.824219 26.582031 13.023438 26.832031 C 11.628906 26.90625 10.320312 26.859375 9.039062 26.28125 L 8.488281 25.972656 L 8.488281 25.539062 L 7.410156 25.324219 L 7.410156 24.894531 C 6.691406 24.8125 6.171875 24.773438 5.46875 24.894531 C 4.828125 25.226562 4.257812 25.609375 3.671875 26.03125 C 3.050781 26.429688 2.507812 26.648438 1.796875 26.832031 C 0.972656 26.765625 0.972656 26.765625 0.285156 26.617188 L 0.0703125 26.402344 C 0.0390625 25.828125 0.0625 25.253906 0.0703125 24.675781 L 0.617188 24.535156 C 2.054688 24.128906 3.230469 23.691406 4.429688 22.796875 C 5.246094 22.222656 6.007812 22.226562 6.976562 22.304688 " fill-opacity="1" fill-rule="nonzero"/></g><g clip-path="url(#61187e3ec9)"><path fill="#193049" d="M 91.601562 -45.371094 C 92.191406 -45.394531 92.773438 -45.402344 93.363281 -45.402344 L 93.925781 -45.402344 C 94.539062 -45.402344 95.15625 -45.402344 95.769531 -45.402344 C 96.195312 -45.402344 96.621094 -45.402344 97.042969 -45.402344 C 97.9375 -45.402344 98.828125 -45.402344 99.722656 -45.402344 C 100.867188 -45.398438 102.011719 -45.398438 103.160156 -45.402344 C 104.039062 -45.402344 104.917969 -45.402344 105.792969 -45.402344 C 106.21875 -45.402344 106.640625 -45.402344 107.0625 -45.402344 C 107.652344 -45.402344 108.242188 -45.402344 108.832031 -45.402344 L 109.367188 -45.402344 C 109.777344 -45.402344 110.1875 -45.386719 110.597656 -45.371094 L 110.8125 -45.15625 C 110.835938 -44.617188 110.84375 -44.082031 110.839844 -43.539062 L 110.84375 -43.082031 C 110.839844 -42.695312 110.828125 -42.308594 110.8125 -41.925781 L 110.597656 -41.707031 C 110.007812 -41.6875 109.421875 -41.679688 108.832031 -41.679688 L 108.273438 -41.679688 C 107.65625 -41.679688 107.042969 -41.679688 106.429688 -41.679688 C 106.003906 -41.679688 105.578125 -41.679688 105.152344 -41.679688 C 104.261719 -41.679688 103.367188 -41.679688 102.476562 -41.679688 C 101.328125 -41.679688 100.183594 -41.679688 99.039062 -41.679688 C 98.160156 -41.679688 97.28125 -41.679688 96.402344 -41.679688 C 95.980469 -41.679688 95.558594 -41.679688 95.132812 -41.679688 C 94.542969 -41.679688 93.953125 -41.679688 93.363281 -41.679688 L 92.832031 -41.679688 C 92.421875 -41.679688 92.011719 -41.695312 91.601562 -41.707031 L 91.382812 -41.925781 C 91.363281 -42.464844 91.355469 -43 91.355469 -43.539062 L 91.355469 -44 C 91.355469 -44.386719 91.367188 -44.773438 91.382812 -45.15625 Z M 10.859375 62.230469 C 11.394531 62.433594 11.625 62.679688 11.992188 63.109375 L 12.367188 63.542969 L 12.753906 64 L 13.144531 64.453125 C 13.847656 65.273438 13.847656 65.273438 14.101562 65.628906 L 14.101562 66.0625 L 14.535156 66.0625 L 14.871094 66.480469 C 15.347656 66.941406 15.347656 66.941406 15.839844 67.058594 C 16.382812 67.144531 16.792969 67.210938 17.339844 67.140625 C 18.292969 66.605469 18.980469 65.960938 19.699219 65.144531 L 20.257812 64.519531 L 20.792969 63.90625 L 21.269531 63.367188 C 21.617188 62.972656 21.960938 62.578125 22.304688 62.179688 C 23.648438 62.367188 24.707031 62.660156 25.847656 63.40625 C 26.191406 63.691406 26.191406 63.691406 26.621094 64.335938 C 26.59375 64.957031 26.59375 64.957031 26.40625 65.628906 C 25.980469 66.261719 25.613281 66.664062 24.964844 67.074219 C 21.808594 68.484375 18.109375 68.929688 14.675781 68.597656 C 12.101562 68.328125 9.628906 68.035156 7.464844 66.503906 L 6.976562 66.0625 C 6.75 65.320312 6.75 65.320312 6.761719 64.550781 C 7.046875 63.988281 7.046875 63.988281 7.625 63.476562 C 9.960938 62.125 9.960938 62.125 10.859375 62.230469 M 72.386719 54.421875 C 72.703125 54.410156 73.015625 54.402344 73.332031 54.394531 L 73.863281 54.378906 L 74.332031 54.421875 L 74.761719 54.851562 C 74.875 55.476562 74.875 55.476562 74.9375 56.226562 L 75.007812 56.972656 C 74.976562 57.65625 74.976562 57.65625 74.71875 58.160156 C 74.332031 58.515625 74.332031 58.515625 73.84375 58.695312 L 73.316406 58.785156 C 73.144531 58.820312 72.96875 58.851562 72.789062 58.882812 L 72.386719 58.949219 C 72.148438 59.597656 71.96875 60.195312 71.957031 60.886719 C 72.246094 61.308594 72.539062 61.5625 72.953125 61.863281 L 73.25 62.179688 C 73.347656 62.683594 73.347656 62.683594 73.25 63.257812 C 72.871094 63.84375 72.871094 63.84375 72.359375 64.417969 L 71.859375 65 L 71.308594 65.414062 C 70.636719 65.394531 70.636719 65.394531 70.011719 65.199219 L 69.367188 64.769531 C 68.542969 64.839844 67.929688 65.03125 67.207031 65.414062 L 67.222656 65.871094 L 67.234375 66.464844 L 67.25 67.054688 L 67.207031 67.570312 C 66.773438 68 66.773438 68 66.304688 68.136719 C 64.265625 68.527344 64.265625 68.527344 63.320312 68.433594 C 62.746094 67.859375 62.648438 67.28125 62.429688 66.511719 L 62.242188 66.0625 L 61.59375 65.628906 L 62.242188 63.257812 L 63.320312 63.042969 L 64.050781 63.378906 C 64.804688 63.746094 64.804688 63.746094 65.546875 63.636719 C 66.722656 63.210938 67.664062 62.214844 68.5 61.320312 C 69.007812 60.65625 69.144531 60.265625 69.261719 59.429688 C 69.273438 59.140625 69.289062 58.847656 69.296875 58.558594 L 69.320312 58.105469 C 69.335938 57.738281 69.351562 57.375 69.367188 57.007812 L 69.808594 56.878906 C 70.417969 56.675781 70.960938 56.464844 71.523438 56.144531 C 71.953125 55.582031 72.140625 55.097656 72.386719 54.421875 " fill-opacity="1" fill-rule="nonzero"/></g><g clip-path="url(#1013668a0c)"><path fill="#0c2240" d="M 76.703125 -43.863281 C 77.207031 -43.871094 77.710938 -43.871094 78.214844 -43.863281 L 78.433594 -43.648438 C 78.441406 -43.144531 78.441406 -42.644531 78.433594 -42.140625 C 77.863281 -41.855469 77.433594 -41.894531 76.796875 -41.894531 L 76.019531 -41.890625 L 75.164062 -41.894531 L 74.265625 -41.890625 C 73.453125 -41.890625 72.636719 -41.886719 71.824219 -41.886719 C 71.144531 -41.886719 70.46875 -41.886719 69.789062 -41.886719 C 68.1875 -41.886719 66.585938 -41.882812 64.988281 -41.882812 C 63.332031 -41.882812 61.679688 -41.882812 60.027344 -41.878906 C 58.609375 -41.875 57.191406 -41.875 55.773438 -41.875 C 54.925781 -41.875 54.078125 -41.875 53.230469 -41.871094 C 52.433594 -41.871094 51.636719 -41.871094 50.84375 -41.871094 C 50.410156 -41.871094 49.976562 -41.871094 49.542969 -41.867188 L 48.765625 -41.871094 L 48.089844 -41.871094 L 47.5625 -41.925781 L 47.128906 -42.355469 C 47.101562 -43.027344 47.101562 -43.027344 47.128906 -43.648438 L 47.5625 -43.21875 L 47.5625 -42.570312 L 77.570312 -42.785156 L 77.785156 -43.648438 L 76.703125 -43.648438 Z M -73.757812 45.800781 C -73.398438 45.792969 -73.039062 45.792969 -72.679688 45.800781 L -72.679688 46.445312 L -72.246094 46.445312 L -72.207031 46.886719 L -72.152344 47.472656 C -72.136719 47.660156 -72.117188 47.851562 -72.097656 48.046875 C -72.042969 48.527344 -71.945312 49 -71.816406 49.464844 L -71.371094 49.519531 C -70.546875 49.726562 -69.949219 50.101562 -69.226562 50.542969 C -69.523438 50.867188 -69.523438 50.867188 -69.871094 51.1875 L -70.304688 51.1875 L -69.871094 52.050781 C -70.636719 51.828125 -71.238281 51.578125 -71.882812 51.121094 C -72.253906 50.878906 -72.253906 50.878906 -72.679688 50.757812 C -73.664062 50.902344 -74.449219 51.289062 -75.269531 51.835938 C -75.714844 51.78125 -75.714844 51.78125 -76.132812 51.621094 L -76.566406 51.1875 C -76.523438 50.757812 -76.523438 50.757812 -76.347656 50.328125 L -75.703125 49.894531 L -75.054688 49.894531 L -75.054688 49.25 L -75.675781 49.101562 L -76.347656 48.816406 C -76.644531 48.253906 -76.644531 48.253906 -76.78125 47.742188 L -76.347656 47.308594 C -75.449219 47.375 -74.765625 47.53125 -73.972656 47.957031 L -73.980469 47.539062 L -73.996094 46.460938 L -73.972656 46.015625 Z M -63.179688 45.800781 C -62.640625 45.773438 -62.640625 45.773438 -62.101562 45.800781 L -61.886719 46.015625 C -61.871094 46.34375 -61.867188 46.671875 -61.871094 47 L -61.878906 47.539062 L -61.886719 47.957031 L -61.539062 47.757812 L -61.074219 47.511719 L -60.621094 47.261719 C -60.160156 47.09375 -60.160156 47.09375 -59.667969 47.175781 L -59.292969 47.308594 L -59.078125 48.386719 C -60.21875 49.058594 -60.21875 49.058594 -60.589844 49.25 L -61.023438 49.25 L -61.023438 49.679688 L -60.523438 49.867188 C -59.941406 50.109375 -59.941406 50.109375 -59.292969 50.542969 C -59.347656 50.945312 -59.347656 50.945312 -59.511719 51.40625 C -59.886719 51.679688 -59.886719 51.679688 -60.375 51.835938 C -60.898438 51.632812 -60.898438 51.632812 -61.453125 51.308594 C -61.992188 50.980469 -61.992188 50.980469 -62.53125 50.757812 C -63.335938 50.820312 -64.039062 51.273438 -64.746094 51.632812 L -65.449219 51.992188 L -65.988281 52.265625 L -66.417969 51.835938 L -65.769531 51.1875 L -66.203125 50.328125 L -65.753906 50.148438 C -65.085938 49.832031 -64.585938 49.539062 -64.042969 49.035156 C -63.675781 48.042969 -63.539062 47.058594 -63.394531 46.015625 Z M 35.042969 -43.433594 C 35.445312 -43.492188 35.445312 -43.492188 35.90625 -43.488281 L 36.363281 -43.492188 L 36.769531 -43.433594 L 37.199219 -43 C 37.132812 -42.449219 37.132812 -42.449219 36.984375 -41.925781 L 36.769531 -41.707031 C 36.339844 -41.6875 35.910156 -41.679688 35.480469 -41.679688 L 32.714844 -41.679688 C 31.824219 -41.679688 30.933594 -41.679688 30.039062 -41.679688 C 29.109375 -41.679688 28.179688 -41.679688 27.25 -41.679688 C 25.6875 -41.679688 24.125 -41.679688 22.5625 -41.679688 C 20.75 -41.679688 18.941406 -41.679688 17.132812 -41.679688 C 15.582031 -41.679688 14.03125 -41.679688 12.480469 -41.679688 C 11.550781 -41.679688 10.625 -41.679688 9.695312 -41.679688 C 8.824219 -41.679688 7.953125 -41.679688 7.082031 -41.679688 C 6.761719 -41.679688 6.441406 -41.679688 6.117188 -41.679688 C 5.683594 -41.679688 5.246094 -41.679688 4.8125 -41.679688 L 4.070312 -41.679688 L 3.523438 -41.707031 L 3.308594 -41.925781 C 3.300781 -42.355469 3.300781 -42.785156 3.308594 -43.21875 C 3.9375 -42.984375 4.339844 -42.835938 4.820312 -42.355469 C 5.324219 -42.289062 5.324219 -42.289062 5.917969 -42.300781 L 6.625 -42.300781 L 7.402344 -42.304688 L 8.21875 -42.300781 C 8.960938 -42.300781 9.703125 -42.300781 10.445312 -42.304688 C 11.222656 -42.304688 12 -42.304688 12.777344 -42.304688 C 14.085938 -42.304688 15.390625 -42.308594 16.699219 -42.3125 C 18.207031 -42.3125 19.710938 -42.316406 21.21875 -42.316406 C 22.828125 -42.316406 24.433594 -42.316406 26.042969 -42.320312 C 26.503906 -42.320312 26.964844 -42.320312 27.425781 -42.320312 C 28.289062 -42.320312 29.15625 -42.320312 30.019531 -42.324219 L 30.785156 -42.324219 C 32.355469 -42.328125 33.90625 -42.417969 35.472656 -42.570312 L 34.609375 -43 Z M 35.042969 -43.433594 " fill-opacity="1" fill-rule="nonzero"/></g><g clip-path="url(#f285311821)"><path fill="#0c2240" d="M 88.363281 -14.121094 L 88.578125 -13.6875 L 88.363281 -12.972656 C 88.019531 -11.703125 88.160156 -10.449219 88.363281 -9.164062 C 88.570312 -8.417969 88.839844 -7.835938 89.375 -7.261719 L 89.65625 -7.007812 L 89.65625 -6.574219 L 90.035156 -6.386719 L 91.382812 -5.714844 L 91.382812 -5.28125 L 91.863281 -5.195312 C 92.402344 -5.078125 92.890625 -4.925781 93.40625 -4.742188 C 94.871094 -4.300781 96.339844 -4.253906 97.859375 -4.203125 L 98.585938 -4.179688 C 102.09375 -4.109375 105.199219 -4.863281 108.3125 -6.460938 C 108.988281 -6.859375 109.433594 -7.289062 109.949219 -7.867188 L 110.382812 -7.867188 L 110.570312 -8.339844 C 110.714844 -8.707031 110.871094 -9.066406 111.042969 -9.417969 C 111.34375 -10.328125 111.476562 -11.222656 111.460938 -12.179688 C 111.195312 -12.910156 111.195312 -12.910156 110.8125 -13.472656 L 110.597656 -14.121094 L 111.246094 -13.902344 C 111.792969 -13.152344 112.082031 -12.371094 112.203125 -11.453125 C 112.050781 -10.179688 111.832031 -9.070312 111.109375 -7.992188 C 109.667969 -6.265625 107.921875 -5.378906 105.859375 -4.582031 L 105.449219 -4.421875 C 102.171875 -3.222656 98.339844 -3.214844 94.914062 -3.628906 C 93.027344 -3.964844 91.324219 -4.679688 89.835938 -5.875 C 88.882812 -6.738281 88.28125 -7.59375 87.863281 -8.808594 C 87.546875 -10.015625 87.375 -11.136719 87.625 -12.371094 C 88.035156 -13.792969 88.035156 -13.792969 88.363281 -14.121094 M 5.578125 16.558594 C 6.402344 16.53125 6.90625 16.667969 7.652344 17.027344 L 8.058594 17.566406 C 8.078125 18.183594 7.976562 18.675781 7.839844 19.289062 L 7.34375 19.1875 C 6.621094 19.078125 5.980469 19.019531 5.25 19.074219 C 4.648438 19.398438 4.203125 19.757812 3.707031 20.222656 C 3.308594 20.582031 3.308594 20.582031 2.660156 20.796875 C 2.25 20.8125 1.84375 20.816406 1.433594 20.8125 L 0.78125 20.804688 L 0.285156 20.796875 C 0.0976562 19.472656 0.0976562 19.472656 0.0703125 19.074219 L 0.285156 18.859375 C 0.636719 18.816406 0.988281 18.777344 1.339844 18.738281 C 2.414062 18.558594 3.027344 18.214844 3.875 17.539062 C 4.890625 16.742188 4.890625 16.742188 5.578125 16.558594 M 28.769531 16.59375 C 29.648438 16.738281 30.425781 17.046875 31.15625 17.566406 L 31.371094 18.210938 C 31.753906 18.355469 31.753906 18.355469 32.234375 18.425781 C 32.644531 18.535156 33.054688 18.640625 33.464844 18.75 L 34.101562 18.917969 C 34.609375 19.074219 34.609375 19.074219 34.824219 19.289062 C 34.851562 19.828125 34.851562 19.828125 34.824219 20.367188 L 34.609375 20.582031 C 33.777344 20.777344 32.988281 20.878906 32.152344 20.667969 C 31.742188 20.511719 31.339844 20.332031 30.941406 20.152344 L 30.941406 19.71875 L 30.546875 19.640625 C 30.078125 19.503906 30.078125 19.503906 29.429688 19.074219 C 28.703125 19.011719 28.203125 19.050781 27.511719 19.289062 L 27.054688 19.503906 L 26.621094 17.566406 C 27.914062 16.738281 27.914062 16.738281 28.769531 16.59375 " fill-opacity="1" fill-rule="nonzero"/></g><path fill="#fefefe" d="M 17.125 9.375 C 17.582031 9.402344 17.582031 9.402344 17.988281 9.589844 L 18.417969 10.019531 C 18.597656 11.542969 18.4375 13.253906 18.203125 14.761719 C 17.980469 15.269531 17.980469 15.269531 17.773438 15.625 L 16.90625 15.625 C 16.386719 14.585938 16.332031 13.535156 16.261719 12.390625 C 16.246094 12.199219 16.230469 12.003906 16.21875 11.804688 C 16.195312 11.265625 16.191406 10.769531 16.261719 10.238281 C 16.636719 9.65625 16.636719 9.65625 17.125 9.375 " fill-opacity="1" fill-rule="nonzero"/><g clip-path="url(#18877d175a)"><path fill="#0c2240" d="M 26.191406 -55.503906 C 26.804688 -55.292969 27.222656 -55.117188 27.691406 -54.664062 C 28.660156 -53.996094 29.683594 -53.820312 30.820312 -53.5625 C 31.285156 -53.453125 31.75 -53.339844 32.21875 -53.230469 L 32.902344 -53.066406 C 33.703125 -52.875 34.5 -52.667969 35.296875 -52.445312 L 35.96875 -52.261719 C 36.589844 -52.042969 37.09375 -51.789062 37.632812 -51.40625 C 37.808594 -50.828125 37.808594 -50.828125 37.847656 -50.332031 L 37.320312 -50.4375 C 36.828125 -50.550781 36.828125 -50.550781 36.550781 -50.546875 L 36.335938 -50.113281 L 36.121094 -50.332031 C 35.394531 -50.390625 34.667969 -50.425781 33.941406 -50.464844 L 33.316406 -50.546875 L 33.097656 -50.976562 L 33.960938 -51.191406 L 33.960938 -51.625 L 33.53125 -51.839844 L 33.316406 -52.269531 C 32.871094 -52.433594 32.421875 -52.582031 31.964844 -52.714844 L 31.21875 -52.9375 C 30.625 -53.101562 30.035156 -53.230469 29.429688 -53.347656 C 28.230469 -53.671875 27.382812 -54.179688 26.460938 -55.007812 L 26.191406 -55.289062 Z M -0.144531 -57.011719 C 0.285156 -57.03125 0.71875 -57.035156 1.148438 -57.03125 L 1.945312 -57.03125 L 2.78125 -57.027344 L 3.621094 -57.023438 C 4.308594 -57.019531 4.996094 -57.015625 5.683594 -57.011719 L 5.683594 -55.503906 L -0.144531 -55.503906 L -0.363281 -56.796875 Z M -49.582031 16.703125 C -49.121094 16.691406 -48.664062 16.683594 -48.203125 16.675781 L -47.429688 16.660156 L -46.773438 16.703125 L -46.34375 17.132812 C -46.304688 17.664062 -46.285156 18.191406 -46.292969 18.722656 L -46.292969 19.199219 C -46.292969 19.53125 -46.296875 19.863281 -46.296875 20.191406 C -46.300781 20.703125 -46.300781 21.210938 -46.300781 21.71875 C -46.304688 22.042969 -46.304688 22.363281 -46.304688 22.683594 L -46.308594 23.148438 C -46.3125 23.515625 -46.324219 23.878906 -46.34375 24.246094 L -46.558594 24.460938 C -47.105469 24.511719 -47.644531 24.554688 -48.191406 24.582031 L -48.65625 24.613281 C -49.035156 24.632812 -49.417969 24.65625 -49.796875 24.675781 L -50.011719 24.03125 C -49.207031 23.90625 -48.457031 23.816406 -47.636719 23.816406 C -47.023438 20.570312 -47.023438 20.570312 -47.421875 17.347656 L -49.582031 16.917969 Z M -64.90625 49.679688 C -64.394531 49.855469 -64.394531 49.855469 -64.042969 50.109375 L -64.042969 50.328125 L -63.460938 50.179688 L -62.695312 49.988281 L -61.9375 49.800781 C -61.238281 49.679688 -61.238281 49.679688 -60.753906 49.746094 C -60.226562 49.953125 -59.769531 50.238281 -59.292969 50.542969 C -59.347656 50.945312 -59.347656 50.945312 -59.511719 51.40625 C -59.886719 51.683594 -59.886719 51.683594 -60.375 51.835938 C -60.898438 51.632812 -60.898438 51.632812 -61.453125 51.308594 C -61.992188 50.984375 -61.992188 50.984375 -62.53125 50.757812 C -63.335938 50.820312 -64.039062 51.273438 -64.746094 51.632812 L -65.449219 51.992188 L -65.988281 52.265625 L -66.417969 51.835938 L -65.769531 51.1875 L -66.203125 50.328125 C -65.609375 49.976562 -65.609375 49.976562 -64.90625 49.679688 " fill-opacity="1" fill-rule="nonzero"/></g><g clip-path="url(#4cc70f71f0)"><path fill="#0c2240" d="M 71.957031 61.320312 C 72.488281 61.566406 72.828125 61.761719 73.25 62.179688 C 73.332031 62.675781 73.332031 62.675781 73.25 63.257812 C 72.871094 63.84375 72.871094 63.84375 72.359375 64.417969 C 72.195312 64.609375 72.03125 64.804688 71.859375 65 L 71.308594 65.414062 C 70.636719 65.394531 70.636719 65.394531 70.011719 65.199219 L 69.367188 64.769531 C 68.453125 64.847656 67.632812 65.109375 66.773438 65.414062 L 66.773438 64.769531 C 67.414062 64.492188 68.035156 64.261719 68.71875 64.121094 C 69.199219 64.1875 69.199219 64.1875 69.648438 64.324219 L 70.445312 64.550781 C 70.9375 64.386719 70.9375 64.386719 71.308594 64.121094 L 71.957031 64.121094 L 72.050781 63.71875 C 72.171875 63.257812 72.171875 63.257812 72.386719 62.828125 C 72.257812 62.320312 72.113281 61.820312 71.957031 61.320312 M 62.027344 64.335938 C 62.414062 64.917969 62.648438 65.417969 62.902344 66.0625 L 63.125 66.625 C 63.269531 67.011719 63.40625 67.394531 63.535156 67.785156 C 63.886719 67.753906 64.238281 67.722656 64.589844 67.691406 L 65.179688 67.636719 C 65.699219 67.597656 65.699219 67.597656 66.128906 67.355469 C 66.273438 66.949219 66.273438 66.949219 66.371094 66.480469 L 66.480469 66 L 66.558594 65.628906 L 66.992188 65.628906 C 67.039062 65.945312 67.082031 66.257812 67.125 66.574219 L 67.203125 67.101562 L 67.207031 67.570312 C 66.773438 68 66.773438 68 66.304688 68.136719 C 64.265625 68.527344 64.265625 68.527344 63.320312 68.433594 C 62.746094 67.859375 62.648438 67.28125 62.429688 66.511719 L 62.242188 66.0625 L 61.59375 65.628906 Z M 12.804688 -43.433594 L 27.054688 -43.433594 L 27.054688 -43.21875 L 21.65625 -43 L 21.65625 -42.570312 L 20.792969 -42.785156 L 20.792969 -43.21875 L 20.566406 -42.898438 L 20.144531 -42.570312 C 19.421875 -42.507812 19.421875 -42.507812 18.59375 -42.53125 L 17.761719 -42.546875 L 17.125 -42.570312 L 17.125 -43 L 12.804688 -43.21875 Z M 66.773438 49.464844 L 67.207031 49.464844 L 67.410156 49.988281 L 67.855469 50.542969 C 68.464844 50.660156 69.046875 50.691406 69.667969 50.707031 C 70.230469 50.757812 70.230469 50.757812 70.875 51.1875 C 70.9375 51.816406 70.957031 52.394531 70.945312 53.019531 L 70.945312 53.535156 C 70.941406 53.972656 70.910156 54.414062 70.875 54.851562 L 70.445312 55.285156 C 69.929688 55.375 69.929688 55.375 69.339844 55.417969 L 68.742188 55.46875 L 68.285156 55.5 L 68.070312 55.070312 L 70.011719 54.851562 C 70.0625 54.363281 70.105469 53.875 70.148438 53.386719 L 70.222656 52.558594 L 70.230469 51.835938 L 69.796875 51.1875 C 69.242188 51.105469 69.242188 51.105469 68.625 51.109375 C 67.980469 51.070312 67.980469 51.070312 67.421875 50.972656 C 66.949219 50.449219 66.949219 50.449219 66.773438 49.894531 Z M 107.789062 25.753906 L 108.222656 25.753906 C 108.679688 26.265625 108.679688 26.265625 109.085938 26.832031 L 109.085938 27.265625 L 109.515625 27.265625 C 109.574219 27.847656 109.574219 27.847656 109.515625 28.558594 C 109.128906 29.09375 109.128906 29.09375 108.613281 29.582031 L 108.105469 30.074219 C 107.570312 30.5 107.148438 30.746094 106.496094 30.929688 C 105.941406 30.671875 105.941406 30.671875 105.414062 30.28125 L 104.957031 29.945312 C 104.824219 29.84375 104.691406 29.738281 104.550781 29.636719 L 103.90625 29.203125 L 105.199219 29.203125 L 105.199219 29.636719 C 105.839844 29.792969 106.28125 29.894531 106.925781 29.851562 C 107.625 29.53125 108.152344 29.136719 108.652344 28.558594 C 108.871094 27.902344 108.871094 27.902344 108.652344 27.265625 C 108.238281 26.675781 108.238281 26.675781 107.789062 26.1875 Z M 64.617188 -11.964844 L 65.480469 -11.53125 C 65.386719 -11.035156 65.386719 -11.035156 65.046875 -10.457031 C 64.003906 -9.808594 62.777344 -9.746094 61.582031 -9.699219 C 59.761719 -9.734375 58.085938 -10.183594 56.414062 -10.886719 L 56.195312 -11.316406 C 57.167969 -11.226562 58.015625 -11.085938 58.9375 -10.765625 C 60.238281 -10.355469 61.535156 -10.324219 62.890625 -10.457031 C 63.589844 -10.617188 63.589844 -10.617188 64.183594 -10.886719 C 64.496094 -11.425781 64.496094 -11.425781 64.617188 -11.964844 M 20.363281 -15.84375 L 20.792969 -15.84375 C 20.804688 -15.5 20.8125 -15.152344 20.820312 -14.804688 L 20.835938 -14.222656 C 20.792969 -13.6875 20.792969 -13.6875 20.363281 -13.042969 C 19.71875 -12.96875 19.71875 -12.96875 18.902344 -12.980469 L 18.46875 -12.980469 C 18.011719 -12.984375 17.554688 -12.992188 17.097656 -13 C 16.785156 -13.003906 16.476562 -13.007812 16.167969 -13.011719 C 15.40625 -13.019531 14.644531 -13.027344 13.886719 -13.042969 L 13.671875 -13.472656 C 15.335938 -13.644531 16.957031 -13.695312 18.628906 -13.632812 C 19.28125 -13.644531 19.28125 -13.644531 19.792969 -13.964844 L 20.144531 -14.335938 C 20.320312 -15.113281 20.320312 -15.113281 20.363281 -15.84375 " fill-opacity="1" fill-rule="nonzero"/></g><g clip-path="url(#6346018739)"><path fill="#0c2240" d="M -50.660156 49.894531 C -50.296875 49.882812 -49.929688 49.875 -49.566406 49.882812 L -48.964844 49.886719 L -48.5 49.894531 C -48.417969 50.398438 -48.347656 50.898438 -48.285156 51.40625 L -48.5 51.621094 C -48.855469 51.648438 -49.210938 51.65625 -49.566406 51.660156 L -50.152344 51.667969 L -50.660156 51.621094 L -51.089844 51.1875 C -51.023438 50.636719 -51.023438 50.636719 -50.875 50.109375 Z M 109.300781 18.640625 C 109.652344 18.636719 110.003906 18.632812 110.355469 18.628906 L 110.945312 18.621094 C 111.460938 18.640625 111.460938 18.640625 111.890625 18.859375 C 112.128906 19.574219 112.144531 20.125 112.148438 20.878906 L 112.15625 21.609375 C 112.109375 22.304688 112.011719 22.773438 111.675781 23.382812 C 111.082031 23.582031 110.734375 23.625 110.125 23.613281 L 109.300781 23.601562 L 109.515625 23.167969 L 111.027344 22.738281 C 111.351562 22.089844 111.265625 21.488281 111.257812 20.769531 L 111.253906 19.933594 L 111.246094 19.289062 L 109.300781 18.859375 Z M 109.300781 18.640625 " fill-opacity="1" fill-rule="nonzero"/></g><g clip-path="url(#8753733898)"><path fill="#0c2240" d="M 32.882812 29.203125 L 34.609375 29.636719 C 34.617188 29.953125 34.621094 30.273438 34.625 30.589844 L 34.632812 31.128906 L 34.609375 31.574219 L 34.394531 31.789062 C 34.070312 31.808594 33.75 31.816406 33.429688 31.8125 L 32.839844 31.808594 L 32.222656 31.804688 L 31.601562 31.800781 C 31.09375 31.796875 30.585938 31.792969 30.078125 31.789062 L 29.859375 31.359375 L 33.53125 31.144531 L 33.746094 29.851562 L 32.882812 29.417969 Z M -50.660156 52.914062 C -50.144531 52.851562 -50.144531 52.851562 -49.554688 52.871094 L -48.957031 52.890625 L -48.5 52.914062 L -48.285156 54.421875 C -49.203125 54.671875 -49.945312 54.585938 -50.875 54.421875 C -51.011719 54.03125 -51.011719 54.03125 -51.089844 53.558594 Z M -50.660156 46.878906 C -50.097656 46.816406 -50.097656 46.816406 -49.445312 46.835938 L -48.789062 46.855469 L -48.285156 46.878906 L -48.285156 48.386719 L -50.875 48.386719 L -51.089844 47.523438 Z M -30.582031 28.125 L -28.640625 29.203125 L -28.640625 29.636719 C -26.296875 30.476562 -23.976562 30.640625 -21.515625 30.28125 L -21.734375 30.710938 C -23.148438 31.167969 -24.480469 31.339844 -25.945312 31.027344 C -27.714844 30.53125 -29.242188 29.828125 -30.582031 28.558594 Z M -1.441406 -49.253906 C -1.085938 -49.273438 -0.730469 -49.28125 -0.375 -49.28125 L 0.210938 -49.28125 C 0.71875 -49.253906 0.71875 -49.253906 1.148438 -49.035156 C 1.160156 -48.679688 1.15625 -48.320312 1.148438 -47.960938 L 0.933594 -47.742188 C 0.578125 -47.722656 0.222656 -47.714844 -0.132812 -47.71875 L -0.71875 -47.714844 C -1.226562 -47.742188 -1.226562 -47.742188 -1.65625 -47.960938 C -1.664062 -48.320312 -1.664062 -48.679688 -1.65625 -49.035156 Z M -1.441406 -49.253906 " fill-opacity="1" fill-rule="nonzero"/></g><path fill="#fefefe" d="M 16.90625 16.488281 C 17.433594 16.554688 17.433594 16.554688 17.988281 16.703125 L 18.417969 17.132812 C 18.472656 17.671875 18.472656 17.671875 18.417969 18.210938 L 17.988281 18.640625 C 17.339844 18.601562 17.339844 18.601562 16.691406 18.425781 L 16.261719 17.78125 C 16.550781 16.84375 16.550781 16.84375 16.90625 16.488281 " fill-opacity="1" fill-rule="nonzero"/><g clip-path="url(#befa0cd031)"><path fill="#0c2240" d="M 7.625 63.476562 L 8.058594 63.691406 L 7.71875 64.039062 C 7.355469 64.542969 7.355469 64.542969 7.394531 65.199219 C 7.578125 65.878906 7.578125 65.878906 8.152344 66.316406 C 8.960938 66.730469 9.730469 66.964844 10.609375 67.179688 L 11.078125 67.355469 L 11.511719 68 C 9.964844 67.871094 8.730469 67.328125 7.410156 66.53125 C 6.976562 66.0625 6.976562 66.0625 6.75 65.320312 L 6.761719 64.550781 C 7.179688 63.917969 7.179688 63.917969 7.625 63.476562 M 10.214844 -56.796875 L 10.863281 -56.796875 C 10.644531 -56.207031 10.414062 -55.691406 10.082031 -55.152344 L 9.785156 -54.640625 L 9.785156 -53.996094 C 10.351562 -53.710938 10.804688 -53.734375 11.4375 -53.710938 L 12.171875 -53.683594 L 12.941406 -53.65625 L 13.714844 -53.628906 C 14.347656 -53.605469 14.980469 -53.585938 15.613281 -53.5625 L 15.613281 -53.347656 C 14.695312 -53.335938 13.777344 -53.328125 12.859375 -53.320312 L 12.070312 -53.308594 L 11.3125 -53.304688 L 10.613281 -53.300781 C 10.003906 -53.347656 9.652344 -53.464844 9.136719 -53.777344 C 9.207031 -54.773438 9.28125 -55.371094 9.757812 -56.257812 Z M 67.421875 59.164062 L 68.070312 59.164062 C 68.023438 59.628906 68.023438 59.628906 67.855469 60.242188 C 67.414062 60.824219 67.414062 60.824219 66.855469 61.398438 L 66.308594 61.984375 C 66.105469 62.121094 65.902344 62.257812 65.695312 62.398438 C 64.914062 62.386719 64.914062 62.386719 64.183594 62.179688 C 63.667969 61.875 63.328125 61.519531 62.890625 61.105469 C 63.535156 61.105469 63.535156 61.105469 64.171875 61.453125 L 64.832031 61.75 C 65.292969 61.664062 65.292969 61.664062 65.695312 61.320312 L 66.371094 60.820312 C 67.011719 60.292969 67.011719 60.292969 67.289062 59.636719 Z M 59.433594 47.09375 C 60.746094 47.480469 61.808594 48.089844 62.808594 49.019531 C 63.347656 49.597656 63.53125 49.875 63.753906 50.648438 L 63.753906 51.1875 L 63.386719 50.730469 L 62.890625 50.109375 L 62.390625 49.453125 C 61.664062 48.65625 60.941406 48.167969 59.90625 47.824219 C 59.292969 47.714844 58.707031 47.71875 58.085938 47.726562 L 57.378906 47.734375 L 56.84375 47.742188 L 56.628906 47.308594 C 57.582031 46.992188 58.4375 46.976562 59.433594 47.09375 M 56.195312 63.691406 L 56.414062 64.121094 C 57 64.1875 57.566406 64.230469 58.152344 64.257812 L 58.648438 64.28125 C 59.054688 64.300781 59.460938 64.320312 59.867188 64.335938 L 60.082031 63.691406 L 60.730469 63.90625 L 60.730469 64.769531 C 59.265625 65.027344 57.625 65.242188 56.195312 64.769531 Z M 71.523438 -10.238281 L 71.957031 -10.238281 C 71.839844 -9.09375 71.496094 -8.183594 70.875 -7.222656 C 70.070312 -6.242188 69.257812 -5.558594 68.070312 -5.066406 L 68.070312 -5.714844 C 68.410156 -6.007812 68.410156 -6.007812 68.867188 -6.304688 C 69.746094 -6.9375 70.355469 -7.566406 70.875 -8.515625 C 71.125 -9.085938 71.328125 -9.648438 71.523438 -10.238281 M 56.414062 -19.078125 L 57.058594 -18.863281 L 57.058594 -18.429688 L 57.425781 -18.261719 C 58.1875 -17.859375 58.859375 -17.335938 59.554688 -16.828125 C 60.039062 -16.519531 60.386719 -16.371094 60.945312 -16.273438 L 60.945312 -15.84375 L 61.355469 -15.726562 L 61.890625 -15.5625 L 62.421875 -15.402344 L 62.890625 -15.199219 L 63.320312 -14.550781 C 60.816406 -15.328125 58.621094 -16.582031 56.683594 -18.339844 L 56.414062 -18.644531 Z M -69.441406 58.085938 L -69.007812 58.300781 C -69.304688 58.734375 -69.304688 58.734375 -69.65625 59.164062 L -70.089844 59.164062 L -70.089844 59.808594 L -68.792969 59.59375 L -68.792969 60.027344 C -69.375 60.363281 -69.375 60.363281 -70.089844 60.671875 C -70.710938 60.605469 -70.710938 60.605469 -71.167969 60.457031 L -71.382812 59.59375 Z M 64.398438 44.074219 C 65.085938 44.128906 65.503906 44.308594 66.105469 44.652344 L 66.734375 45.101562 L 67.371094 45.542969 L 67.855469 46.015625 C 67.957031 46.574219 67.957031 46.574219 67.855469 47.09375 C 67.3125 47.699219 67.3125 47.699219 66.773438 48.171875 L 66.558594 47.742188 L 66.773438 47.351562 C 67.027344 46.882812 67.027344 46.882812 66.992188 46.339844 C 66.800781 45.75 66.800781 45.75 66.222656 45.316406 C 65.34375 44.871094 64.726562 44.789062 63.753906 44.722656 C 64.007812 44.386719 64.007812 44.386719 64.398438 44.074219 M 89.875 27.480469 L 90.152344 27.855469 C 90.511719 28.328125 90.878906 28.789062 91.261719 29.246094 L 91.640625 29.699219 C 92.007812 30.085938 92.007812 30.085938 92.476562 30.242188 L 92.894531 30.28125 C 93.480469 30.015625 93.480469 30.015625 93.976562 29.636719 L 94.191406 29.203125 L 94.839844 29.203125 C 94.703125 29.582031 94.703125 29.582031 94.40625 30.066406 C 93.800781 30.566406 93.800781 30.566406 93.109375 30.929688 C 92.597656 30.90625 92.597656 30.90625 92.03125 30.710938 C 91.460938 30.25 91.460938 30.25 90.898438 29.675781 L 90.328125 29.105469 C 89.875 28.558594 89.875 28.558594 89.6875 28.070312 L 89.65625 27.695312 Z M 89.875 27.480469 " fill-opacity="1" fill-rule="nonzero"/><path fill="#0c2240" d="M -28.855469 43.859375 C -28.371094 43.917969 -28.371094 43.917969 -27.777344 44.074219 C -26.390625 45.222656 -25.539062 46.796875 -24.753906 48.386719 C -25.148438 48.234375 -25.148438 48.234375 -25.617188 47.957031 C -25.941406 47.488281 -25.941406 47.488281 -26.238281 46.933594 C -26.800781 45.953125 -27.355469 45.246094 -28.210938 44.507812 L -28.855469 44.292969 Z M 60.296875 -22.957031 C 60.824219 -22.902344 61.339844 -22.835938 61.863281 -22.753906 C 62.867188 -22.605469 63.816406 -22.5 64.832031 -22.527344 L 64.832031 -22.09375 C 63.160156 -22.070312 61.527344 -22.101562 59.867188 -22.308594 L 59.867188 -21.878906 L 59.21875 -22.09375 C 59.570312 -22.460938 59.839844 -22.726562 60.296875 -22.957031 M -27.992188 -46.234375 L -27.238281 -46.128906 C -25.695312 -45.953125 -24.144531 -46.003906 -22.597656 -46.019531 C -22.808594 -45.699219 -22.808594 -45.699219 -23.246094 -45.371094 C -23.84375 -45.3125 -24.449219 -45.292969 -25.050781 -45.304688 L -25.546875 -45.304688 C -26.457031 -45.3125 -27.164062 -45.390625 -27.992188 -45.804688 Z M -72.679688 57.007812 L -72.246094 57.007812 C -72.226562 57.511719 -72.230469 58.015625 -72.246094 58.515625 L -72.679688 59.164062 C -73.039062 59.097656 -73.398438 59.027344 -73.757812 58.949219 L -73.972656 58.734375 C -73.984375 58.375 -73.984375 58.015625 -73.972656 57.65625 L -72.894531 57.441406 L -73.109375 58.085938 L -72.679688 58.085938 Z M 0.0703125 29.851562 L 0.5 30.066406 L 0.933594 31.359375 L 3.738281 31.359375 L 3.957031 31.789062 C 3.347656 31.796875 2.742188 31.800781 2.132812 31.804688 L 1.609375 31.808594 C 1.167969 31.8125 0.726562 31.800781 0.285156 31.789062 L 0.0703125 31.574219 C 0.0390625 31 0.0625 30.425781 0.0703125 29.851562 M 15.613281 -57.875 L 15.613281 -57.441406 L 15.246094 -57.429688 C 14.699219 -57.410156 14.152344 -57.386719 13.601562 -57.363281 L 13.027344 -57.34375 L 12.472656 -57.316406 L 11.960938 -57.296875 C 11.445312 -57.25 11.445312 -57.25 10.863281 -56.796875 L 10.648438 -57.226562 L 10.863281 -57.660156 C 12.488281 -58.171875 13.933594 -58.066406 15.613281 -57.875 M -60.589844 55.714844 C -60.078125 55.890625 -60.078125 55.890625 -59.511719 56.144531 L -59.078125 56.792969 L -59.511719 57.65625 L -61.023438 57.441406 L -61.023438 56.792969 L -60.589844 57.007812 L -60.804688 56.363281 L -60.375 56.363281 Z M 72.386719 54.421875 C 72.703125 54.410156 73.015625 54.402344 73.332031 54.394531 L 73.863281 54.378906 L 74.332031 54.421875 L 74.761719 54.851562 L 74.761719 55.714844 L 74.371094 55.511719 C 73.878906 55.261719 73.878906 55.261719 73.25 55.070312 L 72.601562 55.5 L 71.957031 55.285156 Z M -33.820312 47.308594 C -33.503906 48.261719 -33.597656 49.222656 -33.613281 50.214844 C -33.625 51.214844 -33.558594 52.144531 -33.390625 53.128906 C -33.820312 52.699219 -33.820312 52.699219 -34.066406 51.957031 C -34.382812 50.574219 -34.410156 49.175781 -34.039062 47.808594 Z M -33.820312 47.308594 " fill-opacity="1" fill-rule="nonzero"/><path fill="#0c2240" d="M 58.476562 41.664062 L 59.21875 41.65625 C 59.867188 41.707031 59.867188 41.707031 60.515625 42.136719 C 60.554688 42.703125 60.554688 42.703125 60.515625 43.214844 L 59.867188 43 L 59.867188 42.351562 L 56.414062 42.351562 L 56.195312 41.921875 C 56.960938 41.6875 57.679688 41.667969 58.476562 41.664062 M 108.652344 13.253906 L 109.515625 13.683594 C 109.597656 14.128906 109.597656 14.128906 109.515625 14.761719 C 109.128906 15.308594 108.6875 15.792969 108.222656 16.273438 L 107.574219 16.054688 C 107.652344 15.960938 107.730469 15.867188 107.8125 15.769531 C 108.121094 15.371094 108.402344 14.988281 108.652344 14.546875 C 108.746094 13.835938 108.746094 13.835938 108.652344 13.253906 M -76.132812 53.128906 C -75.378906 53.183594 -75.378906 53.183594 -74.621094 53.34375 L -74.191406 53.777344 L -75.484375 53.558594 L -75.484375 54.421875 L -75.054688 55.070312 L -76.347656 54.636719 C -76.484375 54.125 -76.484375 54.125 -76.566406 53.558594 Z M 29.859375 -25.542969 C 30.632812 -25.214844 31.144531 -24.757812 31.734375 -24.167969 L 32.25 -23.664062 C 32.667969 -23.171875 32.667969 -23.171875 32.832031 -22.679688 L 32.882812 -22.308594 C 32.503906 -22.082031 32.503906 -22.082031 32.019531 -21.878906 C 31.535156 -21.960938 31.535156 -21.960938 31.15625 -22.09375 L 31.15625 -22.308594 L 32.234375 -22.527344 C 31.738281 -23.523438 31.011719 -24.207031 30.214844 -24.96875 L 29.859375 -25.328125 Z M 79.078125 -57.441406 L 78.863281 -56.367188 C 78.269531 -56.121094 78.269531 -56.121094 77.570312 -55.933594 C 77.054688 -56.121094 77.054688 -56.121094 76.703125 -56.367188 C 76.9375 -56.546875 77.171875 -56.726562 77.40625 -56.902344 L 77.800781 -57.207031 C 78.214844 -57.441406 78.214844 -57.441406 79.078125 -57.441406 M 22.304688 -19.078125 L 23.167969 -19.078125 L 23.167969 -17.136719 L 21.875 -17.136719 L 21.875 -17.566406 L 22.304688 -17.566406 L 22.183594 -18.203125 L 22.089844 -18.863281 Z M 22.304688 -19.078125 " fill-opacity="1" fill-rule="nonzero"/><path fill="#0c2240" d="M 56.84375 66.0625 L 59.652344 66.277344 L 59.652344 66.707031 L 59.003906 67.140625 C 58.191406 67.070312 57.550781 66.898438 56.84375 66.492188 Z M 46.914062 -56.582031 L 47.128906 -56.148438 L 46.914062 -55.503906 L 47.128906 -54.855469 C 47.886719 -54.589844 47.886719 -54.589844 48.640625 -54.425781 L 48.640625 -53.996094 L 46.699219 -54.210938 C 46.441406 -54.789062 46.441406 -54.789062 46.265625 -55.503906 C 46.5625 -56.121094 46.5625 -56.121094 46.914062 -56.582031 M 87.5 22.523438 L 88.144531 22.953125 C 88.761719 23.082031 89.378906 23.171875 90.003906 23.261719 L 90.519531 23.382812 L 90.738281 23.816406 L 87.714844 23.601562 Z M 62.457031 63.042969 C 63.441406 63.160156 64.179688 63.429688 65.046875 63.90625 L 64.398438 64.121094 L 63.886719 64.011719 C 63.265625 63.894531 62.847656 63.964844 62.242188 64.121094 Z M -60.589844 53.128906 L -59.511719 53.34375 L -59.292969 54.207031 C -59.902344 54.652344 -59.902344 54.652344 -60.589844 55.070312 L -61.238281 54.851562 L -60.820312 54.460938 C -60.332031 54.011719 -60.332031 54.011719 -60.160156 53.34375 Z M 31.15625 25.753906 L 34.179688 26.402344 L 34.179688 25.972656 L 34.609375 25.972656 L 34.394531 26.832031 C 33.101562 26.902344 32.3125 26.765625 31.15625 26.1875 Z M 56.414062 -8.945312 L 62.671875 -8.515625 L 62.671875 -8.300781 C 62.015625 -8.253906 61.359375 -8.207031 60.703125 -8.164062 L 60.144531 -8.125 C 59.082031 -8.058594 58.273438 -8.082031 57.277344 -8.515625 Z M -17.847656 27.046875 L -17.414062 27.046875 C -17.640625 27.816406 -17.960938 28.285156 -18.523438 28.839844 L -19.140625 29.417969 L -19.789062 29.203125 L -19.304688 28.734375 C -18.707031 28.144531 -18.707031 28.144531 -18.238281 27.519531 Z M 29.429688 24.460938 C 29.957031 24.894531 29.957031 24.894531 30.292969 25.324219 L 29.957031 25.214844 C 28.980469 25.015625 28.003906 25.019531 27.054688 25.324219 L 26.839844 24.894531 C 27.726562 24.460938 28.445312 24.355469 29.429688 24.460938 M 100.234375 15.625 C 101.890625 15.871094 101.890625 15.871094 102.59375 16.324219 C 102.898438 16.582031 103.1875 16.855469 103.472656 17.132812 L 103.257812 17.566406 L 102.933594 17.34375 C 101.972656 16.714844 101.140625 16.3125 100.019531 16.054688 Z M 100.234375 15.625 " fill-opacity="1" fill-rule="nonzero"/></g><path fill="#0d2341" d="M 15.613281 25.109375 L 15.613281 25.539062 C 15.191406 25.761719 14.769531 25.980469 14.34375 26.199219 L 13.632812 26.570312 L 13.023438 26.832031 L 12.589844 26.617188 C 13.378906 25.960938 14.550781 25.109375 15.613281 25.109375 " fill-opacity="1" fill-rule="nonzero"/><g clip-path="url(#aaa4fd8a3d)"><path fill="#0c2240" d="M 21.007812 67.355469 L 22.519531 67.570312 L 22.519531 68 L 20.363281 68.214844 L 20.144531 67.785156 L 21.007812 67.785156 Z M 10.878906 62.234375 L 11.296875 62.398438 L 11.726562 63.042969 L 9.351562 62.828125 C 9.847656 62.332031 10.167969 62.148438 10.878906 62.234375 M 17.988281 27.695312 C 18.976562 27.757812 19.609375 27.929688 20.457031 28.464844 C 20.714844 28.636719 20.972656 28.808594 21.226562 28.988281 L 20.792969 29.203125 C 20.308594 29.007812 19.832031 28.796875 19.363281 28.570312 L 18.585938 28.199219 L 17.988281 27.910156 Z M 72.386719 58.300781 C 72.859375 58.371094 72.859375 58.371094 73.25 58.515625 L 72.847656 58.636719 L 72.386719 58.949219 C 72.105469 59.710938 72.105469 59.710938 71.957031 60.457031 L 71.523438 60.242188 C 71.652344 59.074219 71.652344 59.074219 72.023438 58.53125 Z M 72.386719 58.300781 " fill-opacity="1" fill-rule="nonzero"/></g><g clip-path="url(#dfe9696cf4)"><path fill="#0c2240" d="M -16.769531 22.304688 L -16.121094 22.304688 C -16.101562 22.808594 -16.101562 23.3125 -16.121094 23.816406 L -16.550781 24.460938 C -16.71875 23.726562 -16.789062 23.058594 -16.769531 22.304688 M -32.3125 21.230469 L -32.09375 21.230469 L -32.101562 21.78125 C -32.105469 22.015625 -32.105469 22.25 -32.109375 22.496094 L -32.117188 23.207031 C -32.136719 23.804688 -32.136719 23.804688 -31.878906 24.246094 C -32.082031 24.703125 -32.082031 24.703125 -32.3125 25.109375 C -32.542969 24.414062 -32.554688 23.898438 -32.554688 23.167969 L -32.554688 22.480469 C -32.527344 21.875 -32.527344 21.875 -32.3125 21.230469 M 107.574219 -11.964844 L 107.359375 -11.316406 L 105.199219 -11.101562 L 104.984375 -11.53125 C 105.824219 -12.09375 106.597656 -11.996094 107.574219 -11.964844 M 13.023438 64.984375 C 13.441406 65.160156 13.441406 65.160156 13.886719 65.414062 L 14.101562 66.0625 L 14.535156 66.0625 C 14.882812 66.492188 14.882812 66.492188 15.179688 66.921875 L 14.316406 66.921875 C 13.949219 66.554688 13.949219 66.554688 13.617188 66.074219 L 13.277344 65.597656 L 13.023438 65.199219 Z M 89.875 13.683594 C 90.433594 14.523438 90.9375 15.367188 91.382812 16.273438 C 91.136719 16.074219 90.886719 15.878906 90.640625 15.679688 C 90.503906 15.570312 90.367188 15.457031 90.226562 15.34375 C 89.875 14.976562 89.875 14.976562 89.703125 14.53125 L 89.65625 14.117188 Z M 110.382812 -43 L 110.8125 -43 C 110.820312 -42.644531 110.820312 -42.285156 110.8125 -41.925781 L 110.597656 -41.707031 C 110.164062 -41.699219 109.734375 -41.699219 109.300781 -41.707031 C 109.652344 -42.148438 110.011719 -42.578125 110.382812 -43 M 11.726562 -14.980469 L 12.160156 -14.765625 L 11.941406 -12.179688 L 11.726562 -12.179688 C 11.683594 -12.605469 11.644531 -13.03125 11.605469 -13.460938 L 11.539062 -14.179688 L 11.511719 -14.765625 Z M -16.984375 25.109375 L -16.550781 25.109375 C -16.671875 25.828125 -16.84375 26.410156 -17.199219 27.046875 L -17.632812 26.617188 Z M 92.246094 11.3125 C 92.839844 11.355469 92.839844 11.355469 93.542969 11.53125 C 94.054688 12.082031 94.054688 12.082031 94.40625 12.605469 L 94.070312 12.417969 C 93.410156 12.113281 92.734375 11.933594 92.03125 11.746094 Z M 98.507812 8.941406 C 99.003906 8.933594 99.496094 8.921875 99.992188 8.917969 L 100.828125 8.902344 L 101.53125 8.941406 L 101.960938 9.375 L 101.3125 9.589844 L 100.882812 9.375 C 100.480469 9.324219 100.074219 9.285156 99.667969 9.253906 L 99.011719 9.199219 L 98.507812 9.160156 Z M 98.507812 8.941406 " fill-opacity="1" fill-rule="nonzero"/><path fill="#0c2240" d="M -15.6875 -46.882812 L -15.039062 -46.882812 L -15.039062 -46.449219 C -15.371094 -46.171875 -15.371094 -46.171875 -15.796875 -45.886719 L -16.222656 -45.59375 L -16.550781 -45.371094 L -16.550781 -46.019531 C -16.160156 -46.492188 -16.160156 -46.492188 -15.6875 -46.882812 M 67.207031 55.5 L 67.636719 55.5 L 66.992188 57.441406 L 66.558594 57.222656 C 66.964844 55.984375 66.964844 55.984375 67.207031 55.5 M 95.054688 -28.992188 L 98.292969 -28.777344 L 98.292969 -28.5625 C 96.347656 -28.28125 96.347656 -28.28125 95.457031 -28.546875 L 95.054688 -28.777344 Z M 95.054688 -28.992188 " fill-opacity="1" fill-rule="nonzero"/></g></svg>