<svg xmlns="http://www.w3.org/2000/svg" xmlns:xlink="http://www.w3.org/1999/xlink" width="48" zoomAndPan="magnify" viewBox="0 0 36 36.000001" height="48" preserveAspectRatio="xMidYMid meet" version="1.0"><defs><clipPath id="8606300fd9"><path d="M 0.488281 0 L 35.511719 0 L 35.511719 35.027344 L 0.488281 35.027344 Z M 0.488281 0 " clip-rule="nonzero"/></clipPath><clipPath id="11d85dd82f"><path d="M 6 6 L 35.511719 6 L 35.511719 35.027344 L 6 35.027344 Z M 6 6 " clip-rule="nonzero"/></clipPath><clipPath id="fcd7ef7d6f"><path d="M 6 24 L 35.511719 24 L 35.511719 35.027344 L 6 35.027344 Z M 6 24 " clip-rule="nonzero"/></clipPath><clipPath id="7ea28073de"><path d="M 2 30 L 35.511719 30 L 35.511719 35.027344 L 2 35.027344 Z M 2 30 " clip-rule="nonzero"/></clipPath><clipPath id="11603d14fb"><path d="M 9 13 L 35.511719 13 L 35.511719 28 L 9 28 Z M 9 13 " clip-rule="nonzero"/></clipPath><clipPath id="3b89e2f85f"><path d="M 13 2 L 35.511719 2 L 35.511719 20 L 13 20 Z M 13 2 " clip-rule="nonzero"/></clipPath><clipPath id="ff39118ef9"><path d="M 14 14 L 35.511719 14 L 35.511719 35.027344 L 14 35.027344 Z M 14 14 " clip-rule="nonzero"/></clipPath><clipPath id="3e64cf1e73"><path d="M 32 23 L 35.511719 23 L 35.511719 35.027344 L 32 35.027344 Z M 32 23 " clip-rule="nonzero"/></clipPath><clipPath id="975cfd44e7"><path d="M 8 14 L 35.511719 14 L 35.511719 35.027344 L 8 35.027344 Z M 8 14 " clip-rule="nonzero"/></clipPath><clipPath id="6a880be132"><path d="M 5 13 L 35.511719 13 L 35.511719 35.027344 L 5 35.027344 Z M 5 13 " clip-rule="nonzero"/></clipPath><clipPath id="430307ba4d"><path d="M 2 13 L 35.511719 13 L 35.511719 35.027344 L 2 35.027344 Z M 2 13 " clip-rule="nonzero"/></clipPath><clipPath id="1348a5bfae"><path d="M 20 14 L 35.511719 14 L 35.511719 35.027344 L 20 35.027344 Z M 20 14 " clip-rule="nonzero"/></clipPath></defs><g clip-path="url(#8606300fd9)"><rect x="-3.6" width="43.2" fill="#fefefe" y="-3.6" height="43.200001" fill-opacity="1"/></g><path fill="#0c2240" d="M 18.675781 0.527344 C 20.070312 0.992188 21.199219 1.652344 22.1875 2.746094 C 22.554688 3.191406 22.554688 3.191406 22.800781 3.617188 L 22.800781 4.390625 L 23.316406 4.390625 L 23.574219 5.164062 C 24.3125 5.511719 25.054688 5.800781 25.824219 6.082031 C 26.664062 6.414062 27.1875 6.710938 27.816406 7.371094 L 28.214844 7.996094 L 28.214844 8.511719 L 28.730469 8.511719 C 29.425781 10.820312 29.636719 12.996094 29.683594 15.398438 L 29.707031 16.398438 C 29.730469 17.203125 29.746094 18.007812 29.761719 18.8125 L 30.234375 18.878906 L 30.859375 18.988281 L 31.472656 19.089844 C 32.082031 19.328125 32.082031 19.328125 32.667969 19.867188 C 33.113281 20.617188 33.113281 20.617188 33.234375 21.558594 C 33.238281 21.917969 33.234375 22.277344 33.222656 22.636719 L 33.222656 23.21875 C 33.21875 23.621094 33.214844 24.023438 33.207031 24.425781 C 33.195312 25.042969 33.1875 25.660156 33.1875 26.277344 C 33.183594 26.667969 33.179688 27.058594 33.175781 27.453125 L 33.167969 28.011719 C 33.144531 29.3125 33.144531 29.3125 32.855469 29.886719 L 32.339844 29.886719 L 32.082031 30.660156 C 31.546875 30.914062 31.546875 30.914062 30.875 31.140625 C 30.003906 31.464844 29.328125 31.761719 28.632812 32.382812 C 27.957031 32.976562 27.957031 32.976562 27.515625 33.140625 C 26.703125 33.269531 25.914062 33.273438 25.089844 33.277344 L 24.535156 33.28125 C 23.933594 33.285156 23.328125 33.285156 22.722656 33.289062 L 21.460938 33.292969 C 20.578125 33.292969 19.691406 33.296875 18.808594 33.296875 C 17.679688 33.296875 16.554688 33.304688 15.425781 33.3125 C 14.554688 33.316406 13.683594 33.316406 12.8125 33.320312 C 12.398438 33.320312 11.980469 33.320312 11.566406 33.324219 C 7.496094 33.355469 7.496094 33.355469 5.785156 32.460938 L 4.75 31.433594 C 4.167969 31.179688 3.578125 30.949219 2.976562 30.742188 C 2.429688 30.402344 2.429688 30.402344 2.015625 29.722656 C 1.613281 28.75 1.558594 28.054688 1.554688 27.003906 L 1.550781 26.484375 C 1.550781 26.121094 1.554688 25.761719 1.558594 25.398438 C 1.5625 24.847656 1.558594 24.300781 1.550781 23.75 C 1.550781 23.394531 1.554688 23.042969 1.554688 22.691406 L 1.558594 21.726562 C 1.65625 20.871094 1.65625 20.871094 2.019531 20.132812 C 2.429688 19.585938 2.429688 19.585938 2.941406 19.289062 L 3.480469 19.117188 L 4.019531 18.9375 C 4.492188 18.8125 4.492188 18.8125 5.007812 18.8125 L 5.023438 18.164062 C 5.046875 17.359375 5.066406 16.554688 5.089844 15.75 C 5.105469 15.234375 5.117188 14.71875 5.128906 14.203125 C 5.257812 10 5.257812 10 6.234375 8.1875 C 7.109375 7.117188 8.035156 6.304688 9.296875 5.726562 C 10.167969 5.421875 10.167969 5.421875 11.199219 5.421875 L 11.359375 4.632812 C 11.648438 3.644531 12.109375 2.972656 12.800781 2.21875 C 14.425781 0.785156 16.550781 0.238281 18.675781 0.527344 " fill-opacity="1" fill-rule="nonzero"/><g clip-path="url(#11d85dd82f)"><path fill="#cf1b15" d="M 117.847656 134.148438 C 119.574219 135 121.304688 136.230469 122.492188 137.761719 C 123.613281 139.542969 124.441406 141.351562 124.558594 143.460938 C 124.589844 145.953125 123.875 148.09375 122.769531 150.308594 C 121.972656 151.710938 121.011719 153.007812 120.070312 154.316406 L 119.691406 154.84375 C 119.378906 155.265625 119.050781 155.675781 118.714844 156.085938 L 118.199219 156.085938 L 118.023438 156.636719 C 117.609375 157.539062 117.066406 158.140625 116.394531 158.871094 L 115.703125 159.632812 L 115.105469 160.207031 L 114.589844 160.207031 L 114.074219 161.234375 C 113.589844 161.171875 113.589844 161.171875 113.042969 160.980469 C 112.867188 160.636719 112.695312 160.292969 112.527344 159.949219 L 112.066406 159.738281 C 111.3125 159.335938 110.925781 158.8125 110.402344 158.144531 L 109.847656 157.453125 L 109.433594 156.859375 L 109.433594 156.34375 L 108.917969 156.34375 C 108.601562 155.980469 108.601562 155.980469 108.246094 155.476562 L 107.851562 154.917969 L 107.4375 154.316406 L 107.011719 153.707031 C 103.480469 148.59375 103.480469 148.59375 102.988281 145.527344 C 102.824219 143.28125 103.105469 141.5625 104.027344 139.53125 C 104.980469 137.644531 106.363281 136.199219 108.113281 135.015625 C 110.953125 133.394531 114.742188 133.039062 117.847656 134.148438 M 162.03125 89.636719 C 164.179688 90.140625 165.917969 90.972656 167.605469 92.402344 C 168.625 93.367188 169.472656 94.417969 170.285156 95.5625 L 170.660156 96.078125 C 172.289062 98.605469 172.671875 102.152344 172.863281 105.089844 C 173.5 104.730469 173.5 104.730469 174.152344 104.0625 C 174.949219 102.574219 175.316406 101.097656 175.441406 99.425781 C 175.910156 99.492188 175.910156 99.492188 176.472656 99.683594 C 177.09375 100.382812 177.546875 101.195312 178.019531 102 L 178.378906 102.609375 C 179.546875 104.761719 180.105469 107.054688 180.179688 109.5 C 180.109375 111.753906 179.496094 113.6875 178.375 115.632812 C 177.105469 117.535156 175.519531 118.546875 173.503906 119.589844 C 172.4375 120.085938 171.464844 120.421875 170.285156 120.542969 L 170.285156 120.027344 L 170.800781 120.027344 L 170.800781 119.511719 L 171.394531 118.964844 C 172.046875 118.269531 172.433594 117.699219 172.730469 116.792969 C 173.054688 115.246094 173.125 113.617188 172.628906 112.105469 C 172.453125 111.710938 172.261719 111.320312 172.054688 110.9375 C 171.832031 110.5 171.832031 110.5 171.832031 109.984375 L 171.316406 109.984375 L 171.230469 110.445312 C 170.992188 111.636719 170.742188 112.582031 170.027344 113.589844 C 169.558594 113.527344 169.558594 113.527344 168.996094 113.332031 C 168.019531 112.273438 167.761719 110.984375 167.394531 109.625 C 166.929688 107.527344 167.183594 105.859375 167.792969 103.816406 L 167.964844 103.289062 C 166.308594 104.078125 165.148438 105.128906 164.09375 106.636719 C 163.105469 108.710938 162.65625 110.785156 162.804688 113.074219 C 162.949219 114.027344 163.125 114.96875 163.320312 115.90625 C 162.722656 115.84375 162.722656 115.84375 162.03125 115.648438 C 161.644531 115.183594 161.644531 115.183594 161.339844 114.621094 C 161.148438 114.273438 160.949219 113.929688 160.742188 113.589844 L 160.226562 113.332031 C 159.925781 114.839844 159.816406 116.238281 160.148438 117.742188 C 160.570312 118.664062 161.097656 119.277344 161.773438 120.027344 L 161.515625 120.542969 C 159.027344 119.5 157.121094 118.160156 155.328125 116.164062 C 154.695312 115.257812 154.21875 114.347656 153.78125 113.332031 L 153.519531 112.800781 C 152.675781 110.828125 152.8125 108.476562 153.007812 106.378906 C 153.507812 103.421875 154.820312 101.15625 156.699219 98.863281 C 156.925781 98.621094 157.15625 98.382812 157.390625 98.136719 L 157.90625 98.136719 L 157.859375 98.878906 C 157.863281 100.128906 158.128906 101.390625 158.679688 102.515625 C 159.199219 102.855469 159.199219 102.855469 159.710938 103.03125 L 159.96875 102 L 160.484375 102 L 160.679688 101.5 C 160.859375 101.0625 161.042969 100.621094 161.246094 100.191406 C 162.324219 97.902344 162.738281 95.78125 162.546875 93.242188 C 162.4375 92.632812 162.304688 92.027344 162.148438 91.429688 C 162.007812 90.824219 161.992188 90.257812 162.03125 89.636719 M 14.304688 6.855469 L 15.042969 6.851562 C 15.550781 6.847656 16.0625 6.847656 16.574219 6.851562 C 17.351562 6.851562 18.125 6.84375 18.898438 6.835938 C 19.398438 6.835938 19.898438 6.835938 20.398438 6.835938 L 21.089844 6.828125 C 22.742188 6.847656 24.191406 7.167969 25.636719 7.996094 C 26.367188 8.734375 27.003906 9.492188 27.324219 10.496094 C 27.476562 11.269531 27.507812 12.023438 27.542969 12.808594 L 27.566406 13.328125 C 27.589844 13.890625 27.613281 14.457031 27.636719 15.019531 L 27.6875 16.199219 C 27.722656 17.023438 27.757812 17.847656 27.792969 18.671875 C 27.835938 19.726562 27.878906 20.777344 27.925781 21.832031 C 28 23.578125 28.074219 25.320312 28.148438 27.066406 L 28.1875 28.003906 L 28.214844 28.855469 L 28.25 29.710938 L 28.214844 30.402344 L 27.699219 30.917969 L 26.667969 30.917969 C 26.347656 29.203125 26.386719 27.503906 26.410156 25.765625 L 25.882812 25.792969 L 25.183594 25.816406 L 24.496094 25.839844 C 23.832031 25.765625 23.832031 25.765625 23.230469 25.410156 L 22.800781 24.992188 L 22.800781 24.480469 L 11.972656 24.734375 L 11.457031 27.054688 L 9.910156 27.054688 L 9.910156 25.765625 L 8.363281 25.765625 L 8.363281 30.917969 L 6.816406 30.660156 L 6.816406 30.144531 L 6.300781 30.144531 C 6.273438 28.558594 6.273438 28.558594 6.300781 28.085938 L 6.558594 27.828125 C 6.621094 27.128906 6.667969 26.433594 6.703125 25.734375 L 6.734375 25.082031 C 6.828125 23.078125 6.832031 21.078125 6.804688 19.070312 C 6.792969 17.777344 6.847656 16.527344 7.007812 15.242188 C 7.070312 14.699219 7.105469 14.164062 7.125 13.617188 L 7.148438 13.097656 C 7.164062 12.75 7.175781 12.40625 7.183594 12.058594 C 7.238281 10.871094 7.484375 10.039062 8.105469 9.027344 C 9.90625 7.226562 11.835938 6.84375 14.304688 6.855469 " fill-opacity="1" fill-rule="nonzero"/></g><g clip-path="url(#fcd7ef7d6f)"><path fill="#193049" d="M 11.972656 24.480469 C 12.757812 24.441406 13.539062 24.421875 14.328125 24.417969 L 15.050781 24.410156 C 15.554688 24.40625 16.058594 24.40625 16.5625 24.402344 C 17.332031 24.398438 18.101562 24.386719 18.875 24.375 C 19.363281 24.371094 19.851562 24.371094 20.339844 24.367188 L 21.039062 24.355469 C 21.644531 24.355469 22.207031 24.367188 22.800781 24.480469 C 23.386719 24.988281 23.386719 24.988281 23.832031 25.507812 C 24.496094 25.6875 24.496094 25.6875 25.183594 25.703125 L 25.882812 25.746094 L 26.410156 25.765625 C 26.527344 26.652344 26.628906 27.535156 26.734375 28.421875 L 26.832031 29.183594 L 26.914062 29.917969 L 26.996094 30.589844 L 26.925781 31.175781 C 26.457031 31.640625 26.070312 31.890625 25.441406 32.09375 C 24.714844 32.234375 24.027344 32.242188 23.289062 32.25 L 22.324219 32.261719 C 21.976562 32.261719 21.628906 32.265625 21.28125 32.265625 L 20.75 32.269531 C 19.820312 32.273438 18.890625 32.277344 17.957031 32.28125 C 17.003906 32.285156 16.046875 32.292969 15.089844 32.304688 C 14.351562 32.308594 13.609375 32.3125 12.871094 32.3125 C 12.519531 32.3125 12.167969 32.316406 11.8125 32.320312 C 8.722656 32.359375 8.722656 32.359375 7.355469 31.683594 C 7.09375 31.515625 6.828125 31.347656 6.558594 31.175781 L 6.558594 30.917969 L 8.363281 30.917969 L 8.363281 25.765625 L 9.910156 25.765625 L 9.910156 27.054688 L 11.457031 27.054688 C 11.480469 26.808594 11.480469 26.808594 11.503906 26.554688 L 11.570312 25.910156 C 11.589844 25.699219 11.609375 25.488281 11.632812 25.269531 L 11.714844 24.734375 Z M 102.214844 109.210938 C 103.324219 109.613281 104.253906 110.210938 105.179688 110.933594 C 105.832031 111.402344 106.230469 111.574219 107.03125 111.820312 C 108.300781 111.910156 109.359375 111.371094 110.496094 110.863281 C 111.113281 110.5625 111.707031 110.238281 112.300781 109.902344 C 113.285156 109.402344 114.152344 109.335938 115.25 109.386719 C 116.875 109.597656 118.121094 110.289062 119.425781 111.25 C 120.289062 111.667969 121.117188 111.832031 122.066406 111.789062 C 122.824219 111.550781 123.488281 111.195312 124.179688 110.804688 C 124.53125 110.617188 124.882812 110.425781 125.238281 110.238281 L 125.738281 109.964844 C 126.488281 109.570312 127.175781 109.242188 128.027344 109.152344 C 128.960938 109.226562 129.625 109.355469 130.425781 109.863281 C 130.851562 110.183594 131.277344 110.503906 131.699219 110.828125 C 132.785156 111.535156 133.957031 111.792969 135.21875 112.042969 C 135.222656 112.425781 135.230469 112.808594 135.234375 113.1875 L 135.242188 113.832031 L 135.21875 114.363281 L 134.960938 114.621094 C 133.890625 114.738281 133.1875 114.738281 132.1875 114.332031 C 131.554688 114.015625 130.933594 113.683594 130.320312 113.332031 L 130.320312 112.816406 C 129.253906 112.558594 128.316406 112.453125 127.226562 112.558594 C 126.550781 112.84375 125.914062 113.164062 125.273438 113.515625 C 124.238281 114.066406 123.230469 114.457031 122.066406 114.621094 L 121.183594 114.75 C 119.472656 114.75 117.855469 113.621094 116.394531 112.816406 L 116.394531 112.300781 C 115.097656 112.207031 114.105469 112.164062 112.914062 112.738281 C 112.613281 112.933594 112.3125 113.128906 112.011719 113.332031 C 111.179688 113.886719 110.394531 114.320312 109.433594 114.621094 C 107.769531 114.707031 106.207031 114.652344 104.675781 113.960938 L 104.019531 113.589844 L 104.019531 113.074219 L 102.730469 112.816406 L 102.730469 112.300781 C 101.875 112.203125 101.25 112.160156 100.410156 112.300781 C 99.644531 112.703125 98.964844 113.15625 98.261719 113.660156 C 97.523438 114.136719 96.875 114.398438 96.027344 114.621094 C 95.042969 114.539062 95.042969 114.539062 94.222656 114.363281 L 93.964844 114.105469 C 93.925781 113.417969 93.953125 112.734375 93.964844 112.042969 L 94.617188 111.875 C 96.332031 111.390625 97.734375 110.863281 99.171875 109.796875 C 100.148438 109.109375 101.054688 109.117188 102.214844 109.210938 " fill-opacity="1" fill-rule="nonzero"/></g><path fill="#fefefe" d="M 14.304688 6.855469 L 15.042969 6.851562 C 15.550781 6.847656 16.0625 6.847656 16.574219 6.851562 C 17.351562 6.851562 18.125 6.84375 18.898438 6.835938 C 19.398438 6.835938 19.898438 6.835938 20.398438 6.835938 L 21.089844 6.828125 C 22.742188 6.847656 24.191406 7.167969 25.636719 7.996094 C 26.367188 8.734375 27.003906 9.492188 27.324219 10.496094 C 27.476562 11.269531 27.507812 12.023438 27.542969 12.808594 L 27.566406 13.328125 C 27.589844 13.890625 27.613281 14.457031 27.636719 15.019531 L 27.6875 16.199219 C 27.722656 17.023438 27.757812 17.847656 27.792969 18.671875 C 27.835938 19.726562 27.878906 20.777344 27.925781 21.832031 C 28 23.578125 28.074219 25.320312 28.148438 27.066406 L 28.1875 28.003906 L 28.214844 28.855469 L 28.25 29.710938 L 28.214844 30.402344 L 27.699219 30.917969 L 26.667969 30.917969 C 26.582031 30.058594 26.496094 29.199219 26.410156 28.339844 C 26.386719 28.101562 26.359375 27.859375 26.335938 27.613281 C 26.230469 26.539062 26.136719 25.480469 26.152344 24.398438 C 26.179688 23.484375 26.179688 23.484375 26.027344 22.75 C 25.871094 21.75 25.84375 20.761719 25.832031 19.75 L 25.804688 18.492188 C 25.792969 17.839844 25.78125 17.1875 25.773438 16.535156 C 25.761719 15.898438 25.75 15.265625 25.734375 14.628906 L 25.726562 14.050781 C 25.695312 12.691406 25.585938 11.34375 25.121094 10.054688 C 24.6875 9.507812 24.6875 9.507812 24.089844 9.285156 C 21.898438 8.769531 19.414062 8.976562 17.171875 8.976562 C 16.546875 8.976562 15.917969 8.972656 15.289062 8.96875 C 14.886719 8.96875 14.484375 8.964844 14.078125 8.964844 L 13.519531 8.960938 C 12.292969 8.964844 11.3125 9.148438 10.167969 9.539062 C 9.660156 9.832031 9.660156 9.832031 9.394531 10.3125 C 9.152344 11.46875 9.082031 12.605469 9.035156 13.785156 L 9.011719 14.347656 C 8.988281 14.957031 8.964844 15.570312 8.941406 16.179688 L 8.890625 17.453125 C 8.84375 18.570312 8.800781 19.683594 8.757812 20.800781 C 8.714844 21.9375 8.667969 23.078125 8.625 24.21875 C 8.535156 26.449219 8.449219 28.683594 8.363281 30.917969 L 6.816406 30.660156 L 6.816406 30.144531 L 6.300781 30.144531 C 6.273438 28.558594 6.273438 28.558594 6.300781 28.085938 L 6.558594 27.828125 C 6.621094 27.128906 6.667969 26.433594 6.703125 25.734375 L 6.734375 25.082031 C 6.828125 23.078125 6.832031 21.078125 6.804688 19.070312 C 6.792969 17.777344 6.847656 16.527344 7.007812 15.242188 C 7.070312 14.699219 7.105469 14.164062 7.125 13.617188 L 7.148438 13.097656 C 7.164062 12.75 7.175781 12.40625 7.183594 12.058594 C 7.238281 10.871094 7.484375 10.039062 8.105469 9.027344 C 9.90625 7.226562 11.835938 6.84375 14.304688 6.855469 " fill-opacity="1" fill-rule="nonzero"/><path fill="#fefefe" d="M 16.097656 11.601562 C 16.476562 11.59375 16.859375 11.589844 17.242188 11.585938 L 17.882812 11.574219 L 18.417969 11.601562 L 18.675781 11.859375 C 18.710938 12.890625 18.6875 13.917969 18.675781 14.949219 L 21.769531 14.949219 L 21.769531 17.265625 L 18.933594 17.523438 L 18.675781 20.359375 L 16.097656 20.359375 L 15.839844 17.265625 L 13.003906 17.265625 L 13.003906 14.949219 L 15.839844 14.949219 L 15.824219 13.566406 C 15.808594 12.179688 15.808594 12.179688 16.097656 11.601562 " fill-opacity="1" fill-rule="nonzero"/><g clip-path="url(#7ea28073de)"><path fill="#0c2240" d="M 185.496094 30.144531 C 186.097656 30.132812 186.699219 30.132812 187.300781 30.144531 L 187.558594 30.402344 C 187.570312 31.003906 187.570312 31.605469 187.558594 32.203125 C 186.878906 32.546875 186.367188 32.496094 185.605469 32.496094 L 184.675781 32.5 L 183.65625 32.5 L 182.582031 32.503906 C 181.613281 32.503906 180.640625 32.503906 179.667969 32.503906 C 178.855469 32.503906 178.046875 32.507812 177.234375 32.507812 C 175.324219 32.507812 173.410156 32.511719 171.5 32.511719 C 169.527344 32.511719 167.550781 32.511719 165.578125 32.515625 C 163.882812 32.519531 162.191406 32.523438 160.496094 32.519531 C 159.484375 32.519531 158.472656 32.523438 157.460938 32.523438 C 156.507812 32.527344 155.558594 32.527344 154.605469 32.527344 C 154.089844 32.523438 153.570312 32.527344 153.054688 32.53125 L 152.125 32.527344 L 151.316406 32.527344 L 150.6875 32.460938 L 150.171875 31.949219 C 150.140625 31.140625 150.140625 31.140625 150.171875 30.402344 L 150.6875 30.917969 L 150.6875 31.691406 L 186.527344 31.433594 L 186.785156 30.402344 L 185.496094 30.402344 Z M 5.785156 137.285156 C 6.214844 137.273438 6.644531 137.273438 7.074219 137.285156 L 7.074219 138.058594 L 7.589844 138.058594 L 7.636719 138.585938 L 7.699219 139.28125 C 7.722656 139.507812 7.742188 139.734375 7.765625 139.96875 C 7.835938 140.542969 7.949219 141.105469 8.105469 141.664062 L 8.636719 141.726562 C 9.617188 141.976562 10.332031 142.425781 11.199219 142.949219 C 10.84375 143.335938 10.84375 143.335938 10.425781 143.722656 L 9.910156 143.722656 L 10.425781 144.753906 C 9.511719 144.484375 8.792969 144.1875 8.023438 143.644531 C 7.578125 143.351562 7.578125 143.351562 7.074219 143.207031 C 5.894531 143.378906 4.960938 143.84375 3.976562 144.496094 C 3.445312 144.429688 3.445312 144.429688 2.945312 144.238281 L 2.429688 143.722656 C 2.480469 143.207031 2.480469 143.207031 2.6875 142.691406 L 3.460938 142.179688 L 4.234375 142.179688 L 4.234375 141.40625 L 3.496094 141.226562 L 2.6875 140.890625 C 2.335938 140.214844 2.335938 140.214844 2.171875 139.601562 L 2.6875 139.085938 C 3.765625 139.167969 4.582031 139.351562 5.527344 139.859375 L 5.515625 139.363281 L 5.5 138.074219 L 5.527344 137.542969 Z M 18.417969 137.285156 C 19.0625 137.253906 19.0625 137.253906 19.707031 137.285156 L 19.964844 137.542969 C 19.984375 137.933594 19.984375 138.324219 19.980469 138.71875 L 19.972656 139.363281 L 19.964844 139.859375 L 20.378906 139.625 L 20.929688 139.328125 L 21.476562 139.03125 C 22.027344 138.828125 22.027344 138.828125 22.609375 138.925781 L 23.058594 139.085938 L 23.316406 140.375 C 21.957031 141.179688 21.957031 141.179688 21.511719 141.40625 L 20.996094 141.40625 L 20.996094 141.921875 L 21.59375 142.144531 C 22.285156 142.433594 22.285156 142.433594 23.058594 142.949219 C 22.992188 143.433594 22.992188 143.433594 22.800781 143.980469 C 22.351562 144.3125 22.351562 144.3125 21.769531 144.496094 C 21.140625 144.253906 21.140625 144.253906 20.480469 143.867188 C 19.835938 143.476562 19.835938 143.476562 19.191406 143.207031 C 18.234375 143.28125 17.394531 143.824219 16.546875 144.253906 L 15.707031 144.683594 L 15.066406 145.011719 L 14.550781 144.496094 L 15.324219 143.722656 L 14.808594 142.691406 L 15.34375 142.480469 C 16.144531 142.101562 16.738281 141.753906 17.386719 141.148438 C 17.828125 139.960938 17.988281 138.789062 18.160156 137.542969 Z M 135.734375 30.660156 C 136.21875 30.589844 136.21875 30.589844 136.765625 30.59375 L 137.3125 30.589844 L 137.796875 30.660156 L 138.3125 31.175781 C 138.230469 31.835938 138.230469 31.835938 138.054688 32.460938 L 137.796875 32.71875 C 137.285156 32.746094 136.773438 32.753906 136.257812 32.753906 L 132.953125 32.753906 C 131.890625 32.753906 130.824219 32.753906 129.761719 32.753906 C 128.648438 32.753906 127.539062 32.753906 126.425781 32.753906 C 124.558594 32.753906 122.691406 32.753906 120.828125 32.753906 C 118.664062 32.753906 116.503906 32.753906 114.34375 32.753906 C 112.488281 32.753906 110.636719 32.753906 108.785156 32.753906 C 107.675781 32.753906 106.570312 32.753906 105.460938 32.753906 C 104.421875 32.753906 103.378906 32.753906 102.339844 32.753906 C 101.957031 32.753906 101.570312 32.753906 101.1875 32.753906 C 100.667969 32.753906 100.148438 32.753906 99.625 32.753906 L 98.742188 32.753906 L 98.089844 32.71875 L 97.832031 32.460938 C 97.820312 31.949219 97.820312 31.433594 97.832031 30.917969 C 98.582031 31.195312 99.0625 31.375 99.636719 31.949219 C 100.238281 32.023438 100.238281 32.023438 100.949219 32.011719 L 101.792969 32.015625 L 102.722656 32.011719 L 103.699219 32.011719 C 104.585938 32.011719 105.46875 32.011719 106.355469 32.007812 C 107.28125 32.003906 108.210938 32.007812 109.140625 32.007812 C 110.703125 32.007812 112.265625 32.003906 113.824219 32 C 115.625 31.996094 117.425781 31.996094 119.222656 31.996094 C 121.144531 31.996094 123.066406 31.992188 124.984375 31.992188 C 125.535156 31.992188 126.085938 31.992188 126.636719 31.992188 C 127.667969 31.988281 128.703125 31.988281 129.734375 31.984375 L 130.648438 31.984375 C 132.527344 31.976562 134.378906 31.875 136.25 31.691406 L 135.21875 31.175781 Z M 135.734375 30.660156 " fill-opacity="1" fill-rule="nonzero"/></g><g clip-path="url(#11603d14fb)"><path fill="#fefefe" d="M 107.628906 13.917969 C 107.996094 13.898438 108.359375 13.890625 108.726562 13.894531 L 109.394531 13.894531 L 110.09375 13.902344 L 110.800781 13.90625 C 111.375 13.910156 111.953125 13.914062 112.527344 13.917969 C 112.535156 14.644531 112.539062 15.367188 112.542969 16.09375 L 112.550781 16.71875 C 112.554688 17.246094 112.542969 17.769531 112.527344 18.296875 L 112.269531 18.554688 C 111.25 18.621094 110.230469 18.601562 109.207031 18.601562 L 108.335938 18.613281 L 107.503906 18.613281 L 106.734375 18.617188 C 106.082031 18.554688 106.082031 18.554688 105.308594 18.039062 C 105.449219 16.945312 105.820312 16.285156 106.46875 15.398438 L 106.960938 14.71875 C 107.371094 14.175781 107.371094 14.175781 107.628906 13.917969 M 10.425781 22.933594 C 10.859375 22.910156 11.296875 22.902344 11.730469 22.902344 L 12.578125 22.902344 L 13.496094 22.90625 L 14.429688 22.910156 C 15.421875 22.910156 16.410156 22.914062 17.402344 22.917969 C 18.070312 22.917969 18.742188 22.917969 19.410156 22.921875 C 21.054688 22.921875 22.703125 22.929688 24.347656 22.933594 L 24.347656 25.765625 L 23.058594 25.25 L 22.800781 24.480469 L 11.972656 24.734375 L 11.457031 27.054688 L 9.910156 27.054688 C 9.886719 25.734375 9.925781 24.496094 10.167969 23.191406 Z M 10.425781 22.933594 " fill-opacity="1" fill-rule="nonzero"/></g><g clip-path="url(#3b89e2f85f)"><path fill="#fefefe" d="M 214.632812 12.632812 L 215.148438 13.917969 C 214.746094 14.371094 214.433594 14.664062 213.875 14.910156 L 212.8125 15.246094 C 212.226562 15.5 211.933594 15.738281 211.539062 16.238281 C 211.320312 16.828125 211.164062 17.417969 211.007812 18.023438 C 210.925781 18.199219 210.847656 18.375 210.765625 18.554688 C 210.222656 18.882812 210.222656 18.882812 209.734375 19.070312 L 208.703125 18.296875 C 208.820312 16.925781 208.945312 15.859375 209.734375 14.691406 C 211.234375 13.332031 212.5625 12.535156 214.632812 12.632812 M 17.128906 2.425781 C 18.105469 2.476562 18.875 2.589844 19.738281 3.054688 C 20.480469 3.617188 20.480469 3.617188 20.996094 4.390625 L 20.996094 5.421875 L 13.261719 5.421875 C 13.75 4.195312 14.019531 3.683594 15 2.890625 C 15.734375 2.507812 16.300781 2.453125 17.128906 2.425781 " fill-opacity="1" fill-rule="nonzero"/></g><g clip-path="url(#ff39118ef9)"><path fill="#0c2240" d="M 125.164062 16.238281 C 125.894531 16.488281 126.394531 16.699219 126.957031 17.238281 C 128.109375 18.039062 129.332031 18.25 130.6875 18.554688 C 131.246094 18.6875 131.804688 18.820312 132.363281 18.953125 L 133.175781 19.148438 C 134.136719 19.378906 135.089844 19.628906 136.039062 19.890625 L 136.839844 20.109375 C 137.582031 20.375 138.1875 20.675781 138.828125 21.128906 C 139.039062 21.824219 139.039062 21.824219 139.085938 22.417969 L 138.457031 22.289062 C 137.867188 22.152344 137.867188 22.152344 137.539062 22.160156 L 137.28125 22.675781 L 137.023438 22.417969 C 136.15625 22.34375 135.289062 22.300781 134.421875 22.257812 L 133.671875 22.160156 L 133.414062 21.644531 L 134.445312 21.386719 L 134.445312 20.871094 L 133.929688 20.617188 L 133.671875 20.101562 C 133.140625 19.902344 132.601562 19.726562 132.058594 19.570312 L 131.167969 19.300781 C 130.457031 19.109375 129.753906 18.953125 129.03125 18.8125 C 127.601562 18.421875 126.585938 17.816406 125.484375 16.832031 L 125.164062 16.496094 Z M 93.707031 14.433594 C 94.222656 14.410156 94.738281 14.40625 95.253906 14.410156 L 96.203125 14.410156 L 97.203125 14.417969 L 98.207031 14.421875 C 99.027344 14.425781 99.847656 14.429688 100.667969 14.433594 L 100.667969 16.238281 L 93.707031 16.238281 L 93.449219 14.691406 Z M 34.660156 102.515625 C 35.210938 102.5 35.757812 102.492188 36.304688 102.484375 L 37.230469 102.464844 L 38.011719 102.515625 L 38.527344 103.03125 C 38.574219 103.664062 38.59375 104.296875 38.589844 104.929688 L 38.589844 105.5 C 38.585938 105.894531 38.585938 106.289062 38.582031 106.6875 C 38.578125 107.292969 38.578125 107.902344 38.578125 108.511719 C 38.574219 108.894531 38.574219 109.277344 38.570312 109.664062 L 38.570312 110.21875 C 38.566406 110.65625 38.550781 111.09375 38.527344 111.53125 L 38.269531 111.789062 C 37.621094 111.847656 36.972656 111.894531 36.320312 111.933594 L 35.765625 111.964844 C 35.3125 111.992188 34.859375 112.019531 34.402344 112.042969 L 34.144531 111.273438 C 35.109375 111.125 36.003906 111.015625 36.980469 111.015625 C 37.71875 107.136719 37.71875 107.136719 37.238281 103.289062 L 34.660156 102.773438 Z M 16.355469 141.921875 C 16.96875 142.128906 16.96875 142.128906 17.386719 142.433594 L 17.386719 142.691406 L 18.082031 142.515625 L 18.996094 142.289062 L 19.902344 142.0625 C 20.738281 141.921875 20.738281 141.921875 21.316406 142 C 21.945312 142.246094 22.492188 142.589844 23.058594 142.949219 C 22.992188 143.433594 22.992188 143.433594 22.800781 143.980469 C 22.351562 144.3125 22.351562 144.3125 21.769531 144.496094 C 21.140625 144.253906 21.140625 144.253906 20.480469 143.867188 C 19.835938 143.476562 19.835938 143.476562 19.191406 143.207031 C 18.234375 143.28125 17.394531 143.824219 16.546875 144.253906 L 15.707031 144.683594 L 15.066406 145.011719 L 14.550781 144.496094 L 15.324219 143.722656 L 14.808594 142.691406 C 15.515625 142.273438 15.515625 142.273438 16.355469 141.921875 " fill-opacity="1" fill-rule="nonzero"/></g><g clip-path="url(#3e64cf1e73)"><path fill="#0c2240" d="M 133.15625 117.453125 L 135.21875 117.96875 C 135.222656 118.347656 135.230469 118.730469 135.234375 119.109375 L 135.242188 119.753906 L 135.21875 120.285156 L 134.960938 120.542969 C 134.574219 120.566406 134.191406 120.574219 133.808594 120.570312 L 133.105469 120.566406 L 132.367188 120.558594 L 131.625 120.554688 C 131.015625 120.554688 130.410156 120.550781 129.804688 120.542969 L 129.546875 120.027344 L 133.929688 119.769531 L 134.1875 118.226562 L 133.15625 117.710938 Z M 33.371094 145.785156 C 33.984375 145.707031 33.984375 145.707031 34.691406 145.734375 L 35.40625 145.757812 L 35.949219 145.785156 L 36.207031 147.585938 C 35.109375 147.886719 34.226562 147.78125 33.113281 147.585938 C 32.953125 147.121094 32.953125 147.121094 32.855469 146.554688 Z M 33.371094 138.570312 C 34.042969 138.496094 34.042969 138.496094 34.820312 138.523438 L 35.605469 138.546875 L 36.207031 138.570312 L 36.207031 140.375 L 33.113281 140.375 L 32.855469 139.34375 Z M 57.351562 116.164062 L 59.671875 117.453125 L 59.671875 117.96875 C 62.472656 118.972656 65.242188 119.171875 68.179688 118.742188 L 67.921875 119.257812 C 66.234375 119.796875 64.640625 120.003906 62.890625 119.632812 C 60.777344 119.039062 58.953125 118.199219 57.351562 116.679688 Z M 92.160156 23.707031 C 92.582031 23.683594 93.007812 23.671875 93.433594 23.671875 L 94.132812 23.671875 C 94.738281 23.707031 94.738281 23.707031 95.253906 23.964844 C 95.265625 24.390625 95.261719 24.820312 95.253906 25.25 L 94.996094 25.507812 C 94.570312 25.535156 94.148438 25.542969 93.722656 25.539062 L 93.023438 25.542969 C 92.417969 25.507812 92.417969 25.507812 91.902344 25.25 C 91.890625 24.820312 91.890625 24.394531 91.902344 23.964844 Z M 92.160156 23.707031 " fill-opacity="1" fill-rule="nonzero"/></g><path fill="#fefefe" d="M 30.019531 24.734375 L 31.308594 25.25 C 31.316406 25.707031 31.320312 26.164062 31.324219 26.621094 L 31.335938 27.390625 C 31.308594 28.085938 31.308594 28.085938 31.050781 28.855469 C 30.519531 29.035156 30.519531 29.035156 30.019531 29.113281 C 29.96875 28.53125 29.921875 27.945312 29.875 27.359375 L 29.792969 26.371094 C 29.761719 25.507812 29.761719 25.507812 30.019531 24.734375 " fill-opacity="1" fill-rule="nonzero"/><g clip-path="url(#975cfd44e7)"><path fill="#0c2240" d="M 102.988281 158.402344 L 103.503906 158.660156 L 103.101562 159.078125 C 102.667969 159.683594 102.667969 159.683594 102.714844 160.464844 C 102.933594 161.277344 102.933594 161.277344 103.617188 161.800781 C 104.585938 162.292969 105.503906 162.574219 106.554688 162.832031 L 107.113281 163.039062 L 107.628906 163.8125 C 105.78125 163.65625 104.308594 163.011719 102.730469 162.058594 C 102.214844 161.492188 102.214844 161.492188 101.941406 160.609375 L 101.957031 159.691406 C 102.457031 158.933594 102.457031 158.933594 102.988281 158.402344 M 106.082031 14.691406 L 106.855469 14.691406 C 106.59375 15.398438 106.316406 16.015625 105.921875 16.65625 L 105.566406 17.265625 L 105.566406 18.039062 C 106.242188 18.378906 106.785156 18.351562 107.542969 18.378906 L 108.417969 18.410156 L 109.335938 18.441406 L 110.261719 18.476562 C 111.015625 18.503906 111.773438 18.53125 112.527344 18.554688 L 112.527344 18.8125 C 111.433594 18.828125 110.335938 18.835938 109.242188 18.84375 L 108.296875 18.859375 L 107.390625 18.863281 L 106.558594 18.871094 C 105.828125 18.8125 105.410156 18.671875 104.792969 18.296875 C 104.875 17.109375 104.964844 16.394531 105.535156 15.335938 Z M 174.410156 153.253906 L 175.183594 153.253906 C 175.128906 153.808594 175.128906 153.808594 174.925781 154.539062 C 174.398438 155.238281 174.398438 155.238281 173.730469 155.925781 L 173.078125 156.621094 C 172.835938 156.785156 172.59375 156.949219 172.347656 157.117188 C 171.414062 157.101562 171.414062 157.101562 170.542969 156.859375 C 169.925781 156.492188 169.519531 156.070312 168.996094 155.570312 C 169.769531 155.570312 169.769531 155.570312 170.527344 155.988281 L 171.316406 156.34375 C 171.863281 156.242188 171.863281 156.242188 172.347656 155.828125 L 173.152344 155.230469 C 173.917969 154.601562 173.917969 154.601562 174.246094 153.816406 Z M 164.871094 138.828125 C 166.4375 139.292969 167.703125 140.019531 168.898438 141.132812 C 169.539062 141.820312 169.761719 142.152344 170.027344 143.078125 L 170.027344 143.722656 L 168.996094 142.433594 L 168.398438 141.648438 C 167.53125 140.699219 166.667969 140.113281 165.429688 139.703125 C 164.699219 139.570312 164 139.578125 163.257812 139.585938 L 162.414062 139.59375 L 161.773438 139.601562 L 161.515625 139.085938 C 162.65625 138.707031 163.679688 138.6875 164.871094 138.828125 M 161 158.660156 L 161.257812 159.175781 C 161.960938 159.257812 162.636719 159.308594 163.339844 159.335938 L 163.929688 159.367188 C 164.414062 159.390625 164.898438 159.414062 165.386719 159.433594 L 165.644531 158.660156 L 166.417969 158.917969 L 166.417969 159.949219 C 164.667969 160.257812 162.707031 160.515625 161 159.949219 Z M 179.308594 70.320312 L 179.824219 70.320312 C 179.6875 71.691406 179.273438 72.777344 178.535156 73.925781 C 177.570312 75.097656 176.601562 75.917969 175.183594 76.503906 L 175.183594 75.730469 C 175.589844 75.378906 175.589844 75.378906 176.132812 75.023438 C 177.183594 74.269531 177.910156 73.515625 178.535156 72.382812 C 178.832031 71.703125 179.074219 71.027344 179.308594 70.320312 M 161.257812 59.761719 L 162.03125 60.019531 L 162.03125 60.535156 L 162.46875 60.734375 C 163.378906 61.21875 164.183594 61.84375 165.015625 62.453125 C 165.59375 62.820312 166.003906 62.996094 166.675781 63.109375 L 166.675781 63.625 L 167.164062 63.765625 L 167.800781 63.964844 L 168.4375 64.152344 L 168.996094 64.398438 L 169.511719 65.171875 C 166.519531 64.242188 163.898438 62.742188 161.585938 60.644531 L 161.257812 60.277344 Z M 10.941406 151.964844 L 11.457031 152.222656 C 11.101562 152.738281 11.101562 152.738281 10.683594 153.253906 L 10.167969 153.253906 L 10.167969 154.023438 L 11.714844 153.765625 L 11.714844 154.28125 C 11.019531 154.683594 11.019531 154.683594 10.167969 155.054688 C 9.425781 154.976562 9.425781 154.976562 8.878906 154.796875 L 8.621094 153.765625 Z M 170.800781 135.222656 C 171.617188 135.289062 172.121094 135.5 172.835938 135.914062 L 173.585938 136.449219 L 174.351562 136.972656 L 174.925781 137.542969 C 175.046875 138.207031 175.046875 138.207031 174.925781 138.828125 C 174.28125 139.554688 174.28125 139.554688 173.636719 140.117188 L 173.378906 139.601562 L 173.636719 139.136719 C 173.9375 138.578125 173.9375 138.578125 173.894531 137.929688 C 173.667969 137.222656 173.667969 137.222656 172.976562 136.703125 C 171.929688 136.171875 171.1875 136.078125 170.027344 135.996094 C 170.332031 135.59375 170.332031 135.59375 170.800781 135.222656 M 201.222656 115.394531 L 201.554688 115.839844 C 201.984375 116.40625 202.425781 116.957031 202.882812 117.5 L 203.335938 118.042969 C 203.773438 118.507812 203.773438 118.507812 204.332031 118.695312 L 204.835938 118.742188 C 205.535156 118.425781 205.535156 118.425781 206.125 117.96875 L 206.382812 117.453125 L 207.15625 117.453125 C 206.992188 117.902344 206.992188 117.902344 206.640625 118.484375 C 205.914062 119.078125 205.914062 119.078125 205.09375 119.511719 C 204.480469 119.488281 204.480469 119.488281 203.800781 119.257812 C 203.121094 118.703125 203.121094 118.703125 202.449219 118.015625 L 201.769531 117.335938 C 201.222656 116.679688 201.222656 116.679688 201.003906 116.097656 L 200.964844 115.648438 Z M 201.222656 115.394531 " fill-opacity="1" fill-rule="nonzero"/></g><path fill="#fefefe" d="M 3.71875 24.734375 L 4.75 24.992188 L 4.75 29.113281 L 3.71875 28.597656 Z M 3.71875 24.734375 " fill-opacity="1" fill-rule="nonzero"/><g clip-path="url(#6a880be132)"><path fill="#0c2240" d="M 59.414062 134.964844 C 59.996094 135.03125 59.996094 135.03125 60.703125 135.222656 C 62.359375 136.59375 63.375 138.476562 64.3125 140.375 C 63.84375 140.195312 63.84375 140.195312 63.28125 139.859375 C 62.894531 139.300781 62.894531 139.300781 62.539062 138.636719 C 61.871094 137.464844 61.207031 136.621094 60.1875 135.738281 L 59.414062 135.480469 Z M 165.902344 55.125 C 166.53125 55.191406 167.144531 55.273438 167.769531 55.367188 C 168.964844 55.546875 170.105469 55.671875 171.316406 55.640625 L 171.316406 56.15625 C 169.320312 56.183594 167.367188 56.148438 165.386719 55.898438 L 165.386719 56.414062 L 164.613281 56.15625 C 165.03125 55.71875 165.351562 55.402344 165.902344 55.125 M 60.445312 27.3125 L 61.347656 27.441406 C 63.1875 27.648438 65.042969 27.589844 66.890625 27.570312 C 66.640625 27.949219 66.640625 27.949219 66.117188 28.339844 C 65.398438 28.410156 64.679688 28.4375 63.957031 28.421875 L 63.367188 28.425781 C 62.28125 28.414062 61.4375 28.320312 60.445312 27.828125 Z M 7.074219 150.675781 L 7.589844 150.675781 C 7.609375 151.277344 7.609375 151.878906 7.589844 152.480469 L 7.074219 153.253906 C 6.640625 153.175781 6.210938 153.089844 5.785156 152.996094 L 5.527344 152.738281 C 5.515625 152.308594 5.515625 151.878906 5.527344 151.449219 L 6.816406 151.191406 L 6.558594 151.964844 L 7.074219 151.964844 Z M 93.964844 118.226562 L 94.480469 118.484375 L 94.996094 120.027344 L 98.347656 120.027344 L 98.605469 120.542969 C 97.878906 120.550781 97.15625 120.554688 96.429688 120.558594 L 95.800781 120.566406 C 95.277344 120.570312 94.75 120.558594 94.222656 120.542969 L 93.964844 120.285156 C 93.925781 119.597656 93.953125 118.914062 93.964844 118.226562 M 112.527344 13.402344 L 112.527344 13.917969 L 112.089844 13.933594 C 111.4375 13.960938 110.78125 13.988281 110.128906 14.015625 L 109.4375 14.039062 L 108.777344 14.070312 L 108.167969 14.09375 C 107.550781 14.148438 107.550781 14.148438 106.855469 14.691406 L 106.597656 14.175781 L 106.855469 13.660156 C 108.796875 13.046875 110.523438 13.175781 112.527344 13.402344 M 21.511719 149.132812 C 22.125 149.339844 22.125 149.339844 22.800781 149.648438 L 23.316406 150.417969 L 22.800781 151.449219 L 20.996094 151.191406 L 20.996094 150.417969 L 21.511719 150.675781 L 21.253906 149.902344 L 21.769531 149.902344 Z M 180.339844 147.585938 C 180.714844 147.574219 181.089844 147.5625 181.46875 147.554688 L 182.101562 147.535156 L 182.660156 147.585938 L 183.175781 148.101562 L 183.175781 149.132812 L 182.707031 148.890625 C 182.121094 148.589844 182.121094 148.589844 181.371094 148.359375 L 180.597656 148.875 L 179.824219 148.617188 Z M 53.484375 139.085938 C 53.863281 140.226562 53.75 141.371094 53.730469 142.5625 C 53.71875 143.753906 53.800781 144.867188 54 146.039062 C 53.484375 145.527344 53.484375 145.527344 53.191406 144.640625 C 52.8125 142.988281 52.78125 141.320312 53.226562 139.683594 Z M 53.484375 139.085938 " fill-opacity="1" fill-rule="nonzero"/></g><path fill="#fefefe" d="M 4.234375 20.871094 L 5.007812 21.128906 L 5.007812 23.191406 L 3.71875 23.449219 L 3.71875 21.128906 Z M 30.019531 20.871094 C 30.550781 20.984375 30.550781 20.984375 31.050781 21.128906 L 31.308594 23.191406 L 30.019531 23.449219 C 29.96875 23.066406 29.921875 22.6875 29.875 22.304688 L 29.792969 21.664062 L 29.761719 21.128906 Z M 30.019531 20.871094 " fill-opacity="1" fill-rule="nonzero"/><g clip-path="url(#430307ba4d)"><path fill="#0c2240" d="M 163.726562 132.34375 L 164.613281 132.332031 C 165.386719 132.390625 165.386719 132.390625 166.160156 132.90625 C 166.207031 133.582031 166.207031 133.582031 166.160156 134.195312 L 165.386719 133.9375 L 165.386719 133.164062 L 161.257812 133.164062 L 161 132.648438 C 161.914062 132.367188 162.773438 132.347656 163.726562 132.34375 M 223.65625 98.394531 L 224.6875 98.910156 C 224.785156 99.441406 224.785156 99.441406 224.6875 100.199219 C 224.226562 100.851562 223.695312 101.425781 223.140625 102 L 222.367188 101.742188 C 222.460938 101.628906 222.554688 101.519531 222.648438 101.402344 C 223.019531 100.925781 223.355469 100.464844 223.65625 99.941406 C 223.765625 99.089844 223.765625 99.089844 223.65625 98.394531 M 2.945312 146.039062 C 3.847656 146.105469 3.847656 146.105469 4.75 146.296875 L 5.265625 146.8125 L 3.71875 146.554688 L 3.71875 147.585938 L 4.234375 148.359375 L 2.6875 147.84375 C 2.527344 147.230469 2.527344 147.230469 2.429688 146.554688 Z M 129.546875 52.035156 C 130.46875 52.429688 131.078125 52.976562 131.785156 53.679688 L 132.402344 54.28125 C 132.898438 54.867188 132.898438 54.867188 133.097656 55.457031 L 133.15625 55.898438 C 132.703125 56.171875 132.703125 56.171875 132.125 56.414062 C 131.542969 56.316406 131.542969 56.316406 131.09375 56.15625 L 131.09375 55.898438 L 132.382812 55.640625 C 131.785156 54.453125 130.917969 53.632812 129.96875 52.722656 L 129.546875 52.292969 Z M 188.332031 13.917969 L 188.074219 15.207031 C 187.367188 15.496094 187.367188 15.496094 186.527344 15.722656 C 185.914062 15.496094 185.914062 15.496094 185.496094 15.207031 C 185.773438 14.988281 186.054688 14.773438 186.335938 14.5625 L 186.804688 14.199219 C 187.300781 13.917969 187.300781 13.917969 188.332031 13.917969 M 120.519531 59.761719 L 121.550781 59.761719 L 121.550781 62.082031 L 120.003906 62.082031 L 120.003906 61.566406 L 120.519531 61.566406 L 120.375 60.808594 L 120.261719 60.019531 Z M 120.519531 59.761719 " fill-opacity="1" fill-rule="nonzero"/></g><path fill="#b50f08" d="M 8.363281 23.191406 L 8.621094 23.191406 L 8.878906 24.734375 L 9.394531 23.964844 L 10.167969 23.964844 L 9.910156 25.765625 L 8.363281 25.765625 Z M 8.363281 23.191406 " fill-opacity="1" fill-rule="nonzero"/><g clip-path="url(#1348a5bfae)"><path fill="#0c2240" d="M 161.773438 161.492188 L 165.128906 161.75 L 165.128906 162.265625 L 164.351562 162.78125 C 163.382812 162.699219 162.617188 162.496094 161.773438 162.007812 Z M 149.914062 14.949219 L 150.171875 15.464844 L 149.914062 16.238281 L 150.171875 17.007812 C 151.078125 17.328125 151.078125 17.328125 151.976562 17.523438 L 151.976562 18.039062 L 149.65625 17.78125 C 149.351562 17.089844 149.351562 17.089844 149.140625 16.238281 C 149.496094 15.496094 149.496094 15.496094 149.914062 14.949219 M 198.386719 109.46875 L 199.160156 109.984375 C 199.898438 110.140625 200.636719 110.246094 201.378906 110.355469 L 201.996094 110.5 L 202.253906 111.015625 L 198.644531 110.757812 Z M 168.480469 157.886719 C 169.65625 158.027344 170.535156 158.351562 171.574219 158.917969 L 170.800781 159.175781 L 170.1875 159.046875 C 169.445312 158.90625 168.945312 158.988281 168.222656 159.175781 Z M 21.511719 146.039062 L 22.800781 146.296875 L 23.058594 147.328125 C 22.332031 147.859375 22.332031 147.859375 21.511719 148.359375 L 20.738281 148.101562 L 21.238281 147.632812 C 21.820312 147.09375 21.820312 147.09375 22.027344 146.296875 Z M 131.09375 113.332031 L 134.703125 114.105469 L 134.703125 113.589844 L 135.21875 113.589844 L 134.960938 114.621094 C 133.414062 114.703125 132.476562 114.539062 131.09375 113.847656 Z M 161.257812 71.867188 L 168.738281 72.382812 L 168.738281 72.640625 C 167.953125 72.695312 167.167969 72.75 166.382812 72.800781 L 165.714844 72.851562 C 164.445312 72.929688 163.480469 72.902344 162.289062 72.382812 Z M 72.5625 114.878906 L 73.078125 114.878906 C 72.808594 115.792969 72.425781 116.355469 71.757812 117.019531 L 71.015625 117.710938 L 70.242188 117.453125 L 70.824219 116.890625 C 71.535156 116.1875 71.535156 116.1875 72.097656 115.441406 Z M 129.03125 111.789062 C 129.660156 112.300781 129.660156 112.300781 130.0625 112.816406 L 129.660156 112.6875 C 128.496094 112.449219 127.328125 112.453125 126.195312 112.816406 L 125.9375 112.300781 C 127 111.789062 127.851562 111.660156 129.03125 111.789062 M 213.601562 101.226562 C 215.578125 101.523438 215.578125 101.523438 216.417969 102.0625 C 216.78125 102.371094 217.128906 102.699219 217.46875 103.03125 L 217.210938 103.546875 L 216.824219 103.28125 C 215.675781 102.53125 214.679688 102.050781 213.34375 101.742188 Z M 213.601562 101.226562 " fill-opacity="1" fill-rule="nonzero"/></g></svg>