<svg xmlns="http://www.w3.org/2000/svg" xmlns:xlink="http://www.w3.org/1999/xlink" width="48" zoomAndPan="magnify" viewBox="0 0 36 36.000001" height="48" preserveAspectRatio="xMidYMid meet" version="1.0"><defs><clipPath id="5ec3606eac"><path d="M 0.488281 0 L 35.511719 0 L 35.511719 35.027344 L 0.488281 35.027344 Z M 0.488281 0 " clip-rule="nonzero"/></clipPath><clipPath id="972dd7e5d6"><path d="M 6 0 L 35.511719 0 L 35.511719 35.027344 L 6 35.027344 Z M 6 0 " clip-rule="nonzero"/></clipPath><clipPath id="5c46380537"><path d="M 6 0 L 35.511719 0 L 35.511719 35.027344 L 6 35.027344 Z M 6 0 " clip-rule="nonzero"/></clipPath><clipPath id="a759d3ac38"><path d="M 2 0 L 35.511719 0 L 35.511719 35.027344 L 2 35.027344 Z M 2 0 " clip-rule="nonzero"/></clipPath><clipPath id="b0e3047ffe"><path d="M 13 0 L 35.511719 0 L 35.511719 35.027344 L 13 35.027344 Z M 13 0 " clip-rule="nonzero"/></clipPath><clipPath id="bfd19b31db"><path d="M 30 0 L 35.511719 0 L 35.511719 35.027344 L 30 35.027344 Z M 30 0 " clip-rule="nonzero"/></clipPath><clipPath id="8dab7c4b35"><path d="M 8 0 L 35.511719 0 L 35.511719 35.027344 L 8 35.027344 Z M 8 0 " clip-rule="nonzero"/></clipPath><clipPath id="a95ae901a9"><path d="M 5 0 L 35.511719 0 L 35.511719 35.027344 L 5 35.027344 Z M 5 0 " clip-rule="nonzero"/></clipPath><clipPath id="c9d237ff07"><path d="M 3 0 L 35.511719 0 L 35.511719 35.027344 L 3 35.027344 Z M 3 0 " clip-rule="nonzero"/></clipPath><clipPath id="b18a9bd70c"><path d="M 19 0 L 35.511719 0 L 35.511719 35.027344 L 19 35.027344 Z M 19 0 " clip-rule="nonzero"/></clipPath></defs><g clip-path="url(#5ec3606eac)"><rect x="-3.6" width="43.2" fill="#fefefe" y="-3.6" height="43.200001" fill-opacity="1"/></g><path fill="#fefefe" d="M 14.839844 4.621094 L 15.414062 4.617188 C 15.8125 4.617188 16.210938 4.617188 16.609375 4.625 C 17.21875 4.628906 17.828125 4.625 18.4375 4.617188 C 18.828125 4.617188 19.21875 4.617188 19.605469 4.621094 L 20.15625 4.613281 C 20.65625 4.625 21.097656 4.652344 21.585938 4.773438 C 22.292969 5.339844 22.660156 5.757812 23.039062 6.570312 C 23.199219 7.304688 23.199219 7.304688 23.199219 9.148438 L 30.113281 9.148438 L 30.113281 9.605469 L 30.53125 9.765625 C 31.035156 10.066406 31.035156 10.066406 31.40625 10.5625 C 31.792969 11.355469 31.8125 11.902344 31.816406 12.78125 L 31.820312 13.242188 C 31.824219 13.746094 31.820312 14.246094 31.816406 14.746094 C 31.820312 15.097656 31.820312 15.449219 31.820312 15.800781 C 31.820312 16.535156 31.820312 17.265625 31.816406 18 C 31.8125 18.9375 31.816406 19.875 31.820312 20.816406 C 31.820312 21.539062 31.820312 22.261719 31.820312 22.984375 C 31.816406 23.332031 31.820312 23.675781 31.820312 24.023438 C 31.824219 24.507812 31.820312 24.992188 31.816406 25.476562 L 31.8125 26.308594 C 31.710938 27.238281 31.480469 27.890625 31.035156 28.710938 C 30.566406 29.261719 30.566406 29.261719 29.882812 29.628906 C 29.066406 29.761719 28.265625 29.753906 27.441406 29.746094 L 26.699219 29.75 C 25.886719 29.753906 25.074219 29.75 24.265625 29.746094 C 23.699219 29.746094 23.136719 29.746094 22.574219 29.746094 C 21.390625 29.746094 20.210938 29.742188 19.027344 29.738281 C 17.511719 29.730469 15.996094 29.730469 14.480469 29.734375 C 13.316406 29.738281 12.152344 29.734375 10.988281 29.730469 C 10.429688 29.730469 9.871094 29.730469 9.3125 29.730469 C 8.53125 29.730469 7.75 29.730469 6.972656 29.722656 L 6.269531 29.726562 C 5.378906 29.71875 4.679688 29.6875 3.847656 29.367188 C 3.234375 28.808594 2.976562 28.335938 2.6875 27.558594 C 2.597656 26.773438 2.597656 26.773438 2.59375 25.902344 L 2.589844 25.417969 C 2.585938 24.894531 2.585938 24.371094 2.585938 23.847656 L 2.582031 22.75 C 2.582031 21.984375 2.582031 21.21875 2.585938 20.449219 C 2.585938 19.472656 2.582031 18.492188 2.574219 17.511719 C 2.570312 16.757812 2.570312 16 2.574219 15.246094 C 2.574219 14.882812 2.570312 14.523438 2.570312 14.160156 C 2.566406 13.65625 2.566406 13.148438 2.570312 12.644531 L 2.570312 11.773438 C 2.6875 10.988281 2.6875 10.988281 3.113281 10.222656 C 3.609375 9.605469 3.609375 9.605469 4.300781 9.148438 C 4.992188 9.074219 4.992188 9.074219 5.832031 9.050781 L 6.738281 9.023438 L 7.6875 9.003906 C 8.003906 8.996094 8.324219 8.984375 8.640625 8.976562 C 9.421875 8.953125 10.203125 8.933594 10.984375 8.917969 L 11.035156 8.304688 L 11.128906 7.492188 L 11.210938 6.691406 C 11.445312 5.925781 11.445312 5.925781 12.03125 5.261719 C 12.917969 4.609375 13.769531 4.609375 14.839844 4.621094 " fill-opacity="1" fill-rule="nonzero"/><g clip-path="url(#972dd7e5d6)"><path fill="#cf1b15" d="M 106.3125 80.914062 C 107.855469 81.675781 109.402344 82.773438 110.464844 84.144531 C 111.46875 85.734375 112.207031 87.347656 112.3125 89.234375 C 112.335938 91.460938 111.699219 93.375 110.710938 95.355469 C 110 96.605469 109.140625 97.769531 108.296875 98.933594 L 107.960938 99.40625 C 107.683594 99.785156 107.386719 100.152344 107.089844 100.515625 L 106.628906 100.515625 L 106.46875 101.007812 C 106.097656 101.816406 105.617188 102.355469 105.015625 103.007812 L 104.394531 103.6875 L 103.863281 104.199219 L 103.402344 104.199219 L 102.941406 105.121094 C 102.507812 105.0625 102.507812 105.0625 102.019531 104.890625 C 101.859375 104.585938 101.707031 104.277344 101.558594 103.96875 L 101.144531 103.78125 C 100.472656 103.421875 100.125 102.957031 99.65625 102.359375 L 99.164062 101.742188 L 98.792969 101.207031 L 98.792969 100.746094 L 98.332031 100.746094 C 98.046875 100.425781 98.046875 100.425781 97.730469 99.972656 L 97.378906 99.472656 L 97.003906 98.933594 L 96.628906 98.390625 C 93.46875 93.820312 93.46875 93.820312 93.03125 91.082031 C 92.882812 89.074219 93.132812 87.542969 93.960938 85.726562 C 94.8125 84.039062 96.046875 82.746094 97.609375 81.6875 C 100.148438 80.238281 103.535156 79.921875 106.3125 80.914062 M 145.808594 41.136719 C 147.726562 41.589844 149.277344 42.332031 150.789062 43.609375 C 151.699219 44.472656 152.457031 45.40625 153.183594 46.433594 L 153.519531 46.894531 C 154.976562 49.152344 155.316406 52.320312 155.488281 54.949219 C 156.058594 54.625 156.058594 54.625 156.640625 54.027344 C 157.355469 52.699219 157.679688 51.378906 157.792969 49.882812 C 158.210938 49.941406 158.210938 49.941406 158.714844 50.113281 C 159.269531 50.738281 159.671875 51.464844 160.097656 52.183594 L 160.417969 52.730469 C 161.464844 54.652344 161.960938 56.703125 162.027344 58.890625 C 161.964844 60.902344 161.414062 62.628906 160.414062 64.367188 C 159.277344 66.070312 157.859375 66.972656 156.0625 67.90625 C 155.109375 68.347656 154.238281 68.648438 153.183594 68.757812 L 153.183594 68.296875 L 153.644531 68.296875 L 153.644531 67.835938 L 154.175781 67.347656 C 154.757812 66.722656 155.101562 66.214844 155.371094 65.402344 C 155.660156 64.019531 155.71875 62.566406 155.277344 61.214844 C 155.121094 60.863281 154.949219 60.515625 154.765625 60.171875 C 154.566406 59.78125 154.566406 59.78125 154.566406 59.320312 L 154.105469 59.320312 L 154.027344 59.734375 C 153.8125 60.796875 153.589844 61.640625 152.953125 62.542969 C 152.535156 62.484375 152.535156 62.484375 152.03125 62.3125 C 151.160156 61.363281 150.925781 60.210938 150.601562 58.996094 C 150.183594 57.125 150.410156 55.636719 150.957031 53.808594 L 151.109375 53.335938 C 149.628906 54.042969 148.59375 54.980469 147.652344 56.328125 C 146.765625 58.183594 146.363281 60.035156 146.5 62.082031 C 146.625 62.933594 146.78125 63.773438 146.960938 64.613281 C 146.421875 64.554688 146.421875 64.554688 145.808594 64.382812 C 145.457031 63.964844 145.457031 63.964844 145.1875 63.464844 C 145.019531 63.152344 144.839844 62.84375 144.65625 62.542969 L 144.195312 62.3125 C 143.925781 63.660156 143.824219 64.910156 144.121094 66.253906 C 144.5 67.078125 144.96875 67.625 145.578125 68.296875 L 145.347656 68.757812 C 143.121094 67.820312 141.417969 66.625 139.816406 64.84375 C 139.25 64.035156 138.820312 63.21875 138.433594 62.3125 L 138.195312 61.839844 C 137.445312 60.074219 137.566406 57.972656 137.742188 56.097656 C 138.1875 53.457031 139.359375 51.429688 141.039062 49.378906 C 141.242188 49.167969 141.449219 48.953125 141.660156 48.734375 L 142.121094 48.734375 L 142.078125 49.394531 C 142.078125 50.511719 142.316406 51.640625 142.8125 52.644531 C 143.273438 52.949219 143.273438 52.949219 143.734375 53.105469 L 143.964844 52.183594 L 144.425781 52.183594 L 144.597656 51.738281 C 144.757812 51.347656 144.921875 50.953125 145.105469 50.570312 C 146.066406 48.523438 146.4375 46.625 146.269531 44.359375 C 146.167969 43.816406 146.046875 43.273438 145.910156 42.738281 C 145.785156 42.195312 145.769531 41.691406 145.808594 41.136719 M 13.761719 -32.839844 L 14.421875 -32.84375 C 14.875 -32.84375 15.332031 -32.84375 15.789062 -32.84375 C 16.484375 -32.839844 17.175781 -32.847656 17.867188 -32.855469 C 18.316406 -32.855469 18.761719 -32.855469 19.207031 -32.855469 L 19.824219 -32.863281 C 21.300781 -32.847656 22.597656 -32.5625 23.890625 -31.820312 C 24.542969 -31.160156 25.113281 -30.480469 25.398438 -29.585938 C 25.535156 -28.894531 25.5625 -28.222656 25.59375 -27.519531 L 25.613281 -27.054688 C 25.636719 -26.550781 25.65625 -26.046875 25.675781 -25.542969 L 25.722656 -24.488281 C 25.753906 -23.753906 25.785156 -23.015625 25.816406 -22.28125 C 25.855469 -21.339844 25.894531 -20.398438 25.9375 -19.457031 C 26.003906 -17.894531 26.070312 -16.335938 26.136719 -14.777344 L 26.171875 -13.941406 L 26.195312 -13.179688 L 26.226562 -12.417969 L 26.195312 -11.796875 L 25.734375 -11.335938 L 24.8125 -11.335938 C 24.527344 -12.867188 24.5625 -14.386719 24.582031 -15.941406 L 24.109375 -15.914062 L 23.488281 -15.894531 L 22.871094 -15.871094 C 22.277344 -15.941406 22.277344 -15.941406 21.742188 -16.257812 L 21.355469 -16.628906 L 21.355469 -17.089844 L 11.675781 -16.859375 L 11.214844 -14.789062 L 9.832031 -14.789062 L 9.832031 -15.941406 L 8.449219 -15.941406 L 8.449219 -11.335938 L 7.066406 -11.566406 L 7.066406 -12.027344 L 6.605469 -12.027344 C 6.582031 -13.441406 6.582031 -13.441406 6.605469 -13.867188 L 6.835938 -14.097656 C 6.894531 -14.722656 6.933594 -15.34375 6.964844 -15.96875 L 6.996094 -16.550781 C 7.078125 -18.339844 7.082031 -20.128906 7.058594 -21.921875 C 7.046875 -23.078125 7.09375 -24.195312 7.242188 -25.34375 C 7.296875 -25.828125 7.324219 -26.308594 7.34375 -26.796875 L 7.363281 -27.261719 C 7.378906 -27.570312 7.386719 -27.878906 7.394531 -28.191406 C 7.445312 -29.25 7.667969 -29.992188 8.21875 -30.898438 C 9.828125 -32.507812 11.554688 -32.847656 13.761719 -32.839844 " fill-opacity="1" fill-rule="nonzero"/></g><path fill="#0c2240" d="M 14.839844 4.621094 L 15.414062 4.617188 C 15.8125 4.617188 16.210938 4.617188 16.609375 4.625 C 17.21875 4.628906 17.828125 4.625 18.4375 4.617188 C 18.828125 4.617188 19.21875 4.617188 19.605469 4.621094 L 20.15625 4.613281 C 20.65625 4.625 21.097656 4.652344 21.585938 4.773438 C 22.292969 5.339844 22.660156 5.757812 23.039062 6.570312 C 23.199219 7.304688 23.199219 7.304688 23.199219 9.148438 L 30.113281 9.148438 L 30.113281 9.605469 L 30.53125 9.765625 C 31.035156 10.066406 31.035156 10.066406 31.40625 10.5625 C 31.792969 11.355469 31.8125 11.902344 31.816406 12.78125 L 31.820312 13.242188 C 31.824219 13.746094 31.820312 14.246094 31.816406 14.746094 C 31.820312 15.097656 31.820312 15.449219 31.820312 15.800781 C 31.820312 16.535156 31.820312 17.265625 31.816406 18 C 31.8125 18.9375 31.816406 19.875 31.820312 20.816406 C 31.820312 21.539062 31.820312 22.261719 31.820312 22.984375 C 31.816406 23.332031 31.820312 23.675781 31.820312 24.023438 C 31.824219 24.507812 31.820312 24.992188 31.816406 25.476562 L 31.8125 26.308594 C 31.710938 27.238281 31.480469 27.890625 31.035156 28.710938 C 30.566406 29.261719 30.566406 29.261719 29.882812 29.628906 C 29.066406 29.761719 28.265625 29.753906 27.441406 29.746094 L 26.699219 29.75 C 25.886719 29.753906 25.074219 29.75 24.265625 29.746094 C 23.699219 29.746094 23.136719 29.746094 22.574219 29.746094 C 21.390625 29.746094 20.210938 29.742188 19.027344 29.738281 C 17.511719 29.730469 15.996094 29.730469 14.480469 29.734375 C 13.316406 29.738281 12.152344 29.734375 10.988281 29.730469 C 10.429688 29.730469 9.871094 29.730469 9.3125 29.730469 C 8.53125 29.730469 7.75 29.730469 6.972656 29.722656 L 6.269531 29.726562 C 5.378906 29.71875 4.679688 29.6875 3.847656 29.367188 C 3.234375 28.808594 2.976562 28.335938 2.6875 27.558594 C 2.597656 26.773438 2.597656 26.773438 2.59375 25.902344 L 2.589844 25.417969 C 2.585938 24.894531 2.585938 24.371094 2.585938 23.847656 L 2.582031 22.75 C 2.582031 21.984375 2.582031 21.21875 2.585938 20.449219 C 2.585938 19.472656 2.582031 18.492188 2.574219 17.511719 C 2.570312 16.757812 2.570312 16 2.574219 15.246094 C 2.574219 14.882812 2.570312 14.523438 2.570312 14.160156 C 2.566406 13.65625 2.566406 13.148438 2.570312 12.644531 L 2.570312 11.773438 C 2.6875 10.988281 2.6875 10.988281 3.113281 10.222656 C 3.609375 9.605469 3.609375 9.605469 4.300781 9.148438 C 4.992188 9.074219 4.992188 9.074219 5.832031 9.050781 L 6.738281 9.023438 L 7.6875 9.003906 C 8.003906 8.996094 8.324219 8.984375 8.640625 8.976562 C 9.421875 8.953125 10.203125 8.933594 10.984375 8.917969 L 11.035156 8.304688 L 11.128906 7.492188 L 11.210938 6.691406 C 11.445312 5.925781 11.445312 5.925781 12.03125 5.261719 C 12.917969 4.609375 13.769531 4.609375 14.839844 4.621094 M 4.761719 11.21875 L 4.761719 16.28125 L 9.140625 16.28125 L 9.140625 18.351562 L 4.761719 18.351562 C 4.757812 19.628906 4.75 20.902344 4.75 22.175781 C 4.746094 22.609375 4.746094 23.042969 4.746094 23.476562 C 4.742188 24.097656 4.738281 24.722656 4.738281 25.34375 L 4.734375 25.933594 C 4.734375 26.398438 4.746094 26.863281 4.761719 27.328125 L 4.992188 27.558594 C 5.308594 27.582031 5.628906 27.585938 5.945312 27.585938 L 7.984375 27.585938 C 8.773438 27.585938 9.566406 27.582031 10.359375 27.582031 L 12 27.582031 C 13.445312 27.578125 14.886719 27.578125 16.332031 27.574219 C 17.804688 27.574219 19.277344 27.570312 20.75 27.570312 C 23.640625 27.566406 26.53125 27.5625 29.421875 27.558594 C 29.679688 26.636719 29.683594 25.746094 29.683594 24.792969 L 29.683594 24.257812 C 29.683594 23.886719 29.683594 23.511719 29.683594 23.140625 C 29.679688 22.566406 29.683594 21.996094 29.683594 21.421875 C 29.683594 21.058594 29.683594 20.699219 29.683594 20.335938 L 29.683594 19.8125 C 29.679688 19.402344 29.667969 18.992188 29.652344 18.582031 L 29.421875 18.351562 C 29.113281 18.320312 28.800781 18.292969 28.492188 18.28125 L 27.925781 18.25 L 26.738281 18.195312 C 26.25 18.167969 25.761719 18.144531 25.273438 18.121094 L 25.273438 16.511719 L 26.171875 16.46875 L 27.332031 16.410156 L 27.925781 16.382812 L 28.492188 16.355469 L 29.015625 16.328125 L 29.421875 16.28125 L 29.652344 16.050781 C 29.710938 15.335938 29.695312 14.613281 29.695312 13.894531 L 29.703125 13.28125 L 29.703125 12.695312 L 29.707031 12.15625 C 29.679688 11.609375 29.679688 11.609375 29.191406 10.988281 C 28.148438 10.644531 27.007812 10.722656 25.921875 10.726562 L 25.277344 10.722656 C 24.582031 10.71875 23.882812 10.71875 23.183594 10.71875 L 21.726562 10.71875 C 20.710938 10.714844 19.691406 10.714844 18.671875 10.714844 C 17.371094 10.714844 16.066406 10.710938 14.761719 10.707031 C 13.757812 10.707031 12.753906 10.703125 11.753906 10.707031 C 11.269531 10.707031 10.789062 10.703125 10.308594 10.703125 C 9.636719 10.699219 8.964844 10.699219 8.292969 10.703125 C 8.09375 10.699219 7.898438 10.699219 7.691406 10.699219 L 7.132812 10.703125 L 6.652344 10.699219 C 5.984375 10.757812 5.984375 10.757812 4.761719 11.21875 " fill-opacity="1" fill-rule="nonzero"/><g clip-path="url(#5c46380537)"><path fill="#193049" d="M 11.675781 -17.089844 C 12.378906 -17.121094 13.078125 -17.140625 13.785156 -17.144531 L 14.425781 -17.152344 C 14.878906 -17.152344 15.328125 -17.15625 15.777344 -17.160156 C 16.46875 -17.164062 17.15625 -17.171875 17.84375 -17.183594 C 18.28125 -17.183594 18.71875 -17.1875 19.15625 -17.1875 L 19.78125 -17.199219 C 20.320312 -17.199219 20.824219 -17.1875 21.355469 -17.089844 C 21.878906 -16.632812 21.878906 -16.632812 22.277344 -16.167969 C 22.871094 -16.011719 22.871094 -16.011719 23.488281 -15.996094 L 24.109375 -15.957031 L 24.582031 -15.941406 C 24.6875 -15.148438 24.777344 -14.359375 24.871094 -13.566406 L 24.960938 -12.886719 L 25.03125 -12.230469 L 25.105469 -11.628906 L 25.042969 -11.105469 C 24.625 -10.6875 24.277344 -10.46875 23.714844 -10.285156 C 23.066406 -10.160156 22.453125 -10.152344 21.789062 -10.144531 L 20.929688 -10.136719 C 20.617188 -10.132812 20.308594 -10.132812 19.996094 -10.132812 L 19.523438 -10.128906 C 18.691406 -10.125 17.859375 -10.121094 17.027344 -10.117188 C 16.171875 -10.117188 15.316406 -10.105469 14.460938 -10.097656 C 13.800781 -10.09375 13.140625 -10.089844 12.480469 -10.089844 C 12.164062 -10.089844 11.851562 -10.085938 11.535156 -10.082031 C 8.773438 -10.046875 8.773438 -10.046875 7.550781 -10.652344 C 7.3125 -10.800781 7.078125 -10.953125 6.835938 -11.105469 L 6.835938 -11.335938 L 8.449219 -11.335938 L 8.449219 -15.941406 L 9.832031 -15.941406 L 9.832031 -14.789062 L 11.214844 -14.789062 C 11.234375 -15.007812 11.234375 -15.007812 11.257812 -15.234375 L 11.316406 -15.808594 C 11.335938 -16 11.351562 -16.1875 11.371094 -16.386719 L 11.445312 -16.859375 Z M 92.339844 58.628906 C 93.332031 58.988281 94.160156 59.523438 94.988281 60.167969 C 95.570312 60.589844 95.929688 60.742188 96.644531 60.960938 C 97.78125 61.042969 98.726562 60.5625 99.742188 60.105469 C 100.292969 59.835938 100.820312 59.546875 101.355469 59.25 C 102.234375 58.800781 103.011719 58.742188 103.988281 58.785156 C 105.441406 58.976562 106.554688 59.59375 107.722656 60.453125 C 108.496094 60.824219 109.234375 60.96875 110.085938 60.929688 C 110.761719 60.71875 111.355469 60.402344 111.972656 60.054688 C 112.285156 59.882812 112.601562 59.714844 112.917969 59.546875 L 113.363281 59.304688 C 114.035156 58.949219 114.648438 58.660156 115.410156 58.578125 C 116.246094 58.644531 116.839844 58.757812 117.554688 59.210938 C 117.9375 59.496094 118.316406 59.785156 118.695312 60.074219 C 119.664062 60.707031 120.710938 60.9375 121.839844 61.160156 C 121.84375 61.5 121.847656 61.84375 121.851562 62.183594 L 121.859375 62.757812 L 121.839844 63.234375 L 121.609375 63.464844 C 120.652344 63.566406 120.023438 63.570312 119.128906 63.207031 C 118.566406 62.921875 118.007812 62.625 117.460938 62.3125 L 117.460938 61.851562 C 116.507812 61.621094 115.671875 61.527344 114.695312 61.621094 C 114.089844 61.875 113.523438 62.164062 112.949219 62.476562 C 112.023438 62.964844 111.125 63.316406 110.085938 63.464844 L 109.292969 63.578125 C 107.765625 63.578125 106.320312 62.570312 105.015625 61.851562 L 105.015625 61.390625 C 103.855469 61.308594 102.96875 61.269531 101.902344 61.78125 C 101.632812 61.953125 101.363281 62.132812 101.097656 62.3125 C 100.351562 62.808594 99.648438 63.195312 98.792969 63.464844 C 97.304688 63.542969 95.90625 63.492188 94.539062 62.875 L 93.953125 62.542969 L 93.953125 62.082031 L 92.800781 61.851562 L 92.800781 61.390625 C 92.035156 61.304688 91.476562 61.265625 90.726562 61.390625 C 90.042969 61.75 89.433594 62.15625 88.808594 62.605469 C 88.148438 63.03125 87.566406 63.265625 86.808594 63.464844 C 85.929688 63.390625 85.929688 63.390625 85.195312 63.234375 L 84.964844 63.003906 C 84.929688 62.386719 84.953125 61.777344 84.964844 61.160156 L 85.546875 61.007812 C 87.082031 60.578125 88.335938 60.105469 89.617188 59.152344 C 90.492188 58.539062 91.304688 58.546875 92.339844 58.628906 " fill-opacity="1" fill-rule="nonzero"/></g><path fill="#cf1b15" d="M 15.59375 13.519531 C 16.097656 13.503906 16.601562 13.5 17.105469 13.503906 L 17.941406 13.511719 L 18.589844 13.519531 C 18.960938 14.109375 19.054688 14.480469 19.09375 15.183594 L 19.050781 17.433594 L 22.738281 17.433594 C 22.988281 18.179688 23 18.746094 22.996094 19.53125 L 23 20.28125 L 22.96875 20.882812 L 22.738281 21.113281 C 22.117188 21.167969 21.503906 21.210938 20.878906 21.246094 L 19.050781 21.34375 L 18.820312 25.027344 L 15.363281 25.027344 L 15.363281 21.113281 L 11.445312 21.113281 L 11.429688 19.402344 L 11.425781 18.863281 C 11.421875 18.460938 11.433594 18.0625 11.445312 17.664062 L 11.675781 17.433594 C 12.296875 17.414062 12.914062 17.410156 13.535156 17.417969 L 14.0625 17.421875 C 14.496094 17.425781 14.929688 17.429688 15.363281 17.433594 L 15.355469 16.636719 L 15.347656 15.605469 L 15.34375 15.078125 C 15.339844 14.636719 15.351562 14.191406 15.363281 13.75 Z M 15.59375 13.519531 " fill-opacity="1" fill-rule="nonzero"/><g clip-path="url(#a759d3ac38)"><path fill="#0c2240" d="M 166.78125 -12.027344 C 167.316406 -12.035156 167.855469 -12.035156 168.394531 -12.027344 L 168.625 -11.796875 C 168.632812 -11.261719 168.632812 -10.722656 168.625 -10.1875 C 168.015625 -9.882812 167.558594 -9.925781 166.875 -9.925781 L 166.046875 -9.921875 L 164.175781 -9.921875 C 163.308594 -9.917969 162.4375 -9.917969 161.570312 -9.917969 C 160.84375 -9.917969 160.121094 -9.917969 159.394531 -9.914062 C 157.6875 -9.914062 155.976562 -9.914062 154.269531 -9.914062 C 152.503906 -9.914062 150.738281 -9.910156 148.972656 -9.90625 C 147.460938 -9.902344 145.945312 -9.902344 144.433594 -9.902344 C 143.527344 -9.902344 142.625 -9.902344 141.71875 -9.898438 C 140.867188 -9.898438 140.019531 -9.898438 139.167969 -9.898438 C 138.707031 -9.898438 138.242188 -9.898438 137.78125 -9.894531 L 136.953125 -9.898438 L 136.230469 -9.898438 L 135.667969 -9.957031 L 135.207031 -10.414062 C 135.175781 -11.136719 135.175781 -11.136719 135.207031 -11.796875 L 135.667969 -11.335938 L 135.667969 -10.644531 L 167.703125 -10.875 L 167.933594 -11.796875 L 166.78125 -11.796875 Z M 6.144531 83.714844 C 6.527344 83.707031 6.914062 83.707031 7.296875 83.714844 L 7.296875 84.40625 L 7.757812 84.40625 L 7.800781 84.878906 L 7.859375 85.5 C 7.878906 85.703125 7.894531 85.90625 7.914062 86.113281 C 7.976562 86.628906 8.078125 87.132812 8.21875 87.628906 L 8.695312 87.6875 C 9.574219 87.910156 10.210938 88.308594 10.984375 88.78125 C 10.667969 89.125 10.667969 89.125 10.292969 89.46875 L 9.832031 89.46875 L 10.292969 90.390625 C 9.476562 90.152344 8.835938 89.886719 8.148438 89.398438 C 7.75 89.136719 7.75 89.136719 7.296875 89.011719 C 6.246094 89.164062 5.410156 89.578125 4.53125 90.160156 C 4.054688 90.101562 4.054688 90.101562 3.609375 89.929688 L 3.148438 89.46875 C 3.191406 89.011719 3.191406 89.011719 3.378906 88.550781 L 4.070312 88.089844 L 4.761719 88.089844 L 4.761719 87.398438 L 4.097656 87.242188 L 3.378906 86.9375 C 3.0625 86.335938 3.0625 86.335938 2.917969 85.789062 L 3.378906 85.328125 C 4.339844 85.398438 5.070312 85.566406 5.914062 86.019531 L 5.90625 85.574219 L 5.898438 84.996094 L 5.890625 84.421875 L 5.914062 83.945312 Z M 17.4375 83.714844 C 18.011719 83.6875 18.011719 83.6875 18.589844 83.714844 L 18.820312 83.945312 C 18.835938 84.296875 18.839844 84.648438 18.835938 84.996094 L 18.828125 85.574219 L 18.820312 86.019531 L 19.191406 85.808594 L 19.683594 85.542969 L 20.171875 85.277344 C 20.664062 85.097656 20.664062 85.097656 21.1875 85.183594 L 21.585938 85.328125 L 21.816406 86.476562 C 20.601562 87.199219 20.601562 87.199219 20.203125 87.398438 L 19.742188 87.398438 L 19.742188 87.859375 L 20.273438 88.058594 C 20.894531 88.320312 20.894531 88.320312 21.585938 88.78125 C 21.527344 89.210938 21.527344 89.210938 21.355469 89.699219 C 20.957031 89.996094 20.957031 89.996094 20.433594 90.160156 C 19.871094 89.945312 19.871094 89.945312 19.28125 89.601562 C 18.707031 89.25 18.707031 89.25 18.128906 89.011719 C 17.273438 89.074219 16.519531 89.558594 15.765625 89.945312 L 15.015625 90.328125 L 14.441406 90.621094 L 13.980469 90.160156 L 14.671875 89.46875 L 14.210938 88.550781 L 14.691406 88.359375 C 15.402344 88.019531 15.933594 87.710938 16.515625 87.167969 C 16.910156 86.109375 17.054688 85.0625 17.207031 83.945312 Z M 122.300781 -11.566406 C 122.730469 -11.628906 122.730469 -11.628906 123.222656 -11.625 L 123.710938 -11.628906 L 124.144531 -11.566406 L 124.605469 -11.105469 C 124.53125 -10.515625 124.53125 -10.515625 124.375 -9.957031 L 124.144531 -9.726562 C 123.6875 -9.703125 123.226562 -9.695312 122.769531 -9.695312 L 119.816406 -9.695312 C 118.863281 -9.695312 117.910156 -9.695312 116.960938 -9.695312 C 115.96875 -9.695312 114.972656 -9.695312 113.980469 -9.695312 C 112.3125 -9.695312 110.644531 -9.695312 108.976562 -9.695312 C 107.042969 -9.695312 105.109375 -9.695312 103.179688 -9.695312 C 101.523438 -9.695312 99.867188 -9.695312 98.210938 -9.695312 C 97.222656 -9.695312 96.230469 -9.695312 95.242188 -9.695312 C 94.3125 -9.695312 93.378906 -9.695312 92.449219 -9.695312 C 92.105469 -9.695312 91.765625 -9.695312 91.421875 -9.695312 C 90.957031 -9.695312 90.492188 -9.695312 90.023438 -9.695312 L 89.234375 -9.695312 L 88.652344 -9.726562 L 88.421875 -9.957031 C 88.410156 -10.414062 88.410156 -10.875 88.421875 -11.335938 C 89.09375 -11.089844 89.523438 -10.925781 90.035156 -10.414062 C 90.574219 -10.347656 90.574219 -10.347656 91.207031 -10.359375 L 91.960938 -10.355469 L 92.792969 -10.359375 L 93.664062 -10.359375 C 94.457031 -10.359375 95.25 -10.359375 96.039062 -10.363281 C 96.871094 -10.363281 97.699219 -10.363281 98.527344 -10.363281 C 99.925781 -10.363281 101.320312 -10.367188 102.71875 -10.367188 C 104.324219 -10.371094 105.933594 -10.375 107.542969 -10.375 C 109.257812 -10.375 110.976562 -10.375 112.691406 -10.375 C 113.183594 -10.378906 113.675781 -10.378906 114.167969 -10.378906 C 115.089844 -10.378906 116.015625 -10.378906 116.9375 -10.382812 L 117.753906 -10.382812 C 119.433594 -10.386719 121.089844 -10.480469 122.761719 -10.644531 L 121.839844 -11.105469 Z M 122.300781 -11.566406 " fill-opacity="1" fill-rule="nonzero"/></g><path fill="#fefefe" d="M 20.894531 6.84375 C 21.070312 7.707031 21.140625 8.304688 20.894531 9.148438 C 19.851562 9.160156 18.8125 9.167969 17.769531 9.171875 C 17.414062 9.175781 17.058594 9.175781 16.707031 9.179688 C 16.195312 9.1875 15.6875 9.191406 15.175781 9.191406 L 14.695312 9.199219 C 14.304688 9.199219 13.910156 9.175781 13.519531 9.148438 L 13.058594 8.6875 C 13.015625 7.867188 13.015625 7.867188 13.058594 7.074219 L 13.289062 6.84375 C 14.300781 6.757812 15.316406 6.738281 16.328125 6.703125 L 17.1875 6.664062 L 18.023438 6.636719 L 18.785156 6.605469 C 19.511719 6.617188 20.183594 6.707031 20.894531 6.84375 " fill-opacity="1" fill-rule="nonzero"/><g clip-path="url(#b0e3047ffe)"><path fill="#0c2240" d="M 112.851562 -24.457031 C 113.503906 -24.230469 113.953125 -24.042969 114.453125 -23.558594 C 115.484375 -22.84375 116.578125 -22.65625 117.789062 -22.382812 C 118.289062 -22.265625 118.789062 -22.144531 119.285156 -22.027344 L 120.015625 -21.855469 C 120.871094 -21.648438 121.722656 -21.425781 122.574219 -21.191406 L 123.289062 -20.992188 C 123.953125 -20.757812 124.492188 -20.488281 125.066406 -20.082031 C 125.253906 -19.464844 125.253906 -19.464844 125.296875 -18.933594 L 124.734375 -19.046875 C 124.207031 -19.167969 124.207031 -19.167969 123.914062 -19.160156 L 123.683594 -18.703125 L 123.453125 -18.933594 C 122.675781 -18.996094 121.902344 -19.035156 121.125 -19.074219 L 120.457031 -19.160156 L 120.226562 -19.621094 L 121.148438 -19.851562 L 121.148438 -20.3125 L 120.6875 -20.542969 L 120.457031 -21.003906 C 119.980469 -21.179688 119.5 -21.335938 119.015625 -21.476562 L 118.21875 -21.714844 C 117.582031 -21.890625 116.953125 -22.027344 116.308594 -22.152344 C 115.03125 -22.5 114.121094 -23.042969 113.136719 -23.925781 L 112.851562 -24.226562 Z M 84.734375 -26.066406 C 85.195312 -26.085938 85.65625 -26.089844 86.117188 -26.089844 L 86.964844 -26.085938 L 88.753906 -26.078125 C 89.488281 -26.074219 90.222656 -26.070312 90.957031 -26.066406 L 90.957031 -24.457031 L 84.734375 -24.457031 L 84.503906 -25.835938 Z M 31.957031 52.644531 C 32.445312 52.632812 32.9375 52.625 33.425781 52.617188 L 34.253906 52.601562 L 34.953125 52.644531 L 35.414062 53.105469 C 35.457031 53.671875 35.472656 54.238281 35.464844 54.804688 L 35.464844 55.3125 C 35.464844 55.664062 35.464844 56.019531 35.460938 56.375 C 35.457031 56.917969 35.457031 57.460938 35.457031 58.003906 C 35.457031 58.347656 35.453125 58.691406 35.453125 59.035156 L 35.453125 59.527344 C 35.445312 59.921875 35.433594 60.3125 35.414062 60.699219 L 35.183594 60.929688 C 34.601562 60.984375 34.023438 61.027344 33.441406 61.0625 L 32.945312 61.089844 C 32.539062 61.113281 32.132812 61.140625 31.726562 61.160156 L 31.496094 60.472656 C 32.355469 60.339844 33.15625 60.242188 34.03125 60.242188 C 34.6875 56.773438 34.6875 56.773438 34.261719 53.335938 L 31.957031 52.875 Z M 15.59375 87.859375 C 16.140625 88.046875 16.140625 88.046875 16.515625 88.320312 L 16.515625 88.550781 L 17.136719 88.390625 L 17.957031 88.191406 L 18.765625 87.988281 C 19.511719 87.859375 19.511719 87.859375 20.03125 87.929688 C 20.589844 88.152344 21.078125 88.457031 21.585938 88.78125 C 21.527344 89.210938 21.527344 89.210938 21.355469 89.699219 C 20.957031 89.996094 20.957031 89.996094 20.433594 90.160156 C 19.871094 89.945312 19.871094 89.945312 19.28125 89.601562 C 18.707031 89.25 18.707031 89.25 18.128906 89.011719 C 17.273438 89.078125 16.519531 89.558594 15.765625 89.945312 L 15.015625 90.328125 L 14.441406 90.621094 L 13.980469 90.160156 L 14.671875 89.46875 L 14.210938 88.550781 C 14.84375 88.175781 14.84375 88.175781 15.59375 87.859375 " fill-opacity="1" fill-rule="nonzero"/></g><g clip-path="url(#bfd19b31db)"><path fill="#0c2240" d="M 119.996094 65.996094 L 121.839844 66.453125 C 121.84375 66.796875 121.847656 67.136719 121.851562 67.476562 L 121.859375 68.050781 L 121.839844 68.527344 L 121.609375 68.757812 C 121.265625 68.773438 120.921875 68.78125 120.578125 68.777344 L 119.949219 68.777344 L 119.289062 68.769531 L 118.625 68.769531 C 118.082031 68.765625 117.542969 68.761719 117 68.757812 L 116.769531 68.296875 L 120.6875 68.066406 L 120.917969 66.683594 L 119.996094 66.226562 Z M 30.804688 91.3125 C 31.355469 91.242188 31.355469 91.242188 31.984375 91.269531 L 32.621094 91.289062 L 33.109375 91.3125 L 33.339844 92.921875 C 32.359375 93.191406 31.570312 93.097656 30.574219 92.921875 C 30.429688 92.503906 30.429688 92.503906 30.34375 92 Z M 30.804688 84.867188 C 31.402344 84.800781 31.402344 84.800781 32.101562 84.824219 L 32.800781 84.84375 L 33.339844 84.867188 L 33.339844 86.476562 L 30.574219 86.476562 L 30.34375 85.558594 Z M 52.238281 64.84375 L 54.3125 65.996094 L 54.3125 66.453125 C 56.816406 67.351562 59.289062 67.53125 61.917969 67.144531 L 61.6875 67.605469 C 60.175781 68.089844 58.753906 68.277344 57.191406 67.941406 C 55.296875 67.414062 53.667969 66.660156 52.238281 65.304688 Z M 83.351562 -17.78125 C 83.730469 -17.800781 84.109375 -17.8125 84.488281 -17.808594 L 85.113281 -17.8125 C 85.65625 -17.78125 85.65625 -17.78125 86.117188 -17.550781 C 86.125 -17.167969 86.125 -16.785156 86.117188 -16.398438 L 85.886719 -16.167969 C 85.507812 -16.148438 85.128906 -16.140625 84.746094 -16.140625 L 84.121094 -16.140625 C 83.582031 -16.167969 83.582031 -16.167969 83.121094 -16.398438 C 83.109375 -16.785156 83.109375 -17.167969 83.121094 -17.550781 Z M 83.351562 -17.78125 " fill-opacity="1" fill-rule="nonzero"/></g><path fill="#182f49" d="M 2.917969 14.902344 L 3.378906 15.359375 C 3.355469 15.871094 3.355469 15.871094 3.261719 16.496094 C 3.160156 17.417969 3.164062 18.144531 3.378906 19.042969 C 3.792969 20.933594 3.527344 22.886719 3.378906 24.796875 L 3.148438 24.796875 L 2.917969 21.113281 L 2.6875 21.113281 C 2.679688 20.25 2.675781 19.390625 2.671875 18.527344 L 2.667969 17.785156 L 2.664062 17.070312 L 2.660156 16.410156 C 2.683594 15.871094 2.765625 15.417969 2.917969 14.902344 " fill-opacity="1" fill-rule="nonzero"/><g clip-path="url(#8dab7c4b35)"><path fill="#0c2240" d="M 93.03125 102.589844 L 93.492188 102.820312 L 93.132812 103.191406 C 92.742188 103.730469 92.742188 103.730469 92.785156 104.429688 C 92.980469 105.15625 92.980469 105.15625 93.59375 105.625 C 94.457031 106.0625 95.277344 106.316406 96.21875 106.546875 L 96.71875 106.730469 L 97.179688 107.421875 C 95.527344 107.28125 94.210938 106.707031 92.800781 105.855469 C 92.339844 105.351562 92.339844 105.351562 92.09375 104.558594 L 92.109375 103.738281 C 92.554688 103.0625 92.554688 103.0625 93.03125 102.589844 M 95.796875 -25.835938 L 96.488281 -25.835938 C 96.253906 -25.207031 96.007812 -24.652344 95.652344 -24.082031 L 95.335938 -23.535156 L 95.335938 -22.84375 C 95.941406 -22.542969 96.425781 -22.566406 97.101562 -22.542969 L 97.882812 -22.511719 L 98.707031 -22.484375 L 99.53125 -22.453125 C 100.207031 -22.429688 100.882812 -22.40625 101.558594 -22.382812 L 101.558594 -22.152344 C 100.578125 -22.140625 99.597656 -22.132812 98.617188 -22.125 L 97.777344 -22.113281 L 96.964844 -22.109375 L 96.21875 -22.101562 C 95.570312 -22.152344 95.195312 -22.277344 94.644531 -22.613281 C 94.71875 -23.675781 94.796875 -24.3125 95.304688 -25.261719 Z M 156.871094 97.984375 L 157.5625 97.984375 C 157.511719 98.484375 157.511719 98.484375 157.332031 99.136719 C 156.859375 99.761719 156.859375 99.761719 156.265625 100.375 L 155.679688 100.996094 C 155.464844 101.144531 155.25 101.289062 155.027344 101.4375 C 154.191406 101.425781 154.191406 101.425781 153.414062 101.207031 C 152.863281 100.878906 152.5 100.503906 152.03125 100.058594 C 152.722656 100.058594 152.722656 100.058594 153.398438 100.429688 L 154.105469 100.746094 C 154.59375 100.65625 154.59375 100.65625 155.027344 100.289062 L 155.746094 99.753906 C 156.429688 99.191406 156.429688 99.191406 156.726562 98.488281 Z M 148.34375 85.097656 C 149.742188 85.511719 150.875 86.160156 151.941406 87.15625 C 152.519531 87.769531 152.714844 88.066406 152.953125 88.894531 L 152.953125 89.46875 L 152.5625 88.980469 L 152.03125 88.320312 L 151.496094 87.613281 C 150.71875 86.765625 149.953125 86.246094 148.84375 85.878906 C 148.191406 85.761719 147.566406 85.765625 146.902344 85.773438 L 146.148438 85.78125 L 145.578125 85.789062 L 145.347656 85.328125 C 146.363281 84.988281 147.277344 84.972656 148.34375 85.097656 M 144.886719 102.820312 L 145.117188 103.28125 C 145.742188 103.351562 146.347656 103.398438 146.972656 103.421875 L 147.503906 103.449219 C 147.9375 103.472656 148.371094 103.492188 148.804688 103.507812 L 149.035156 102.820312 L 149.726562 103.050781 L 149.726562 103.96875 C 148.164062 104.246094 146.410156 104.476562 144.886719 103.96875 Z M 161.25 23.875 L 161.710938 23.875 C 161.585938 25.101562 161.214844 26.070312 160.558594 27.097656 C 159.695312 28.144531 158.828125 28.875 157.5625 29.402344 L 157.5625 28.710938 C 157.921875 28.398438 157.921875 28.398438 158.410156 28.078125 C 159.351562 27.402344 160 26.730469 160.558594 25.71875 C 160.824219 25.109375 161.039062 24.507812 161.25 23.875 M 145.117188 14.441406 L 145.808594 14.671875 L 145.808594 15.132812 L 146.195312 15.308594 C 147.011719 15.742188 147.730469 16.300781 148.472656 16.84375 C 148.988281 17.171875 149.359375 17.332031 149.957031 17.433594 L 149.957031 17.894531 L 150.394531 18.019531 L 150.964844 18.195312 L 151.53125 18.363281 L 152.03125 18.582031 L 152.492188 19.273438 C 149.816406 18.441406 147.472656 17.101562 145.40625 15.226562 L 145.117188 14.902344 Z M 10.753906 96.835938 L 11.214844 97.066406 C 10.898438 97.527344 10.898438 97.527344 10.523438 97.984375 L 10.0625 97.984375 L 10.0625 98.675781 L 11.445312 98.445312 L 11.445312 98.90625 C 10.824219 99.265625 10.824219 99.265625 10.0625 99.597656 C 9.398438 99.523438 9.398438 99.523438 8.910156 99.367188 L 8.679688 98.445312 Z M 153.644531 81.875 C 154.375 81.933594 154.824219 82.121094 155.460938 82.488281 L 156.136719 82.96875 L 156.816406 83.441406 L 157.332031 83.945312 C 157.441406 84.542969 157.441406 84.542969 157.332031 85.097656 C 156.753906 85.746094 156.753906 85.746094 156.179688 86.25 L 155.949219 85.789062 L 156.179688 85.371094 C 156.449219 84.871094 156.449219 84.871094 156.410156 84.292969 C 156.207031 83.664062 156.207031 83.664062 155.585938 83.199219 C 154.652344 82.722656 153.992188 82.636719 152.953125 82.566406 C 153.226562 82.207031 153.226562 82.207031 153.644531 81.875 M 180.839844 64.152344 L 181.132812 64.554688 C 181.519531 65.058594 181.910156 65.550781 182.320312 66.039062 L 182.722656 66.523438 C 183.117188 66.9375 183.117188 66.9375 183.617188 67.105469 L 184.066406 67.144531 C 184.691406 66.863281 184.691406 66.863281 185.21875 66.453125 L 185.449219 65.996094 L 186.140625 65.996094 C 185.996094 66.398438 185.996094 66.398438 185.679688 66.914062 C 185.03125 67.449219 185.03125 67.449219 184.296875 67.835938 C 183.75 67.8125 183.75 67.8125 183.144531 67.605469 C 182.535156 67.113281 182.535156 67.113281 181.933594 66.5 L 181.324219 65.890625 C 180.839844 65.304688 180.839844 65.304688 180.640625 64.785156 L 180.609375 64.382812 Z M 180.839844 64.152344 " fill-opacity="1" fill-rule="nonzero"/></g><g clip-path="url(#a95ae901a9)"><path fill="#0c2240" d="M 54.082031 81.644531 C 54.601562 81.703125 54.601562 81.703125 55.234375 81.875 C 56.714844 83.097656 57.621094 84.78125 58.460938 86.476562 C 58.039062 86.316406 58.039062 86.316406 57.539062 86.019531 C 57.195312 85.519531 57.195312 85.519531 56.875 84.925781 C 56.277344 83.878906 55.683594 83.125 54.773438 82.335938 L 54.082031 82.105469 Z M 149.265625 10.296875 C 149.828125 10.355469 150.378906 10.425781 150.933594 10.511719 C 152.003906 10.671875 153.023438 10.785156 154.105469 10.757812 L 154.105469 11.21875 C 152.320312 11.242188 150.574219 11.210938 148.804688 10.988281 L 148.804688 11.449219 L 148.113281 11.21875 C 148.488281 10.824219 148.773438 10.542969 149.265625 10.296875 M 55.003906 -14.558594 L 55.808594 -14.445312 C 57.457031 -14.257812 59.113281 -14.308594 60.765625 -14.328125 C 60.539062 -13.988281 60.539062 -13.988281 60.074219 -13.636719 C 59.429688 -13.574219 58.789062 -13.550781 58.144531 -13.566406 L 57.617188 -13.5625 C 56.644531 -13.574219 55.890625 -13.65625 55.003906 -14.097656 Z M 7.296875 95.683594 L 7.757812 95.683594 C 7.777344 96.222656 7.777344 96.757812 7.757812 97.296875 L 7.296875 97.984375 C 6.910156 97.917969 6.527344 97.839844 6.144531 97.753906 L 5.914062 97.527344 C 5.90625 97.140625 5.90625 96.757812 5.914062 96.375 L 7.066406 96.144531 L 6.835938 96.835938 L 7.296875 96.835938 Z M 84.964844 66.683594 L 85.425781 66.914062 L 85.886719 68.296875 L 88.882812 68.296875 L 89.113281 68.757812 C 88.464844 68.761719 87.816406 68.765625 87.167969 68.769531 L 86.605469 68.777344 C 86.136719 68.777344 85.664062 68.769531 85.195312 68.757812 L 84.964844 68.527344 C 84.929688 67.910156 84.953125 67.300781 84.964844 66.683594 M 101.558594 -26.988281 L 101.558594 -26.527344 L 101.167969 -26.511719 C 100.582031 -26.492188 99.996094 -26.464844 99.410156 -26.441406 L 98.796875 -26.417969 L 98.203125 -26.390625 L 97.660156 -26.371094 C 97.109375 -26.320312 97.109375 -26.320312 96.488281 -25.835938 L 96.257812 -26.296875 L 96.488281 -26.757812 C 98.222656 -27.304688 99.765625 -27.191406 101.558594 -26.988281 M 20.203125 94.304688 C 20.75 94.492188 20.75 94.492188 21.355469 94.765625 L 21.816406 95.453125 L 21.355469 96.375 L 19.742188 96.144531 L 19.742188 95.453125 L 20.203125 95.683594 L 19.972656 94.992188 L 20.433594 94.992188 Z M 162.171875 92.921875 C 162.507812 92.910156 162.84375 92.902344 163.179688 92.894531 L 163.746094 92.878906 L 164.246094 92.921875 L 164.707031 93.382812 L 164.707031 94.304688 L 164.289062 94.085938 C 163.761719 93.820312 163.761719 93.820312 163.09375 93.613281 L 162.402344 94.074219 L 161.710938 93.84375 Z M 48.78125 85.328125 C 49.121094 86.34375 49.019531 87.371094 49.003906 88.433594 C 48.992188 89.496094 49.0625 90.492188 49.242188 91.542969 C 48.78125 91.082031 48.78125 91.082031 48.519531 90.289062 C 48.183594 88.8125 48.152344 87.324219 48.550781 85.859375 Z M 48.78125 85.328125 " fill-opacity="1" fill-rule="nonzero"/></g><g clip-path="url(#c9d237ff07)"><path fill="#0c2240" d="M 147.320312 79.300781 L 148.113281 79.289062 C 148.804688 79.34375 148.804688 79.34375 149.496094 79.804688 C 149.539062 80.40625 149.539062 80.40625 149.496094 80.953125 L 148.804688 80.722656 L 148.804688 80.035156 L 145.117188 80.035156 L 144.886719 79.574219 C 145.699219 79.324219 146.46875 79.304688 147.320312 79.300781 M 200.886719 48.964844 L 201.808594 49.421875 C 201.898438 49.898438 201.898438 49.898438 201.808594 50.574219 C 201.398438 51.15625 200.925781 51.671875 200.425781 52.183594 L 199.734375 51.957031 C 199.820312 51.855469 199.902344 51.753906 199.988281 51.652344 C 200.320312 51.226562 200.621094 50.8125 200.886719 50.34375 C 200.984375 49.585938 200.984375 49.585938 200.886719 48.964844 M 3.609375 91.542969 C 4.414062 91.597656 4.414062 91.597656 5.222656 91.773438 L 5.683594 92.230469 L 4.300781 92 L 4.300781 92.921875 L 4.761719 93.613281 L 3.378906 93.152344 C 3.234375 92.605469 3.234375 92.605469 3.148438 92 Z M 116.769531 7.535156 C 117.59375 7.886719 118.136719 8.375 118.769531 9.003906 L 119.320312 9.539062 C 119.765625 10.066406 119.765625 10.066406 119.941406 10.59375 L 119.996094 10.988281 C 119.589844 11.234375 119.589844 11.234375 119.074219 11.449219 C 118.554688 11.363281 118.554688 11.363281 118.152344 11.21875 L 118.152344 10.988281 L 119.304688 10.757812 C 118.769531 9.695312 117.996094 8.964844 117.148438 8.152344 L 116.769531 7.765625 Z M 169.316406 -26.527344 L 169.085938 -25.375 C 168.449219 -25.117188 168.449219 -25.117188 167.703125 -24.914062 C 167.152344 -25.117188 167.152344 -25.117188 166.78125 -25.375 C 167.027344 -25.570312 167.277344 -25.761719 167.527344 -25.953125 L 167.949219 -26.273438 C 168.394531 -26.527344 168.394531 -26.527344 169.316406 -26.527344 M 108.703125 14.441406 L 109.625 14.441406 L 109.625 16.511719 L 108.242188 16.511719 L 108.242188 16.050781 L 108.703125 16.050781 L 108.574219 15.375 L 108.472656 14.671875 Z M 108.703125 14.441406 " fill-opacity="1" fill-rule="nonzero"/></g><g clip-path="url(#b18a9bd70c)"><path fill="#0c2240" d="M 145.578125 105.351562 L 148.574219 105.582031 L 148.574219 106.042969 L 147.882812 106.5 C 147.015625 106.429688 146.332031 106.246094 145.578125 105.8125 Z M 134.976562 -25.605469 L 135.207031 -25.144531 L 134.976562 -24.457031 L 135.207031 -23.765625 C 136.015625 -23.480469 136.015625 -23.480469 136.820312 -23.304688 L 136.820312 -22.84375 L 134.746094 -23.074219 C 134.472656 -23.691406 134.472656 -23.691406 134.285156 -24.457031 C 134.601562 -25.117188 134.601562 -25.117188 134.976562 -25.605469 M 178.304688 58.859375 L 178.996094 59.320312 C 179.652344 59.460938 180.3125 59.554688 180.976562 59.652344 L 181.53125 59.78125 L 181.761719 60.242188 L 178.535156 60.011719 Z M 151.570312 102.128906 C 152.621094 102.253906 153.40625 102.542969 154.335938 103.050781 L 153.644531 103.28125 L 153.09375 103.164062 C 152.433594 103.039062 151.984375 103.113281 151.339844 103.28125 Z M 20.203125 91.542969 L 21.355469 91.773438 L 21.585938 92.691406 C 20.9375 93.167969 20.9375 93.167969 20.203125 93.613281 L 19.511719 93.382812 L 19.957031 92.964844 C 20.480469 92.484375 20.480469 92.484375 20.664062 91.773438 Z M 118.152344 62.3125 L 121.378906 63.003906 L 121.378906 62.542969 L 121.839844 62.542969 L 121.609375 63.464844 C 120.226562 63.535156 119.386719 63.390625 118.152344 62.773438 Z M 145.117188 25.257812 L 151.800781 25.71875 L 151.800781 25.949219 C 151.097656 26 150.398438 26.046875 149.695312 26.09375 L 149.097656 26.136719 C 147.964844 26.207031 147.101562 26.179688 146.039062 25.71875 Z M 65.835938 63.691406 L 66.296875 63.691406 C 66.054688 64.511719 65.710938 65.015625 65.113281 65.605469 L 64.453125 66.226562 L 63.761719 65.996094 L 64.28125 65.492188 C 64.917969 64.867188 64.917969 64.867188 65.417969 64.195312 Z M 116.308594 60.929688 C 116.871094 61.390625 116.871094 61.390625 117.230469 61.851562 L 116.871094 61.738281 C 115.828125 61.523438 114.789062 61.527344 113.773438 61.851562 L 113.542969 61.390625 C 114.492188 60.929688 115.253906 60.816406 116.308594 60.929688 M 191.902344 51.496094 C 193.667969 51.757812 193.667969 51.757812 194.421875 52.242188 C 194.746094 52.515625 195.054688 52.808594 195.355469 53.105469 L 195.125 53.566406 L 194.78125 53.332031 C 193.753906 52.660156 192.867188 52.230469 191.671875 51.957031 Z M 191.902344 51.496094 " fill-opacity="1" fill-rule="nonzero"/></g><path fill="#b50f08" d="M 18.589844 14.441406 L 19.050781 14.441406 L 19.050781 17.433594 L 18.589844 17.433594 C 18.34375 16.695312 18.371094 16.308594 18.460938 15.546875 L 18.53125 14.917969 Z M 18.589844 14.441406 " fill-opacity="1" fill-rule="nonzero"/><path fill="#b50f08" d="M 16.976562 13.519531 L 18.589844 13.519531 L 18.820312 14.210938 L 18.359375 14.210938 L 18.128906 14.671875 L 17.898438 14.210938 C 17.433594 13.949219 17.433594 13.949219 16.976562 13.75 Z M 16.976562 13.519531 " fill-opacity="1" fill-rule="nonzero"/></svg>