<svg xmlns="http://www.w3.org/2000/svg" xmlns:xlink="http://www.w3.org/1999/xlink" width="48" zoomAndPan="magnify" viewBox="0 0 36 36.000001" height="48" preserveAspectRatio="xMidYMid meet" version="1.0"><defs><clipPath id="30a5dcebcb"><path d="M 0.488281 0 L 35.511719 0 L 35.511719 35.027344 L 0.488281 35.027344 Z M 0.488281 0 " clip-rule="nonzero"/></clipPath><clipPath id="f07423e5fb"><path d="M 6 0 L 35.511719 0 L 35.511719 29 L 6 29 Z M 6 0 " clip-rule="nonzero"/></clipPath><clipPath id="5e620fd26c"><path d="M 2 0 L 35.511719 0 L 35.511719 16 L 2 16 Z M 2 0 " clip-rule="nonzero"/></clipPath><clipPath id="f6efe60ccb"><path d="M 13 0 L 35.511719 0 L 35.511719 16 L 13 16 Z M 13 0 " clip-rule="nonzero"/></clipPath><clipPath id="e65b5998f0"><path d="M 28 0 L 35.511719 0 L 35.511719 15 L 28 15 Z M 28 0 " clip-rule="nonzero"/></clipPath><clipPath id="f6fe42c75b"><path d="M 28 0 L 35.511719 0 L 35.511719 18 L 28 18 Z M 28 0 " clip-rule="nonzero"/></clipPath><clipPath id="60da518a3c"><path d="M 8 0 L 35.511719 0 L 35.511719 31 L 8 31 Z M 8 0 " clip-rule="nonzero"/></clipPath><clipPath id="2adcff22c0"><path d="M 5 0 L 35.511719 0 L 35.511719 22 L 5 22 Z M 5 0 " clip-rule="nonzero"/></clipPath><clipPath id="4ef754d9b9"><path d="M 2 0 L 35.511719 0 L 35.511719 18 L 2 18 Z M 2 0 " clip-rule="nonzero"/></clipPath><clipPath id="c04c4f3854"><path d="M 18 0 L 35.511719 0 L 35.511719 30 L 18 30 Z M 18 0 " clip-rule="nonzero"/></clipPath></defs><g clip-path="url(#30a5dcebcb)"><rect x="-3.6" width="43.2" fill="#fefefe" y="-3.6" height="43.200001" fill-opacity="1"/></g><g clip-path="url(#f07423e5fb)"><path fill="#cf1b15" d="M 99.5625 5.941406 C 101.007812 6.65625 102.460938 7.683594 103.453125 8.964844 C 104.390625 10.457031 105.082031 11.96875 105.183594 13.734375 C 105.207031 15.820312 104.609375 17.613281 103.683594 19.464844 C 103.019531 20.640625 102.210938 21.726562 101.425781 22.820312 L 101.105469 23.261719 C 100.847656 23.617188 100.570312 23.960938 100.289062 24.300781 L 99.859375 24.300781 L 99.710938 24.761719 C 99.363281 25.515625 98.910156 26.023438 98.347656 26.632812 L 97.769531 27.269531 L 97.269531 27.75 L 96.835938 27.75 L 96.40625 28.613281 C 96 28.558594 96 28.558594 95.542969 28.394531 C 95.394531 28.109375 95.25 27.824219 95.109375 27.535156 L 94.722656 27.359375 C 94.09375 27.019531 93.769531 26.585938 93.328125 26.027344 L 92.867188 25.445312 L 92.519531 24.949219 L 92.519531 24.515625 L 92.085938 24.515625 C 91.820312 24.214844 91.820312 24.214844 91.523438 23.789062 L 91.195312 23.324219 L 90.847656 22.820312 L 90.492188 22.308594 C 87.53125 18.03125 87.53125 18.03125 87.121094 15.464844 C 86.984375 13.585938 87.21875 12.148438 87.992188 10.449219 C 88.792969 8.867188 89.949219 7.65625 91.414062 6.667969 C 93.792969 5.308594 96.960938 5.015625 99.5625 5.941406 M 136.558594 -31.308594 C 138.355469 -30.886719 139.808594 -30.191406 141.222656 -28.996094 C 142.074219 -28.183594 142.789062 -27.308594 143.464844 -26.351562 L 143.78125 -25.917969 C 145.144531 -23.804688 145.464844 -20.835938 145.625 -18.375 C 146.15625 -18.679688 146.15625 -18.679688 146.703125 -19.238281 C 147.371094 -20.484375 147.679688 -21.71875 147.78125 -23.117188 C 148.175781 -23.0625 148.175781 -23.0625 148.644531 -22.902344 C 149.167969 -22.316406 149.546875 -21.636719 149.941406 -20.960938 L 150.242188 -20.453125 C 151.222656 -18.652344 151.6875 -16.730469 151.75 -14.683594 C 151.691406 -12.800781 151.175781 -11.179688 150.238281 -9.554688 C 149.175781 -7.960938 147.847656 -7.113281 146.160156 -6.242188 C 145.269531 -5.824219 144.453125 -5.542969 143.464844 -5.441406 L 143.464844 -5.875 L 143.898438 -5.875 L 143.898438 -6.304688 L 144.394531 -6.761719 C 144.941406 -7.347656 145.265625 -7.824219 145.515625 -8.582031 C 145.785156 -9.878906 145.84375 -11.238281 145.429688 -12.503906 C 145.28125 -12.835938 145.121094 -13.160156 144.949219 -13.480469 C 144.761719 -13.847656 144.761719 -13.847656 144.761719 -14.28125 L 144.328125 -14.28125 L 144.257812 -13.894531 C 144.058594 -12.898438 143.847656 -12.105469 143.25 -11.261719 C 142.859375 -11.316406 142.859375 -11.316406 142.386719 -11.476562 C 141.570312 -12.367188 141.351562 -13.445312 141.046875 -14.582031 C 140.65625 -16.335938 140.867188 -17.730469 141.378906 -19.441406 L 141.523438 -19.882812 C 140.136719 -19.222656 139.164062 -18.34375 138.285156 -17.082031 C 137.457031 -15.34375 137.078125 -13.609375 137.203125 -11.695312 C 137.324219 -10.898438 137.472656 -10.109375 137.636719 -9.324219 C 137.132812 -9.375 137.132812 -9.375 136.558594 -9.539062 C 136.230469 -9.929688 136.230469 -9.929688 135.976562 -10.402344 C 135.816406 -10.691406 135.652344 -10.980469 135.476562 -11.261719 L 135.046875 -11.476562 C 134.792969 -10.21875 134.699219 -9.046875 134.980469 -7.789062 C 135.332031 -7.015625 135.773438 -6.503906 136.339844 -5.875 L 136.125 -5.441406 C 134.039062 -6.320312 132.445312 -7.4375 130.945312 -9.109375 C 130.414062 -9.867188 130.015625 -10.628906 129.648438 -11.476562 L 129.429688 -11.921875 C 128.722656 -13.574219 128.839844 -15.542969 129 -17.296875 C 129.417969 -19.773438 130.519531 -21.667969 132.089844 -23.589844 C 132.28125 -23.789062 132.472656 -23.988281 132.671875 -24.195312 L 133.101562 -24.195312 L 133.0625 -23.574219 C 133.066406 -22.527344 133.289062 -21.472656 133.75 -20.53125 C 134.183594 -20.246094 134.183594 -20.246094 134.613281 -20.101562 L 134.832031 -20.960938 L 135.261719 -20.960938 L 135.425781 -21.378906 C 135.574219 -21.75 135.730469 -22.117188 135.898438 -22.476562 C 136.800781 -24.390625 137.148438 -26.167969 136.988281 -28.289062 C 136.894531 -28.800781 136.785156 -29.308594 136.652344 -29.808594 C 136.539062 -30.316406 136.523438 -30.789062 136.558594 -31.308594 M 12.875 -100.589844 L 13.488281 -100.59375 C 13.917969 -100.59375 14.34375 -100.59375 14.773438 -100.59375 C 15.421875 -100.589844 16.070312 -100.597656 16.71875 -100.605469 C 17.136719 -100.605469 17.554688 -100.605469 17.972656 -100.601562 L 18.554688 -100.609375 C 19.9375 -100.59375 21.152344 -100.328125 22.359375 -99.632812 C 22.972656 -99.015625 23.507812 -98.382812 23.773438 -97.542969 C 23.902344 -96.894531 23.925781 -96.265625 23.957031 -95.605469 L 23.976562 -95.171875 C 23.996094 -94.699219 24.015625 -94.226562 24.035156 -93.753906 L 24.078125 -92.769531 C 24.105469 -92.078125 24.136719 -91.390625 24.164062 -90.699219 C 24.203125 -89.816406 24.238281 -88.9375 24.277344 -88.054688 C 24.339844 -86.59375 24.402344 -85.132812 24.464844 -83.675781 L 24.496094 -82.890625 L 24.519531 -82.175781 L 24.550781 -81.460938 L 24.519531 -80.882812 L 24.085938 -80.449219 L 23.222656 -80.449219 C 22.957031 -81.886719 22.988281 -83.304688 23.007812 -84.761719 L 22.566406 -84.738281 L 21.984375 -84.722656 L 21.40625 -84.699219 C 20.847656 -84.761719 20.847656 -84.761719 20.347656 -85.0625 L 19.984375 -85.410156 L 19.984375 -85.839844 L 10.917969 -85.625 L 10.488281 -83.683594 L 9.191406 -83.683594 L 9.191406 -84.761719 L 7.898438 -84.761719 L 7.898438 -80.449219 L 6.601562 -80.667969 L 6.601562 -81.097656 L 6.171875 -81.097656 C 6.148438 -82.421875 6.148438 -82.421875 6.171875 -82.820312 L 6.386719 -83.039062 C 6.441406 -83.621094 6.480469 -84.203125 6.507812 -84.789062 L 6.535156 -85.335938 C 6.613281 -87.011719 6.617188 -88.6875 6.59375 -90.363281 C 6.582031 -91.449219 6.628906 -92.496094 6.765625 -93.570312 C 6.816406 -94.023438 6.84375 -94.472656 6.863281 -94.929688 L 6.882812 -95.363281 C 6.894531 -95.652344 6.902344 -95.945312 6.910156 -96.234375 C 6.957031 -97.226562 7.164062 -97.921875 7.679688 -98.773438 C 9.191406 -100.277344 10.804688 -100.597656 12.875 -100.589844 " fill-opacity="1" fill-rule="nonzero"/></g><path fill="#fefefe" d="M 26.03125 6.84375 C 26.414062 7.140625 26.414062 7.140625 26.679688 7.488281 L 26.679688 8.136719 L 27.109375 8.136719 L 27.109375 8.820312 C 27.101562 11.253906 27.113281 13.691406 27.15625 16.128906 C 27.160156 16.535156 27.164062 16.941406 27.167969 17.347656 C 27.171875 17.945312 27.183594 18.542969 27.195312 19.140625 L 27.195312 19.691406 C 27.207031 20.164062 27.226562 20.601562 27.324219 21.066406 C 27.734375 21.589844 27.734375 21.589844 28.1875 21.929688 L 28.1875 22.359375 L 28.835938 22.578125 C 29.382812 23.351562 29.652344 24.027344 29.742188 24.964844 C 29.769531 26.160156 29.585938 27.105469 29.050781 28.179688 C 28.714844 28.71875 28.714844 28.71875 28.40625 29.042969 L 27.972656 29.042969 L 27.808594 29.445312 C 27.542969 29.90625 27.542969 29.90625 27.164062 30.179688 C 25.992188 30.71875 24.949219 30.914062 23.65625 30.863281 C 22.578125 30.703125 21.734375 30.3125 20.847656 29.691406 C 20.042969 29.003906 19.527344 28.246094 19.136719 27.265625 C 18.867188 26.308594 18.84375 25.4375 18.96875 24.457031 C 19.230469 23.464844 19.761719 22.707031 20.417969 21.929688 L 20.867188 21.546875 L 21.28125 21.066406 C 21.40625 20.488281 21.40625 20.488281 21.386719 19.847656 L 21.390625 19.101562 L 21.382812 18.300781 L 21.386719 17.476562 C 21.394531 16.457031 21.390625 15.4375 21.386719 14.414062 C 21.386719 13.417969 21.390625 12.417969 21.394531 11.417969 L 21.386719 10.621094 C 21.402344 8.574219 21.402344 8.574219 21.894531 7.660156 C 22.359375 7.058594 22.359375 7.058594 23.007812 6.625 C 24.019531 6.269531 25.042969 6.480469 26.03125 6.84375 " fill-opacity="1" fill-rule="nonzero"/><path fill="#152b46" d="M 10.917969 5.117188 C 11.566406 5.089844 11.566406 5.089844 12.214844 5.117188 L 12.429688 5.332031 C 12.445312 5.695312 12.449219 6.0625 12.445312 6.425781 L 12.4375 7.023438 L 12.429688 7.488281 L 12.8125 7.28125 C 13.460938 6.980469 14.097656 6.925781 14.804688 6.84375 L 15.019531 7.921875 C 14.523438 8.351562 14.523438 8.351562 13.941406 8.78125 L 13.292969 8.78125 L 13.078125 9.429688 L 12.644531 9.644531 L 12.429688 13.523438 L 13.804688 12.824219 L 14.238281 12.609375 C 14.765625 12.332031 15.175781 12.097656 15.527344 11.609375 C 15.699219 11.050781 15.804688 10.503906 15.898438 9.925781 C 15.960938 9.542969 16.023438 9.164062 16.101562 8.78125 L 16.316406 8.566406 C 16.855469 8.539062 16.855469 8.539062 17.394531 8.566406 L 17.613281 8.78125 C 17.625 9.109375 17.628906 9.4375 17.625 9.765625 L 17.617188 10.304688 L 17.613281 10.722656 L 17.957031 10.527344 L 18.421875 10.277344 L 18.875 10.027344 C 19.339844 9.859375 19.339844 9.859375 19.828125 9.941406 L 20.203125 10.074219 L 20.417969 11.152344 C 19.28125 11.828125 19.28125 11.828125 18.90625 12.015625 L 18.476562 12.015625 L 18.476562 12.445312 L 18.972656 12.636719 C 19.554688 12.878906 19.554688 12.878906 20.203125 13.308594 C 20.148438 13.710938 20.148438 13.710938 19.984375 14.171875 C 19.613281 14.449219 19.613281 14.449219 19.121094 14.601562 C 18.597656 14.402344 18.597656 14.402344 18.042969 14.078125 C 17.503906 13.75 17.503906 13.75 16.964844 13.523438 C 16.191406 13.585938 15.542969 14.007812 14.871094 14.371094 L 14.234375 14.714844 L 13.726562 15.03125 L 13.511719 15.464844 L 14.0625 15.625 C 14.652344 15.839844 15.054688 16.039062 15.574219 16.367188 C 16.257812 16.804688 16.257812 16.804688 16.855469 16.742188 C 17.296875 16.578125 17.726562 16.390625 18.152344 16.191406 C 18.90625 15.894531 18.90625 15.894531 19.539062 15.960938 L 19.984375 16.109375 L 20.203125 16.972656 L 18.476562 18.050781 L 20.417969 19.34375 L 19.984375 20.421875 C 18.554688 20.261719 18.554688 20.261719 17.828125 19.773438 L 17.734375 20.625 C 17.699219 20.917969 17.660156 21.207031 17.613281 21.5 L 17.394531 21.714844 C 16.964844 21.722656 16.53125 21.722656 16.101562 21.714844 C 15.878906 21.054688 15.882812 20.613281 15.882812 19.921875 C 15.855469 19.285156 15.855469 19.285156 15.667969 18.695312 C 15.101562 18.101562 14.464844 17.761719 13.726562 17.402344 L 13.011719 17.046875 L 12.429688 16.757812 C 12.347656 18.605469 12.347656 18.605469 12.644531 20.421875 C 13.160156 21.042969 13.628906 21.386719 14.320312 21.792969 C 14.480469 21.910156 14.640625 22.027344 14.804688 22.144531 C 15.007812 22.703125 15.007812 22.703125 15.019531 23.222656 L 14.589844 23.65625 C 13.730469 23.585938 13.140625 23.257812 12.429688 22.792969 L 12.4375 23.257812 L 12.445312 23.855469 L 12.453125 24.457031 L 12.429688 24.949219 L 12.214844 25.164062 C 11.78125 25.171875 11.351562 25.171875 10.917969 25.164062 C 10.574219 24.46875 10.691406 23.777344 10.703125 23.007812 L 10.125 23.238281 C 9.410156 23.4375 9.410156 23.4375 8.789062 23.359375 L 8.328125 23.222656 L 8.113281 22.359375 L 8.625 22.121094 C 9.390625 21.683594 9.914062 21.3125 10.488281 20.636719 C 10.847656 19.382812 10.761719 18.046875 10.703125 16.757812 C 10.320312 16.964844 9.9375 17.171875 9.558594 17.378906 L 8.910156 17.726562 C 8.308594 18.050781 8.308594 18.050781 7.679688 18.480469 C 7.523438 19.128906 7.523438 19.128906 7.453125 19.871094 C 7.292969 21.21875 7.292969 21.21875 6.816406 21.929688 C 6.457031 21.867188 6.097656 21.792969 5.738281 21.714844 L 5.523438 21.5 C 5.542969 21.171875 5.574219 20.84375 5.617188 20.515625 L 5.683594 19.976562 L 5.738281 19.558594 L 5.34375 19.808594 L 4.820312 20.125 L 4.304688 20.445312 L 3.796875 20.636719 C 3.3125 20.507812 3.3125 20.507812 2.933594 20.207031 L 2.714844 19.34375 L 4.441406 18.050781 L 3.808594 17.792969 L 3.148438 17.402344 C 2.933594 16.851562 2.933594 16.851562 2.933594 16.328125 L 3.363281 15.894531 C 4.207031 15.945312 4.796875 16.070312 5.550781 16.460938 L 6.171875 16.757812 C 6.984375 16.671875 7.566406 16.402344 8.261719 15.988281 C 8.566406 15.808594 8.878906 15.632812 9.191406 15.464844 L 9.625 15.464844 L 9.625 14.816406 L 9.070312 14.65625 C 8.457031 14.433594 8.128906 14.25 7.613281 13.886719 C 7.242188 13.644531 7.242188 13.644531 6.816406 13.523438 C 5.832031 13.667969 5.050781 14.054688 4.226562 14.601562 C 3.78125 14.546875 3.78125 14.546875 3.363281 14.386719 L 2.933594 13.957031 C 2.972656 13.523438 2.972656 13.523438 3.148438 13.09375 L 3.796875 12.660156 L 4.441406 12.660156 L 4.441406 12.015625 L 3.824219 11.867188 L 3.148438 11.585938 C 2.851562 11.019531 2.851562 11.019531 2.714844 10.507812 L 3.148438 10.074219 C 4.046875 10.140625 4.734375 10.296875 5.523438 10.722656 L 5.515625 10.304688 L 5.5 9.226562 L 5.523438 8.78125 L 5.738281 8.566406 C 6.097656 8.558594 6.457031 8.558594 6.816406 8.566406 L 6.816406 9.214844 L 7.25 9.214844 L 7.289062 9.65625 L 7.34375 10.238281 L 7.398438 10.8125 C 7.457031 11.292969 7.550781 11.765625 7.679688 12.230469 L 8.15625 12.304688 C 8.789062 12.453125 9.242188 12.675781 9.800781 13 L 10.316406 13.296875 L 10.703125 13.523438 C 10.789062 11.566406 10.789062 11.566406 10.488281 9.644531 C 9.96875 9.042969 9.527344 8.757812 8.816406 8.414062 L 8.328125 8.136719 C 8.125 7.695312 8.125 7.695312 8.113281 7.273438 L 8.542969 6.84375 C 9.042969 6.773438 9.042969 6.773438 9.625 6.84375 C 10.230469 7.164062 10.230469 7.164062 10.703125 7.488281 L 10.695312 7.023438 L 10.691406 6.425781 L 10.683594 5.828125 L 10.703125 5.332031 Z M 10.917969 5.117188 " fill-opacity="1" fill-rule="nonzero"/><path fill="#0c2240" d="M 26.03125 6.84375 C 26.414062 7.140625 26.414062 7.140625 26.679688 7.488281 L 26.679688 8.136719 L 27.109375 8.136719 L 27.109375 8.820312 C 27.101562 11.253906 27.113281 13.691406 27.15625 16.128906 C 27.160156 16.535156 27.164062 16.941406 27.167969 17.347656 C 27.171875 17.945312 27.183594 18.542969 27.195312 19.140625 L 27.195312 19.691406 C 27.207031 20.164062 27.226562 20.601562 27.324219 21.066406 C 27.734375 21.589844 27.734375 21.589844 28.1875 21.929688 L 28.1875 22.359375 L 28.835938 22.578125 C 29.382812 23.351562 29.652344 24.027344 29.742188 24.964844 C 29.769531 26.160156 29.585938 27.105469 29.050781 28.179688 C 28.714844 28.71875 28.714844 28.71875 28.40625 29.042969 L 27.972656 29.042969 L 27.808594 29.445312 C 27.542969 29.90625 27.542969 29.90625 27.164062 30.179688 C 25.992188 30.71875 24.949219 30.914062 23.65625 30.863281 C 22.578125 30.703125 21.734375 30.3125 20.847656 29.691406 C 20.042969 29.003906 19.527344 28.246094 19.136719 27.265625 C 18.867188 26.308594 18.84375 25.4375 18.96875 24.457031 C 19.230469 23.464844 19.761719 22.707031 20.417969 21.929688 L 20.867188 21.546875 L 21.28125 21.066406 C 21.40625 20.488281 21.40625 20.488281 21.386719 19.847656 L 21.390625 19.101562 L 21.382812 18.300781 L 21.386719 17.476562 C 21.394531 16.457031 21.390625 15.4375 21.386719 14.414062 C 21.386719 13.417969 21.390625 12.417969 21.394531 11.417969 L 21.386719 10.621094 C 21.402344 8.574219 21.402344 8.574219 21.894531 7.660156 C 22.359375 7.058594 22.359375 7.058594 23.007812 6.625 C 24.019531 6.269531 25.042969 6.480469 26.03125 6.84375 M 23.265625 8.203125 C 22.964844 8.589844 22.964844 8.589844 22.792969 9.214844 C 22.78125 9.621094 22.78125 10.03125 22.789062 10.441406 L 22.800781 11.203125 L 22.816406 12.027344 C 22.824219 12.601562 22.832031 13.175781 22.835938 13.75 C 22.847656 14.65625 22.859375 15.5625 22.878906 16.46875 C 22.890625 17.058594 22.898438 17.648438 22.902344 18.238281 C 22.910156 18.796875 22.917969 19.355469 22.933594 19.910156 C 22.9375 20.609375 22.929688 21.246094 22.792969 21.929688 C 22.160156 22.511719 22.160156 22.511719 21.496094 22.792969 C 20.839844 23.617188 20.460938 24.460938 20.296875 25.5 C 20.449219 26.441406 20.769531 27.164062 21.28125 27.964844 C 21.800781 28.582031 22.265625 28.949219 23.007812 29.257812 C 24.058594 29.402344 25.109375 29.429688 26.121094 29.078125 C 26.746094 28.730469 27.1875 28.359375 27.621094 27.792969 C 28.058594 27.035156 28.25 26.332031 28.296875 25.460938 C 28.261719 24.765625 28.160156 24.460938 27.839844 23.816406 C 27.445312 23.363281 27.097656 23.015625 26.636719 22.644531 L 26.03125 22.144531 C 25.800781 21.460938 25.785156 20.96875 25.78125 20.25 L 25.773438 19.472656 L 25.769531 18.628906 L 25.761719 17.765625 C 25.746094 16.546875 25.734375 15.324219 25.726562 14.105469 C 25.722656 13.359375 25.714844 12.609375 25.707031 11.863281 C 25.703125 11.441406 25.699219 11.019531 25.699219 10.59375 L 25.6875 9.816406 L 25.683594 9.132812 C 25.644531 8.5625 25.644531 8.5625 25.308594 8.171875 C 24.933594 7.867188 24.933594 7.867188 24.304688 7.839844 C 23.664062 7.867188 23.664062 7.867188 23.265625 8.203125 " fill-opacity="1" fill-rule="nonzero"/><path fill="#cf1b15" d="M 23.871094 13.308594 C 24.234375 13.371094 24.59375 13.441406 24.949219 13.523438 L 24.945312 14.375 C 24.945312 15.417969 24.949219 16.460938 24.960938 17.503906 C 24.964844 17.957031 24.964844 18.40625 24.960938 18.859375 C 24.957031 19.507812 24.964844 20.15625 24.972656 20.808594 L 24.960938 21.414062 C 24.976562 21.984375 25.003906 22.460938 25.167969 23.007812 C 25.523438 23.433594 25.878906 23.734375 26.332031 24.054688 C 26.679688 24.300781 26.679688 24.300781 26.894531 24.730469 C 26.960938 25.433594 26.960938 25.433594 26.894531 26.242188 C 26.546875 26.898438 26.238281 27.371094 25.652344 27.832031 C 24.910156 28.035156 24.199219 28.058594 23.441406 27.964844 C 22.832031 27.722656 22.832031 27.722656 22.359375 27.320312 C 21.957031 26.726562 21.957031 26.726562 21.714844 26.027344 C 21.714844 25.257812 21.714844 25.257812 21.929688 24.515625 C 22.402344 23.960938 22.785156 23.550781 23.441406 23.222656 L 23.445312 22.855469 C 23.46875 21.601562 23.496094 20.347656 23.519531 19.089844 C 23.53125 18.621094 23.539062 18.152344 23.546875 17.683594 C 23.558594 17.011719 23.574219 16.339844 23.585938 15.667969 L 23.597656 15.027344 L 23.613281 14.4375 L 23.621094 13.917969 L 23.65625 13.523438 Z M 23.871094 13.308594 " fill-opacity="1" fill-rule="nonzero"/><path fill="#0c2240" d="M 10.917969 5.117188 C 11.566406 5.089844 11.566406 5.089844 12.214844 5.117188 L 12.429688 5.332031 C 12.445312 5.695312 12.449219 6.0625 12.445312 6.425781 L 12.4375 7.023438 L 12.429688 7.488281 L 12.8125 7.28125 C 13.460938 6.980469 14.097656 6.925781 14.804688 6.84375 L 15.019531 7.921875 C 14.523438 8.351562 14.523438 8.351562 13.941406 8.78125 L 13.292969 8.78125 L 13.078125 9.429688 L 12.644531 9.644531 L 12.429688 13.738281 L 12 13.738281 C 11.703125 13.460938 11.414062 13.175781 11.136719 12.878906 L 10.703125 13.308594 L 10.730469 12.558594 C 10.75 11.085938 10.75 11.085938 10.488281 9.644531 C 9.96875 9.058594 9.515625 8.765625 8.816406 8.421875 L 8.328125 8.136719 C 8.125 7.695312 8.125 7.695312 8.113281 7.273438 L 8.542969 6.84375 C 9.042969 6.773438 9.042969 6.773438 9.625 6.84375 C 10.230469 7.164062 10.230469 7.164062 10.703125 7.488281 L 10.695312 7.023438 L 10.691406 6.425781 L 10.683594 5.828125 L 10.703125 5.332031 Z M 10.917969 5.117188 " fill-opacity="1" fill-rule="nonzero"/><g clip-path="url(#5e620fd26c)"><path fill="#0c2240" d="M 156.203125 -81.097656 C 156.707031 -81.105469 157.210938 -81.105469 157.710938 -81.097656 L 157.929688 -80.882812 C 157.9375 -80.378906 157.9375 -79.875 157.929688 -79.375 C 157.359375 -79.089844 156.929688 -79.128906 156.292969 -79.128906 L 155.515625 -79.125 L 153.761719 -79.125 C 152.949219 -79.121094 152.136719 -79.121094 151.320312 -79.121094 C 150.640625 -79.121094 149.964844 -79.121094 149.285156 -79.121094 C 147.683594 -79.117188 146.082031 -79.117188 144.484375 -79.117188 C 142.832031 -79.117188 141.175781 -79.117188 139.523438 -79.113281 C 138.105469 -79.109375 136.6875 -79.109375 135.269531 -79.109375 C 134.421875 -79.109375 133.574219 -79.109375 132.726562 -79.105469 C 131.933594 -79.105469 131.136719 -79.101562 130.339844 -79.105469 C 129.90625 -79.105469 129.472656 -79.105469 129.039062 -79.101562 L 128.261719 -79.105469 L 127.585938 -79.105469 L 127.058594 -79.15625 L 126.628906 -79.589844 C 126.601562 -80.261719 126.601562 -80.261719 126.628906 -80.882812 L 127.058594 -80.449219 L 127.058594 -79.804688 L 157.066406 -80.019531 L 157.28125 -80.882812 L 156.203125 -80.882812 Z M 5.738281 8.566406 C 6.097656 8.558594 6.457031 8.558594 6.816406 8.566406 L 6.816406 9.214844 L 7.25 9.214844 L 7.289062 9.65625 L 7.34375 10.238281 C 7.359375 10.425781 7.378906 10.617188 7.398438 10.8125 C 7.457031 11.292969 7.550781 11.765625 7.679688 12.230469 L 8.125 12.285156 C 8.949219 12.496094 9.546875 12.867188 10.273438 13.308594 C 9.976562 13.632812 9.976562 13.632812 9.625 13.957031 L 9.191406 13.957031 L 9.625 14.816406 C 8.859375 14.59375 8.257812 14.34375 7.613281 13.886719 C 7.242188 13.644531 7.242188 13.644531 6.816406 13.523438 C 5.832031 13.667969 5.050781 14.054688 4.226562 14.601562 C 3.78125 14.546875 3.78125 14.546875 3.363281 14.386719 L 2.933594 13.957031 C 2.972656 13.523438 2.972656 13.523438 3.148438 13.09375 L 3.796875 12.660156 L 4.441406 12.660156 L 4.441406 12.015625 L 3.824219 11.867188 L 3.148438 11.585938 C 2.851562 11.019531 2.851562 11.019531 2.714844 10.507812 L 3.148438 10.074219 C 4.046875 10.140625 4.734375 10.296875 5.523438 10.722656 L 5.515625 10.304688 L 5.5 9.226562 L 5.523438 8.78125 Z M 16.316406 8.566406 C 16.855469 8.539062 16.855469 8.539062 17.394531 8.566406 L 17.613281 8.78125 C 17.625 9.109375 17.628906 9.4375 17.625 9.765625 L 17.617188 10.304688 L 17.613281 10.722656 L 17.957031 10.527344 L 18.421875 10.277344 L 18.875 10.027344 C 19.339844 9.859375 19.339844 9.859375 19.828125 9.941406 L 20.203125 10.074219 L 20.417969 11.152344 C 19.28125 11.828125 19.28125 11.828125 18.90625 12.015625 L 18.476562 12.015625 L 18.476562 12.445312 L 18.972656 12.636719 C 19.554688 12.878906 19.554688 12.878906 20.203125 13.308594 C 20.148438 13.710938 20.148438 13.710938 19.984375 14.171875 C 19.613281 14.449219 19.613281 14.449219 19.121094 14.601562 C 18.597656 14.402344 18.597656 14.402344 18.042969 14.078125 C 17.503906 13.75 17.503906 13.75 16.964844 13.523438 C 16.160156 13.585938 15.457031 14.039062 14.75 14.398438 L 14.046875 14.757812 L 13.511719 15.03125 L 13.078125 14.601562 L 13.726562 13.957031 L 13.292969 13.09375 L 13.742188 12.917969 C 14.410156 12.597656 14.910156 12.304688 15.453125 11.800781 C 15.824219 10.808594 15.957031 9.828125 16.101562 8.78125 Z M 114.539062 -80.667969 C 114.941406 -80.722656 114.941406 -80.722656 115.402344 -80.71875 L 115.859375 -80.722656 L 116.265625 -80.667969 L 116.695312 -80.234375 C 116.628906 -79.683594 116.628906 -79.683594 116.480469 -79.15625 L 116.265625 -78.941406 C 115.835938 -78.921875 115.40625 -78.914062 114.980469 -78.914062 L 112.210938 -78.914062 C 111.320312 -78.914062 110.429688 -78.914062 109.539062 -78.914062 C 108.605469 -78.914062 107.675781 -78.914062 106.746094 -78.914062 C 105.183594 -78.914062 103.621094 -78.914062 102.058594 -78.914062 C 100.246094 -78.914062 98.4375 -78.914062 96.628906 -78.914062 C 95.078125 -78.914062 93.527344 -78.914062 91.976562 -78.914062 C 91.046875 -78.914062 90.121094 -78.914062 89.195312 -78.914062 C 88.320312 -78.914062 87.449219 -78.914062 86.578125 -78.914062 C 86.257812 -78.914062 85.9375 -78.914062 85.617188 -78.914062 C 85.179688 -78.914062 84.742188 -78.914062 84.308594 -78.914062 L 83.566406 -78.914062 L 83.019531 -78.941406 L 82.804688 -79.15625 C 82.796875 -79.589844 82.796875 -80.019531 82.804688 -80.449219 C 83.433594 -80.21875 83.835938 -80.066406 84.316406 -79.589844 C 84.820312 -79.523438 84.820312 -79.523438 85.414062 -79.535156 L 86.121094 -79.53125 L 86.898438 -79.535156 L 87.71875 -79.535156 C 88.457031 -79.535156 89.199219 -79.535156 89.941406 -79.539062 C 90.71875 -79.539062 91.496094 -79.539062 92.273438 -79.539062 C 93.582031 -79.539062 94.886719 -79.542969 96.195312 -79.542969 C 97.703125 -79.546875 99.210938 -79.550781 100.714844 -79.550781 C 102.324219 -79.550781 103.933594 -79.550781 105.539062 -79.550781 C 106 -79.554688 106.460938 -79.554688 106.921875 -79.554688 C 107.785156 -79.554688 108.652344 -79.554688 109.515625 -79.558594 L 110.28125 -79.558594 C 111.855469 -79.5625 113.40625 -79.648438 114.96875 -79.804688 L 114.105469 -80.234375 Z M 114.539062 -80.667969 " fill-opacity="1" fill-rule="nonzero"/></g><path fill="#193049" d="M 19.566406 15.949219 L 19.984375 16.109375 L 20.203125 16.972656 L 18.476562 18.050781 L 20.417969 19.34375 L 19.984375 20.421875 C 19.117188 20.351562 18.453125 20.25 17.734375 19.761719 L 17.179688 19.34375 L 16.746094 19.558594 L 16.746094 19.128906 L 16.101562 19.128906 L 16.019531 18.601562 L 15.882812 18.050781 L 15.453125 17.835938 L 15.667969 16.757812 L 16.195312 16.8125 C 16.941406 16.757812 17.292969 16.632812 17.949219 16.3125 C 18.59375 16.003906 18.835938 15.890625 19.566406 15.949219 " fill-opacity="1" fill-rule="nonzero"/><g clip-path="url(#f6efe60ccb)"><path fill="#0c2240" d="M 105.6875 -92.738281 C 106.300781 -92.527344 106.71875 -92.351562 107.191406 -91.898438 C 108.15625 -91.230469 109.179688 -91.054688 110.316406 -90.796875 C 110.78125 -90.6875 111.25 -90.574219 111.714844 -90.464844 L 112.398438 -90.300781 C 113.203125 -90.109375 114 -89.898438 114.792969 -89.679688 L 115.464844 -89.496094 C 116.085938 -89.273438 116.589844 -89.023438 117.128906 -88.640625 C 117.304688 -88.0625 117.304688 -88.0625 117.34375 -87.5625 L 116.820312 -87.671875 C 116.324219 -87.785156 116.324219 -87.785156 116.050781 -87.78125 L 115.832031 -87.347656 L 115.617188 -87.5625 C 114.890625 -87.625 114.167969 -87.660156 113.4375 -87.699219 L 112.8125 -87.78125 L 112.59375 -88.210938 L 113.457031 -88.425781 L 113.457031 -88.855469 L 113.027344 -89.074219 L 112.8125 -89.503906 C 112.367188 -89.667969 111.917969 -89.816406 111.460938 -89.949219 L 110.714844 -90.171875 C 110.121094 -90.335938 109.53125 -90.464844 108.925781 -90.582031 C 107.730469 -90.90625 106.878906 -91.414062 105.957031 -92.238281 L 105.6875 -92.519531 Z M 79.351562 -94.246094 C 79.78125 -94.265625 80.214844 -94.269531 80.648438 -94.265625 L 81.441406 -94.265625 L 82.277344 -94.257812 L 83.117188 -94.257812 C 83.804688 -94.253906 84.492188 -94.25 85.179688 -94.246094 L 85.179688 -92.738281 L 79.351562 -92.738281 L 79.136719 -94.03125 Z M 29.917969 -20.53125 C 30.375 -20.542969 30.832031 -20.550781 31.292969 -20.558594 L 32.066406 -20.574219 L 32.722656 -20.53125 L 33.152344 -20.101562 C 33.195312 -19.570312 33.210938 -19.039062 33.203125 -18.507812 L 33.203125 -18.035156 C 33.203125 -17.703125 33.203125 -17.371094 33.199219 -17.039062 C 33.195312 -16.53125 33.195312 -16.023438 33.195312 -15.511719 C 33.195312 -15.191406 33.191406 -14.871094 33.191406 -14.550781 L 33.191406 -14.085938 C 33.183594 -13.71875 33.171875 -13.351562 33.152344 -12.988281 L 32.9375 -12.773438 C 32.394531 -12.71875 31.851562 -12.679688 31.304688 -12.648438 L 30.839844 -12.621094 C 30.460938 -12.597656 30.082031 -12.578125 29.699219 -12.554688 L 29.484375 -13.203125 C 30.289062 -13.328125 31.042969 -13.417969 31.859375 -13.417969 C 32.476562 -16.664062 32.476562 -16.664062 32.074219 -19.882812 L 29.917969 -20.316406 Z M 14.589844 12.445312 C 15.101562 12.621094 15.101562 12.621094 15.453125 12.878906 L 15.453125 13.09375 L 16.035156 12.945312 L 16.800781 12.757812 L 17.5625 12.566406 C 18.257812 12.445312 18.257812 12.445312 18.746094 12.515625 C 19.269531 12.71875 19.726562 13.007812 20.203125 13.308594 C 20.148438 13.714844 20.148438 13.714844 19.984375 14.171875 C 19.613281 14.449219 19.613281 14.449219 19.121094 14.601562 C 18.597656 14.402344 18.597656 14.402344 18.042969 14.078125 C 17.503906 13.75 17.503906 13.75 16.964844 13.523438 C 16.160156 13.585938 15.457031 14.039062 14.75 14.398438 L 14.046875 14.757812 L 13.511719 15.03125 L 13.078125 14.601562 L 13.726562 13.957031 L 13.292969 13.09375 C 13.886719 12.742188 13.886719 12.742188 14.589844 12.445312 " fill-opacity="1" fill-rule="nonzero"/></g><path fill="#1a314a" d="M 10.917969 5.117188 C 11.566406 5.089844 11.566406 5.089844 12.214844 5.117188 L 12.429688 5.332031 C 12.445312 5.695312 12.449219 6.0625 12.445312 6.425781 L 12.4375 7.023438 L 12.429688 7.488281 L 13.292969 7.703125 C 12.992188 8.261719 12.695312 8.730469 12.253906 9.1875 L 11.78125 9.429688 C 11.347656 9.371094 10.917969 9.296875 10.488281 9.214844 C 10.519531 8.570312 10.550781 7.929688 10.582031 7.289062 L 10.609375 6.730469 L 10.636719 6.203125 L 10.660156 5.714844 L 10.703125 5.332031 Z M 10.917969 5.117188 " fill-opacity="1" fill-rule="nonzero"/><path fill="#193049" d="M 16.746094 10.292969 L 16.964844 10.9375 L 18.257812 10.9375 L 18.257812 11.367188 L 18.691406 11.585938 L 18.257812 11.800781 L 18.257812 12.660156 L 17.660156 12.796875 L 16.882812 12.972656 L 16.109375 13.144531 C 15.476562 13.277344 15.476562 13.277344 15.019531 13.523438 L 15.019531 12.878906 L 14.804688 12.230469 L 15.316406 12.070312 L 15.882812 11.800781 C 16.175781 11.363281 16.175781 11.363281 16.316406 10.9375 L 16.746094 11.152344 Z M 16.746094 10.292969 " fill-opacity="1" fill-rule="nonzero"/><g clip-path="url(#e65b5998f0)"><path fill="#0c2240" d="M 28.835938 12.660156 C 29.199219 12.648438 29.566406 12.644531 29.929688 12.648438 L 30.53125 12.65625 L 30.996094 12.660156 C 31.078125 13.164062 31.148438 13.667969 31.210938 14.171875 L 30.996094 14.386719 C 30.640625 14.414062 30.285156 14.425781 29.929688 14.425781 L 29.34375 14.4375 L 28.835938 14.386719 L 28.40625 13.957031 C 28.472656 13.402344 28.472656 13.402344 28.621094 12.878906 Z M 188.796875 -18.589844 C 189.148438 -18.597656 189.5 -18.601562 189.851562 -18.605469 L 190.441406 -18.613281 C 190.957031 -18.589844 190.957031 -18.589844 191.390625 -18.375 C 191.628906 -17.660156 191.640625 -17.105469 191.644531 -16.355469 L 191.65625 -15.621094 C 191.605469 -14.925781 191.507812 -14.460938 191.171875 -13.847656 C 190.578125 -13.652344 190.230469 -13.609375 189.621094 -13.621094 L 188.796875 -13.632812 L 189.015625 -14.066406 L 190.527344 -14.496094 C 190.851562 -15.144531 190.761719 -15.742188 190.753906 -16.460938 L 190.75 -17.300781 L 190.742188 -17.945312 L 188.796875 -18.375 Z M 188.796875 -18.589844 " fill-opacity="1" fill-rule="nonzero"/></g><g clip-path="url(#f6fe42c75b)"><path fill="#0c2240" d="M 112.378906 -8.03125 L 114.105469 -7.597656 C 114.113281 -7.28125 114.117188 -6.960938 114.121094 -6.640625 L 114.128906 -6.105469 L 114.105469 -5.660156 L 113.890625 -5.441406 C 113.570312 -5.425781 113.246094 -5.417969 112.925781 -5.421875 L 112.335938 -5.425781 L 111.71875 -5.429688 L 111.097656 -5.433594 C 110.589844 -5.433594 110.082031 -5.4375 109.574219 -5.441406 L 109.355469 -5.875 L 113.027344 -6.089844 L 113.242188 -7.382812 L 112.378906 -7.8125 Z M 28.835938 15.679688 C 29.351562 15.617188 29.351562 15.617188 29.941406 15.640625 L 30.539062 15.65625 L 30.996094 15.679688 L 31.210938 17.1875 C 30.292969 17.4375 29.550781 17.351562 28.621094 17.1875 C 28.484375 16.796875 28.484375 16.796875 28.40625 16.328125 Z M 28.835938 9.644531 C 29.398438 9.582031 29.398438 9.582031 30.050781 9.605469 L 30.707031 9.621094 L 31.210938 9.644531 L 31.210938 11.152344 L 28.621094 11.152344 L 28.40625 10.292969 Z M 48.914062 -9.109375 L 50.855469 -8.03125 L 50.855469 -7.597656 C 53.199219 -6.757812 55.519531 -6.589844 57.980469 -6.953125 L 57.765625 -6.519531 C 56.347656 -6.066406 55.015625 -5.894531 53.550781 -6.207031 C 51.78125 -6.699219 50.253906 -7.40625 48.914062 -8.675781 Z M 78.054688 -86.484375 C 78.410156 -86.507812 78.765625 -86.515625 79.121094 -86.511719 L 79.707031 -86.515625 C 80.214844 -86.484375 80.214844 -86.484375 80.644531 -86.269531 C 80.65625 -85.910156 80.65625 -85.550781 80.644531 -85.191406 L 80.429688 -84.976562 C 80.074219 -84.957031 79.71875 -84.949219 79.363281 -84.949219 L 78.777344 -84.949219 C 78.273438 -84.976562 78.273438 -84.976562 77.839844 -85.191406 C 77.832031 -85.550781 77.832031 -85.910156 77.839844 -86.269531 Z M 78.054688 -86.484375 " fill-opacity="1" fill-rule="nonzero"/></g><path fill="#1a314a" d="M 4.875 10.9375 C 5.46875 10.882812 5.46875 10.882812 6.171875 10.9375 C 6.695312 11.300781 6.695312 11.300781 7.035156 11.800781 C 6.980469 12.394531 6.980469 12.394531 6.816406 12.878906 C 5.578125 12.90625 5.578125 12.90625 5.089844 12.660156 L 5.089844 12.230469 L 4.441406 12.445312 C 4.566406 11.9375 4.710938 11.433594 4.875 10.9375 " fill-opacity="1" fill-rule="nonzero"/><path fill="#0c2240" d="M 12 22.578125 L 12.429688 22.578125 C 12.4375 22.96875 12.441406 23.359375 12.445312 23.75 L 12.453125 24.40625 L 12.429688 24.949219 L 12.214844 25.164062 C 11.78125 25.171875 11.351562 25.171875 10.917969 25.164062 C 10.574219 24.46875 10.691406 23.777344 10.703125 23.007812 L 12 23.222656 Z M 12 22.578125 " fill-opacity="1" fill-rule="nonzero"/><g clip-path="url(#60da518a3c)"><path fill="#0c2240" d="M 87.121094 26.242188 L 87.554688 26.457031 L 87.21875 26.808594 C 86.851562 27.3125 86.851562 27.3125 86.894531 27.964844 C 87.078125 28.644531 87.078125 28.644531 87.648438 29.082031 C 88.457031 29.496094 89.226562 29.730469 90.109375 29.945312 L 90.578125 30.121094 L 91.007812 30.765625 C 89.460938 30.636719 88.230469 30.097656 86.90625 29.300781 C 86.476562 28.828125 86.476562 28.828125 86.246094 28.085938 L 86.257812 27.320312 C 86.675781 26.6875 86.675781 26.6875 87.121094 26.242188 M 89.710938 -94.03125 L 90.359375 -94.03125 C 90.140625 -93.441406 89.910156 -92.921875 89.578125 -92.386719 L 89.28125 -91.875 L 89.28125 -91.226562 C 89.847656 -90.945312 90.300781 -90.964844 90.9375 -90.945312 L 91.667969 -90.917969 L 92.4375 -90.890625 L 93.210938 -90.863281 C 93.84375 -90.839844 94.476562 -90.816406 95.109375 -90.796875 L 95.109375 -90.582031 C 94.191406 -90.570312 93.273438 -90.5625 92.355469 -90.554688 L 91.566406 -90.542969 L 90.808594 -90.539062 L 90.109375 -90.53125 C 89.5 -90.582031 89.148438 -90.699219 88.632812 -91.011719 C 88.703125 -92.007812 88.777344 -92.605469 89.253906 -93.492188 Z M 146.917969 21.929688 L 147.566406 21.929688 C 147.519531 22.398438 147.519531 22.398438 147.351562 23.007812 C 146.910156 23.59375 146.910156 23.59375 146.351562 24.167969 L 145.804688 24.75 C 145.601562 24.886719 145.402344 25.023438 145.191406 25.164062 C 144.410156 25.152344 144.410156 25.152344 143.679688 24.949219 C 143.167969 24.640625 142.824219 24.289062 142.386719 23.871094 C 143.035156 23.871094 143.035156 23.871094 143.667969 24.21875 L 144.328125 24.515625 C 144.789062 24.429688 144.789062 24.429688 145.191406 24.085938 L 145.867188 23.585938 C 146.507812 23.058594 146.507812 23.058594 146.785156 22.402344 Z M 138.933594 9.859375 C 140.242188 10.246094 141.304688 10.855469 142.304688 11.785156 C 142.84375 12.363281 143.027344 12.640625 143.25 13.417969 L 143.25 13.957031 L 142.886719 13.496094 L 142.386719 12.878906 L 141.886719 12.21875 C 141.160156 11.425781 140.4375 10.933594 139.402344 10.59375 C 138.789062 10.480469 138.203125 10.488281 137.582031 10.492188 L 136.878906 10.5 L 136.339844 10.507812 L 136.125 10.074219 C 137.078125 9.757812 137.933594 9.742188 138.933594 9.859375 M 135.695312 26.457031 L 135.910156 26.886719 C 136.496094 26.953125 137.0625 27 137.648438 27.023438 L 138.144531 27.046875 C 138.550781 27.066406 138.957031 27.085938 139.363281 27.101562 L 139.578125 26.457031 L 140.226562 26.671875 L 140.226562 27.535156 C 138.765625 27.792969 137.121094 28.007812 135.695312 27.535156 Z M 151.019531 -47.472656 L 151.453125 -47.472656 C 151.335938 -46.328125 150.992188 -45.417969 150.375 -44.457031 C 149.566406 -43.476562 148.753906 -42.792969 147.566406 -42.300781 L 147.566406 -42.945312 C 147.90625 -43.242188 147.90625 -43.242188 148.363281 -43.539062 C 149.242188 -44.171875 149.851562 -44.800781 150.375 -45.75 C 150.621094 -46.320312 150.824219 -46.882812 151.019531 -47.472656 M 135.910156 -56.3125 L 136.558594 -56.09375 L 136.558594 -55.664062 L 136.921875 -55.496094 C 137.683594 -55.09375 138.355469 -54.570312 139.054688 -54.058594 C 139.535156 -53.75 139.882812 -53.601562 140.441406 -53.507812 L 140.441406 -53.078125 L 140.851562 -52.960938 L 141.386719 -52.792969 L 141.917969 -52.636719 L 142.386719 -52.429688 L 142.816406 -51.785156 C 140.3125 -52.5625 138.117188 -53.816406 136.183594 -55.574219 L 135.910156 -55.878906 Z M 10.054688 20.851562 L 10.488281 21.066406 C 10.191406 21.5 10.191406 21.5 9.839844 21.929688 L 9.410156 21.929688 L 9.410156 22.578125 L 10.703125 22.359375 L 10.703125 22.792969 C 10.125 23.128906 10.125 23.128906 9.410156 23.4375 C 8.789062 23.371094 8.789062 23.371094 8.328125 23.222656 L 8.113281 22.359375 Z M 143.898438 6.84375 C 144.582031 6.894531 145.003906 7.074219 145.601562 7.417969 L 146.230469 7.867188 L 146.871094 8.308594 L 147.351562 8.78125 C 147.453125 9.339844 147.453125 9.339844 147.351562 9.859375 C 146.8125 10.464844 146.8125 10.464844 146.273438 10.9375 L 146.054688 10.507812 L 146.273438 10.117188 C 146.523438 9.648438 146.523438 9.648438 146.488281 9.105469 C 146.296875 8.515625 146.296875 8.515625 145.71875 8.082031 C 144.84375 7.636719 144.222656 7.554688 143.25 7.488281 C 143.503906 7.152344 143.503906 7.152344 143.898438 6.84375 M 169.371094 -9.753906 L 169.648438 -9.378906 C 170.007812 -8.90625 170.375 -8.445312 170.757812 -7.988281 L 171.136719 -7.535156 C 171.503906 -7.148438 171.503906 -7.148438 171.972656 -6.992188 L 172.390625 -6.953125 C 172.976562 -7.214844 172.976562 -7.214844 173.472656 -7.597656 L 173.6875 -8.03125 L 174.335938 -8.03125 C 174.199219 -7.652344 174.199219 -7.652344 173.902344 -7.167969 C 173.296875 -6.667969 173.296875 -6.667969 172.609375 -6.304688 C 172.097656 -6.324219 172.097656 -6.324219 171.527344 -6.519531 C 170.957031 -6.984375 170.957031 -6.984375 170.394531 -7.558594 L 169.824219 -8.128906 C 169.371094 -8.675781 169.371094 -8.675781 169.183594 -9.164062 L 169.152344 -9.539062 Z M 169.371094 -9.753906 " fill-opacity="1" fill-rule="nonzero"/></g><path fill="#b50f08" d="M 23.871094 13.308594 L 24.949219 13.523438 L 24.949219 16.328125 L 24.519531 16.328125 L 24.480469 15.910156 L 24.371094 14.832031 L 24.304688 14.386719 L 24.085938 14.171875 L 23.871094 18.480469 L 23.65625 18.480469 C 23.648438 17.660156 23.644531 16.839844 23.640625 16.015625 L 23.636719 15.304688 L 23.632812 14.628906 L 23.632812 14.003906 L 23.65625 13.523438 Z M 23.871094 13.308594 " fill-opacity="1" fill-rule="nonzero"/><path fill="#0c2240" d="M 10.917969 5.117188 C 11.566406 5.089844 11.566406 5.089844 12.214844 5.117188 L 12.429688 5.332031 C 12.460938 5.910156 12.441406 6.480469 12.429688 7.058594 L 11.929688 6.949219 C 11.34375 6.824219 11.34375 6.824219 10.703125 6.84375 C 10.695312 6.339844 10.695312 5.835938 10.703125 5.332031 Z M 10.917969 5.117188 " fill-opacity="1" fill-rule="nonzero"/><g clip-path="url(#2adcff22c0)"><path fill="#0c2240" d="M 50.640625 6.625 C 51.125 6.683594 51.125 6.683594 51.71875 6.84375 C 53.105469 7.988281 53.957031 9.566406 54.742188 11.152344 C 54.347656 11 54.347656 11 53.878906 10.722656 C 53.554688 10.253906 53.554688 10.253906 53.257812 9.699219 C 52.695312 8.71875 52.140625 8.011719 51.289062 7.273438 L 50.640625 7.058594 Z M 139.796875 -60.191406 C 140.320312 -60.136719 140.839844 -60.070312 141.359375 -59.988281 C 142.363281 -59.839844 143.316406 -59.734375 144.328125 -59.757812 L 144.328125 -59.328125 C 142.65625 -59.304688 141.023438 -59.335938 139.363281 -59.542969 L 139.363281 -59.113281 L 138.714844 -59.328125 C 139.070312 -59.695312 139.335938 -59.960938 139.796875 -60.191406 M 51.503906 -83.46875 L 52.257812 -83.359375 C 53.800781 -83.183594 55.351562 -83.234375 56.898438 -83.253906 C 56.6875 -82.933594 56.6875 -82.933594 56.253906 -82.605469 C 55.652344 -82.546875 55.046875 -82.527344 54.445312 -82.539062 L 53.949219 -82.535156 C 53.039062 -82.546875 52.332031 -82.625 51.503906 -83.039062 Z M 6.816406 19.773438 L 7.25 19.773438 C 7.269531 20.277344 7.265625 20.78125 7.25 21.285156 L 6.816406 21.929688 C 6.457031 21.867188 6.097656 21.792969 5.738281 21.714844 L 5.523438 21.5 C 5.511719 21.140625 5.511719 20.78125 5.523438 20.421875 L 6.601562 20.207031 L 6.386719 20.851562 L 6.816406 20.851562 Z M 79.566406 -7.382812 L 80 -7.167969 L 80.429688 -5.875 L 83.238281 -5.875 L 83.453125 -5.441406 C 82.84375 -5.4375 82.238281 -5.433594 81.632812 -5.429688 L 81.105469 -5.425781 C 80.664062 -5.421875 80.222656 -5.433594 79.78125 -5.441406 L 79.566406 -5.660156 C 79.535156 -6.234375 79.558594 -6.804688 79.566406 -7.382812 M 95.109375 -95.109375 L 95.109375 -94.675781 L 94.742188 -94.664062 C 94.195312 -94.644531 93.648438 -94.621094 93.097656 -94.597656 L 92.523438 -94.574219 L 91.96875 -94.550781 L 91.457031 -94.53125 C 90.941406 -94.484375 90.941406 -94.484375 90.359375 -94.03125 L 90.144531 -94.460938 L 90.359375 -94.890625 C 91.984375 -95.40625 93.429688 -95.300781 95.109375 -95.109375 M 18.90625 18.480469 C 19.417969 18.65625 19.417969 18.65625 19.984375 18.914062 L 20.417969 19.558594 L 19.984375 20.421875 L 18.476562 20.207031 L 18.476562 19.558594 L 18.90625 19.773438 L 18.691406 19.128906 L 19.121094 19.128906 Z M 151.882812 17.1875 C 152.199219 17.175781 152.515625 17.167969 152.828125 17.160156 L 153.359375 17.144531 L 153.828125 17.1875 L 154.257812 17.621094 L 154.257812 18.480469 L 153.867188 18.28125 C 153.375 18.027344 153.375 18.027344 152.746094 17.835938 L 152.101562 18.265625 L 151.453125 18.050781 Z M 45.675781 10.074219 C 45.992188 11.027344 45.898438 11.988281 45.882812 12.984375 C 45.871094 13.980469 45.941406 14.910156 46.105469 15.894531 C 45.675781 15.464844 45.675781 15.464844 45.433594 14.722656 C 45.113281 13.339844 45.085938 11.945312 45.457031 10.574219 Z M 45.675781 10.074219 " fill-opacity="1" fill-rule="nonzero"/></g><g clip-path="url(#4ef754d9b9)"><path fill="#0c2240" d="M 137.972656 4.429688 L 138.714844 4.421875 C 139.363281 4.472656 139.363281 4.472656 140.011719 4.902344 C 140.050781 5.46875 140.050781 5.46875 140.011719 5.980469 L 139.363281 5.765625 L 139.363281 5.117188 L 135.910156 5.117188 L 135.695312 4.6875 C 136.457031 4.453125 137.175781 4.433594 137.972656 4.429688 M 188.152344 -23.980469 L 189.015625 -23.546875 C 189.09375 -23.105469 189.09375 -23.105469 189.015625 -22.472656 C 188.628906 -21.925781 188.183594 -21.441406 187.71875 -20.960938 L 187.070312 -21.175781 C 187.148438 -21.273438 187.226562 -21.367188 187.308594 -21.460938 C 187.617188 -21.859375 187.898438 -22.246094 188.152344 -22.6875 C 188.242188 -23.398438 188.242188 -23.398438 188.152344 -23.980469 M 3.363281 15.894531 C 4.121094 15.949219 4.121094 15.949219 4.875 16.109375 L 5.308594 16.542969 L 4.011719 16.328125 L 4.011719 17.1875 L 4.441406 17.835938 L 3.148438 17.402344 C 3.011719 16.890625 3.011719 16.890625 2.933594 16.328125 Z M 109.355469 -62.777344 C 110.128906 -62.449219 110.640625 -61.992188 111.234375 -61.402344 L 111.746094 -60.898438 C 112.164062 -60.40625 112.164062 -60.40625 112.328125 -59.914062 L 112.378906 -59.542969 C 112 -59.316406 112 -59.316406 111.515625 -59.113281 C 111.03125 -59.195312 111.03125 -59.195312 110.652344 -59.328125 L 110.652344 -59.542969 L 111.730469 -59.757812 C 111.234375 -60.753906 110.507812 -61.441406 109.710938 -62.199219 L 109.355469 -62.5625 Z M 158.578125 -94.675781 L 158.359375 -93.597656 C 157.765625 -93.355469 157.765625 -93.355469 157.066406 -93.167969 C 156.550781 -93.355469 156.550781 -93.355469 156.203125 -93.597656 C 156.433594 -93.78125 156.667969 -93.960938 156.902344 -94.136719 L 157.296875 -94.441406 C 157.710938 -94.675781 157.710938 -94.675781 158.578125 -94.675781 M 101.800781 -56.3125 L 102.664062 -56.3125 L 102.664062 -54.371094 L 101.371094 -54.371094 L 101.371094 -54.800781 L 101.800781 -54.800781 L 101.679688 -55.433594 L 101.585938 -56.09375 Z M 101.800781 -56.3125 " fill-opacity="1" fill-rule="nonzero"/></g><g clip-path="url(#c04c4f3854)"><path fill="#0c2240" d="M 136.339844 28.828125 L 139.148438 29.042969 L 139.148438 29.472656 L 138.5 29.90625 C 137.6875 29.835938 137.046875 29.664062 136.339844 29.257812 Z M 126.410156 -93.816406 L 126.628906 -93.382812 L 126.410156 -92.738281 L 126.628906 -92.089844 C 127.386719 -91.824219 127.386719 -91.824219 128.136719 -91.660156 L 128.136719 -91.226562 L 126.195312 -91.445312 C 125.9375 -92.023438 125.9375 -92.023438 125.761719 -92.738281 C 126.058594 -93.355469 126.058594 -93.355469 126.410156 -93.816406 M 166.996094 -14.710938 L 167.644531 -14.28125 C 168.257812 -14.152344 168.875 -14.0625 169.5 -13.96875 L 170.015625 -13.847656 L 170.234375 -13.417969 L 167.210938 -13.632812 Z M 141.953125 25.808594 C 142.941406 25.925781 143.675781 26.195312 144.542969 26.671875 L 143.898438 26.886719 L 143.382812 26.78125 C 142.761719 26.660156 142.34375 26.730469 141.738281 26.886719 Z M 18.90625 15.894531 L 19.984375 16.109375 L 20.203125 16.972656 C 19.59375 17.417969 19.59375 17.417969 18.90625 17.835938 L 18.257812 17.621094 L 18.675781 17.230469 C 19.167969 16.777344 19.167969 16.777344 19.339844 16.109375 Z M 110.652344 -11.476562 L 113.675781 -10.832031 L 113.675781 -11.261719 L 114.105469 -11.261719 L 113.890625 -10.402344 C 112.597656 -10.332031 111.808594 -10.46875 110.652344 -11.046875 Z M 135.910156 -46.179688 L 142.167969 -45.75 L 142.167969 -45.535156 C 141.511719 -45.484375 140.855469 -45.441406 140.199219 -45.398438 L 139.640625 -45.355469 C 138.578125 -45.292969 137.769531 -45.316406 136.773438 -45.75 Z M 61.648438 -10.183594 L 62.082031 -10.183594 C 61.855469 -9.417969 61.535156 -8.949219 60.976562 -8.394531 L 60.355469 -7.8125 L 59.707031 -8.03125 L 60.191406 -8.5 C 60.789062 -9.085938 60.789062 -9.085938 61.257812 -9.714844 Z M 108.925781 -12.773438 C 109.453125 -12.339844 109.453125 -12.339844 109.789062 -11.910156 L 109.453125 -12.015625 C 108.476562 -12.21875 107.503906 -12.214844 106.550781 -11.910156 L 106.335938 -12.339844 C 107.226562 -12.769531 107.941406 -12.878906 108.925781 -12.773438 M 179.730469 -21.609375 C 181.386719 -21.363281 181.386719 -21.363281 182.09375 -20.910156 C 182.394531 -20.652344 182.683594 -20.378906 182.96875 -20.101562 L 182.753906 -19.667969 L 182.429688 -19.890625 C 181.46875 -20.519531 180.636719 -20.921875 179.515625 -21.175781 Z M 179.730469 -21.609375 " fill-opacity="1" fill-rule="nonzero"/></g><path fill="#0d2340" d="M 2.933594 19.128906 L 3.363281 19.992188 L 5.089844 19.558594 L 5.089844 19.992188 C 4.496094 20.339844 4.496094 20.339844 3.796875 20.636719 C 3.296875 20.515625 3.296875 20.515625 2.933594 20.207031 C 2.757812 19.761719 2.757812 19.761719 2.714844 19.34375 Z M 2.933594 19.128906 " fill-opacity="1" fill-rule="nonzero"/></svg>