<svg xmlns="http://www.w3.org/2000/svg" xmlns:xlink="http://www.w3.org/1999/xlink" width="48" zoomAndPan="magnify" viewBox="0 0 36 36.000001" height="48" preserveAspectRatio="xMidYMid meet" version="1.0"><defs><clipPath id="98eb51576d"><path d="M 0.488281 0 L 35.511719 0 L 35.511719 35.027344 L 0.488281 35.027344 Z M 0.488281 0 " clip-rule="nonzero"/></clipPath><clipPath id="9f79515caa"><path d="M 0.488281 0 L 35.511719 0 L 35.511719 28 L 0.488281 28 Z M 0.488281 0 " clip-rule="nonzero"/></clipPath><clipPath id="947415bc0a"><path d="M 6 0 L 35.511719 0 L 35.511719 29 L 6 29 Z M 6 0 " clip-rule="nonzero"/></clipPath><clipPath id="35e2457f70"><path d="M 0.488281 0 L 35.511719 0 L 35.511719 15 L 0.488281 15 Z M 0.488281 0 " clip-rule="nonzero"/></clipPath><clipPath id="da7b23f7e4"><path d="M 0.488281 0 L 35.511719 0 L 35.511719 15 L 0.488281 15 Z M 0.488281 0 " clip-rule="nonzero"/></clipPath><clipPath id="6eac038dad"><path d="M 0.488281 0 L 35.511719 0 L 35.511719 14 L 0.488281 14 Z M 0.488281 0 " clip-rule="nonzero"/></clipPath><clipPath id="d09083d81b"><path d="M 0.488281 0 L 35.511719 0 L 35.511719 17 L 0.488281 17 Z M 0.488281 0 " clip-rule="nonzero"/></clipPath><clipPath id="c9cddb197d"><path d="M 0.488281 0 L 35.511719 0 L 35.511719 31 L 0.488281 31 Z M 0.488281 0 " clip-rule="nonzero"/></clipPath><clipPath id="6e92307449"><path d="M 0.488281 0 L 35.511719 0 L 35.511719 22 L 0.488281 22 Z M 0.488281 0 " clip-rule="nonzero"/></clipPath><clipPath id="71d573dc74"><path d="M 0.488281 0 L 35.511719 0 L 35.511719 18 L 0.488281 18 Z M 0.488281 0 " clip-rule="nonzero"/></clipPath><clipPath id="368c69a4bc"><path d="M 0.488281 0 L 35.511719 0 L 35.511719 30 L 0.488281 30 Z M 0.488281 0 " clip-rule="nonzero"/></clipPath><clipPath id="6bb295a487"><path d="M 8 0 L 35.511719 0 L 35.511719 29 L 8 29 Z M 8 0 " clip-rule="nonzero"/></clipPath><clipPath id="162c973bf3"><path d="M 24 0 L 35.511719 0 L 35.511719 20 L 24 20 Z M 24 0 " clip-rule="nonzero"/></clipPath></defs><g clip-path="url(#98eb51576d)"><rect x="-3.6" width="43.2" fill="#fefefe" y="-3.6" height="43.200001" fill-opacity="1"/></g><g clip-path="url(#9f79515caa)"><path fill="#cf1b15" d="M 60.683594 5.246094 C 62.128906 5.960938 63.578125 6.988281 64.574219 8.269531 C 65.511719 9.761719 66.203125 11.273438 66.300781 13.039062 C 66.328125 15.125 65.730469 16.917969 64.804688 18.769531 C 64.136719 19.941406 63.332031 21.03125 62.542969 22.125 L 62.226562 22.566406 C 61.964844 22.921875 61.6875 23.265625 61.410156 23.605469 L 60.976562 23.605469 L 60.832031 24.066406 C 60.484375 24.820312 60.03125 25.328125 59.46875 25.9375 L 58.886719 26.574219 L 58.386719 27.054688 L 57.957031 27.054688 L 57.523438 27.917969 C 57.121094 27.863281 57.121094 27.863281 56.660156 27.699219 C 56.511719 27.414062 56.371094 27.128906 56.230469 26.839844 L 55.839844 26.664062 C 55.210938 26.324219 54.886719 25.890625 54.449219 25.332031 L 53.984375 24.75 L 53.640625 24.253906 L 53.640625 23.820312 L 53.207031 23.820312 C 52.941406 23.519531 52.941406 23.519531 52.644531 23.09375 L 52.3125 22.628906 L 51.964844 22.125 L 51.609375 21.613281 C 48.652344 17.335938 48.652344 17.335938 48.242188 14.769531 C 48.105469 12.890625 48.339844 11.453125 49.113281 9.753906 C 49.910156 8.171875 51.066406 6.960938 52.53125 5.972656 C 54.910156 4.613281 58.082031 4.320312 60.683594 5.246094 M 97.675781 -32.003906 C 99.472656 -31.582031 100.929688 -30.886719 102.34375 -29.691406 C 103.195312 -28.882812 103.90625 -28.003906 104.585938 -27.046875 L 104.902344 -26.613281 C 106.265625 -24.5 106.585938 -21.53125 106.742188 -19.070312 C 107.277344 -19.375 107.277344 -19.375 107.824219 -19.933594 C 108.492188 -21.179688 108.796875 -22.414062 108.902344 -23.8125 C 109.292969 -23.757812 109.292969 -23.757812 109.765625 -23.597656 C 110.289062 -23.011719 110.664062 -22.332031 111.0625 -21.65625 L 111.359375 -21.148438 C 112.339844 -19.347656 112.808594 -17.425781 112.867188 -15.378906 C 112.8125 -13.496094 112.296875 -11.875 111.359375 -10.25 C 110.296875 -8.65625 108.964844 -7.808594 107.28125 -6.9375 C 106.390625 -6.519531 105.574219 -6.238281 104.585938 -6.140625 L 104.585938 -6.570312 L 105.015625 -6.570312 L 105.015625 -7 L 105.515625 -7.457031 C 106.0625 -8.042969 106.382812 -8.519531 106.632812 -9.277344 C 106.90625 -10.574219 106.960938 -11.933594 106.546875 -13.199219 C 106.398438 -13.53125 106.238281 -13.855469 106.070312 -14.175781 C 105.878906 -14.542969 105.878906 -14.542969 105.878906 -14.976562 L 105.449219 -14.976562 L 105.375 -14.589844 C 105.175781 -13.59375 104.96875 -12.800781 104.367188 -11.957031 C 103.976562 -12.011719 103.976562 -12.011719 103.503906 -12.171875 C 102.6875 -13.0625 102.472656 -14.140625 102.167969 -15.277344 C 101.777344 -17.03125 101.988281 -18.425781 102.5 -20.136719 L 102.640625 -20.578125 C 101.257812 -19.917969 100.285156 -19.039062 99.402344 -17.777344 C 98.574219 -16.042969 98.199219 -14.304688 98.324219 -12.390625 C 98.441406 -11.59375 98.589844 -10.804688 98.757812 -10.019531 C 98.253906 -10.074219 98.253906 -10.074219 97.675781 -10.234375 C 97.351562 -10.625 97.351562 -10.625 97.097656 -11.097656 C 96.9375 -11.386719 96.769531 -11.675781 96.597656 -11.957031 L 96.164062 -12.171875 C 95.914062 -10.914062 95.820312 -9.742188 96.097656 -8.484375 C 96.449219 -7.710938 96.890625 -7.199219 97.460938 -6.570312 L 97.246094 -6.140625 C 95.160156 -7.015625 93.566406 -8.132812 92.0625 -9.804688 C 91.535156 -10.5625 91.132812 -11.324219 90.769531 -12.171875 L 90.546875 -12.617188 C 89.84375 -14.269531 89.957031 -16.238281 90.121094 -17.992188 C 90.539062 -20.46875 91.636719 -22.363281 93.210938 -24.285156 C 93.402344 -24.484375 93.59375 -24.683594 93.792969 -24.890625 L 94.222656 -24.890625 L 94.183594 -24.269531 C 94.183594 -23.222656 94.410156 -22.167969 94.871094 -21.226562 C 95.304688 -20.941406 95.304688 -20.941406 95.734375 -20.796875 L 95.949219 -21.65625 L 96.382812 -21.65625 L 96.542969 -22.074219 C 96.695312 -22.445312 96.847656 -22.8125 97.019531 -23.171875 C 97.921875 -25.085938 98.269531 -26.863281 98.109375 -28.984375 C 98.015625 -29.496094 97.902344 -30.003906 97.773438 -30.503906 C 97.65625 -31.011719 97.644531 -31.484375 97.675781 -32.003906 M -26.007812 -101.285156 L -25.390625 -101.289062 C -24.960938 -101.289062 -24.535156 -101.289062 -24.105469 -101.289062 C -23.457031 -101.285156 -22.808594 -101.292969 -22.160156 -101.300781 C -21.742188 -101.300781 -21.324219 -101.300781 -20.90625 -101.296875 L -20.328125 -101.304688 C -18.945312 -101.289062 -17.730469 -101.023438 -16.519531 -100.328125 C -15.910156 -99.710938 -15.375 -99.078125 -15.109375 -98.238281 C -14.976562 -97.589844 -14.953125 -96.960938 -14.925781 -96.300781 L -14.90625 -95.867188 C -14.886719 -95.394531 -14.867188 -94.921875 -14.847656 -94.449219 L -14.804688 -93.464844 C -14.773438 -92.773438 -14.746094 -92.085938 -14.714844 -91.394531 C -14.679688 -90.511719 -14.640625 -89.632812 -14.601562 -88.75 C -14.539062 -87.289062 -14.476562 -85.828125 -14.417969 -84.371094 L -14.382812 -83.585938 L -14.359375 -82.871094 L -14.332031 -82.15625 L -14.359375 -81.578125 L -14.792969 -81.148438 L -15.65625 -81.148438 C -15.921875 -82.582031 -15.890625 -84 -15.871094 -85.457031 L -16.3125 -85.433594 L -16.898438 -85.417969 L -17.472656 -85.394531 C -18.03125 -85.457031 -18.03125 -85.457031 -18.535156 -85.757812 L -18.894531 -86.105469 L -18.894531 -86.535156 L -27.960938 -86.320312 L -28.394531 -84.378906 L -29.6875 -84.378906 L -29.6875 -85.457031 L -30.984375 -85.457031 L -30.984375 -81.148438 L -32.277344 -81.363281 L -32.277344 -81.792969 L -32.710938 -81.792969 C -32.730469 -83.117188 -32.730469 -83.117188 -32.710938 -83.515625 L -32.496094 -83.734375 C -32.441406 -84.316406 -32.402344 -84.898438 -32.371094 -85.484375 L -32.34375 -86.03125 C -32.265625 -87.707031 -32.265625 -89.382812 -32.285156 -91.058594 C -32.296875 -92.144531 -32.253906 -93.191406 -32.117188 -94.265625 C -32.0625 -94.71875 -32.035156 -95.167969 -32.015625 -95.625 L -32 -96.058594 C -31.988281 -96.347656 -31.976562 -96.640625 -31.96875 -96.929688 C -31.921875 -97.921875 -31.714844 -98.617188 -31.199219 -99.46875 C -29.691406 -100.972656 -28.074219 -101.292969 -26.007812 -101.285156 " fill-opacity="1" fill-rule="nonzero"/></g><g clip-path="url(#947415bc0a)"><path fill="#193049" d="M 68.316406 -65.414062 C 68.710938 -65.386719 68.710938 -65.386719 69.179688 -65.195312 C 69.773438 -64.671875 69.773438 -64.671875 70.261719 -64.117188 L 70.261719 -63.6875 L 70.621094 -63.539062 C 71.265625 -63.175781 71.722656 -62.726562 72.242188 -62.207031 L 72.820312 -61.640625 C 73.28125 -61.101562 73.28125 -61.101562 73.457031 -60.601562 L 73.5 -60.238281 C 72.925781 -59.925781 72.660156 -59.808594 71.988281 -59.808594 L 71.988281 -44.289062 L 74.792969 -44.289062 L 75.226562 -44.074219 C 75.253906 -42.835938 75.253906 -42.835938 75.011719 -42.347656 C 70.734375 -42.34375 66.460938 -42.339844 62.1875 -42.339844 C 60.203125 -42.335938 58.21875 -42.335938 56.234375 -42.332031 C 54.503906 -42.332031 52.773438 -42.328125 51.046875 -42.328125 C 50.128906 -42.328125 49.214844 -42.328125 48.296875 -42.328125 C 47.4375 -42.324219 46.574219 -42.324219 45.714844 -42.324219 C 45.394531 -42.324219 45.078125 -42.324219 44.761719 -42.324219 C 44.332031 -42.324219 43.898438 -42.324219 43.46875 -42.324219 L 42.738281 -42.324219 L 42.199219 -42.347656 L 41.980469 -42.566406 C 41.972656 -43.066406 41.972656 -43.570312 41.980469 -44.074219 C 42.644531 -44.402344 43.335938 -44.3125 44.058594 -44.300781 L 44.519531 -44.300781 C 44.898438 -44.296875 45.273438 -44.292969 45.652344 -44.289062 L 45.644531 -44.792969 C 45.621094 -47.394531 45.621094 -47.394531 45.867188 -48.601562 C 46.515625 -49.03125 46.515625 -49.03125 47.105469 -49.078125 C 47.335938 -49.078125 47.566406 -49.074219 47.804688 -49.074219 L 48.566406 -49.070312 L 49.363281 -49.058594 L 50.164062 -49.050781 C 50.820312 -49.046875 51.472656 -49.039062 52.128906 -49.03125 L 52.113281 -49.816406 C 52.109375 -50.15625 52.105469 -50.496094 52.101562 -50.835938 L 52.089844 -51.355469 C 52.085938 -51.800781 52.105469 -52.25 52.128906 -52.695312 L 52.558594 -53.125 C 53.183594 -53.195312 53.183594 -53.195312 53.972656 -53.214844 L 54.824219 -53.242188 L 55.714844 -53.261719 L 56.617188 -53.285156 C 57.351562 -53.308594 58.085938 -53.324219 58.820312 -53.34375 L 58.898438 -54.082031 L 59.007812 -55.039062 L 59.058594 -55.527344 C 59.109375 -55.949219 59.179688 -56.371094 59.25 -56.789062 L 59.683594 -57.222656 C 61.0625 -57.519531 62.398438 -57.421875 63.785156 -57.222656 L 63.785156 -55.066406 L 61.410156 -55.066406 L 61.425781 -54.335938 C 61.429688 -54.015625 61.433594 -53.699219 61.4375 -53.382812 C 61.441406 -53.222656 61.445312 -53.0625 61.449219 -52.898438 C 61.453125 -52.472656 61.433594 -52.042969 61.410156 -51.617188 L 60.976562 -50.972656 C 60.335938 -50.898438 60.335938 -50.898438 59.519531 -50.90625 L 59.085938 -50.910156 C 58.628906 -50.914062 58.171875 -50.921875 57.714844 -50.929688 C 57.402344 -50.933594 57.09375 -50.9375 56.78125 -50.941406 C 56.023438 -50.945312 55.261719 -50.957031 54.503906 -50.972656 L 54.515625 -50.238281 C 54.523438 -49.921875 54.527344 -49.605469 54.527344 -49.285156 C 54.53125 -49.128906 54.535156 -48.96875 54.539062 -48.804688 C 54.542969 -48.378906 54.523438 -47.949219 54.503906 -47.523438 L 54.070312 -46.875 C 53.464844 -46.800781 53.464844 -46.800781 52.707031 -46.8125 L 51.882812 -46.820312 L 51.019531 -46.835938 C 50.730469 -46.839844 50.441406 -46.839844 50.152344 -46.84375 C 49.445312 -46.851562 48.734375 -46.863281 48.027344 -46.875 C 48.019531 -46.527344 48.015625 -46.175781 48.011719 -45.824219 L 48.003906 -45.234375 C 47.992188 -44.714844 47.992188 -44.714844 48.242188 -44.289062 L 65.078125 -44.289062 L 65.296875 -59.808594 L 63.785156 -60.238281 C 63.871094 -60.722656 63.957031 -61.046875 64.265625 -61.4375 L 64.597656 -61.753906 L 64.964844 -62.109375 L 65.351562 -62.476562 C 66.070312 -63.167969 66.777344 -63.851562 67.410156 -64.625 C 67.886719 -65.195312 67.886719 -65.195312 68.316406 -65.414062 M 16.078125 -28.554688 C 16.628906 -28.359375 16.921875 -28.144531 17.316406 -27.707031 L 17.589844 -27.261719 L 17.589844 -26.613281 L 17.976562 -26.457031 C 18.542969 -26.132812 18.765625 -25.816406 19.121094 -25.273438 L 19.492188 -24.710938 L 19.882812 -24.109375 L 20.285156 -23.496094 C 20.683594 -22.882812 21.078125 -22.269531 21.472656 -21.65625 L 21.816406 -21.132812 C 22.113281 -20.667969 22.40625 -20.207031 22.703125 -19.746094 L 22.960938 -19.339844 C 23.84375 -17.929688 24.441406 -16.59375 24.535156 -14.921875 C 24.453125 -13.292969 24.085938 -11.828125 23.199219 -10.449219 C 22.355469 -9.257812 21.480469 -8.445312 20.179688 -7.769531 C 18.710938 -7.105469 17.347656 -6.6875 15.722656 -6.730469 C 13.867188 -6.929688 12.179688 -7.714844 10.652344 -8.753906 C 9.558594 -9.722656 8.855469 -11.121094 8.332031 -12.46875 C 7.929688 -13.84375 7.925781 -15.21875 8.199219 -16.617188 C 8.828125 -18.632812 10.148438 -20.363281 11.328125 -22.089844 L 11.6875 -22.617188 C 12.394531 -23.664062 13.109375 -24.703125 13.828125 -25.738281 C 14.097656 -26.128906 14.363281 -26.523438 14.632812 -26.914062 L 15.039062 -27.503906 L 15.371094 -27.992188 C 15.644531 -28.339844 15.644531 -28.339844 16.078125 -28.554688 M 11.570312 5.769531 C 12.089844 5.785156 12.089844 5.785156 12.621094 5.929688 C 14.1875 7.140625 15.175781 8.949219 16.078125 10.671875 L 16.375 11.238281 C 16.84375 12.1875 16.84375 12.1875 16.941406 12.613281 C 16.820312 13.039062 16.820312 13.039062 16.507812 13.476562 C 15.945312 13.9375 15.945312 13.9375 15.292969 14.390625 L 14.636719 14.851562 L 14.132812 15.199219 C 14.21875 15.789062 14.316406 16.222656 14.625 16.738281 C 16.015625 18.5 17.855469 20.550781 19.960938 21.449219 C 20.503906 21.480469 20.503906 21.480469 21.042969 21.234375 C 21.460938 20.84375 21.820312 20.472656 22.1875 20.035156 L 22.484375 19.695312 C 22.726562 19.421875 22.964844 19.144531 23.199219 18.863281 C 24.585938 19.085938 25.542969 19.476562 26.722656 20.234375 C 27.554688 20.742188 28.433594 21.148438 29.316406 21.558594 C 29.917969 21.894531 30.316406 22.21875 30.757812 22.742188 C 30.890625 23.429688 30.890625 23.429688 30.757812 24.253906 C 30.390625 24.953125 29.9375 25.566406 29.460938 26.191406 L 28.976562 26.894531 C 28.128906 27.738281 27.378906 28.230469 26.222656 28.5625 C 24.023438 28.886719 21.945312 28.617188 19.875 27.835938 C 16.851562 26.476562 14.394531 24.5625 11.976562 22.3125 L 11.476562 21.855469 C 9.160156 19.660156 7.679688 17.082031 6.578125 14.121094 C 6.261719 12.882812 6.15625 11.480469 6.476562 10.230469 C 6.632812 9.851562 6.632812 9.851562 7.011719 9.164062 L 7.347656 8.519531 C 8.101562 7.59375 9.035156 7.007812 10.03125 6.363281 C 10.644531 5.957031 10.871094 5.835938 11.570312 5.769531 " fill-opacity="1" fill-rule="nonzero"/></g><g clip-path="url(#35e2457f70)"><path fill="#0c2240" d="M 117.320312 -81.792969 C 117.824219 -81.800781 118.328125 -81.800781 118.832031 -81.792969 L 119.046875 -81.578125 C 119.058594 -81.074219 119.058594 -80.570312 119.046875 -80.070312 C 118.476562 -79.785156 118.050781 -79.824219 117.410156 -79.824219 L 116.636719 -79.820312 L 114.882812 -79.820312 C 114.070312 -79.816406 113.253906 -79.816406 112.441406 -79.816406 C 111.761719 -79.816406 111.082031 -79.816406 110.40625 -79.816406 C 108.804688 -79.8125 107.203125 -79.8125 105.601562 -79.8125 C 103.949219 -79.8125 102.296875 -79.8125 100.644531 -79.808594 C 99.226562 -79.804688 97.808594 -79.804688 96.390625 -79.804688 C 95.542969 -79.804688 94.695312 -79.804688 93.847656 -79.800781 C 93.050781 -79.800781 92.253906 -79.800781 91.457031 -79.800781 C 91.023438 -79.800781 90.59375 -79.800781 90.160156 -79.796875 L 89.382812 -79.800781 L 88.707031 -79.800781 L 88.179688 -79.851562 L 87.746094 -80.285156 C 87.71875 -80.957031 87.71875 -80.957031 87.746094 -81.578125 L 88.179688 -81.148438 L 88.179688 -80.5 L 118.183594 -80.714844 L 118.402344 -81.578125 L 117.320312 -81.578125 Z M -33.140625 7.871094 C -32.78125 7.863281 -32.421875 7.863281 -32.0625 7.871094 L -32.0625 8.519531 L -31.632812 8.519531 L -31.589844 8.960938 L -31.535156 9.542969 C -31.519531 9.730469 -31.5 9.921875 -31.484375 10.117188 C -31.425781 10.597656 -31.332031 11.070312 -31.199219 11.535156 L -30.753906 11.589844 C -29.929688 11.800781 -29.332031 12.171875 -28.609375 12.613281 C -28.90625 12.9375 -28.90625 12.9375 -29.257812 13.261719 L -29.6875 13.261719 L -29.257812 14.121094 C -30.023438 13.898438 -30.621094 13.648438 -31.265625 13.191406 C -31.636719 12.949219 -31.636719 12.949219 -32.0625 12.828125 C -33.046875 12.972656 -33.832031 13.359375 -34.652344 13.90625 C -35.097656 13.851562 -35.097656 13.851562 -35.515625 13.691406 L -35.949219 13.261719 C -35.90625 12.828125 -35.90625 12.828125 -35.734375 12.398438 L -35.085938 11.964844 L -34.4375 11.964844 L -34.4375 11.320312 L -35.058594 11.171875 L -35.734375 10.890625 C -36.03125 10.324219 -36.03125 10.324219 -36.164062 9.8125 L -35.734375 9.378906 C -34.832031 9.445312 -34.148438 9.601562 -33.359375 10.027344 L -33.367188 9.609375 L -33.371094 9.070312 L -33.378906 8.53125 L -33.359375 8.085938 Z M -22.5625 7.871094 C -22.023438 7.84375 -22.023438 7.84375 -21.484375 7.871094 L -21.269531 8.085938 C -21.253906 8.414062 -21.25 8.742188 -21.253906 9.070312 L -21.261719 9.609375 L -21.269531 10.027344 L -20.921875 9.832031 L -20.460938 9.582031 L -20.003906 9.332031 C -19.542969 9.164062 -19.542969 9.164062 -19.054688 9.246094 L -18.679688 9.378906 L -18.460938 10.457031 C -19.601562 11.132812 -19.601562 11.132812 -19.972656 11.320312 L -20.40625 11.320312 L -20.40625 11.75 L -19.90625 11.941406 C -19.328125 12.183594 -19.328125 12.183594 -18.679688 12.613281 C -18.734375 13.015625 -18.734375 13.015625 -18.894531 13.476562 C -19.269531 13.753906 -19.269531 13.753906 -19.757812 13.90625 C -20.285156 13.707031 -20.285156 13.707031 -20.835938 13.382812 C -21.375 13.054688 -21.375 13.054688 -21.917969 12.828125 C -22.71875 12.890625 -23.421875 13.34375 -24.128906 13.703125 L -24.835938 14.0625 L -25.371094 14.335938 L -25.800781 13.90625 L -25.15625 13.261719 L -25.585938 12.398438 L -25.136719 12.222656 C -24.46875 11.902344 -23.972656 11.609375 -23.429688 11.105469 C -23.058594 10.113281 -22.921875 9.132812 -22.78125 8.085938 Z M 75.65625 -81.363281 C 76.0625 -81.417969 76.0625 -81.417969 76.519531 -81.414062 L 76.980469 -81.417969 L 77.382812 -81.363281 L 77.816406 -80.929688 C 77.75 -80.378906 77.75 -80.378906 77.601562 -79.851562 L 77.382812 -79.636719 C 76.957031 -79.617188 76.527344 -79.609375 76.097656 -79.609375 L 73.332031 -79.609375 C 72.4375 -79.609375 71.546875 -79.609375 70.65625 -79.609375 C 69.726562 -79.609375 68.796875 -79.609375 67.867188 -79.609375 C 66.300781 -79.609375 64.738281 -79.609375 63.175781 -79.609375 C 61.367188 -79.609375 59.558594 -79.609375 57.75 -79.609375 C 56.195312 -79.609375 54.644531 -79.609375 53.09375 -79.609375 C 52.167969 -79.609375 51.242188 -79.609375 50.3125 -79.609375 C 49.441406 -79.609375 48.570312 -79.609375 47.699219 -79.609375 C 47.378906 -79.609375 47.054688 -79.609375 46.734375 -79.609375 C 46.300781 -79.609375 45.863281 -79.609375 45.425781 -79.609375 L 44.683594 -79.609375 L 44.140625 -79.636719 L 43.925781 -79.851562 C 43.914062 -80.285156 43.914062 -80.714844 43.925781 -81.148438 C 44.554688 -80.914062 44.957031 -80.761719 45.4375 -80.285156 C 45.941406 -80.21875 45.941406 -80.21875 46.535156 -80.230469 L 47.242188 -80.226562 L 48.019531 -80.230469 L 48.835938 -80.230469 C 49.578125 -80.230469 50.320312 -80.230469 51.0625 -80.234375 C 51.835938 -80.234375 52.617188 -80.234375 53.394531 -80.234375 C 54.699219 -80.234375 56.007812 -80.238281 57.316406 -80.238281 C 58.824219 -80.242188 60.328125 -80.246094 61.835938 -80.246094 C 63.441406 -80.246094 65.050781 -80.246094 66.660156 -80.246094 C 67.121094 -80.25 67.582031 -80.25 68.039062 -80.25 C 68.90625 -80.25 69.769531 -80.25 70.636719 -80.253906 L 71.402344 -80.253906 C 72.972656 -80.257812 74.523438 -80.34375 76.089844 -80.5 L 75.226562 -80.929688 Z M 75.65625 -81.363281 " fill-opacity="1" fill-rule="nonzero"/></g><path fill="#0c2240" d="M 8.738281 18.21875 C 9.632812 18.902344 9.632812 18.902344 10.03125 19.296875 C 10.222656 19.792969 10.222656 19.792969 10.25 20.15625 L 10.679688 20.15625 L 10.679688 20.589844 L 11.328125 20.804688 C 11.621094 21.15625 11.910156 21.515625 12.191406 21.882812 C 14.574219 24.464844 17.808594 26.476562 21.097656 27.660156 C 22.148438 27.949219 23.222656 27.964844 24.308594 27.984375 L 24.746094 27.996094 C 25.839844 27.992188 26.554688 27.738281 27.519531 27.269531 L 28.015625 27.066406 L 28.382812 26.839844 C 28.53125 26.554688 28.671875 26.265625 28.8125 25.976562 C 28.996094 25.695312 29.179688 25.417969 29.367188 25.140625 C 29.828125 24.417969 30.042969 23.828125 30.109375 22.960938 L 30.324219 23.390625 L 30.757812 23.390625 C 30.648438 24.414062 30.386719 25.039062 29.785156 25.867188 C 28.960938 26.960938 28.085938 27.71875 26.871094 28.347656 C 25.375 28.84375 23.4375 28.753906 21.886719 28.484375 C 17.742188 27.484375 14.46875 24.671875 11.453125 21.816406 C 10.453125 20.84375 9.46875 19.84375 8.738281 18.648438 Z M 13.320312 -92.046875 L 13.703125 -91.921875 L 13.703125 -91.492188 L 14.351562 -91.277344 C 14.75 -90.871094 15.078125 -90.429688 15.429688 -89.984375 C 15.28125 -89.585938 15.28125 -89.585938 14.996094 -89.121094 C 14.519531 -88.847656 14.519531 -88.847656 13.90625 -88.609375 L 13.207031 -88.339844 L 12.40625 -88.042969 L 11.945312 -87.871094 C 11.457031 -87.6875 10.96875 -87.507812 10.476562 -87.328125 L 10.007812 -87.15625 C 9.386719 -86.9375 8.78125 -86.757812 8.132812 -86.648438 L 7.65625 -86.75 C 7.269531 -87.191406 7.269531 -87.191406 6.941406 -87.773438 L 6.609375 -88.351562 C 6.363281 -88.90625 6.363281 -88.90625 6.363281 -89.769531 C 7.296875 -90.132812 8.230469 -90.492188 9.167969 -90.847656 L 9.648438 -91.027344 C 10.140625 -91.210938 10.632812 -91.394531 11.125 -91.574219 L 11.601562 -91.753906 C 12.730469 -92.160156 12.730469 -92.160156 13.320312 -92.046875 M 9.398438 -90.523438 L 8.828125 -90.304688 C 8.363281 -90.128906 7.902344 -89.949219 7.441406 -89.769531 C 7.292969 -89.039062 7.292969 -89.039062 7.226562 -88.257812 C 7.644531 -87.683594 7.644531 -87.683594 8.304688 -87.398438 C 9.359375 -87.496094 10.347656 -87.820312 11.355469 -88.136719 L 11.8125 -88.28125 C 12.910156 -88.601562 12.910156 -88.601562 13.917969 -89.121094 C 14.09375 -89.78125 14.09375 -89.78125 14.132812 -90.414062 C 13.683594 -90.875 13.683594 -90.875 13.054688 -91.277344 C 11.695312 -91.429688 10.640625 -91.011719 9.398438 -90.523438 " fill-opacity="1" fill-rule="nonzero"/><g clip-path="url(#da7b23f7e4)"><path fill="#0c2240" d="M 66.808594 -93.433594 C 67.417969 -93.222656 67.839844 -93.046875 68.308594 -92.59375 C 69.273438 -91.925781 70.300781 -91.75 71.433594 -91.492188 C 71.902344 -91.382812 72.367188 -91.269531 72.835938 -91.160156 L 73.515625 -90.996094 C 74.320312 -90.804688 75.117188 -90.59375 75.914062 -90.375 L 76.585938 -90.191406 C 77.207031 -89.96875 77.710938 -89.71875 78.25 -89.335938 C 78.421875 -88.757812 78.421875 -88.757812 78.464844 -88.257812 L 77.9375 -88.367188 C 77.445312 -88.480469 77.445312 -88.480469 77.167969 -88.476562 L 76.953125 -88.042969 L 76.738281 -88.257812 C 76.011719 -88.320312 75.285156 -88.355469 74.558594 -88.394531 L 73.929688 -88.476562 L 73.714844 -88.90625 L 74.578125 -89.121094 L 74.578125 -89.550781 L 74.148438 -89.769531 L 73.929688 -90.199219 C 73.484375 -90.363281 73.035156 -90.511719 72.582031 -90.644531 L 71.835938 -90.867188 C 71.238281 -91.03125 70.652344 -91.160156 70.046875 -91.277344 C 68.847656 -91.601562 68 -92.109375 67.078125 -92.933594 L 66.808594 -93.214844 Z M 40.46875 -94.941406 C 40.902344 -94.960938 41.335938 -94.964844 41.765625 -94.960938 L 42.5625 -94.960938 L 43.398438 -94.953125 L 44.238281 -94.953125 C 44.925781 -94.949219 45.613281 -94.945312 46.300781 -94.941406 L 46.300781 -93.433594 L 40.46875 -93.433594 L 40.253906 -94.726562 Z M -8.964844 -21.226562 C -8.503906 -21.238281 -8.046875 -21.246094 -7.589844 -21.253906 L -6.8125 -21.269531 L -6.15625 -21.226562 L -5.726562 -20.796875 C -5.6875 -20.265625 -5.671875 -19.734375 -5.675781 -19.203125 L -5.675781 -18.730469 C -5.675781 -18.398438 -5.679688 -18.066406 -5.683594 -17.734375 C -5.6875 -17.226562 -5.6875 -16.71875 -5.6875 -16.207031 C -5.6875 -15.886719 -5.6875 -15.566406 -5.691406 -15.246094 L -5.691406 -14.78125 C -5.695312 -14.414062 -5.707031 -14.046875 -5.726562 -13.683594 L -5.941406 -13.46875 C -6.488281 -13.414062 -7.027344 -13.375 -7.574219 -13.347656 L -8.039062 -13.316406 C -8.417969 -13.292969 -8.800781 -13.273438 -9.179688 -13.25 L -9.394531 -13.898438 C -8.589844 -14.023438 -7.839844 -14.113281 -7.023438 -14.113281 C -6.40625 -17.359375 -6.40625 -17.359375 -6.804688 -20.578125 L -8.964844 -21.011719 Z M -24.292969 11.75 C -23.777344 11.925781 -23.777344 11.925781 -23.429688 12.183594 L -23.429688 12.398438 L -22.84375 12.25 L -22.078125 12.0625 L -21.320312 11.871094 C -20.621094 11.75 -20.621094 11.75 -20.136719 11.820312 C -19.609375 12.023438 -19.152344 12.3125 -18.679688 12.613281 C -18.734375 13.019531 -18.734375 13.019531 -18.894531 13.476562 C -19.269531 13.753906 -19.269531 13.753906 -19.757812 13.90625 C -20.285156 13.707031 -20.285156 13.707031 -20.835938 13.382812 C -21.375 13.054688 -21.375 13.054688 -21.917969 12.828125 C -22.71875 12.890625 -23.421875 13.34375 -24.128906 13.703125 L -24.835938 14.0625 L -25.371094 14.335938 L -25.800781 13.90625 L -25.15625 13.261719 L -25.585938 12.398438 C -24.992188 12.046875 -24.992188 12.046875 -24.292969 11.75 " fill-opacity="1" fill-rule="nonzero"/></g><g clip-path="url(#6eac038dad)"><path fill="#0c2240" d="M -10.042969 11.964844 C -9.679688 11.953125 -9.316406 11.949219 -8.949219 11.953125 L -8.347656 11.960938 L -7.886719 11.964844 C -7.804688 12.46875 -7.730469 12.972656 -7.667969 13.476562 L -7.886719 13.691406 C -8.238281 13.71875 -8.59375 13.730469 -8.949219 13.730469 L -9.535156 13.742188 L -10.042969 13.691406 L -10.476562 13.261719 C -10.40625 12.707031 -10.40625 12.707031 -10.257812 12.183594 Z M 149.917969 -19.285156 C 150.269531 -19.292969 150.621094 -19.296875 150.96875 -19.300781 L 151.5625 -19.308594 C 152.078125 -19.285156 152.078125 -19.285156 152.507812 -19.070312 C 152.746094 -18.355469 152.761719 -17.800781 152.765625 -17.050781 L 152.773438 -16.316406 C 152.722656 -15.625 152.625 -15.15625 152.292969 -14.542969 C 151.699219 -14.347656 151.351562 -14.304688 150.742188 -14.316406 L 149.917969 -14.328125 L 150.132812 -14.761719 L 151.644531 -15.191406 C 151.96875 -15.839844 151.878906 -16.4375 151.875 -17.15625 L 151.867188 -17.996094 L 151.859375 -18.640625 L 149.917969 -19.070312 Z M 149.917969 -19.285156 " fill-opacity="1" fill-rule="nonzero"/></g><g clip-path="url(#d09083d81b)"><path fill="#0c2240" d="M 73.5 -8.726562 L 75.226562 -8.292969 C 75.230469 -7.976562 75.234375 -7.65625 75.238281 -7.335938 L 75.246094 -6.800781 L 75.226562 -6.355469 L 75.011719 -6.140625 C 74.6875 -6.121094 74.367188 -6.113281 74.042969 -6.117188 L 73.457031 -6.121094 L 72.839844 -6.125 L 72.21875 -6.128906 C 71.707031 -6.128906 71.199219 -6.132812 70.691406 -6.140625 L 70.476562 -6.570312 L 74.148438 -6.785156 L 74.363281 -8.078125 L 73.5 -8.507812 Z M -10.042969 14.984375 C -9.527344 14.921875 -9.527344 14.921875 -8.9375 14.945312 L -8.34375 14.960938 L -7.886719 14.984375 L -7.667969 16.492188 C -8.585938 16.742188 -9.328125 16.65625 -10.257812 16.492188 C -10.394531 16.101562 -10.394531 16.101562 -10.476562 15.628906 Z M -10.042969 8.949219 C -9.480469 8.886719 -9.480469 8.886719 -8.828125 8.910156 L -8.171875 8.925781 L -7.667969 8.949219 L -7.667969 10.457031 L -10.257812 10.457031 L -10.476562 9.59375 Z M 10.03125 -9.804688 L 11.976562 -8.726562 L 11.976562 -8.292969 C 14.320312 -7.453125 16.640625 -7.285156 19.097656 -7.648438 L 18.882812 -7.214844 C 17.46875 -6.761719 16.136719 -6.589844 14.671875 -6.902344 C 12.898438 -7.394531 11.371094 -8.101562 10.03125 -9.371094 Z M 39.175781 -87.179688 C 39.53125 -87.203125 39.886719 -87.210938 40.242188 -87.207031 L 40.828125 -87.210938 C 41.332031 -87.179688 41.332031 -87.179688 41.765625 -86.964844 C 41.773438 -86.605469 41.773438 -86.246094 41.765625 -85.886719 L 41.550781 -85.671875 C 41.195312 -85.652344 40.839844 -85.644531 40.484375 -85.644531 L 39.898438 -85.644531 C 39.390625 -85.671875 39.390625 -85.671875 38.960938 -85.886719 C 38.949219 -86.246094 38.949219 -86.605469 38.960938 -86.964844 Z M 39.175781 -87.179688 " fill-opacity="1" fill-rule="nonzero"/></g><path fill="#0c2240" d="M 15.859375 11.320312 L 16.507812 11.535156 C 16.792969 12.035156 16.792969 12.035156 16.941406 12.613281 C 16.808594 13.023438 16.808594 13.023438 16.507812 13.476562 C 15.945312 13.9375 15.945312 13.9375 15.292969 14.390625 L 14.636719 14.851562 L 14.132812 15.199219 L 14.351562 16.492188 L 13.703125 16.277344 C 13.5 15.726562 13.5 15.726562 13.488281 14.984375 C 13.917969 14.402344 14.449219 13.949219 14.996094 13.476562 C 15.699219 12.824219 15.699219 12.824219 16.078125 11.964844 Z M 15.859375 11.320312 " fill-opacity="1" fill-rule="nonzero"/><g clip-path="url(#c9cddb197d)"><path fill="#0c2240" d="M 48.242188 25.546875 L 48.671875 25.761719 L 48.335938 26.113281 C 47.972656 26.617188 47.972656 26.617188 48.011719 27.269531 C 48.195312 27.949219 48.195312 27.949219 48.769531 28.386719 C 49.578125 28.800781 50.347656 29.035156 51.226562 29.25 L 51.695312 29.425781 L 52.128906 30.070312 C 50.582031 29.941406 49.347656 29.402344 48.027344 28.605469 C 47.59375 28.132812 47.59375 28.132812 47.363281 27.390625 L 47.378906 26.625 C 47.796875 25.992188 47.796875 25.992188 48.242188 25.546875 M 50.832031 -94.726562 L 51.480469 -94.726562 C 51.261719 -94.136719 51.03125 -93.617188 50.699219 -93.082031 L 50.402344 -92.570312 L 50.402344 -91.921875 C 50.96875 -91.640625 51.421875 -91.660156 52.054688 -91.640625 L 52.789062 -91.613281 L 53.558594 -91.585938 L 54.332031 -91.558594 C 54.964844 -91.535156 55.597656 -91.511719 56.230469 -91.492188 L 56.230469 -91.277344 C 55.3125 -91.265625 54.394531 -91.257812 53.476562 -91.25 L 52.6875 -91.238281 L 51.929688 -91.234375 L 51.230469 -91.226562 C 50.621094 -91.277344 50.269531 -91.394531 49.753906 -91.707031 C 49.820312 -92.703125 49.898438 -93.300781 50.375 -94.1875 Z M 108.039062 21.234375 L 108.6875 21.234375 C 108.640625 21.703125 108.640625 21.703125 108.46875 22.3125 C 108.03125 22.898438 108.03125 22.898438 107.472656 23.472656 L 106.921875 24.054688 C 106.722656 24.191406 106.519531 24.328125 106.3125 24.46875 C 105.53125 24.457031 105.53125 24.457031 104.800781 24.253906 C 104.285156 23.945312 103.945312 23.589844 103.503906 23.175781 C 104.152344 23.175781 104.152344 23.175781 104.789062 23.523438 L 105.449219 23.820312 C 105.90625 23.734375 105.90625 23.734375 106.3125 23.390625 L 106.984375 22.890625 C 107.628906 22.363281 107.628906 22.363281 107.902344 21.707031 Z M 100.050781 9.164062 C 101.363281 9.550781 102.421875 10.160156 103.425781 11.089844 C 103.960938 11.667969 104.144531 11.945312 104.367188 12.722656 L 104.367188 13.261719 L 104.003906 12.800781 L 103.503906 12.183594 L 103.007812 11.523438 C 102.277344 10.730469 101.558594 10.238281 100.519531 9.898438 C 99.910156 9.785156 99.324219 9.789062 98.703125 9.796875 L 97.996094 9.804688 L 97.460938 9.8125 L 97.246094 9.378906 C 98.199219 9.0625 99.054688 9.046875 100.050781 9.164062 M 96.8125 25.761719 L 97.027344 26.191406 C 97.613281 26.257812 98.183594 26.304688 98.769531 26.328125 L 99.265625 26.351562 C 99.671875 26.371094 100.078125 26.390625 100.484375 26.40625 L 100.699219 25.761719 L 101.347656 25.976562 L 101.347656 26.839844 C 99.882812 27.097656 98.242188 27.3125 96.8125 26.839844 Z M 112.140625 -48.167969 L 112.570312 -48.167969 C 112.457031 -47.023438 112.109375 -46.113281 111.492188 -45.152344 C 110.6875 -44.171875 109.871094 -43.488281 108.6875 -42.996094 L 108.6875 -43.644531 C 109.027344 -43.9375 109.027344 -43.9375 109.480469 -44.234375 C 110.363281 -44.867188 110.96875 -45.496094 111.492188 -46.445312 C 111.742188 -47.015625 111.941406 -47.578125 112.140625 -48.167969 M 97.027344 -57.007812 L 97.675781 -56.789062 L 97.675781 -56.359375 L 98.042969 -56.191406 C 98.804688 -55.789062 99.476562 -55.265625 100.171875 -54.753906 C 100.65625 -54.445312 101.003906 -54.296875 101.5625 -54.203125 L 101.5625 -53.773438 L 101.972656 -53.65625 L 102.507812 -53.488281 L 103.039062 -53.332031 L 103.503906 -53.125 L 103.9375 -52.480469 C 101.433594 -53.257812 99.238281 -54.511719 97.300781 -56.269531 L 97.027344 -56.574219 Z M -28.824219 20.15625 L -28.394531 20.371094 C -28.691406 20.804688 -28.691406 20.804688 -29.039062 21.234375 L -29.472656 21.234375 L -29.472656 21.882812 L -28.175781 21.664062 L -28.175781 22.097656 C -28.757812 22.433594 -28.757812 22.433594 -29.472656 22.742188 C -30.09375 22.675781 -30.09375 22.675781 -30.550781 22.527344 L -30.765625 21.664062 Z M 105.015625 6.148438 C 105.703125 6.199219 106.121094 6.378906 106.722656 6.722656 L 107.351562 7.171875 L 107.988281 7.613281 L 108.46875 8.085938 C 108.574219 8.644531 108.574219 8.644531 108.46875 9.164062 C 107.929688 9.769531 107.929688 9.769531 107.390625 10.242188 L 107.175781 9.8125 L 107.390625 9.421875 C 107.644531 8.953125 107.644531 8.953125 107.605469 8.410156 C 107.417969 7.820312 107.417969 7.820312 106.839844 7.386719 C 105.960938 6.941406 105.34375 6.859375 104.367188 6.792969 C 104.625 6.457031 104.625 6.457031 105.015625 6.148438 M 130.488281 -10.449219 L 130.765625 -10.074219 C 131.125 -9.601562 131.496094 -9.140625 131.878906 -8.683594 L 132.257812 -8.230469 C 132.621094 -7.84375 132.621094 -7.84375 133.089844 -7.6875 L 133.511719 -7.648438 C 134.097656 -7.914062 134.097656 -7.914062 134.589844 -8.292969 L 134.808594 -8.726562 L 135.453125 -8.726562 C 135.320312 -8.347656 135.320312 -8.347656 135.023438 -7.863281 C 134.414062 -7.363281 134.414062 -7.363281 133.726562 -7 C 133.214844 -7.019531 133.214844 -7.019531 132.648438 -7.214844 C 132.078125 -7.679688 132.078125 -7.679688 131.515625 -8.253906 L 130.945312 -8.824219 C 130.488281 -9.371094 130.488281 -9.371094 130.304688 -9.859375 L 130.273438 -10.234375 Z M 130.488281 -10.449219 " fill-opacity="1" fill-rule="nonzero"/></g><g clip-path="url(#6e92307449)"><path fill="#0c2240" d="M 11.757812 5.929688 C 12.246094 5.988281 12.246094 5.988281 12.839844 6.148438 C 14.226562 7.292969 15.074219 8.871094 15.859375 10.457031 C 15.46875 10.304688 15.46875 10.304688 14.996094 10.027344 C 14.675781 9.558594 14.675781 9.558594 14.375 9.003906 C 13.816406 8.023438 13.261719 7.316406 12.40625 6.578125 L 11.757812 6.363281 Z M 100.914062 -60.886719 C 101.441406 -60.832031 101.957031 -60.765625 102.480469 -60.683594 C 103.480469 -60.535156 104.433594 -60.429688 105.449219 -60.453125 L 105.449219 -60.023438 C 103.777344 -60 102.140625 -60.03125 100.484375 -60.238281 L 100.484375 -59.808594 L 99.835938 -60.023438 C 100.1875 -60.390625 100.453125 -60.65625 100.914062 -60.886719 M 12.621094 -84.164062 L 13.378906 -84.054688 C 14.917969 -83.882812 16.472656 -83.929688 18.019531 -83.949219 C 17.808594 -83.628906 17.808594 -83.628906 17.371094 -83.300781 C 16.769531 -83.242188 16.167969 -83.222656 15.5625 -83.234375 L 15.070312 -83.230469 C 14.160156 -83.242188 13.453125 -83.320312 12.621094 -83.734375 Z M -32.0625 19.078125 L -31.632812 19.078125 C -31.613281 19.582031 -31.613281 20.085938 -31.632812 20.589844 L -32.0625 21.234375 C -32.425781 21.171875 -32.785156 21.097656 -33.140625 21.019531 L -33.359375 20.804688 C -33.367188 20.445312 -33.367188 20.085938 -33.359375 19.726562 L -32.277344 19.511719 L -32.496094 20.15625 L -32.0625 20.15625 Z M 40.6875 -8.078125 L 41.117188 -7.863281 L 41.550781 -6.570312 L 44.355469 -6.570312 L 44.570312 -6.140625 C 43.964844 -6.132812 43.359375 -6.128906 42.75 -6.125 L 42.226562 -6.121094 C 41.785156 -6.117188 41.34375 -6.128906 40.902344 -6.140625 L 40.6875 -6.355469 C 40.65625 -6.929688 40.675781 -7.5 40.6875 -8.078125 M 56.230469 -95.804688 L 56.230469 -95.371094 L 55.863281 -95.359375 C 55.316406 -95.339844 54.765625 -95.316406 54.21875 -95.292969 L 53.644531 -95.269531 L 53.089844 -95.246094 L 52.578125 -95.226562 C 52.0625 -95.179688 52.0625 -95.179688 51.480469 -94.726562 L 51.265625 -95.15625 L 51.480469 -95.585938 C 53.105469 -96.101562 54.550781 -95.996094 56.230469 -95.804688 M -19.972656 17.785156 C -19.460938 17.960938 -19.460938 17.960938 -18.894531 18.21875 L -18.460938 18.863281 L -18.894531 19.726562 L -20.40625 19.511719 L -20.40625 18.863281 L -19.972656 19.078125 L -20.191406 18.433594 L -19.757812 18.433594 Z M 113.003906 16.492188 C 113.320312 16.480469 113.632812 16.472656 113.949219 16.464844 L 114.480469 16.449219 L 114.945312 16.492188 L 115.378906 16.925781 L 115.378906 17.785156 L 114.988281 17.585938 C 114.496094 17.332031 114.496094 17.332031 113.867188 17.140625 L 113.21875 17.570312 L 112.570312 17.355469 Z M 6.792969 9.378906 C 7.113281 10.332031 7.019531 11.292969 7 12.289062 C 6.992188 13.285156 7.058594 14.214844 7.226562 15.199219 C 6.792969 14.769531 6.792969 14.769531 6.550781 14.027344 C 6.234375 12.644531 6.207031 11.25 6.578125 9.878906 Z M 6.792969 9.378906 " fill-opacity="1" fill-rule="nonzero"/></g><g clip-path="url(#71d573dc74)"><path fill="#0c2240" d="M 99.09375 3.734375 L 99.835938 3.726562 C 100.484375 3.777344 100.484375 3.777344 101.128906 4.207031 C 101.171875 4.773438 101.171875 4.773438 101.128906 5.285156 L 100.484375 5.070312 L 100.484375 4.421875 L 97.027344 4.421875 L 96.8125 3.992188 C 97.578125 3.757812 98.296875 3.738281 99.09375 3.734375 M 149.269531 -24.675781 L 150.132812 -24.242188 C 150.214844 -23.800781 150.214844 -23.800781 150.132812 -23.167969 C 149.746094 -22.621094 149.304688 -22.136719 148.839844 -21.65625 L 148.191406 -21.875 C 148.269531 -21.96875 148.347656 -22.0625 148.425781 -22.15625 C 148.738281 -22.554688 149.019531 -22.941406 149.269531 -23.382812 C 149.359375 -24.09375 149.359375 -24.09375 149.269531 -24.675781 M -35.515625 15.199219 C -34.761719 15.253906 -34.761719 15.253906 -34.003906 15.414062 L -33.574219 15.847656 L -34.867188 15.628906 L -34.867188 16.492188 L -34.4375 17.140625 L -35.734375 16.707031 C -35.867188 16.195312 -35.867188 16.195312 -35.949219 15.628906 Z M 70.476562 -63.472656 C 71.25 -63.144531 71.757812 -62.6875 72.351562 -62.097656 L 72.867188 -61.59375 C 73.28125 -61.101562 73.28125 -61.101562 73.449219 -60.609375 L 73.5 -60.238281 C 73.121094 -60.011719 73.121094 -60.011719 72.636719 -59.808594 C 72.148438 -59.890625 72.148438 -59.890625 71.773438 -60.023438 L 71.773438 -60.238281 L 72.851562 -60.453125 C 72.351562 -61.449219 71.625 -62.136719 70.832031 -62.894531 L 70.476562 -63.257812 Z M 119.695312 -95.371094 L 119.480469 -94.292969 C 118.886719 -94.050781 118.886719 -94.050781 118.183594 -93.863281 C 117.671875 -94.050781 117.671875 -94.050781 117.320312 -94.292969 C 117.554688 -94.476562 117.789062 -94.65625 118.023438 -94.832031 L 118.417969 -95.136719 C 118.832031 -95.371094 118.832031 -95.371094 119.695312 -95.371094 M 62.921875 -57.007812 L 63.785156 -57.007812 L 63.785156 -55.066406 L 62.488281 -55.066406 L 62.488281 -55.496094 L 62.921875 -55.496094 L 62.800781 -56.128906 L 62.707031 -56.789062 Z M 62.921875 -57.007812 " fill-opacity="1" fill-rule="nonzero"/></g><g clip-path="url(#368c69a4bc)"><path fill="#0c2240" d="M 97.460938 28.132812 L 100.265625 28.347656 L 100.265625 28.777344 L 99.621094 29.210938 C 98.808594 29.140625 98.167969 28.96875 97.460938 28.5625 Z M 87.53125 -94.511719 L 87.746094 -94.078125 L 87.53125 -93.433594 L 87.746094 -92.785156 C 88.503906 -92.519531 88.503906 -92.519531 89.257812 -92.355469 L 89.257812 -91.921875 L 87.316406 -92.140625 C 87.058594 -92.71875 87.058594 -92.71875 86.882812 -93.433594 C 87.179688 -94.050781 87.179688 -94.050781 87.53125 -94.511719 M 128.113281 -15.40625 L 128.761719 -14.976562 C 129.378906 -14.847656 129.996094 -14.757812 130.621094 -14.664062 L 131.136719 -14.542969 L 131.351562 -14.113281 L 128.332031 -14.328125 Z M 103.074219 25.113281 C 104.058594 25.230469 104.792969 25.5 105.664062 25.976562 L 105.015625 26.191406 L 104.503906 26.085938 C 103.882812 25.964844 103.464844 26.035156 102.859375 26.191406 Z M -19.972656 15.199219 L -18.894531 15.414062 L -18.679688 16.277344 C -19.285156 16.722656 -19.285156 16.722656 -19.972656 17.140625 L -20.621094 16.925781 L -20.203125 16.535156 C -19.714844 16.082031 -19.714844 16.082031 -19.542969 15.414062 Z M 71.773438 -12.171875 L 74.792969 -11.527344 L 74.792969 -11.957031 L 75.226562 -11.957031 L 75.011719 -11.097656 C 73.71875 -11.027344 72.929688 -11.164062 71.773438 -11.742188 Z M 97.027344 -46.875 L 103.289062 -46.445312 L 103.289062 -46.230469 C 102.632812 -46.179688 101.976562 -46.136719 101.320312 -46.09375 L 100.757812 -46.050781 C 99.695312 -45.988281 98.890625 -46.011719 97.894531 -46.445312 Z M 22.769531 -10.878906 L 23.199219 -10.878906 C 22.976562 -10.113281 22.652344 -9.644531 22.09375 -9.089844 L 21.472656 -8.507812 L 20.824219 -8.726562 L 21.3125 -9.195312 C 21.910156 -9.78125 21.910156 -9.78125 22.378906 -10.410156 Z M 70.046875 -13.46875 C 70.570312 -13.035156 70.570312 -13.035156 70.910156 -12.605469 L 70.570312 -12.710938 C 69.597656 -12.914062 68.621094 -12.910156 67.671875 -12.605469 L 67.453125 -13.035156 C 68.34375 -13.46875 69.058594 -13.574219 70.046875 -13.46875 M 140.851562 -22.304688 C 142.507812 -22.058594 142.507812 -22.058594 143.210938 -21.605469 C 143.515625 -21.347656 143.804688 -21.074219 144.089844 -20.796875 L 143.875 -20.363281 L 143.546875 -20.585938 C 142.589844 -21.214844 141.757812 -21.617188 140.636719 -21.875 Z M 140.851562 -22.304688 " fill-opacity="1" fill-rule="nonzero"/></g><path fill="#112743" d="M 8.953125 7.007812 L 9.386719 7.226562 L 7.441406 9.164062 L 7.226562 8.734375 C 8.222656 7.496094 8.222656 7.496094 8.953125 7.007812 " fill-opacity="1" fill-rule="nonzero"/><g clip-path="url(#6bb295a487)"><path fill="#0c2240" d="M 23.847656 -15.621094 L 24.496094 -15.621094 C 24.515625 -15.121094 24.511719 -14.617188 24.496094 -14.113281 L 24.0625 -13.46875 C 23.894531 -14.203125 23.828125 -14.871094 23.847656 -15.621094 M 8.304688 -16.699219 L 8.519531 -16.699219 L 8.515625 -16.148438 C 8.511719 -15.914062 8.511719 -15.675781 8.507812 -15.433594 L 8.5 -14.722656 C 8.480469 -14.125 8.480469 -14.125 8.738281 -13.683594 C 8.535156 -13.222656 8.535156 -13.222656 8.304688 -12.820312 C 8.074219 -13.515625 8.0625 -14.03125 8.0625 -14.761719 L 8.0625 -15.445312 C 8.089844 -16.054688 8.089844 -16.054688 8.304688 -16.699219 M 148.191406 -49.894531 L 147.976562 -49.246094 L 145.816406 -49.03125 L 145.601562 -49.460938 C 146.441406 -50.023438 147.214844 -49.925781 148.191406 -49.894531 M 53.640625 27.054688 C 54.058594 27.230469 54.058594 27.230469 54.503906 27.484375 L 54.71875 28.132812 L 55.148438 28.132812 C 55.5 28.5625 55.5 28.5625 55.796875 28.996094 L 54.933594 28.996094 C 54.566406 28.625 54.566406 28.625 54.230469 28.144531 L 53.890625 27.667969 L 53.640625 27.269531 Z M 130.488281 -24.242188 C 131.050781 -23.40625 131.554688 -22.5625 132 -21.65625 C 131.75 -21.851562 131.503906 -22.050781 131.257812 -22.25 C 131.121094 -22.359375 130.984375 -22.46875 130.839844 -22.582031 C 130.488281 -22.949219 130.488281 -22.949219 130.320312 -23.398438 L 130.273438 -23.8125 Z M 150.996094 -80.929688 L 151.429688 -80.929688 C 151.4375 -80.570312 151.4375 -80.210938 151.429688 -79.851562 L 151.214844 -79.636719 C 150.78125 -79.628906 150.351562 -79.628906 149.917969 -79.636719 C 150.265625 -80.078125 150.625 -80.507812 150.996094 -80.929688 M 52.34375 -52.910156 L 52.773438 -52.695312 L 52.558594 -50.109375 L 52.34375 -50.109375 C 52.300781 -50.535156 52.261719 -50.960938 52.222656 -51.386719 L 52.152344 -52.109375 L 52.128906 -52.695312 Z M 23.632812 -12.820312 L 24.0625 -12.820312 C 23.945312 -12.101562 23.773438 -11.519531 23.417969 -10.878906 L 22.984375 -11.3125 Z M 132.863281 -26.613281 C 133.457031 -26.574219 133.457031 -26.574219 134.160156 -26.398438 C 134.671875 -25.847656 134.671875 -25.847656 135.023438 -25.320312 L 134.683594 -25.511719 C 134.023438 -25.816406 133.351562 -25.996094 132.648438 -26.183594 Z M 139.125 -28.984375 C 139.617188 -28.996094 140.113281 -29.007812 140.609375 -29.011719 L 141.441406 -29.027344 L 142.148438 -28.984375 L 142.578125 -28.554688 L 141.929688 -28.339844 L 141.5 -28.554688 C 141.09375 -28.605469 140.691406 -28.644531 140.285156 -28.675781 L 139.628906 -28.730469 L 139.125 -28.769531 Z M 139.125 -28.984375 " fill-opacity="1" fill-rule="nonzero"/></g><g clip-path="url(#162c973bf3)"><path fill="#0c2240" d="M 24.925781 -84.8125 L 25.574219 -84.8125 L 25.574219 -84.378906 C 25.246094 -84.101562 25.246094 -84.101562 24.820312 -83.8125 L 24.394531 -83.523438 L 24.0625 -83.300781 L 24.0625 -83.949219 C 24.457031 -84.421875 24.457031 -84.421875 24.925781 -84.8125 M 107.824219 17.570312 L 108.253906 17.570312 L 107.605469 19.511719 L 107.175781 19.296875 C 107.578125 18.054688 107.578125 18.054688 107.824219 17.570312 M 135.671875 -66.921875 L 138.910156 -66.707031 L 138.910156 -66.488281 C 136.960938 -66.210938 136.960938 -66.210938 136.074219 -66.476562 L 135.671875 -66.707031 Z M 135.671875 -66.921875 " fill-opacity="1" fill-rule="nonzero"/></g></svg>